g Arrow_Thick_Inside
v 0 0.225 0.5
v 0.4 0.225 0
v 0 0.225 0.5
v -0.4 0.225 0
v 0 -0.225 0.5
v -0.4 -0.225 0
v 0 -0.225 0.5
v 0.4 -0.225 0
v 0.4 -0.225 0
v 0.4 0.225 0
v -0.4 -0.225 0
v -0.4 0.225 0
v 0 -0.225 0.5
v 0 0.225 0.5
v 0.4 -0.225 0
v 0.4 0.225 0
v -0.4 -0.225 1.490116E-08
v -0.4 0.225 1.490116E-08
v 0 -0.225 0.5
v 0 0.225 0.5
v 0.2 0.225 -0.5
v 0.15 0.225 0
v -0.2 0.225 -0.5
v -0.15 0.225 0
v -0.2 -0.225 -0.5
v -0.15 -0.225 0
v 0.2 -0.225 -0.5
v 0.15 -0.225 0
v 0.2 -0.225 -0.5
v 0.2 0.225 -0.5
v -0.2 -0.225 -0.5
v -0.2 0.225 -0.5
v 0.15 -0.225 0
v 0.15 0.225 0
v 0.2 -0.225 -0.5
v 0.2 0.225 -0.5
v -0.2 -0.225 -0.5
v -0.2 0.225 -0.5
v -0.15 -0.225 0
v -0.15 0.225 0
vt 0 0
vt 0 -1
vt 1 0
vt 1 -1
vt 0 0
vt 0 -1
vt 1 0
vt 1 -1
vt 0 0
vt 0 1
vt 1 0
vt 1 1
vt 0 0
vt 0 1
vt 1 0
vt 1 1
vt 0 0
vt 0 1
vt 1 0
vt 1 1
vt 0 -1
vt 0 0
vt 1 -1
vt 1 0
vt 0 -1
vt 0 0
vt 1 -1
vt 1 0
vt 0 0
vt 0 1
vt 1 0
vt 1 1
vt 0 0
vt 0 1
vt 1 0
vt 1 1
vt 0 0
vt 0 1
vt 1 0
vt 1 1
vn 0 1 0
vn 0 1 0
vn 0 1 0
vn 0 1 0
vn 0 -1 0
vn 0 -1 0
vn 0 -1 0
vn 0 -1 0
vn 0 0 -1
vn 0 0 -1
vn 0 0 -1
vn 0 0 -1
vn 0.7808688 0 0.6246951
vn 0.7808688 0 0.6246951
vn 0.7808688 0 0.6246951
vn 0.7808688 0 0.6246951
vn -0.7808688 0 0.6246951
vn -0.7808688 0 0.6246951
vn -0.7808688 0 0.6246951
vn -0.7808688 0 0.6246951
vn 0 1 0
vn 0 1 0
vn 0 1 0
vn 0 1 0
vn 0 -1 0
vn 0 -1 0
vn 0 -1 0
vn 0 -1 0
vn 0 0 -1
vn 0 0 -1
vn 0 0 -1
vn 0 0 -1
vn 0.9950372 0 0.09950372
vn 0.9950372 0 0.09950372
vn 0.9950372 0 0.09950372
vn 0.9950372 0 0.09950372
vn -0.9950372 0 0.09950372
vn -0.9950372 0 0.09950372
vn -0.9950372 0 0.09950372
vn -0.9950372 0 0.09950372
g Arrow_Thick_Inside_0
f 1/1/1 2/2/2 4/4/4
f 5/5/5 6/6/6 8/8/8
f 12/12/12 10/10/10 9/9/9
f 9/9/9 11/11/11 12/12/12
f 16/16/16 14/14/14 13/13/13
f 13/13/13 15/15/15 16/16/16
f 20/20/20 18/18/18 17/17/17
f 17/17/17 19/19/19 20/20/20
f 24/24/24 22/22/22 21/21/21
f 21/21/21 23/23/23 24/24/24
f 28/28/28 26/26/26 25/25/25
f 25/25/25 27/27/27 28/28/28
f 32/32/32 30/30/30 29/29/29
f 29/29/29 31/31/31 32/32/32
f 36/36/36 34/34/34 33/33/33
f 33/33/33 35/35/35 36/36/36
f 40/40/40 38/38/38 37/37/37
f 37/37/37 39/39/39 40/40/40
