g BG_Mountain_Round
v 0.3431156 0 3.405005
v 0.3169975 0.1313047 -0.000778656
v 0.3431156 1.503209E-08 -0.000778656
v 0.3169975 0.1313047 3.405005
v 0.2426194 0.2426194 -0.000778656
v 0.2426194 0.2426194 3.405005
v 0.1313047 0.3169975 -0.000778656
v 0.1313047 0.3169975 3.405005
v -1.499806E-08 0.3431156 -0.000778656
v -1.499806E-08 0.3431156 3.405005
v -0.1313047 0.3169975 -0.000778656
v -0.1313047 0.3169975 3.405005
v -0.2426194 0.2426194 -0.000778656
v -0.2426194 0.2426194 3.405005
v -0.3169975 0.1313047 -0.000778656
v -0.3169975 0.1313047 3.405005
v -0.3431156 6.68411E-08 -0.000778656
v -0.3431156 5.180901E-08 3.405005
v -0.3169975 -0.1313046 -0.000778656
v -0.3169975 -0.1313046 3.405005
v -0.2426195 -0.2426193 -0.000778656
v -0.2426195 -0.2426193 3.405005
v -0.1313047 -0.3169975 -0.000778656
v -0.1313047 -0.3169975 3.405005
v 4.091613E-09 -0.3431156 -0.000778656
v 4.091613E-09 -0.3431156 3.405005
v 0.1313047 -0.3169974 -0.000778656
v 0.1313047 -0.3169975 3.405005
v 0.2426195 -0.2426193 -0.000778656
v 0.2426195 -0.2426193 3.405005
v 0.3169976 -0.1313045 -0.000778656
v 0.3169976 -0.1313045 3.405005
v 0.3431156 1.503209E-08 -0.000778656
v 0.3431156 0 3.405005
v 0.2379576 -0.2379574 3.471943
v 0.3169976 -0.1313045 3.405005
v 0.2426195 -0.2426193 3.405005
v 0.1287817 -0.3109064 3.471943
v 0.1313047 -0.3169975 3.405005
v 0.3109065 -0.1287815 3.471943
v 0.3431156 0 3.405005
v 4.012993E-09 -0.3365228 3.471943
v 4.091613E-09 -0.3431156 3.405005
v 0.3365228 0 3.471943
v 0.3169975 0.1313047 3.405005
v -0.1287817 -0.3109065 3.471943
v -0.1313047 -0.3169975 3.405005
v 0.3109065 0.1287817 3.471943
v 0.2426194 0.2426194 3.405005
v -0.2379576 -0.2379574 3.471943
v -0.2426195 -0.2426193 3.405005
v 0.2379575 0.2379575 3.471943
v 0.1313047 0.3169975 3.405005
v -0.3109065 -0.1287816 3.471943
v -0.3169975 -0.1313046 3.405005
v 0.1287817 0.3109065 3.471943
v -1.499806E-08 0.3431156 3.405005
v -0.3365228 5.081352E-08 3.471943
v -0.3431156 5.180901E-08 3.405005
v -1.470988E-08 0.3365228 3.471943
v -0.1313047 0.3169975 3.405005
v -0.3109065 0.1287817 3.471943
v -0.3169975 0.1313047 3.405005
v -0.1287817 0.3109065 3.471943
v -0.2426194 0.2426194 3.405005
v -0.2379575 0.2379575 3.471943
v 0.2241511 0.2241511 3.536309
v 0.1213097 0.2928675 3.536309
v -1.38564E-08 0.3169975 3.536309
v -0.1213097 0.2928675 3.536309
v -0.2241511 0.2241511 3.536309
v -0.2928675 0.1213097 3.536309
v 0.2928675 0.1213097 3.536309
v -0.3169975 4.786529E-08 3.536309
v 0.3169975 0 3.536309
v -0.2928675 -0.1213096 3.536309
v 0.2928676 -0.1213095 3.536309
v -0.2241511 -0.224151 3.536309
v 0.2241511 -0.224151 3.536309
v -0.1213097 -0.2928675 3.536309
v 0.1213097 -0.2928675 3.536309
v 3.780157E-09 -0.3169975 3.536309
v 0.2635739 -0.1091757 3.595629
v 0.2017307 -0.2017306 3.595629
v 0.1091759 -0.2635738 3.595629
v 3.402052E-09 -0.2852902 3.595629
v -0.1091759 -0.2635738 3.595629
v -0.2017307 -0.2017306 3.595629
v 0.2852902 0 3.595629
v -0.2635738 -0.1091758 3.595629
v 0.2635738 0.1091758 3.595629
v -0.2852902 4.307762E-08 3.595629
v 0.2017307 0.2017307 3.595629
v -0.2635738 0.1091759 3.595629
v 0.1091758 0.2635738 3.595629
v -0.2017307 0.2017307 3.595629
v -1.247043E-08 0.2852902 3.595629
v -0.1091759 0.2635738 3.595629
v 0.2241511 0.09284642 3.647624
v 0.1715578 0.1715578 3.647624
v 0.09284641 0.2241511 3.647624
v -1.060523E-08 0.2426194 3.647624
v -0.09284644 0.2241511 3.647624
v -0.1715578 0.1715578 3.647624
v 0.2426194 0 3.647624
v -0.2241511 0.09284643 3.647624
v 0.2241511 -0.0928463 3.647624
v -0.2426194 3.663451E-08 3.647624
v 0.1715579 -0.1715578 3.647624
v -0.2241511 -0.09284636 3.647624
v 0.09284646 -0.2241511 3.647624
v -0.1715579 -0.1715578 3.647624
v 2.893207E-09 -0.2426194 3.647624
v -0.09284645 -0.2241511 3.647624
v 0.1347921 -0.1347921 3.690295
v 0.07294899 -0.1761144 3.690295
v 2.273178E-09 -0.1906248 3.690295
v -0.07294898 -0.1761144 3.690295
v -0.1347921 -0.1347921 3.690295
v -0.1761144 -0.07294893 3.690295
v 0.1761144 -0.07294887 3.690295
v -0.1906248 2.878355E-08 3.690295
v 0.1906248 0 3.690295
v -0.1761144 0.07294898 3.690295
v 0.1761144 0.07294896 3.690295
v -0.1347921 0.1347921 3.690295
v 0.1347921 0.1347921 3.690295
v -0.07294898 0.1761144 3.690295
v 0.07294896 0.1761144 3.690295
v -8.332476E-09 0.1906248 3.690295
v 0.1313047 0 3.722002
v 0.1213097 0.05024813 3.722002
v 0.09284642 0.09284642 3.722002
v 0.05024812 0.1213097 3.722002
v -5.739509E-09 0.1313047 3.722002
v -0.05024813 0.1213097 3.722002
v 0.1213097 -0.05024806 3.722002
v -0.09284642 0.09284642 3.722002
v 0.09284645 -0.09284639 3.722002
v -0.1213097 0.05024813 3.722002
v 0.05024815 -0.1213097 3.722002
v -0.1313047 1.982646E-08 3.722002
v 1.565793E-09 -0.1313047 3.722002
v -0.1213097 -0.05024809 3.722002
v -0.05024814 -0.1213097 3.722002
v -0.09284645 -0.0928464 3.722002
v 0.02561628 -0.06184314 3.741527
v 7.982341E-10 -0.06693853 3.741527
v 0 0 3.74812
v 0.04733271 -0.04733268 3.741527
v -0.02561628 -0.06184314 3.741527
v 0.06184316 -0.02561624 3.741527
v -0.04733271 -0.04733268 3.741527
v 0.06693853 0 3.741527
v -0.06184315 -0.02561625 3.741527
v 0.06184314 0.02561627 3.741527
v -0.06693853 1.010744E-08 3.741527
v 0.04733269 0.04733269 3.741527
v -0.06184314 0.02561627 3.741527
v 0.02561627 0.06184314 3.741527
v -0.04733269 0.04733269 3.741527
v -2.925976E-09 0.06693853 3.741527
v -0.02561628 0.06184314 3.741527
vt 0 1
vt 0.0625 0
vt 0 0
vt 0.0625 1
vt 0.125 0
vt 0.125 1
vt 0.1875 0
vt 0.1875 1
vt 0.25 0
vt 0.25 1
vt 0.3125 0
vt 0.3125 1
vt 0.375 0
vt 0.375 1
vt 0.4375 0
vt 0.4375 1
vt 0.5 0
vt 0.5 1
vt 0.5625 0
vt 0.5625 1
vt 0.625 0
vt 0.625 1
vt 0.6875 0
vt 0.6875 1
vt 0.75 0
vt 0.75 1
vt 0.8125 0
vt 0.8125 1
vt 0.875 0
vt 0.875 1
vt 0.9375 0
vt 0.9375 1
vt 1 0
vt 1 1
vt 0.8467601 0.1532401
vt 0.9619399 0.3086585
vt 0.8535535 0.1464467
vt 0.6876652 0.04693632
vt 0.6913418 0.03806027
vt 0.9530638 0.3123351
vt 1 0.5
vt 0.5 0.009607352
vt 0.5 0
vt 0.9903926 0.5
vt 0.9619397 0.6913417
vt 0.3123348 0.04693629
vt 0.3086582 0.03806024
vt 0.9530637 0.6876652
vt 0.8535534 0.8535534
vt 0.1532399 0.1532401
vt 0.1464465 0.1464467
vt 0.84676 0.84676
vt 0.6913417 0.9619397
vt 0.04693624 0.312335
vt 0.03806018 0.3086584
vt 0.6876651 0.9530637
vt 0.5 1
vt 0.009607352 0.5000001
vt 0 0.5000001
vt 0.5 0.9903926
vt 0.3086582 0.9619397
vt 0.04693629 0.6876652
vt 0.03806024 0.6913418
vt 0.3123348 0.9530637
vt 0.1464466 0.8535534
vt 0.15324 0.84676
vt 0.8266407 0.8266407
vt 0.6767766 0.9267767
vt 0.5 0.9619397
vt 0.3232233 0.9267767
vt 0.1733593 0.8266407
vt 0.07322332 0.6767767
vt 0.9267767 0.6767767
vt 0.03806024 0.5000001
vt 0.9619397 0.5
vt 0.07322326 0.3232234
vt 0.9267768 0.3232235
vt 0.1733592 0.1733593
vt 0.8266408 0.1733594
vt 0.3232232 0.07322332
vt 0.6767768 0.07322334
vt 0.5 0.03806024
vt 0.8840889 0.3409053
vt 0.793969 0.2060312
vt 0.6590949 0.1159111
vt 0.5 0.08426517
vt 0.3409051 0.1159111
vt 0.206031 0.2060312
vt 0.9157348 0.5
vt 0.1159111 0.3409052
vt 0.8840888 0.6590948
vt 0.08426517 0.5000001
vt 0.7939689 0.7939689
vt 0.1159111 0.6590949
vt 0.6590948 0.8840888
vt 0.2060311 0.7939689
vt 0.5 0.9157348
vt 0.3409051 0.8840888
vt 0.8266407 0.635299
vt 0.75 0.75
vt 0.635299 0.8266407
vt 0.5 0.8535534
vt 0.3647009 0.8266407
vt 0.25 0.75
vt 0.8535534 0.5
vt 0.1733593 0.6352991
vt 0.8266408 0.3647012
vt 0.1464466 0.5000001
vt 0.7500001 0.2500001
vt 0.1733592 0.364701
vt 0.6352991 0.1733593
vt 0.2499999 0.2500001
vt 0.5 0.1464466
vt 0.3647009 0.1733593
vt 0.6964238 0.3035763
vt 0.6063038 0.24336
vt 0.5 0.2222149
vt 0.3936962 0.24336
vt 0.3035762 0.3035763
vt 0.24336 0.3936963
vt 0.7566401 0.3936964
vt 0.2222149 0.5000001
vt 0.7777851 0.5
vt 0.24336 0.6063038
vt 0.75664 0.6063038
vt 0.3035763 0.6964237
vt 0.6964237 0.6964237
vt 0.3936962 0.75664
vt 0.6063038 0.75664
vt 0.5 0.7777851
vt 0.6913417 0.5
vt 0.6767767 0.5732233
vt 0.635299 0.635299
vt 0.5732233 0.6767767
vt 0.5 0.6913417
vt 0.4267766 0.6767767
vt 0.6767768 0.4267768
vt 0.364701 0.635299
vt 0.6352991 0.364701
vt 0.3232233 0.5732234
vt 0.5732234 0.3232233
vt 0.3086583 0.5000001
vt 0.5 0.3086583
vt 0.3232233 0.4267767
vt 0.4267766 0.3232233
vt 0.3647009 0.364701
vt 0.5373289 0.40988
vt 0.5 0.4024549
vt 0.5 0.5
vt 0.5689749 0.4310251
vt 0.4626711 0.40988
vt 0.59012 0.4626711
vt 0.4310251 0.4310251
vt 0.5975452 0.5
vt 0.40988 0.4626711
vt 0.59012 0.5373289
vt 0.4024549 0.5
vt 0.5689749 0.5689749
vt 0.40988 0.5373289
vt 0.5373289 0.59012
vt 0.4310251 0.5689749
vt 0.5 0.5975452
vt 0.4626711 0.59012
vn 0.9988099 1.607481E-07 0.04877166
vn 0.9238795 0.3826834 0
vn 1 1.444788E-07 0
vn 0.9227801 0.3822281 0.04877172
vn 0.7071068 0.7071068 0
vn 0.7062653 0.7062653 0.04877171
vn 0.3826833 0.9238795 0
vn 0.382228 0.9227801 0.04877169
vn 0 1 0
vn 0 0.9988099 0.04877166
vn -0.3826834 0.9238795 0
vn -0.3822281 0.9227801 0.04877172
vn -0.7071068 0.7071068 0
vn -0.7062653 0.7062653 0.04877171
vn -0.9238795 0.3826835 0
vn -0.9227801 0.3822281 0.04877172
vn -1 1.741E-07 0
vn -0.9988099 1.656193E-07 0.04877166
vn -0.9238796 -0.3826832 0
vn -0.9227802 -0.3822279 0.04877172
vn -0.7071069 -0.7071066 0
vn -0.7062655 -0.706265 0.04877163
vn -0.3826836 -0.9238794 0
vn -0.3822281 -0.92278 0.0487717
vn 0 -1 0
vn 0 -0.9988099 0.04877166
vn 0.3826837 -0.9238794 0
vn 0.3822283 -0.92278 0.04877171
vn 0.707107 -0.7071065 0
vn 0.7062655 -0.706265 0.04877163
vn 0.9238796 -0.3826831 0
vn 0.9227802 -0.3822277 0.04877169
vn 1 1.444788E-07 0
vn 0.9988099 1.607481E-07 0.04877166
vn 0.6938403 -0.69384 0.1928
vn 0.9227802 -0.3822277 0.04877169
vn 0.7062655 -0.706265 0.04877163
vn 0.3755037 -0.9065457 0.1928001
vn 0.3822283 -0.92278 0.04877171
vn 0.9065459 -0.3755033 0.1928
vn 0.9988099 1.607481E-07 0.04877166
vn 0 -0.9812381 0.1928
vn 0 -0.9988099 0.04877166
vn 0.9812381 1.621604E-07 0.1928
vn 0.9227801 0.3822281 0.04877172
vn -0.3755036 -0.9065458 0.1928001
vn -0.3822281 -0.92278 0.0487717
vn 0.9065458 0.3755036 0.1928001
vn 0.7062653 0.7062653 0.04877171
vn -0.6938403 -0.6938398 0.1928
vn -0.7062655 -0.706265 0.04877163
vn 0.69384 0.6938402 0.1928001
vn 0.382228 0.9227801 0.04877169
vn -0.9065459 -0.3755034 0.1928
vn -0.9227802 -0.3822279 0.04877172
vn 0.3755036 0.9065458 0.1928001
vn 0 0.9988099 0.04877166
vn -0.9812381 1.486471E-07 0.1928001
vn -0.9988099 1.656193E-07 0.04877166
vn 0 0.9812381 0.1928
vn -0.3822281 0.9227801 0.04877172
vn -0.9065458 0.3755036 0.1928
vn -0.9227801 0.3822281 0.04877172
vn -0.3755036 0.9065458 0.1928001
vn -0.7062653 0.7062653 0.04877171
vn -0.6938401 0.6938401 0.1928001
vn 0.6545158 0.6545159 0.3784417
vn 0.3542214 0.8551662 0.3784417
vn 0 0.9256251 0.3784418
vn -0.3542214 0.8551661 0.3784417
vn -0.6545158 0.6545158 0.3784417
vn -0.8551661 0.3542214 0.3784417
vn 0.8551661 0.3542214 0.3784417
vn -0.9256251 1.482503E-07 0.3784417
vn 0.9256251 1.764301E-07 0.3784417
vn -0.8551663 -0.3542212 0.3784417
vn 0.8551663 -0.3542212 0.3784417
vn -0.654516 -0.6545156 0.3784417
vn 0.654516 -0.6545156 0.3784417
vn -0.3542215 -0.855166 0.3784418
vn 0.3542216 -0.8551661 0.3784416
vn 0 -0.9256251 0.3784417
vn 0.7715878 -0.3196019 0.5500063
vn 0.5905477 -0.5905474 0.5500063
vn 0.3196023 -0.7715876 0.5500063
vn 0 -0.8351606 0.5500063
vn -0.3196022 -0.7715877 0.5500063
vn -0.5905478 -0.5905475 0.5500063
vn 0.8351604 1.708241E-07 0.5500063
vn -0.7715877 -0.3196019 0.5500063
vn 0.7715878 0.3196021 0.5500063
vn -0.8351606 1.476408E-07 0.5500063
vn 0.5905476 0.5905477 0.5500063
vn -0.7715877 0.3196021 0.5500063
vn 0.3196021 0.7715877 0.5500063
vn -0.5905477 0.5905477 0.5500063
vn 0 0.8351604 0.5500063
vn -0.3196021 0.7715877 0.5500063
vn 0.6588284 0.2728957 0.7010514
vn 0.5042454 0.5042454 0.7010515
vn 0.2728956 0.6588284 0.7010514
vn 0 0.7131107 0.7010514
vn -0.2728957 0.6588284 0.7010514
vn -0.5042455 0.5042453 0.7010514
vn 0.7131107 1.505315E-07 0.7010514
vn -0.6588284 0.2728957 0.7010514
vn 0.6588285 -0.2728955 0.7010514
vn -0.7131107 0 0.7010514
vn 0.5042456 -0.5042453 0.7010514
vn -0.6588284 -0.2728955 0.7010514
vn 0.2728958 -0.6588284 0.7010514
vn -0.5042456 -0.5042453 0.7010514
vn 0 -0.7131107 0.7010514
vn -0.2728957 -0.6588283 0.7010515
vn 0.3987452 -0.3987449 0.8258358
vn 0.2157993 -0.5209855 0.8258358
vn 0 -0.5639106 0.8258358
vn -0.2157993 -0.5209855 0.8258358
vn -0.3987452 -0.3987449 0.8258358
vn -0.5209855 -0.2157991 0.8258359
vn 0.5209855 -0.2157991 0.8258358
vn -0.5639107 0 0.8258358
vn 0.5639107 1.40047E-07 0.8258358
vn -0.5209855 0.2157993 0.8258358
vn 0.5209855 0.2157993 0.8258359
vn -0.398745 0.398745 0.8258358
vn 0.398745 0.398745 0.8258358
vn -0.2157993 0.5209855 0.8258359
vn 0.2157993 0.5209855 0.8258358
vn 0 0.5639107 0.8258358
vn 0.3930327 0 0.9195244
vn 0.3631149 0.1504071 0.9195244
vn 0.277916 0.2779161 0.9195246
vn 0.1504071 0.3631149 0.9195244
vn 0 0.3930327 0.9195246
vn -0.1504072 0.3631149 0.9195244
vn 0.3631149 -0.150407 0.9195246
vn -0.2779161 0.277916 0.9195246
vn 0.2779162 -0.277916 0.9195246
vn -0.3631149 0.1504071 0.9195244
vn 0.1504072 -0.3631148 0.9195244
vn -0.3930327 0 0.9195246
vn 0 -0.3930327 0.9195244
vn -0.3631149 -0.150407 0.9195244
vn -0.1504072 -0.3631149 0.9195244
vn -0.2779161 -0.277916 0.9195244
vn 0.07914522 -0.1910733 0.9783798
vn 0 -0.2068163 0.9783798
vn 0 0 1
vn 0.1462412 -0.1462412 0.9783798
vn -0.07914519 -0.1910733 0.9783798
vn 0.1910734 -0.07914511 0.9783798
vn -0.1462412 -0.1462411 0.9783798
vn 0.2068163 0 0.9783798
vn -0.1910734 -0.0791451 0.9783798
vn 0.1910734 0.0791452 0.9783798
vn -0.2068163 0 0.9783798
vn 0.1462412 0.1462412 0.9783798
vn -0.1910733 0.0791452 0.9783798
vn 0.07914519 0.1910733 0.9783798
vn -0.1462412 0.1462412 0.9783798
vn 0 0.2068163 0.9783798
vn -0.07914521 0.1910734 0.9783798
g BG_Mountain_Round_0
f 3/3/3 2/2/2 1/1/1
f 2/2/2 4/4/4 1/1/1
f 2/2/2 5/5/5 4/4/4
f 5/5/5 6/6/6 4/4/4
f 5/5/5 7/7/7 6/6/6
f 7/7/7 8/8/8 6/6/6
f 7/7/7 9/9/9 8/8/8
f 9/9/9 10/10/10 8/8/8
f 9/9/9 11/11/11 10/10/10
f 11/11/11 12/12/12 10/10/10
f 11/11/11 13/13/13 12/12/12
f 13/13/13 14/14/14 12/12/12
f 13/13/13 15/15/15 14/14/14
f 15/15/15 16/16/16 14/14/14
f 15/15/15 17/17/17 16/16/16
f 17/17/17 18/18/18 16/16/16
f 17/17/17 19/19/19 18/18/18
f 19/19/19 20/20/20 18/18/18
f 19/19/19 21/21/21 20/20/20
f 21/21/21 22/22/22 20/20/20
f 21/21/21 23/23/23 22/22/22
f 23/23/23 24/24/24 22/22/22
f 23/23/23 25/25/25 24/24/24
f 25/25/25 26/26/26 24/24/24
f 25/25/25 27/27/27 26/26/26
f 27/27/27 28/28/28 26/26/26
f 27/27/27 29/29/29 28/28/28
f 29/29/29 30/30/30 28/28/28
f 29/29/29 31/31/31 30/30/30
f 31/31/31 32/32/32 30/30/30
f 31/31/31 33/33/33 32/32/32
f 33/33/33 34/34/34 32/32/32
f 37/37/37 36/36/36 35/35/35
f 37/37/37 35/35/35 38/38/38
f 39/39/39 37/37/37 38/38/38
f 36/36/36 40/40/40 35/35/35
f 36/36/36 41/41/41 40/40/40
f 39/39/39 38/38/38 42/42/42
f 43/43/43 39/39/39 42/42/42
f 41/41/41 44/44/44 40/40/40
f 41/41/41 45/45/45 44/44/44
f 43/43/43 42/42/42 46/46/46
f 47/47/47 43/43/43 46/46/46
f 45/45/45 48/48/48 44/44/44
f 45/45/45 49/49/49 48/48/48
f 47/47/47 46/46/46 50/50/50
f 51/51/51 47/47/47 50/50/50
f 49/49/49 52/52/52 48/48/48
f 49/49/49 53/53/53 52/52/52
f 51/51/51 50/50/50 54/54/54
f 55/55/55 51/51/51 54/54/54
f 53/53/53 56/56/56 52/52/52
f 53/53/53 57/57/57 56/56/56
f 55/55/55 54/54/54 58/58/58
f 59/59/59 55/55/55 58/58/58
f 57/57/57 60/60/60 56/56/56
f 57/57/57 61/61/61 60/60/60
f 59/59/59 58/58/58 62/62/62
f 63/63/63 59/59/59 62/62/62
f 61/61/61 64/64/64 60/60/60
f 61/61/61 65/65/65 64/64/64
f 65/65/65 63/63/63 66/66/66
f 63/63/63 62/62/62 66/66/66
f 65/65/65 66/66/66 64/64/64
f 52/52/52 56/56/56 67/67/67
f 56/56/56 60/60/60 68/68/68
f 56/56/56 68/68/68 67/67/67
f 60/60/60 64/64/64 69/69/69
f 60/60/60 69/69/69 68/68/68
f 64/64/64 66/66/66 70/70/70
f 64/64/64 70/70/70 69/69/69
f 66/66/66 62/62/62 71/71/71
f 66/66/66 71/71/71 70/70/70
f 62/62/62 58/58/58 72/72/72
f 62/62/62 72/72/72 71/71/71
f 52/52/52 67/67/67 73/73/73
f 48/48/48 52/52/52 73/73/73
f 58/58/58 74/74/74 72/72/72
f 58/58/58 54/54/54 74/74/74
f 48/48/48 73/73/73 75/75/75
f 44/44/44 48/48/48 75/75/75
f 54/54/54 76/76/76 74/74/74
f 54/54/54 50/50/50 76/76/76
f 44/44/44 75/75/75 77/77/77
f 40/40/40 44/44/44 77/77/77
f 50/50/50 78/78/78 76/76/76
f 50/50/50 46/46/46 78/78/78
f 40/40/40 77/77/77 79/79/79
f 35/35/35 40/40/40 79/79/79
f 46/46/46 80/80/80 78/78/78
f 46/46/46 42/42/42 80/80/80
f 35/35/35 79/79/79 81/81/81
f 38/38/38 35/35/35 81/81/81
f 42/42/42 38/38/38 82/82/82
f 42/42/42 82/82/82 80/80/80
f 38/38/38 81/81/81 82/82/82
f 77/77/77 75/75/75 83/83/83
f 79/79/79 77/77/77 84/84/84
f 77/77/77 83/83/83 84/84/84
f 81/81/81 79/79/79 85/85/85
f 79/79/79 84/84/84 85/85/85
f 82/82/82 81/81/81 86/86/86
f 81/81/81 85/85/85 86/86/86
f 80/80/80 82/82/82 87/87/87
f 82/82/82 86/86/86 87/87/87
f 78/78/78 80/80/80 88/88/88
f 80/80/80 87/87/87 88/88/88
f 75/75/75 89/89/89 83/83/83
f 75/75/75 73/73/73 89/89/89
f 78/78/78 88/88/88 90/90/90
f 76/76/76 78/78/78 90/90/90
f 73/73/73 91/91/91 89/89/89
f 73/73/73 67/67/67 91/91/91
f 76/76/76 90/90/90 92/92/92
f 74/74/74 76/76/76 92/92/92
f 67/67/67 93/93/93 91/91/91
f 67/67/67 68/68/68 93/93/93
f 74/74/74 92/92/92 94/94/94
f 72/72/72 74/74/74 94/94/94
f 68/68/68 95/95/95 93/93/93
f 68/68/68 69/69/69 95/95/95
f 72/72/72 94/94/94 96/96/96
f 71/71/71 72/72/72 96/96/96
f 69/69/69 97/97/97 95/95/95
f 69/69/69 70/70/70 97/97/97
f 70/70/70 71/71/71 98/98/98
f 71/71/71 96/96/96 98/98/98
f 70/70/70 98/98/98 97/97/97
f 91/91/91 93/93/93 99/99/99
f 93/93/93 95/95/95 100/100/100
f 93/93/93 100/100/100 99/99/99
f 95/95/95 97/97/97 101/101/101
f 95/95/95 101/101/101 100/100/100
f 97/97/97 98/98/98 102/102/102
f 97/97/97 102/102/102 101/101/101
f 98/98/98 96/96/96 103/103/103
f 98/98/98 103/103/103 102/102/102
f 96/96/96 94/94/94 104/104/104
f 96/96/96 104/104/104 103/103/103
f 91/91/91 99/99/99 105/105/105
f 89/89/89 91/91/91 105/105/105
f 94/94/94 106/106/106 104/104/104
f 94/94/94 92/92/92 106/106/106
f 89/89/89 105/105/105 107/107/107
f 83/83/83 89/89/89 107/107/107
f 92/92/92 108/108/108 106/106/106
f 92/92/92 90/90/90 108/108/108
f 83/83/83 107/107/107 109/109/109
f 84/84/84 83/83/83 109/109/109
f 90/90/90 110/110/110 108/108/108
f 90/90/90 88/88/88 110/110/110
f 84/84/84 109/109/109 111/111/111
f 85/85/85 84/84/84 111/111/111
f 88/88/88 112/112/112 110/110/110
f 88/88/88 87/87/87 112/112/112
f 85/85/85 111/111/111 113/113/113
f 86/86/86 85/85/85 113/113/113
f 87/87/87 86/86/86 114/114/114
f 87/87/87 114/114/114 112/112/112
f 86/86/86 113/113/113 114/114/114
f 109/109/109 107/107/107 115/115/115
f 111/111/111 109/109/109 116/116/116
f 109/109/109 115/115/115 116/116/116
f 113/113/113 111/111/111 117/117/117
f 111/111/111 116/116/116 117/117/117
f 114/114/114 113/113/113 118/118/118
f 113/113/113 117/117/117 118/118/118
f 112/112/112 114/114/114 119/119/119
f 114/114/114 118/118/118 119/119/119
f 110/110/110 112/112/112 120/120/120
f 112/112/112 119/119/119 120/120/120
f 107/107/107 121/121/121 115/115/115
f 107/107/107 105/105/105 121/121/121
f 110/110/110 120/120/120 122/122/122
f 108/108/108 110/110/110 122/122/122
f 105/105/105 123/123/123 121/121/121
f 105/105/105 99/99/99 123/123/123
f 108/108/108 122/122/122 124/124/124
f 106/106/106 108/108/108 124/124/124
f 99/99/99 125/125/125 123/123/123
f 99/99/99 100/100/100 125/125/125
f 106/106/106 124/124/124 126/126/126
f 104/104/104 106/106/106 126/126/126
f 100/100/100 127/127/127 125/125/125
f 100/100/100 101/101/101 127/127/127
f 104/104/104 126/126/126 128/128/128
f 103/103/103 104/104/104 128/128/128
f 101/101/101 129/129/129 127/127/127
f 101/101/101 102/102/102 129/129/129
f 102/102/102 103/103/103 130/130/130
f 103/103/103 128/128/128 130/130/130
f 102/102/102 130/130/130 129/129/129
f 123/123/123 125/125/125 131/131/131
f 125/125/125 127/127/127 132/132/132
f 125/125/125 132/132/132 131/131/131
f 127/127/127 129/129/129 133/133/133
f 127/127/127 133/133/133 132/132/132
f 129/129/129 130/130/130 134/134/134
f 129/129/129 134/134/134 133/133/133
f 130/130/130 128/128/128 135/135/135
f 130/130/130 135/135/135 134/134/134
f 128/128/128 126/126/126 136/136/136
f 128/128/128 136/136/136 135/135/135
f 123/123/123 131/131/131 137/137/137
f 121/121/121 123/123/123 137/137/137
f 126/126/126 138/138/138 136/136/136
f 126/126/126 124/124/124 138/138/138
f 121/121/121 137/137/137 139/139/139
f 115/115/115 121/121/121 139/139/139
f 124/124/124 140/140/140 138/138/138
f 124/124/124 122/122/122 140/140/140
f 115/115/115 139/139/139 141/141/141
f 116/116/116 115/115/115 141/141/141
f 122/122/122 142/142/142 140/140/140
f 122/122/122 120/120/120 142/142/142
f 116/116/116 141/141/141 143/143/143
f 117/117/117 116/116/116 143/143/143
f 120/120/120 144/144/144 142/142/142
f 120/120/120 119/119/119 144/144/144
f 117/117/117 143/143/143 145/145/145
f 118/118/118 117/117/117 145/145/145
f 119/119/119 118/118/118 146/146/146
f 119/119/119 146/146/146 144/144/144
f 118/118/118 145/145/145 146/146/146
f 141/141/141 139/139/139 147/147/147
f 143/143/143 141/141/141 148/148/148
f 141/141/141 147/147/147 148/148/148
f 148/148/148 147/147/147 149/149/149
f 139/139/139 150/150/150 147/147/147
f 147/147/147 150/150/150 149/149/149
f 139/139/139 137/137/137 150/150/150
f 143/143/143 148/148/148 151/151/151
f 145/145/145 143/143/143 151/151/151
f 151/151/151 148/148/148 149/149/149
f 137/137/137 152/152/152 150/150/150
f 150/150/150 152/152/152 149/149/149
f 137/137/137 131/131/131 152/152/152
f 145/145/145 151/151/151 153/153/153
f 146/146/146 145/145/145 153/153/153
f 153/153/153 151/151/151 149/149/149
f 131/131/131 154/154/154 152/152/152
f 152/152/152 154/154/154 149/149/149
f 131/131/131 132/132/132 154/154/154
f 146/146/146 153/153/153 155/155/155
f 155/155/155 153/153/153 149/149/149
f 154/154/154 156/156/156 149/149/149
f 132/132/132 156/156/156 154/154/154
f 157/157/157 155/155/155 149/149/149
f 144/144/144 146/146/146 155/155/155
f 144/144/144 155/155/155 157/157/157
f 132/132/132 133/133/133 156/156/156
f 142/142/142 144/144/144 157/157/157
f 133/133/133 158/158/158 156/156/156
f 156/156/156 158/158/158 149/149/149
f 133/133/133 134/134/134 158/158/158
f 142/142/142 157/157/157 159/159/159
f 159/159/159 157/157/157 149/149/149
f 140/140/140 142/142/142 159/159/159
f 134/134/134 160/160/160 158/158/158
f 158/158/158 160/160/160 149/149/149
f 134/134/134 135/135/135 160/160/160
f 140/140/140 159/159/159 161/161/161
f 161/161/161 159/159/159 149/149/149
f 138/138/138 140/140/140 161/161/161
f 135/135/135 162/162/162 160/160/160
f 160/160/160 162/162/162 149/149/149
f 135/135/135 136/136/136 162/162/162
f 163/163/163 161/161/161 149/149/149
f 138/138/138 161/161/161 163/163/163
f 162/162/162 163/163/163 149/149/149
f 136/136/136 163/163/163 162/162/162
f 136/136/136 138/138/138 163/163/163
