g bin-wheelie-top
v 0.1346134 -0.01259989 -0.3479108
v 0.1346135 -0.0126 0.29772
v 0.6833492 -0.0126 0.29772
v 0.6833494 -0.01259989 -0.3479108
v 0.5669883 0.06149352 -0.226858
v 0.2509744 0.06149352 -0.226858
v 0.1476724 0.02629387 -0.3307315
v 0.6702902 0.02629387 -0.3307315
v 0.2509744 0.06149352 0.1795932
v 0.1476725 0.02629387 0.2805406
v 0.1476724 0.02629387 -0.3307315
v 0.2509744 0.06149352 -0.226858
v 0.2509744 0.06149352 0.1795932
v 0.2509744 0.06149352 -0.226858
v 0.5669883 0.06149352 -0.226858
v 0.5669882 0.06149352 0.1795932
v 0.1476725 0.02629387 0.2805406
v 0.2509744 0.06149352 0.1795932
v 0.5669882 0.06149352 0.1795932
v 0.6702901 0.02629387 0.2805406
v 0.1346135 -0.0126 0.29772
v 0.1476725 0.02629387 0.2805406
v 0.6702901 0.02629387 0.2805406
v 0.6833492 -0.0126 0.29772
v 0.1476725 0.02629387 0.2805406
v 0.1346135 -0.0126 0.29772
v 0.1346134 -0.01259989 -0.3479108
v 0.1476724 0.02629387 -0.3307315
v 0.6117463 0.03045809 -0.4383268
v 0.2062164 0.03045809 -0.4383268
v 0.2062164 -5.960464E-08 -0.4406714
v 0.6117463 -5.960464E-08 -0.4406714
v 0.6117463 -5.960464E-08 -0.3772912
v 0.2624671 -5.960464E-08 -0.2425511
v 0.5554956 -5.960464E-08 -0.2425511
v 0.2062164 -5.960464E-08 -0.3772912
v 0.6117463 -5.960464E-08 -0.4406714
v 0.2062164 -5.960464E-08 -0.4406714
v 0.6117463 0.03045809 -0.4383268
v 0.6117462 0.04261243 -0.3748012
v 0.2062164 0.04261243 -0.3748012
v 0.2062164 0.03045809 -0.4383268
v 0.2062164 0.04261243 -0.3748012
v 0.2624671 0.05476701 -0.2399159
v 0.2624671 -5.960464E-08 -0.2425511
v 0.2062164 -5.960464E-08 -0.3772912
v 0.2062164 0.03045809 -0.4383268
v 0.2062164 0.04261243 -0.3748012
v 0.2062164 -5.960464E-08 -0.3772912
v 0.2062164 -5.960464E-08 -0.4406714
v 0.6117462 0.04261243 -0.3748012
v 0.5554956 0.05476701 -0.2399158
v 0.2624671 0.05476701 -0.2399159
v 0.2062164 0.04261243 -0.3748012
v 0.5669882 0.06149352 0.1795932
v 0.5669883 0.06149352 -0.226858
v 0.6702902 0.02629387 -0.3307315
v 0.6702901 0.02629387 0.2805406
v 0.6702901 0.02629387 0.2805406
v 0.6702902 0.02629387 -0.3307315
v 0.6833494 -0.01259989 -0.3479108
v 0.6833492 -0.0126 0.29772
v 0.6117462 0.04261243 -0.3748012
v 0.6117463 -5.960464E-08 -0.3772912
v 0.5554956 -5.960464E-08 -0.2425511
v 0.5554956 0.05476701 -0.2399158
v 0.6117463 0.03045809 -0.4383268
v 0.6117463 -5.960464E-08 -0.4406714
v 0.6117463 -5.960464E-08 -0.3772912
v 0.6117462 0.04261243 -0.3748012
v 0.6702902 0.02629387 -0.3307315
v 0.1476724 0.02629387 -0.3307315
v 0.1346134 -0.01259989 -0.3479108
v 0.6833494 -0.01259989 -0.3479108
vt 0.05002177 0.7192565
vt 0.07183704 0.7192565
vt 0.07183705 0.7007152
vt 0.05002177 0.7007152
vt 0.05552692 0.6951243
vt 0.05550925 0.6848378
vt 0.05153316 0.6808017
vt 0.05173278 0.6988181
vt 0.06862171 0.6850933
vt 0.07233327 0.6814222
vt 0.05153316 0.6808017
vt 0.05550925 0.6848378
vt 0.06862171 0.6850933
vt 0.05550925 0.6848378
vt 0.05552692 0.6951243
vt 0.06835691 0.6951348
vt 0.07233327 0.6814222
vt 0.06862171 0.6850933
vt 0.06835691 0.6951348
vt 0.07171958 0.6986319
vt 0.07389269 0.6798442
vt 0.07233327 0.6814222
vt 0.07171958 0.6986319
vt 0.07338921 0.7002478
vt 0.07233327 0.6814222
vt 0.07389269 0.6798442
vt 0.05002177 0.6793436
vt 0.05153316 0.6808017
vt 0.07339445 0.6462129
vt 0.08695366 0.6463146
vt 0.08696131 0.6452932
vt 0.0734021 0.6451916
vt 0.073418 0.6430724
vt 0.08513019 0.6386548
vt 0.07533255 0.6385814
vt 0.0869772 0.6431741
vt 0.0734021 0.6451916
vt 0.08696131 0.6452932
vt 0.07339445 0.6462129
vt 0.0736497 0.6483492
vt 0.08666089 0.6485553
vt 0.08695366 0.6463146
vt 0.08666089 0.6485553
vt 0.0852621 0.6531706
vt 0.08723586 0.653482
vt 0.08811102 0.6485419
vt 0.08695366 0.6463146
vt 0.08666089 0.6485553
vt 0.08811102 0.6485419
vt 0.0880729 0.64621
vt 0.0736497 0.6483492
vt 0.0749926 0.6532447
vt 0.0852621 0.6531706
vt 0.08666089 0.6485553
vt 0.06835691 0.6951348
vt 0.05552692 0.6951243
vt 0.05173278 0.6988181
vt 0.07171958 0.6986319
vt 0.07171958 0.6986319
vt 0.05173278 0.6988181
vt 0.05002179 0.7002589
vt 0.07338921 0.7002478
vt 0.0736497 0.6483492
vt 0.07219891 0.6483136
vt 0.07291866 0.653482
vt 0.0749926 0.6532447
vt 0.07339445 0.6462129
vt 0.07232133 0.6460711
vt 0.07219891 0.6483136
vt 0.0736497 0.6483492
vt 0.05173278 0.6988181
vt 0.05153316 0.6808017
vt 0.05002177 0.6793436
vt 0.05002179 0.7002589
vn 0 -1 -1.8464E-07
vn 0 -1 -1.8464E-07
vn 0 -1 -1.8464E-07
vn 0 -1 -1.8464E-07
vn 0 0.9470983 -0.3209435
vn 0 0.9470983 -0.3209435
vn 0 0.9470983 -0.3209435
vn 0 0.9470983 -0.3209435
vn -0.322535 0.9465576 0
vn -0.322535 0.9465576 0
vn -0.322535 0.9465576 0
vn -0.322535 0.9465576 0
vn 0 1 0
vn 0 1 0
vn 0 1 0
vn 0 1 0
vn 0 0.9442426 0.3292506
vn 0 0.9442426 0.3292506
vn 0 0.9442426 0.3292506
vn 0 0.9442426 0.3292506
vn 0 0.4040398 0.9147415
vn 0 0.4040398 0.9147415
vn 0 0.4040398 0.9147415
vn 0 0.4040398 0.9147415
vn -0.9479907 0.3182981 1.542152E-07
vn -0.9479907 0.3182981 1.542152E-07
vn -0.9479907 0.3182981 1.542152E-07
vn -0.9479907 0.3182981 1.542152E-07
vn 0 0.07675013 -0.9970503
vn 0 0.07675013 -0.9970503
vn 0 0.07675013 -0.9970503
vn 0 0.07675013 -0.9970503
vn 0 -1 0
vn 0 -1 0
vn 0 -1 0
vn 0 -1 0
vn 0 -1 0
vn 0 -1 0
vn 0 0.9821842 -0.1879209
vn 0 0.9821842 -0.1879209
vn 0 0.9821842 -0.1879209
vn 0 0.9821842 -0.1879209
vn -0.9223698 -0.02030407 0.3857743
vn -0.9223698 -0.02030407 0.3857743
vn -0.9223698 -0.02030407 0.3857743
vn -0.9223698 -0.02030407 0.3857743
vn -1 0 4.04293E-07
vn -1 0 4.04293E-07
vn -1 0 4.04293E-07
vn -1 0 4.04293E-07
vn 0 0.9959645 -0.08974677
vn 0 0.9959645 -0.08974677
vn 0 0.9959645 -0.08974677
vn 0 0.9959645 -0.08974677
vn 0.322535 0.9465576 0
vn 0.322535 0.9465576 0
vn 0.322535 0.9465576 0
vn 0.322535 0.9465576 0
vn 0.94799 0.3183001 2.889625E-07
vn 0.94799 0.3183001 2.889625E-07
vn 0.94799 0.3183001 2.889625E-07
vn 0.94799 0.3183001 2.889625E-07
vn 0.92237 -0.02030328 0.3857738
vn 0.92237 -0.02030328 0.3857738
vn 0.92237 -0.02030328 0.3857738
vn 0.92237 -0.02030328 0.3857738
vn 1 7.896413E-07 8.085863E-07
vn 1 7.896413E-07 8.085863E-07
vn 1 7.896413E-07 8.085863E-07
vn 1 7.896413E-07 8.085863E-07
vn 0 0.4040408 -0.914741
vn 0 0.4040408 -0.914741
vn 0 0.4040408 -0.914741
vn 0 0.4040408 -0.914741
g bin-wheelie-top_0
f 3/3/3 2/2/2 1/1/1
f 4/4/4 3/3/3 1/1/1
f 7/7/7 6/6/6 5/5/5
f 8/8/8 7/7/7 5/5/5
f 11/11/11 10/10/10 9/9/9
f 12/12/12 11/11/11 9/9/9
f 15/15/15 14/14/14 13/13/13
f 16/16/16 15/15/15 13/13/13
f 19/19/19 18/18/18 17/17/17
f 20/20/20 19/19/19 17/17/17
f 23/23/23 22/22/22 21/21/21
f 24/24/24 23/23/23 21/21/21
f 27/27/27 26/26/26 25/25/25
f 28/28/28 27/27/27 25/25/25
f 31/31/31 30/30/30 29/29/29
f 32/32/32 31/31/31 29/29/29
f 35/35/35 34/34/34 33/33/33
f 34/34/34 36/36/36 33/33/33
f 33/33/33 36/36/36 37/37/37
f 36/36/36 38/38/38 37/37/37
f 41/41/41 40/40/40 39/39/39
f 42/42/42 41/41/41 39/39/39
f 45/45/45 44/44/44 43/43/43
f 46/46/46 45/45/45 43/43/43
f 49/49/49 48/48/48 47/47/47
f 50/50/50 49/49/49 47/47/47
f 53/53/53 52/52/52 51/51/51
f 54/54/54 53/53/53 51/51/51
f 57/57/57 56/56/56 55/55/55
f 58/58/58 57/57/57 55/55/55
f 61/61/61 60/60/60 59/59/59
f 62/62/62 61/61/61 59/59/59
f 65/65/65 64/64/64 63/63/63
f 66/66/66 65/65/65 63/63/63
f 69/69/69 68/68/68 67/67/67
f 70/70/70 69/69/69 67/67/67
f 73/73/73 72/72/72 71/71/71
f 74/74/74 73/73/73 71/71/71
