g Bomb_Part02
v 0 -0.1 0.14
v 0 0.1 0.14
v -0.05357568 -0.1 0.1293431
v -0.05357568 0.1 0.1293431
v -0.09899495 -0.1 0.09899495
v -0.09899495 0.1 0.09899495
v -0.1293431 -0.1 0.05357568
v -0.1293431 0.1 0.05357568
v -0.14 -0.1 -6.119594E-09
v -0.14 0.1 -6.119594E-09
v -0.1293431 -0.1 -0.05357569
v -0.1293431 0.1 -0.05357569
v -0.09899495 -0.1 -0.09899495
v -0.09899495 0.1 -0.09899495
v -0.05357566 -0.1 -0.1293432
v -0.05357566 0.1 -0.1293432
v 1.223919E-08 -0.1 -0.14
v 1.223919E-08 0.1 -0.14
v 0.05357568 -0.1 -0.1293431
v 0.05357568 0.1 -0.1293431
v 0.09899496 -0.1 -0.09899493
v 0.09899496 0.1 -0.09899493
v 0.1293432 -0.1 -0.05357564
v 0.1293432 0.1 -0.05357564
v 0.14 -0.1 1.669483E-09
v 0.14 0.1 1.669483E-09
v 0.1293431 -0.1 0.05357571
v 0.1293431 0.1 0.05357571
v 0.09899492 -0.1 0.09899498
v 0.09899492 0.1 0.09899498
v 0.05357568 -0.1 0.1293431
v 0.05357568 0.1 0.1293431
v -2.447838E-08 -0.1 0.14
v -2.447838E-08 0.1 0.14
v 0 0.1 0
v 0 0.1 0.14
v -0.05357568 0.1 0.1293431
v -0.09899495 0.1 0.09899495
v -0.1293431 0.1 0.05357568
v -0.14 0.1 -6.119594E-09
v -0.1293431 0.1 -0.05357569
v -0.09899495 0.1 -0.09899495
v -0.05357566 0.1 -0.1293432
v 1.223919E-08 0.1 -0.14
v 0.05357568 0.1 -0.1293431
v 0.09899496 0.1 -0.09899493
v 0.1293432 0.1 -0.05357564
v 0.14 0.1 1.669483E-09
v 0.1293431 0.1 0.05357571
v 0.09899492 0.1 0.09899498
v 0.05357568 0.1 0.1293431
v -2.447838E-08 0.1 0.14
v 0 -0.1 0
v -2.447838E-08 -0.1 0.14
v 0.05357568 -0.1 0.1293431
v 0.09899492 -0.1 0.09899498
v 0.1293431 -0.1 0.05357571
v 0.14 -0.1 1.669483E-09
v 0.1293432 -0.1 -0.05357564
v 0.09899496 -0.1 -0.09899493
v 0.05357568 -0.1 -0.1293431
v 1.223919E-08 -0.1 -0.14
v -0.05357566 -0.1 -0.1293432
v -0.09899495 -0.1 -0.09899495
v -0.1293431 -0.1 -0.05357569
v -0.14 -0.1 -6.119594E-09
v -0.1293431 -0.1 0.05357568
v -0.09899495 -0.1 0.09899495
v -0.05357568 -0.1 0.1293431
v 0 -0.1 0.14
vt 0 0
vt 0 1
vt -0.0625 0
vt -0.0625 1
vt -0.125 0
vt -0.125 1
vt -0.1875 0
vt -0.1875 1
vt -0.25 0
vt -0.25 1
vt -0.3125 0
vt -0.3125 1
vt -0.375 0
vt -0.375 1
vt -0.4375 0
vt -0.4375 1
vt -0.5 0
vt -0.5 1
vt -0.5625 0
vt -0.5625 1
vt -0.625 0
vt -0.625 1
vt -0.6875 0
vt -0.6875 1
vt -0.75 0
vt -0.75 1
vt -0.8125 0
vt -0.8125 1
vt -0.875 0
vt -0.875 1
vt -0.9375 0
vt -0.9375 1
vt -1 0
vt -1 1
vt 0.5 0.5
vt 0.5 1
vt 0.6913418 0.9619398
vt 0.8535534 0.8535534
vt 0.9619398 0.6913417
vt 1 0.5
vt 0.9619398 0.3086582
vt 0.8535534 0.1464466
vt 0.6913416 0.03806019
vt 0.5 0
vt 0.3086583 0.03806025
vt 0.1464466 0.1464467
vt 0.03806016 0.3086584
vt 0 0.5
vt 0.03806028 0.6913418
vt 0.1464467 0.8535535
vt 0.3086583 0.9619398
vt 0.5000001 1
vt 0.5 0.5
vt 0.5000001 1
vt 0.3086583 0.9619398
vt 0.1464467 0.8535535
vt 0.03806028 0.6913418
vt 0 0.5
vt 0.03806016 0.3086584
vt 0.1464466 0.1464467
vt 0.3086583 0.03806025
vt 0.5 0
vt 0.6913416 0.03806019
vt 0.8535534 0.1464466
vt 0.9619398 0.3086582
vt 1 0.5
vt 0.9619398 0.6913417
vt 0.8535534 0.8535534
vt 0.6913418 0.9619398
vt 0.5 1
vn 0 0 1
vn 0 0 1
vn -0.3826835 0 0.9238796
vn -0.3826835 0 0.9238796
vn -0.7071068 0 0.7071068
vn -0.7071068 0 0.7071068
vn -0.9238796 0 0.3826834
vn -0.9238796 0 0.3826834
vn -1 0 -4.371139E-08
vn -1 0 -4.371139E-08
vn -0.9238796 0 -0.3826835
vn -0.9238796 0 -0.3826835
vn -0.7071068 0 -0.7071068
vn -0.7071068 0 -0.7071068
vn -0.3826833 0 -0.9238797
vn -0.3826833 0 -0.9238797
vn 8.742278E-08 0 -1
vn 8.742278E-08 0 -1
vn 0.3826834 0 -0.9238796
vn 0.3826834 0 -0.9238796
vn 0.7071069 0 -0.7071066
vn 0.7071069 0 -0.7071066
vn 0.9238797 0 -0.3826831
vn 0.9238797 0 -0.3826831
vn 1 0 1.192488E-08
vn 1 0 1.192488E-08
vn 0.9238794 0 0.3826836
vn 0.9238794 0 0.3826836
vn 0.7071065 0 0.707107
vn 0.7071065 0 0.707107
vn 0.3826834 0 0.9238796
vn 0.3826834 0 0.9238796
vn -1.748456E-07 0 1
vn -1.748456E-07 0 1
vn 0 1 0
vn 0 1 0
vn 0 1 0
vn 0 1 0
vn 0 1 0
vn 0 1 0
vn 0 1 0
vn 0 1 0
vn 0 1 0
vn 0 1 0
vn 0 1 0
vn 0 1 0
vn 0 1 0
vn 0 1 0
vn 0 1 0
vn 0 1 0
vn 0 1 0
vn 0 1 0
vn 0 -1 0
vn 0 -1 0
vn 0 -1 0
vn 0 -1 0
vn 0 -1 0
vn 0 -1 0
vn 0 -1 0
vn 0 -1 0
vn 0 -1 0
vn 0 -1 0
vn 0 -1 0
vn 0 -1 0
vn 0 -1 0
vn 0 -1 0
vn 0 -1 0
vn 0 -1 0
vn 0 -1 0
vn 0 -1 0
g Bomb_Part02_0
f 2/2/2 4/4/4 3/3/3
f 3/3/3 1/1/1 2/2/2
f 4/4/4 6/6/6 5/5/5
f 5/5/5 3/3/3 4/4/4
f 6/6/6 8/8/8 7/7/7
f 7/7/7 5/5/5 6/6/6
f 8/8/8 10/10/10 9/9/9
f 9/9/9 7/7/7 8/8/8
f 10/10/10 12/12/12 11/11/11
f 11/11/11 9/9/9 10/10/10
f 12/12/12 14/14/14 13/13/13
f 13/13/13 11/11/11 12/12/12
f 14/14/14 16/16/16 15/15/15
f 15/15/15 13/13/13 14/14/14
f 16/16/16 18/18/18 17/17/17
f 17/17/17 15/15/15 16/16/16
f 18/18/18 20/20/20 19/19/19
f 19/19/19 17/17/17 18/18/18
f 20/20/20 22/22/22 21/21/21
f 21/21/21 19/19/19 20/20/20
f 22/22/22 24/24/24 23/23/23
f 23/23/23 21/21/21 22/22/22
f 24/24/24 26/26/26 25/25/25
f 25/25/25 23/23/23 24/24/24
f 26/26/26 28/28/28 27/27/27
f 27/27/27 25/25/25 26/26/26
f 28/28/28 30/30/30 29/29/29
f 29/29/29 27/27/27 28/28/28
f 30/30/30 32/32/32 31/31/31
f 31/31/31 29/29/29 30/30/30
f 32/32/32 34/34/34 33/33/33
f 33/33/33 31/31/31 32/32/32
f 37/37/37 36/36/36 35/35/35
f 38/38/38 37/37/37 35/35/35
f 39/39/39 38/38/38 35/35/35
f 40/40/40 39/39/39 35/35/35
f 41/41/41 40/40/40 35/35/35
f 42/42/42 41/41/41 35/35/35
f 43/43/43 42/42/42 35/35/35
f 44/44/44 43/43/43 35/35/35
f 45/45/45 44/44/44 35/35/35
f 46/46/46 45/45/45 35/35/35
f 47/47/47 46/46/46 35/35/35
f 48/48/48 47/47/47 35/35/35
f 49/49/49 48/48/48 35/35/35
f 50/50/50 49/49/49 35/35/35
f 51/51/51 50/50/50 35/35/35
f 52/52/52 51/51/51 35/35/35
f 55/55/55 54/54/54 53/53/53
f 56/56/56 55/55/55 53/53/53
f 57/57/57 56/56/56 53/53/53
f 58/58/58 57/57/57 53/53/53
f 59/59/59 58/58/58 53/53/53
f 60/60/60 59/59/59 53/53/53
f 61/61/61 60/60/60 53/53/53
f 62/62/62 61/61/61 53/53/53
f 63/63/63 62/62/62 53/53/53
f 64/64/64 63/63/63 53/53/53
f 65/65/65 64/64/64 53/53/53
f 66/66/66 65/65/65 53/53/53
f 67/67/67 66/66/66 53/53/53
f 68/68/68 67/67/67 53/53/53
f 69/69/69 68/68/68 53/53/53
f 70/70/70 69/69/69 53/53/53
