g Bomb_Part03
v 0 -0.25 0.03
v 0 0.25 0.03
v -0.03 -0.25 -1.311342E-09
v -0.03 0.25 -1.311342E-09
v 2.622683E-09 -0.25 -0.03
v 2.622683E-09 0.25 -0.03
v 0.03 -0.25 3.577464E-10
v 0.03 0.25 3.577464E-10
v -5.245366E-09 -0.25 0.03
v -5.245366E-09 0.25 0.03
v 0 0.25 0
v 0 0.25 0.03
v -0.03 0.25 -1.311342E-09
v 2.622683E-09 0.25 -0.03
v 0.03 0.25 3.577464E-10
v -5.245366E-09 0.25 0.03
v 0 -0.25 0
v -5.245366E-09 -0.25 0.03
v 0.03 -0.25 3.577464E-10
v 2.622683E-09 -0.25 -0.03
v -0.03 -0.25 -1.311342E-09
v 0 -0.25 0.03
vt 0 0
vt 0 1
vt -0.25 0
vt -0.25 1
vt -0.5 0
vt -0.5 1
vt -0.75 0
vt -0.75 1
vt -1 0
vt -1 1
vt 0.5 0.5
vt 0.5 1
vt 1 0.5
vt 0.5 0
vt 0 0.5
vt 0.5000001 1
vt 0.5 0.5
vt 0.5000001 1
vt 0 0.5
vt 0.5 0
vt 1 0.5
vt 0.5 1
vn 0 0 1
vn 0 0 1
vn -1 0 -4.371139E-08
vn -1 0 -4.371139E-08
vn 8.742278E-08 0 -1
vn 8.742278E-08 0 -1
vn 1 0 1.192488E-08
vn 1 0 1.192488E-08
vn -1.748456E-07 0 1
vn -1.748456E-07 0 1
vn 0 1 0
vn 0 1 0
vn 0 1 0
vn 0 1 0
vn 0 1 0
vn 0 1 0
vn 0 -1 0
vn 0 -1 0
vn 0 -1 0
vn 0 -1 0
vn 0 -1 0
vn 0 -1 0
g Bomb_Part03_0
f 2/2/2 4/4/4 3/3/3
f 3/3/3 1/1/1 2/2/2
f 4/4/4 6/6/6 5/5/5
f 5/5/5 3/3/3 4/4/4
f 6/6/6 8/8/8 7/7/7
f 7/7/7 5/5/5 6/6/6
f 8/8/8 10/10/10 9/9/9
f 9/9/9 7/7/7 8/8/8
f 13/13/13 12/12/12 11/11/11
f 14/14/14 13/13/13 11/11/11
f 15/15/15 14/14/14 11/11/11
f 16/16/16 15/15/15 11/11/11
f 19/19/19 18/18/18 17/17/17
f 20/20/20 19/19/19 17/17/17
f 21/21/21 20/20/20 17/17/17
f 22/22/22 21/21/21 17/17/17
