g book-closed
v 0.1642561 0.0001080411 0.2401617
v 0.1862203 -0.00131161 0.2302569
v 0.1862203 -0.00131161 -0.2302569
v 0.1642561 0.0001080411 -0.2401617
v 0.1660449 0.1277741 0.2401617
v 0.1660449 0.1277741 -0.2401617
v 0.1862203 0.1286259 -0.2302593
v 0.1862203 0.1286259 0.2302593
v -0.1967009 0.08801363 -0.2401617
v -0.1777193 0.1257866 -0.2401617
v -0.1777193 0.1257866 0.2401617
v -0.1967009 0.08801363 0.2401617
v -0.1777193 0.001527688 -0.2401617
v -0.1967009 0.03930064 -0.2401617
v -0.1967009 0.03930064 0.2401617
v -0.1777193 0.001527688 0.2401617
v -0.1967009 0.03930064 -0.2401617
v -0.1967009 0.08801363 -0.2401617
v -0.1967009 0.08801363 0.2401617
v -0.1967009 0.03930064 0.2401617
v 0.1687407 0.01725089 0.2401617
v 0.1687407 0.01725089 -0.2401617
v 0.1862203 0.01725089 -0.2302569
v 0.1862203 0.01725089 0.2302569
v 0.1687357 0.1100634 0.2401617
v 0.1862203 0.1100634 0.2302593
v 0.1862203 0.1100634 -0.2302593
v 0.1687357 0.1100634 -0.2401617
v -0.1802513 0.08387253 -0.2401617
v -0.1802513 0.08387253 0.2401617
v -0.16875 0.1100634 0.2401617
v -0.16875 0.1100634 -0.2401617
v -0.16875 0.01725089 -0.2401617
v -0.16875 0.01725089 0.2401617
v -0.1802513 0.04344176 0.2401617
v -0.1802513 0.04344175 -0.2401617
v -0.1802513 0.04344175 -0.2401617
v -0.1802513 0.04344176 0.2401617
v -0.1802513 0.08387253 0.2401617
v -0.1802513 0.08387253 -0.2401617
v 0.1642561 0.0001080411 0.2401617
v 0.1687407 0.01725089 0.2401617
v 0.1862203 0.01725089 0.2302569
v 0.1862203 -0.00131161 0.2302569
v 0.1862203 -0.00131161 0.2302569
v 0.1862203 0.01725089 0.2302569
v 0.1862203 0.01725089 -0.2302569
v 0.1862203 -0.00131161 -0.2302569
v 0.1642561 0.0001080411 -0.2401617
v 0.1687407 0.01725089 -0.2401617
v -0.16875 0.01725089 -0.2401617
v -0.1777193 0.001527688 -0.2401617
v -0.1802513 0.04344175 -0.2401617
v -0.1967009 0.03930064 -0.2401617
v -0.1802513 0.08387253 -0.2401617
v -0.1967009 0.08801363 -0.2401617
v -0.16875 0.1100634 -0.2401617
v -0.1777193 0.1257866 -0.2401617
v 0.1687357 0.1100634 -0.2401617
v 0.1660449 0.1277741 -0.2401617
v 0.1660449 0.1277741 0.2401617
v 0.1687357 0.1100634 0.2401617
v -0.16875 0.1100634 0.2401617
v -0.1777193 0.1257866 0.2401617
v -0.1802513 0.08387253 0.2401617
v -0.1967009 0.08801363 0.2401617
v -0.1802513 0.04344176 0.2401617
v -0.1967009 0.03930064 0.2401617
v -0.16875 0.01725089 0.2401617
v -0.1777193 0.001527688 0.2401617
v 0.1687407 0.01725089 0.2401617
v 0.1642561 0.0001080411 0.2401617
v 0.1862203 0.1286259 -0.2302593
v 0.1862203 0.1100634 -0.2302593
v 0.1862203 0.1100634 0.2302593
v 0.1862203 0.1286259 0.2302593
v 0.1660449 0.1277741 -0.2401617
v 0.1687357 0.1100634 -0.2401617
v 0.1862203 0.1100634 -0.2302593
v 0.1862203 0.1286259 -0.2302593
v 0.1862203 0.1286259 0.2302593
v 0.1862203 0.1100634 0.2302593
v 0.1687357 0.1100634 0.2401617
v 0.1660449 0.1277741 0.2401617
v -0.16875 0.1100634 0.2401617
v 0.1687357 0.1100634 0.2401617
v 0.1687357 0.1100634 -0.2401617
v -0.16875 0.1100634 -0.2401617
v -0.1282424 0.1260697 0.1911958
v -0.1282424 0.1260697 -0.1911958
v 0.1175912 0.127491 -0.1911958
v 0.1175912 0.127491 0.1911958
v 0.1862203 -0.00131161 -0.2302569
v 0.1862203 0.01725089 -0.2302569
v 0.1687407 0.01725089 -0.2401617
v 0.1642561 0.0001080411 -0.2401617
v -0.16875 0.01725089 0.2401617
v -0.16875 0.01725089 -0.2401617
v 0.1687407 0.01725089 -0.2401617
v 0.1687407 0.01725089 0.2401617
v -0.1777193 0.001527688 0.2401617
v 0.1642561 0.0001080411 0.2401617
v 0.1642561 0.0001080411 -0.2401617
v -0.1777193 0.001527688 -0.2401617
v -0.16875 0.01725089 0.225
v 0.16875 0.01725089 0.225
v 0.16875 0.01725089 -0.225
v -0.16875 0.01725089 -0.225
v -0.16875 0.1100634 0.225
v -0.16875 0.1100634 -0.225
v 0.16875 0.1100634 -0.225
v 0.16875 0.1100634 0.225
v 0.1572487 0.08387253 0.225
v 0.16875 0.1100634 0.225
v 0.16875 0.1100634 -0.225
v 0.1572487 0.08387253 -0.225
v -0.1802513 0.08387253 -0.225
v -0.16875 0.1100634 -0.225
v -0.16875 0.1100634 0.225
v -0.1802513 0.08387253 0.225
v 0.1572487 0.08387253 -0.225
v 0.16875 0.1100634 -0.225
v -0.16875 0.1100634 -0.225
v -0.1802513 0.08387253 -0.225
v 0.1572487 0.0467176 -0.225
v -0.1802513 0.04344175 -0.225
v 0.16875 0.01725089 -0.225
v 0.1572487 0.04344176 -0.225
v -0.16875 0.01725089 -0.225
v -0.1802513 0.08387253 0.225
v -0.16875 0.1100634 0.225
v 0.16875 0.1100634 0.225
v 0.1572487 0.08387253 0.225
v -0.1802513 0.04344176 0.225
v 0.1572487 0.0467176 0.225
v -0.16875 0.01725089 0.225
v 0.1572487 0.04344175 0.225
v 0.16875 0.01725089 0.225
v -0.16875 0.01725089 -0.225
v -0.1802513 0.04344175 -0.225
v -0.1802513 0.04344176 0.225
v -0.16875 0.01725089 0.225
v -0.1802513 0.04344175 -0.225
v -0.1802513 0.08387253 -0.225
v -0.1802513 0.08387253 0.225
v -0.1802513 0.04344176 0.225
v 0.16875 0.01725089 0.225
v 0.1572487 0.04344175 0.225
v 0.1572487 0.04344176 -0.225
v 0.16875 0.01725089 -0.225
v 0.1572487 0.0467176 0.225
v 0.1572487 0.08387253 0.225
v 0.1572487 0.08387253 -0.225
v 0.1572487 0.0467176 -0.225
v 0.1572487 0.04344175 0.225
v -0.1802513 0.04344176 0.225
v -0.1802513 0.04344175 -0.225
v 0.1572487 0.04344176 -0.225
v 0.1572487 0.0467176 0.225
v 0.1572487 0.0467176 -0.225
v -0.1802513 0.04344175 -0.225
v -0.1802513 0.04344176 0.225
v -0.1463126 0.04605969 0.2756219
v -0.1463126 0.04275773 0.2991663
v -0.1190643 0.04605969 0.2756219
v -0.1463126 0.05220765 0.2151552
v -0.1190643 0.05220765 0.2151552
v -0.09181606 0.04605969 0.2756219
v -0.09181606 0.05220765 0.2151552
v -0.09181606 0.04275773 0.2991663
v 0.1175912 0.127491 0.1911958
v 0.1370134 0.1276033 0.2106182
v -0.1476646 0.1259574 0.2106182
v -0.1282424 0.1260697 0.1911958
v 0.1175912 0.127491 -0.1911958
v -0.1476646 0.1259574 -0.2106182
v 0.1370134 0.1276033 -0.2106182
v -0.1282424 0.1260697 -0.1911958
v 0.1370134 0.1276033 0.2106182
v 0.1660449 0.1277741 0.2401617
v -0.1777193 0.1257866 0.2401617
v -0.1476646 0.1259574 0.2106182
v 0.1370134 0.1276033 -0.2106182
v -0.1777193 0.1257866 -0.2401617
v 0.1660449 0.1277741 -0.2401617
v -0.1476646 0.1259574 -0.2106182
vt 0.04904972 0.5213281
vt 0.07749118 0.5213281
vt 0.07749118 0.5976409
vt 0.04904972 0.5976409
vt 0.04904972 0.5213281
vt 0.04904972 0.5976409
vt 0.07749118 0.5976409
vt 0.07749118 0.5213281
vt 0.01768179 0.5976409
vt 0.02060828 0.5976409
vt 0.02060828 0.5213281
vt 0.01768179 0.5213281
vt 0.02060828 0.5976409
vt 0.01768179 0.5976409
vt 0.01768179 0.5213281
vt 0.02060828 0.5213281
vt 0.01768179 0.5976409
vt 0.01768179 0.5976409
vt 0.01768179 0.5213281
vt 0.01768179 0.5213281
vt 0.0497423 0.5213281
vt 0.0497423 0.5976409
vt 0.07749118 0.5976409
vt 0.07749118 0.5213281
vt 0.0497423 0.5213281
vt 0.07749118 0.5213281
vt 0.07749118 0.5976409
vt 0.0497423 0.5976409
vt 0.02022058 0.5976409
vt 0.02022058 0.5213281
vt 0.02199341 0.5213281
vt 0.02199341 0.5976409
vt 0.02199341 0.5976409
vt 0.02199341 0.5213281
vt 0.02022058 0.5213281
vt 0.02022058 0.5976409
vt 0.02022058 0.5976409
vt 0.02022058 0.5213281
vt 0.02022058 0.5213281
vt 0.02022058 0.5976409
vt 0.1896747 0.5213281
vt 0.1903673 0.5213281
vt 0.2181162 0.5213281
vt 0.2181162 0.5213281
vt 0.2181162 0.5213281
vt 0.2181162 0.5213281
vt 0.2181162 0.5976409
vt 0.2181162 0.5976409
vt 0.1896747 0.5976409
vt 0.1903673 0.5976409
vt 0.1626184 0.5976409
vt 0.1612333 0.5976409
vt 0.1608456 0.5976409
vt 0.1583068 0.5976409
vt 0.1608456 0.5976409
vt 0.1583068 0.5976409
vt 0.1626184 0.5976409
vt 0.1612333 0.5976409
vt 0.1903673 0.5976409
vt 0.1896747 0.5976409
vt 0.1896747 0.5213281
vt 0.1903673 0.5213281
vt 0.1626184 0.5213281
vt 0.1612333 0.5213281
vt 0.1608456 0.5213281
vt 0.1583068 0.5213281
vt 0.1608456 0.5213281
vt 0.1583068 0.5213281
vt 0.1626184 0.5213281
vt 0.1612333 0.5213281
vt 0.1903673 0.5213281
vt 0.1896747 0.5213281
vt 0.2181162 0.5976409
vt 0.2181162 0.5976409
vt 0.2181162 0.5213281
vt 0.2181162 0.5213281
vt 0.1896747 0.5976409
vt 0.1903673 0.5976409
vt 0.2181162 0.5976409
vt 0.2181162 0.5976409
vt 0.2181162 0.5213281
vt 0.2181162 0.5213281
vt 0.1903673 0.5213281
vt 0.1896747 0.5213281
vt 0.02199341 0.5213281
vt 0.0497423 0.5213281
vt 0.0497423 0.5976409
vt 0.02199341 0.5976409
vt 0.09301879 0.5369202
vt 0.09301879 0.5976738
vt 0.1133579 0.5976737
vt 0.113358 0.5369202
vt 0.2181162 0.5976409
vt 0.2181162 0.5976409
vt 0.1903673 0.5976409
vt 0.1896747 0.5976409
vt 0.02199341 0.5213281
vt 0.02199341 0.5976409
vt 0.0497423 0.5976409
vt 0.0497423 0.5213281
vt 0.02060828 0.5213281
vt 0.04904972 0.5213281
vt 0.04904972 0.5976409
vt 0.02060828 0.5976409
vt 0.7700927 0.8112676
vt 0.837074 0.8112676
vt 0.837074 0.8112676
vt 0.7700927 0.8112676
vt 0.7700927 0.8280141
vt 0.7700927 0.8280141
vt 0.837074 0.8280141
vt 0.837074 0.8280141
vt 0.8347917 0.8232884
vt 0.837074 0.8280141
vt 0.837074 0.8280141
vt 0.8347917 0.8232884
vt 0.767808 0.8232884
vt 0.7700927 0.8280141
vt 0.7700927 0.8280141
vt 0.767808 0.8232884
vt 0.8347917 0.8232884
vt 0.837074 0.8280141
vt 0.7700927 0.8280141
vt 0.767808 0.8232884
vt 0.8347917 0.8174984
vt 0.767808 0.8159933
vt 0.837074 0.8112676
vt 0.8347917 0.8159933
vt 0.7700927 0.8112676
vt 0.767808 0.8232884
vt 0.7700927 0.8280141
vt 0.837074 0.8280141
vt 0.8347917 0.8232884
vt 0.767808 0.8159933
vt 0.8347917 0.8174984
vt 0.7700927 0.8112676
vt 0.8347917 0.8159933
vt 0.837074 0.8112676
vt 0.7700927 0.8112676
vt 0.767808 0.8159933
vt 0.767808 0.8159933
vt 0.7700927 0.8112676
vt 0.767808 0.8159933
vt 0.767808 0.8232884
vt 0.767808 0.8232884
vt 0.767808 0.8159933
vt 0.837074 0.8112676
vt 0.8347917 0.8159933
vt 0.8347917 0.8159933
vt 0.837074 0.8112676
vt 0.8347917 0.8174984
vt 0.8347917 0.8232884
vt 0.8347917 0.8232884
vt 0.8347917 0.8174984
vt 0.8347917 0.8159933
vt 0.767808 0.8159933
vt 0.767808 0.8159933
vt 0.8347917 0.8159933
vt 0.8347917 0.8174984
vt 0.8347917 0.8174984
vt 0.767808 0.8159933
vt 0.767808 0.8159933
vt 0.02290213 0.670899
vt 0.02290213 0.6623462
vt 0.0327965 0.670899
vt 0.02290213 0.6928669
vt 0.0327965 0.6928669
vt 0.0426953 0.670899
vt 0.0426953 0.6928669
vt 0.0426953 0.6623462
vt 0.1914829 0.5291077
vt 0.1930898 0.5260219
vt 0.1695369 0.526022
vt 0.1711438 0.5291077
vt 0.1914829 0.5898612
vt 0.1695369 0.5929471
vt 0.1930898 0.5929471
vt 0.1711438 0.5898613
vt 0.04660548 0.5260219
vt 0.04904972 0.5213281
vt 0.02060828 0.5213281
vt 0.02305253 0.526022
vt 0.04660547 0.5929471
vt 0.02060828 0.5976409
vt 0.04904972 0.5976409
vt 0.02305253 0.5929471
vn -0.06450012 -0.9979177 0
vn -0.06450012 -0.9979177 0
vn -0.06450012 -0.9979177 0
vn -0.06450012 -0.9979177 0
vn -0.04218196 0.9991099 0
vn -0.04218196 0.9991099 0
vn -0.04218196 0.9991099 0
vn -0.04218196 0.9991099 0
vn -0.8935245 0.4490145 0
vn -0.8935245 0.4490145 0
vn -0.8935245 0.4490145 0
vn -0.8935245 0.4490145 0
vn -0.8935246 -0.4490144 0
vn -0.8935246 -0.4490144 0
vn -0.8935246 -0.4490144 0
vn -0.8935246 -0.4490144 0
vn -1 0 0
vn -1 0 0
vn -1 0 0
vn -1 0 0
vn 0 1 0
vn 0 1 0
vn 0 1 0
vn 0 1 0
vn -4.529139E-07 -1 0
vn -4.529139E-07 -1 0
vn -4.529139E-07 -1 0
vn -4.529139E-07 -1 0
vn 0.9156068 -0.4020748 0
vn 0.9156068 -0.4020748 0
vn 0.9156068 -0.4020748 0
vn 0.9156068 -0.4020748 0
vn 0.915607 0.4020746 0
vn 0.915607 0.4020746 0
vn 0.915607 0.4020746 0
vn 0.915607 0.4020746 0
vn 1 0 0
vn 1 0 0
vn 1 0 0
vn 1 0 0
vn 0.4464832 -0.05607893 0.893033
vn 0.4464832 -0.05607893 0.893033
vn 0.4464832 -0.05607893 0.893033
vn 0.4464832 -0.05607893 0.893033
vn 1 0 0
vn 1 0 0
vn 1 0 0
vn 1 0 0
vn 0 -1.33341E-06 -1
vn 0 -1.33341E-06 -1
vn 0 -1.33341E-06 -1
vn 0 -1.33341E-06 -1
vn 0 4.173693E-07 -1
vn 0 4.173693E-07 -1
vn 0 0 -1
vn 0 0 -1
vn 0 0 -1
vn 0 0 -1
vn 0 1.307118E-06 -1
vn 0 1.307118E-06 -1
vn 0 1.307118E-06 1
vn 0 1.307118E-06 1
vn 0 1.307118E-06 1
vn 0 1.307118E-06 1
vn 0 -4.173696E-07 1
vn 0 -4.173696E-07 1
vn 0 0 1
vn 0 0 1
vn 0 0 1
vn 0 0 1
vn 0 -1.33341E-06 1
vn 0 -1.33341E-06 1
vn 1 0 0
vn 1 0 0
vn 1 0 0
vn 1 0 0
vn 0.4645584 0.03446134 -0.8848717
vn 0.4645584 0.03446134 -0.8848717
vn 0.4645584 0.03446134 -0.8848717
vn 0.4645584 0.03446134 -0.8848717
vn 0.4645584 0.03446134 0.8848717
vn 0.4645584 0.03446134 0.8848717
vn 0.4645584 0.03446134 0.8848717
vn 0.4645584 0.03446134 0.8848717
vn 0 -1 0
vn 0 -1 0
vn 0 -1 0
vn 0 -1 0
vn -0.005781483 0.9999833 0
vn -0.005781483 0.9999833 0
vn -0.005781483 0.9999833 0
vn -0.005781483 0.9999833 0
vn 0.446483 -0.0560789 -0.8930331
vn 0.446483 -0.0560789 -0.8930331
vn 0.446483 -0.0560789 -0.8930331
vn 0.446483 -0.0560789 -0.8930331
vn 0 1 0
vn 0 1 0
vn 0 1 0
vn 0 1 0
vn -0.004151279 -0.9999914 0
vn -0.004151279 -0.9999914 0
vn -0.004151279 -0.9999914 0
vn -0.004151279 -0.9999914 0
vn 0 -1 0
vn 0 -1 0
vn 0 -1 0
vn 0 -1 0
vn 0 1 0
vn 0 1 0
vn 0 1 0
vn 0 1 0
vn 0.915607 -0.4020744 0
vn 0.915607 -0.4020744 0
vn 0.915607 -0.4020744 0
vn 0.915607 -0.4020744 0
vn -0.9156068 0.4020748 0
vn -0.9156068 0.4020748 0
vn -0.9156068 0.4020748 0
vn -0.9156068 0.4020748 0
vn 0 0 -1
vn 0 0 -1
vn 0 0 -1
vn 0 0 -1
vn 0 0 -1
vn 0 0 -1
vn 0 0 -1
vn 0 0 -1
vn 0 0 -1
vn 0 0 1
vn 0 0 1
vn 0 0 1
vn 0 0 1
vn 0 0 1
vn 0 0 1
vn 0 0 1
vn 0 0 1
vn 0 0 1
vn -0.915607 -0.4020746 0
vn -0.915607 -0.4020746 0
vn -0.915607 -0.4020746 0
vn -0.915607 -0.4020746 0
vn -1 0 0
vn -1 0 0
vn -1 0 0
vn -1 0 0
vn 0.9156072 0.4020742 0
vn 0.9156072 0.4020742 0
vn 0.9156072 0.4020742 0
vn 0.9156072 0.4020742 0
vn 1 0 0
vn 1 0 0
vn 1 0 0
vn 1 0 0
vn 0 1 0
vn 0 1 0
vn 0 1 0
vn 0 1 0
vn 0.009705732 -0.9999529 0
vn 0.009705732 -0.9999529 0
vn 0.009705732 -0.9999529 0
vn 0.009705732 -0.9999529 0
vn 0 -0.9903086 -0.1388841
vn 0 -0.9903086 -0.1388841
vn 0 -0.9948708 -0.1011535
vn 0 -0.9948708 -0.1011535
vn 0 -0.9948708 -0.1011535
vn 0 -0.9948708 -0.1011535
vn 0 -0.9948708 -0.1011535
vn 0 -0.9903087 -0.1388841
vn -0.005781525 0.9999833 3.86958E-07
vn -0.005781525 0.9999833 3.86958E-07
vn -0.005782039 0.9999833 0
vn -0.005782039 0.9999833 0
vn -0.005781525 0.9999833 -3.867814E-07
vn -0.005782039 0.9999833 0
vn -0.005781525 0.9999833 -3.867814E-07
vn -0.005782039 0.9999833 0
vn -0.005781563 0.9999833 -9.985899E-05
vn -0.005781563 0.9999833 -9.985899E-05
vn -0.005683251 0.9999839 0
vn -0.005683251 0.9999839 0
vn -0.005781563 0.9999833 9.985899E-05
vn -0.005683251 0.9999839 0
vn -0.005781563 0.9999833 9.985899E-05
vn -0.005683251 0.9999839 0
g book-closed_0
f 3/3/3 2/2/2 1/1/1
f 4/4/4 3/3/3 1/1/1
f 7/7/7 6/6/6 5/5/5
f 8/8/8 7/7/7 5/5/5
f 11/11/11 10/10/10 9/9/9
f 12/12/12 11/11/11 9/9/9
f 15/15/15 14/14/14 13/13/13
f 16/16/16 15/15/15 13/13/13
f 19/19/19 18/18/18 17/17/17
f 20/20/20 19/19/19 17/17/17
f 23/23/23 22/22/22 21/21/21
f 24/24/24 23/23/23 21/21/21
f 27/27/27 26/26/26 25/25/25
f 28/28/28 27/27/27 25/25/25
f 31/31/31 30/30/30 29/29/29
f 32/32/32 31/31/31 29/29/29
f 35/35/35 34/34/34 33/33/33
f 36/36/36 35/35/35 33/33/33
f 39/39/39 38/38/38 37/37/37
f 40/40/40 39/39/39 37/37/37
f 43/43/43 42/42/42 41/41/41
f 44/44/44 43/43/43 41/41/41
f 47/47/47 46/46/46 45/45/45
f 48/48/48 47/47/47 45/45/45
f 51/51/51 50/50/50 49/49/49
f 52/52/52 51/51/51 49/49/49
f 53/53/53 51/51/51 52/52/52
f 54/54/54 53/53/53 52/52/52
f 55/55/55 53/53/53 54/54/54
f 56/56/56 55/55/55 54/54/54
f 57/57/57 55/55/55 56/56/56
f 58/58/58 57/57/57 56/56/56
f 59/59/59 57/57/57 58/58/58
f 60/60/60 59/59/59 58/58/58
f 63/63/63 62/62/62 61/61/61
f 64/64/64 63/63/63 61/61/61
f 65/65/65 63/63/63 64/64/64
f 66/66/66 65/65/65 64/64/64
f 67/67/67 65/65/65 66/66/66
f 68/68/68 67/67/67 66/66/66
f 69/69/69 67/67/67 68/68/68
f 70/70/70 69/69/69 68/68/68
f 71/71/71 69/69/69 70/70/70
f 72/72/72 71/71/71 70/70/70
f 75/75/75 74/74/74 73/73/73
f 76/76/76 75/75/75 73/73/73
f 79/79/79 78/78/78 77/77/77
f 80/80/80 79/79/79 77/77/77
f 83/83/83 82/82/82 81/81/81
f 84/84/84 83/83/83 81/81/81
f 87/87/87 86/86/86 85/85/85
f 88/88/88 87/87/87 85/85/85
f 91/91/91 90/90/90 89/89/89
f 92/92/92 91/91/91 89/89/89
f 95/95/95 94/94/94 93/93/93
f 96/96/96 95/95/95 93/93/93
f 99/99/99 98/98/98 97/97/97
f 100/100/100 99/99/99 97/97/97
f 103/103/103 102/102/102 101/101/101
f 104/104/104 103/103/103 101/101/101
f 107/107/107 106/106/106 105/105/105
f 108/108/108 107/107/107 105/105/105
f 111/111/111 110/110/110 109/109/109
f 112/112/112 111/111/111 109/109/109
f 115/115/115 114/114/114 113/113/113
f 116/116/116 115/115/115 113/113/113
f 119/119/119 118/118/118 117/117/117
f 120/120/120 119/119/119 117/117/117
f 123/123/123 122/122/122 121/121/121
f 124/124/124 123/123/123 121/121/121
f 124/124/124 121/121/121 125/125/125
f 126/126/126 124/124/124 125/125/125
f 126/126/126 128/128/128 127/127/127
f 129/129/129 126/126/126 127/127/127
f 132/132/132 131/131/131 130/130/130
f 133/133/133 132/132/132 130/130/130
f 133/133/133 130/130/130 134/134/134
f 135/135/135 133/133/133 134/134/134
f 137/137/137 134/134/134 136/136/136
f 138/138/138 137/137/137 136/136/136
f 141/141/141 140/140/140 139/139/139
f 142/142/142 141/141/141 139/139/139
f 145/145/145 144/144/144 143/143/143
f 146/146/146 145/145/145 143/143/143
f 149/149/149 148/148/148 147/147/147
f 150/150/150 149/149/149 147/147/147
f 153/153/153 152/152/152 151/151/151
f 154/154/154 153/153/153 151/151/151
f 157/157/157 156/156/156 155/155/155
f 158/158/158 157/157/157 155/155/155
f 161/161/161 160/160/160 159/159/159
f 162/162/162 161/161/161 159/159/159
f 165/165/165 164/164/164 163/163/163
f 165/165/165 164/164/164 163/163/163
f 165/165/165 163/163/163 166/166/166
f 165/165/165 163/163/163 166/166/166
f 167/167/167 165/165/165 166/166/166
f 167/167/167 165/165/165 166/166/166
f 168/168/168 165/165/165 167/167/167
f 168/168/168 165/165/165 167/167/167
f 169/169/169 168/168/168 167/167/167
f 169/169/169 168/168/168 167/167/167
f 168/168/168 170/170/170 165/165/165
f 168/168/168 170/170/170 165/165/165
f 173/173/173 172/172/172 171/171/171
f 174/174/174 173/173/173 171/171/171
f 171/171/171 172/172/172 175/175/175
f 176/176/176 173/173/173 174/174/174
f 172/172/172 177/177/177 175/175/175
f 178/178/178 176/176/176 174/174/174
f 175/175/175 177/177/177 178/178/178
f 177/177/177 176/176/176 178/178/178
f 181/181/181 180/180/180 179/179/179
f 182/182/182 181/181/181 179/179/179
f 179/179/179 180/180/180 183/183/183
f 184/184/184 181/181/181 182/182/182
f 180/180/180 185/185/185 183/183/183
f 186/186/186 184/184/184 182/182/182
f 183/183/183 185/185/185 186/186/186
f 185/185/185 184/184/184 186/186/186
