g Border_QuarterCyl_1m
v 0 -0.5 0.5
v 0 0.5 0.5
v -0.1294095 -0.5 0.4829629
v -0.1294095 0.5 0.4829629
v -0.25 -0.5 0.4330127
v -0.25 0.5 0.4330127
v -0.3535534 -0.5 0.3535534
v -0.3535534 0.5 0.3535534
v -0.4330127 -0.5 0.25
v -0.4330127 0.5 0.25
v -0.4829629 -0.5 0.1294095
v -0.4829629 0.5 0.1294095
v -0.5 -0.5 -2.185569E-08
v -0.5 0.5 -2.185569E-08
v 0 0.5 0
v 0 0.5 0.5
v -0.1294095 0.5 0.4829629
v -0.25 0.5 0.4330127
v -0.3535534 0.5 0.3535534
v -0.4330127 0.5 0.25
v -0.4829629 0.5 0.1294095
v -0.5 0.5 -2.185569E-08
v 0 -0.5 0
v -0.5 -0.5 -2.185569E-08
v -0.4829629 -0.5 0.1294095
v -0.4330127 -0.5 0.25
v -0.3535534 -0.5 0.3535534
v -0.25 -0.5 0.4330127
v -0.1294095 -0.5 0.4829629
v 0 -0.5 0.5
v 0 -0.5 0.5
v 0 0.5 0.5
v 0 -0.5 0
v 0 0.5 0
v 0 -0.5 0
v 0 0.5 0
v -0.5 -0.5 -2.185569E-08
v -0.5 0.5 -2.185569E-08
vt 0 0
vt 0 1
vt -0.1666667 0
vt -0.1666667 1
vt -0.3333333 0
vt -0.3333333 1
vt -0.5 0
vt -0.5 1
vt -0.6666667 0
vt -0.6666667 1
vt -0.8333334 0
vt -0.8333334 1
vt -1 0
vt -1 1
vt 0.5 0.5
vt 0.5 1
vt 0.6294096 0.9829629
vt 0.75 0.9330127
vt 0.8535534 0.8535534
vt 0.9330127 0.75
vt 0.9829629 0.6294096
vt 1 0.5
vt 0.5 0.5
vt 1 0.5
vt 0.9829629 0.6294096
vt 0.9330127 0.75
vt 0.8535534 0.8535534
vt 0.75 0.9330127
vt 0.6294096 0.9829629
vt 0.5 1
vt 0 0
vt 0 1
vt 0.5 0
vt 0.5 1
vt 0.5 0
vt 0.5 1
vt 1 0
vt 1 1
vn 0 0 1
vn 0 0 1
vn -0.258819 0 0.9659258
vn -0.258819 0 0.9659258
vn -0.5 0 0.8660254
vn -0.5 0 0.8660254
vn -0.7071068 0 0.7071068
vn -0.7071068 0 0.7071068
vn -0.8660254 0 0.5
vn -0.8660254 0 0.5
vn -0.9659258 0 0.2588191
vn -0.9659258 0 0.2588191
vn -1 0 -4.371139E-08
vn -1 0 -4.371139E-08
vn 0 1 0
vn 0 1 0
vn 0 1 0
vn 0 1 0
vn 0 1 0
vn 0 1 0
vn 0 1 0
vn 0 1 0
vn 0 -1 0
vn 0 -1 0
vn 0 -1 0
vn 0 -1 0
vn 0 -1 0
vn 0 -1 0
vn 0 -1 0
vn 0 -1 0
vn 1 0 0
vn 1 0 0
vn 1 0 0
vn 1 0 0
vn 4.371139E-08 0 -1
vn 4.371139E-08 0 -1
vn 4.371139E-08 0 -1
vn 4.371139E-08 0 -1
g Border_QuarterCyl_1m_0
f 2/2/2 4/4/4 3/3/3
f 3/3/3 1/1/1 2/2/2
f 4/4/4 6/6/6 5/5/5
f 5/5/5 3/3/3 4/4/4
f 6/6/6 8/8/8 7/7/7
f 7/7/7 5/5/5 6/6/6
f 8/8/8 10/10/10 9/9/9
f 9/9/9 7/7/7 8/8/8
f 10/10/10 12/12/12 11/11/11
f 11/11/11 9/9/9 10/10/10
f 12/12/12 14/14/14 13/13/13
f 13/13/13 11/11/11 12/12/12
f 17/17/17 16/16/16 15/15/15
f 18/18/18 17/17/17 15/15/15
f 19/19/19 18/18/18 15/15/15
f 20/20/20 19/19/19 15/15/15
f 21/21/21 20/20/20 15/15/15
f 22/22/22 21/21/21 15/15/15
f 25/25/25 24/24/24 23/23/23
f 26/26/26 25/25/25 23/23/23
f 27/27/27 26/26/26 23/23/23
f 28/28/28 27/27/27 23/23/23
f 29/29/29 28/28/28 23/23/23
f 30/30/30 29/29/29 23/23/23
f 34/34/34 32/32/32 31/31/31
f 31/31/31 33/33/33 34/34/34
f 38/38/38 36/36/36 35/35/35
f 35/35/35 37/37/37 38/38/38
