g Box_HollowCyl
v 0.5 0.5000001 -0.4999999
v -0.4999999 -0.4999999 -0.5000001
v 0.5 -0.4999999 -0.5000001
v -0.4999999 0.5000001 -0.4999999
v -0.4999999 0.5000001 -0.4999999
v -0.4999999 -0.5000001 0.4999999
v -0.4999999 -0.4999999 -0.5000001
v -0.4999999 0.4999999 0.5000001
v -0.4999999 0.4999999 0.5000001
v 0.5 -0.5000001 0.4999999
v -0.4999999 -0.5000001 0.4999999
v 0.5 0.4999999 0.5000001
v 0.5 0.4999999 0.5000001
v 0.5 -0.4999999 -0.5000001
v 0.5 -0.5000001 0.4999999
v 0.5 0.5000001 -0.4999999
v 5.028629E-06 -0.5000001 0.468764
v 0.1213303 0.4999999 0.4527914
v 5.028629E-06 0.4999999 0.4687641
v 0.1213303 -0.5000001 0.4527913
v 0.2343874 0.4999999 0.4059616
v 0.2343874 -0.5000001 0.4059615
v 0.3314719 0.4999999 0.331466
v 0.3314719 -0.5000001 0.331466
v 0.4059674 0.4999999 0.2343816
v 0.4059674 -0.5000001 0.2343815
v 0.4527971 0.4999999 0.1213245
v 0.4527971 -0.5 0.1213244
v 0.4687699 0.5 -8.259629E-07
v 0.4687699 -0.5 -9.29828E-07
v 0.4527971 0.5 -0.1213265
v 0.4527971 -0.5 -0.1213266
v 0.4059672 0.5 -0.2343836
v 0.4059672 -0.4999999 -0.2343837
v 0.3314717 0.5 -0.3314679
v 0.3314717 -0.4999999 -0.331468
v 0.2343872 0.5000001 -0.4059633
v 0.2343872 -0.4999999 -0.4059634
v 0.12133 0.5000001 -0.452793
v 0.12133 -0.4999999 -0.4527931
v 4.775305E-06 0.5000001 -0.4687658
v 4.775305E-06 -0.4999999 -0.4687659
v -0.1213205 0.5000001 -0.4527929
v -0.1213205 -0.4999999 -0.452793
v -0.2343776 0.5000001 -0.4059631
v -0.2343776 -0.4999999 -0.4059632
v -0.3314621 0.5 -0.3314675
v -0.3314621 -0.4999999 -0.3314676
v -0.4059574 0.5 -0.2343831
v -0.4059574 -0.4999999 -0.2343832
v -0.4527872 0.5 -0.1213259
v -0.4527872 -0.5 -0.121326
v -0.46876 0.5 -6.43419E-07
v -0.46876 -0.5 -7.472842E-07
v -0.4527871 0.4999999 0.1213246
v -0.4527871 -0.5 0.1213245
v -0.4059573 0.4999999 0.2343818
v -0.4059573 -0.5000001 0.2343816
v -0.3314618 0.4999999 0.3314661
v -0.3314618 -0.5000001 0.331466
v -0.2343774 0.4999999 0.4059616
v -0.2343774 -0.5000001 0.4059615
v -0.1213202 0.4999999 0.4527914
v -0.1213202 -0.5000001 0.4527913
v 5.028629E-06 0.4999999 0.4687641
v 5.028629E-06 -0.5000001 0.468764
v 0.12133 -0.4999999 -0.4527931
v 0.5 -0.4999999 -0.5000001
v 4.775305E-06 -0.4999999 -0.4687659
v -0.4999999 -0.4999999 -0.5000001
v 0.2343872 -0.4999999 -0.4059634
v -0.1213205 -0.4999999 -0.452793
v 0.3314717 -0.4999999 -0.331468
v -0.2343776 -0.4999999 -0.4059632
v 0.4059672 -0.4999999 -0.2343837
v 0.4527971 -0.5 -0.1213266
v 0.4687699 -0.5 -9.29828E-07
v 0.5 -0.5000001 0.4999999
v -0.3314621 -0.4999999 -0.3314676
v 0.4527971 -0.5 0.1213244
v -0.4059574 -0.4999999 -0.2343832
v -0.4527872 -0.5 -0.121326
v -0.46876 -0.5 -7.472842E-07
v -0.4999999 -0.5000001 0.4999999
v 0.4059674 -0.5000001 0.2343815
v -0.4527871 -0.5 0.1213245
v 0.3314719 -0.5000001 0.331466
v -0.4059573 -0.5000001 0.2343816
v 0.2343874 -0.5000001 0.4059615
v 0.1213303 -0.5000001 0.4527913
v 5.028629E-06 -0.5000001 0.468764
v -0.3314618 -0.5000001 0.331466
v -0.1213202 -0.5000001 0.4527913
v -0.2343774 -0.5000001 0.4059615
v -0.4527871 0.4999999 0.1213246
v -0.4999999 0.4999999 0.5000001
v -0.46876 0.5 -6.43419E-07
v -0.4999999 0.5000001 -0.4999999
v -0.4059573 0.4999999 0.2343818
v -0.4527872 0.5 -0.1213259
v -0.3314618 0.4999999 0.3314661
v -0.4059574 0.5 -0.2343831
v -0.2343774 0.4999999 0.4059616
v -0.1213202 0.4999999 0.4527914
v 5.028629E-06 0.4999999 0.4687641
v 0.5 0.4999999 0.5000001
v -0.3314621 0.5 -0.3314675
v 0.1213303 0.4999999 0.4527914
v -0.2343776 0.5000001 -0.4059631
v -0.1213205 0.5000001 -0.4527929
v 4.775305E-06 0.5000001 -0.4687658
v 0.5 0.5000001 -0.4999999
v 0.2343874 0.4999999 0.4059616
v 0.12133 0.5000001 -0.452793
v 0.3314719 0.4999999 0.331466
v 0.2343872 0.5000001 -0.4059633
v 0.4059674 0.4999999 0.2343816
v 0.4527971 0.4999999 0.1213245
v 0.4687699 0.5 -8.259629E-07
v 0.3314717 0.5 -0.3314679
v 0.4527971 0.5 -0.1213265
v 0.4059672 0.5 -0.2343836
vt 1 0
vt 0 1
vt 1 1
vt 0 0
vt 1 0
vt 0 1
vt 1 1
vt 0 0
vt 1 0
vt 0 1
vt 1 1
vt 0 0
vt 1 0
vt 0 1
vt 1 1
vt 0 0
vt 1 0.839996
vt 0.9583334 0.1599962
vt 1 0.1599962
vt 0.9583333 0.839996
vt 0.9166667 0.1599962
vt 0.9166667 0.839996
vt 0.875 0.1599962
vt 0.875 0.839996
vt 0.8333334 0.1599962
vt 0.8333334 0.839996
vt 0.7916666 0.1599962
vt 0.7916666 0.839996
vt 0.75 0.1599962
vt 0.75 0.839996
vt 0.7083332 0.1599963
vt 0.7083332 0.839996
vt 0.6666666 0.1599962
vt 0.6666666 0.839996
vt 0.6249999 0.1599962
vt 0.6249999 0.839996
vt 0.5833333 0.1599962
vt 0.5833333 0.839996
vt 0.5416666 0.1599962
vt 0.5416666 0.839996
vt 0.4999999 0.1599962
vt 0.4999999 0.839996
vt 0.4583333 0.1599962
vt 0.4583333 0.839996
vt 0.4166666 0.1599962
vt 0.4166666 0.839996
vt 0.3749999 0.1599962
vt 0.375 0.839996
vt 0.3333333 0.1599962
vt 0.3333333 0.839996
vt 0.2916666 0.1599963
vt 0.2916666 0.839996
vt 0.2499999 0.1599962
vt 0.2499999 0.839996
vt 0.2083333 0.1599962
vt 0.2083333 0.839996
vt 0.1666666 0.1599962
vt 0.1666666 0.839996
vt 0.125 0.1599962
vt 0.125 0.839996
vt 0.08333331 0.1599962
vt 0.08333331 0.839996
vt 0.04166666 0.1599962
vt 0.04166666 0.839996
vt 0 0.1599962
vt 0 0.839996
vt 0.62133 0.04720696
vt 1 0
vt 0.5000047 0.03123421
vt 0 0
vt 0.7343872 0.09403668
vt 0.3786795 0.04720707
vt 0.8314716 0.1685321
vt 0.2656223 0.09403688
vt 0.9059672 0.2656164
vt 0.9527971 0.3786736
vt 0.9687699 0.4999992
vt 1 1
vt 0.1685379 0.1685325
vt 0.9527971 0.6213245
vt 0.09404251 0.2656169
vt 0.04721275 0.3786741
vt 0.03124001 0.4999993
vt 0 1
vt 0.9059674 0.7343816
vt 0.04721283 0.6213247
vt 0.8314718 0.8314661
vt 0.09404266 0.7343817
vt 0.7343874 0.9059615
vt 0.6213303 0.9527913
vt 0.500005 0.9687641
vt 0.1685381 0.8314661
vt 0.3786797 0.9527913
vt 0.2656226 0.9059616
vt 0.9527872 0.6213246
vt 1 1
vt 0.96876 0.4999993
vt 1 0
vt 0.9059573 0.7343817
vt 0.9527873 0.378674
vt 0.8314618 0.831466
vt 0.9059575 0.2656168
vt 0.7343774 0.9059615
vt 0.6213203 0.9527913
vt 0.499995 0.9687641
vt 0 1
vt 0.8314621 0.1685324
vt 0.3786697 0.9527913
vt 0.7343777 0.09403682
vt 0.6213205 0.04720699
vt 0.4999953 0.03123416
vt 0 0
vt 0.2656126 0.9059615
vt 0.37867 0.04720691
vt 0.1685282 0.831466
vt 0.2656128 0.09403659
vt 0.09403268 0.7343816
vt 0.04720288 0.6213244
vt 0.03123009 0.4999991
vt 0.1685284 0.168532
vt 0.04720295 0.3786735
vt 0.09403282 0.2656164
vn 0 1.525879E-07 -1
vn 0 1.525879E-07 -1
vn 0 1.525879E-07 -1
vn 0 1.525879E-07 -1
vn -1 0 0
vn -1 0 0
vn -1 0 0
vn -1 0 0
vn 0 -1.525879E-07 1
vn 0 -1.525879E-07 1
vn 0 -1.525879E-07 1
vn 0 -1.525879E-07 1
vn 1 0 0
vn 1 0 0
vn 1 0 0
vn 1 0 0
vn 0 0 -1
vn -0.2588189 0 -0.9659258
vn 0 0 -1
vn -0.2588189 0 -0.9659258
vn -0.5000001 0 -0.8660253
vn -0.5000001 0 -0.8660253
vn -0.7071068 0 -0.7071068
vn -0.7071069 0 -0.7071066
vn -0.8660254 0 -0.5
vn -0.8660254 0 -0.4999999
vn -0.9659258 0 -0.258819
vn -0.9659258 0 -0.258819
vn -1 0 1.530917E-07
vn -1 0 1.614639E-07
vn -0.9659257 0 0.2588195
vn -0.9659257 0 0.2588194
vn -0.8660251 0 0.5000005
vn -0.8660251 0 0.5000005
vn -0.7071062 0 0.7071072
vn -0.7071062 0 0.7071073
vn -0.4999993 0 0.8660258
vn -0.4999993 0 0.8660258
vn -0.2588186 0 0.9659259
vn -0.2588186 0 0.9659259
vn 4.688434E-07 0 1
vn 4.461189E-07 0 1
vn 0.2588193 0 0.9659257
vn 0.2588193 0 0.9659257
vn 0.5000002 0 0.8660253
vn 0.5000002 0 0.8660253
vn 0.7071072 0 0.7071062
vn 0.7071071 0 0.7071064
vn 0.8660257 0 0.4999995
vn 0.8660257 0 0.4999995
vn 0.9659259 0 0.2588187
vn 0.9659259 0 0.2588187
vn 1 0 -3.205358E-07
vn 1 0 -2.918311E-07
vn 0.9659257 0 -0.2588193
vn 0.9659257 0 -0.2588194
vn 0.8660253 0 -0.5000002
vn 0.8660253 0 -0.5000002
vn 0.7071068 0 -0.7071068
vn 0.7071068 0 -0.7071068
vn 0.4999999 0 -0.8660255
vn 0.4999999 0 -0.8660255
vn 0.2588187 0 -0.9659258
vn 0.2588187 0 -0.9659258
vn 0 0 -1
vn 0 0 -1
vn 0 -1 0
vn 0 -1 0
vn 0 -1 0
vn 0 -1 0
vn 0 -1 0
vn 0 -1 0
vn 0 -1 0
vn 0 -1 0
vn -6.216707E-07 -1 -2.200823E-07
vn 5.3337E-07 -1 -1.349904E-07
vn 0 -1 -1.470113E-07
vn 0 -1 0
vn 0 -1 0
vn -5.333694E-07 -1 -1.349899E-07
vn 6.216345E-07 -1 -2.200917E-07
vn -5.33298E-07 -1 -1.349854E-07
vn 0 -1 -1.470095E-07
vn 0 -1 0
vn 6.216749E-07 -1 -2.200817E-07
vn 5.33294E-07 -1 -1.349853E-07
vn 0 -1 0
vn -6.216355E-07 -1 -2.200913E-07
vn 0 -1 0
vn 0 -1 0
vn 0 -1 0
vn 0 -1 0
vn 0 -1 0
vn 0 -1 0
vn 6.786616E-07 1 1.853527E-07
vn 0 1 0
vn 0 1 1.527568E-07
vn 0 1 1.693324E-07
vn 0 1 1.197837E-07
vn 6.283624E-07 1 1.231329E-07
vn 1.111616E-07 1 1.111643E-07
vn -1.41087E-07 1 1.935689E-07
vn 0 1 0
vn 0 1 0
vn 0 1 0
vn 0 1 0
vn 0 1 2.243392E-07
vn 0 1 0
vn 0 1 1.024171E-07
vn 0 1 0
vn 0 1 0
vn 0 1 1.693329E-07
vn 0 1 0
vn 0 1 0
vn -1.111672E-07 1 1.111633E-07
vn 0 1 1.024171E-07
vn 0 1 1.197832E-07
vn -6.787416E-07 1 1.853447E-07
vn 0 1 1.527568E-07
vn 0 1 2.243374E-07
vn -6.284343E-07 1 1.231404E-07
vn 1.410971E-07 1 1.935677E-07
g Box_HollowCyl_0
f 3/3/3 2/2/2 1/1/1
f 4/4/4 1/1/1 2/2/2
f 7/7/7 6/6/6 5/5/5
f 8/8/8 5/5/5 6/6/6
f 11/11/11 10/10/10 9/9/9
f 12/12/12 9/9/9 10/10/10
f 15/15/15 14/14/14 13/13/13
f 16/16/16 13/13/13 14/14/14
f 19/19/19 18/18/18 17/17/17
f 20/20/20 17/17/17 18/18/18
f 18/18/18 21/21/21 20/20/20
f 22/22/22 20/20/20 21/21/21
f 21/21/21 23/23/23 22/22/22
f 24/24/24 22/22/22 23/23/23
f 23/23/23 25/25/25 24/24/24
f 26/26/26 24/24/24 25/25/25
f 25/25/25 27/27/27 26/26/26
f 28/28/28 26/26/26 27/27/27
f 27/27/27 29/29/29 28/28/28
f 30/30/30 28/28/28 29/29/29
f 29/29/29 31/31/31 30/30/30
f 32/32/32 30/30/30 31/31/31
f 31/31/31 33/33/33 32/32/32
f 34/34/34 32/32/32 33/33/33
f 33/33/33 35/35/35 34/34/34
f 36/36/36 34/34/34 35/35/35
f 35/35/35 37/37/37 36/36/36
f 38/38/38 36/36/36 37/37/37
f 37/37/37 39/39/39 38/38/38
f 40/40/40 38/38/38 39/39/39
f 39/39/39 41/41/41 40/40/40
f 42/42/42 40/40/40 41/41/41
f 41/41/41 43/43/43 42/42/42
f 44/44/44 42/42/42 43/43/43
f 43/43/43 45/45/45 44/44/44
f 46/46/46 44/44/44 45/45/45
f 45/45/45 47/47/47 46/46/46
f 48/48/48 46/46/46 47/47/47
f 47/47/47 49/49/49 48/48/48
f 50/50/50 48/48/48 49/49/49
f 49/49/49 51/51/51 50/50/50
f 52/52/52 50/50/50 51/51/51
f 51/51/51 53/53/53 52/52/52
f 54/54/54 52/52/52 53/53/53
f 53/53/53 55/55/55 54/54/54
f 56/56/56 54/54/54 55/55/55
f 55/55/55 57/57/57 56/56/56
f 58/58/58 56/56/56 57/57/57
f 57/57/57 59/59/59 58/58/58
f 60/60/60 58/58/58 59/59/59
f 59/59/59 61/61/61 60/60/60
f 62/62/62 60/60/60 61/61/61
f 61/61/61 63/63/63 62/62/62
f 64/64/64 62/62/62 63/63/63
f 63/63/63 65/65/65 64/64/64
f 66/66/66 64/64/64 65/65/65
f 69/69/69 68/68/68 67/67/67
f 68/68/68 69/69/69 70/70/70
f 67/67/67 68/68/68 71/71/71
f 69/69/69 72/72/72 70/70/70
f 71/71/71 68/68/68 73/73/73
f 72/72/72 74/74/74 70/70/70
f 73/73/73 68/68/68 75/75/75
f 75/75/75 68/68/68 76/76/76
f 76/76/76 68/68/68 77/77/77
f 68/68/68 78/78/78 77/77/77
f 74/74/74 79/79/79 70/70/70
f 77/77/77 78/78/78 80/80/80
f 79/79/79 81/81/81 70/70/70
f 81/81/81 82/82/82 70/70/70
f 82/82/82 83/83/83 70/70/70
f 83/83/83 84/84/84 70/70/70
f 80/80/80 78/78/78 85/85/85
f 86/86/86 84/84/84 83/83/83
f 85/85/85 78/78/78 87/87/87
f 88/88/88 84/84/84 86/86/86
f 87/87/87 78/78/78 89/89/89
f 89/89/89 78/78/78 90/90/90
f 90/90/90 78/78/78 91/91/91
f 78/78/78 84/84/84 91/91/91
f 92/92/92 84/84/84 88/88/88
f 91/91/91 84/84/84 93/93/93
f 94/94/94 84/84/84 92/92/92
f 93/93/93 84/84/84 94/94/94
f 97/97/97 96/96/96 95/95/95
f 98/98/98 96/96/96 97/97/97
f 95/95/95 96/96/96 99/99/99
f 97/97/97 100/100/100 98/98/98
f 99/99/99 96/96/96 101/101/101
f 100/100/100 102/102/102 98/98/98
f 101/101/101 96/96/96 103/103/103
f 103/103/103 96/96/96 104/104/104
f 104/104/104 96/96/96 105/105/105
f 96/96/96 106/106/106 105/105/105
f 102/102/102 107/107/107 98/98/98
f 105/105/105 106/106/106 108/108/108
f 107/107/107 109/109/109 98/98/98
f 109/109/109 110/110/110 98/98/98
f 110/110/110 111/111/111 98/98/98
f 111/111/111 112/112/112 98/98/98
f 108/108/108 106/106/106 113/113/113
f 114/114/114 112/112/112 111/111/111
f 113/113/113 106/106/106 115/115/115
f 116/116/116 112/112/112 114/114/114
f 115/115/115 106/106/106 117/117/117
f 117/117/117 106/106/106 118/118/118
f 118/118/118 106/106/106 119/119/119
f 106/106/106 112/112/112 119/119/119
f 120/120/120 112/112/112 116/116/116
f 119/119/119 112/112/112 121/121/121
f 122/122/122 112/112/112 120/120/120
f 121/121/121 112/112/112 122/122/122
