g Bridge-fence
v -0.2156242 0.4599822 -1.367014
v -0.03991731 0.7925321 -1.191307
v -0.2884043 0.4599822 -1.191307
v -0.0399174 0.4599822 -1.439794
v -0.2156241 0.4599822 -1.0156
v 0.1357895 0.4599822 -1.367014
v -0.03991723 0.4599822 -0.9428197
v 0.2085697 0.4599822 -1.191307
v 0.1357896 0.4599822 -1.0156
v 0.1357895 0.459982 1.040759
v -0.03991721 0.7925318 1.216466
v -0.03991729 0.459982 0.967979
v 0.2085698 0.459982 1.216466
v -0.2156241 0.459982 1.040759
v 0.1357896 0.459982 1.392172
v -0.2884043 0.459982 1.216466
v -0.03991713 0.459982 1.464953
v -0.215624 0.459982 1.392172
v 1.442502 0.4599822 -1.367013
v 1.618208 0.7925321 -1.191306
v 1.369722 0.4599822 -1.191306
v 1.618208 0.4599822 -1.439793
v 1.442502 0.4599822 -1.0156
v 1.793916 0.4599822 -1.367013
v 1.618209 0.4599822 -0.9428192
v 1.866696 0.4599822 -1.191306
v 1.793916 0.4599822 -1.0156
v 1.793916 0.4599821 1.040759
v 1.618209 0.7925318 1.216467
v 1.618209 0.4599821 0.9679796
v 1.866696 0.4599821 1.216467
v 1.442502 0.4599821 1.04076
v 1.793916 0.4599821 1.392173
v 1.369722 0.4599821 1.216467
v 1.618209 0.4599821 1.464954
v 1.442502 0.4599821 1.392173
v -1.854566 0.4599822 -1.367014
v -1.678859 0.7925321 -1.191307
v -1.927346 0.4599822 -1.191307
v -1.678859 0.4599822 -1.439794
v -1.854566 0.4599822 -1.015601
v -1.503152 0.4599822 -1.367014
v -1.678859 0.4599822 -0.9428203
v -1.430372 0.4599822 -1.191307
v -1.503152 0.4599822 -1.015601
v -1.503152 0.459982 1.040758
v -1.678859 0.7925318 1.216465
v -1.678859 0.459982 0.9679786
v -1.430372 0.459982 1.216465
v -1.854566 0.459982 1.040759
v -1.503152 0.459982 1.392172
v -1.927346 0.459982 1.216466
v -1.678859 0.459982 1.464952
v -1.854566 0.459982 1.392172
v -0.2156241 -2.497459 1.040759
v -0.03991729 0.459982 0.967979
v -0.2156241 0.459982 1.040759
v -0.03991729 -2.497459 0.967979
v -0.2884043 -2.497459 1.216466
v 0.1357895 0.459982 1.040759
v -0.2884043 0.459982 1.216466
v 0.1357895 -2.497459 1.040759
v -0.215624 -2.497459 1.392172
v 0.2085698 0.459982 1.216466
v -0.215624 0.459982 1.392172
v 0.2085698 -2.497459 1.216466
v -0.03991713 -2.497459 1.464953
v 0.1357896 0.459982 1.392172
v -0.03991713 0.459982 1.464953
v 0.1357896 -2.497459 1.392172
v -0.2156242 -2.497459 -1.367014
v -0.0399174 0.4599822 -1.439794
v -0.2156242 0.4599822 -1.367014
v -0.0399174 -2.497459 -1.439794
v -0.2884043 -2.497459 -1.191307
v 0.1357895 0.4599822 -1.367014
v -0.2884043 0.4599822 -1.191307
v 0.1357895 -2.497459 -1.367014
v -0.2156241 -2.497459 -1.0156
v 0.2085697 0.4599822 -1.191307
v -0.2156241 0.4599822 -1.0156
v 0.2085697 -2.497459 -1.191307
v -0.03991723 -2.497459 -0.9428197
v 0.1357896 0.4599822 -1.0156
v -0.03991723 0.4599822 -0.9428197
v 0.1357896 -2.497459 -1.0156
v 1.442502 -2.497459 1.04076
v 1.618209 0.4599821 0.9679796
v 1.442502 0.4599821 1.04076
v 1.618209 -2.497459 0.9679796
v 1.369722 -2.497459 1.216467
v 1.793916 0.4599821 1.040759
v 1.369722 0.4599821 1.216467
v 1.793916 -2.497459 1.040759
v 1.442502 -2.497459 1.392173
v 1.866696 0.4599821 1.216467
v 1.442502 0.4599821 1.392173
v 1.866696 -2.497459 1.216467
v 1.618209 -2.497459 1.464954
v 1.793916 0.4599821 1.392173
v 1.618209 0.4599821 1.464954
v 1.793916 -2.497459 1.392173
v 1.442502 -2.497459 -1.367013
v 1.618208 0.4599822 -1.439793
v 1.442502 0.4599822 -1.367013
v 1.618208 -2.497459 -1.439793
v 1.369722 -2.497459 -1.191306
v 1.793916 0.4599822 -1.367013
v 1.369722 0.4599822 -1.191306
v 1.793916 -2.497459 -1.367013
v 1.442502 -2.497459 -1.0156
v 1.866696 0.4599822 -1.191306
v 1.442502 0.4599822 -1.0156
v 1.866696 -2.497459 -1.191306
v 1.618209 -2.497459 -0.9428192
v 1.793916 0.4599822 -1.0156
v 1.618209 0.4599822 -0.9428192
v 1.793916 -2.497459 -1.0156
v -1.854566 -2.497459 1.040759
v -1.678859 0.459982 0.9679786
v -1.854566 0.459982 1.040759
v -1.678859 -2.497459 0.9679786
v -1.927346 -2.497459 1.216466
v -1.503152 0.459982 1.040758
v -1.927346 0.459982 1.216466
v -1.503152 -2.497459 1.040758
v -1.854566 -2.497459 1.392172
v -1.430372 0.459982 1.216465
v -1.854566 0.459982 1.392172
v -1.430372 -2.497459 1.216465
v -1.678859 -2.497459 1.464952
v -1.503152 0.459982 1.392172
v -1.678859 0.459982 1.464952
v -1.503152 -2.497459 1.392172
v -1.854566 -2.497459 -1.367014
v -1.678859 0.4599822 -1.439794
v -1.854566 0.4599822 -1.367014
v -1.678859 -2.497459 -1.439794
v -1.927346 -2.497459 -1.191307
v -1.503152 0.4599822 -1.367014
v -1.927346 0.4599822 -1.191307
v -1.503152 -2.497459 -1.367014
v -1.854566 -2.497459 -1.015601
v -1.430372 0.4599822 -1.191307
v -1.854566 0.4599822 -1.015601
v -1.430372 -2.497459 -1.191307
v -1.678859 -2.497459 -0.9428203
v -1.503152 0.4599822 -1.015601
v -1.678859 0.4599822 -0.9428203
v -1.503152 -2.497459 -1.015601
vt 0.671875 0.8496094
vt 0.671875 0.8496094
vt 0.671875 0.8496094
vt 0.671875 0.8496094
vt 0.671875 0.8496094
vt 0.671875 0.8496094
vt 0.671875 0.8496094
vt 0.671875 0.8496094
vt 0.671875 0.8496094
vt 0.671875 0.8496094
vt 0.671875 0.8496094
vt 0.671875 0.8496094
vt 0.671875 0.8496094
vt 0.671875 0.8496094
vt 0.671875 0.8496094
vt 0.671875 0.8496094
vt 0.671875 0.8496094
vt 0.671875 0.8496094
vt 0.671875 0.8496094
vt 0.671875 0.8496094
vt 0.671875 0.8496094
vt 0.671875 0.8496094
vt 0.671875 0.8496094
vt 0.671875 0.8496094
vt 0.671875 0.8496094
vt 0.671875 0.8496094
vt 0.671875 0.8496094
vt 0.671875 0.8496094
vt 0.671875 0.8496094
vt 0.671875 0.8496094
vt 0.671875 0.8496094
vt 0.671875 0.8496094
vt 0.671875 0.8496094
vt 0.671875 0.8496094
vt 0.671875 0.8496094
vt 0.671875 0.8496094
vt 0.671875 0.8496094
vt 0.671875 0.8496094
vt 0.671875 0.8496094
vt 0.671875 0.8496094
vt 0.671875 0.8496094
vt 0.671875 0.8496094
vt 0.671875 0.8496094
vt 0.671875 0.8496094
vt 0.671875 0.8496094
vt 0.671875 0.8496094
vt 0.671875 0.8496094
vt 0.671875 0.8496094
vt 0.671875 0.8496094
vt 0.671875 0.8496094
vt 0.671875 0.8496094
vt 0.671875 0.8496094
vt 0.671875 0.8496094
vt 0.671875 0.8496094
vt 0.7109375 0.7949219
vt 0.7109375 0.7949219
vt 0.7109375 0.7949219
vt 0.7109375 0.7949219
vt 0.7109375 0.7949219
vt 0.7109375 0.7949219
vt 0.7109375 0.7949219
vt 0.7109375 0.7949219
vt 0.7109375 0.7949219
vt 0.7109375 0.7949219
vt 0.7109375 0.7949219
vt 0.7109375 0.7949219
vt 0.7109375 0.7949219
vt 0.7109375 0.7949219
vt 0.7109375 0.7949219
vt 0.7109375 0.7949219
vt 0.7109375 0.7949219
vt 0.7109375 0.7949219
vt 0.7109375 0.7949219
vt 0.7109375 0.7949219
vt 0.7109375 0.7949219
vt 0.7109375 0.7949219
vt 0.7109375 0.7949219
vt 0.7109375 0.7949219
vt 0.7109375 0.7949219
vt 0.7109375 0.7949219
vt 0.7109375 0.7949219
vt 0.7109375 0.7949219
vt 0.7109375 0.7949219
vt 0.7109375 0.7949219
vt 0.7109375 0.7949219
vt 0.7109375 0.7949219
vt 0.7109375 0.7949219
vt 0.7109375 0.7949219
vt 0.7109375 0.7949219
vt 0.7109375 0.7949219
vt 0.7109375 0.7949219
vt 0.7109375 0.7949219
vt 0.7109375 0.7949219
vt 0.7109375 0.7949219
vt 0.7109375 0.7949219
vt 0.7109375 0.7949219
vt 0.7109375 0.7949219
vt 0.7109375 0.7949219
vt 0.7109375 0.7949219
vt 0.7109375 0.7949219
vt 0.7109375 0.7949219
vt 0.7109375 0.7949219
vt 0.7109375 0.7949219
vt 0.7109375 0.7949219
vt 0.7109375 0.7949219
vt 0.7109375 0.7949219
vt 0.7109375 0.7949219
vt 0.7109375 0.7949219
vt 0.7109375 0.7949219
vt 0.7109375 0.7949219
vt 0.7109375 0.7949219
vt 0.7109375 0.7949219
vt 0.7109375 0.7949219
vt 0.7109375 0.7949219
vt 0.7109375 0.7949219
vt 0.7109375 0.7949219
vt 0.7109375 0.7949219
vt 0.7109375 0.7949219
vt 0.7109375 0.7949219
vt 0.7109375 0.7949219
vt 0.7109375 0.7949219
vt 0.7109375 0.7949219
vt 0.7109375 0.7949219
vt 0.7109375 0.7949219
vt 0.7109375 0.7949219
vt 0.7109375 0.7949219
vt 0.7109375 0.7949219
vt 0.7109375 0.7949219
vt 0.7109375 0.7949219
vt 0.7109375 0.7949219
vt 0.7109375 0.7949219
vt 0.7109375 0.7949219
vt 0.7109375 0.7949219
vt 0.7109375 0.7949219
vt 0.7109375 0.7949219
vt 0.7109375 0.7949219
vt 0.7109375 0.7949219
vt 0.7109375 0.7949219
vt 0.7109375 0.7949219
vt 0.7109375 0.7949219
vt 0.7109375 0.7949219
vt 0.7109375 0.7949219
vt 0.7109375 0.7949219
vt 0.7109375 0.7949219
vt 0.7109375 0.7949219
vt 0.7109375 0.7949219
vt 0.7109375 0.7949219
vt 0.7109375 0.7949219
vt 0.7109375 0.7949219
vt 0.7109375 0.7949219
vn -0.5664406 0.5985727 -0.5664412
vn 1.844202E-07 1 -1.134894E-07
vn -0.8010686 0.5985725 4.336125E-07
vn 0 0.5985721 -0.8010689
vn -0.5664417 0.5985719 0.5664412
vn 0.5664407 0.5985724 -0.5664416
vn 0 0.5985725 0.8010687
vn 0.8010688 0.5985724 0
vn 0.5664418 0.598572 0.5664408
vn 0.5664406 0.598573 -0.5664411
vn 0 1 6.454705E-07
vn -1.757887E-07 0.5985727 -0.8010685
vn 0.8010685 0.5985726 3.867355E-07
vn -0.5664409 0.5985727 -0.566441
vn 0.5664418 0.598572 0.5664408
vn -0.8010685 0.5985726 7.148747E-07
vn 0 0.5985726 0.8010687
vn -0.5664416 0.598572 0.5664412
vn -0.5664408 0.5985729 -0.5664409
vn -3.688404E-07 1 4.255851E-07
vn -0.8010691 0.5985718 5.156469E-07
vn -5.156468E-07 0.5985727 -0.8010685
vn -0.5664418 0.5985714 0.5664415
vn 0.5664403 0.5985729 -0.5664415
vn 3.750165E-07 0.5985726 0.8010685
vn 0.8010685 0.5985727 4.21893E-07
vn 0.5664417 0.5985722 0.5664407
vn 0.5664403 0.5985725 -0.5664418
vn 0 1 3.54654E-07
vn -6.562778E-07 0.5985725 -0.8010687
vn 0.8010687 0.5985724 3.63297E-07
vn -0.5664409 0.5985733 -0.5664403
vn 0.5664417 0.5985718 0.5664414
vn -0.8010683 0.598573 2.578235E-07
vn 4.101742E-07 0.5985722 0.8010688
vn -0.5664413 0.5985727 0.5664407
vn -0.5664411 0.5985723 -0.5664411
vn -1.986064E-07 1 2.624442E-07
vn -0.8010686 0.5985725 1.523504E-07
vn -4.218929E-07 0.5985723 -0.8010688
vn -0.5664411 0.5985724 0.5664411
vn 0.5664412 0.5985722 -0.5664412
vn 0 0.598572 0.801069
vn 0.801069 0.598572 1.87508E-07
vn 0.5664417 0.598572 0.5664409
vn 0.5664408 0.5985721 -0.5664418
vn -1.418616E-07 1 -1.844201E-07
vn -9.844167E-07 0.5985721 -0.8010689
vn 0.8010689 0.5985721 1.875081E-07
vn -0.5664415 0.5985721 -0.5664411
vn 0.5664415 0.5985722 0.5664409
vn -0.8010687 0.5985726 0
vn 2.461045E-07 0.5985726 0.8010685
vn -0.5664411 0.5985725 0.5664411
vn -0.7071066 0 -0.7071068
vn 0 0 -1
vn -0.7071066 0 -0.7071068
vn 0 0 -1
vn -1 0 9.6519E-07
vn 0.7071065 0 -0.707107
vn -1 0 9.6519E-07
vn 0.7071065 0 -0.707107
vn -0.707107 0 0.7071065
vn 1 0 4.72327E-07
vn -0.707107 0 0.7071065
vn 1 0 4.72327E-07
vn 0 0 1
vn 0.7071072 0 0.7071062
vn 0 0 1
vn 0.7071072 0 0.7071062
vn -0.7071064 0 -0.7071071
vn 0 0 -1
vn -0.7071064 0 -0.7071071
vn 0 0 -1
vn -1 0 6.571507E-07
vn 0.7071062 0 -0.7071073
vn -1 0 6.571507E-07
vn 0.7071062 0 -0.7071073
vn -0.7071071 0 0.7071065
vn 1 0 1.232158E-07
vn -0.7071071 0 0.7071065
vn 1 0 1.232158E-07
vn 0 0 1
vn 0.7071073 0 0.7071062
vn 0 0 1
vn 0.7071073 0 0.7071062
vn -0.7071068 0 -0.7071068
vn -5.750065E-07 0 -1
vn -0.7071068 0 -0.7071068
vn -5.750065E-07 0 -1
vn -1 0 3.696471E-07
vn 0.7071062 0 -0.7071073
vn -1 0 3.696471E-07
vn 0.7071062 0 -0.7071073
vn -0.7071069 0 0.7071066
vn 1 0 4.723271E-07
vn -0.7071069 0 0.7071066
vn 1 0 4.723271E-07
vn 6.160789E-07 0 1
vn 0.7071071 0 0.7071064
vn 6.160789E-07 0 1
vn 0.7071071 0 0.7071064
vn -0.7071071 0 -0.7071064
vn -7.803658E-07 0 -1
vn -0.7071071 0 -0.7071064
vn -7.803658E-07 0 -1
vn -1 0 1.006262E-06
vn 0.7071066 0 -0.7071069
vn -1 0 1.006262E-06
vn 0.7071066 0 -0.7071069
vn -0.7071072 0 0.7071064
vn 1 0 5.955424E-07
vn -0.7071072 0 0.7071064
vn 1 0 5.955424E-07
vn 0 0 1
vn 0.7071074 0 0.7071061
vn 0 0 1
vn 0.7071074 0 0.7071061
vn -0.7071069 0 -0.7071066
vn -9.035816E-07 0 -1
vn -0.7071069 0 -0.7071066
vn -9.035816E-07 0 -1
vn -1 0 2.669674E-07
vn 0.7071064 0 -0.7071071
vn -1 0 2.669674E-07
vn 0.7071064 0 -0.7071071
vn -0.7071071 0 0.7071065
vn 1 0 3.901831E-07
vn -0.7071071 0 0.7071065
vn 1 0 3.901831E-07
vn 2.669675E-07 0 1
vn 0.7071072 0 0.7071063
vn 2.669675E-07 0 1
vn 0.7071072 0 0.7071063
vn -0.7071066 0 -0.7071069
vn -1.437517E-07 0 -1
vn -0.7071066 0 -0.7071069
vn -1.437517E-07 0 -1
vn -1 0 3.696473E-07
vn 0.7071065 0 -0.707107
vn -1 0 3.696473E-07
vn 0.7071065 0 -0.707107
vn -0.7071066 0 0.7071068
vn 1 0 0
vn -0.7071066 0 0.7071068
vn 1 0 0
vn 2.875035E-07 0 1
vn 0.7071071 0 0.7071064
vn 2.875035E-07 0 1
vn 0.7071071 0 0.7071064
g Bridge-fence_0
f 3/3/3 2/2/2 1/1/1
f 1/1/1 2/2/2 4/4/4
f 5/5/5 2/2/2 3/3/3
f 4/4/4 2/2/2 6/6/6
f 7/7/7 2/2/2 5/5/5
f 6/6/6 2/2/2 8/8/8
f 9/9/9 2/2/2 7/7/7
f 8/8/8 2/2/2 9/9/9
f 12/12/12 11/11/11 10/10/10
f 10/10/10 11/11/11 13/13/13
f 14/14/14 11/11/11 12/12/12
f 13/13/13 11/11/11 15/15/15
f 16/16/16 11/11/11 14/14/14
f 15/15/15 11/11/11 17/17/17
f 18/18/18 11/11/11 16/16/16
f 17/17/17 11/11/11 18/18/18
f 21/21/21 20/20/20 19/19/19
f 19/19/19 20/20/20 22/22/22
f 23/23/23 20/20/20 21/21/21
f 22/22/22 20/20/20 24/24/24
f 25/25/25 20/20/20 23/23/23
f 24/24/24 20/20/20 26/26/26
f 27/27/27 20/20/20 25/25/25
f 26/26/26 20/20/20 27/27/27
f 30/30/30 29/29/29 28/28/28
f 28/28/28 29/29/29 31/31/31
f 32/32/32 29/29/29 30/30/30
f 31/31/31 29/29/29 33/33/33
f 34/34/34 29/29/29 32/32/32
f 33/33/33 29/29/29 35/35/35
f 36/36/36 29/29/29 34/34/34
f 35/35/35 29/29/29 36/36/36
f 39/39/39 38/38/38 37/37/37
f 37/37/37 38/38/38 40/40/40
f 41/41/41 38/38/38 39/39/39
f 40/40/40 38/38/38 42/42/42
f 43/43/43 38/38/38 41/41/41
f 42/42/42 38/38/38 44/44/44
f 45/45/45 38/38/38 43/43/43
f 44/44/44 38/38/38 45/45/45
f 48/48/48 47/47/47 46/46/46
f 46/46/46 47/47/47 49/49/49
f 50/50/50 47/47/47 48/48/48
f 49/49/49 47/47/47 51/51/51
f 52/52/52 47/47/47 50/50/50
f 51/51/51 47/47/47 53/53/53
f 54/54/54 47/47/47 52/52/52
f 53/53/53 47/47/47 54/54/54
f 57/57/57 56/56/56 55/55/55
f 56/56/56 58/58/58 55/55/55
f 57/57/57 55/55/55 59/59/59
f 56/56/56 60/60/60 58/58/58
f 61/61/61 57/57/57 59/59/59
f 60/60/60 62/62/62 58/58/58
f 61/61/61 59/59/59 63/63/63
f 60/60/60 64/64/64 62/62/62
f 65/65/65 61/61/61 63/63/63
f 64/64/64 66/66/66 62/62/62
f 65/65/65 63/63/63 67/67/67
f 64/64/64 68/68/68 66/66/66
f 69/69/69 65/65/65 67/67/67
f 68/68/68 70/70/70 66/66/66
f 69/69/69 67/67/67 70/70/70
f 68/68/68 69/69/69 70/70/70
f 73/73/73 72/72/72 71/71/71
f 72/72/72 74/74/74 71/71/71
f 73/73/73 71/71/71 75/75/75
f 72/72/72 76/76/76 74/74/74
f 77/77/77 73/73/73 75/75/75
f 76/76/76 78/78/78 74/74/74
f 77/77/77 75/75/75 79/79/79
f 76/76/76 80/80/80 78/78/78
f 81/81/81 77/77/77 79/79/79
f 80/80/80 82/82/82 78/78/78
f 81/81/81 79/79/79 83/83/83
f 80/80/80 84/84/84 82/82/82
f 85/85/85 81/81/81 83/83/83
f 84/84/84 86/86/86 82/82/82
f 85/85/85 83/83/83 86/86/86
f 84/84/84 85/85/85 86/86/86
f 89/89/89 88/88/88 87/87/87
f 88/88/88 90/90/90 87/87/87
f 89/89/89 87/87/87 91/91/91
f 88/88/88 92/92/92 90/90/90
f 93/93/93 89/89/89 91/91/91
f 92/92/92 94/94/94 90/90/90
f 93/93/93 91/91/91 95/95/95
f 92/92/92 96/96/96 94/94/94
f 97/97/97 93/93/93 95/95/95
f 96/96/96 98/98/98 94/94/94
f 97/97/97 95/95/95 99/99/99
f 96/96/96 100/100/100 98/98/98
f 101/101/101 97/97/97 99/99/99
f 100/100/100 102/102/102 98/98/98
f 101/101/101 99/99/99 102/102/102
f 100/100/100 101/101/101 102/102/102
f 105/105/105 104/104/104 103/103/103
f 104/104/104 106/106/106 103/103/103
f 105/105/105 103/103/103 107/107/107
f 104/104/104 108/108/108 106/106/106
f 109/109/109 105/105/105 107/107/107
f 108/108/108 110/110/110 106/106/106
f 109/109/109 107/107/107 111/111/111
f 108/108/108 112/112/112 110/110/110
f 113/113/113 109/109/109 111/111/111
f 112/112/112 114/114/114 110/110/110
f 113/113/113 111/111/111 115/115/115
f 112/112/112 116/116/116 114/114/114
f 117/117/117 113/113/113 115/115/115
f 116/116/116 118/118/118 114/114/114
f 117/117/117 115/115/115 118/118/118
f 116/116/116 117/117/117 118/118/118
f 121/121/121 120/120/120 119/119/119
f 120/120/120 122/122/122 119/119/119
f 121/121/121 119/119/119 123/123/123
f 120/120/120 124/124/124 122/122/122
f 125/125/125 121/121/121 123/123/123
f 124/124/124 126/126/126 122/122/122
f 125/125/125 123/123/123 127/127/127
f 124/124/124 128/128/128 126/126/126
f 129/129/129 125/125/125 127/127/127
f 128/128/128 130/130/130 126/126/126
f 129/129/129 127/127/127 131/131/131
f 128/128/128 132/132/132 130/130/130
f 133/133/133 129/129/129 131/131/131
f 132/132/132 134/134/134 130/130/130
f 133/133/133 131/131/131 134/134/134
f 132/132/132 133/133/133 134/134/134
f 137/137/137 136/136/136 135/135/135
f 136/136/136 138/138/138 135/135/135
f 137/137/137 135/135/135 139/139/139
f 136/136/136 140/140/140 138/138/138
f 141/141/141 137/137/137 139/139/139
f 140/140/140 142/142/142 138/138/138
f 141/141/141 139/139/139 143/143/143
f 140/140/140 144/144/144 142/142/142
f 145/145/145 141/141/141 143/143/143
f 144/144/144 146/146/146 142/142/142
f 145/145/145 143/143/143 147/147/147
f 144/144/144 148/148/148 146/146/146
f 149/149/149 145/145/145 147/147/147
f 148/148/148 150/150/150 146/146/146
f 149/149/149 147/147/147 150/150/150
f 148/148/148 149/149/149 150/150/150
