g Bridge-base
v 1.902256 -1.057982E-06 1.084687
v 1.902256 -1.057982E-06 -1.084687
v 2.962241 -1.060996E-06 -1.084687
v 2.962241 -1.060996E-06 1.084687
v 1.902256 -1.057982E-06 1.208779
v 2.962241 -1.060996E-06 1.208779
v -3.02925 -1.057982E-06 1.084687
v -3.02925 -1.060996E-06 -1.148794
v -1.96235 -1.057982E-06 -1.148794
v -1.96235 -1.057982E-06 1.084687
v -0.6741467 -1.057982E-06 -1.148794
v -0.6741467 -1.057982E-06 -1.199163
v 0.6140547 -1.057982E-06 -1.199163
v 0.6140546 -1.057982E-06 -1.084687
v -0.674148 -1.057982E-06 1.084687
v 0.6140546 -1.057982E-06 1.084687
v -1.96235 -1.057982E-06 1.084687
v -1.96235 -1.057982E-06 -1.148794
v -0.6741467 -1.057982E-06 -1.148794
v -0.674148 -1.057982E-06 1.084687
v -1.96235 -1.057982E-06 1.191913
v -0.674148 -1.057982E-06 1.191913
v 0.6140546 -1.057982E-06 1.084687
v 0.6140546 -1.057982E-06 -1.084687
v 1.902256 -1.057982E-06 -1.084687
v 1.902256 -1.057982E-06 1.084687
v 0.6140547 -1.057982E-06 -1.199163
v -0.6741467 -1.057982E-06 -1.199163
v -0.6741467 -0.2145726 -1.199163
v 0.6140547 -0.2145726 -1.199163
v -0.674148 -1.057982E-06 1.084687
v 0.6140546 -1.057982E-06 1.084687
v 0.6140546 -0.2145726 1.084687
v -0.674148 -0.2145726 1.084687
v -3.02925 -1.057982E-06 1.084687
v -1.96235 -1.057982E-06 1.084687
v -1.96235 -0.2145726 1.084687
v -3.02925 -0.2145726 1.084687
v -4.096151 -1.060996E-06 1.084687
v -4.096151 -0.2145726 1.084687
v 1.902256 -1.057982E-06 1.208779
v 2.962241 -1.060996E-06 1.208779
v 2.962241 -0.2145726 1.208779
v 1.902256 -0.2145726 1.208779
v -1.96235 -1.057982E-06 -1.148794
v -3.02925 -0.2145726 -1.148794
v -1.96235 -0.2145726 -1.148794
v -3.02925 -1.060996E-06 -1.148794
v -4.096151 -0.2145726 -1.148794
v -4.096151 -1.060996E-06 -1.148794
v 0.6140546 -1.057982E-06 1.084687
v 1.902256 -1.057982E-06 1.084687
v 1.902256 -0.2145726 1.084687
v 0.6140546 -0.2145726 1.084687
v 1.902256 -1.057982E-06 -1.084687
v 0.6140546 -1.057982E-06 -1.084687
v 0.6140546 -0.2145726 -1.084687
v 1.902256 -0.2145726 -1.084687
v 2.962241 -1.060996E-06 1.208779
v 2.962241 -1.060996E-06 1.084687
v 2.962241 -0.2145726 1.084687
v 2.962241 -0.2145726 1.208779
v -1.96235 -1.057982E-06 1.084687
v -1.96235 -1.057982E-06 1.191913
v -1.96235 -0.2145726 1.191913
v -1.96235 -0.2145726 1.084687
v -0.6741467 -1.057982E-06 -1.199163
v -0.6741467 -1.057982E-06 -1.148794
v -0.6741467 -0.2145726 -1.148794
v -0.6741467 -0.2145726 -1.199163
v 2.962241 -1.060996E-06 -1.084687
v 1.902256 -1.057982E-06 -1.084687
v 1.902256 -0.2145726 -1.084687
v 2.962241 -0.2145726 -1.084687
v -1.96235 -1.057982E-06 1.191913
v -0.674148 -1.057982E-06 1.191913
v -0.674148 -0.2145726 1.191913
v -1.96235 -0.2145726 1.191913
v -0.6741467 -1.057982E-06 -1.148794
v -1.96235 -1.057982E-06 -1.148794
v -1.96235 -0.2145726 -1.148794
v -0.6741467 -0.2145726 -1.148794
v 1.902256 -1.057982E-06 1.084687
v 1.902256 -1.057982E-06 1.208779
v 1.902256 -0.2145726 1.208779
v 1.902256 -0.2145726 1.084687
v 0.6140546 -1.057982E-06 -1.084687
v 0.6140547 -1.057982E-06 -1.199163
v 0.6140547 -0.2145726 -1.199163
v 0.6140546 -0.2145726 -1.084687
v -0.674148 -1.057982E-06 1.191913
v -0.674148 -1.057982E-06 1.084687
v -0.674148 -0.2145726 1.084687
v -0.674148 -0.2145726 1.191913
v -4.096151 -1.060996E-06 1.084687
v -4.096151 -1.060996E-06 -1.148794
v -3.02925 -1.060996E-06 -1.148794
v -3.02925 -1.057982E-06 1.084687
v -4.096151 -1.060996E-06 -1.148794
v -4.096151 -1.060996E-06 1.084687
v -4.096151 -0.2145726 1.084687
v -4.096151 -0.2145726 -1.148794
v 2.962241 -1.060996E-06 1.084687
v 2.962241 -1.060996E-06 -1.148794
v 4.029142 -1.060996E-06 -1.148794
v 4.029142 -1.057982E-06 1.084687
v 2.962241 -1.060996E-06 1.084687
v 4.029142 -1.057982E-06 1.084687
v 4.029142 -0.2145726 1.084687
v 2.962241 -0.2145726 1.084687
v 4.029142 -1.060996E-06 -1.148794
v 2.962241 -1.060996E-06 -1.148794
v 2.962241 -0.2145726 -1.148794
v 4.029142 -0.2145726 -1.148794
v 4.029142 -1.057982E-06 1.084687
v 4.029142 -1.060996E-06 -1.148794
v 4.029142 -0.2145726 -1.148794
v 4.029142 -0.2145726 1.084687
vt 0.7666826 0.8392708
vt 0.7666826 0.8392708
vt 0.7666826 0.8392708
vt 0.7666826 0.8392708
vt 0.7666826 0.8392708
vt 0.7666826 0.8392708
vt 0.7666826 0.8392708
vt 0.7666826 0.8392708
vt 0.7666826 0.8392708
vt 0.7666826 0.8392708
vt 0.7666826 0.8392708
vt 0.7666826 0.8392708
vt 0.7666826 0.8392708
vt 0.7666826 0.8392708
vt 0.7666826 0.8392708
vt 0.7666826 0.8392708
vt 0.7768333 0.8145897
vt 0.7768333 0.8145897
vt 0.7768333 0.8145897
vt 0.7768333 0.8145897
vt 0.7768333 0.8145897
vt 0.7768333 0.8145897
vt 0.7768333 0.8145897
vt 0.7768333 0.8145897
vt 0.7768333 0.8145897
vt 0.7768333 0.8145897
vt 0.7666826 0.8392708
vt 0.7666826 0.8392708
vt 0.7666826 0.8392708
vt 0.7666826 0.8392708
vt 0.7666826 0.8392708
vt 0.7666826 0.8392708
vt 0.7666826 0.8392708
vt 0.7666826 0.8392708
vt 0.7666826 0.8392708
vt 0.7666826 0.8392708
vt 0.7666826 0.8392708
vt 0.7666826 0.8392708
vt 0.7666826 0.8392708
vt 0.7666826 0.8392708
vt 0.7666826 0.8392708
vt 0.7666826 0.8392708
vt 0.7666826 0.8392708
vt 0.7666826 0.8392708
vt 0.7666826 0.8392708
vt 0.7666826 0.8392708
vt 0.7666826 0.8392708
vt 0.7666826 0.8392708
vt 0.7666826 0.8392708
vt 0.7666826 0.8392708
vt 0.7768333 0.8145897
vt 0.7768333 0.8145897
vt 0.7768333 0.8145897
vt 0.7768333 0.8145897
vt 0.7768333 0.8145897
vt 0.7768333 0.8145897
vt 0.7768333 0.8145897
vt 0.7768333 0.8145897
vt 0.7666826 0.8392708
vt 0.7666826 0.8392708
vt 0.7666826 0.8392708
vt 0.7666826 0.8392708
vt 0.7768333 0.8145897
vt 0.7768333 0.8145897
vt 0.7768333 0.8145897
vt 0.7768333 0.8145897
vt 0.7666826 0.8392708
vt 0.7666826 0.8392708
vt 0.7666826 0.8392708
vt 0.7666826 0.8392708
vt 0.7666826 0.8392708
vt 0.7666826 0.8392708
vt 0.7666826 0.8392708
vt 0.7666826 0.8392708
vt 0.7768333 0.8145897
vt 0.7768333 0.8145897
vt 0.7768333 0.8145897
vt 0.7768333 0.8145897
vt 0.7768333 0.8145897
vt 0.7768333 0.8145897
vt 0.7768333 0.8145897
vt 0.7768333 0.8145897
vt 0.7666826 0.8392708
vt 0.7666826 0.8392708
vt 0.7666826 0.8392708
vt 0.7666826 0.8392708
vt 0.7666826 0.8392708
vt 0.7666826 0.8392708
vt 0.7666826 0.8392708
vt 0.7666826 0.8392708
vt 0.7768333 0.8145897
vt 0.7768333 0.8145897
vt 0.7768333 0.8145897
vt 0.7768333 0.8145897
vt 0.7764482 0.8002083
vt 0.7764482 0.8002083
vt 0.7764482 0.8002083
vt 0.7764482 0.8002083
vt 0.7666826 0.8392708
vt 0.7666826 0.8392708
vt 0.7666826 0.8392708
vt 0.7666826 0.8392708
vt 0.7764482 0.8002083
vt 0.7764482 0.8002083
vt 0.7764482 0.8002083
vt 0.7764482 0.8002083
vt 0.7666826 0.8392708
vt 0.7666826 0.8392708
vt 0.7666826 0.8392708
vt 0.7666826 0.8392708
vt 0.7666826 0.8392708
vt 0.7666826 0.8392708
vt 0.7666826 0.8392708
vt 0.7666826 0.8392708
vt 0.7735185 0.8177865
vt 0.7735185 0.8177865
vt 0.7735185 0.8177865
vt 0.7735185 0.8177865
vn 0 1 0
vn 0 1 0
vn 0 1 0
vn 0 1 0
vn 0 1 0
vn 0 1 0
vn 0 1 0
vn 0 1 0
vn 0 1 0
vn 0 1 0
vn 0 1 0
vn 0 1 0
vn 0 1 0
vn 0 1 0
vn 0 1 0
vn 0 1 0
vn 0 1 0
vn 0 1 0
vn 0 1 0
vn 0 1 0
vn 0 1 0
vn 0 1 0
vn 0 1 0
vn 0 1 0
vn 0 1 0
vn 0 1 0
vn 0 0 -1
vn 0 0 -1
vn 0 0 -1
vn 0 0 -1
vn 0 0 1
vn 0 0 1
vn 0 0 1
vn 0 0 1
vn 0 0 1
vn 0 0 1
vn 0 0 1
vn 0 0 1
vn -1.117342E-07 0 1
vn -1.117342E-07 0 1
vn 0 0 1
vn 0 0 1
vn 0 0 1
vn 0 0 1
vn 1.859373E-07 -5.207316E-07 -1
vn 2.793355E-07 -1.562195E-06 -1
vn 1.859373E-07 -5.207316E-07 -1
vn 2.793355E-07 -1.562195E-06 -1
vn 2.793356E-07 -2.082927E-06 -1
vn 2.793356E-07 -2.082927E-06 -1
vn 0 0 1
vn 0 0 1
vn 0 0 1
vn 0 0 1
vn 0 0 -1
vn 0 0 -1
vn 0 0 -1
vn 0 0 -1
vn 1 0 0
vn 1 0 0
vn 1 0 0
vn 1 0 0
vn -1 0 0
vn -1 0 0
vn -1 0 0
vn -1 0 0
vn -1 0 0
vn -1 0 0
vn -1 0 0
vn -1 0 0
vn 0 0 -1
vn 0 0 -1
vn 0 0 -1
vn 0 0 -1
vn 0 0 1
vn 0 0 1
vn 0 0 1
vn 0 0 1
vn 0 0 -1
vn 1.859373E-07 -5.207316E-07 -1
vn 1.859373E-07 -5.207316E-07 -1
vn 0 0 -1
vn -1 0 3.357812E-06
vn -1 0 3.357812E-06
vn -1 0 3.357812E-06
vn -1 0 3.357812E-06
vn 1 0 1.213289E-06
vn 1 0 1.213289E-06
vn 1 0 1.213289E-06
vn 1 0 1.213289E-06
vn 1 0 0
vn 1 0 0
vn 1 0 0
vn 1 0 0
vn 0 1 0
vn 0 1 0
vn 0 1 0
vn 0 1 0
vn -1 0 0
vn -1 0 0
vn -1 0 0
vn -1 0 0
vn 0 1 0
vn 0 1 0
vn 0 1 0
vn 0 1 0
vn -1.117342E-07 0 1
vn -1.117342E-07 0 1
vn -1.117342E-07 0 1
vn -1.117342E-07 0 1
vn 2.793354E-07 -1.562195E-06 -1
vn 2.793354E-07 -1.562195E-06 -1
vn 2.793354E-07 -1.562195E-06 -1
vn 2.793354E-07 -1.562195E-06 -1
vn 1 0 0
vn 1 0 0
vn 1 0 0
vn 1 0 0
g Bridge-base_0
f 3/3/3 2/2/2 1/1/1
f 1/1/1 4/4/4 3/3/3
f 1/1/1 5/5/5 4/4/4
f 5/5/5 6/6/6 4/4/4
f 9/9/9 8/8/8 7/7/7
f 10/10/10 9/9/9 7/7/7
f 13/13/13 12/12/12 11/11/11
f 11/11/11 14/14/14 13/13/13
f 11/11/11 15/15/15 14/14/14
f 15/15/15 16/16/16 14/14/14
f 19/19/19 18/18/18 17/17/17
f 17/17/17 20/20/20 19/19/19
f 17/17/17 21/21/21 20/20/20
f 21/21/21 22/22/22 20/20/20
f 25/25/25 24/24/24 23/23/23
f 26/26/26 25/25/25 23/23/23
f 29/29/29 28/28/28 27/27/27
f 30/30/30 29/29/29 27/27/27
f 33/33/33 32/32/32 31/31/31
f 34/34/34 33/33/33 31/31/31
f 37/37/37 36/36/36 35/35/35
f 38/38/38 37/37/37 35/35/35
f 38/38/38 35/35/35 39/39/39
f 40/40/40 38/38/38 39/39/39
f 43/43/43 42/42/42 41/41/41
f 44/44/44 43/43/43 41/41/41
f 47/47/47 46/46/46 45/45/45
f 46/46/46 48/48/48 45/45/45
f 46/46/46 49/49/49 48/48/48
f 49/49/49 50/50/50 48/48/48
f 53/53/53 52/52/52 51/51/51
f 54/54/54 53/53/53 51/51/51
f 57/57/57 56/56/56 55/55/55
f 58/58/58 57/57/57 55/55/55
f 61/61/61 60/60/60 59/59/59
f 62/62/62 61/61/61 59/59/59
f 65/65/65 64/64/64 63/63/63
f 66/66/66 65/65/65 63/63/63
f 69/69/69 68/68/68 67/67/67
f 70/70/70 69/69/69 67/67/67
f 73/73/73 72/72/72 71/71/71
f 74/74/74 73/73/73 71/71/71
f 77/77/77 76/76/76 75/75/75
f 78/78/78 77/77/77 75/75/75
f 81/81/81 80/80/80 79/79/79
f 82/82/82 81/81/81 79/79/79
f 85/85/85 84/84/84 83/83/83
f 86/86/86 85/85/85 83/83/83
f 89/89/89 88/88/88 87/87/87
f 90/90/90 89/89/89 87/87/87
f 93/93/93 92/92/92 91/91/91
f 94/94/94 93/93/93 91/91/91
f 97/97/97 96/96/96 95/95/95
f 98/98/98 97/97/97 95/95/95
f 101/101/101 100/100/100 99/99/99
f 102/102/102 101/101/101 99/99/99
f 105/105/105 104/104/104 103/103/103
f 106/106/106 105/105/105 103/103/103
f 109/109/109 108/108/108 107/107/107
f 110/110/110 109/109/109 107/107/107
f 113/113/113 112/112/112 111/111/111
f 114/114/114 113/113/113 111/111/111
f 117/117/117 116/116/116 115/115/115
f 118/118/118 117/117/117 115/115/115
