g Cannon_Mesh03
v -0.5 -0.3 0.6
v -0.4375 -0.15 0.5375
v -0.375 0 0.475
v -0.3125 0.15 0.4125
v -0.25 0.3 0.35
v 0 -0.3 0.6
v 0 -0.15 0.5375
v 0 0 0.475
v 0 0.15 0.4125
v 0 0.3 0.35
v 0.5 -0.3 0.6
v 0.4375 -0.15 0.5375
v 0.375 0 0.475
v 0.3125 0.15 0.4125
v 0.25 0.3 0.35
v 0.5 -0.3 -0.6
v 0.4375 -0.15 -0.5375
v 0.375 0 -0.475
v 0.3125 0.15 -0.4125
v 0.25 0.3 -0.35
v 0 -0.3 -0.6
v 0 -0.15 -0.5375
v 0 0 -0.475
v 0 0.15 -0.4125
v 0 0.3 -0.35
v -0.5 -0.3 -0.6
v -0.4375 -0.15 -0.5375
v -0.375 0 -0.475
v -0.3125 0.15 -0.4125
v -0.25 0.3 -0.35
v 0.5 -0.3 0.6
v 0.4375 -0.15 0.5375
v 0.375 0 0.475
v 0.3125 0.15 0.4125
v 0.25 0.3 0.35
v 0.5 -0.3 0
v 0.4375 -0.15 0
v 0.375 0 0
v 0.3125 0.15 0
v 0.25 0.3 0
v 0.5 -0.3 -0.6
v 0.4375 -0.15 -0.5375
v 0.375 0 -0.475
v 0.3125 0.15 -0.4125
v 0.25 0.3 -0.35
v -0.5 -0.3 -0.6
v -0.4375 -0.15 -0.5375
v -0.375 0 -0.475
v -0.3125 0.15 -0.4125
v -0.25 0.3 -0.35
v -0.5 -0.3 0
v -0.4375 -0.15 0
v -0.375 0 0
v -0.3125 0.15 0
v -0.25 0.3 0
v -0.5 -0.3 0.6
v -0.4375 -0.15 0.5375
v -0.375 0 0.475
v -0.3125 0.15 0.4125
v -0.25 0.3 0.35
v 0.25 0.3 -0.35
v 0.25 0.3 0
v 0.25 0.3 0.35
v 0 0.3 -0.35
v 0 0.3 0
v 0 0.3 0.35
v -0.25 0.3 -0.35
v -0.25 0.3 0
v -0.25 0.3 0.35
v -0.5 -0.3 -0.6
v -0.5 -0.3 0
v -0.5 -0.3 0.6
v 0 -0.3 -0.6
v 0 -0.3 0
v 0 -0.3 0.6
v 0.5 -0.3 -0.6
v 0.5 -0.3 0
v 0.5 -0.3 0.6
vt 0 -1
vt 0 -0.75
vt 0 -0.5
vt 0 -0.25
vt 0 0
vt 0.5 -1
vt 0.5 -0.75
vt 0.5 -0.5
vt 0.5 -0.25
vt 0.5 0
vt 1 -1
vt 1 -0.75
vt 1 -0.5
vt 1 -0.25
vt 1 0
vt 0 -1
vt 0 -0.75
vt 0 -0.5
vt 0 -0.25
vt 0 0
vt 0.5 -1
vt 0.5 -0.75
vt 0.5 -0.5
vt 0.5 -0.25
vt 0.5 0
vt 1 -1
vt 1 -0.75
vt 1 -0.5
vt 1 -0.25
vt 1 0
vt 0 -1
vt 0 -0.75
vt 0 -0.5
vt 0 -0.25
vt 0 0
vt 0.5 -1
vt 0.5 -0.75
vt 0.5 -0.5
vt 0.5 -0.25
vt 0.5 0
vt 1 -1
vt 1 -0.75
vt 1 -0.5
vt 1 -0.25
vt 1 0
vt 0 -1
vt 0 -0.75
vt 0 -0.5
vt 0 -0.25
vt 0 0
vt 0.5 -1
vt 0.5 -0.75
vt 0.5 -0.5
vt 0.5 -0.25
vt 0.5 0
vt 1 -1
vt 1 -0.75
vt 1 -0.5
vt 1 -0.25
vt 1 0
vt 0 0
vt 0 0.5
vt 0 1
vt 0.5 0
vt 0.5 0.5
vt 0.5 1
vt 1 0
vt 1 0.5
vt 1 1
vt 0 0
vt 0 0.5
vt 0 1
vt 0.5 0
vt 0.5 0.5
vt 0.5 1
vt 1 0
vt 1 0.5
vt 1 1
vn 0 0.3846154 0.9230769
vn 0 0.3846154 0.9230769
vn 0 0.3846154 0.9230769
vn 0 0.3846154 0.9230769
vn 0 0.3846154 0.9230769
vn 0 0.3846154 0.9230769
vn 0 0.3846154 0.9230769
vn 0 0.3846154 0.9230769
vn 0 0.3846154 0.9230769
vn 0 0.3846154 0.9230769
vn 0 0.3846154 0.9230769
vn 0 0.3846154 0.9230769
vn 0 0.3846154 0.9230769
vn 0 0.3846154 0.9230769
vn 0 0.3846154 0.9230769
vn 0 0.3846154 -0.9230769
vn 0 0.3846154 -0.9230769
vn 0 0.3846154 -0.9230769
vn 0 0.3846154 -0.9230769
vn 0 0.3846154 -0.9230769
vn 0 0.3846154 -0.9230769
vn 0 0.3846154 -0.9230769
vn 0 0.3846154 -0.9230769
vn 0 0.3846154 -0.9230769
vn 0 0.3846154 -0.9230769
vn 0 0.3846154 -0.9230769
vn 0 0.3846154 -0.9230769
vn 0 0.3846154 -0.9230769
vn 0 0.3846154 -0.9230769
vn 0 0.3846154 -0.9230769
vn 0.9230769 0.3846154 0
vn 0.9230769 0.3846154 0
vn 0.9230769 0.3846154 0
vn 0.9230769 0.3846154 0
vn 0.9230769 0.3846154 0
vn 0.9230769 0.3846154 0
vn 0.9230769 0.3846154 0
vn 0.9230769 0.3846154 0
vn 0.9230769 0.3846154 0
vn 0.9230769 0.3846154 0
vn 0.9230769 0.3846154 0
vn 0.9230769 0.3846154 0
vn 0.9230769 0.3846154 0
vn 0.9230769 0.3846154 0
vn 0.9230769 0.3846154 0
vn -0.9230769 0.3846154 0
vn -0.9230769 0.3846154 0
vn -0.9230769 0.3846154 0
vn -0.9230769 0.3846154 0
vn -0.9230769 0.3846154 0
vn -0.9230769 0.3846154 0
vn -0.9230769 0.3846154 0
vn -0.9230769 0.3846154 0
vn -0.9230769 0.3846154 0
vn -0.9230769 0.3846154 0
vn -0.9230769 0.3846154 0
vn -0.9230769 0.3846154 0
vn -0.9230769 0.3846154 0
vn -0.9230769 0.3846154 0
vn -0.9230769 0.3846154 0
vn 0 1 0
vn 0 1 0
vn 0 1 0
vn 0 1 0
vn 0 1 0
vn 0 1 0
vn 0 1 0
vn 0 1 0
vn 0 1 0
vn 0 -1 0
vn 0 -1 0
vn 0 -1 0
vn 0 -1 0
vn 0 -1 0
vn 0 -1 0
vn 0 -1 0
vn 0 -1 0
vn 0 -1 0
g Cannon_Mesh03_0
f 7/7/7 2/2/2 1/1/1
f 1/1/1 6/6/6 7/7/7
f 8/8/8 3/3/3 2/2/2
f 2/2/2 7/7/7 8/8/8
f 9/9/9 4/4/4 3/3/3
f 3/3/3 8/8/8 9/9/9
f 10/10/10 5/5/5 4/4/4
f 4/4/4 9/9/9 10/10/10
f 12/12/12 7/7/7 6/6/6
f 6/6/6 11/11/11 12/12/12
f 13/13/13 8/8/8 7/7/7
f 7/7/7 12/12/12 13/13/13
f 14/14/14 9/9/9 8/8/8
f 8/8/8 13/13/13 14/14/14
f 15/15/15 10/10/10 9/9/9
f 9/9/9 14/14/14 15/15/15
f 22/22/22 17/17/17 16/16/16
f 16/16/16 21/21/21 22/22/22
f 23/23/23 18/18/18 17/17/17
f 17/17/17 22/22/22 23/23/23
f 24/24/24 19/19/19 18/18/18
f 18/18/18 23/23/23 24/24/24
f 25/25/25 20/20/20 19/19/19
f 19/19/19 24/24/24 25/25/25
f 27/27/27 22/22/22 21/21/21
f 21/21/21 26/26/26 27/27/27
f 28/28/28 23/23/23 22/22/22
f 22/22/22 27/27/27 28/28/28
f 29/29/29 24/24/24 23/23/23
f 23/23/23 28/28/28 29/29/29
f 30/30/30 25/25/25 24/24/24
f 24/24/24 29/29/29 30/30/30
f 37/37/37 32/32/32 31/31/31
f 31/31/31 36/36/36 37/37/37
f 38/38/38 33/33/33 32/32/32
f 32/32/32 37/37/37 38/38/38
f 39/39/39 34/34/34 33/33/33
f 33/33/33 38/38/38 39/39/39
f 40/40/40 35/35/35 34/34/34
f 34/34/34 39/39/39 40/40/40
f 42/42/42 37/37/37 36/36/36
f 36/36/36 41/41/41 42/42/42
f 43/43/43 38/38/38 37/37/37
f 37/37/37 42/42/42 43/43/43
f 44/44/44 39/39/39 38/38/38
f 38/38/38 43/43/43 44/44/44
f 45/45/45 40/40/40 39/39/39
f 39/39/39 44/44/44 45/45/45
f 52/52/52 47/47/47 46/46/46
f 46/46/46 51/51/51 52/52/52
f 53/53/53 48/48/48 47/47/47
f 47/47/47 52/52/52 53/53/53
f 54/54/54 49/49/49 48/48/48
f 48/48/48 53/53/53 54/54/54
f 55/55/55 50/50/50 49/49/49
f 49/49/49 54/54/54 55/55/55
f 57/57/57 52/52/52 51/51/51
f 51/51/51 56/56/56 57/57/57
f 58/58/58 53/53/53 52/52/52
f 52/52/52 57/57/57 58/58/58
f 59/59/59 54/54/54 53/53/53
f 53/53/53 58/58/58 59/59/59
f 60/60/60 55/55/55 54/54/54
f 54/54/54 59/59/59 60/60/60
f 65/65/65 62/62/62 61/61/61
f 61/61/61 64/64/64 65/65/65
f 66/66/66 63/63/63 62/62/62
f 62/62/62 65/65/65 66/66/66
f 68/68/68 65/65/65 64/64/64
f 64/64/64 67/67/67 68/68/68
f 69/69/69 66/66/66 65/65/65
f 65/65/65 68/68/68 69/69/69
f 74/74/74 71/71/71 70/70/70
f 70/70/70 73/73/73 74/74/74
f 75/75/75 72/72/72 71/71/71
f 71/71/71 74/74/74 75/75/75
f 77/77/77 74/74/74 73/73/73
f 73/73/73 76/76/76 77/77/77
f 78/78/78 75/75/75 74/74/74
f 74/74/74 77/77/77 78/78/78
