g Cannon_Mesh02
v 0 -0.6 0
v 2.007315E-08 -0.5543277 -0.2296101
v 3.709035E-08 -0.4242641 -0.4242641
v 4.846087E-08 -0.2296101 -0.5543277
v 5.245367E-08 2.622683E-08 -0.6
v 4.846087E-08 0.2296101 -0.5543277
v 3.709035E-08 0.4242641 -0.4242641
v 2.007314E-08 0.5543278 -0.22961
v -4.585645E-15 0.6 5.245367E-08
v 0 -0.6 0
v 0.04479474 -0.5543277 -0.2251982
v 0.08276989 -0.4242641 -0.4161119
v 0.1081441 -0.2296101 -0.5436764
v 0.1170543 2.622683E-08 -0.5884712
v 0.1081441 0.2296101 -0.5436764
v 0.08276989 0.4242641 -0.4161119
v 0.04479472 0.5543278 -0.2251981
v -1.023321E-08 0.6 5.144578E-08
v 0 -0.6 0
v 0.08786798 -0.5543277 -0.2121321
v 0.1623588 -0.4242641 -0.3919689
v 0.212132 -0.2296101 -0.512132
v 0.2296101 2.622683E-08 -0.5543277
v 0.212132 0.2296101 -0.512132
v 0.1623588 0.4242641 -0.3919689
v 0.08786794 0.5543278 -0.2121319
v -2.007315E-08 0.6 4.846087E-08
v 0 -0.6 0
v 0.1275645 -0.5543277 -0.1909138
v 0.2357085 -0.4242641 -0.3527626
v 0.307968 -0.2296101 -0.4609066
v 0.3333422 2.622683E-08 -0.4988817
v 0.307968 0.2296101 -0.4609066
v 0.2357085 0.4242641 -0.3527626
v 0.1275645 0.5543278 -0.1909137
v -2.91417E-08 0.6 4.361362E-08
v 0 -0.6 0
v 0.1623589 -0.5543277 -0.1623588
v 0.3000001 -0.4242641 -0.3
v 0.391969 -0.2296101 -0.3919688
v 0.4242642 2.622683E-08 -0.424264
v 0.391969 0.2296101 -0.3919688
v 0.3000001 0.4242641 -0.3
v 0.1623588 0.5543278 -0.1623587
v -3.709035E-08 0.6 3.709034E-08
v 0 -0.6 0
v 0.1909138 -0.5543277 -0.1275645
v 0.3527628 -0.4242641 -0.2357084
v 0.4609067 -0.2296101 -0.3079678
v 0.4988819 2.622683E-08 -0.333342
v 0.4609067 0.2296101 -0.3079678
v 0.3527628 0.4242641 -0.2357084
v 0.1909138 0.5543278 -0.1275644
v -4.361364E-08 0.6 2.914168E-08
v 0 -0.6 0
v 0.2121321 -0.5543277 -0.08786791
v 0.391969 -0.4242641 -0.1623587
v 0.5121321 -0.2296101 -0.2121319
v 0.5543278 2.622683E-08 -0.2296099
v 0.5121321 0.2296101 -0.2121319
v 0.391969 0.4242641 -0.1623587
v 0.212132 0.5543278 -0.08786786
v -4.846088E-08 0.6 2.007313E-08
v 0 -0.6 0
v 0.2251982 -0.5543277 -0.04479472
v 0.4161119 -0.4242641 -0.08276984
v 0.5436764 -0.2296101 -0.108144
v 0.5884712 2.622683E-08 -0.1170542
v 0.5436764 0.2296101 -0.108144
v 0.4161119 0.4242641 -0.08276984
v 0.2251981 0.5543278 -0.0447947
v -5.144578E-08 0.6 1.023321E-08
v 0 -0.6 0
v 0.2296101 -0.5543277 2.738073E-09
v 0.4242641 -0.4242641 5.059298E-09
v 0.5543277 -0.2296101 6.610292E-09
v 0.6 2.622683E-08 7.154929E-09
v 0.5543277 0.2296101 6.610292E-09
v 0.4242641 0.4242641 5.059298E-09
v 0.22961 0.5543278 2.738072E-09
v -5.245367E-08 0.6 -6.255037E-16
v 0 -0.6 0
v 0.2251982 -0.5543277 0.04479473
v 0.4161119 -0.4242641 0.08276986
v 0.5436764 -0.2296101 0.108144
v 0.5884712 2.622683E-08 0.1170543
v 0.5436764 0.2296101 0.108144
v 0.4161119 0.4242641 0.08276986
v 0.2251981 0.5543278 0.0447947
v -5.144578E-08 0.6 -1.023321E-08
v 0 -0.6 0
v 0.212132 -0.5543277 0.08786801
v 0.3919688 -0.4242641 0.1623589
v 0.512132 -0.2296101 0.2121321
v 0.5543277 2.622683E-08 0.2296102
v 0.512132 0.2296101 0.2121321
v 0.3919688 0.4242641 0.1623589
v 0.2121319 0.5543278 0.08786798
v -4.846086E-08 0.6 -2.007316E-08
v 0 -0.6 0
v 0.1909138 -0.5543277 0.1275646
v 0.3527626 -0.4242641 0.2357086
v 0.4609066 -0.2296101 0.3079681
v 0.4988817 2.622683E-08 0.3333423
v 0.4609066 0.2296101 0.3079681
v 0.3527626 0.4242641 0.2357086
v 0.1909137 0.5543278 0.1275645
v -4.361362E-08 0.6 -2.914171E-08
v 0 -0.6 0
v 0.1623588 -0.5543277 0.1623589
v 0.2999999 -0.4242641 0.3000001
v 0.3919688 -0.2296101 0.391969
v 0.4242639 2.622683E-08 0.4242642
v 0.3919688 0.2296101 0.391969
v 0.2999999 0.4242641 0.3000001
v 0.1623587 0.5543278 0.1623588
v -3.709033E-08 0.6 -3.709036E-08
v 0 -0.6 0
v 0.1275645 -0.5543277 0.1909138
v 0.2357085 -0.4242641 0.3527627
v 0.307968 -0.2296101 0.4609067
v 0.3333422 2.622683E-08 0.4988818
v 0.307968 0.2296101 0.4609067
v 0.2357085 0.4242641 0.3527627
v 0.1275645 0.5543278 0.1909137
v -2.91417E-08 0.6 -4.361363E-08
v 0 -0.6 0
v 0.08786798 -0.5543277 0.2121321
v 0.1623588 -0.4242641 0.3919689
v 0.212132 -0.2296101 0.5121321
v 0.2296101 2.622683E-08 0.5543278
v 0.212132 0.2296101 0.5121321
v 0.1623588 0.4242641 0.3919689
v 0.08786794 0.5543278 0.212132
v -2.007315E-08 0.6 -4.846087E-08
v 0 -0.6 0
v 0.04479468 -0.5543277 0.2251982
v 0.08276977 -0.4242641 0.416112
v 0.1081439 -0.2296101 0.5436765
v 0.1170541 2.622683E-08 0.5884712
v 0.1081439 0.2296101 0.5436765
v 0.08276977 0.4242641 0.416112
v 0.04479466 0.5543278 0.2251981
v -1.02332E-08 0.6 -5.144579E-08
v 0 -0.6 0
v -4.01463E-08 -0.5543277 0.2296101
v -7.418069E-08 -0.4242641 0.4242641
v -9.692174E-08 -0.2296101 0.5543277
v -1.049073E-07 2.622683E-08 0.6
v -9.692174E-08 0.2296101 0.5543277
v -7.418069E-08 0.4242641 0.4242641
v -4.014628E-08 0.5543278 0.22961
v 9.171291E-15 0.6 -5.245367E-08
v 0 0 0
v 0 -0.3 0
v 0 -0.6 0
v 1.003658E-08 -0.2771639 -0.114805
v 2.007315E-08 -0.5543277 -0.2296101
v 1.854517E-08 -0.212132 -0.212132
v 3.709035E-08 -0.4242641 -0.4242641
v 2.423043E-08 -0.114805 -0.2771639
v 4.846087E-08 -0.2296101 -0.5543277
v 2.622683E-08 1.311342E-08 -0.3
v 5.245367E-08 2.622683E-08 -0.6
v 2.423043E-08 0.1148051 -0.2771639
v 4.846087E-08 0.2296101 -0.5543277
v 1.854517E-08 0.212132 -0.212132
v 3.709035E-08 0.4242641 -0.4242641
v 1.003657E-08 0.2771639 -0.114805
v 2.007314E-08 0.5543278 -0.22961
v -2.292823E-15 0.3 2.622683E-08
v -4.585645E-15 0.6 5.245367E-08
v 0 0 0
v 4.585645E-15 0.3 -2.622683E-08
v 9.171291E-15 0.6 -5.245367E-08
v -2.007314E-08 0.2771639 0.114805
v -4.014628E-08 0.5543278 0.22961
v -3.709035E-08 0.212132 0.212132
v -7.418069E-08 0.4242641 0.4242641
v -4.846087E-08 0.1148051 0.2771639
v -9.692174E-08 0.2296101 0.5543277
v -5.245367E-08 1.311342E-08 0.3
v -1.049073E-07 2.622683E-08 0.6
v -4.846087E-08 -0.114805 0.2771639
v -9.692174E-08 -0.2296101 0.5543277
v -3.709035E-08 -0.212132 0.212132
v -7.418069E-08 -0.4242641 0.4242641
v -2.007315E-08 -0.2771639 0.114805
v -4.01463E-08 -0.5543277 0.2296101
v 0 -0.3 0
v 0 -0.6 0
vt 0 0.125
vt 0 0.125
vt 0 0.25
vt 0 0.375
vt 0 0.5
vt 0 0.625
vt 0 0.75
vt 0 0.875
vt 0 1
vt -0.0625 0.125
vt -0.0625 0.125
vt -0.0625 0.25
vt -0.0625 0.375
vt -0.0625 0.5
vt -0.0625 0.625
vt -0.0625 0.75
vt -0.0625 0.875
vt -0.0625 1
vt -0.125 0.125
vt -0.125 0.125
vt -0.125 0.25
vt -0.125 0.375
vt -0.125 0.5
vt -0.125 0.625
vt -0.125 0.75
vt -0.125 0.875
vt -0.125 1
vt -0.1875 0.125
vt -0.1875 0.125
vt -0.1875 0.25
vt -0.1875 0.375
vt -0.1875 0.5
vt -0.1875 0.625
vt -0.1875 0.75
vt -0.1875 0.875
vt -0.1875 1
vt -0.25 0.125
vt -0.25 0.125
vt -0.25 0.25
vt -0.25 0.375
vt -0.25 0.5
vt -0.25 0.625
vt -0.25 0.75
vt -0.25 0.875
vt -0.25 1
vt -0.3125 0.125
vt -0.3125 0.125
vt -0.3125 0.25
vt -0.3125 0.375
vt -0.3125 0.5
vt -0.3125 0.625
vt -0.3125 0.75
vt -0.3125 0.875
vt -0.3125 1
vt -0.375 0.125
vt -0.375 0.125
vt -0.375 0.25
vt -0.375 0.375
vt -0.375 0.5
vt -0.375 0.625
vt -0.375 0.75
vt -0.375 0.875
vt -0.375 1
vt -0.4375 0.125
vt -0.4375 0.125
vt -0.4375 0.25
vt -0.4375 0.375
vt -0.4375 0.5
vt -0.4375 0.625
vt -0.4375 0.75
vt -0.4375 0.875
vt -0.4375 1
vt -0.5 0.125
vt -0.5 0.125
vt -0.5 0.25
vt -0.5 0.375
vt -0.5 0.5
vt -0.5 0.625
vt -0.5 0.75
vt -0.5 0.875
vt -0.5 1
vt -0.5625 0.125
vt -0.5625 0.125
vt -0.5625 0.25
vt -0.5625 0.375
vt -0.5625 0.5
vt -0.5625 0.625
vt -0.5625 0.75
vt -0.5625 0.875
vt -0.5625 1
vt -0.625 0.125
vt -0.625 0.125
vt -0.625 0.25
vt -0.625 0.375
vt -0.625 0.5
vt -0.625 0.625
vt -0.625 0.75
vt -0.625 0.875
vt -0.625 1
vt -0.6875 0.125
vt -0.6875 0.125
vt -0.6875 0.25
vt -0.6875 0.375
vt -0.6875 0.5
vt -0.6875 0.625
vt -0.6875 0.75
vt -0.6875 0.875
vt -0.6875 1
vt -0.75 0.125
vt -0.75 0.125
vt -0.75 0.25
vt -0.75 0.375
vt -0.75 0.5
vt -0.75 0.625
vt -0.75 0.75
vt -0.75 0.875
vt -0.75 1
vt -0.8125 0.125
vt -0.8125 0.125
vt -0.8125 0.25
vt -0.8125 0.375
vt -0.8125 0.5
vt -0.8125 0.625
vt -0.8125 0.75
vt -0.8125 0.875
vt -0.8125 1
vt -0.875 0.125
vt -0.875 0.125
vt -0.875 0.25
vt -0.875 0.375
vt -0.875 0.5
vt -0.875 0.625
vt -0.875 0.75
vt -0.875 0.875
vt -0.875 1
vt -0.9375 0.125
vt -0.9375 0.125
vt -0.9375 0.25
vt -0.9375 0.375
vt -0.9375 0.5
vt -0.9375 0.625
vt -0.9375 0.75
vt -0.9375 0.875
vt -0.9375 1
vt -1 0.125
vt -1 0.125
vt -1 0.25
vt -1 0.375
vt -1 0.5
vt -1 0.625
vt -1 0.75
vt -1 0.875
vt -1 1
vt 0.5 0.5
vt 0.5 0.25
vt 0.5 0
vt 0.5956709 0.2690301
vt 0.6913418 0.03806025
vt 0.6767767 0.3232233
vt 0.8535534 0.1464466
vt 0.7309699 0.4043292
vt 0.9619398 0.3086583
vt 0.75 0.5
vt 1 0.5
vt 0.7309699 0.5956709
vt 0.9619398 0.6913418
vt 0.6767767 0.6767767
vt 0.8535534 0.8535534
vt 0.5956708 0.7309699
vt 0.6913416 0.9619398
vt 0.5 0.75
vt 0.5 1
vt 0.5 0.5
vt 0.5 0.75
vt 0.5000001 1
vt 0.4043292 0.7309699
vt 0.3086584 0.9619398
vt 0.3232233 0.6767767
vt 0.1464466 0.8535534
vt 0.2690301 0.5956709
vt 0.03806025 0.6913418
vt 0.25 0.5
vt 0 0.5
vt 0.2690301 0.4043292
vt 0.03806025 0.3086583
vt 0.3232233 0.3232233
vt 0.1464466 0.1464466
vt 0.4043291 0.2690301
vt 0.3086583 0.03806025
vt 0.5 0.25
vt 0.5 0
vn 0 -1 0
vn 3.345525E-08 -0.9238795 -0.3826835
vn 6.181724E-08 -0.7071068 -0.7071068
vn 8.076811E-08 -0.3826834 -0.9238795
vn 8.742278E-08 4.371139E-08 -1
vn 8.076811E-08 0.3826835 -0.9238795
vn 6.181724E-08 0.7071068 -0.7071068
vn 3.345523E-08 0.9238796 -0.3826833
vn -7.642742E-15 1 8.742278E-08
vn 0 -1 0
vn 0.0746579 -0.9238795 -0.3753303
vn 0.1379498 -0.7071068 -0.6935199
vn 0.1802401 -0.3826835 -0.9061275
vn 0.1950905 4.371139E-08 -0.9807853
vn 0.1802401 0.3826835 -0.9061273
vn 0.1379498 0.7071068 -0.6935199
vn 0.07465787 0.9238796 -0.3753301
vn -1.705535E-08 1 8.574297E-08
vn 0 -1 0
vn 0.1464466 -0.9238795 -0.3535534
vn 0.2705981 -0.7071068 -0.6532815
vn 0.3535534 -0.3826834 -0.8535534
vn 0.3826834 4.371139E-08 -0.9238795
vn 0.3535534 0.3826835 -0.8535534
vn 0.2705981 0.7071068 -0.6532815
vn 0.1464466 0.9238796 -0.3535532
vn -3.345525E-08 1 8.076811E-08
vn 0 -1 0
vn 0.2126076 -0.9238795 -0.3181896
vn 0.3928476 -0.7071068 -0.5879378
vn 0.5132801 -0.3826835 -0.7681777
vn 0.5555703 4.371139E-08 -0.8314695
vn 0.51328 0.3826835 -0.7681776
vn 0.3928476 0.7071068 -0.5879378
vn 0.2126075 0.9238796 -0.3181895
vn -4.85695E-08 1 7.268937E-08
vn 0 -1 0
vn 0.2705981 -0.9238795 -0.270598
vn 0.5000001 -0.7071068 -0.4999999
vn 0.6532816 -0.3826834 -0.6532813
vn 0.7071069 4.371139E-08 -0.7071066
vn 0.6532816 0.3826835 -0.6532813
vn 0.5000001 0.7071068 -0.4999999
vn 0.270598 0.9238796 -0.2705979
vn -6.181725E-08 1 6.181723E-08
vn 0 -1 0
vn 0.3181897 -0.9238795 -0.2126074
vn 0.5879379 -0.7071068 -0.3928473
vn 0.7681779 -0.3826834 -0.5132797
vn 0.8314698 4.371139E-08 -0.55557
vn 0.7681779 0.3826835 -0.5132797
vn 0.5879379 0.7071068 -0.3928473
vn 0.3181896 0.9238796 -0.2126074
vn -7.26894E-08 1 4.856947E-08
vn 0 -1 0
vn 0.3535535 -0.9238795 -0.1464465
vn 0.6532816 -0.7071068 -0.2705978
vn 0.8535535 -0.3826834 -0.3535531
vn 0.9238797 4.371139E-08 -0.3826831
vn 0.8535535 0.3826835 -0.3535531
vn 0.6532816 0.7071068 -0.2705978
vn 0.3535533 0.9238796 -0.1464464
vn -8.076813E-08 1 3.345522E-08
vn 0 -1 0
vn 0.3753303 -0.9238795 -0.07465786
vn 0.6935199 -0.7071068 -0.1379497
vn 0.9061275 -0.3826835 -0.18024
vn 0.9807853 4.371139E-08 -0.1950904
vn 0.9061273 0.3826835 -0.18024
vn 0.6935199 0.7071068 -0.1379497
vn 0.3753301 0.9238796 -0.07465783
vn -8.574297E-08 1 1.705534E-08
vn 0 -1 0
vn 0.3826835 -0.9238795 4.563455E-09
vn 0.7071068 -0.7071068 8.432163E-09
vn 0.9238795 -0.3826834 1.101715E-08
vn 1 4.371139E-08 1.192488E-08
vn 0.9238795 0.3826835 1.101715E-08
vn 0.7071068 0.7071068 8.432163E-09
vn 0.3826833 0.9238796 4.563452E-09
vn -8.742278E-08 1 -1.042506E-15
vn 0 -1 0
vn 0.3753303 -0.9238795 0.07465787
vn 0.6935199 -0.7071068 0.1379497
vn 0.9061275 -0.3826835 0.18024
vn 0.9807853 4.371139E-08 0.1950904
vn 0.9061273 0.3826835 0.18024
vn 0.6935199 0.7071068 0.1379497
vn 0.3753301 0.9238796 0.07465784
vn -8.574297E-08 1 -1.705535E-08
vn 0 -1 0
vn 0.3535534 -0.9238795 0.1464467
vn 0.6532814 -0.7071068 0.2705982
vn 0.8535533 -0.3826834 0.3535536
vn 0.9238794 4.371139E-08 0.3826836
vn 0.8535533 0.3826835 0.3535536
vn 0.6532814 0.7071068 0.2705982
vn 0.3535532 0.9238796 0.1464466
vn -8.07681E-08 1 -3.345527E-08
vn 0 -1 0
vn 0.3181896 -0.9238795 0.2126076
vn 0.5879377 -0.7071068 0.3928476
vn 0.7681776 -0.3826835 0.5132802
vn 0.8314695 4.371139E-08 0.5555704
vn 0.7681776 0.3826835 0.5132801
vn 0.5879377 0.7071068 0.3928476
vn 0.3181894 0.9238796 0.2126075
vn -7.268937E-08 1 -4.856951E-08
vn 0 -1 0
vn 0.270598 -0.9238795 0.2705981
vn 0.4999998 -0.7071068 0.5000001
vn 0.6532812 -0.3826834 0.6532817
vn 0.7071065 4.371139E-08 0.707107
vn 0.6532812 0.3826835 0.6532817
vn 0.4999998 0.7071068 0.5000001
vn 0.2705978 0.9238796 0.270598
vn -6.181722E-08 1 -6.181725E-08
vn 0 -1 0
vn 0.2126076 -0.9238795 0.3181897
vn 0.3928475 -0.7071068 0.5879378
vn 0.51328 -0.3826834 0.7681777
vn 0.5555703 4.371139E-08 0.8314696
vn 0.51328 0.3826835 0.7681777
vn 0.3928475 0.7071068 0.5879378
vn 0.2126075 0.9238796 0.3181895
vn -4.85695E-08 1 -7.268938E-08
vn 0 -1 0
vn 0.1464466 -0.9238795 0.3535534
vn 0.2705981 -0.7071068 0.6532815
vn 0.3535534 -0.3826834 0.8535534
vn 0.3826834 4.371138E-08 0.9238795
vn 0.3535534 0.3826835 0.8535534
vn 0.2705981 0.7071068 0.6532815
vn 0.1464466 0.9238796 0.3535533
vn -3.345525E-08 1 -8.076812E-08
vn 0 -1 0
vn 0.0746578 -0.9238795 0.3753303
vn 0.1379496 -0.7071068 0.69352
vn 0.1802399 -0.3826834 0.9061275
vn 0.1950902 4.371138E-08 0.9807853
vn 0.1802399 0.3826835 0.9061275
vn 0.1379496 0.7071068 0.69352
vn 0.07465777 0.9238796 0.3753302
vn -1.705533E-08 1 -8.574298E-08
vn 0 -1 0
vn -6.691049E-08 -0.9238795 0.3826835
vn -1.236345E-07 -0.7071068 0.7071068
vn -1.615362E-07 -0.3826834 0.9238795
vn -1.748456E-07 4.371139E-08 1
vn -1.615362E-07 0.3826835 0.9238795
vn -1.236345E-07 0.7071068 0.7071068
vn -6.691047E-08 0.9238796 0.3826833
vn 1.528548E-14 1 -8.742278E-08
vn -1 0 -8.742278E-08
vn -1 0 -8.742278E-08
vn -1 0 -8.742278E-08
vn -1 0 -8.742278E-08
vn -1 0 -8.742278E-08
vn -1 0 -8.742278E-08
vn -1 0 -8.742278E-08
vn -1 0 -8.742278E-08
vn -1 0 -8.742278E-08
vn -1 0 -8.742278E-08
vn -1 0 -8.742278E-08
vn -1 0 -8.742278E-08
vn -1 0 -8.742278E-08
vn -1 0 -8.742278E-08
vn -1 0 -8.742278E-08
vn -1 0 -8.742278E-08
vn -1 0 -8.742278E-08
vn -1 0 -8.742278E-08
vn -1 0 -8.742278E-08
vn -1 0 -1.748456E-07
vn -1 0 -1.748456E-07
vn -1 0 -1.748456E-07
vn -1 0 -1.748456E-07
vn -1 0 -1.748456E-07
vn -1 0 -1.748456E-07
vn -1 0 -1.748456E-07
vn -1 0 -1.748456E-07
vn -1 0 -1.748456E-07
vn -1 0 -1.748456E-07
vn -1 0 -1.748456E-07
vn -1 0 -1.748456E-07
vn -1 0 -1.748456E-07
vn -1 0 -1.748456E-07
vn -1 0 -1.748456E-07
vn -1 0 -1.748456E-07
vn -1 0 -1.748456E-07
vn -1 0 -1.748456E-07
vn -1 0 -1.748456E-07
g Cannon_Mesh02_0
f 2/2/2 11/11/11 10/10/10
f 10/10/10 1/1/1 2/2/2
f 3/3/3 12/12/12 11/11/11
f 11/11/11 2/2/2 3/3/3
f 4/4/4 13/13/13 12/12/12
f 12/12/12 3/3/3 4/4/4
f 5/5/5 14/14/14 13/13/13
f 13/13/13 4/4/4 5/5/5
f 6/6/6 15/15/15 14/14/14
f 14/14/14 5/5/5 6/6/6
f 7/7/7 16/16/16 15/15/15
f 15/15/15 6/6/6 7/7/7
f 8/8/8 17/17/17 16/16/16
f 16/16/16 7/7/7 8/8/8
f 9/9/9 18/18/18 17/17/17
f 17/17/17 8/8/8 9/9/9
f 11/11/11 20/20/20 19/19/19
f 19/19/19 10/10/10 11/11/11
f 12/12/12 21/21/21 20/20/20
f 20/20/20 11/11/11 12/12/12
f 13/13/13 22/22/22 21/21/21
f 21/21/21 12/12/12 13/13/13
f 14/14/14 23/23/23 22/22/22
f 22/22/22 13/13/13 14/14/14
f 15/15/15 24/24/24 23/23/23
f 23/23/23 14/14/14 15/15/15
f 16/16/16 25/25/25 24/24/24
f 24/24/24 15/15/15 16/16/16
f 17/17/17 26/26/26 25/25/25
f 25/25/25 16/16/16 17/17/17
f 18/18/18 27/27/27 26/26/26
f 26/26/26 17/17/17 18/18/18
f 20/20/20 29/29/29 28/28/28
f 28/28/28 19/19/19 20/20/20
f 21/21/21 30/30/30 29/29/29
f 29/29/29 20/20/20 21/21/21
f 22/22/22 31/31/31 30/30/30
f 30/30/30 21/21/21 22/22/22
f 23/23/23 32/32/32 31/31/31
f 31/31/31 22/22/22 23/23/23
f 24/24/24 33/33/33 32/32/32
f 32/32/32 23/23/23 24/24/24
f 25/25/25 34/34/34 33/33/33
f 33/33/33 24/24/24 25/25/25
f 26/26/26 35/35/35 34/34/34
f 34/34/34 25/25/25 26/26/26
f 27/27/27 36/36/36 35/35/35
f 35/35/35 26/26/26 27/27/27
f 29/29/29 38/38/38 37/37/37
f 37/37/37 28/28/28 29/29/29
f 30/30/30 39/39/39 38/38/38
f 38/38/38 29/29/29 30/30/30
f 31/31/31 40/40/40 39/39/39
f 39/39/39 30/30/30 31/31/31
f 32/32/32 41/41/41 40/40/40
f 40/40/40 31/31/31 32/32/32
f 33/33/33 42/42/42 41/41/41
f 41/41/41 32/32/32 33/33/33
f 34/34/34 43/43/43 42/42/42
f 42/42/42 33/33/33 34/34/34
f 35/35/35 44/44/44 43/43/43
f 43/43/43 34/34/34 35/35/35
f 36/36/36 45/45/45 44/44/44
f 44/44/44 35/35/35 36/36/36
f 38/38/38 47/47/47 46/46/46
f 46/46/46 37/37/37 38/38/38
f 39/39/39 48/48/48 47/47/47
f 47/47/47 38/38/38 39/39/39
f 40/40/40 49/49/49 48/48/48
f 48/48/48 39/39/39 40/40/40
f 41/41/41 50/50/50 49/49/49
f 49/49/49 40/40/40 41/41/41
f 42/42/42 51/51/51 50/50/50
f 50/50/50 41/41/41 42/42/42
f 43/43/43 52/52/52 51/51/51
f 51/51/51 42/42/42 43/43/43
f 44/44/44 53/53/53 52/52/52
f 52/52/52 43/43/43 44/44/44
f 45/45/45 54/54/54 53/53/53
f 53/53/53 44/44/44 45/45/45
f 47/47/47 56/56/56 55/55/55
f 55/55/55 46/46/46 47/47/47
f 48/48/48 57/57/57 56/56/56
f 56/56/56 47/47/47 48/48/48
f 49/49/49 58/58/58 57/57/57
f 57/57/57 48/48/48 49/49/49
f 50/50/50 59/59/59 58/58/58
f 58/58/58 49/49/49 50/50/50
f 51/51/51 60/60/60 59/59/59
f 59/59/59 50/50/50 51/51/51
f 52/52/52 61/61/61 60/60/60
f 60/60/60 51/51/51 52/52/52
f 53/53/53 62/62/62 61/61/61
f 61/61/61 52/52/52 53/53/53
f 54/54/54 63/63/63 62/62/62
f 62/62/62 53/53/53 54/54/54
f 56/56/56 65/65/65 64/64/64
f 64/64/64 55/55/55 56/56/56
f 57/57/57 66/66/66 65/65/65
f 65/65/65 56/56/56 57/57/57
f 58/58/58 67/67/67 66/66/66
f 66/66/66 57/57/57 58/58/58
f 59/59/59 68/68/68 67/67/67
f 67/67/67 58/58/58 59/59/59
f 60/60/60 69/69/69 68/68/68
f 68/68/68 59/59/59 60/60/60
f 61/61/61 70/70/70 69/69/69
f 69/69/69 60/60/60 61/61/61
f 62/62/62 71/71/71 70/70/70
f 70/70/70 61/61/61 62/62/62
f 63/63/63 72/72/72 71/71/71
f 71/71/71 62/62/62 63/63/63
f 65/65/65 74/74/74 73/73/73
f 73/73/73 64/64/64 65/65/65
f 66/66/66 75/75/75 74/74/74
f 74/74/74 65/65/65 66/66/66
f 67/67/67 76/76/76 75/75/75
f 75/75/75 66/66/66 67/67/67
f 68/68/68 77/77/77 76/76/76
f 76/76/76 67/67/67 68/68/68
f 69/69/69 78/78/78 77/77/77
f 77/77/77 68/68/68 69/69/69
f 70/70/70 79/79/79 78/78/78
f 78/78/78 69/69/69 70/70/70
f 71/71/71 80/80/80 79/79/79
f 79/79/79 70/70/70 71/71/71
f 72/72/72 81/81/81 80/80/80
f 80/80/80 71/71/71 72/72/72
f 74/74/74 83/83/83 82/82/82
f 82/82/82 73/73/73 74/74/74
f 75/75/75 84/84/84 83/83/83
f 83/83/83 74/74/74 75/75/75
f 76/76/76 85/85/85 84/84/84
f 84/84/84 75/75/75 76/76/76
f 77/77/77 86/86/86 85/85/85
f 85/85/85 76/76/76 77/77/77
f 78/78/78 87/87/87 86/86/86
f 86/86/86 77/77/77 78/78/78
f 79/79/79 88/88/88 87/87/87
f 87/87/87 78/78/78 79/79/79
f 80/80/80 89/89/89 88/88/88
f 88/88/88 79/79/79 80/80/80
f 81/81/81 90/90/90 89/89/89
f 89/89/89 80/80/80 81/81/81
f 83/83/83 92/92/92 91/91/91
f 91/91/91 82/82/82 83/83/83
f 84/84/84 93/93/93 92/92/92
f 92/92/92 83/83/83 84/84/84
f 85/85/85 94/94/94 93/93/93
f 93/93/93 84/84/84 85/85/85
f 86/86/86 95/95/95 94/94/94
f 94/94/94 85/85/85 86/86/86
f 87/87/87 96/96/96 95/95/95
f 95/95/95 86/86/86 87/87/87
f 88/88/88 97/97/97 96/96/96
f 96/96/96 87/87/87 88/88/88
f 89/89/89 98/98/98 97/97/97
f 97/97/97 88/88/88 89/89/89
f 90/90/90 99/99/99 98/98/98
f 98/98/98 89/89/89 90/90/90
f 92/92/92 101/101/101 100/100/100
f 100/100/100 91/91/91 92/92/92
f 93/93/93 102/102/102 101/101/101
f 101/101/101 92/92/92 93/93/93
f 94/94/94 103/103/103 102/102/102
f 102/102/102 93/93/93 94/94/94
f 95/95/95 104/104/104 103/103/103
f 103/103/103 94/94/94 95/95/95
f 96/96/96 105/105/105 104/104/104
f 104/104/104 95/95/95 96/96/96
f 97/97/97 106/106/106 105/105/105
f 105/105/105 96/96/96 97/97/97
f 98/98/98 107/107/107 106/106/106
f 106/106/106 97/97/97 98/98/98
f 99/99/99 108/108/108 107/107/107
f 107/107/107 98/98/98 99/99/99
f 101/101/101 110/110/110 109/109/109
f 109/109/109 100/100/100 101/101/101
f 102/102/102 111/111/111 110/110/110
f 110/110/110 101/101/101 102/102/102
f 103/103/103 112/112/112 111/111/111
f 111/111/111 102/102/102 103/103/103
f 104/104/104 113/113/113 112/112/112
f 112/112/112 103/103/103 104/104/104
f 105/105/105 114/114/114 113/113/113
f 113/113/113 104/104/104 105/105/105
f 106/106/106 115/115/115 114/114/114
f 114/114/114 105/105/105 106/106/106
f 107/107/107 116/116/116 115/115/115
f 115/115/115 106/106/106 107/107/107
f 108/108/108 117/117/117 116/116/116
f 116/116/116 107/107/107 108/108/108
f 110/110/110 119/119/119 118/118/118
f 118/118/118 109/109/109 110/110/110
f 111/111/111 120/120/120 119/119/119
f 119/119/119 110/110/110 111/111/111
f 112/112/112 121/121/121 120/120/120
f 120/120/120 111/111/111 112/112/112
f 113/113/113 122/122/122 121/121/121
f 121/121/121 112/112/112 113/113/113
f 114/114/114 123/123/123 122/122/122
f 122/122/122 113/113/113 114/114/114
f 115/115/115 124/124/124 123/123/123
f 123/123/123 114/114/114 115/115/115
f 116/116/116 125/125/125 124/124/124
f 124/124/124 115/115/115 116/116/116
f 117/117/117 126/126/126 125/125/125
f 125/125/125 116/116/116 117/117/117
f 119/119/119 128/128/128 127/127/127
f 127/127/127 118/118/118 119/119/119
f 120/120/120 129/129/129 128/128/128
f 128/128/128 119/119/119 120/120/120
f 121/121/121 130/130/130 129/129/129
f 129/129/129 120/120/120 121/121/121
f 122/122/122 131/131/131 130/130/130
f 130/130/130 121/121/121 122/122/122
f 123/123/123 132/132/132 131/131/131
f 131/131/131 122/122/122 123/123/123
f 124/124/124 133/133/133 132/132/132
f 132/132/132 123/123/123 124/124/124
f 125/125/125 134/134/134 133/133/133
f 133/133/133 124/124/124 125/125/125
f 126/126/126 135/135/135 134/134/134
f 134/134/134 125/125/125 126/126/126
f 128/128/128 137/137/137 136/136/136
f 136/136/136 127/127/127 128/128/128
f 129/129/129 138/138/138 137/137/137
f 137/137/137 128/128/128 129/129/129
f 130/130/130 139/139/139 138/138/138
f 138/138/138 129/129/129 130/130/130
f 131/131/131 140/140/140 139/139/139
f 139/139/139 130/130/130 131/131/131
f 132/132/132 141/141/141 140/140/140
f 140/140/140 131/131/131 132/132/132
f 133/133/133 142/142/142 141/141/141
f 141/141/141 132/132/132 133/133/133
f 134/134/134 143/143/143 142/142/142
f 142/142/142 133/133/133 134/134/134
f 135/135/135 144/144/144 143/143/143
f 143/143/143 134/134/134 135/135/135
f 137/137/137 146/146/146 145/145/145
f 145/145/145 136/136/136 137/137/137
f 138/138/138 147/147/147 146/146/146
f 146/146/146 137/137/137 138/138/138
f 139/139/139 148/148/148 147/147/147
f 147/147/147 138/138/138 139/139/139
f 140/140/140 149/149/149 148/148/148
f 148/148/148 139/139/139 140/140/140
f 141/141/141 150/150/150 149/149/149
f 149/149/149 140/140/140 141/141/141
f 142/142/142 151/151/151 150/150/150
f 150/150/150 141/141/141 142/142/142
f 143/143/143 152/152/152 151/151/151
f 151/151/151 142/142/142 143/143/143
f 144/144/144 153/153/153 152/152/152
f 152/152/152 143/143/143 144/144/144
f 157/157/157 155/155/155 154/154/154
f 158/158/158 156/156/156 155/155/155
f 155/155/155 157/157/157 158/158/158
f 159/159/159 157/157/157 154/154/154
f 160/160/160 158/158/158 157/157/157
f 157/157/157 159/159/159 160/160/160
f 161/161/161 159/159/159 154/154/154
f 162/162/162 160/160/160 159/159/159
f 159/159/159 161/161/161 162/162/162
f 163/163/163 161/161/161 154/154/154
f 164/164/164 162/162/162 161/161/161
f 161/161/161 163/163/163 164/164/164
f 165/165/165 163/163/163 154/154/154
f 166/166/166 164/164/164 163/163/163
f 163/163/163 165/165/165 166/166/166
f 167/167/167 165/165/165 154/154/154
f 168/168/168 166/166/166 165/165/165
f 165/165/165 167/167/167 168/168/168
f 169/169/169 167/167/167 154/154/154
f 170/170/170 168/168/168 167/167/167
f 167/167/167 169/169/169 170/170/170
f 171/171/171 169/169/169 154/154/154
f 172/172/172 170/170/170 169/169/169
f 169/169/169 171/171/171 172/172/172
f 176/176/176 174/174/174 173/173/173
f 177/177/177 175/175/175 174/174/174
f 174/174/174 176/176/176 177/177/177
f 178/178/178 176/176/176 173/173/173
f 179/179/179 177/177/177 176/176/176
f 176/176/176 178/178/178 179/179/179
f 180/180/180 178/178/178 173/173/173
f 181/181/181 179/179/179 178/178/178
f 178/178/178 180/180/180 181/181/181
f 182/182/182 180/180/180 173/173/173
f 183/183/183 181/181/181 180/180/180
f 180/180/180 182/182/182 183/183/183
f 184/184/184 182/182/182 173/173/173
f 185/185/185 183/183/183 182/182/182
f 182/182/182 184/184/184 185/185/185
f 186/186/186 184/184/184 173/173/173
f 187/187/187 185/185/185 184/184/184
f 184/184/184 186/186/186 187/187/187
f 188/188/188 186/186/186 173/173/173
f 189/189/189 187/187/187 186/186/186
f 186/186/186 188/188/188 189/189/189
f 190/190/190 188/188/188 173/173/173
f 191/191/191 189/189/189 188/188/188
f 188/188/188 190/190/190 191/191/191
