g cargo-shipping-door_R_red
v 0.1499984 -0.1606423 0.0500021
v 0.939044 -0.1606423 0.05000234
v 0.939044 -0.2793577 0.05000234
v 0.1499984 -0.2793579 0.0500021
v 0.1499984 0.334358 0.0500021
v 0.939044 0.334358 0.05000234
v 0.939044 0.2156421 0.05000234
v 0.1499984 0.2156421 0.0500021
v 0.1499984 0.8293582 0.0500021
v 0.939044 0.8293582 0.05000234
v 0.939044 0.7106421 0.05000234
v 0.1499984 0.7106421 0.0500021
v 0.1499984 -0.6556422 0.0500021
v 0.939044 -0.6556422 0.05000234
v 0.939044 -0.7743578 0.05000234
v 0.1499984 -0.7743578 0.0500021
v 0.1499984 -0.1606423 -0.04999781
v 0.1499984 -0.2793579 -0.04999781
v 0.939044 -0.2793577 -0.04999757
v 0.939044 -0.1606423 -0.04999757
v 0.1499984 0.334358 -0.04999781
v 0.1499984 0.2156421 -0.04999781
v 0.939044 0.2156421 -0.04999757
v 0.939044 0.334358 -0.04999757
v 0.1499984 0.8293582 -0.04999781
v 0.1499984 0.7106421 -0.04999781
v 0.939044 0.7106421 -0.04999757
v 0.939044 0.8293582 -0.04999757
v 0.1499984 -0.6556422 -0.04999781
v 0.1499984 -0.7743578 -0.04999781
v 0.939044 -0.7743578 -0.04999757
v 0.939044 -0.6556422 -0.04999757
v 1.089044 0.5500001 0.05000234
v 1.089044 0.5500001 -0.04999757
v 0.939044 0.334358 -0.04999757
v 0.939044 0.334358 0.05000234
v 1.089044 -0.55 0.05000234
v 1.089044 -1.1 -0.04999757
v 1.089044 -1.1 0.05000234
v 1.089044 -0.55 -0.04999757
v 1.089044 0 0.05000234
v 1.089044 0 -0.04999757
v 1.089044 0.5500001 0.05000234
v 1.089044 0.5500001 -0.04999757
v 1.089044 1.1 0.05000234
v 1.089044 1.1 -0.04999757
v 1.089044 -1.1 0.05000234
v 1.089044 -1.1 -0.04999757
v -1.66893E-06 -1.1 -0.04999781
v -1.66893E-06 -1.1 0.0500021
v 1.089044 1.1 0.05000234
v 0.939044 0.8293582 0.05000234
v 0.939044 0.8293582 -0.04999757
v 1.089044 1.1 -0.04999757
v -1.66893E-06 1.1 0.0500021
v -1.66893E-06 1.1 -0.04999781
v 1.089044 1.1 -0.04999757
v 1.089044 1.1 0.05000234
v -1.66893E-06 0.5500001 0.0500021
v -1.66893E-06 1.1 -0.04999781
v -1.66893E-06 1.1 0.0500021
v -1.66893E-06 0.5500001 -0.04999781
v -1.66893E-06 0 0.0500021
v -1.66893E-06 0 -0.04999781
v -1.66893E-06 -0.55 0.0500021
v -1.66893E-06 -0.55 -0.04999781
v -1.66893E-06 -1.1 0.0500021
v -1.66893E-06 -1.1 -0.04999781
v 1.089044 0 0.05000234
v 0.939044 -0.1606423 0.05000234
v 0.939044 -0.1606423 -0.04999757
v 1.089044 0 -0.04999757
v 1.089044 -0.55 0.05000234
v 1.089044 -0.55 -0.04999757
v 0.939044 -0.6556422 -0.04999757
v 0.939044 -0.6556422 0.05000234
v 0.5625256 1.090556 0.08975434
v 0.5326886 1.090556 0.05991697
v 0.5823547 1.090556 0.01025081
v 0.6121917 1.090556 0.04008818
v 0.5823547 1.090556 0.01025081
v 0.5823547 -1.120146 0.01025081
v 0.6121917 -1.120146 0.04008818
v 0.6121917 1.090556 0.04008818
v 0.5625256 -1.120146 0.08975434
v 0.6121917 -1.120146 0.04008818
v 0.5823547 -1.120146 0.01025081
v 0.5326886 -1.120146 0.05991697
v 0.5625256 1.090556 0.08975434
v 0.5625256 -1.120146 0.08975434
v 0.5326886 -1.120146 0.05991697
v 0.5326886 1.090556 0.05991697
v 0.6121917 1.090556 0.04008818
v 0.6121917 -1.120146 0.04008818
v 0.5625256 -1.120146 0.08975434
v 0.5625256 1.090556 0.08975434
v 0.5326886 1.090556 0.05991697
v 0.5326886 -1.120146 0.05991697
v 0.5823547 -1.120146 0.01025081
v 0.5823547 1.090556 0.01025081
v 1.089044 -0.55 -0.04999757
v 0.939044 -0.2793577 -0.04999757
v 0.1499984 -0.2793579 -0.04999781
v 0.939044 -0.1606423 -0.04999757
v -1.66893E-06 -0.55 -0.04999781
v 0.1499984 -0.1606423 -0.04999781
v -1.66893E-06 0 -0.04999781
v 1.089044 0 -0.04999757
v 0.939044 -0.6556422 -0.04999757
v 0.1499984 -0.6556422 -0.04999781
v 0.939044 -0.7743578 -0.04999757
v -1.66893E-06 -1.1 -0.04999781
v 1.089044 -1.1 -0.04999757
v 0.1499984 -0.7743578 -0.04999781
v 0.1499984 0.2156421 -0.04999781
v 0.939044 0.2156421 -0.04999757
v 0.1499984 0.334358 -0.04999781
v 0.939044 0.334358 -0.04999757
v -1.66893E-06 0.5500001 -0.04999781
v 1.089044 0.5500001 -0.04999757
v 0.1499984 0.7106421 -0.04999781
v 0.939044 0.7106421 -0.04999757
v 0.1499984 0.8293582 -0.04999781
v -1.66893E-06 1.1 -0.04999781
v 0.939044 0.8293582 -0.04999757
v 1.089044 1.1 -0.04999757
v 1.089044 -0.55 0.05000234
v 0.1499984 -0.2793579 0.0500021
v 0.939044 -0.2793577 0.05000234
v 0.939044 -0.1606423 0.05000234
v -1.66893E-06 -0.55 0.0500021
v 0.1499984 -0.1606423 0.0500021
v -1.66893E-06 0 0.0500021
v 1.089044 0 0.05000234
v 0.939044 -0.6556422 0.05000234
v 1.089044 -1.1 0.05000234
v 0.1499984 -0.6556422 0.0500021
v 0.939044 -0.7743578 0.05000234
v -1.66893E-06 -1.1 0.0500021
v 0.1499984 -0.7743578 0.0500021
v 0.1499984 0.2156421 0.0500021
v 0.939044 0.2156421 0.05000234
v 0.1499984 0.334358 0.0500021
v 1.089044 0.5500001 0.05000234
v -1.66893E-06 0.5500001 0.0500021
v 0.939044 0.334358 0.05000234
v 0.1499984 0.7106421 0.0500021
v 0.939044 0.7106421 0.05000234
v 0.1499984 0.8293582 0.0500021
v 1.089044 1.1 0.05000234
v -1.66893E-06 1.1 0.0500021
v 0.939044 0.8293582 0.05000234
vt 0.01363933 0.5793305
vt 0.01363933 0.5849805
vt 0.01449381 0.5849805
vt 0.01449381 0.5793305
vt 0.00680347 0.5793305
vt 0.00680347 0.5849805
vt 0.007657954 0.5849805
vt 0.007657954 0.5793305
vt 0.07464293 0.5552662
vt 0.07464293 0.5496162
vt 0.07378842 0.5496162
vt 0.07378844 0.5552662
vt 0.00936692 0.5849805
vt 0.00936692 0.5793305
vt 0.008512435 0.5793305
vt 0.008512435 0.5849805
vt 0.01363933 0.5793305
vt 0.01278485 0.5793305
vt 0.01278485 0.5849805
vt 0.01363933 0.5849805
vt 0.003385523 0.5793305
vt 0.002531042 0.5793305
vt 0.002531042 0.5849805
vt 0.003385523 0.5849805
vt 0.07549741 0.5496162
vt 0.07464293 0.5496162
vt 0.07464293 0.5552662
vt 0.07549741 0.5552662
vt 0.0102214 0.5793305
vt 0.00936692 0.5793305
vt 0.00936692 0.5849805
vt 0.0102214 0.5849805
vt 0.2085497 0.5171256
vt 0.2078133 0.5171256
vt 0.2078133 0.5187054
vt 0.2085497 0.5187054
vt 0.2085497 0.5251842
vt 0.2078133 0.5292135
vt 0.2085497 0.5292135
vt 0.2078133 0.5251842
vt 0.2085497 0.5211549
vt 0.2078133 0.5211549
vt 0.2085497 0.5171256
vt 0.2078133 0.5171256
vt 0.2085497 0.5130963
vt 0.2078133 0.5130963
vt 0.185888 0.591677
vt 0.1851516 0.591677
vt 0.1851516 0.5996554
vt 0.185888 0.5996554
vt 0.1445426 0.5993237
vt 0.1445426 0.6014055
vt 0.145279 0.6014055
vt 0.145279 0.5993237
vt 0.1678443 0.6056954
vt 0.1685807 0.6056954
vt 0.1685807 0.5977169
vt 0.1678443 0.5977169
vt 0.2078133 0.5332231
vt 0.2085497 0.5292135
vt 0.2078133 0.5292135
vt 0.2085497 0.5332231
vt 0.2078133 0.5372326
vt 0.2085497 0.5372326
vt 0.2078133 0.5412422
vt 0.2085497 0.5412422
vt 0.2078133 0.5452517
vt 0.2085497 0.5452517
vt 0.1875344 0.5736826
vt 0.1875344 0.5749625
vt 0.1882708 0.5749625
vt 0.1882708 0.5736826
vt 0.1890072 0.5736826
vt 0.1882708 0.5736826
vt 0.1882708 0.5747815
vt 0.1890072 0.5747815
vt 0.4262283 0.7141683
vt 0.4259062 0.7141683
vt 0.4259062 0.7147017
vt 0.4262283 0.7147017
vt 0.4475381 0.683552
vt 0.4475381 0.6667605
vt 0.4473103 0.6667605
vt 0.4473103 0.683552
vt 0.4265505 0.7147017
vt 0.4265505 0.7141683
vt 0.4262283 0.7141683
vt 0.4262283 0.7147017
vt 0.4057851 0.6957869
vt 0.4057851 0.7125785
vt 0.4060129 0.7125785
vt 0.4060129 0.6957869
vt 0.4473103 0.683552
vt 0.4473103 0.6667605
vt 0.446931 0.6667605
vt 0.446931 0.683552
vt 0.4469513 0.6940399
vt 0.4469513 0.7108315
vt 0.4473305 0.7108315
vt 0.4473305 0.6940399
vt 0.1940815 0.5874556
vt 0.1929769 0.5854729
vt 0.1871662 0.5854729
vt 0.1929769 0.5846031
vt 0.1860616 0.5874556
vt 0.1871662 0.5846031
vt 0.1860616 0.5834263
vt 0.1940815 0.5834263
vt 0.1929769 0.5882295
vt 0.1871662 0.5882295
vt 0.1929769 0.5890992
vt 0.1860616 0.5914849
vt 0.1940815 0.5914849
vt 0.1871662 0.5890992
vt 0.1871662 0.5818465
vt 0.1929769 0.5818465
vt 0.1871662 0.5809767
vt 0.1929769 0.5809767
vt 0.1860616 0.579397
vt 0.1940815 0.579397
vt 0.1871662 0.5782201
vt 0.1929769 0.5782201
vt 0.1871662 0.5773504
vt 0.1860616 0.5753676
vt 0.1929769 0.5773503
vt 0.1940815 0.5753676
vt 0.2021014 0.5955142
vt 0.1951861 0.597497
vt 0.2009968 0.597497
vt 0.2009968 0.5983667
vt 0.1940815 0.5955142
vt 0.1951861 0.5983667
vt 0.1940815 0.5995436
vt 0.2021014 0.5995436
vt 0.2009968 0.5947403
vt 0.2021014 0.5914849
vt 0.1951861 0.5947403
vt 0.2009968 0.5938706
vt 0.1940815 0.5914849
vt 0.1951861 0.5938706
vt 0.1951861 0.6011234
vt 0.2009968 0.6011234
vt 0.1951861 0.6019931
vt 0.2021014 0.6035729
vt 0.1940815 0.6035729
vt 0.2009968 0.6019931
vt 0.1951861 0.6047497
vt 0.2009968 0.6047497
vt 0.1951861 0.6056195
vt 0.2021014 0.6076022
vt 0.1940815 0.6076022
vt 0.2009968 0.6056195
vn -3.021607E-07 0 1
vn -3.021607E-07 0 1
vn -3.021607E-07 0 1
vn -3.021607E-07 0 1
vn -3.021607E-07 0 1
vn -3.021607E-07 0 1
vn -3.021607E-07 0 1
vn -3.021607E-07 0 1
vn -3.021607E-07 0 1
vn -3.021607E-07 0 1
vn -3.021607E-07 0 1
vn -3.021607E-07 0 1
vn -3.021607E-07 0 1
vn -3.021607E-07 0 1
vn -3.021607E-07 0 1
vn -3.021607E-07 0 1
vn 3.021607E-07 0 -1
vn 3.021607E-07 0 -1
vn 3.021607E-07 0 -1
vn 3.021607E-07 0 -1
vn 3.021607E-07 0 -1
vn 3.021607E-07 0 -1
vn 3.021607E-07 0 -1
vn 3.021607E-07 0 -1
vn 3.021607E-07 0 -1
vn 3.021607E-07 0 -1
vn 3.021607E-07 0 -1
vn 3.021607E-07 0 -1
vn 3.021607E-07 0 -1
vn 3.021607E-07 0 -1
vn 3.021607E-07 0 -1
vn 3.021607E-07 0 -1
vn 0.8209265 -0.5710339 0
vn 0.8209265 -0.5710339 0
vn 0.8209265 -0.5710339 0
vn 0.8209265 -0.5710339 0
vn 1 0 0
vn 1 0 0
vn 1 0 0
vn 1 0 0
vn 1 0 0
vn 1 0 0
vn 1 0 0
vn 1 0 0
vn 1 0 0
vn 1 0 0
vn 0 -1 0
vn 0 -1 0
vn 0 -1 0
vn 0 -1 0
vn -0.8746461 0.4847621 0
vn -0.8746461 0.4847621 0
vn -0.8746461 0.4847621 0
vn -0.8746461 0.4847621 0
vn 0 1 0
vn 0 1 0
vn 0 1 0
vn 0 1 0
vn -1 0 0
vn -1 0 0
vn -1 0 0
vn -1 0 0
vn -1 0 0
vn -1 0 0
vn -1 0 0
vn -1 0 0
vn -1 0 0
vn -1 0 0
vn -0.7309027 0.6824816 0
vn -0.7309027 0.6824816 0
vn -0.7309027 0.6824816 0
vn -0.7309027 0.6824816 0
vn 0.5758092 -0.8175841 0
vn 0.5758092 -0.8175841 0
vn 0.5758092 -0.8175841 0
vn 0.5758092 -0.8175841 0
vn 0 1 0
vn 0 1 0
vn 0 1 0
vn 0 1 0
vn 0.7071108 0 -0.7071027
vn 0.7071108 0 -0.7071027
vn 0.7071108 0 -0.7071027
vn 0.7071108 0 -0.7071027
vn 0 -1 0
vn 0 -1 0
vn 0 -1 0
vn 0 -1 0
vn -0.7071102 0 0.7071033
vn -0.7071102 0 0.7071033
vn -0.7071102 0 0.7071033
vn -0.7071102 0 0.7071033
vn 0.7071074 0 0.7071061
vn 0.7071074 0 0.7071061
vn 0.7071074 0 0.7071061
vn 0.7071074 0 0.7071061
vn -0.707107 0 -0.7071065
vn -0.707107 0 -0.7071065
vn -0.707107 0 -0.7071065
vn -0.707107 0 -0.7071065
vn 2.538945E-07 0 -1
vn 2.538945E-07 0 -1
vn 0 0 -1
vn 2.538945E-07 0 -1
vn 0 0 -1
vn 0 0 -1
vn 2.538945E-07 0 -1
vn 2.538945E-07 0 -1
vn 2.538945E-07 0 -1
vn 0 0 -1
vn 2.538945E-07 0 -1
vn 0 0 -1
vn 2.538945E-07 0 -1
vn 0 0 -1
vn 2.538945E-07 0 -1
vn 2.538945E-07 0 -1
vn 2.538945E-07 0 -1
vn 2.538945E-07 0 -1
vn 2.538945E-07 0 -1
vn 2.538945E-07 0 -1
vn 2.538945E-07 0 -1
vn 2.538945E-07 0 -1
vn 0 0 -1
vn 0 0 -1
vn 2.538945E-07 0 -1
vn 2.538945E-07 0 -1
vn -2.538945E-07 0 1
vn -2.538945E-07 0 1
vn -2.538945E-07 0 1
vn -2.538945E-07 0 1
vn 0 0 1
vn 0 0 1
vn -2.538945E-07 0 1
vn -2.538945E-07 0 1
vn -2.538945E-07 0 1
vn -2.538945E-07 0 1
vn 0 0 1
vn -2.538945E-07 0 1
vn -2.538945E-07 0 1
vn -2.538945E-07 0 1
vn -2.538945E-07 0 1
vn -2.538945E-07 0 1
vn 0 0 1
vn -2.538945E-07 0 1
vn -2.538945E-07 0 1
vn -2.538945E-07 0 1
vn -2.538945E-07 0 1
vn -2.538945E-07 0 1
vn 0 0 1
vn -2.538945E-07 0 1
vn 0 0 1
vn -2.538945E-07 0 1
g cargo-shipping-door_R_red_0
f 3/3/3 2/2/2 1/1/1
f 4/4/4 3/3/3 1/1/1
f 7/7/7 6/6/6 5/5/5
f 8/8/8 7/7/7 5/5/5
f 11/11/11 10/10/10 9/9/9
f 12/12/12 11/11/11 9/9/9
f 15/15/15 14/14/14 13/13/13
f 16/16/16 15/15/15 13/13/13
f 19/19/19 18/18/18 17/17/17
f 20/20/20 19/19/19 17/17/17
f 23/23/23 22/22/22 21/21/21
f 24/24/24 23/23/23 21/21/21
f 27/27/27 26/26/26 25/25/25
f 28/28/28 27/27/27 25/25/25
f 31/31/31 30/30/30 29/29/29
f 32/32/32 31/31/31 29/29/29
f 35/35/35 34/34/34 33/33/33
f 36/36/36 35/35/35 33/33/33
f 39/39/39 38/38/38 37/37/37
f 38/38/38 40/40/40 37/37/37
f 37/37/37 40/40/40 41/41/41
f 40/40/40 42/42/42 41/41/41
f 41/41/41 42/42/42 43/43/43
f 42/42/42 44/44/44 43/43/43
f 43/43/43 44/44/44 45/45/45
f 44/44/44 46/46/46 45/45/45
f 49/49/49 48/48/48 47/47/47
f 50/50/50 49/49/49 47/47/47
f 53/53/53 52/52/52 51/51/51
f 54/54/54 53/53/53 51/51/51
f 57/57/57 56/56/56 55/55/55
f 58/58/58 57/57/57 55/55/55
f 61/61/61 60/60/60 59/59/59
f 60/60/60 62/62/62 59/59/59
f 59/59/59 62/62/62 63/63/63
f 62/62/62 64/64/64 63/63/63
f 63/63/63 64/64/64 65/65/65
f 64/64/64 66/66/66 65/65/65
f 65/65/65 66/66/66 67/67/67
f 66/66/66 68/68/68 67/67/67
f 71/71/71 70/70/70 69/69/69
f 72/72/72 71/71/71 69/69/69
f 75/75/75 74/74/74 73/73/73
f 76/76/76 75/75/75 73/73/73
f 79/79/79 78/78/78 77/77/77
f 80/80/80 79/79/79 77/77/77
f 83/83/83 82/82/82 81/81/81
f 84/84/84 83/83/83 81/81/81
f 87/87/87 86/86/86 85/85/85
f 88/88/88 87/87/87 85/85/85
f 91/91/91 90/90/90 89/89/89
f 92/92/92 91/91/91 89/89/89
f 95/95/95 94/94/94 93/93/93
f 96/96/96 95/95/95 93/93/93
f 99/99/99 98/98/98 97/97/97
f 100/100/100 99/99/99 97/97/97
f 103/103/103 102/102/102 101/101/101
f 102/102/102 104/104/104 101/101/101
f 105/105/105 103/103/103 101/101/101
f 106/106/106 103/103/103 105/105/105
f 104/104/104 106/106/106 107/107/107
f 107/107/107 106/106/106 105/105/105
f 104/104/104 108/108/108 101/101/101
f 108/108/108 104/104/104 107/107/107
f 101/101/101 109/109/109 105/105/105
f 109/109/109 110/110/110 105/105/105
f 109/109/109 101/101/101 111/111/111
f 105/105/105 110/110/110 112/112/112
f 101/101/101 113/113/113 111/111/111
f 110/110/110 114/114/114 112/112/112
f 114/114/114 111/111/111 113/113/113
f 112/112/112 114/114/114 113/113/113
f 107/107/107 115/115/115 108/108/108
f 115/115/115 116/116/116 108/108/108
f 117/117/117 115/115/115 107/107/107
f 108/108/108 116/116/116 118/118/118
f 119/119/119 117/117/117 107/107/107
f 118/118/118 117/117/117 119/119/119
f 120/120/120 108/108/108 118/118/118
f 120/120/120 118/118/118 119/119/119
f 119/119/119 121/121/121 120/120/120
f 121/121/121 122/122/122 120/120/120
f 123/123/123 121/121/121 119/119/119
f 124/124/124 123/123/123 119/119/119
f 120/120/120 122/122/122 125/125/125
f 125/125/125 123/123/123 124/124/124
f 126/126/126 120/120/120 125/125/125
f 126/126/126 125/125/125 124/124/124
f 129/129/129 128/128/128 127/127/127
f 130/130/130 129/129/129 127/127/127
f 128/128/128 131/131/131 127/127/127
f 128/128/128 132/132/132 131/131/131
f 132/132/132 130/130/130 133/133/133
f 132/132/132 133/133/133 131/131/131
f 134/134/134 130/130/130 127/127/127
f 130/130/130 134/134/134 133/133/133
f 135/135/135 127/127/127 131/131/131
f 127/127/127 135/135/135 136/136/136
f 137/137/137 135/135/135 131/131/131
f 135/135/135 138/138/138 136/136/136
f 137/137/137 131/131/131 139/139/139
f 138/138/138 140/140/140 136/136/136
f 140/140/140 139/139/139 136/136/136
f 140/140/140 137/137/137 139/139/139
f 141/141/141 133/133/133 134/134/134
f 142/142/142 141/141/141 134/134/134
f 141/141/141 143/143/143 133/133/133
f 142/142/142 134/134/134 144/144/144
f 143/143/143 145/145/145 133/133/133
f 146/146/146 142/142/142 144/144/144
f 143/143/143 146/146/146 145/145/145
f 146/146/146 144/144/144 145/145/145
f 147/147/147 145/145/145 144/144/144
f 148/148/148 147/147/147 144/144/144
f 147/147/147 149/149/149 145/145/145
f 148/148/148 144/144/144 150/150/150
f 149/149/149 151/151/151 145/145/145
f 152/152/152 148/148/148 150/150/150
f 152/152/152 150/150/150 151/151/151
f 149/149/149 152/152/152 151/151/151
