g CHamfCyl_PuckN
v 0 -0.05 0.48
v 0 0.05 0.48
v -0.1242331 -0.05 0.4636444
v -0.1242331 0.05 0.4636444
v -0.24 -0.05 0.4156922
v -0.24 0.05 0.4156922
v -0.3394112 -0.05 0.3394112
v -0.3394112 0.05 0.3394112
v -0.4156922 -0.05 0.24
v -0.4156922 0.05 0.24
v -0.4636444 -0.05 0.1242331
v -0.4636444 0.05 0.1242331
v -0.48 -0.05 -2.098147E-08
v -0.48 0.05 -2.098147E-08
v -0.4636444 -0.05 -0.1242332
v -0.4636444 0.05 -0.1242332
v -0.4156922 -0.05 -0.24
v -0.4156922 0.05 -0.24
v -0.3394112 -0.05 -0.3394112
v -0.3394112 0.05 -0.3394112
v -0.24 -0.05 -0.4156922
v -0.24 0.05 -0.4156922
v -0.1242331 -0.05 -0.4636444
v -0.1242331 0.05 -0.4636444
v 4.196293E-08 -0.05 -0.48
v 4.196293E-08 0.05 -0.48
v 0.1242331 -0.05 -0.4636444
v 0.1242331 0.05 -0.4636444
v 0.2400001 -0.05 -0.4156921
v 0.2400001 0.05 -0.4156921
v 0.3394113 -0.05 -0.3394112
v 0.3394113 0.05 -0.3394112
v 0.4156922 -0.05 -0.2399999
v 0.4156922 0.05 -0.2399999
v 0.4636444 -0.05 -0.1242331
v 0.4636444 0.05 -0.1242331
v 0.48 -0.05 5.723943E-09
v 0.48 0.05 5.723943E-09
v 0.4636444 -0.05 0.1242331
v 0.4636444 0.05 0.1242331
v 0.4156922 -0.05 0.2399999
v 0.4156922 0.05 0.2399999
v 0.3394111 -0.05 0.3394113
v 0.3394111 0.05 0.3394113
v 0.2399999 -0.05 0.4156923
v 0.2399999 0.05 0.4156923
v 0.124233 -0.05 0.4636444
v 0.124233 0.05 0.4636444
v -8.392586E-08 -0.05 0.48
v -8.392586E-08 0.05 0.48
v 0 0.1 0
v 0 0.1 0.43
v -0.1112922 0.1 0.4153481
v -0.215 0.1 0.3723909
v -0.3040559 0.1 0.3040559
v -0.3723909 0.1 0.215
v -0.4153481 0.1 0.1112922
v -0.43 0.1 -1.87959E-08
v -0.4153481 0.1 -0.1112922
v -0.3723909 0.1 -0.215
v -0.3040559 0.1 -0.3040559
v -0.215 0.1 -0.3723909
v -0.1112921 0.1 -0.4153481
v 3.759179E-08 0.1 -0.43
v 0.1112922 0.1 -0.4153481
v 0.2150001 0.1 -0.3723908
v 0.304056 0.1 -0.3040558
v 0.3723909 0.1 -0.2149999
v 0.4153481 0.1 -0.1112922
v 0.43 0.1 5.127698E-09
v 0.4153481 0.1 0.1112922
v 0.3723909 0.1 0.2149999
v 0.3040558 0.1 0.304056
v 0.2149999 0.1 0.372391
v 0.1112921 0.1 0.4153481
v -7.518359E-08 0.1 0.43
v 0 -0.1 0
v -7.518359E-08 -0.1 0.43
v 0.1112921 -0.1 0.4153481
v 0.2149999 -0.1 0.372391
v 0.3040558 -0.1 0.304056
v 0.3723909 -0.1 0.2149999
v 0.4153481 -0.1 0.1112922
v 0.43 -0.1 5.127698E-09
v 0.4153481 -0.1 -0.1112922
v 0.3723909 -0.1 -0.2149999
v 0.304056 -0.1 -0.3040558
v 0.2150001 -0.1 -0.3723908
v 0.1112922 -0.1 -0.4153481
v 3.759179E-08 -0.1 -0.43
v -0.1112921 -0.1 -0.4153481
v -0.215 -0.1 -0.3723909
v -0.3040559 -0.1 -0.3040559
v -0.3723909 -0.1 -0.215
v -0.4153481 -0.1 -0.1112922
v -0.43 -0.1 -1.87959E-08
v -0.4153481 -0.1 0.1112922
v -0.3723909 -0.1 0.215
v -0.3040559 -0.1 0.3040559
v -0.215 -0.1 0.3723909
v -0.1112922 -0.1 0.4153481
v 0 -0.1 0.43
v 0 -0.1 0.43001
v 0 -0.05 0.48001
v -0.1112948 -0.1 0.4153577
v -0.1242357 -0.05 0.463654
v -0.215005 -0.1 0.3723996
v -0.240005 -0.05 0.4157009
v -0.304063 -0.1 0.304063
v -0.3394183 -0.05 0.3394183
v -0.3723996 -0.1 0.215005
v -0.4157009 -0.05 0.240005
v -0.4153577 -0.1 0.1112948
v -0.463654 -0.05 0.1242357
v -0.43001 -0.1 -1.879633E-08
v -0.48001 -0.05 -2.09819E-08
v -0.4153577 -0.1 -0.1112948
v -0.463654 -0.05 -0.1242358
v -0.3723996 -0.1 -0.215005
v -0.4157009 -0.05 -0.240005
v -0.304063 -0.1 -0.304063
v -0.3394183 -0.05 -0.3394183
v -0.215005 -0.1 -0.3723996
v -0.240005 -0.05 -0.4157009
v -0.1112947 -0.1 -0.4153578
v -0.1242357 -0.05 -0.4636541
v 3.759267E-08 -0.1 -0.43001
v 4.19638E-08 -0.05 -0.48001
v 0.1112948 -0.1 -0.4153577
v 0.1242357 -0.05 -0.463654
v 0.2150051 -0.1 -0.3723995
v 0.2400051 -0.05 -0.4157008
v 0.304063 -0.1 -0.3040629
v 0.3394184 -0.05 -0.3394183
v 0.3723996 -0.1 -0.215005
v 0.4157009 -0.05 -0.2400049
v 0.4153578 -0.1 -0.1112947
v 0.4636541 -0.05 -0.1242357
v 0.43001 -0.1 5.127818E-09
v 0.48001 -0.05 5.724062E-09
v 0.4153577 -0.1 0.1112948
v 0.463654 -0.05 0.1242357
v 0.3723996 -0.1 0.215005
v 0.4157009 -0.05 0.2400049
v 0.3040629 -0.1 0.3040631
v 0.3394182 -0.05 0.3394184
v 0.2150049 -0.1 0.3723997
v 0.2400049 -0.05 0.4157009
v 0.1112947 -0.1 0.4153578
v 0.1242356 -0.05 0.4636541
v -7.518533E-08 -0.1 0.43001
v -8.392761E-08 -0.05 0.48001
v 0 0.05 0.48001
v 0 0.1 0.43001
v -0.1242357 0.05 0.463654
v -0.1112948 0.1 0.4153577
v -0.240005 0.05 0.4157009
v -0.215005 0.1 0.3723996
v -0.3394183 0.05 0.3394183
v -0.304063 0.1 0.304063
v -0.4157009 0.05 0.240005
v -0.3723996 0.1 0.215005
v -0.463654 0.05 0.1242357
v -0.4153577 0.1 0.1112948
v -0.48001 0.05 -2.09819E-08
v -0.43001 0.1 -1.879633E-08
v -0.463654 0.05 -0.1242358
v -0.4153577 0.1 -0.1112948
v -0.4157009 0.05 -0.240005
v -0.3723996 0.1 -0.215005
v -0.3394183 0.05 -0.3394183
v -0.304063 0.1 -0.304063
v -0.240005 0.05 -0.4157009
v -0.215005 0.1 -0.3723996
v -0.1242357 0.05 -0.4636541
v -0.1112947 0.1 -0.4153578
v 4.19638E-08 0.05 -0.48001
v 3.759267E-08 0.1 -0.43001
v 0.1242357 0.05 -0.463654
v 0.1112948 0.1 -0.4153577
v 0.2400051 0.05 -0.4157008
v 0.2150051 0.1 -0.3723995
v 0.3394184 0.05 -0.3394183
v 0.304063 0.1 -0.3040629
v 0.4157009 0.05 -0.2400049
v 0.3723996 0.1 -0.215005
v 0.4636541 0.05 -0.1242357
v 0.4153578 0.1 -0.1112947
v 0.48001 0.05 5.724062E-09
v 0.43001 0.1 5.127818E-09
v 0.463654 0.05 0.1242357
v 0.4153577 0.1 0.1112948
v 0.4157009 0.05 0.2400049
v 0.3723996 0.1 0.215005
v 0.3394182 0.05 0.3394184
v 0.3040629 0.1 0.3040631
v 0.2400049 0.05 0.4157009
v 0.2150049 0.1 0.3723997
v 0.1242356 0.05 0.4636541
v 0.1112947 0.1 0.4153578
v -8.392761E-08 0.05 0.48001
v -7.518533E-08 0.1 0.43001
vt 0 0
vt 0 1
vt -0.04166667 0
vt -0.04166667 1
vt -0.08333334 0
vt -0.08333334 1
vt -0.125 0
vt -0.125 1
vt -0.1666667 0
vt -0.1666667 1
vt -0.2083333 0
vt -0.2083333 1
vt -0.25 0
vt -0.25 1
vt -0.2916667 0
vt -0.2916667 1
vt -0.3333333 0
vt -0.3333333 1
vt -0.375 0
vt -0.375 1
vt -0.4166667 0
vt -0.4166667 1
vt -0.4583333 0
vt -0.4583333 1
vt -0.5 0
vt -0.5 1
vt -0.5416667 0
vt -0.5416667 1
vt -0.5833334 0
vt -0.5833334 1
vt -0.625 0
vt -0.625 1
vt -0.6666667 0
vt -0.6666667 1
vt -0.7083334 0
vt -0.7083334 1
vt -0.75 0
vt -0.75 1
vt -0.7916667 0
vt -0.7916667 1
vt -0.8333334 0
vt -0.8333334 1
vt -0.875 0
vt -0.875 1
vt -0.9166667 0
vt -0.9166667 1
vt -0.9583334 0
vt -0.9583334 1
vt -1 0
vt -1 1
vt 0.5 0.5
vt 0.5 1
vt 0.6294096 0.9829629
vt 0.75 0.9330127
vt 0.8535534 0.8535534
vt 0.9330127 0.75
vt 0.9829629 0.6294096
vt 1 0.5
vt 0.9829629 0.3705904
vt 0.9330127 0.25
vt 0.8535534 0.1464466
vt 0.75 0.06698731
vt 0.6294094 0.01703706
vt 0.5 0
vt 0.3705904 0.01703709
vt 0.2499999 0.06698737
vt 0.1464466 0.1464467
vt 0.06698728 0.2500001
vt 0.01703706 0.3705905
vt 0 0.5
vt 0.01703709 0.6294095
vt 0.06698728 0.7499999
vt 0.1464467 0.8535535
vt 0.2500001 0.9330128
vt 0.3705906 0.982963
vt 0.5000001 1
vt 0.5 0.5
vt 0.5000001 1
vt 0.3705906 0.982963
vt 0.2500001 0.9330128
vt 0.1464467 0.8535535
vt 0.06698728 0.7499999
vt 0.01703709 0.6294095
vt 0 0.5
vt 0.01703706 0.3705905
vt 0.06698728 0.2500001
vt 0.1464466 0.1464467
vt 0.2499999 0.06698737
vt 0.3705904 0.01703709
vt 0.5 0
vt 0.6294094 0.01703706
vt 0.75 0.06698731
vt 0.8535534 0.1464466
vt 0.9330127 0.25
vt 0.9829629 0.3705904
vt 1 0.5
vt 0.9829629 0.6294096
vt 0.9330127 0.75
vt 0.8535534 0.8535534
vt 0.75 0.9330127
vt 0.6294096 0.9829629
vt 0.5 1
vt 0 0
vt 0 0.5
vt -0.04166667 0
vt -0.04166667 0.5
vt -0.08333334 0
vt -0.08333334 0.5
vt -0.125 0
vt -0.125 0.5
vt -0.1666667 0
vt -0.1666667 0.5
vt -0.2083333 0
vt -0.2083333 0.5
vt -0.25 0
vt -0.25 0.5
vt -0.2916667 0
vt -0.2916667 0.5
vt -0.3333333 0
vt -0.3333333 0.5
vt -0.375 0
vt -0.375 0.5
vt -0.4166667 0
vt -0.4166667 0.5
vt -0.4583333 0
vt -0.4583333 0.5
vt -0.5 0
vt -0.5 0.5
vt -0.5416667 0
vt -0.5416667 0.5
vt -0.5833334 0
vt -0.5833334 0.5
vt -0.625 0
vt -0.625 0.5
vt -0.6666667 0
vt -0.6666667 0.5
vt -0.7083334 0
vt -0.7083334 0.5
vt -0.75 0
vt -0.75 0.5
vt -0.7916667 0
vt -0.7916667 0.5
vt -0.8333334 0
vt -0.8333334 0.5
vt -0.875 0
vt -0.875 0.5
vt -0.9166667 0
vt -0.9166667 0.5
vt -0.9583334 0
vt -0.9583334 0.5
vt -1 0
vt -1 0.5
vt 0 0.5
vt 0 1
vt -0.04166667 0.5
vt -0.04166667 1
vt -0.08333334 0.5
vt -0.08333334 1
vt -0.125 0.5
vt -0.125 1
vt -0.1666667 0.5
vt -0.1666667 1
vt -0.2083333 0.5
vt -0.2083333 1
vt -0.25 0.5
vt -0.25 1
vt -0.2916667 0.5
vt -0.2916667 1
vt -0.3333333 0.5
vt -0.3333333 1
vt -0.375 0.5
vt -0.375 1
vt -0.4166667 0.5
vt -0.4166667 1
vt -0.4583333 0.5
vt -0.4583333 1
vt -0.5 0.5
vt -0.5 1
vt -0.5416667 0.5
vt -0.5416667 1
vt -0.5833334 0.5
vt -0.5833334 1
vt -0.625 0.5
vt -0.625 1
vt -0.6666667 0.5
vt -0.6666667 1
vt -0.7083334 0.5
vt -0.7083334 1
vt -0.75 0.5
vt -0.75 1
vt -0.7916667 0.5
vt -0.7916667 1
vt -0.8333334 0.5
vt -0.8333334 1
vt -0.875 0.5
vt -0.875 1
vt -0.9166667 0.5
vt -0.9166667 1
vt -0.9583334 0.5
vt -0.9583334 1
vt -1 0.5
vt -1 1
vn 0 0 1
vn 0 0 1
vn -0.258819 0 0.9659258
vn -0.258819 0 0.9659258
vn -0.5 0 0.8660254
vn -0.5 0 0.8660254
vn -0.7071068 0 0.7071068
vn -0.7071068 0 0.7071068
vn -0.8660254 0 0.5
vn -0.8660254 0 0.5
vn -0.9659258 0 0.2588191
vn -0.9659258 0 0.2588191
vn -1 0 -4.371139E-08
vn -1 0 -4.371139E-08
vn -0.9659258 0 -0.2588192
vn -0.9659258 0 -0.2588192
vn -0.8660254 0 -0.5000001
vn -0.8660254 0 -0.5000001
vn -0.7071068 0 -0.7071068
vn -0.7071068 0 -0.7071068
vn -0.5000001 0 -0.8660254
vn -0.5000001 0 -0.8660254
vn -0.2588189 0 -0.9659259
vn -0.2588189 0 -0.9659259
vn 8.742278E-08 0 -1
vn 8.742278E-08 0 -1
vn 0.2588191 0 -0.9659258
vn 0.2588191 0 -0.9659258
vn 0.5000002 0 -0.8660253
vn 0.5000002 0 -0.8660253
vn 0.7071069 0 -0.7071067
vn 0.7071069 0 -0.7071067
vn 0.8660254 0 -0.4999999
vn 0.8660254 0 -0.4999999
vn 0.9659258 0 -0.258819
vn 0.9659258 0 -0.258819
vn 1 0 1.192488E-08
vn 1 0 1.192488E-08
vn 0.9659258 0 0.258819
vn 0.9659258 0 0.258819
vn 0.8660254 0 0.4999999
vn 0.8660254 0 0.4999999
vn 0.7071065 0 0.707107
vn 0.7071065 0 0.707107
vn 0.4999998 0 0.8660256
vn 0.4999998 0 0.8660256
vn 0.2588188 0 0.9659259
vn 0.2588188 0 0.9659259
vn -1.748456E-07 0 1
vn -1.748456E-07 0 1
vn 0 1 0
vn 0 1 0
vn 0 1 0
vn 0 1 0
vn 0 1 0
vn 0 1 0
vn 0 1 0
vn 0 1 0
vn 0 1 0
vn 0 1 0
vn 0 1 0
vn 0 1 0
vn 0 1 0
vn 0 1 0
vn 0 1 0
vn 0 1 0
vn 0 1 0
vn 0 1 0
vn 0 1 0
vn 0 1 0
vn 0 1 0
vn 0 1 0
vn 0 1 0
vn 0 1 0
vn 0 1 0
vn 0 1 0
vn 0 -1 0
vn 0 -1 0
vn 0 -1 0
vn 0 -1 0
vn 0 -1 0
vn 0 -1 0
vn 0 -1 0
vn 0 -1 0
vn 0 -1 0
vn 0 -1 0
vn 0 -1 0
vn 0 -1 0
vn 0 -1 0
vn 0 -1 0
vn 0 -1 0
vn 0 -1 0
vn 0 -1 0
vn 0 -1 0
vn 0 -1 0
vn 0 -1 0
vn 0 -1 0
vn 0 -1 0
vn 0 -1 0
vn 0 -1 0
vn 0 -1 0
vn 0 -1 0
vn 0 -1 0
vn 0 -7.450579E-08 1
vn 0 -1 0
vn -0.258819 -7.450579E-08 0.9659258
vn 0 -1 0
vn -0.5 -7.450578E-08 0.8660254
vn 0 -1 0
vn -0.7071068 -7.450583E-08 0.7071068
vn 0 -1 0
vn -0.8660254 -7.450578E-08 0.5
vn 0 -1 0
vn -0.9659258 -7.450579E-08 0.258819
vn 0 -1 0
vn -1 -7.450579E-08 -4.371137E-08
vn 0 -1 0
vn -0.9659258 -7.450579E-08 -0.2588191
vn 0 -1 0
vn -0.8660254 -7.450578E-08 -0.5
vn 0 -1 0
vn -0.7071068 -7.450583E-08 -0.7071068
vn 0 -1 0
vn -0.5 -7.450578E-08 -0.8660254
vn 0 -1 0
vn -0.2588188 -7.450579E-08 -0.9659259
vn 0 -1 0
vn 8.742274E-08 -7.450579E-08 -1
vn 0 -1 0
vn 0.258819 -7.450579E-08 -0.9659258
vn 0 -1 0
vn 0.5000002 -7.450582E-08 -0.8660253
vn 0 -1 0
vn 0.7071068 -7.450583E-08 -0.7071068
vn 0 -1 0
vn 0.8660256 -7.450579E-08 -0.4999997
vn 0 -1 0
vn 0.9659258 -7.450579E-08 -0.258819
vn 0 -1 0
vn 1 -7.450579E-08 1.192488E-08
vn 0 -1 0
vn 0.9659258 -7.450579E-08 0.258819
vn 0 -1 0
vn 0.8660256 -7.450579E-08 0.4999997
vn 0 -1 0
vn 0.7071065 -7.450579E-08 0.7071071
vn 0 -1 0
vn 0.4999997 -7.450579E-08 0.8660256
vn 0 -1 0
vn 0.2588188 -7.450579E-08 0.9659259
vn 0 -1 0
vn -1.748455E-07 -7.450579E-08 1
vn 0 -7.450579E-08 1
vn 0 1 0
vn -0.258819 -7.450579E-08 0.9659258
vn 0 1 0
vn -0.5 -7.450578E-08 0.8660254
vn 0 1 0
vn -0.7071068 -7.450583E-08 0.7071068
vn 0 1 0
vn -0.8660254 -7.450578E-08 0.5
vn 0 1 0
vn -0.9659258 -7.450579E-08 0.258819
vn 0 1 0
vn -1 -7.450579E-08 -4.371137E-08
vn 0 1 0
vn -0.9659258 -7.450579E-08 -0.2588191
vn 0 1 0
vn -0.8660254 -7.450578E-08 -0.5
vn 0 1 0
vn -0.7071068 -7.450583E-08 -0.7071068
vn 0 1 0
vn -0.5 -7.450578E-08 -0.8660254
vn 0 1 0
vn -0.2588188 -7.450579E-08 -0.9659259
vn 0 1 0
vn 8.742274E-08 -7.450579E-08 -1
vn 0 1 0
vn 0.258819 -7.450579E-08 -0.9659258
vn 0 1 0
vn 0.5000002 -7.450582E-08 -0.8660253
vn 0 1 0
vn 0.7071068 -7.450583E-08 -0.7071068
vn 0 1 0
vn 0.8660256 -7.450579E-08 -0.4999997
vn 0 1 0
vn 0.9659258 -7.450579E-08 -0.258819
vn 0 1 0
vn 1 -7.450579E-08 1.192488E-08
vn 0 1 0
vn 0.9659258 -7.450579E-08 0.258819
vn 0 1 0
vn 0.8660256 -7.450579E-08 0.4999997
vn 0 1 0
vn 0.7071065 -7.450579E-08 0.7071071
vn 0 1 0
vn 0.4999997 -7.450579E-08 0.8660256
vn 0 1 0
vn 0.2588188 -7.450579E-08 0.9659259
vn 0 1 0
vn -1.748455E-07 -7.450579E-08 1
vn 0 1 0
g CHamfCyl_PuckN_0
f 2/2/2 4/4/4 3/3/3
f 3/3/3 1/1/1 2/2/2
f 4/4/4 6/6/6 5/5/5
f 5/5/5 3/3/3 4/4/4
f 6/6/6 8/8/8 7/7/7
f 7/7/7 5/5/5 6/6/6
f 8/8/8 10/10/10 9/9/9
f 9/9/9 7/7/7 8/8/8
f 10/10/10 12/12/12 11/11/11
f 11/11/11 9/9/9 10/10/10
f 12/12/12 14/14/14 13/13/13
f 13/13/13 11/11/11 12/12/12
f 14/14/14 16/16/16 15/15/15
f 15/15/15 13/13/13 14/14/14
f 16/16/16 18/18/18 17/17/17
f 17/17/17 15/15/15 16/16/16
f 18/18/18 20/20/20 19/19/19
f 19/19/19 17/17/17 18/18/18
f 20/20/20 22/22/22 21/21/21
f 21/21/21 19/19/19 20/20/20
f 22/22/22 24/24/24 23/23/23
f 23/23/23 21/21/21 22/22/22
f 24/24/24 26/26/26 25/25/25
f 25/25/25 23/23/23 24/24/24
f 26/26/26 28/28/28 27/27/27
f 27/27/27 25/25/25 26/26/26
f 28/28/28 30/30/30 29/29/29
f 29/29/29 27/27/27 28/28/28
f 30/30/30 32/32/32 31/31/31
f 31/31/31 29/29/29 30/30/30
f 32/32/32 34/34/34 33/33/33
f 33/33/33 31/31/31 32/32/32
f 34/34/34 36/36/36 35/35/35
f 35/35/35 33/33/33 34/34/34
f 36/36/36 38/38/38 37/37/37
f 37/37/37 35/35/35 36/36/36
f 38/38/38 40/40/40 39/39/39
f 39/39/39 37/37/37 38/38/38
f 40/40/40 42/42/42 41/41/41
f 41/41/41 39/39/39 40/40/40
f 42/42/42 44/44/44 43/43/43
f 43/43/43 41/41/41 42/42/42
f 44/44/44 46/46/46 45/45/45
f 45/45/45 43/43/43 44/44/44
f 46/46/46 48/48/48 47/47/47
f 47/47/47 45/45/45 46/46/46
f 48/48/48 50/50/50 49/49/49
f 49/49/49 47/47/47 48/48/48
f 53/53/53 52/52/52 51/51/51
f 54/54/54 53/53/53 51/51/51
f 55/55/55 54/54/54 51/51/51
f 56/56/56 55/55/55 51/51/51
f 57/57/57 56/56/56 51/51/51
f 58/58/58 57/57/57 51/51/51
f 59/59/59 58/58/58 51/51/51
f 60/60/60 59/59/59 51/51/51
f 61/61/61 60/60/60 51/51/51
f 62/62/62 61/61/61 51/51/51
f 63/63/63 62/62/62 51/51/51
f 64/64/64 63/63/63 51/51/51
f 65/65/65 64/64/64 51/51/51
f 66/66/66 65/65/65 51/51/51
f 67/67/67 66/66/66 51/51/51
f 68/68/68 67/67/67 51/51/51
f 69/69/69 68/68/68 51/51/51
f 70/70/70 69/69/69 51/51/51
f 71/71/71 70/70/70 51/51/51
f 72/72/72 71/71/71 51/51/51
f 73/73/73 72/72/72 51/51/51
f 74/74/74 73/73/73 51/51/51
f 75/75/75 74/74/74 51/51/51
f 76/76/76 75/75/75 51/51/51
f 79/79/79 78/78/78 77/77/77
f 80/80/80 79/79/79 77/77/77
f 81/81/81 80/80/80 77/77/77
f 82/82/82 81/81/81 77/77/77
f 83/83/83 82/82/82 77/77/77
f 84/84/84 83/83/83 77/77/77
f 85/85/85 84/84/84 77/77/77
f 86/86/86 85/85/85 77/77/77
f 87/87/87 86/86/86 77/77/77
f 88/88/88 87/87/87 77/77/77
f 89/89/89 88/88/88 77/77/77
f 90/90/90 89/89/89 77/77/77
f 91/91/91 90/90/90 77/77/77
f 92/92/92 91/91/91 77/77/77
f 93/93/93 92/92/92 77/77/77
f 94/94/94 93/93/93 77/77/77
f 95/95/95 94/94/94 77/77/77
f 96/96/96 95/95/95 77/77/77
f 97/97/97 96/96/96 77/77/77
f 98/98/98 97/97/97 77/77/77
f 99/99/99 98/98/98 77/77/77
f 100/100/100 99/99/99 77/77/77
f 101/101/101 100/100/100 77/77/77
f 102/102/102 101/101/101 77/77/77
f 104/104/104 106/106/106 105/105/105
f 105/105/105 103/103/103 104/104/104
f 106/106/106 108/108/108 107/107/107
f 107/107/107 105/105/105 106/106/106
f 108/108/108 110/110/110 109/109/109
f 109/109/109 107/107/107 108/108/108
f 110/110/110 112/112/112 111/111/111
f 111/111/111 109/109/109 110/110/110
f 112/112/112 114/114/114 113/113/113
f 113/113/113 111/111/111 112/112/112
f 114/114/114 116/116/116 115/115/115
f 115/115/115 113/113/113 114/114/114
f 116/116/116 118/118/118 117/117/117
f 117/117/117 115/115/115 116/116/116
f 118/118/118 120/120/120 119/119/119
f 119/119/119 117/117/117 118/118/118
f 120/120/120 122/122/122 121/121/121
f 121/121/121 119/119/119 120/120/120
f 122/122/122 124/124/124 123/123/123
f 123/123/123 121/121/121 122/122/122
f 124/124/124 126/126/126 125/125/125
f 125/125/125 123/123/123 124/124/124
f 126/126/126 128/128/128 127/127/127
f 127/127/127 125/125/125 126/126/126
f 128/128/128 130/130/130 129/129/129
f 129/129/129 127/127/127 128/128/128
f 130/130/130 132/132/132 131/131/131
f 131/131/131 129/129/129 130/130/130
f 132/132/132 134/134/134 133/133/133
f 133/133/133 131/131/131 132/132/132
f 134/134/134 136/136/136 135/135/135
f 135/135/135 133/133/133 134/134/134
f 136/136/136 138/138/138 137/137/137
f 137/137/137 135/135/135 136/136/136
f 138/138/138 140/140/140 139/139/139
f 139/139/139 137/137/137 138/138/138
f 140/140/140 142/142/142 141/141/141
f 141/141/141 139/139/139 140/140/140
f 142/142/142 144/144/144 143/143/143
f 143/143/143 141/141/141 142/142/142
f 144/144/144 146/146/146 145/145/145
f 145/145/145 143/143/143 144/144/144
f 146/146/146 148/148/148 147/147/147
f 147/147/147 145/145/145 146/146/146
f 148/148/148 150/150/150 149/149/149
f 149/149/149 147/147/147 148/148/148
f 150/150/150 152/152/152 151/151/151
f 151/151/151 149/149/149 150/150/150
f 154/154/154 156/156/156 155/155/155
f 155/155/155 153/153/153 154/154/154
f 156/156/156 158/158/158 157/157/157
f 157/157/157 155/155/155 156/156/156
f 158/158/158 160/160/160 159/159/159
f 159/159/159 157/157/157 158/158/158
f 160/160/160 162/162/162 161/161/161
f 161/161/161 159/159/159 160/160/160
f 162/162/162 164/164/164 163/163/163
f 163/163/163 161/161/161 162/162/162
f 164/164/164 166/166/166 165/165/165
f 165/165/165 163/163/163 164/164/164
f 166/166/166 168/168/168 167/167/167
f 167/167/167 165/165/165 166/166/166
f 168/168/168 170/170/170 169/169/169
f 169/169/169 167/167/167 168/168/168
f 170/170/170 172/172/172 171/171/171
f 171/171/171 169/169/169 170/170/170
f 172/172/172 174/174/174 173/173/173
f 173/173/173 171/171/171 172/172/172
f 174/174/174 176/176/176 175/175/175
f 175/175/175 173/173/173 174/174/174
f 176/176/176 178/178/178 177/177/177
f 177/177/177 175/175/175 176/176/176
f 178/178/178 180/180/180 179/179/179
f 179/179/179 177/177/177 178/178/178
f 180/180/180 182/182/182 181/181/181
f 181/181/181 179/179/179 180/180/180
f 182/182/182 184/184/184 183/183/183
f 183/183/183 181/181/181 182/182/182
f 184/184/184 186/186/186 185/185/185
f 185/185/185 183/183/183 184/184/184
f 186/186/186 188/188/188 187/187/187
f 187/187/187 185/185/185 186/186/186
f 188/188/188 190/190/190 189/189/189
f 189/189/189 187/187/187 188/188/188
f 190/190/190 192/192/192 191/191/191
f 191/191/191 189/189/189 190/190/190
f 192/192/192 194/194/194 193/193/193
f 193/193/193 191/191/191 192/192/192
f 194/194/194 196/196/196 195/195/195
f 195/195/195 193/193/193 194/194/194
f 196/196/196 198/198/198 197/197/197
f 197/197/197 195/195/195 196/196/196
f 198/198/198 200/200/200 199/199/199
f 199/199/199 197/197/197 198/198/198
f 200/200/200 202/202/202 201/201/201
f 201/201/201 199/199/199 200/200/200
