g cheese
v 0.1621754 0.04320791 0.1431663
v 0.1949743 0.02212293 0.1337952
v 0.1918506 0.01392321 0.1345762
v 0.1617849 0.03422727 0.1423854
v -0.03227496 0.04320791 0.1837744
v -0.03227496 0.03422727 0.1837744
v -0.1341857 -0.008333147 0.1814317
v -0.1345762 -0.0001334399 0.1853363
v -0.183384 0.04320791 -0.03058952
v -0.204469 0.01236136 -0.1336716
v -0.1732319 0.04320791 -0.1407
v 0.1703751 0.04320791 -0.0161424
v 0.1340621 0.04320791 -0.1734988
v -0.1451186 0.04320791 0.1537088
v 0.1621754 0.04320791 0.1431663
v 0.1949743 0.02212293 0.1337952
v -0.03227496 0.04320791 0.1837744
v -0.1345762 -0.0001334399 0.1853363
v -0.204469 0.01236136 -0.1336716
v -0.1978311 0.006504431 -0.1352335
v -0.1732319 0.03422727 -0.1407
v -0.1732319 0.04320791 -0.1407
v 0.1340621 0.04320791 -0.1734988
v 0.1340621 0.03422727 -0.1734988
v 0.1703751 0.03422727 -0.0161424
v 0.1340621 0.03422727 -0.1734988
v -0.1732319 0.03422727 -0.1407
v -0.183384 0.03422727 -0.03058952
v -0.1978311 0.006504431 -0.1352335
v -0.1447282 0.03422727 0.1537088
v 0.1617849 0.03422727 0.1423854
v 0.1918506 0.01392321 0.1345762
v -0.03227496 0.03422727 0.1837744
v -0.1341857 -0.008333147 0.1814317
v 0.1703751 0.04320791 -0.0161424
v 0.1340621 0.04320791 -0.1734988
v 0.1340621 0.03422727 -0.1734988
v 0.1703751 0.03422727 -0.0161424
v 0.1918506 0.01392321 0.1345762
v 0.1949743 0.02212293 0.1337952
v -0.1451186 0.04320791 0.1537088
v -0.1345762 -0.0001334399 0.1853363
v -0.1341857 -0.008333147 0.1814317
v -0.1447282 0.03422727 0.1537088
v -0.183384 0.04320791 -0.03058952
v -0.183384 0.03422727 -0.03058952
v -0.1978311 0.006504431 -0.1352335
v -0.204469 0.01236136 -0.1336716
vt 0.1711492 0.7049521
vt 0.1711492 0.7049521
vt 0.1711492 0.7049521
vt 0.1711492 0.7049521
vt 0.1732425 0.7049521
vt 0.1732425 0.7049521
vt 0.1732425 0.7049521
vt 0.1732425 0.7049521
vt 0.1732425 0.7028588
vt 0.1732425 0.7028588
vt 0.1732425 0.7028588
vt 0.1711492 0.7028588
vt 0.1711492 0.7028588
vt 0.1732425 0.7028588
vt 0.1711492 0.7049521
vt 0.1711492 0.7049521
vt 0.1732425 0.7049521
vt 0.1732425 0.7049521
vt 0.1732425 0.7028588
vt 0.1732425 0.7028588
vt 0.1732425 0.7028588
vt 0.1732425 0.7028588
vt 0.1711492 0.7028588
vt 0.1711492 0.7028588
vt 0.1711492 0.7007655
vt 0.1711492 0.7028588
vt 0.1732425 0.7028588
vt 0.1732425 0.7028588
vt 0.1732425 0.7028588
vt 0.1732425 0.7007655
vt 0.1711492 0.7007655
vt 0.1711492 0.7007655
vt 0.1732425 0.7007655
vt 0.1732425 0.7007655
vt 0.1711492 0.7049521
vt 0.1711492 0.7049521
vt 0.1711492 0.7049521
vt 0.1711492 0.7049521
vt 0.1711492 0.7049521
vt 0.1711492 0.7049521
vt 0.1732425 0.7049521
vt 0.1732425 0.7049521
vt 0.1732425 0.7049521
vt 0.1732425 0.7049521
vt 0.1732425 0.7049521
vt 0.1732425 0.7049521
vt 0.1732425 0.7049521
vt 0.1732425 0.7049521
vn 0.2063232 -0.04761302 0.9773248
vn 0.2380652 -0.04761302 0.9700814
vn 0.2380652 -0.04761302 0.9700814
vn 0.2063232 -0.04761302 0.9773248
vn 0.1745812 -0.07935506 0.9814398
vn 0.1745812 -0.1110971 0.9783552
vn 0.07935506 -0.2380652 0.9680019
vn 0.07935506 -0.2380652 0.9680019
vn -0.01587105 0.999874 -0.000345267
vn -0.7071068 0.7071068 0
vn -0.01587105 0.999874 -0.000345267
vn 0.01587099 0.999874 -0.000345267
vn -0.01587105 0.999874 -0.000345267
vn -0.01587105 0.999874 -0.000345267
vn 0.01587099 0.999874 -0.000345267
vn 0.5510615 0.8344646 0
vn -0.01587105 0.999874 -0.000345267
vn -0.2063233 0.5554856 0.8055225
vn -0.2063233 -0.01587099 -0.9783552
vn -0.2063233 -0.01587099 -0.9783552
vn -0.1110971 -0.01587099 -0.9936828
vn -0.1110971 -0.01587099 -0.9936828
vn -0.1110971 0.01587105 -0.9936828
vn -0.1110971 0.01587105 -0.9936828
vn -0.01587105 -0.999874 -0.000345267
vn -0.01587105 -0.999874 -0.000345267
vn 0.01587099 -0.999874 -0.000345267
vn 0.01587099 -0.999874 -0.000345267
vn 0.7459377 -0.6507117 0.1419552
vn 0.01587099 -0.999874 -0.000345267
vn -0.01587105 -0.999874 -0.000345267
vn -0.5554856 -0.8094218 -0.1904525
vn 0.01587099 -0.999874 -0.000345267
vn 0.2380652 -0.4920015 -0.8374124
vn 0.968132 -0.07935506 -0.2375359
vn 0.968132 0.01587105 -0.2499373
vn 0.968132 0.01587105 -0.2499373
vn 0.968132 -0.1110971 -0.2244504
vn 0.968132 -0.1745812 -0.1795604
vn 0.968132 -0.1745812 -0.1795604
vn -0.968132 -0.01587099 0.249937
vn -0.968132 -0.07935506 0.2375357
vn -0.968132 -0.07935506 0.2375357
vn -0.968132 -0.01587099 0.249937
vn -0.968132 -0.1110971 0.2244501
vn -0.968132 -0.1745812 0.1795601
vn -0.8729059 -0.4285174 0.2332557
vn -0.8729059 -0.4285174 0.2332557
g cheese_0
f 3/3/3 2/2/2 1/1/1
f 4/4/4 3/3/3 1/1/1
f 4/4/4 1/1/1 5/5/5
f 6/6/6 4/4/4 5/5/5
f 6/6/6 5/5/5 7/7/7
f 5/5/5 8/8/8 7/7/7
f 11/11/11 10/10/10 9/9/9
f 11/11/11 9/9/9 12/12/12
f 12/12/12 13/13/13 11/11/11
f 9/9/9 14/14/14 12/12/12
f 14/14/14 15/15/15 12/12/12
f 15/15/15 16/16/16 12/12/12
f 14/14/14 17/17/17 15/15/15
f 17/17/17 14/14/14 18/18/18
f 21/21/21 20/20/20 19/19/19
f 22/22/22 21/21/21 19/19/19
f 22/22/22 23/23/23 21/21/21
f 23/23/23 24/24/24 21/21/21
f 27/27/27 26/26/26 25/25/25
f 25/25/25 28/28/28 27/27/27
f 27/27/27 28/28/28 29/29/29
f 25/25/25 30/30/30 28/28/28
f 25/25/25 31/31/31 30/30/30
f 25/25/25 32/32/32 31/31/31
f 31/31/31 33/33/33 30/30/30
f 33/33/33 34/34/34 30/30/30
f 37/37/37 36/36/36 35/35/35
f 38/38/38 37/37/37 35/35/35
f 38/38/38 35/35/35 39/39/39
f 35/35/35 40/40/40 39/39/39
f 43/43/43 42/42/42 41/41/41
f 44/44/44 43/43/43 41/41/41
f 44/44/44 41/41/41 45/45/45
f 46/46/46 44/44/44 45/45/45
f 46/46/46 45/45/45 47/47/47
f 45/45/45 48/48/48 47/47/47
