g cheese
v 0.1209205 0.05148917 0.118617
v 0.1260841 0.05148917 0.05091543
v 0.1306741 0.05148917 0.09538049
v -0.1346818 0.05148917 0.003294796
v -0.1277969 0.05148917 -0.0646937
v -0.1200514 0.05148917 -0.09624954
v -0.08677433 0.05148917 -0.1177649
v -0.08878244 0.05148917 0.1364031
v -0.1260757 0.05148917 0.05091543
v 0.08735652 0.05148917 -0.1163305
v -0.120912 0.05148917 0.1180433
v -0.1306656 0.05148917 0.09538049
v 0.08879088 0.05148917 0.1364031
v -0.02509701 0.05148917 0.1424274
v 0.02510546 0.05148917 0.1424274
v 0.1260841 0.05148917 0.05091543
v 0.1209205 0.05148917 0.118617
v 0.1346903 0.05148917 0.003294796
v 0.1200598 0.05148917 -0.09395456
v 0.1272316 0.05148917 -0.06239872
v -0.08677433 0.05148917 -0.1177649
v -0.02509701 0.05148917 -0.1341165
v 0.02510546 0.05148917 -0.1341165
v 0.08735652 0.05148917 -0.1163305
v -0.1306656 0.05148917 0.09538049
v -0.1384112 0.04632549 0.100831
v -0.1335344 0.04632549 0.05378415
v -0.1260757 0.05148917 0.05091543
v -0.02509701 0.05148917 0.1424274
v -0.02653137 0.04632549 0.1507466
v -0.09394611 0.04632549 0.1441486
v -0.08878244 0.05148917 0.1364031
v 0.1260841 0.05148917 0.05091543
v 0.1335428 0.04632549 0.05378415
v 0.1384196 0.04632549 0.100831
v 0.1306741 0.05148917 0.09538049
v -0.08878244 0.05148917 0.1364031
v -0.09394611 0.04632549 0.1441486
v -0.1280838 0.04632549 0.1249282
v -0.120912 0.05148917 0.1180433
v 0.1209205 0.05148917 0.118617
v 0.1280922 0.04632549 0.1252151
v 0.09395456 0.04632549 0.1441486
v 0.08879088 0.05148917 0.1364031
v 0.1306741 0.05148917 0.09538049
v 0.1384196 0.04632549 0.100831
v 0.1280922 0.04632549 0.1252151
v 0.1209205 0.05148917 0.118617
v -0.1200514 0.05148917 -0.09624954
v -0.1280838 0.04632549 -0.1022738
v -0.09308551 0.04632549 -0.1252235
v -0.08677433 0.05148917 -0.1177649
v -0.1277969 0.05148917 -0.0646937
v -0.1364031 0.04632549 -0.06899676
v -0.1280838 0.04632549 -0.1022738
v -0.1200514 0.05148917 -0.09624954
v 0.1200598 0.05148917 -0.09395456
v 0.1283791 0.04632549 -0.09969199
v 0.1358378 0.04632549 -0.06641492
v 0.1272316 0.05148917 -0.06239872
v -0.1364031 0.04632549 -0.06899676
v -0.1277969 0.05148917 -0.0646937
v -0.1346818 0.05148917 0.003294796
v -0.1427142 0.04632549 0.003294796
v 0.1346903 0.05148917 0.003294796
v 0.1427227 0.04632549 0.003294796
v 0.1335428 0.04632549 0.05378415
v 0.1260841 0.05148917 0.05091543
v -0.1260757 0.05148917 0.05091543
v -0.1335344 0.04632549 0.05378415
v -0.1427142 0.04632549 0.003294796
v -0.1346818 0.05148917 0.003294796
v 0.1427227 0.04632549 0.003294796
v 0.1346903 0.05148917 0.003294796
v 0.1272316 0.05148917 -0.06239872
v 0.1358378 0.04632549 -0.06641492
v -0.120912 0.05148917 0.1180433
v -0.1280838 0.04632549 0.1249282
v -0.1384112 0.04632549 0.100831
v -0.1306656 0.05148917 0.09538049
v 0.08735652 0.05148917 -0.1163305
v 0.09366769 0.04632549 -0.1235023
v 0.1283791 0.04632549 -0.09969199
v 0.1200598 0.05148917 -0.09395456
v -0.08677433 0.05148917 -0.1177649
v -0.09308551 0.04632549 -0.1252235
v -0.02653137 0.04632549 -0.1421489
v -0.02509701 0.05148917 -0.1341165
v 0.08879088 0.05148917 0.1364031
v 0.09395456 0.04632549 0.1441486
v 0.02653982 0.04632549 0.1507466
v 0.02510546 0.05148917 0.1424274
v 0.02510546 0.05148917 -0.1341165
v 0.02653982 0.04632549 -0.1421489
v 0.09366769 0.04632549 -0.1235023
v 0.08735652 0.05148917 -0.1163305
v 0.02510546 0.05148917 0.1424274
v 0.02653982 0.04632549 0.1507466
v -0.02653137 0.04632549 0.1507466
v -0.02509701 0.05148917 0.1424274
v -0.02509701 0.05148917 -0.1341165
v -0.02653137 0.04632549 -0.1421489
v 0.02653982 0.04632549 -0.1421489
v 0.02510546 0.05148917 -0.1341165
vt 0.7837845 0.6334053
vt 0.7837845 0.6364743
vt 0.7845517 0.6349398
vt 0.7738104 0.638776
vt 0.7745776 0.6426122
vt 0.7745776 0.6433794
vt 0.7761121 0.6433794
vt 0.7761121 0.6334053
vt 0.7745776 0.6372415
vt 0.78225 0.6433794
vt 0.7745776 0.6341726
vt 0.7745776 0.6349398
vt 0.7830173 0.6334053
vt 0.7784138 0.6334053
vt 0.7799484 0.6334053
vt 0.7837845 0.6372415
vt 0.7837845 0.6334053
vt 0.7845517 0.638776
vt 0.7837845 0.6433794
vt 0.7845517 0.6426122
vt 0.7761121 0.6433794
vt 0.7784138 0.6433794
vt 0.7799484 0.6433794
vt 0.78225 0.6433794
vt 0.7592328 0.6034829
vt 0.7592328 0.6433794
vt 0.7991294 0.6433794
vt 0.7983621 0.6034829
vt 0.7592328 0.6034829
vt 0.7592328 0.6433794
vt 0.7991294 0.6433794
vt 0.7983621 0.6034829
vt 0.7600001 0.6034829
vt 0.7592328 0.6433794
vt 0.7991294 0.6433794
vt 0.7991294 0.6034829
vt 0.7600001 0.6034829
vt 0.7592328 0.6433794
vt 0.7991294 0.6433794
vt 0.7983621 0.6034829
vt 0.7600001 0.6034829
vt 0.7592328 0.6433794
vt 0.7991294 0.6433794
vt 0.7983621 0.6034829
vt 0.7592328 0.6034829
vt 0.7592328 0.6433794
vt 0.7991294 0.6433794
vt 0.7983621 0.6034829
vt 0.7600001 0.6034829
vt 0.7592328 0.6433794
vt 0.7991294 0.6433794
vt 0.7983621 0.6034829
vt 0.7592328 0.6034829
vt 0.7592328 0.6433794
vt 0.7991294 0.6433794
vt 0.7983621 0.6034829
vt 0.7600001 0.6034829
vt 0.7592328 0.6433794
vt 0.7991294 0.6433794
vt 0.7991294 0.6034829
vt 0.7991294 0.6433794
vt 0.7991294 0.6034829
vt 0.7600001 0.6034829
vt 0.7592328 0.6433794
vt 0.7600001 0.6034829
vt 0.7592328 0.6433794
vt 0.7991294 0.6433794
vt 0.7983621 0.6034829
vt 0.7600001 0.6034829
vt 0.7592328 0.6433794
vt 0.7991294 0.6433794
vt 0.7983621 0.6034829
vt 0.7991294 0.6433794
vt 0.7983621 0.6034829
vt 0.7592328 0.6034829
vt 0.7592328 0.6433794
vt 0.7600001 0.6034829
vt 0.7592328 0.6433794
vt 0.7991294 0.6433794
vt 0.7991294 0.6034829
vt 0.7600001 0.6034829
vt 0.7592328 0.6433794
vt 0.7991294 0.6433794
vt 0.7983621 0.6034829
vt 0.7600001 0.6034829
vt 0.7592328 0.6433794
vt 0.7991294 0.6433794
vt 0.7991294 0.6034829
vt 0.7600001 0.6034829
vt 0.7592328 0.6433794
vt 0.7991294 0.6433794
vt 0.7991294 0.6034829
vt 0.7592328 0.6034829
vt 0.7592328 0.6433794
vt 0.7991294 0.6433794
vt 0.7983621 0.6034829
vt 0.7592328 0.6034829
vt 0.7592328 0.6433794
vt 0.7991294 0.6433794
vt 0.7991294 0.6034829
vt 0.7592328 0.6034829
vt 0.7592328 0.6433794
vt 0.7991294 0.6433794
vt 0.7991294 0.6034829
vn 0.006073712 0.9999816 0
vn 0.006073712 0.9999816 0
vn 0.006073712 0.9999816 0
vn 0.006073712 0.9999816 0
vn 0.006073712 0.9999816 0
vn 0.006073712 0.9999816 0
vn 0.006073712 0.9999816 0
vn 0.006073712 0.9999816 0
vn 0.006073712 0.9999816 0
vn 0.006073712 0.9999816 0
vn 0.006073712 0.9999816 0
vn 0.006073712 0.9999816 0
vn 0.006073712 0.9999816 0
vn 0.006073712 0.9999816 0
vn 0.006073712 0.9999816 0
vn 0.006073712 0.9999816 0
vn 0.006073712 0.9999816 0
vn 0.006073712 0.9999816 0
vn 0.006073712 0.9999816 0
vn 0.006073712 0.9999816 0
vn 0.006073712 0.9999816 0
vn 0.006073712 0.9999816 0
vn 0.006073712 0.9999816 0
vn 0.006073712 0.9999816 0
vn -0.5724082 0.7987707 -0.1852411
vn -0.5724082 0.7987707 -0.1852411
vn -0.5705573 0.8212578 0
vn -0.5705573 0.8212578 0
vn -0.01907766 0.8490734 0.5279303
vn -0.01907766 0.8490734 0.5279303
vn -0.1448346 0.8742248 0.4634155
vn -0.1196832 0.8490734 0.5145389
vn 0.5594043 0.823922 0.09066069
vn 0.5594043 0.823922 0.09066069
vn 0.5845556 0.7987707 -0.142338
vn 0.5845556 0.7987707 -0.142338
vn -0.1196832 0.8490734 0.5145389
vn -0.1448346 0.8742248 0.4634155
vn -0.2454401 0.8742248 0.4189154
vn -0.2454401 0.8742248 0.4189154
vn 0.2324362 0.8742248 0.426268
vn 0.2324362 0.8742248 0.426268
vn 0.1318307 0.8742248 0.4672811
vn 0.1066793 0.8490734 0.5173914
vn 0.4587987 0.8742248 0.1588545
vn 0.4587987 0.8742248 0.1588545
vn 0.4587987 0.8742248 0.1588545
vn 0.4587987 0.8742248 0.1588545
vn -0.2705915 0.8742248 -0.4031268
vn -0.2705915 0.8742248 -0.4031268
vn -0.1951374 0.8742248 -0.4445812
vn -0.1699859 0.8742248 -0.4547921
vn -0.5221053 0.8490734 -0.08050091
vn -0.496954 0.8490734 -0.1791957
vn -0.4718026 0.8742248 -0.1146006
vn -0.4718026 0.8742248 -0.1146006
vn 0.4839501 0.8742248 -0.03902968
vn 0.4839501 0.8742248 -0.03902968
vn 0.5091015 0.8490734 -0.1410322
vn 0.5091015 0.8490734 -0.1410322
vn -0.496954 0.8490734 -0.1791957
vn -0.5221053 0.8490734 -0.08050091
vn -0.5221053 0.8490734 0.08050091
vn -0.5221053 0.8490734 0.08050091
vn 0.5325642 0.8463897 0
vn 0.5325642 0.8463897 0
vn 0.5594043 0.823922 0.09066069
vn 0.5594043 0.823922 0.09066069
vn -0.5705573 0.8212578 0
vn -0.5705573 0.8212578 0
vn -0.5221053 0.8490734 0.08050091
vn -0.5221053 0.8490734 0.08050091
vn 0.5325642 0.8463897 0
vn 0.5325642 0.8463897 0
vn 0.5091015 0.8490734 -0.1410322
vn 0.5091015 0.8490734 -0.1410322
vn -0.4466512 0.8742248 0.1903514
vn -0.4466512 0.8742248 0.1903514
vn -0.4466512 0.8742248 0.1903514
vn -0.4466512 0.8742248 0.1903514
vn 0.1821334 0.8742248 -0.4500649
vn 0.2072848 0.8742248 -0.4390489
vn 0.282739 0.8742248 -0.394702
vn 0.282739 0.8742248 -0.394702
vn -0.1699859 0.8742248 -0.4547921
vn -0.1951374 0.8742248 -0.4445812
vn -0.0693804 0.8490734 -0.5236991
vn -0.0693804 0.8490734 -0.5236991
vn 0.1066793 0.8490734 0.5173914
vn 0.1318307 0.8742248 0.4672811
vn 0.03122514 0.8490734 0.5273513
vn 0.03122514 0.8490734 0.5273513
vn 0.08152789 0.8490734 -0.521946
vn 0.08152789 0.8490734 -0.521946
vn 0.2072848 0.8742248 -0.4390489
vn 0.1821334 0.8742248 -0.4500649
vn 0.03122514 0.8490734 0.5273513
vn 0.03122514 0.8490734 0.5273513
vn -0.01907766 0.8490734 0.5279303
vn -0.01907766 0.8490734 0.5279303
vn -0.0693804 0.8490734 -0.5236991
vn -0.0693804 0.8490734 -0.5236991
vn 0.08152789 0.8490734 -0.521946
vn 0.08152789 0.8490734 -0.521946
g cheese_0
f 3/3/3 2/2/2 1/1/1
f 6/6/6 5/5/5 4/4/4
f 6/6/6 4/4/4 7/7/7
f 8/8/8 7/7/7 4/4/4
f 9/9/9 8/8/8 4/4/4
f 10/10/10 7/7/7 8/8/8
f 8/8/8 9/9/9 11/11/11
f 11/11/11 9/9/9 12/12/12
f 13/13/13 10/10/10 8/8/8
f 13/13/13 8/8/8 14/14/14
f 15/15/15 13/13/13 14/14/14
f 10/10/10 13/13/13 16/16/16
f 17/17/17 16/16/16 13/13/13
f 18/18/18 10/10/10 16/16/16
f 10/10/10 18/18/18 19/19/19
f 20/20/20 19/19/19 18/18/18
f 23/23/23 22/22/22 21/21/21
f 24/24/24 23/23/23 21/21/21
f 27/27/27 26/26/26 25/25/25
f 28/28/28 27/27/27 25/25/25
f 31/31/31 30/30/30 29/29/29
f 32/32/32 31/31/31 29/29/29
f 35/35/35 34/34/34 33/33/33
f 36/36/36 35/35/35 33/33/33
f 39/39/39 38/38/38 37/37/37
f 40/40/40 39/39/39 37/37/37
f 43/43/43 42/42/42 41/41/41
f 44/44/44 43/43/43 41/41/41
f 47/47/47 46/46/46 45/45/45
f 48/48/48 47/47/47 45/45/45
f 51/51/51 50/50/50 49/49/49
f 52/52/52 51/51/51 49/49/49
f 55/55/55 54/54/54 53/53/53
f 56/56/56 55/55/55 53/53/53
f 59/59/59 58/58/58 57/57/57
f 60/60/60 59/59/59 57/57/57
f 63/63/63 62/62/62 61/61/61
f 64/64/64 63/63/63 61/61/61
f 67/67/67 66/66/66 65/65/65
f 68/68/68 67/67/67 65/65/65
f 71/71/71 70/70/70 69/69/69
f 72/72/72 71/71/71 69/69/69
f 75/75/75 74/74/74 73/73/73
f 76/76/76 75/75/75 73/73/73
f 79/79/79 78/78/78 77/77/77
f 80/80/80 79/79/79 77/77/77
f 83/83/83 82/82/82 81/81/81
f 84/84/84 83/83/83 81/81/81
f 87/87/87 86/86/86 85/85/85
f 88/88/88 87/87/87 85/85/85
f 91/91/91 90/90/90 89/89/89
f 92/92/92 91/91/91 89/89/89
f 95/95/95 94/94/94 93/93/93
f 96/96/96 95/95/95 93/93/93
f 99/99/99 98/98/98 97/97/97
f 100/100/100 99/99/99 97/97/97
f 103/103/103 102/102/102 101/101/101
f 104/104/104 103/103/103 101/101/101
