g Christmas_Ball_01
v 0.0004243404 0.1447025 0.0004243404
v -0.0001414418 0.06492515 -0.129426
v 0.1232022 0.06435935 -0.04003011
v 0.0004243404 0.1447025 0.0004243404
v -0.1229193 0.06520805 -0.03974721
v -0.0001414418 0.06492515 -0.129426
v 0.0004243404 0.1447025 0.0004243404
v -0.07567528 0.06464225 0.1050967
v -0.1229193 0.06520805 -0.03974721
v 0.0004243404 0.1447025 0.0004243404
v 0.07652398 0.06435935 0.1048138
v -0.07567528 0.06464225 0.1050967
v 0.0004243404 0.1447025 0.0004243404
v 0.1232022 0.06435935 -0.04003011
v 0.07652398 0.06435935 0.1048138
v 0.1232022 0.06435935 -0.04003011
v 0.07567529 -0.06464226 -0.1050967
v 0.1229193 -0.06520805 0.03974721
v -0.0001414418 0.06492515 -0.129426
v -0.07652397 -0.06435936 -0.1048138
v 0.07567529 -0.06464226 -0.1050967
v -0.1229193 0.06520805 -0.03974721
v -0.1232022 -0.06435936 0.04003011
v -0.07652397 -0.06435936 -0.1048138
v -0.07567528 0.06464225 0.1050967
v 0.0001414567 -0.06492515 0.1294259
v -0.1232022 -0.06435936 0.04003011
v 0.07652398 0.06435935 0.1048138
v 0.1229193 -0.06520805 0.03974721
v 0.0001414567 -0.06492515 0.1294259
v 0.07567529 -0.06464226 -0.1050967
v 0.1232022 0.06435935 -0.04003011
v -0.0001414418 0.06492515 -0.129426
v -0.07652397 -0.06435936 -0.1048138
v -0.0001414418 0.06492515 -0.129426
v -0.1229193 0.06520805 -0.03974721
v -0.1232022 -0.06435936 0.04003011
v -0.1229193 0.06520805 -0.03974721
v -0.07567528 0.06464225 0.1050967
v 0.0001414567 -0.06492515 0.1294259
v -0.07567528 0.06464225 0.1050967
v 0.07652398 0.06435935 0.1048138
v 0.1229193 -0.06520805 0.03974721
v 0.07652398 0.06435935 0.1048138
v 0.1232022 0.06435935 -0.04003011
v -0.0004243404 -0.1447025 -0.0004243404
v 0.07567529 -0.06464226 -0.1050967
v -0.07652397 -0.06435936 -0.1048138
v -0.0004243404 -0.1447025 -0.0004243404
v -0.07652397 -0.06435936 -0.1048138
v -0.1232022 -0.06435936 0.04003011
v -0.0004243404 -0.1447025 -0.0004243404
v -0.1232022 -0.06435936 0.04003011
v 0.0001414567 -0.06492515 0.1294259
v -0.0004243404 -0.1447025 -0.0004243404
v 0.0001414567 -0.06492515 0.1294259
v 0.1229193 -0.06520805 0.03974721
v -0.0004243404 -0.1447025 -0.0004243404
v 0.1229193 -0.06520805 0.03974721
v 0.07567529 -0.06464226 -0.1050967
vt 0.4255689 0.9876542
vt 0.3975918 0.8808326
vt 0.4560893 0.8808326
vt 0.3670713 0.9876542
vt 0.3390942 0.8808326
vt 0.3975918 0.8808326
vt 0.6010616 0.9876542
vt 0.5730845 0.8808326
vt 0.631582 0.8808326
vt 0.542564 0.9876542
vt 0.5145869 0.8808326
vt 0.5730845 0.8808326
vt 0.4840665 0.9876542
vt 0.4560893 0.8808326
vt 0.5145869 0.8808326
vt 0.4560893 0.8808326
vt 0.4255689 0.7918146
vt 0.4840665 0.7918146
vt 0.3975918 0.8808326
vt 0.3670713 0.7918146
vt 0.4255689 0.7918146
vt 0.631582 0.8808326
vt 0.6010616 0.7918146
vt 0.6595591 0.7918146
vt 0.5730845 0.8808326
vt 0.542564 0.7918146
vt 0.6010616 0.7918146
vt 0.5145869 0.8808326
vt 0.4840665 0.7918146
vt 0.542564 0.7918146
vt 0.4255689 0.7918146
vt 0.4560893 0.8808326
vt 0.3975918 0.8808326
vt 0.3670713 0.7918146
vt 0.3975918 0.8808326
vt 0.3390942 0.8808326
vt 0.6010616 0.7918146
vt 0.631582 0.8808326
vt 0.5730845 0.8808326
vt 0.542564 0.7918146
vt 0.5730845 0.8808326
vt 0.5145869 0.8808326
vt 0.4840665 0.7918146
vt 0.5145869 0.8808326
vt 0.4560893 0.8808326
vt 0.3975918 0.6824495
vt 0.4255689 0.7918146
vt 0.3670713 0.7918146
vt 0.631582 0.6824495
vt 0.6595591 0.7918146
vt 0.6010616 0.7918146
vt 0.5730845 0.6824495
vt 0.6010616 0.7918146
vt 0.542564 0.7918146
vt 0.5145869 0.6824495
vt 0.542564 0.7918146
vt 0.4840665 0.7918146
vt 0.4560893 0.6824495
vt 0.4840665 0.7918146
vt 0.4255689 0.7918146
vn 0.3711181 0.78677 -0.4932182
vn 0.3711181 0.78677 -0.4932182
vn 0.3711181 0.78677 -0.4932182
vn -0.3414285 0.78677 -0.5142174
vn -0.3414285 0.78677 -0.5142174
vn -0.3414285 0.78677 -0.5142174
vn -0.578944 0.78677 0.2140483
vn -0.578944 0.78677 0.2140483
vn -0.578944 0.78677 0.2140483
vn 0.01484483 0.78677 0.6170677
vn 0.01484483 0.78677 0.6170677
vn 0.01484483 0.78677 0.6170677
vn 0.5789443 0.78677 0.2140477
vn 0.5789443 0.78677 0.2140477
vn 0.5789443 0.78677 0.2140477
vn 0.9352176 -0.1929815 -0.2968607
vn 0.9352176 -0.1929815 -0.2968607
vn 0.9352176 -0.1929815 -0.2968607
vn -0.0148446 -0.1929815 -0.9810901
vn -0.0148446 -0.1929815 -0.9810901
vn -0.0148446 -0.1929815 -0.9810901
vn -0.9352173 -0.1929815 -0.2968614
vn -0.9352173 -0.1929815 -0.2968614
vn -0.9352173 -0.1929815 -0.2968614
vn -0.578944 -0.1929815 0.7922007
vn -0.578944 -0.1929815 0.7922007
vn -0.578944 -0.1929815 0.7922007
vn 0.5789443 -0.1929815 0.7922005
vn 0.5789443 -0.1929815 0.7922005
vn 0.5789443 -0.1929815 0.7922005
vn 0.5789443 0.1929813 -0.7922006
vn 0.5789443 0.1929813 -0.7922006
vn 0.5789443 0.1929813 -0.7922006
vn -0.578944 0.1929813 -0.7922007
vn -0.578944 0.1929813 -0.7922007
vn -0.578944 0.1929813 -0.7922007
vn -0.9352173 0.1929813 0.2968615
vn -0.9352173 0.1929813 0.2968615
vn -0.9352173 0.1929813 0.2968615
vn 0.01484483 0.1929813 0.9810901
vn 0.01484483 0.1929813 0.9810901
vn 0.01484483 0.1929813 0.9810901
vn 0.9352176 0.1929813 0.2968608
vn 0.9352176 0.1929813 0.2968608
vn 0.9352176 0.1929813 0.2968608
vn -0.0148446 -0.7867703 -0.6170673
vn -0.0148446 -0.7867703 -0.6170673
vn -0.0148446 -0.7867703 -0.6170673
vn -0.578944 -0.7867703 -0.2140471
vn -0.578944 -0.7867703 -0.2140471
vn -0.578944 -0.7867703 -0.2140471
vn -0.3711179 -0.7867703 0.493218
vn -0.3711179 -0.7867703 0.493218
vn -0.3711179 -0.7867703 0.493218
vn 0.3414287 -0.7867703 0.5142167
vn 0.3414287 -0.7867703 0.5142167
vn 0.3414287 -0.7867703 0.5142167
vn 0.5789443 -0.7867703 -0.2140466
vn 0.5789443 -0.7867703 -0.2140466
vn 0.5789443 -0.7867703 -0.2140466
g Christmas_Ball_01_0
f 3/3/3 2/2/2 1/1/1
f 6/6/6 5/5/5 4/4/4
f 9/9/9 8/8/8 7/7/7
f 12/12/12 11/11/11 10/10/10
f 15/15/15 14/14/14 13/13/13
f 18/18/18 17/17/17 16/16/16
f 21/21/21 20/20/20 19/19/19
f 24/24/24 23/23/23 22/22/22
f 27/27/27 26/26/26 25/25/25
f 30/30/30 29/29/29 28/28/28
f 33/33/33 32/32/32 31/31/31
f 36/36/36 35/35/35 34/34/34
f 39/39/39 38/38/38 37/37/37
f 42/42/42 41/41/41 40/40/40
f 45/45/45 44/44/44 43/43/43
f 48/48/48 47/47/47 46/46/46
f 51/51/51 50/50/50 49/49/49
f 54/54/54 53/53/53 52/52/52
f 57/57/57 56/56/56 55/55/55
f 60/60/60 59/59/59 58/58/58
