g cream
v -0.1347533 0.05151631 0.00322181
v -0.1276512 0.05151631 -0.06467457
v -0.1199809 0.05151631 -0.09620804
v -0.08702698 0.05151631 -0.1177985
v -0.08901557 0.05151631 0.1358896
v -0.1259467 0.05151631 0.05094814
v -0.1208331 0.05151631 0.1179923
v -0.1307761 0.05151631 0.09526545
v 0.08711731 0.05151631 -0.1163781
v 0.02518672 0.05151631 -0.1339914
v -0.02509639 0.05151631 -0.1339914
v 0.08086743 0.05151631 0.1290716
v -0.02793723 0.05151631 0.1398668
v 0.01978909 0.05151631 0.1375942
v 0.1277415 0.05151631 0.04384601
v 0.112685 0.05151631 0.110606
v 0.1223439 0.05151631 0.08759515
v 0.1291619 0.05151631 -0.001891717
v 0.1192189 0.05151631 -0.09478761
v 0.1249007 0.05151631 -0.06439049
v -0.1307761 0.05151631 0.09526545
v -0.1384464 0.04640278 0.1006631
v -0.133617 0.04640278 0.053789
v -0.1259467 0.05151631 0.05094814
v -0.1427077 0.04640278 0.00322181
v -0.1347533 0.05151631 0.00322181
v -0.1361737 0.04640278 -0.06893585
v -0.1276512 0.05151631 -0.06467457
v -0.1282193 0.04640278 -0.1021738
v -0.1199809 0.05151631 -0.09620804
v -0.02793723 0.05151631 0.1398668
v -0.02907358 0.04640278 0.1483894
v -0.09412912 0.04640278 0.1441281
v -0.08901557 0.05151631 0.1358896
v -0.1282193 0.04640278 0.1248103
v -0.1208331 0.05151631 0.1179923
v 0.1277415 0.05151631 0.04384601
v 0.1302983 0.04640278 0.09299277
v 0.1223439 0.05151631 0.08759515
v 0.1351277 0.04640278 0.04668686
v 0.1291619 0.05151631 -0.001891717
v 0.1371163 0.04640278 -0.001891717
v 0.1249007 0.05151631 -0.06439049
v 0.1337073 0.04640278 -0.06808359
v 0.1192189 0.05151631 -0.09478761
v 0.1277415 0.04640278 -0.1004693
v 0.112685 0.05151631 0.110606
v 0.1197871 0.04640278 0.1174241
v 0.08626506 0.04640278 0.1367419
v 0.08086743 0.05151631 0.1290716
v 0.02149361 0.04640278 0.1458326
v 0.01978909 0.05151631 0.1375942
v -0.02907358 0.04640278 0.1483894
v -0.02793723 0.05151631 0.1398668
v 0.1223439 0.05151631 0.08759515
v 0.1302983 0.04640278 0.09299277
v 0.1197871 0.04640278 0.1174241
v 0.112685 0.05151631 0.110606
v -0.1199809 0.05151631 -0.09620804
v -0.1282193 0.04640278 -0.1021738
v -0.09299277 0.04640278 -0.1251847
v -0.08702698 0.05151631 -0.1177985
v -0.0268009 0.04640278 -0.1422299
v -0.02509639 0.05151631 -0.1339914
v 0.02660714 0.04640278 -0.1422299
v 0.02518672 0.05151631 -0.1339914
v -0.1208331 0.05151631 0.1179923
v -0.1282193 0.04640278 0.1248103
v -0.1384464 0.04640278 0.1006631
v -0.1307761 0.05151631 0.09526545
v 0.08711731 0.05151631 -0.1163781
v 0.1277415 0.04640278 -0.1004693
v 0.1192189 0.05151631 -0.09478761
v 0.09365126 0.04640278 -0.1234802
v 0.02518672 0.05151631 -0.1339914
v 0.02660714 0.04640278 -0.1422299
vt 0.02469875 0.8057897
vt 0.03407184 0.8057897
vt 0.0371962 0.8057897
vt 0.04032056 0.8057897
vt 0.009076925 0.8057897
vt 0.02157438 0.8057897
vt 0.01220129 0.8057897
vt 0.01532565 0.8057897
vt 0.04032056 0.8057897
vt 0.04032056 0.8057897
vt 0.04032056 0.8057897
vt 0.01220129 0.8057897
vt 0.009076925 0.8057897
vt 0.009076925 0.8057897
vt 0.02157438 0.8057897
vt 0.01220129 0.8057897
vt 0.01532565 0.8057897
vt 0.02469875 0.8057897
vt 0.0371962 0.8057897
vt 0.03407184 0.8057897
vt 0.01532565 0.8057897
vt 0.01532565 0.7714217
vt 0.01845002 0.7714217
vt 0.02157438 0.8057897
vt 0.02469875 0.7714217
vt 0.02469875 0.8057897
vt 0.03407184 0.7714217
vt 0.03407184 0.8057897
vt 0.0371962 0.7714217
vt 0.0371962 0.8057897
vt 0.009076925 0.8057897
vt 0.009076925 0.7714217
vt 0.009076925 0.7714217
vt 0.009076925 0.8057897
vt 0.01220129 0.7714217
vt 0.01220129 0.8057897
vt 0.02157438 0.8057897
vt 0.01532565 0.7714217
vt 0.01532565 0.8057897
vt 0.02157438 0.7714217
vt 0.02469875 0.8057897
vt 0.02469875 0.7714217
vt 0.03407184 0.8057897
vt 0.03407184 0.7714217
vt 0.0371962 0.8057897
vt 0.0371962 0.7714217
vt 0.01220129 0.8057897
vt 0.01220129 0.7714217
vt 0.009076925 0.7714217
vt 0.01220129 0.8057897
vt 0.009076925 0.7714217
vt 0.009076925 0.8057897
vt 0.009076925 0.7714217
vt 0.009076925 0.8057897
vt 0.01532565 0.8057897
vt 0.01532565 0.7714217
vt 0.01220129 0.7714217
vt 0.01220129 0.8057897
vt 0.0371962 0.8057897
vt 0.0371962 0.7714217
vt 0.04032056 0.7714217
vt 0.04032056 0.8057897
vt 0.04344492 0.7714217
vt 0.04032056 0.8057897
vt 0.04344492 0.7714217
vt 0.04032056 0.8057897
vt 0.01220129 0.8057897
vt 0.01220129 0.7714217
vt 0.01532565 0.7714217
vt 0.01532565 0.8057897
vt 0.04032056 0.8057897
vt 0.0371962 0.7714217
vt 0.0371962 0.8057897
vt 0.04032056 0.7714217
vt 0.04032056 0.8057897
vt 0.04344492 0.7714217
vn 0.008500515 0.9999639 0
vn 0.008500515 0.9999639 0
vn 0.008500515 0.9999639 0
vn 0.008500515 0.9999639 0
vn 0.008500515 0.9999639 0
vn 0.008500515 0.9999639 0
vn 0.008500515 0.9999639 0
vn 0.008500515 0.9999639 0
vn 0.008500515 0.9999639 0
vn 0.008500515 0.9999639 0
vn 0.008500515 0.9999639 0
vn 0.008500515 0.9999639 0
vn 0.008500515 0.9999639 0
vn 0.008500515 0.9999639 0
vn 0.008500515 0.9999639 0
vn 0.008500515 0.9999639 0
vn 0.008500515 0.9999639 0
vn 0.008500515 0.9999639 0
vn 0.008500515 0.9999639 0
vn 0.008500515 0.9999639 0
vn -0.5818202 0.8031905 -0.1279462
vn -0.5818202 0.8031905 -0.1279462
vn -0.5572234 0.8277872 0.06534856
vn -0.5572234 0.8277872 0.06534856
vn -0.529918 0.8480489 0
vn -0.529918 0.8480489 0
vn -0.5080301 0.8523839 -0.123884
vn -0.5080301 0.8523839 -0.123884
vn -0.4827573 0.8757542 0
vn -0.4827573 0.8757542 0
vn -0.01609623 0.8523839 0.5226688
vn -0.01609623 0.8523839 0.5226688
vn -0.1390797 0.8769805 0.4599587
vn -0.114483 0.8523839 0.5102308
vn -0.2374665 0.8769805 0.4177497
vn -0.2374665 0.8769805 0.4177497
vn 0.5496278 0.8277872 0.1125954
vn 0.5496278 0.8277872 0.1125954
vn 0.5496278 0.8277872 0.1125954
vn 0.5496278 0.8277872 0.1125954
vn 0.5244504 0.851441 0
vn 0.5244504 0.851441 0
vn 0.5004344 0.8523839 -0.1516813
vn 0.5004344 0.8523839 -0.1516813
vn 0.4758377 0.8769805 -0.06695955
vn 0.4758377 0.8769805 -0.06695955
vn 0.2298707 0.8769805 0.421977
vn 0.2298707 0.8769805 0.421977
vn 0.1560807 0.8769805 0.454471
vn 0.131484 0.8523839 0.5061163
vn 0.05769387 0.8523839 0.5197242
vn 0.05769387 0.8523839 0.5197242
vn -0.01609623 0.8523839 0.5226688
vn -0.01609623 0.8523839 0.5226688
vn 0.451241 0.8769805 0.1651867
vn 0.451241 0.8769805 0.1651867
vn 0.451241 0.8769805 0.1651867
vn 0.451241 0.8769805 0.1651867
vn -0.2620631 0.8769805 -0.4027754
vn -0.2620631 0.8769805 -0.4027754
vn -0.1882731 0.8769805 -0.4421067
vn -0.1636764 0.8523839 -0.4966405
vn -0.06528962 0.8523839 -0.5188247
vn -0.06528962 0.8523839 -0.5188247
vn 0.08229059 0.8523839 -0.5164011
vn 0.08229059 0.8523839 -0.5164011
vn -0.4588367 0.8769805 0.1427375
vn -0.4588367 0.8769805 0.1427375
vn -0.4588367 0.8769805 0.1427375
vn -0.4588367 0.8769805 0.1427375
vn 0.1806774 0.8523839 -0.4907112
vn 0.2790641 0.8769805 -0.3911883
vn 0.2790641 0.8769805 -0.3911883
vn 0.205274 0.8769805 -0.434474
vn 0.08229059 0.8523839 -0.5164011
vn 0.08229059 0.8523839 -0.5164011
g cream_0
f 3/3/3 2/2/2 1/1/1
f 3/3/3 1/1/1 4/4/4
f 5/5/5 4/4/4 1/1/1
f 6/6/6 5/5/5 1/1/1
f 5/5/5 6/6/6 7/7/7
f 7/7/7 6/6/6 8/8/8
f 9/9/9 4/4/4 5/5/5
f 9/9/9 10/10/10 4/4/4
f 10/10/10 11/11/11 4/4/4
f 12/12/12 9/9/9 5/5/5
f 12/12/12 5/5/5 13/13/13
f 14/14/14 12/12/12 13/13/13
f 9/9/9 12/12/12 15/15/15
f 16/16/16 15/15/15 12/12/12
f 17/17/17 15/15/15 16/16/16
f 18/18/18 9/9/9 15/15/15
f 9/9/9 18/18/18 19/19/19
f 20/20/20 19/19/19 18/18/18
f 23/23/23 22/22/22 21/21/21
f 24/24/24 23/23/23 21/21/21
f 25/25/25 23/23/23 24/24/24
f 26/26/26 25/25/25 24/24/24
f 25/25/25 26/26/26 27/27/27
f 26/26/26 28/28/28 27/27/27
f 29/29/29 27/27/27 28/28/28
f 30/30/30 29/29/29 28/28/28
f 33/33/33 32/32/32 31/31/31
f 34/34/34 33/33/33 31/31/31
f 35/35/35 33/33/33 34/34/34
f 36/36/36 35/35/35 34/34/34
f 39/39/39 38/38/38 37/37/37
f 38/38/38 40/40/40 37/37/37
f 37/37/37 40/40/40 41/41/41
f 40/40/40 42/42/42 41/41/41
f 43/43/43 41/41/41 42/42/42
f 44/44/44 43/43/43 42/42/42
f 43/43/43 44/44/44 45/45/45
f 44/44/44 46/46/46 45/45/45
f 49/49/49 48/48/48 47/47/47
f 50/50/50 49/49/49 47/47/47
f 51/51/51 49/49/49 50/50/50
f 52/52/52 51/51/51 50/50/50
f 53/53/53 51/51/51 52/52/52
f 54/54/54 53/53/53 52/52/52
f 57/57/57 56/56/56 55/55/55
f 58/58/58 57/57/57 55/55/55
f 61/61/61 60/60/60 59/59/59
f 62/62/62 61/61/61 59/59/59
f 63/63/63 61/61/61 62/62/62
f 64/64/64 63/63/63 62/62/62
f 65/65/65 63/63/63 64/64/64
f 66/66/66 65/65/65 64/64/64
f 69/69/69 68/68/68 67/67/67
f 70/70/70 69/69/69 67/67/67
f 73/73/73 72/72/72 71/71/71
f 72/72/72 74/74/74 71/71/71
f 71/71/71 74/74/74 75/75/75
f 74/74/74 76/76/76 75/75/75
