g Crystals
v -0.143448 0.6812238 -0.01055548
v 0.1548082 0.6772913 -0.04544376
v 0.06351563 1.138997 0.4146047
v 0.1548082 0.6772913 -0.04544376
v 0.3311259 0.5855139 0.179675
v 0.06351563 1.138997 0.4146047
v 0.2091872 0.497669 0.439682
v -0.089069 0.5016015 0.4745703
v 0.06351563 1.138997 0.4146047
v -0.2653866 0.5933788 0.2494515
v -0.143448 0.6812238 -0.01055548
v 0.06351563 1.138997 0.4146047
v 0.3311259 0.5855139 0.179675
v 0.2091872 0.497669 0.439682
v 0.06351563 1.138997 0.4146047
v -0.089069 0.5016015 0.4745703
v -0.2653866 0.5933788 0.2494515
v 0.06351563 1.138997 0.4146047
v -0.1915717 1.123274 -0.517436
v 0.1082976 1.131908 -0.5035356
v -0.08698608 1.966784 -0.05345392
v 0.1082976 1.131908 -0.5035356
v 0.2481561 1.078308 -0.2432356
v -0.08698608 1.966784 -0.05345392
v 0.08814509 1.016074 0.003164053
v -0.2117243 1.007439 -0.01073641
v -0.08698608 1.966784 -0.05345392
v -0.3515827 1.061039 -0.2710365
v -0.1915717 1.123274 -0.517436
v -0.08698608 1.966784 -0.05345392
v 0.2481561 1.078308 -0.2432356
v 0.08814509 1.016074 0.003164053
v -0.08698608 1.966784 -0.05345392
v -0.2117243 1.007439 -0.01073641
v -0.3515827 1.061039 -0.2710365
v -0.08698608 1.966784 -0.05345392
v 0.1974567 1.037127 -0.1446793
v 0.4732364 0.9993883 -0.2574211
v 0.6579013 1.731164 0.3493167
v 0.4732364 0.9993883 -0.2574211
v 0.686892 0.8693036 -0.09123224
v 0.6579013 1.731164 0.3493167
v 0.6247677 0.776958 0.1876985
v 0.3489879 0.8146974 0.3004403
v 0.6579013 1.731164 0.3493167
v 0.1353324 0.944782 0.1342513
v 0.1974567 1.037127 -0.1446793
v 0.6579013 1.731164 0.3493167
v 0.686892 0.8693036 -0.09123224
v 0.6247677 0.776958 0.1876985
v 0.6579013 1.731164 0.3493167
v 0.3489879 0.8146974 0.3004403
v 0.1353324 0.944782 0.1342513
v 0.6579013 1.731164 0.3493167
v -0.5954383 0.5822273 -0.3580645
v -0.3939666 0.6635493 -0.3023294
v -0.8056453 1.090344 0.1117492
v -0.3939666 0.6635493 -0.3023294
v -0.3046815 0.6146893 -0.102451
v -0.8056453 1.090344 0.1117492
v -0.4168681 0.4845072 0.0416924
v -0.6183398 0.4031851 -0.01404273
v -0.8056453 1.090344 0.1117492
v -0.7076249 0.4520452 -0.2139212
v -0.5954383 0.5822273 -0.3580645
v -0.8056453 1.090344 0.1117492
v -0.3046815 0.6146893 -0.102451
v -0.4168681 0.4845072 0.0416924
v -0.8056453 1.090344 0.1117492
v -0.6183398 0.4031851 -0.01404273
v -0.7076249 0.4520452 -0.2139212
v -0.8056453 1.090344 0.1117492
v -0.3862858 0.577089 -1.030911
v -0.2001466 0.685699 -0.8217571
v -0.6368644 1.171644 -0.9010419
v -0.2001466 0.685699 -0.8217571
v -0.2998658 0.7344096 -0.5427002
v -0.6368644 1.171644 -0.9010419
v -0.5857243 0.6745101 -0.4727975
v -0.7718635 0.5659001 -0.6819516
v -0.6368644 1.171644 -0.9010419
v -0.6721443 0.5171896 -0.9610086
v -0.3862858 0.577089 -1.030911
v -0.6368644 1.171644 -0.9010419
v -0.2998658 0.7344096 -0.5427002
v -0.5857243 0.6745101 -0.4727975
v -0.6368644 1.171644 -0.9010419
v -0.7718635 0.5659001 -0.6819516
v -0.6721443 0.5171896 -0.9610086
v -0.6368644 1.171644 -0.9010419
v 0.2317772 0.002812078 -0.02414519
v 0.1367431 0.005780339 0.1886253
v 0.2091872 0.497669 0.439682
v 0.3311259 0.5855139 0.179675
v -0.09503415 0.002968267 0.2127705
v -0.2317772 -0.002812086 0.0241452
v -0.2653866 0.5933788 0.2494515
v -0.089069 0.5016015 0.4745703
v -0.1367431 -0.005780339 -0.1886253
v 0.09503415 -0.002968267 -0.2127705
v 0.1548082 0.6772913 -0.04544376
v -0.143448 0.6812238 -0.01055548
v 0.09503415 -0.002968267 -0.2127705
v 0.2317772 0.002812078 -0.02414519
v 0.3311259 0.5855139 0.179675
v 0.1548082 0.6772913 -0.04544376
v 0.1367431 0.005780339 0.1886253
v -0.09503415 0.002968267 0.2127705
v -0.089069 0.5016015 0.4745703
v 0.2091872 0.497669 0.439682
v -0.2317772 -0.002812086 0.0241452
v -0.1367431 -0.005780339 -0.1886253
v -0.143448 0.6812238 -0.01055548
v -0.2653866 0.5933788 0.2494515
v 0.2188234 0.02131231 -0.4648171
v 0.09465299 -0.02698239 -0.2736081
v 0.08814509 1.016074 0.003164053
v 0.2481561 1.078308 -0.2432356
v -0.1380493 -0.0336829 -0.284395
v -0.2465811 0.00791128 -0.4863909
v -0.3515827 1.061039 -0.2710365
v -0.2117243 1.007439 -0.01073641
v -0.1224106 0.05620599 -0.6775999
v 0.1102916 0.06290649 -0.666813
v 0.1082976 1.131908 -0.5035356
v -0.1915717 1.123274 -0.517436
v 0.1102916 0.06290649 -0.666813
v 0.2188234 0.02131231 -0.4648171
v 0.2481561 1.078308 -0.2432356
v 0.1082976 1.131908 -0.5035356
v 0.09465299 -0.02698239 -0.2736081
v -0.1380493 -0.0336829 -0.284395
v -0.2117243 1.007439 -0.01073641
v 0.08814509 1.016074 0.003164053
v -0.2465811 0.00791128 -0.4863909
v -0.1224106 0.05620599 -0.6775999
v -0.1915717 1.123274 -0.517436
v -0.3515827 1.061039 -0.2710365
v 0.3672865 -0.005882971 -0.4025236
v 0.3188405 -0.009106807 -0.1745889
v 0.6247677 0.776958 0.1876985
v 0.686892 0.8693036 -0.09123224
v 0.09796246 0.0075837 -0.1021604
v -0.07446969 0.02749803 -0.2576665
v 0.1353324 0.944782 0.1342513
v 0.3489879 0.8146974 0.3004403
v -0.02602376 0.03072186 -0.4856011
v 0.1948543 0.01403136 -0.5580296
v 0.4732364 0.9993883 -0.2574211
v 0.1974567 1.037127 -0.1446793
v 0.1948543 0.01403136 -0.5580296
v 0.3672865 -0.005882971 -0.4025236
v 0.686892 0.8693036 -0.09123224
v 0.4732364 0.9993883 -0.2574211
v 0.3188405 -0.009106807 -0.1745889
v 0.09796246 0.0075837 -0.1021604
v 0.3489879 0.8146974 0.3004403
v 0.6247677 0.776958 0.1876985
v -0.07446969 0.02749803 -0.2576665
v -0.02602376 0.03072186 -0.4856011
v 0.1974567 1.037127 -0.1446793
v 0.1353324 0.944782 0.1342513
v 0.01897061 -0.02534969 -0.3917302
v -0.1314823 -0.02570733 -0.2431395
v -0.4168681 0.4845072 0.0416924
v -0.3046815 0.6146893 -0.102451
v -0.3353711 -0.02890976 -0.2991262
v -0.388807 -0.03175451 -0.5037037
v -0.7076249 0.4520452 -0.2139212
v -0.6183398 0.4031851 -0.01404273
v -0.2383541 -0.03139688 -0.6522943
v -0.03446526 -0.02819449 -0.5963076
v -0.3939666 0.6635493 -0.3023294
v -0.5954383 0.5822273 -0.3580645
v -0.03446526 -0.02819449 -0.5963076
v 0.01897061 -0.02534969 -0.3917302
v -0.3046815 0.6146893 -0.102451
v -0.3939666 0.6635493 -0.3023294
v -0.1314823 -0.02570733 -0.2431395
v -0.3353711 -0.02890976 -0.2991262
v -0.6183398 0.4031851 -0.01404273
v -0.4168681 0.4845072 0.0416924
v -0.388807 -0.03175451 -0.5037037
v -0.2383541 -0.03139688 -0.6522943
v -0.5954383 0.5822273 -0.3580645
v -0.7076249 0.4520452 -0.2139212
v -0.1724705 0.002280787 -0.4149925
v -0.4013563 -0.006213605 -0.3719726
v -0.5857243 0.6745101 -0.4727975
v -0.2998658 0.7344096 -0.5427002
v -0.5530795 -0.01048246 -0.5488156
v -0.4759168 -0.006256908 -0.7686782
v -0.6721443 0.5171896 -0.9610086
v -0.7718635 0.5659001 -0.6819516
v -0.247031 0.002237469 -0.8116982
v -0.09530788 0.006506309 -0.6348552
v -0.2001466 0.685699 -0.8217571
v -0.3862858 0.577089 -1.030911
v -0.09530788 0.006506309 -0.6348552
v -0.1724705 0.002280787 -0.4149925
v -0.2998658 0.7344096 -0.5427002
v -0.2001466 0.685699 -0.8217571
v -0.4013563 -0.006213605 -0.3719726
v -0.5530795 -0.01048246 -0.5488156
v -0.7718635 0.5659001 -0.6819516
v -0.5857243 0.6745101 -0.4727975
v -0.4759168 -0.006256908 -0.7686782
v -0.247031 0.002237469 -0.8116982
v -0.3862858 0.577089 -1.030911
v -0.6721443 0.5171896 -0.9610086
vt 0.927498 0.1940753
vt 0.9280446 0.1918426
vt 0.9217827 0.2314306
vt 0.9280446 0.1918426
vt 0.926652 0.1898264
vt 0.9217827 0.2314306
vt 0.9248043 0.1915707
vt 0.9247842 0.1940711
vt 0.9217827 0.2314306
vt 0.9261104 0.1951682
vt 0.927498 0.1940753
vt 0.9217827 0.2314306
vt 0.926652 0.1898264
vt 0.9248043 0.1915707
vt 0.9217827 0.2314306
vt 0.9247842 0.1940711
vt 0.9261104 0.1951682
vt 0.9217827 0.2314306
vt 0.9250742 0.1890119
vt 0.9247264 0.189476
vt 0.9269905 0.2366164
vt 0.9247264 0.189476
vt 0.9248142 0.1900873
vt 0.9269905 0.2366164
vt 0.9251213 0.190244
vt 0.9254137 0.1900401
vt 0.9269905 0.2366164
vt 0.9254545 0.1894229
vt 0.9250742 0.1890119
vt 0.9269905 0.2366164
vt 0.9248142 0.1900873
vt 0.9251213 0.190244
vt 0.9269905 0.2366164
vt 0.9254137 0.1900401
vt 0.9254545 0.1894229
vt 0.9269905 0.2366164
vt 0.9158449 0.1900925
vt 0.9159287 0.189456
vt 0.9136693 0.2365071
vt 0.9159287 0.189456
vt 0.915579 0.1889373
vt 0.9136693 0.2365071
vt 0.9152075 0.1893237
vt 0.9152511 0.1899691
vt 0.9136693 0.2365071
vt 0.9155385 0.1902236
vt 0.9158449 0.1900925
vt 0.9136693 0.2365071
vt 0.915579 0.1889373
vt 0.9152075 0.1893237
vt 0.9136693 0.2365071
vt 0.9152511 0.1899691
vt 0.9155385 0.1902236
vt 0.9136693 0.2365071
vt 0.9472567 0.1772643
vt 0.947305 0.1778422
vt 0.9489499 0.2120377
vt 0.947305 0.1778422
vt 0.947544 0.1779759
vt 0.9489499 0.2120377
vt 0.9477494 0.1777324
vt 0.9477633 0.177143
vt 0.9489499 0.2120377
vt 0.9475083 0.1768032
vt 0.9472567 0.1772643
vt 0.9489499 0.2120377
vt 0.947544 0.1779759
vt 0.9477494 0.1777324
vt 0.9489499 0.2120377
vt 0.9477633 0.177143
vt 0.9475083 0.1768032
vt 0.9489499 0.2120377
vt 0.9236449 0.193206
vt 0.9235664 0.1960155
vt 0.9208746 0.2315856
vt 0.9235664 0.1960155
vt 0.9247883 0.1971977
vt 0.9208746 0.2315856
vt 0.9262673 0.1964865
vt 0.926778 0.1937724
vt 0.9208746 0.2315856
vt 0.9254186 0.1913657
vt 0.9236449 0.193206
vt 0.9208746 0.2315856
vt 0.9247883 0.1971977
vt 0.9262673 0.1964865
vt 0.9208746 0.2315856
vt 0.926778 0.1937724
vt 0.9254186 0.1913657
vt 0.9208746 0.2315856
vt 0.9326135 0.1390298
vt 0.9210804 0.160117
vt 0.9248043 0.1915707
vt 0.926652 0.1898264
vt 0.9210804 0.1748551
vt 0.9274065 0.180898
vt 0.9261104 0.1951682
vt 0.9247842 0.1940711
vt 0.9350688 0.1770701
vt 0.9388231 0.1624915
vt 0.9280446 0.1918426
vt 0.927498 0.1940753
vt 0.9388231 0.1624915
vt 0.9326135 0.1390298
vt 0.926652 0.1898264
vt 0.9280446 0.1918426
vt 0.9210804 0.160117
vt 0.9210804 0.1748551
vt 0.9247842 0.1940711
vt 0.9248043 0.1915707
vt 0.9274065 0.180898
vt 0.9350688 0.1770701
vt 0.927498 0.1940753
vt 0.9261104 0.1951682
vt 0.9212943 0.1618236
vt 0.924089 0.1644099
vt 0.9251213 0.190244
vt 0.9248142 0.1900873
vt 0.9266536 0.1615928
vt 0.9269905 0.1541319
vt 0.9254545 0.1894229
vt 0.9254137 0.1900401
vt 0.923201 0.1425958
vt 0.9203491 0.1544147
vt 0.9247264 0.189476
vt 0.9250742 0.1890119
vt 0.9203491 0.1544147
vt 0.9212943 0.1618236
vt 0.9248142 0.1900873
vt 0.9247264 0.189476
vt 0.924089 0.1644099
vt 0.9266536 0.1615928
vt 0.9254137 0.1900401
vt 0.9251213 0.190244
vt 0.9269905 0.1541319
vt 0.923201 0.1425958
vt 0.9250742 0.1890119
vt 0.9254545 0.1894229
vt 0.9174619 0.1425958
vt 0.9136693 0.1541165
vt 0.9152075 0.1893237
vt 0.915579 0.1889373
vt 0.9139879 0.1615958
vt 0.9165419 0.1644462
vt 0.9155385 0.1902236
vt 0.9152511 0.1899691
vt 0.9193686 0.161877
vt 0.9203278 0.1544508
vt 0.9159287 0.189456
vt 0.9158449 0.1900925
vt 0.9203278 0.1544508
vt 0.9174619 0.1425958
vt 0.915579 0.1889373
vt 0.9159287 0.189456
vt 0.9136693 0.1541165
vt 0.9139879 0.1615958
vt 0.9152511 0.1899691
vt 0.9152075 0.1893237
vt 0.9165419 0.1644462
vt 0.9193686 0.161877
vt 0.9158449 0.1900925
vt 0.9155385 0.1902236
vt 0.9467933 0.1590659
vt 0.9487412 0.1568924
vt 0.9477494 0.1777324
vt 0.947544 0.1779759
vt 0.9489499 0.1512304
vt 0.9460757 0.1425958
vt 0.9475083 0.1768032
vt 0.9477633 0.177143
vt 0.9439017 0.1515036
vt 0.9446158 0.1571243
vt 0.947305 0.1778422
vt 0.9472567 0.1772643
vt 0.9446158 0.1571243
vt 0.9467933 0.1590659
vt 0.947544 0.1779759
vt 0.947305 0.1778422
vt 0.9487412 0.1568924
vt 0.9489499 0.1512304
vt 0.9477633 0.177143
vt 0.9477494 0.1777324
vt 0.9460757 0.1425958
vt 0.9439017 0.1515036
vt 0.9472567 0.1772643
vt 0.9475083 0.1768032
vt 0.9261594 0.1844099
vt 0.9340495 0.1800031
vt 0.9262673 0.1964865
vt 0.9247883 0.1971977
vt 0.9374908 0.1656298
vt 0.9310221 0.1426742
vt 0.9254186 0.1913657
vt 0.926778 0.1937724
vt 0.9196162 0.1634423
vt 0.9196162 0.1782295
vt 0.9235664 0.1960155
vt 0.9236449 0.193206
vt 0.9196162 0.1782295
vt 0.9261594 0.1844099
vt 0.9247883 0.1971977
vt 0.9235664 0.1960155
vt 0.9340495 0.1800031
vt 0.9374908 0.1656298
vt 0.926778 0.1937724
vt 0.9262673 0.1964865
vt 0.9310221 0.1426742
vt 0.9196162 0.1634423
vt 0.9236449 0.193206
vt 0.9254186 0.1913657
vn -0.07430516 0.696472 -0.7137265
vn -0.07430516 0.696472 -0.7137265
vn -0.07430516 0.696472 -0.7137265
vn 0.7595237 0.5283086 -0.3794913
vn 0.7595237 0.5283086 -0.3794913
vn 0.7595237 0.5283086 -0.3794913
vn 0.1167832 0.06527665 0.99101
vn 0.1167832 0.06527665 0.99101
vn 0.1167832 0.06527665 0.99101
vn -0.8125887 0.5490381 -0.1955938
vn -0.8125887 0.5490381 -0.1955938
vn -0.8125887 0.5490381 -0.1955938
vn 0.855068 0.212711 0.4728772
vn 0.855068 0.212711 0.4728772
vn 0.855068 0.212711 0.4728772
vn -0.7170448 0.2334401 0.6567742
vn -0.7170448 0.2334401 0.6567742
vn -0.7170448 0.2334401 0.6567742
vn 0.02686697 0.4792261 -0.8772801
vn 0.02686697 0.4792261 -0.8772801
vn 0.02686697 0.4792261 -0.8772801
vn 0.8403938 0.3960365 -0.369991
vn 0.8403938 0.3960365 -0.369991
vn 0.8403938 0.3960365 -0.369991
vn -0.04770039 0.05062215 0.9975781
vn -0.04770039 0.05062215 0.9975781
vn -0.04770039 0.05062215 0.9975781
vn -0.8239428 0.3481141 -0.4471407
vn -0.8239428 0.3481141 -0.4471407
vn -0.8239428 0.3481141 -0.4471407
vn 0.8031104 0.1817345 0.5674384
vn 0.8031104 0.1817345 0.5674384
vn 0.8031104 0.1817345 0.5674384
vn -0.8612269 0.1338119 0.4902884
vn -0.8612269 0.1338119 0.4902884
vn -0.8612269 0.1338119 0.4902884
vn -0.2074645 0.6548812 -0.7266974
vn -0.2074645 0.6548812 -0.7266974
vn -0.2074645 0.6548812 -0.7266974
vn 0.6980242 0.344395 -0.6278172
vn 0.6980242 0.344395 -0.6278172
vn 0.6980242 0.344395 -0.6278172
vn 0.3532217 -0.1681416 0.9203058
vn 0.3532217 -0.1681416 0.9203058
vn 0.3532217 -0.1681416 0.9203058
vn -0.8326098 0.5538562 -0.00207633
vn -0.8326098 0.5538562 -0.00207633
vn -0.8326098 0.5538562 -0.00207633
vn 0.9783675 -0.06711656 0.1956845
vn 0.9783675 -0.06711656 0.1956845
vn 0.9783675 -0.06711656 0.1956845
vn -0.5522671 0.1423449 0.821425
vn -0.5522671 0.1423449 0.821425
vn -0.5522671 0.1423449 0.821425
vn -0.0616872 0.6637202 -0.7454329
vn -0.0616872 0.6637202 -0.7454329
vn -0.0616872 0.6637202 -0.7454329
vn 0.6585344 0.74413 -0.1122635
vn 0.6585344 0.74413 -0.1122635
vn 0.6585344 0.74413 -0.1122635
vn -0.1751444 -0.2232763 0.958891
vn -0.1751444 -0.2232763 0.958891
vn -0.1751444 -0.2232763 0.958891
vn -0.8386375 0.1398125 -0.5264404
vn -0.8386375 0.1398125 -0.5264404
vn -0.8386375 0.1398125 -0.5264404
vn 0.6018063 0.3006315 0.7398986
vn 0.6018063 0.3006315 0.7398986
vn 0.6018063 0.3006315 0.7398986
vn -0.8953659 -0.3036855 0.3257223
vn -0.8953659 -0.3036855 0.3257223
vn -0.8953659 -0.3036855 0.3257223
vn 0.5729061 0.3979652 -0.7165209
vn 0.5729061 0.3979652 -0.7165209
vn 0.5729061 0.3979652 -0.7165209
vn 0.7247471 0.6743773 0.1412683
vn 0.7247471 0.6743773 0.1412683
vn 0.7247471 0.6743773 0.1412683
vn -0.7820174 0.3586464 0.5097269
vn -0.7820174 0.3586464 0.5097269
vn -0.7820174 0.3586464 0.5097269
vn -0.2563959 0.1018938 -0.9611862
vn -0.2563959 0.1018938 -0.9611862
vn -0.2563959 0.1018938 -0.9611862
vn 0.04728514 0.654718 0.7543928
vn 0.04728514 0.654718 0.7543928
vn 0.04728514 0.654718 0.7543928
vn -0.9338577 0.08223428 -0.3480625
vn -0.9338577 0.08223428 -0.3480625
vn -0.9338577 0.08223428 -0.3480625
vn 0.8879864 -0.2922574 0.3550572
vn 0.8879864 -0.2922574 0.3550572
vn 0.8879864 -0.2922574 0.3550572
vn 0.8879864 -0.2922574 0.3550572
vn -0.7948523 -0.2633058 0.5466991
vn -0.7948523 -0.2633058 0.5466991
vn -0.7948523 -0.2633058 0.5466991
vn -0.7948523 -0.2633058 0.5466991
vn -0.1067343 0.2474178 -0.9630122
vn -0.1067343 0.2474178 -0.9630122
vn -0.1067343 0.2474178 -0.9630122
vn -0.1067343 0.2474178 -0.9630122
vn 0.8025563 0.07288726 -0.5921071
vn 0.8025563 0.07288726 -0.5921071
vn 0.8025563 0.07288726 -0.5921071
vn 0.8025563 0.07288726 -0.5921071
vn 0.09710642 -0.4636671 0.880672
vn 0.09710642 -0.4636671 0.880672
vn 0.09710642 -0.4636671 0.880672
vn 0.09710642 -0.4636671 0.880672
vn -0.9110526 0.09731956 -0.4006396
vn -0.9110526 0.09731956 -0.4006396
vn -0.9110526 0.09731956 -0.4006396
vn -0.9110526 0.09731956 -0.4006396
vn 0.8462344 -0.1317121 0.5162742
vn 0.8462344 -0.1317121 0.5162742
vn 0.8462344 -0.1317121 0.5162742
vn 0.8462344 -0.1317121 0.5162742
vn -0.8817002 -0.1773173 0.4372223
vn -0.8817002 -0.1773173 0.4372223
vn -0.8817002 -0.1773173 0.4372223
vn -0.8817002 -0.1773173 0.4372223
vn 0.04143763 0.150933 -0.9876751
vn 0.04143763 0.150933 -0.9876751
vn 0.04143763 0.150933 -0.9876751
vn 0.04143763 0.150933 -0.9876751
vn 0.8847186 0.07199119 -0.4605327
vn 0.8847186 0.07199119 -0.4605327
vn 0.8847186 0.07199119 -0.4605327
vn 0.8847186 0.07199119 -0.4605327
vn -0.03738443 -0.2565104 0.9658182
vn -0.03738443 -0.2565104 0.9658182
vn -0.03738443 -0.2565104 0.9658182
vn -0.03738443 -0.2565104 0.9658182
vn -0.8414222 0.02647576 -0.5397294
vn -0.8414222 0.02647576 -0.5397294
vn -0.8414222 0.02647576 -0.5397294
vn -0.8414222 0.02647576 -0.5397294
vn 0.9108678 -0.3934669 0.1245137
vn 0.9108678 -0.3934669 0.1245137
vn 0.9108678 -0.3934669 0.1245137
vn 0.9108678 -0.3934669 0.1245137
vn -0.6674827 -0.1569968 0.7278866
vn -0.6674827 -0.1569968 0.7278866
vn -0.6674827 -0.1569968 0.7278866
vn -0.6674827 -0.1569968 0.7278866
vn -0.2912587 0.3589966 -0.8867298
vn -0.2912587 0.3589966 -0.8867298
vn -0.2912587 0.3589966 -0.8867298
vn -0.2912587 0.3589966 -0.8867298
vn 0.6489977 0.04125153 -0.7596712
vn 0.6489977 0.04125153 -0.7596712
vn 0.6489977 0.04125153 -0.7596712
vn 0.6489977 0.04125153 -0.7596712
vn 0.2569342 -0.4898005 0.8331148
vn 0.2569342 -0.4898005 0.8331148
vn 0.2569342 -0.4898005 0.8331148
vn 0.2569342 -0.4898005 0.8331148
vn -0.9493198 0.2730958 -0.1555973
vn -0.9493198 0.2730958 -0.1555973
vn -0.9493198 0.2730958 -0.1555973
vn -0.9493198 0.2730958 -0.1555973
vn 0.732494 0.04893554 0.6790123
vn 0.732494 0.04893554 0.6790123
vn 0.732494 0.04893554 0.6790123
vn 0.732494 0.04893554 0.6790123
vn -0.758154 -0.621668 0.1968034
vn -0.758154 -0.621668 0.1968034
vn -0.758154 -0.621668 0.1968034
vn -0.758154 -0.621668 0.1968034
vn 0.1419624 0.4703929 -0.8709633
vn 0.1419624 0.4703929 -0.8709633
vn 0.1419624 0.4703929 -0.8709633
vn 0.1419624 0.4703929 -0.8709633
vn 0.8211718 0.522119 -0.2303662
vn 0.8211718 0.522119 -0.2303662
vn 0.8211718 0.522119 -0.2303662
vn 0.8211718 0.522119 -0.2303662
vn -0.1089114 -0.5617121 0.8201328
vn -0.1089114 -0.5617121 0.8201328
vn -0.1089114 -0.5617121 0.8201328
vn -0.1089114 -0.5617121 0.8201328
vn -0.7236695 -0.08097076 -0.6853803
vn -0.7236695 -0.08097076 -0.6853803
vn -0.7236695 -0.08097076 -0.6853803
vn -0.7236695 -0.08097076 -0.6853803
vn 0.1851062 0.1965902 0.9628541
vn 0.1851062 0.1965902 0.9628541
vn 0.1851062 0.1965902 0.9628541
vn 0.1851062 0.1965902 0.9628541
vn -0.8708805 -0.4091907 -0.2722687
vn -0.8708805 -0.4091907 -0.2722687
vn -0.8708805 -0.4091907 -0.2722687
vn -0.8708805 -0.4091907 -0.2722687
vn 0.7599002 -0.06165216 -0.6471096
vn 0.7599002 -0.06165216 -0.6471096
vn 0.7599002 -0.06165216 -0.6471096
vn 0.7599002 -0.06165216 -0.6471096
vn 0.925257 0.2209836 0.3083276
vn 0.925257 0.2209836 0.3083276
vn 0.925257 0.2209836 0.3083276
vn 0.925257 0.2209836 0.3083276
vn -0.7318463 -0.1095218 0.6726114
vn -0.7318463 -0.1095218 0.6726114
vn -0.7318463 -0.1095218 0.6726114
vn -0.7318463 -0.1095218 0.6726114
vn -0.1483574 -0.3864203 -0.9103129
vn -0.1483574 -0.3864203 -0.9103129
vn -0.1483574 -0.3864203 -0.9103129
vn -0.1483574 -0.3864203 -0.9103129
g Crystals_0
f 3/3/3 2/2/2 1/1/1
f 6/6/6 5/5/5 4/4/4
f 9/9/9 8/8/8 7/7/7
f 12/12/12 11/11/11 10/10/10
f 15/15/15 14/14/14 13/13/13
f 18/18/18 17/17/17 16/16/16
f 21/21/21 20/20/20 19/19/19
f 24/24/24 23/23/23 22/22/22
f 27/27/27 26/26/26 25/25/25
f 30/30/30 29/29/29 28/28/28
f 33/33/33 32/32/32 31/31/31
f 36/36/36 35/35/35 34/34/34
f 39/39/39 38/38/38 37/37/37
f 42/42/42 41/41/41 40/40/40
f 45/45/45 44/44/44 43/43/43
f 48/48/48 47/47/47 46/46/46
f 51/51/51 50/50/50 49/49/49
f 54/54/54 53/53/53 52/52/52
f 57/57/57 56/56/56 55/55/55
f 60/60/60 59/59/59 58/58/58
f 63/63/63 62/62/62 61/61/61
f 66/66/66 65/65/65 64/64/64
f 69/69/69 68/68/68 67/67/67
f 72/72/72 71/71/71 70/70/70
f 75/75/75 74/74/74 73/73/73
f 78/78/78 77/77/77 76/76/76
f 81/81/81 80/80/80 79/79/79
f 84/84/84 83/83/83 82/82/82
f 87/87/87 86/86/86 85/85/85
f 90/90/90 89/89/89 88/88/88
f 93/93/93 92/92/92 91/91/91
f 94/94/94 93/93/93 91/91/91
f 97/97/97 96/96/96 95/95/95
f 98/98/98 97/97/97 95/95/95
f 101/101/101 100/100/100 99/99/99
f 102/102/102 101/101/101 99/99/99
f 105/105/105 104/104/104 103/103/103
f 106/106/106 105/105/105 103/103/103
f 109/109/109 108/108/108 107/107/107
f 110/110/110 109/109/109 107/107/107
f 113/113/113 112/112/112 111/111/111
f 114/114/114 113/113/113 111/111/111
f 117/117/117 116/116/116 115/115/115
f 118/118/118 117/117/117 115/115/115
f 121/121/121 120/120/120 119/119/119
f 122/122/122 121/121/121 119/119/119
f 125/125/125 124/124/124 123/123/123
f 126/126/126 125/125/125 123/123/123
f 129/129/129 128/128/128 127/127/127
f 130/130/130 129/129/129 127/127/127
f 133/133/133 132/132/132 131/131/131
f 134/134/134 133/133/133 131/131/131
f 137/137/137 136/136/136 135/135/135
f 138/138/138 137/137/137 135/135/135
f 141/141/141 140/140/140 139/139/139
f 142/142/142 141/141/141 139/139/139
f 145/145/145 144/144/144 143/143/143
f 146/146/146 145/145/145 143/143/143
f 149/149/149 148/148/148 147/147/147
f 150/150/150 149/149/149 147/147/147
f 153/153/153 152/152/152 151/151/151
f 154/154/154 153/153/153 151/151/151
f 157/157/157 156/156/156 155/155/155
f 158/158/158 157/157/157 155/155/155
f 161/161/161 160/160/160 159/159/159
f 162/162/162 161/161/161 159/159/159
f 165/165/165 164/164/164 163/163/163
f 166/166/166 165/165/165 163/163/163
f 169/169/169 168/168/168 167/167/167
f 170/170/170 169/169/169 167/167/167
f 173/173/173 172/172/172 171/171/171
f 174/174/174 173/173/173 171/171/171
f 177/177/177 176/176/176 175/175/175
f 178/178/178 177/177/177 175/175/175
f 181/181/181 180/180/180 179/179/179
f 182/182/182 181/181/181 179/179/179
f 185/185/185 184/184/184 183/183/183
f 186/186/186 185/185/185 183/183/183
f 189/189/189 188/188/188 187/187/187
f 190/190/190 189/189/189 187/187/187
f 193/193/193 192/192/192 191/191/191
f 194/194/194 193/193/193 191/191/191
f 197/197/197 196/196/196 195/195/195
f 198/198/198 197/197/197 195/195/195
f 201/201/201 200/200/200 199/199/199
f 202/202/202 201/201/201 199/199/199
f 205/205/205 204/204/204 203/203/203
f 206/206/206 205/205/205 203/203/203
f 209/209/209 208/208/208 207/207/207
f 210/210/210 209/209/209 207/207/207
