g cupboard
v 0.5945632 0.002774537 -0.4989111
v 0.4950069 0.002774537 -0.4989111
v 0.4950069 0.1023309 -0.4989111
v 0.5945632 0.1023309 -0.4989111
v 0.5945632 0.1023309 -0.4989111
v 0.4950069 0.1023309 -0.4989111
v 0.4950069 0.1023309 -0.5984674
v 0.5945632 0.1023309 -0.5984674
v 0.5945632 0.1023309 -0.5984674
v 0.4950069 0.1023309 -0.5984674
v 0.4950069 0.002774537 -0.5984674
v 0.5945632 0.002774537 -0.5984674
v 0.5945632 0.002774537 -0.5984674
v 0.4950069 0.002774537 -0.5984674
v 0.4950069 0.002774537 -0.4989111
v 0.5945632 0.002774537 -0.4989111
v 0.4950069 0.002774537 -0.4989111
v 0.4950069 0.002774537 -0.5984674
v 0.4950069 0.1023309 -0.5984674
v 0.4950069 0.1023309 -0.4989111
v 0.5945632 0.002774537 -0.5984674
v 0.5945632 0.002774537 -0.4989111
v 0.5945632 0.1023309 -0.4989111
v 0.5945632 0.1023309 -0.5984674
v -0.5044602 0.9065895 0.5981601
v -0.5044602 0.9534395 0.5981601
v 0.5125756 0.9534395 0.5981601
v 0.5125756 0.9065895 0.5981601
v -0.5044602 0.9534395 0.5981601
v -0.5044602 0.9534395 -0.5730903
v 0.5125756 0.9534395 -0.5730903
v 0.5125756 0.9534395 0.5981601
v -0.5044602 0.9534395 -0.5730903
v -0.5044602 0.9065895 -0.5730903
v 0.5125756 0.9065895 -0.5730903
v 0.5125756 0.9534395 -0.5730903
v -0.5044602 0.9065895 -0.5730903
v -0.5044602 0.9065895 0.5981601
v 0.5125756 0.9065895 0.5981601
v 0.5125756 0.9065895 -0.5730903
v 0.5125756 0.9065895 0.5981601
v 0.5125756 0.9534395 0.5981601
v 0.5125756 0.9534395 -0.5730903
v 0.5125756 0.9065895 -0.5730903
v -0.5044602 0.9065895 -0.5730903
v -0.5044602 0.9534395 -0.5730903
v -0.5044602 0.9534395 0.5981601
v -0.5044602 0.9065895 0.5981601
v -0.5962081 1.398515 0.5981601
v -0.5962081 1.398515 -0.5965152
v 0.5945632 1.398515 -0.5965152
v 0.5945632 1.398515 0.5981601
v -0.5962081 1.398515 -0.5965152
v -0.5962081 0.1023309 -0.5965152
v 0.5945632 0.1023309 -0.5965152
v 0.5945632 1.398515 -0.5965152
v -0.5962081 0.1023309 -0.5965152
v -0.5962081 0.1023309 0.5981601
v 0.5945632 0.1023309 0.5981601
v 0.5945632 0.1023309 -0.5965152
v 0.5945632 0.1023309 0.5981601
v 0.5945632 1.398515 0.5981601
v 0.5945632 1.398515 -0.5965152
v 0.5945632 0.1023309 -0.5965152
v -0.5962081 0.1023309 -0.5965152
v -0.5962081 1.398515 -0.5965152
v -0.5962081 1.398515 0.5981601
v -0.5962081 0.1023309 0.5981601
v -0.502508 1.304815 0.5981601
v 0.5008631 1.304815 0.5981601
v 0.4989111 1.302863 -0.5320965
v -0.502508 1.302863 -0.5320965
v -0.502508 1.302863 -0.5320965
v 0.4989111 1.302863 -0.5320965
v 0.4989111 0.1491809 -0.5320965
v -0.502508 0.1491809 -0.5320965
v -0.502508 0.1491809 -0.5320965
v 0.4989111 0.1491809 -0.5320965
v 0.5008631 0.1491809 0.5981601
v -0.502508 0.1491809 0.5981601
v 0.5008631 0.1491809 0.5981601
v 0.4989111 0.1491809 -0.5320965
v 0.4989111 1.302863 -0.5320965
v 0.5008631 1.304815 0.5981601
v -0.502508 0.1491809 -0.5320965
v -0.502508 0.1491809 0.5981601
v -0.502508 1.304815 0.5981601
v -0.502508 1.302863 -0.5320965
v -0.5962081 1.398515 0.5981601
v -0.502508 0.1491809 0.5981601
v -0.5962081 0.1023309 0.5981601
v -0.502508 1.304815 0.5981601
v 0.5945632 1.398515 0.5981601
v 0.5008631 1.304815 0.5981601
v 0.5945632 0.1023309 0.5981601
v 0.5008631 0.1491809 0.5981601
v -0.5962081 0.1023309 0.5981601
v -0.502508 0.1491809 0.5981601
v 0.5945632 0.002774537 0.5962081
v 0.4950069 0.002774537 0.5962081
v 0.4950069 0.1023309 0.5962081
v 0.5945632 0.1023309 0.5962081
v 0.5945632 0.1023309 0.5962081
v 0.4950069 0.1023309 0.5962081
v 0.4950069 0.1023309 0.4966519
v 0.5945632 0.1023309 0.4966519
v 0.5945632 0.1023309 0.4966519
v 0.4950069 0.1023309 0.4966519
v 0.4950069 0.002774537 0.4966519
v 0.5945632 0.002774537 0.4966519
v 0.5945632 0.002774537 0.4966519
v 0.4950069 0.002774537 0.4966519
v 0.4950069 0.002774537 0.5962081
v 0.5945632 0.002774537 0.5962081
v 0.4950069 0.002774537 0.5962081
v 0.4950069 0.002774537 0.4966519
v 0.4950069 0.1023309 0.4966519
v 0.4950069 0.1023309 0.5962081
v 0.5945632 0.002774537 0.4966519
v 0.5945632 0.002774537 0.5962081
v 0.5945632 0.1023309 0.5962081
v 0.5945632 0.1023309 0.4966519
v -0.5962081 0.002774537 0.5962081
v -0.5962081 0.1023309 0.5962081
v -0.4966519 0.1023309 0.5962081
v -0.4966519 0.002774537 0.5962081
v -0.5962081 0.1023309 0.5962081
v -0.5962081 0.1023309 0.4966519
v -0.4966519 0.1023309 0.4966519
v -0.4966519 0.1023309 0.5962081
v -0.5962081 0.1023309 0.4966519
v -0.5962081 0.002774537 0.4966519
v -0.4966519 0.002774537 0.4966519
v -0.4966519 0.1023309 0.4966519
v -0.5962081 0.002774537 0.4966519
v -0.5962081 0.002774537 0.5962081
v -0.4966519 0.002774537 0.5962081
v -0.4966519 0.002774537 0.4966519
v -0.4966519 0.002774537 0.5962081
v -0.4966519 0.1023309 0.5962081
v -0.4966519 0.1023309 0.4966519
v -0.4966519 0.002774537 0.4966519
v -0.5962081 0.002774537 0.4966519
v -0.5962081 0.1023309 0.4966519
v -0.5962081 0.1023309 0.5962081
v -0.5962081 0.002774537 0.5962081
v -0.5962081 0.002774537 -0.4989111
v -0.5962081 0.1023309 -0.4989111
v -0.4966519 0.1023309 -0.4989111
v -0.4966519 0.002774537 -0.4989111
v -0.5962081 0.1023309 -0.4989111
v -0.5962081 0.1023309 -0.5984674
v -0.4966519 0.1023309 -0.5984674
v -0.4966519 0.1023309 -0.4989111
v -0.5962081 0.1023309 -0.5984674
v -0.5962081 0.002774537 -0.5984674
v -0.4966519 0.002774537 -0.5984674
v -0.4966519 0.1023309 -0.5984674
v -0.5962081 0.002774537 -0.5984674
v -0.5962081 0.002774537 -0.4989111
v -0.4966519 0.002774537 -0.4989111
v -0.4966519 0.002774537 -0.5984674
v -0.4966519 0.002774537 -0.4989111
v -0.4966519 0.1023309 -0.4989111
v -0.4966519 0.1023309 -0.5984674
v -0.4966519 0.002774537 -0.5984674
v -0.5962081 0.002774537 -0.5984674
v -0.5962081 0.1023309 -0.5984674
v -0.5962081 0.1023309 -0.4989111
v -0.5962081 0.002774537 -0.4989111
vt 0.7779446 0.2800567
vt 0.7831855 0.2800567
vt 0.7831855 0.2852977
vt 0.7779446 0.2852977
vt 0.7779446 0.2852977
vt 0.7831855 0.2852977
vt 0.7831855 0.2905386
vt 0.7779446 0.2905386
vt 0.7779446 0.2905386
vt 0.7831855 0.2905386
vt 0.7831855 0.2984
vt 0.7779446 0.2984
vt 0.7779446 0.2984
vt 0.7831855 0.2984
vt 0.7831855 0.3036409
vt 0.7779446 0.3036409
vt 0.7831855 0.2800567
vt 0.7884265 0.2800567
vt 0.7884265 0.2852977
vt 0.7831855 0.2852977
vt 0.7700832 0.2800567
vt 0.7779446 0.2800567
vt 0.7779446 0.2852977
vt 0.7700832 0.2852977
vt 0.9325519 0.6233373
vt 0.9325519 0.6259577
vt 0.9377928 0.6259577
vt 0.9377928 0.6233373
vt 0.9325519 0.6259577
vt 0.9325519 0.6311987
vt 0.9377928 0.6311987
vt 0.9377928 0.6259577
vt 0.9325519 0.6311987
vt 0.9325519 0.6338192
vt 0.9377928 0.6338192
vt 0.9377928 0.6311987
vt 0.9325519 0.6338192
vt 0.9325519 0.6390601
vt 0.9377928 0.6390601
vt 0.9377928 0.6338192
vt 0.9377928 0.6233373
vt 0.9377928 0.6259577
vt 0.9430338 0.6259577
vt 0.9430338 0.6233373
vt 0.9299314 0.6233373
vt 0.9299314 0.6259577
vt 0.9325519 0.6259577
vt 0.9325519 0.6233373
vt 0.9404132 0.6233373
vt 0.9404132 0.6259577
vt 0.9404132 0.6259577
vt 0.9404132 0.6233373
vt 0.9404132 0.6259577
vt 0.9404132 0.6259577
vt 0.9404132 0.6259577
vt 0.9404132 0.6259577
vt 0.9404132 0.6259577
vt 0.9404132 0.6285782
vt 0.9404132 0.6259577
vt 0.9404132 0.6259577
vt 0.9404132 0.6259577
vt 0.9404132 0.6233373
vt 0.9430338 0.6233373
vt 0.9430338 0.6233373
vt 0.9377928 0.6233373
vt 0.9377928 0.6233373
vt 0.9404132 0.6233373
vt 0.9404132 0.6233373
vt 0.9404132 0.6233373
vt 0.9404132 0.6233373
vt 0.9404132 0.6259577
vt 0.9404132 0.6259577
vt 0.9404132 0.6259577
vt 0.9404132 0.6259577
vt 0.9404132 0.6259577
vt 0.9404132 0.6259577
vt 0.9404132 0.6259577
vt 0.9404132 0.6259577
vt 0.9404132 0.6259577
vt 0.9404132 0.6285782
vt 0.9404132 0.6259577
vt 0.9430338 0.6233373
vt 0.9430338 0.6233373
vt 0.9404132 0.6233373
vt 0.9377928 0.6233373
vt 0.9404132 0.6233373
vt 0.9404132 0.6233373
vt 0.9377928 0.6233373
vt 0.9404132 0.6233373
vt 0.9404132 0.6233373
vt 0.9404132 0.6233373
vt 0.9404132 0.6233373
vt 0.9404132 0.6233373
vt 0.9404132 0.6233373
vt 0.9404132 0.6259577
vt 0.9404132 0.6259577
vt 0.9404132 0.6285782
vt 0.9404132 0.6285782
vt 0.7727036 0.2748158
vt 0.780565 0.2748158
vt 0.780565 0.2852977
vt 0.7727036 0.2852977
vt 0.7727036 0.2852977
vt 0.780565 0.2852977
vt 0.780565 0.293159
vt 0.7727036 0.293159
vt 0.7727036 0.293159
vt 0.780565 0.293159
vt 0.780565 0.3036409
vt 0.7727036 0.3036409
vt 0.7727036 0.3036409
vt 0.780565 0.3036409
vt 0.780565 0.3115023
vt 0.7727036 0.3115023
vt 0.780565 0.2748158
vt 0.7910469 0.2748158
vt 0.7910469 0.2852977
vt 0.780565 0.2852977
vt 0.7622218 0.2748158
vt 0.7727036 0.2748158
vt 0.7727036 0.2852977
vt 0.7622218 0.2852977
vt 0.7727036 0.2748158
vt 0.7727036 0.2852977
vt 0.780565 0.2852977
vt 0.780565 0.2748158
vt 0.7727036 0.2852977
vt 0.7727036 0.293159
vt 0.780565 0.293159
vt 0.780565 0.2852977
vt 0.7727036 0.293159
vt 0.7727036 0.3036409
vt 0.780565 0.3036409
vt 0.780565 0.293159
vt 0.7727036 0.3036409
vt 0.7727036 0.3115023
vt 0.780565 0.3115023
vt 0.780565 0.3036409
vt 0.780565 0.2748158
vt 0.780565 0.2852977
vt 0.7910469 0.2852977
vt 0.7910469 0.2748158
vt 0.7622218 0.2748158
vt 0.7622218 0.2852977
vt 0.7727036 0.2852977
vt 0.7727036 0.2748158
vt 0.7727036 0.2748158
vt 0.7727036 0.2852977
vt 0.780565 0.2852977
vt 0.780565 0.2748158
vt 0.7727036 0.2852977
vt 0.7727036 0.293159
vt 0.780565 0.293159
vt 0.780565 0.2852977
vt 0.7727036 0.293159
vt 0.7727036 0.3036409
vt 0.780565 0.3036409
vt 0.780565 0.293159
vt 0.7727036 0.3036409
vt 0.7727036 0.3115023
vt 0.780565 0.3115023
vt 0.780565 0.3036409
vt 0.780565 0.2748158
vt 0.780565 0.2852977
vt 0.7910469 0.2852977
vt 0.7910469 0.2748158
vt 0.7622218 0.2748158
vt 0.7622218 0.2852977
vt 0.7727036 0.2852977
vt 0.7727036 0.2748158
vn -0.01587105 0.01587105 0.9997481
vn -0.01587105 0.01587105 0.9997481
vn -0.01587105 0.01587105 0.9997481
vn -0.01587105 0.01587105 0.9997481
vn -0.01587105 0.999874 -0.000345267
vn -0.01587105 0.999874 -0.000345267
vn -0.01587105 0.999874 -0.000345267
vn -0.01587105 0.999874 -0.000345267
vn -0.01587105 0.01587105 -0.9997481
vn -0.01587105 0.01587105 -0.9997481
vn -0.01587105 0.01587105 -0.9997481
vn -0.01587105 0.01587105 -0.9997481
vn -0.01587105 -0.999874 -0.000345267
vn -0.01587105 -0.999874 -0.000345267
vn -0.01587105 -0.999874 -0.000345267
vn -0.01587105 -0.999874 -0.000345267
vn -0.999874 0.01587105 -0.0003439156
vn -0.999874 0.01587105 -0.0003439156
vn -0.999874 0.01587105 -0.0003439156
vn -0.999874 0.01587105 -0.0003439156
vn 0.999874 0.01587105 -0.0003439156
vn 0.999874 0.01587105 -0.0003439156
vn 0.999874 0.01587105 -0.0003439156
vn 0.999874 0.01587105 -0.0003439156
vn -0.01587105 0.01587105 0.9997481
vn -0.01587105 0.01587105 0.9997481
vn -0.01587105 0.01587105 0.9997481
vn -0.01587105 0.01587105 0.9997481
vn -0.01587105 0.999874 -0.000345267
vn -0.01587105 0.999874 -0.000345267
vn -0.01587105 0.999874 -0.000345267
vn -0.01587105 0.999874 -0.000345267
vn -0.01587105 0.01587105 -0.9997481
vn -0.01587105 0.01587105 -0.9997481
vn -0.01587105 0.01587105 -0.9997481
vn -0.01587105 0.01587105 -0.9997481
vn -0.01587105 -0.999874 -0.000345267
vn -0.01587105 -0.999874 -0.000345267
vn -0.01587105 -0.999874 -0.000345267
vn -0.01587105 -0.999874 -0.000345267
vn 0.999874 0.01587105 -0.0003439156
vn 0.999874 0.01587105 -0.0003439156
vn 0.999874 0.01587105 -0.0003439156
vn 0.999874 0.01587105 -0.0003439156
vn -0.999874 0.01587105 -0.0003439156
vn -0.999874 0.01587105 -0.0003439156
vn -0.999874 0.01587105 -0.0003439156
vn -0.999874 0.01587105 -0.0003439156
vn -0.01587105 0.999874 -0.000345267
vn -0.01587105 0.999874 -0.000345267
vn -0.01587105 0.999874 -0.000345267
vn -0.01587105 0.999874 -0.000345267
vn -0.01587105 0.01587105 -0.9997481
vn -0.01587105 0.01587105 -0.9997481
vn -0.01587105 0.01587105 -0.9997481
vn -0.01587105 0.01587105 -0.9997481
vn -0.01587105 -0.999874 -0.000345267
vn -0.01587105 -0.999874 -0.000345267
vn -0.01587105 -0.999874 -0.000345267
vn -0.01587105 -0.999874 -0.000345267
vn 0.999874 0.01587105 -0.0003439156
vn 0.999874 0.01587105 -0.0003439156
vn 0.999874 0.01587105 -0.0003439156
vn 0.999874 0.01587105 -0.0003439156
vn -0.999874 0.01587105 -0.0003439156
vn -0.999874 0.01587105 -0.0003439156
vn -0.999874 0.01587105 -0.0003439156
vn -0.999874 0.01587105 -0.0003439156
vn -0.01587105 -0.999874 -0.000345267
vn -0.01587105 -0.999874 -0.000345267
vn -0.01587105 -0.999874 -0.000345267
vn -0.01587105 -0.999874 -0.000345267
vn -0.01587105 0.01587105 0.9997481
vn -0.01587105 0.01587105 0.9997481
vn -0.01587105 0.01587105 0.9997481
vn -0.01587105 0.01587105 0.9997481
vn -0.01587105 0.999874 -0.000345267
vn -0.01587105 0.999874 -0.000345267
vn -0.01587105 0.999874 -0.000345267
vn -0.01587105 0.999874 -0.000345267
vn -0.999874 0.01587105 -0.0003439156
vn -0.999874 0.01587105 -0.0003439156
vn -0.999874 0.01587105 -0.0003439156
vn -0.999874 0.01587105 -0.0003439156
vn 0.999874 0.01587105 -0.0003439156
vn 0.999874 0.01587105 -0.0003439156
vn 0.999874 0.01587105 -0.0003439156
vn 0.999874 0.01587105 -0.0003439156
vn -0.01587105 0.01587105 0.9997481
vn -0.01587105 0.01587105 0.9997481
vn -0.01587105 0.01587105 0.9997481
vn -0.01587105 0.01587105 0.9997481
vn -0.01587105 0.01587105 0.9997481
vn -0.01587105 0.01587105 0.9997481
vn -0.01587105 0.01587105 0.9997481
vn -0.01587105 0.01587105 0.9997481
vn -0.01587105 0.01587105 0.9997481
vn -0.01587105 0.01587105 0.9997481
vn -0.01587105 0.01587105 0.9997481
vn -0.01587105 0.01587105 0.9997481
vn -0.01587105 0.01587105 0.9997481
vn -0.01587105 0.01587105 0.9997481
vn -0.01587105 0.999874 -0.000345267
vn -0.01587105 0.999874 -0.000345267
vn -0.01587105 0.999874 -0.000345267
vn -0.01587105 0.999874 -0.000345267
vn -0.01587105 0.01587105 -0.9997481
vn -0.01587105 0.01587105 -0.9997481
vn -0.01587105 0.01587105 -0.9997481
vn -0.01587105 0.01587105 -0.9997481
vn -0.01587105 -0.999874 -0.000345267
vn -0.01587105 -0.999874 -0.000345267
vn -0.01587105 -0.999874 -0.000345267
vn -0.01587105 -0.999874 -0.000345267
vn -0.999874 0.01587105 -0.0003439156
vn -0.999874 0.01587105 -0.0003439156
vn -0.999874 0.01587105 -0.0003439156
vn -0.999874 0.01587105 -0.0003439156
vn 0.999874 0.01587105 -0.0003439156
vn 0.999874 0.01587105 -0.0003439156
vn 0.999874 0.01587105 -0.0003439156
vn 0.999874 0.01587105 -0.0003439156
vn -0.01587105 0.01587105 0.9997481
vn -0.01587105 0.01587105 0.9997481
vn -0.01587105 0.01587105 0.9997481
vn -0.01587105 0.01587105 0.9997481
vn -0.01587105 0.999874 -0.000345267
vn -0.01587105 0.999874 -0.000345267
vn -0.01587105 0.999874 -0.000345267
vn -0.01587105 0.999874 -0.000345267
vn -0.01587105 0.01587105 -0.9997481
vn -0.01587105 0.01587105 -0.9997481
vn -0.01587105 0.01587105 -0.9997481
vn -0.01587105 0.01587105 -0.9997481
vn -0.01587105 -0.999874 -0.000345267
vn -0.01587105 -0.999874 -0.000345267
vn -0.01587105 -0.999874 -0.000345267
vn -0.01587105 -0.999874 -0.000345267
vn 0.999874 0.01587105 -0.0003439156
vn 0.999874 0.01587105 -0.0003439156
vn 0.999874 0.01587105 -0.0003439156
vn 0.999874 0.01587105 -0.0003439156
vn -0.999874 0.01587105 -0.0003439156
vn -0.999874 0.01587105 -0.0003439156
vn -0.999874 0.01587105 -0.0003439156
vn -0.999874 0.01587105 -0.0003439156
vn -0.01587105 0.01587105 0.9997481
vn -0.01587105 0.01587105 0.9997481
vn -0.01587105 0.01587105 0.9997481
vn -0.01587105 0.01587105 0.9997481
vn -0.01587105 0.999874 -0.000345267
vn -0.01587105 0.999874 -0.000345267
vn -0.01587105 0.999874 -0.000345267
vn -0.01587105 0.999874 -0.000345267
vn -0.01587105 0.01587105 -0.9997481
vn -0.01587105 0.01587105 -0.9997481
vn -0.01587105 0.01587105 -0.9997481
vn -0.01587105 0.01587105 -0.9997481
vn -0.01587105 -0.999874 -0.000345267
vn -0.01587105 -0.999874 -0.000345267
vn -0.01587105 -0.999874 -0.000345267
vn -0.01587105 -0.999874 -0.000345267
vn 0.999874 0.01587105 -0.0003439156
vn 0.999874 0.01587105 -0.0003439156
vn 0.999874 0.01587105 -0.0003439156
vn 0.999874 0.01587105 -0.0003439156
vn -0.999874 0.01587105 -0.0003439156
vn -0.999874 0.01587105 -0.0003439156
vn -0.999874 0.01587105 -0.0003439156
vn -0.999874 0.01587105 -0.0003439156
g cupboard_0
f 3/3/3 2/2/2 1/1/1
f 4/4/4 3/3/3 1/1/1
f 7/7/7 6/6/6 5/5/5
f 8/8/8 7/7/7 5/5/5
f 11/11/11 10/10/10 9/9/9
f 12/12/12 11/11/11 9/9/9
f 15/15/15 14/14/14 13/13/13
f 16/16/16 15/15/15 13/13/13
f 19/19/19 18/18/18 17/17/17
f 20/20/20 19/19/19 17/17/17
f 23/23/23 22/22/22 21/21/21
f 24/24/24 23/23/23 21/21/21
f 27/27/27 26/26/26 25/25/25
f 28/28/28 27/27/27 25/25/25
f 31/31/31 30/30/30 29/29/29
f 32/32/32 31/31/31 29/29/29
f 35/35/35 34/34/34 33/33/33
f 36/36/36 35/35/35 33/33/33
f 39/39/39 38/38/38 37/37/37
f 40/40/40 39/39/39 37/37/37
f 43/43/43 42/42/42 41/41/41
f 44/44/44 43/43/43 41/41/41
f 47/47/47 46/46/46 45/45/45
f 48/48/48 47/47/47 45/45/45
f 51/51/51 50/50/50 49/49/49
f 52/52/52 51/51/51 49/49/49
f 55/55/55 54/54/54 53/53/53
f 56/56/56 55/55/55 53/53/53
f 59/59/59 58/58/58 57/57/57
f 60/60/60 59/59/59 57/57/57
f 63/63/63 62/62/62 61/61/61
f 64/64/64 63/63/63 61/61/61
f 67/67/67 66/66/66 65/65/65
f 68/68/68 67/67/67 65/65/65
f 71/71/71 70/70/70 69/69/69
f 72/72/72 71/71/71 69/69/69
f 75/75/75 74/74/74 73/73/73
f 76/76/76 75/75/75 73/73/73
f 79/79/79 78/78/78 77/77/77
f 80/80/80 79/79/79 77/77/77
f 83/83/83 82/82/82 81/81/81
f 84/84/84 83/83/83 81/81/81
f 87/87/87 86/86/86 85/85/85
f 88/88/88 87/87/87 85/85/85
f 91/91/91 90/90/90 89/89/89
f 90/90/90 92/92/92 89/89/89
f 89/89/89 92/92/92 93/93/93
f 92/92/92 94/94/94 93/93/93
f 93/93/93 94/94/94 95/95/95
f 94/94/94 96/96/96 95/95/95
f 95/95/95 96/96/96 97/97/97
f 96/96/96 98/98/98 97/97/97
f 101/101/101 100/100/100 99/99/99
f 102/102/102 101/101/101 99/99/99
f 105/105/105 104/104/104 103/103/103
f 106/106/106 105/105/105 103/103/103
f 109/109/109 108/108/108 107/107/107
f 110/110/110 109/109/109 107/107/107
f 113/113/113 112/112/112 111/111/111
f 114/114/114 113/113/113 111/111/111
f 117/117/117 116/116/116 115/115/115
f 118/118/118 117/117/117 115/115/115
f 121/121/121 120/120/120 119/119/119
f 122/122/122 121/121/121 119/119/119
f 125/125/125 124/124/124 123/123/123
f 126/126/126 125/125/125 123/123/123
f 129/129/129 128/128/128 127/127/127
f 130/130/130 129/129/129 127/127/127
f 133/133/133 132/132/132 131/131/131
f 134/134/134 133/133/133 131/131/131
f 137/137/137 136/136/136 135/135/135
f 138/138/138 137/137/137 135/135/135
f 141/141/141 140/140/140 139/139/139
f 142/142/142 141/141/141 139/139/139
f 145/145/145 144/144/144 143/143/143
f 146/146/146 145/145/145 143/143/143
f 149/149/149 148/148/148 147/147/147
f 150/150/150 149/149/149 147/147/147
f 153/153/153 152/152/152 151/151/151
f 154/154/154 153/153/153 151/151/151
f 157/157/157 156/156/156 155/155/155
f 158/158/158 157/157/157 155/155/155
f 161/161/161 160/160/160 159/159/159
f 162/162/162 161/161/161 159/159/159
f 165/165/165 164/164/164 163/163/163
f 166/166/166 165/165/165 163/163/163
f 169/169/169 168/168/168 167/167/167
f 170/170/170 169/169/169 167/167/167
