g Donuts
v -0.0533489 0.1610006 0.08699892
v -0.092403 0.12942 0.06402315
v -0.1039919 0.1585752 0.0353217
v -0.06003973 0.1941166 0.061179
v -0.1200795 0.1100248 -4.493302E-08
v -5.260281E-09 0.1725599 0.09540865
v -5.218349E-10 0.2071256 0.07064344
v -0.1066978 0.08627995 0.03263767
v -0.1039919 0.06147432 -0.03532177
v 0.05334889 0.1610006 0.08699892
v 0.06003972 0.1941166 0.06117901
v -0.092403 0.04313997 0.0012522
v -0.06003973 0.02593293 -0.06117906
v 0.092403 0.1294199 0.06402317
v 0.1039919 0.1585752 0.03532172
v -0.0533489 0.01155931 -0.02172356
v 1.231542E-08 0.01292387 -0.07064349
v 0.1066978 0.08627994 0.03263771
v 0.1200795 0.1100247 -1.155441E-08
v 6.14639E-09 -1.186124E-08 -0.03013326
v 0.06003974 0.02593292 -0.06117905
v 0.09240302 0.04313996 0.001252228
v 0.1039919 0.06147431 -0.03532174
v 0.0533489 0.01155931 -0.02172354
v 0.06442504 0.1065225 0.0680392
v 0.07439163 0.07644452 0.04615667
v 0.06442504 0.04636655 0.02427415
v 0.03719582 0.02434793 0.00825503
v 1.399383E-10 0.01628857 0.002391624
v -0.03719582 0.02434794 0.008255021
v 0.03719581 0.1285411 0.0840583
v -0.06442506 0.04636656 0.02427413
v -7.812999E-09 0.1366005 0.08992171
v -0.07439165 0.07644453 0.04615665
v -0.03719582 0.1285411 0.0840583
v -0.06442505 0.1065225 0.0680392
v 0.03644708 0.1032959 0.04501726
v 0.02104273 0.1157525 0.05407973
v -6.684643E-09 0.1203119 0.05739682
v -0.02104274 0.1157525 0.05407973
v -0.03644709 0.1032959 0.04501726
v -0.04208548 0.08627994 0.03263769
v 0.04208546 0.08627994 0.0326377
v -0.0364471 0.06926398 0.02025812
v 0.03644709 0.06926397 0.02025812
v -0.02104274 0.05680742 0.01119565
v 0.02104273 0.05680742 0.01119565
v -2.185439E-09 0.05224801 0.00787855
v 0.02870381 0.1100247 -2.109115E-08
v 0.02485823 0.09841923 -0.008443335
v 0.02485823 0.1216303 0.008443293
v 0.01435191 0.08992343 -0.01462427
v 5.324323E-10 0.08681374 -0.01688665
v 0.0143519 0.1301261 0.01462421
v -0.01435191 0.08992343 -0.01462428
v -0.02485823 0.09841924 -0.00844334
v -2.536187E-09 0.1332358 0.01688659
v -0.02870381 0.1100247 -3.06279E-08
v -0.01435191 0.1301261 0.01462421
v -0.02485823 0.1216303 0.008443288
v -0.02104273 0.1632421 -0.0111957
v -0.03644708 0.1507855 -0.02025817
v -0.02485823 0.1216303 0.008443288
v -0.01435191 0.1301261 0.01462421
v -0.02870381 0.1100247 -3.06279E-08
v 2.202259E-09 0.1678015 -0.007878602
v -2.536187E-09 0.1332358 0.01688659
v -0.04208547 0.1337696 -0.03263775
v -0.02485823 0.09841924 -0.00844334
v 0.02104273 0.1632421 -0.0111957
v 0.0143519 0.1301261 0.01462421
v -0.03644709 0.1167536 -0.04501731
v -0.01435191 0.08992343 -0.01462428
v 0.03644709 0.1507855 -0.02025817
v 0.02485823 0.1216303 0.008443293
v -0.02104273 0.104297 -0.05407978
v 5.324323E-10 0.08681374 -0.01688665
v 0.04208547 0.1337696 -0.03263773
v 0.02870381 0.1100247 -2.109115E-08
v 6.701462E-09 0.09973763 -0.05739687
v 0.01435191 0.08992343 -0.01462427
v 0.0364471 0.1167536 -0.0450173
v 0.02485823 0.09841923 -0.008443335
v 0.02104274 0.104297 -0.05407977
v 0.06442504 0.173683 -0.02427419
v 0.07439164 0.143605 -0.04615671
v 0.06442506 0.113527 -0.06803924
v 0.03719583 0.0915084 -0.08405837
v 1.270791E-08 0.08344904 -0.08992176
v -0.03719581 0.0915084 -0.08405837
v 0.03719582 0.1957016 -0.008255082
v -0.06442504 0.113527 -0.06803926
v 4.754976E-09 0.2037609 -0.002391685
v -0.07439164 0.143605 -0.04615673
v -0.03719581 0.1957016 -0.008255087
v -0.06442504 0.173683 -0.0242742
v 0.092403 0.1769095 -0.001252247
v 0.0533489 0.2084902 0.0217235
v 3.626623E-09 0.2200495 0.03013321
v -0.05334889 0.2084902 0.02172349
v -0.092403 0.1769096 -0.001252266
v -0.1066978 0.1337696 -0.03263775
v 0.1066978 0.1337696 -0.03263772
v -0.092403 0.09062959 -0.06402323
v 0.09240302 0.09062959 -0.0640232
v -0.05334889 0.05904892 -0.08699899
v 0.05334891 0.05904891 -0.08699898
v 1.503329E-08 0.0474896 -0.09540869
v 0.1200795 0.1100247 -1.155441E-08
v 0.1039919 0.06147431 -0.03532174
v 0.1039919 0.1585752 0.03532172
v 0.06003974 0.02593292 -0.06117905
v 1.231542E-08 0.01292387 -0.07064349
v 0.06003972 0.1941166 0.06117901
v -0.06003973 0.02593293 -0.06117906
v -0.1039919 0.06147432 -0.03532177
v -5.218349E-10 0.2071256 0.07064344
v -0.1200795 0.1100248 -4.493302E-08
v -0.06003973 0.1941166 0.061179
v -0.1039919 0.1585752 0.0353217
vt 0.7838006 0.1263683
vt 0.858418 0.1955473
vt 0.9349213 0.1491233
vt 0.8261221 0.05068422
vt 0.9846795 0.2955663
vt 0.68629 0.1019599
vt 0.6870167 0.01611159
vt 0.8893094 0.2945985
vt 0.9349214 0.4420093
vt 0.5888998 0.12703
vt 0.547911 0.05068368
vt 0.8593501 0.3942752
vt 0.8261221 0.5404484
vt 0.5146825 0.1968573
vt 0.439111 0.1491227
vt 0.7851331 0.4641024
vt 0.6870166 0.575021
vt 0.4847228 0.2965343
vt 0.3893521 0.2955663
vt 0.6877429 0.4891727
vt 0.5479109 0.5404491
vt 0.5156144 0.3955858
vt 0.4391109 0.44201
vt 0.5902323 0.4647647
vt 0.5722452 0.2312681
vt 0.5539559 0.2966251
vt 0.5731719 0.3612996
vt 0.6222944 0.407564
vt 0.6877055 0.4240425
vt 0.7530326 0.4068903
vt 0.6210003 0.1842424
vt 0.8017877 0.3598646
vt 0.6863275 0.1670903
vt 0.8200766 0.2945077
vt 0.7517385 0.1835689
vt 0.8008609 0.2298334
vt 0.6274804 0.2636078
vt 0.6523921 0.2393175
vt 0.6863966 0.2301814
vt 0.7205201 0.2384737
vt 0.7458398 0.2619814
vt 0.7554926 0.29453
vt 0.6185403 0.2966028
vt 0.7465525 0.327525
vt 0.6281931 0.3291516
vt 0.7216408 0.3518152
vt 0.6535129 0.3526592
vt 0.6876364 0.3609513
vt 0.6648594 0.2971875
vt 0.6682773 0.3058709
vt 0.6673976 0.2880351
vt 0.6767192 0.3118086
vt 0.6878995 0.313416
vt 0.6751906 0.280899
vt 0.6988424 0.3102337
vt 0.7066355 0.3030976
vt 0.6861336 0.2777167
vt 0.7091737 0.2939452
vt 0.6973137 0.2793241
vt 0.7057558 0.2852619
vt 0.3419593 0.7653003
vt 0.3668711 0.7410104
vt 0.3269544 0.7165831
vt 0.3191613 0.723719
vt 0.3294926 0.707431
vt 0.3079549 0.7744365
vt 0.3082182 0.726901
vt 0.3758113 0.7080157
vt 0.3260746 0.6987478
vt 0.2738315 0.7661443
vt 0.2970378 0.7252937
vt 0.3661587 0.675467
vt 0.3176325 0.69281
vt 0.2485117 0.742637
vt 0.2885957 0.7193561
vt 0.3408389 0.6519593
vt 0.3064522 0.6912025
vt 0.2388589 0.7100886
vt 0.2851776 0.7106731
vt 0.3067153 0.6436669
vt 0.295509 0.6943847
vt 0.2477989 0.6770936
vt 0.287716 0.7015208
vt 0.2727107 0.6528032
vt 0.1934911 0.7747853
vt 0.1742749 0.7101116
vt 0.1925634 0.6447541
vt 0.2413185 0.597728
vt 0.3066461 0.5805754
vt 0.3720577 0.5970543
vt 0.2426136 0.8210492
vt 0.4211804 0.6433195
vt 0.3080241 0.8375274
vt 0.4403956 0.707994
vt 0.3733507 0.8203754
vt 0.4221059 0.7733506
vt 0.1359345 0.809072
vt 0.2105521 0.8782498
vt 0.3080616 0.9026569
vt 0.4054506 0.8775871
vt 0.4796678 0.8077616
vt 0.5096286 0.7080861
vt 0.1050419 0.7100221
vt 0.4787385 0.6090339
vt 0.1350001 0.6103439
vt 0.4041206 0.5398531
vt 0.2092173 0.5405154
vt 0.3066086 0.5154443
vt 0.009671598 0.7090561
vt 0.05942738 0.5626103
vt 0.05943229 0.855497
vt 0.1682274 0.4641685
vt 0.3073351 0.4295948
vt 0.1682317 0.9539334
vt 0.4464431 0.4641683
vt 0.555243 0.5626104
vt 0.3073352 0.9885042
vt 0.6049987 0.7090561
vt 0.4464386 0.9539328
vt 0.5552378 0.8554967
vn -0.3922656 0.1846058 0.9011373
vn -0.6794239 -0.04760127 0.7322004
vn -0.8660253 0.4043194 0.294153
vn -0.5 0.7003015 0.5094879
vn -1 0 0
vn 0 0.2695995 0.9629726
vn 0 0.8086385 0.588306
vn -0.7845311 -0.3648023 0.5014282
vn -0.8660254 -0.4043192 -0.2941531
vn 0.3922654 0.1846057 0.9011374
vn 0.5000001 0.7003014 0.5094879
vn -0.6794237 -0.6820033 0.2706562
vn -0.5000001 -0.7003014 -0.5094879
vn 0.6794236 -0.04760134 0.7322006
vn 0.8660253 0.4043193 0.2941531
vn -0.3922656 -0.9142105 0.1017192
vn 0 -0.8086385 -0.588306
vn 0.7845309 -0.3648023 0.5014286
vn 1 1.251994E-07 0
vn 0 -0.9992043 0.039884
vn 0.5000001 -0.7003014 -0.5094879
vn 0.6794237 -0.6820034 0.2706563
vn 0.8660254 -0.4043192 -0.2941529
vn 0.3922654 -0.9142106 0.1017193
vn 0.06598135 -0.5557912 0.8286994
vn 0.07618869 -0.5865959 0.8062881
vn 0.06598138 -0.6174005 0.7838768
vn 0.03809437 -0.6399512 0.7674707
vn -1.108362E-07 -0.6482052 0.7614657
vn -0.03809465 -0.6399511 0.7674707
vn 0.03809435 -0.5332407 0.8451055
vn -0.06598187 -0.6174005 0.7838768
vn -1.058199E-07 -0.5249867 0.8511104
vn -0.07618928 -0.5865958 0.8062881
vn -0.03809463 -0.5332407 0.8451054
vn -0.06598189 -0.5557911 0.8286994
vn -0.6335275 -0.696883 0.3361502
vn -0.3657673 -0.9134042 0.1786253
vn -1.985649E-07 -0.9926565 0.1209672
vn 0.365767 -0.9134043 0.1786254
vn 0.6335275 -0.696883 0.3361503
vn 0.7315344 -0.4011097 0.5513334
vn -0.7315346 -0.4011097 0.5513331
vn 0.6335273 -0.1053363 0.7665164
vn -0.6335275 -0.1053363 0.7665162
vn 0.3657672 0.111185 0.9240412
vn -0.3657674 0.1111851 0.9240412
vn 0 0.1904373 0.9816993
vn -1 -1.498851E-07 -2.892016E-07
vn -0.8660255 0.4043191 0.2941529
vn -0.8660253 -0.4043193 -0.294153
vn -0.5 0.7003014 0.5094879
vn 0 0.8086383 0.5883061
vn -0.5 -0.7003014 -0.509488
vn 0.5 0.7003014 0.509488
vn 0.8660253 0.4043191 0.2941531
vn -1.594657E-07 -0.8086385 -0.588306
vn 1 0 1.274448E-07
vn 0.4999999 -0.7003014 -0.509488
vn 0.8660254 -0.4043194 -0.2941529
vn 0.3657673 -0.1111854 -0.9240412
vn 0.6335275 0.105336 -0.7665164
vn 0.8660254 -0.4043194 -0.2941529
vn 0.4999999 -0.7003014 -0.509488
vn 1 0 1.274448E-07
vn 0 -0.1904374 -0.9816993
vn -1.594657E-07 -0.8086385 -0.588306
vn 0.7315346 0.4011095 -0.5513332
vn 0.8660253 0.4043191 0.2941531
vn -0.3657672 -0.1111852 -0.9240412
vn -0.5 -0.7003014 -0.509488
vn 0.6335276 0.696883 -0.3361501
vn 0.5 0.7003014 0.509488
vn -0.6335274 0.1053361 -0.7665164
vn -0.8660253 -0.4043193 -0.294153
vn 0.3657674 0.9134043 -0.1786251
vn 0 0.8086383 0.5883061
vn -0.7315345 0.4011095 -0.5513334
vn -1 -1.498851E-07 -2.892016E-07
vn 1.214945E-07 0.9926565 -0.120967
vn -0.5 0.7003014 0.5094879
vn -0.6335276 0.696883 -0.3361503
vn -0.8660255 0.4043191 0.2941529
vn -0.3657672 0.9134043 -0.1786252
vn 0.06598186 0.6174006 -0.7838768
vn 0.07618915 0.586596 -0.806288
vn 0.06598177 0.5557913 -0.8286993
vn 0.03809469 0.5332407 -0.8451055
vn 1.272814E-07 0.5249867 -0.8511104
vn -0.03809432 0.5332407 -0.8451055
vn 0.03809476 0.6399511 -0.7674707
vn -0.06598148 0.5557913 -0.8286993
vn 0 0.6482053 -0.7614657
vn -0.07618889 0.5865959 -0.8062881
vn -0.03809438 0.6399512 -0.7674707
vn -0.06598147 0.6174006 -0.7838768
vn 0.6794238 0.6820033 -0.270656
vn 0.3922658 0.9142105 -0.1017192
vn 0 0.9992043 -0.03988403
vn -0.3922654 0.9142106 -0.1017193
vn -0.6794236 0.6820036 -0.2706562
vn -0.7845309 0.3648024 -0.5014284
vn 0.784531 0.3648025 -0.5014281
vn -0.6794237 0.04760142 -0.7322006
vn 0.6794238 0.04760154 -0.7322003
vn -0.3922654 -0.1846057 -0.9011374
vn 0.3922656 -0.1846058 -0.9011372
vn 1.324427E-07 -0.2695995 -0.9629726
vn 1 1.251994E-07 0
vn 0.8660254 -0.4043192 -0.2941529
vn 0.8660253 0.4043193 0.2941531
vn 0.5000001 -0.7003014 -0.5094879
vn 0 -0.8086385 -0.588306
vn 0.5000001 0.7003014 0.5094879
vn -0.5000001 -0.7003014 -0.5094879
vn -0.8660254 -0.4043192 -0.2941531
vn 0 0.8086385 0.588306
vn -1 0 0
vn -0.5 0.7003015 0.5094879
vn -0.8660253 0.4043194 0.294153
g Donuts_0
f 3/3/3 2/2/2 1/1/1
f 4/4/4 3/3/3 1/1/1
f 3/3/3 5/5/5 2/2/2
f 4/4/4 1/1/1 6/6/6
f 7/7/7 4/4/4 6/6/6
f 5/5/5 8/8/8 2/2/2
f 5/5/5 9/9/9 8/8/8
f 7/7/7 6/6/6 10/10/10
f 11/11/11 7/7/7 10/10/10
f 9/9/9 12/12/12 8/8/8
f 9/9/9 13/13/13 12/12/12
f 11/11/11 10/10/10 14/14/14
f 15/15/15 11/11/11 14/14/14
f 13/13/13 16/16/16 12/12/12
f 13/13/13 17/17/17 16/16/16
f 15/15/15 14/14/14 18/18/18
f 19/19/19 15/15/15 18/18/18
f 17/17/17 20/20/20 16/16/16
f 17/17/17 21/21/21 20/20/20
f 19/19/19 18/18/18 22/22/22
f 23/23/23 19/19/19 22/22/22
f 21/21/21 23/23/23 24/24/24
f 21/21/21 24/24/24 20/20/20
f 23/23/23 22/22/22 24/24/24
f 14/14/14 10/10/10 25/25/25
f 18/18/18 14/14/14 26/26/26
f 14/14/14 25/25/25 26/26/26
f 22/22/22 18/18/18 27/27/27
f 18/18/18 26/26/26 27/27/27
f 24/24/24 22/22/22 28/28/28
f 22/22/22 27/27/27 28/28/28
f 20/20/20 24/24/24 29/29/29
f 24/24/24 28/28/28 29/29/29
f 16/16/16 20/20/20 30/30/30
f 20/20/20 29/29/29 30/30/30
f 10/10/10 31/31/31 25/25/25
f 10/10/10 6/6/6 31/31/31
f 16/16/16 30/30/30 32/32/32
f 12/12/12 16/16/16 32/32/32
f 6/6/6 33/33/33 31/31/31
f 6/6/6 1/1/1 33/33/33
f 12/12/12 32/32/32 34/34/34
f 8/8/8 12/12/12 34/34/34
f 1/1/1 35/35/35 33/33/33
f 1/1/1 2/2/2 35/35/35
f 2/2/2 8/8/8 36/36/36
f 8/8/8 34/34/34 36/36/36
f 2/2/2 36/36/36 35/35/35
f 25/25/25 31/31/31 37/37/37
f 31/31/31 33/33/33 38/38/38
f 31/31/31 38/38/38 37/37/37
f 33/33/33 35/35/35 39/39/39
f 33/33/33 39/39/39 38/38/38
f 35/35/35 36/36/36 40/40/40
f 35/35/35 40/40/40 39/39/39
f 36/36/36 34/34/34 41/41/41
f 36/36/36 41/41/41 40/40/40
f 34/34/34 32/32/32 42/42/42
f 34/34/34 42/42/42 41/41/41
f 25/25/25 37/37/37 43/43/43
f 26/26/26 25/25/25 43/43/43
f 32/32/32 44/44/44 42/42/42
f 32/32/32 30/30/30 44/44/44
f 26/26/26 43/43/43 45/45/45
f 27/27/27 26/26/26 45/45/45
f 30/30/30 46/46/46 44/44/44
f 30/30/30 29/29/29 46/46/46
f 27/27/27 45/45/45 47/47/47
f 28/28/28 27/27/27 47/47/47
f 29/29/29 28/28/28 48/48/48
f 29/29/29 48/48/48 46/46/46
f 28/28/28 47/47/47 48/48/48
f 43/43/43 37/37/37 49/49/49
f 43/43/43 49/49/49 50/50/50
f 45/45/45 43/43/43 50/50/50
f 37/37/37 51/51/51 49/49/49
f 45/45/45 50/50/50 52/52/52
f 47/47/47 45/45/45 52/52/52
f 37/37/37 38/38/38 51/51/51
f 47/47/47 52/52/52 53/53/53
f 48/48/48 47/47/47 53/53/53
f 38/38/38 54/54/54 51/51/51
f 48/48/48 53/53/53 55/55/55
f 46/46/46 48/48/48 55/55/55
f 38/38/38 39/39/39 54/54/54
f 46/46/46 55/55/55 56/56/56
f 39/39/39 57/57/57 54/54/54
f 44/44/44 46/46/46 56/56/56
f 39/39/39 40/40/40 57/57/57
f 44/44/44 56/56/56 58/58/58
f 40/40/40 59/59/59 57/57/57
f 42/42/42 44/44/44 58/58/58
f 40/40/40 41/41/41 59/59/59
f 42/42/42 58/58/58 60/60/60
f 41/41/41 60/60/60 59/59/59
f 41/41/41 42/42/42 60/60/60
f 63/63/63 62/62/62 61/61/61
f 64/64/64 63/63/63 61/61/61
f 63/63/63 65/65/65 62/62/62
f 64/64/64 61/61/61 66/66/66
f 67/67/67 64/64/64 66/66/66
f 65/65/65 68/68/68 62/62/62
f 65/65/65 69/69/69 68/68/68
f 67/67/67 66/66/66 70/70/70
f 71/71/71 67/67/67 70/70/70
f 69/69/69 72/72/72 68/68/68
f 69/69/69 73/73/73 72/72/72
f 71/71/71 70/70/70 74/74/74
f 75/75/75 71/71/71 74/74/74
f 73/73/73 76/76/76 72/72/72
f 73/73/73 77/77/77 76/76/76
f 75/75/75 74/74/74 78/78/78
f 79/79/79 75/75/75 78/78/78
f 77/77/77 80/80/80 76/76/76
f 77/77/77 81/81/81 80/80/80
f 79/79/79 78/78/78 82/82/82
f 83/83/83 79/79/79 82/82/82
f 81/81/81 83/83/83 84/84/84
f 81/81/81 84/84/84 80/80/80
f 83/83/83 82/82/82 84/84/84
f 74/74/74 70/70/70 85/85/85
f 78/78/78 74/74/74 86/86/86
f 74/74/74 85/85/85 86/86/86
f 82/82/82 78/78/78 87/87/87
f 78/78/78 86/86/86 87/87/87
f 84/84/84 82/82/82 88/88/88
f 82/82/82 87/87/87 88/88/88
f 80/80/80 84/84/84 89/89/89
f 84/84/84 88/88/88 89/89/89
f 76/76/76 80/80/80 90/90/90
f 80/80/80 89/89/89 90/90/90
f 70/70/70 91/91/91 85/85/85
f 70/70/70 66/66/66 91/91/91
f 76/76/76 90/90/90 92/92/92
f 72/72/72 76/76/76 92/92/92
f 66/66/66 93/93/93 91/91/91
f 66/66/66 61/61/61 93/93/93
f 72/72/72 92/92/92 94/94/94
f 68/68/68 72/72/72 94/94/94
f 61/61/61 95/95/95 93/93/93
f 61/61/61 62/62/62 95/95/95
f 62/62/62 68/68/68 96/96/96
f 68/68/68 94/94/94 96/96/96
f 62/62/62 96/96/96 95/95/95
f 85/85/85 91/91/91 97/97/97
f 91/91/91 93/93/93 98/98/98
f 91/91/91 98/98/98 97/97/97
f 93/93/93 95/95/95 99/99/99
f 93/93/93 99/99/99 98/98/98
f 95/95/95 96/96/96 100/100/100
f 95/95/95 100/100/100 99/99/99
f 96/96/96 94/94/94 101/101/101
f 96/96/96 101/101/101 100/100/100
f 94/94/94 92/92/92 102/102/102
f 94/94/94 102/102/102 101/101/101
f 85/85/85 97/97/97 103/103/103
f 86/86/86 85/85/85 103/103/103
f 92/92/92 104/104/104 102/102/102
f 92/92/92 90/90/90 104/104/104
f 86/86/86 103/103/103 105/105/105
f 87/87/87 86/86/86 105/105/105
f 90/90/90 106/106/106 104/104/104
f 90/90/90 89/89/89 106/106/106
f 87/87/87 105/105/105 107/107/107
f 88/88/88 87/87/87 107/107/107
f 89/89/89 88/88/88 108/108/108
f 89/89/89 108/108/108 106/106/106
f 88/88/88 107/107/107 108/108/108
f 103/103/103 97/97/97 109/109/109
f 103/103/103 109/109/109 110/110/110
f 105/105/105 103/103/103 110/110/110
f 97/97/97 111/111/111 109/109/109
f 105/105/105 110/110/110 112/112/112
f 107/107/107 105/105/105 112/112/112
f 97/97/97 98/98/98 111/111/111
f 107/107/107 112/112/112 113/113/113
f 108/108/108 107/107/107 113/113/113
f 98/98/98 114/114/114 111/111/111
f 108/108/108 113/113/113 115/115/115
f 106/106/106 108/108/108 115/115/115
f 98/98/98 99/99/99 114/114/114
f 106/106/106 115/115/115 116/116/116
f 99/99/99 117/117/117 114/114/114
f 104/104/104 106/106/106 116/116/116
f 99/99/99 100/100/100 117/117/117
f 104/104/104 116/116/116 118/118/118
f 100/100/100 119/119/119 117/117/117
f 102/102/102 104/104/104 118/118/118
f 100/100/100 101/101/101 119/119/119
f 102/102/102 118/118/118 120/120/120
f 101/101/101 120/120/120 119/119/119
f 101/101/101 102/102/102 120/120/120
