g drawer02
v 0.02046758 0.7772298 0.5897059
v 0.02046758 0.7772298 0.6286533
v -0.01703715 0.7772298 0.6286533
v -0.01703715 0.7772298 0.5897059
v -0.01703715 0.7772298 0.5897059
v -0.01703715 0.7772298 0.6286533
v -0.03578955 0.7440525 0.6286533
v -0.03578955 0.7440525 0.5897059
v -0.03578955 0.7440525 0.5897059
v -0.03578955 0.7440525 0.6286533
v -0.01703715 0.7123177 0.6286533
v -0.01703715 0.7123177 0.5897059
v -0.01703715 0.7123177 0.5897059
v -0.01703715 0.7123177 0.6286533
v 0.02046758 0.7123177 0.6286533
v 0.02046758 0.7123177 0.5897059
v 0.02046758 0.7123177 0.5897059
v 0.02046758 0.7123177 0.6286533
v 0.03921998 0.7440525 0.6286533
v 0.03921998 0.7440525 0.5897059
v 0.03921998 0.7440525 0.5897059
v 0.03921998 0.7440525 0.6286533
v 0.02046758 0.7772298 0.6286533
v 0.02046758 0.7772298 0.5897059
v 0.07528225 0.7440525 0.6286533
v 0.07528225 0.7440525 0.6488481
v 0.03777748 0.8089646 0.6488481
v 0.03777748 0.8089646 0.6286533
v 0.03777748 0.6805829 0.6286533
v 0.03777748 0.6805829 0.6488481
v 0.07528225 0.7440525 0.6488481
v 0.07528225 0.7440525 0.6286533
v -0.03434706 0.6805829 0.6286533
v -0.03434706 0.6805829 0.6488481
v 0.03777748 0.6805829 0.6488481
v 0.03777748 0.6805829 0.6286533
v -0.07185179 0.7440525 0.6286533
v -0.07185179 0.7440525 0.6488481
v -0.03434706 0.6805829 0.6488481
v -0.03434706 0.6805829 0.6286533
v -0.03434706 0.8089646 0.6286533
v -0.03434706 0.8089646 0.6488481
v -0.07185179 0.7440525 0.6488481
v -0.07185179 0.7440525 0.6286533
v 0.03777748 0.8089646 0.6286533
v 0.03777748 0.8089646 0.6488481
v -0.03434706 0.8089646 0.6488481
v -0.03434706 0.8089646 0.6286533
v 0.03921998 0.7440525 0.6286533
v 0.03777748 0.8089646 0.6286533
v 0.02046758 0.7772298 0.6286533
v 0.07528225 0.7440525 0.6286533
v 0.02046758 0.7123177 0.6286533
v 0.03777748 0.6805829 0.6286533
v -0.01703715 0.7123177 0.6286533
v -0.03434706 0.6805829 0.6286533
v -0.03578955 0.7440525 0.6286533
v -0.07185179 0.7440525 0.6286533
v -0.01703715 0.7772298 0.6286533
v -0.03434706 0.8089646 0.6286533
v 0.02046758 0.7772298 0.6286533
v 0.03777748 0.8089646 0.6286533
v 0.02046758 0.7772298 0.6488481
v 0.03777748 0.8089646 0.6488481
v 0.07528225 0.7440525 0.6488481
v 0.03921998 0.7440525 0.6488481
v 0.03777748 0.6805829 0.6488481
v 0.02046758 0.7123177 0.6488481
v -0.03434706 0.6805829 0.6488481
v -0.01703715 0.7123177 0.6488481
v -0.07185179 0.7440525 0.6488481
v -0.03578955 0.7440525 0.6488481
v -0.03434706 0.8089646 0.6488481
v -0.01703715 0.7772298 0.6488481
v 0.03777748 0.8089646 0.6488481
v 0.02046758 0.7772298 0.6488481
v -0.4973866 0.1526313 0.5969185
v -0.4973866 0.9056114 0.5969185
v 0.495047 0.9056114 0.5969185
v 0.495047 0.1526313 0.5969185
v -0.4973866 0.9056114 -0.5700566
v -0.4973866 0.1526313 -0.5700566
v 0.495047 0.1526313 -0.5700566
v 0.495047 0.9056114 -0.5700566
v -0.4973866 0.1526313 -0.5700566
v -0.4973866 0.1526313 0.5969185
v 0.495047 0.1526313 0.5969185
v 0.495047 0.1526313 -0.5700566
v 0.495047 0.1526313 0.5969185
v 0.495047 0.9056114 0.5969185
v 0.495047 0.9056114 -0.5700566
v 0.495047 0.1526313 -0.5700566
v -0.4973866 0.1526313 -0.5700566
v -0.4973866 0.9056114 -0.5700566
v -0.4973866 0.9056114 0.5969185
v -0.4973866 0.1526313 0.5969185
v -0.4642093 0.201676 0.5478737
v 0.4618697 0.201676 0.5478737
v 0.4618697 0.904169 0.5478737
v -0.4642093 0.904169 0.5478737
v -0.4642093 0.904169 -0.5210119
v 0.4618697 0.904169 -0.5210119
v 0.4618697 0.201676 -0.5210119
v -0.4642093 0.201676 -0.5210119
v -0.4642093 0.201676 -0.5210119
v 0.4618697 0.201676 -0.5210119
v 0.4618697 0.201676 0.5478737
v -0.4642093 0.201676 0.5478737
v 0.4618697 0.201676 0.5478737
v 0.4618697 0.201676 -0.5210119
v 0.4618697 0.904169 -0.5210119
v 0.4618697 0.904169 0.5478737
v -0.4642093 0.201676 -0.5210119
v -0.4642093 0.201676 0.5478737
v -0.4642093 0.904169 0.5478737
v -0.4642093 0.904169 -0.5210119
v 0.495047 0.9056114 0.5969185
v 0.4618697 0.904169 0.5478737
v 0.4618697 0.904169 -0.5210119
v 0.495047 0.9056114 -0.5700566
v 0.495047 0.9056114 -0.5700566
v 0.4618697 0.904169 -0.5210119
v -0.4642093 0.904169 -0.5210119
v -0.4973866 0.9056114 -0.5700566
v -0.4973866 0.9056114 -0.5700566
v -0.4642093 0.904169 -0.5210119
v -0.4642093 0.904169 0.5478737
v -0.4973866 0.9056114 0.5969185
v -0.4973866 0.9056114 0.5969185
v -0.4642093 0.904169 0.5478737
v 0.4618697 0.904169 0.5478737
v 0.495047 0.9056114 0.5969185
v 0.03921998 0.7440525 0.5897059
v 0.001715243 0.7440525 0.5897059
v 0.02046758 0.7123177 0.5897059
v 0.02046758 0.7772298 0.5897059
v -0.01703715 0.7123177 0.5897059
v -0.01703715 0.7772298 0.5897059
v -0.03578955 0.7440525 0.5897059
v 0.02046758 0.7123177 0.6488481
v 0.001715243 0.7440525 0.6488481
v 0.03921998 0.7440525 0.6488481
v -0.01703715 0.7123177 0.6488481
v 0.02046758 0.7772298 0.6488481
v -0.03578955 0.7440525 0.6488481
v -0.01703715 0.7772298 0.6488481
vt 0.9172925 0.1955581
vt 0.9172925 0.2168751
vt 0.9203378 0.2168751
vt 0.9203378 0.1955581
vt 0.9203378 0.1955581
vt 0.9203378 0.2168751
vt 0.9264284 0.2168751
vt 0.9264284 0.1955581
vt 0.9264284 0.1955581
vt 0.9264284 0.2168751
vt 0.9294736 0.2168751
vt 0.9294736 0.1955581
vt 0.9294736 0.1955581
vt 0.9294736 0.2168751
vt 0.932519 0.2168751
vt 0.932519 0.1955581
vt 0.932519 0.1955581
vt 0.932519 0.2168751
vt 0.9386095 0.2168751
vt 0.9386095 0.1955581
vt 0.9386095 0.1955581
vt 0.9386095 0.2168751
vt 0.9416549 0.2168751
vt 0.9416549 0.1955581
vt 0.9386095 0.2168751
vt 0.9386095 0.2351469
vt 0.9416549 0.2351469
vt 0.9416549 0.2168751
vt 0.932519 0.2168751
vt 0.932519 0.2351469
vt 0.9386095 0.2351469
vt 0.9386095 0.2168751
vt 0.9294736 0.2168751
vt 0.9294736 0.2351469
vt 0.932519 0.2351469
vt 0.932519 0.2168751
vt 0.9264284 0.2168751
vt 0.9264284 0.2351469
vt 0.9294736 0.2351469
vt 0.9294736 0.2168751
vt 0.9203378 0.2168751
vt 0.9203378 0.2351469
vt 0.9264284 0.2351469
vt 0.9264284 0.2168751
vt 0.9172925 0.2168751
vt 0.9172925 0.2351469
vt 0.9203378 0.2351469
vt 0.9203378 0.2168751
vt 0.9386095 0.2168751
vt 0.9416549 0.2168751
vt 0.9416549 0.2168751
vt 0.9386095 0.2168751
vt 0.932519 0.2168751
vt 0.932519 0.2168751
vt 0.9294736 0.2168751
vt 0.9294736 0.2168751
vt 0.9264284 0.2168751
vt 0.9264284 0.2168751
vt 0.9203378 0.2168751
vt 0.9203378 0.2168751
vt 0.9172925 0.2168751
vt 0.9172925 0.2168751
vt 0.9416549 0.2351469
vt 0.9416549 0.2351469
vt 0.9386095 0.2351469
vt 0.9386095 0.2351469
vt 0.932519 0.2351469
vt 0.932519 0.2351469
vt 0.9294736 0.2351469
vt 0.9294736 0.2351469
vt 0.9264284 0.2351469
vt 0.9264284 0.2351469
vt 0.9203378 0.2351469
vt 0.9203378 0.2351469
vt 0.9172925 0.2351469
vt 0.9172925 0.2351469
vt 0.932519 0.6218991
vt 0.932519 0.6340803
vt 0.9477454 0.6340803
vt 0.9477454 0.6218991
vt 0.9233831 0.1833769
vt 0.9233831 0.2077392
vt 0.9477454 0.2077392
vt 0.9477454 0.1833769
vt 0.9233831 0.2077392
vt 0.9233831 0.2351469
vt 0.9477454 0.2351469
vt 0.9477454 0.2077392
vt 0.9477454 0.6218991
vt 0.9477454 0.6340803
vt 0.9599266 0.6340803
vt 0.9599266 0.6218991
vt 0.9203378 0.6218991
vt 0.9203378 0.6340803
vt 0.932519 0.6340803
vt 0.932519 0.6218991
vt 0.932519 0.6218991
vt 0.9477454 0.6218991
vt 0.9477454 0.6340803
vt 0.932519 0.6340803
vt 0.9233831 0.1833769
vt 0.9477454 0.1833769
vt 0.9477454 0.2077392
vt 0.9233831 0.2077392
vt 0.9233831 0.2077392
vt 0.9477454 0.2077392
vt 0.9477454 0.2351469
vt 0.9233831 0.2351469
vt 0.9477454 0.6218991
vt 0.9599266 0.6218991
vt 0.9599266 0.6340803
vt 0.9477454 0.6340803
vt 0.9203378 0.6218991
vt 0.932519 0.6218991
vt 0.932519 0.6340803
vt 0.9203378 0.6340803
vt 0.9477454 0.6340803
vt 0.9477454 0.6340803
vt 0.9599266 0.6340803
vt 0.9599266 0.6340803
vt 0.9477454 0.1833769
vt 0.9477454 0.1833769
vt 0.9233831 0.1833769
vt 0.9233831 0.1833769
vt 0.9203378 0.6340803
vt 0.9203378 0.6340803
vt 0.932519 0.6340803
vt 0.932519 0.6340803
vt 0.932519 0.6340803
vt 0.932519 0.6340803
vt 0.9477454 0.6340803
vt 0.9477454 0.6340803
vt 0.953836 0.2168751
vt 0.9386095 0.2168751
vt 0.9447001 0.2290563
vt 0.9447001 0.2016487
vt 0.9294736 0.2290563
vt 0.9294736 0.2016487
vt 0.9203378 0.2168751
vt 0.9447001 0.204694
vt 0.9355642 0.2168751
vt 0.9507907 0.2168751
vt 0.9264284 0.204694
vt 0.9447001 0.2321016
vt 0.9203378 0.2168751
vt 0.9264284 0.2321016
vn -0.01587105 0.999874 -0.000345267
vn -0.01587105 0.999874 -0.000345267
vn -0.01587105 0.999874 -0.000345267
vn -0.01587105 0.999874 -0.000345267
vn -0.8711522 0.4910131 0
vn -0.8711522 0.4910131 0
vn -0.8711522 0.4910131 0
vn -0.8711522 0.4910131 0
vn -0.8711522 -0.491013 0
vn -0.8711522 -0.491013 0
vn -0.8711522 -0.491013 0
vn -0.8711522 -0.491013 0
vn -0.01587105 -0.999874 -0.000345267
vn -0.01587105 -0.999874 -0.000345267
vn -0.01587105 -0.999874 -0.000345267
vn -0.01587105 -0.999874 -0.000345267
vn 0.8711522 -0.491013 0
vn 0.8711522 -0.491013 0
vn 0.8711522 -0.491013 0
vn 0.8711522 -0.491013 0
vn 0.8711522 0.4910131 0
vn 0.8711522 0.4910131 0
vn 0.8711522 0.4910131 0
vn 0.8711522 0.4910131 0
vn 0.8711522 0.4910131 0
vn 0.8711522 0.4910131 0
vn 0.8711522 0.4910131 0
vn 0.8711522 0.4910131 0
vn 0.8711522 -0.491013 0
vn 0.8711522 -0.491013 0
vn 0.8711522 -0.491013 0
vn 0.8711522 -0.491013 0
vn -0.01587105 -0.999874 -0.000345267
vn -0.01587105 -0.999874 -0.000345267
vn -0.01587105 -0.999874 -0.000345267
vn -0.01587105 -0.999874 -0.000345267
vn -0.8711522 -0.491013 0
vn -0.8711522 -0.491013 0
vn -0.8711522 -0.491013 0
vn -0.8711522 -0.491013 0
vn -0.8711522 0.4910131 0
vn -0.8711522 0.4910131 0
vn -0.8711522 0.4910131 0
vn -0.8711522 0.4910131 0
vn -0.01587105 0.999874 -0.000345267
vn -0.01587105 0.999874 -0.000345267
vn -0.01587105 0.999874 -0.000345267
vn -0.01587105 0.999874 -0.000345267
vn -0.01587105 0.01587105 -0.9997481
vn -0.01587105 0.01587105 -0.9997481
vn -0.01587105 0.01587105 -0.9997481
vn -0.01587105 0.01587105 -0.9997481
vn -0.01587105 0.01587105 -0.9997481
vn -0.01587105 0.01587105 -0.9997481
vn -0.01587105 0.01587105 -0.9997481
vn -0.01587105 0.01587105 -0.9997481
vn -0.01587105 0.01587105 -0.9997481
vn -0.01587105 0.01587105 -0.9997481
vn -0.01587105 0.01587105 -0.9997481
vn -0.01587105 0.01587105 -0.9997481
vn -0.01587105 0.01587105 -0.9997481
vn -0.01587105 0.01587105 -0.9997481
vn -0.01587105 0.01587105 0.9997481
vn -0.01587105 0.01587105 0.9997481
vn -0.01587105 0.01587105 0.9997481
vn -0.01587105 0.01587105 0.9997481
vn -0.01587105 0.01587105 0.9997481
vn -0.01587105 0.01587105 0.9997481
vn -0.01587105 0.01587105 0.9997481
vn -0.01587105 0.01587105 0.9997481
vn -0.01587105 0.01587105 0.9997481
vn -0.01587105 0.01587105 0.9997481
vn -0.01587105 0.01587105 0.9997481
vn -0.01587105 0.01587105 0.9997481
vn -0.01587105 0.01587105 0.9997481
vn -0.01587105 0.01587105 0.9997481
vn -0.01587105 0.01587105 0.9997481
vn -0.01587105 0.01587105 0.9997481
vn -0.01587105 0.01587105 0.9997481
vn -0.01587105 0.01587105 0.9997481
vn -0.01587105 0.01587105 -0.9997481
vn -0.01587105 0.01587105 -0.9997481
vn -0.01587105 0.01587105 -0.9997481
vn -0.01587105 0.01587105 -0.9997481
vn -0.01587105 -0.999874 -0.000345267
vn -0.01587105 -0.999874 -0.000345267
vn -0.01587105 -0.999874 -0.000345267
vn -0.01587105 -0.999874 -0.000345267
vn 0.999874 0.01587105 -0.0003439156
vn 0.999874 0.01587105 -0.0003439156
vn 0.999874 0.01587105 -0.0003439156
vn 0.999874 0.01587105 -0.0003439156
vn -0.999874 0.01587105 -0.0003439156
vn -0.999874 0.01587105 -0.0003439156
vn -0.999874 0.01587105 -0.0003439156
vn -0.999874 0.01587105 -0.0003439156
vn -0.01587105 0.01587105 -0.9997481
vn -0.01587105 0.01587105 -0.9997481
vn -0.01587105 0.01587105 -0.9997481
vn -0.01587105 0.01587105 -0.9997481
vn -0.01587105 0.01587105 0.9997481
vn -0.01587105 0.01587105 0.9997481
vn -0.01587105 0.01587105 0.9997481
vn -0.01587105 0.01587105 0.9997481
vn -0.01587105 0.999874 -0.000345267
vn -0.01587105 0.999874 -0.000345267
vn -0.01587105 0.999874 -0.000345267
vn -0.01587105 0.999874 -0.000345267
vn -0.999874 0.01587105 -0.0003439156
vn -0.999874 0.01587105 -0.0003439156
vn -0.999874 0.01587105 -0.0003439156
vn -0.999874 0.01587105 -0.0003439156
vn 0.999874 0.01587105 -0.0003439156
vn 0.999874 0.01587105 -0.0003439156
vn 0.999874 0.01587105 -0.0003439156
vn 0.999874 0.01587105 -0.0003439156
vn -0.04756513 0.9988682 0
vn -0.04756513 0.9988682 0
vn -0.04756513 0.9988682 0
vn -0.04756513 0.9988682 0
vn -0.01587105 0.999874 -0.000345267
vn -0.01587105 0.999874 -0.000345267
vn -0.01587105 0.999874 -0.000345267
vn -0.01587105 0.999874 -0.000345267
vn 0.04756513 0.9988682 0
vn 0.04756513 0.9988682 0
vn 0.04756513 0.9988682 0
vn 0.04756513 0.9988682 0
vn -0.01587105 0.999874 -0.000345267
vn -0.01587105 0.999874 -0.000345267
vn -0.01587105 0.999874 -0.000345267
vn -0.01587105 0.999874 -0.000345267
vn -0.01587105 0.01587105 -0.9997481
vn -0.01587105 0.01587105 -0.9997481
vn -0.01587105 0.01587105 -0.9997481
vn -0.01587105 0.01587105 -0.9997481
vn -0.01587105 0.01587105 -0.9997481
vn -0.01587105 0.01587105 -0.9997481
vn -0.01587105 0.01587105 -0.9997481
vn -0.01587105 0.01587105 0.9997481
vn -0.01587105 0.01587105 0.9997481
vn -0.01587105 0.01587105 0.9997481
vn -0.01587105 0.01587105 0.9997481
vn -0.01587105 0.01587105 0.9997481
vn -0.01587105 0.01587105 0.9997481
vn -0.01587105 0.01587105 0.9997481
g drawer02_0
f 3/3/3 2/2/2 1/1/1
f 4/4/4 3/3/3 1/1/1
f 7/7/7 6/6/6 5/5/5
f 8/8/8 7/7/7 5/5/5
f 11/11/11 10/10/10 9/9/9
f 12/12/12 11/11/11 9/9/9
f 15/15/15 14/14/14 13/13/13
f 16/16/16 15/15/15 13/13/13
f 19/19/19 18/18/18 17/17/17
f 20/20/20 19/19/19 17/17/17
f 23/23/23 22/22/22 21/21/21
f 24/24/24 23/23/23 21/21/21
f 27/27/27 26/26/26 25/25/25
f 28/28/28 27/27/27 25/25/25
f 31/31/31 30/30/30 29/29/29
f 32/32/32 31/31/31 29/29/29
f 35/35/35 34/34/34 33/33/33
f 36/36/36 35/35/35 33/33/33
f 39/39/39 38/38/38 37/37/37
f 40/40/40 39/39/39 37/37/37
f 43/43/43 42/42/42 41/41/41
f 44/44/44 43/43/43 41/41/41
f 47/47/47 46/46/46 45/45/45
f 48/48/48 47/47/47 45/45/45
f 51/51/51 50/50/50 49/49/49
f 50/50/50 52/52/52 49/49/49
f 49/49/49 52/52/52 53/53/53
f 52/52/52 54/54/54 53/53/53
f 53/53/53 54/54/54 55/55/55
f 54/54/54 56/56/56 55/55/55
f 55/55/55 56/56/56 57/57/57
f 56/56/56 58/58/58 57/57/57
f 57/57/57 58/58/58 59/59/59
f 58/58/58 60/60/60 59/59/59
f 59/59/59 60/60/60 61/61/61
f 60/60/60 62/62/62 61/61/61
f 65/65/65 64/64/64 63/63/63
f 66/66/66 65/65/65 63/63/63
f 67/67/67 65/65/65 66/66/66
f 68/68/68 67/67/67 66/66/66
f 69/69/69 67/67/67 68/68/68
f 70/70/70 69/69/69 68/68/68
f 71/71/71 69/69/69 70/70/70
f 72/72/72 71/71/71 70/70/70
f 73/73/73 71/71/71 72/72/72
f 74/74/74 73/73/73 72/72/72
f 75/75/75 73/73/73 74/74/74
f 76/76/76 75/75/75 74/74/74
f 79/79/79 78/78/78 77/77/77
f 80/80/80 79/79/79 77/77/77
f 83/83/83 82/82/82 81/81/81
f 84/84/84 83/83/83 81/81/81
f 87/87/87 86/86/86 85/85/85
f 88/88/88 87/87/87 85/85/85
f 91/91/91 90/90/90 89/89/89
f 92/92/92 91/91/91 89/89/89
f 95/95/95 94/94/94 93/93/93
f 96/96/96 95/95/95 93/93/93
f 99/99/99 98/98/98 97/97/97
f 100/100/100 99/99/99 97/97/97
f 103/103/103 102/102/102 101/101/101
f 104/104/104 103/103/103 101/101/101
f 107/107/107 106/106/106 105/105/105
f 108/108/108 107/107/107 105/105/105
f 111/111/111 110/110/110 109/109/109
f 112/112/112 111/111/111 109/109/109
f 115/115/115 114/114/114 113/113/113
f 116/116/116 115/115/115 113/113/113
f 119/119/119 118/118/118 117/117/117
f 120/120/120 119/119/119 117/117/117
f 123/123/123 122/122/122 121/121/121
f 124/124/124 123/123/123 121/121/121
f 127/127/127 126/126/126 125/125/125
f 128/128/128 127/127/127 125/125/125
f 131/131/131 130/130/130 129/129/129
f 132/132/132 131/131/131 129/129/129
f 135/135/135 134/134/134 133/133/133
f 133/133/133 134/134/134 136/136/136
f 137/137/137 134/134/134 135/135/135
f 136/136/136 134/134/134 138/138/138
f 139/139/139 134/134/134 137/137/137
f 138/138/138 134/134/134 139/139/139
f 142/142/142 141/141/141 140/140/140
f 140/140/140 141/141/141 143/143/143
f 144/144/144 141/141/141 142/142/142
f 143/143/143 141/141/141 145/145/145
f 146/146/146 141/141/141 144/144/144
f 145/145/145 141/141/141 146/146/146
