g drawer04
v 0.4691157 0.4350239 0.590263
v 0.4691157 0.4350239 0.6294993
v 0.4315854 0.4350239 0.6294993
v 0.4315854 0.4350239 0.590263
v 0.4315854 0.4350239 0.590263
v 0.4315854 0.4350239 0.6294993
v 0.4128202 0.4026114 0.6294993
v 0.4128202 0.4026114 0.590263
v 0.4128202 0.4026114 0.590263
v 0.4128202 0.4026114 0.6294993
v 0.4315854 0.3719047 0.6294993
v 0.4315854 0.3719047 0.590263
v 0.4315854 0.3719047 0.590263
v 0.4315854 0.3719047 0.6294993
v 0.4691157 0.3719047 0.6294993
v 0.4691157 0.3719047 0.590263
v 0.4691157 0.3719047 0.590263
v 0.4691157 0.3719047 0.6294993
v 0.4861749 0.4026114 0.6294993
v 0.4861749 0.4026114 0.590263
v 0.4861749 0.4026114 0.590263
v 0.4861749 0.4026114 0.6294993
v 0.4691157 0.4350239 0.6294993
v 0.4691157 0.4350239 0.590263
v 0.5237052 0.4026114 0.6294993
v 0.5237052 0.4026114 0.6482644
v 0.4861749 0.4674366 0.6482644
v 0.4861749 0.4674366 0.6294993
v 0.4861749 0.3394922 0.6294993
v 0.4861749 0.3394922 0.6482644
v 0.5237052 0.4026114 0.6482644
v 0.5237052 0.4026114 0.6294993
v 0.4128202 0.3394922 0.6294993
v 0.4128202 0.3394922 0.6482644
v 0.4861749 0.3394922 0.6482644
v 0.4861749 0.3394922 0.6294993
v 0.3769958 0.4026114 0.6294993
v 0.3769958 0.4026114 0.6482644
v 0.4128202 0.3394922 0.6482644
v 0.4128202 0.3394922 0.6294993
v 0.4128202 0.4674366 0.6294993
v 0.4128202 0.4674366 0.6482644
v 0.3769958 0.4026114 0.6482644
v 0.3769958 0.4026114 0.6294993
v 0.4861749 0.4674366 0.6294993
v 0.4861749 0.4674366 0.6482644
v 0.4128202 0.4674366 0.6482644
v 0.4128202 0.4674366 0.6294993
v 0.4861749 0.4026114 0.6294993
v 0.4861749 0.4674366 0.6294993
v 0.4691157 0.4350239 0.6294993
v 0.5237052 0.4026114 0.6294993
v 0.4691157 0.3719047 0.6294993
v 0.4861749 0.3394922 0.6294993
v 0.4315854 0.3719047 0.6294993
v 0.4128202 0.3394922 0.6294993
v 0.4128202 0.4026114 0.6294993
v 0.3769958 0.4026114 0.6294993
v 0.4315854 0.4350239 0.6294993
v 0.4128202 0.4674366 0.6294993
v 0.4691157 0.4350239 0.6294993
v 0.4861749 0.4674366 0.6294993
v 0.4691157 0.4350239 0.6482644
v 0.4861749 0.4674366 0.6482644
v 0.5237052 0.4026114 0.6482644
v 0.4861749 0.4026114 0.6482644
v 0.4861749 0.3394922 0.6482644
v 0.4691157 0.3719047 0.6482644
v 0.4128202 0.3394922 0.6482644
v 0.4315854 0.3719047 0.6482644
v 0.3769958 0.4026114 0.6482644
v 0.4128202 0.4026114 0.6482644
v 0.4128202 0.4674366 0.6482644
v 0.4315854 0.4350239 0.6482644
v 0.4861749 0.4674366 0.6482644
v 0.4691157 0.4350239 0.6482644
v -0.1944886 0.1552525 0.5970867
v -0.1944886 0.5970867 0.5970867
v 1.096896 0.5970867 0.5970867
v 1.096896 0.1552525 0.5970867
v -0.1944886 0.5970867 -0.5458823
v -0.1944886 0.1552525 -0.5458823
v 1.096896 0.1552525 -0.5458823
v 1.096896 0.5970867 -0.5458823
v -0.1944886 0.1552525 -0.5458823
v -0.1944886 0.1552525 0.5970867
v 1.096896 0.1552525 0.5970867
v 1.096896 0.1552525 -0.5458823
v 1.096896 0.1552525 0.5970867
v 1.096896 0.5970867 0.5970867
v 1.096896 0.5970867 -0.5458823
v 1.096896 0.1552525 -0.5458823
v -0.1944886 0.1552525 -0.5458823
v -0.1944886 0.5970867 -0.5458823
v -0.1944886 0.5970867 0.5970867
v -0.1944886 0.1552525 0.5970867
v -0.1620761 0.2047242 0.5476149
v 1.062777 0.2047242 0.5476149
v 1.062777 0.5970867 0.5476149
v -0.1620761 0.5970867 0.5476149
v -0.1620761 0.5970867 -0.4964105
v 1.062777 0.5970867 -0.4964105
v 1.062777 0.2047242 -0.4964105
v -0.1620761 0.2047242 -0.4964105
v -0.1620761 0.2047242 -0.4964105
v 1.062777 0.2047242 -0.4964105
v 1.062777 0.2047242 0.5476149
v -0.1620761 0.2047242 0.5476149
v 1.062777 0.2047242 0.5476149
v 1.062777 0.2047242 -0.4964105
v 1.062777 0.5970867 -0.4964105
v 1.062777 0.5970867 0.5476149
v -0.1620761 0.2047242 -0.4964105
v -0.1620761 0.2047242 0.5476149
v -0.1620761 0.5970867 0.5476149
v -0.1620761 0.5970867 -0.4964105
v 1.096896 0.5970867 0.5970867
v 1.062777 0.5970867 0.5476149
v 1.062777 0.5970867 -0.4964105
v 1.096896 0.5970867 -0.5458823
v 1.096896 0.5970867 -0.5458823
v 1.062777 0.5970867 -0.4964105
v -0.1620761 0.5970867 -0.4964105
v -0.1944886 0.5970867 -0.5458823
v -0.1944886 0.5970867 -0.5458823
v -0.1620761 0.5970867 -0.4964105
v -0.1620761 0.5970867 0.5476149
v -0.1944886 0.5970867 0.5970867
v -0.1944886 0.5970867 0.5970867
v -0.1620761 0.5970867 0.5476149
v 1.062777 0.5970867 0.5476149
v 1.096896 0.5970867 0.5970867
v 0.4861749 0.4026114 0.590263
v 0.4503505 0.4026114 0.590263
v 0.4691157 0.3719047 0.590263
v 0.4691157 0.4350239 0.590263
v 0.4315854 0.3719047 0.590263
v 0.4315854 0.4350239 0.590263
v 0.4128202 0.4026114 0.590263
v 0.4691157 0.3719047 0.6482644
v 0.4503505 0.4026114 0.6482644
v 0.4861749 0.4026114 0.6482644
v 0.4315854 0.3719047 0.6482644
v 0.4691157 0.4350239 0.6482644
v 0.4128202 0.4026114 0.6482644
v 0.4315854 0.4350239 0.6482644
vt 0.9274213 0.1911341
vt 0.9274213 0.2001498
vt 0.9304266 0.2001498
vt 0.9304266 0.1911341
vt 0.9304266 0.1911341
vt 0.9304266 0.2001498
vt 0.9334317 0.2001498
vt 0.9334317 0.1911341
vt 0.9334317 0.1911341
vt 0.9334317 0.2001498
vt 0.936437 0.2001498
vt 0.936437 0.1911341
vt 0.936437 0.1911341
vt 0.936437 0.2001498
vt 0.936437 0.2001498
vt 0.936437 0.1911341
vt 0.936437 0.1911341
vt 0.936437 0.2001498
vt 0.9394423 0.2001498
vt 0.9394423 0.1911341
vt 0.9394423 0.1911341
vt 0.9394423 0.2001498
vt 0.9424475 0.2001498
vt 0.9424475 0.1911341
vt 0.9394423 0.2001498
vt 0.9394423 0.2121708
vt 0.9424475 0.2121708
vt 0.9424475 0.2001498
vt 0.936437 0.2001498
vt 0.936437 0.2121708
vt 0.9394423 0.2121708
vt 0.9394423 0.2001498
vt 0.936437 0.2001498
vt 0.936437 0.2121708
vt 0.936437 0.2121708
vt 0.936437 0.2001498
vt 0.9334317 0.2001498
vt 0.9334317 0.2121708
vt 0.936437 0.2121708
vt 0.936437 0.2001498
vt 0.9304266 0.2001498
vt 0.9304266 0.2121708
vt 0.9334317 0.2121708
vt 0.9334317 0.2001498
vt 0.9274213 0.2001498
vt 0.9274213 0.2121708
vt 0.9304266 0.2121708
vt 0.9304266 0.2001498
vt 0.9394423 0.2001498
vt 0.9424475 0.2001498
vt 0.9424475 0.2001498
vt 0.9394423 0.2001498
vt 0.936437 0.2001498
vt 0.936437 0.2001498
vt 0.936437 0.2001498
vt 0.936437 0.2001498
vt 0.9334317 0.2001498
vt 0.9334317 0.2001498
vt 0.9304266 0.2001498
vt 0.9304266 0.2001498
vt 0.9274213 0.2001498
vt 0.9274213 0.2001498
vt 0.9424475 0.2121708
vt 0.9424475 0.2121708
vt 0.9394423 0.2121708
vt 0.9394423 0.2121708
vt 0.936437 0.2121708
vt 0.936437 0.2121708
vt 0.936437 0.2121708
vt 0.936437 0.2121708
vt 0.9334317 0.2121708
vt 0.9334317 0.2121708
vt 0.9304266 0.2121708
vt 0.9304266 0.2121708
vt 0.9274213 0.2121708
vt 0.9274213 0.2121708
vt 0.9304266 0.6028539
vt 0.9304266 0.6148748
vt 0.9454528 0.6148748
vt 0.9454528 0.6028539
vt 0.9304266 0.6299012
vt 0.9304266 0.6419221
vt 0.9454528 0.6419221
vt 0.9454528 0.6299012
vt 0.9304266 0.6419221
vt 0.9304266 0.6539432
vt 0.9454528 0.6539432
vt 0.9454528 0.6419221
vt 0.9454528 0.6028539
vt 0.9454528 0.6148748
vt 0.9574739 0.6148748
vt 0.9574739 0.6028539
vt 0.9184055 0.6028539
vt 0.9184055 0.6148748
vt 0.9304266 0.6148748
vt 0.9304266 0.6028539
vt 0.9304266 0.6028539
vt 0.9454528 0.6028539
vt 0.9454528 0.6148748
vt 0.9304266 0.6148748
vt 0.9304266 0.6299012
vt 0.9454528 0.6299012
vt 0.9454528 0.6419221
vt 0.9304266 0.6419221
vt 0.9304266 0.6419221
vt 0.9454528 0.6419221
vt 0.9454528 0.6539432
vt 0.9304266 0.6539432
vt 0.9454528 0.6028539
vt 0.9574739 0.6028539
vt 0.9574739 0.6148748
vt 0.9454528 0.6148748
vt 0.9184055 0.6028539
vt 0.9304266 0.6028539
vt 0.9304266 0.6148748
vt 0.9184055 0.6148748
vt 0.9454528 0.6148748
vt 0.9454528 0.6148748
vt 0.9574739 0.6148748
vt 0.9574739 0.6148748
vt 0.9454528 0.6299012
vt 0.9454528 0.6299012
vt 0.9304266 0.6299012
vt 0.9304266 0.6299012
vt 0.9184055 0.6148748
vt 0.9184055 0.6148748
vt 0.9304266 0.6148748
vt 0.9304266 0.6148748
vt 0.9304266 0.6148748
vt 0.9304266 0.6148748
vt 0.9454528 0.6148748
vt 0.9454528 0.6148748
vt 0.9454528 0.6088644
vt 0.936437 0.6088644
vt 0.9424475 0.6178801
vt 0.9424475 0.6028539
vt 0.9334317 0.6178801
vt 0.9334317 0.6028539
vt 0.9304266 0.6088644
vt 0.9394423 0.2121708
vt 0.936437 0.2181814
vt 0.9424475 0.2181814
vt 0.9304266 0.2121708
vt 0.9394423 0.2271971
vt 0.9274213 0.2181814
vt 0.9304266 0.2271971
vn -0.01587105 0.999874 -0.000345267
vn -0.01587105 0.999874 -0.000345267
vn -0.01587105 0.999874 -0.000345267
vn -0.01587105 0.999874 -0.000345267
vn -0.8711522 0.4910131 0
vn -0.8711522 0.4910131 0
vn -0.8711522 0.4910131 0
vn -0.8711522 0.4910131 0
vn -0.8711522 -0.491013 0
vn -0.8711522 -0.491013 0
vn -0.8711522 -0.491013 0
vn -0.8711522 -0.491013 0
vn -0.01587105 -0.999874 -0.000345267
vn -0.01587105 -0.999874 -0.000345267
vn -0.01587105 -0.999874 -0.000345267
vn -0.01587105 -0.999874 -0.000345267
vn 0.8711522 -0.491013 0
vn 0.8711522 -0.491013 0
vn 0.8711522 -0.491013 0
vn 0.8711522 -0.491013 0
vn 0.8711522 0.4910131 0
vn 0.8711522 0.4910131 0
vn 0.8711522 0.4910131 0
vn 0.8711522 0.4910131 0
vn 0.8711522 0.4910131 0
vn 0.8711522 0.4910131 0
vn 0.8711522 0.4910131 0
vn 0.8711522 0.4910131 0
vn 0.8711522 -0.491013 0
vn 0.8711522 -0.491013 0
vn 0.8711522 -0.491013 0
vn 0.8711522 -0.491013 0
vn -0.01587105 -0.999874 -0.000345267
vn -0.01587105 -0.999874 -0.000345267
vn -0.01587105 -0.999874 -0.000345267
vn -0.01587105 -0.999874 -0.000345267
vn -0.8711522 -0.491013 0
vn -0.8711522 -0.491013 0
vn -0.8711522 -0.491013 0
vn -0.8711522 -0.491013 0
vn -0.8711522 0.4910131 0
vn -0.8711522 0.4910131 0
vn -0.8711522 0.4910131 0
vn -0.8711522 0.4910131 0
vn -0.01587105 0.999874 -0.000345267
vn -0.01587105 0.999874 -0.000345267
vn -0.01587105 0.999874 -0.000345267
vn -0.01587105 0.999874 -0.000345267
vn -0.01587105 0.01587105 -0.9997481
vn -0.01587105 0.01587105 -0.9997481
vn -0.01587105 0.01587105 -0.9997481
vn -0.01587105 0.01587105 -0.9997481
vn -0.01587105 0.01587105 -0.9997481
vn -0.01587105 0.01587105 -0.9997481
vn -0.01587105 0.01587105 -0.9997481
vn -0.01587105 0.01587105 -0.9997481
vn -0.01587105 0.01587105 -0.9997481
vn -0.01587105 0.01587105 -0.9997481
vn -0.01587105 0.01587105 -0.9997481
vn -0.01587105 0.01587105 -0.9997481
vn -0.01587105 0.01587105 -0.9997481
vn -0.01587105 0.01587105 -0.9997481
vn -0.01587105 0.01587105 0.9997481
vn -0.01587105 0.01587105 0.9997481
vn -0.01587105 0.01587105 0.9997481
vn -0.01587105 0.01587105 0.9997481
vn -0.01587105 0.01587105 0.9997481
vn -0.01587105 0.01587105 0.9997481
vn -0.01587105 0.01587105 0.9997481
vn -0.01587105 0.01587105 0.9997481
vn -0.01587105 0.01587105 0.9997481
vn -0.01587105 0.01587105 0.9997481
vn -0.01587105 0.01587105 0.9997481
vn -0.01587105 0.01587105 0.9997481
vn -0.01587105 0.01587105 0.9997481
vn -0.01587105 0.01587105 0.9997481
vn -0.01587105 0.01587105 0.9997481
vn -0.01587105 0.01587105 0.9997481
vn -0.01587105 0.01587105 0.9997481
vn -0.01587105 0.01587105 0.9997481
vn -0.01587105 0.01587105 -0.9997481
vn -0.01587105 0.01587105 -0.9997481
vn -0.01587105 0.01587105 -0.9997481
vn -0.01587105 0.01587105 -0.9997481
vn -0.01587105 -0.999874 -0.000345267
vn -0.01587105 -0.999874 -0.000345267
vn -0.01587105 -0.999874 -0.000345267
vn -0.01587105 -0.999874 -0.000345267
vn 0.999874 0.01587105 -0.0003439156
vn 0.999874 0.01587105 -0.0003439156
vn 0.999874 0.01587105 -0.0003439156
vn 0.999874 0.01587105 -0.0003439156
vn -0.999874 0.01587105 -0.0003439156
vn -0.999874 0.01587105 -0.0003439156
vn -0.999874 0.01587105 -0.0003439156
vn -0.999874 0.01587105 -0.0003439156
vn -0.01587105 0.01587105 -0.9997481
vn -0.01587105 0.01587105 -0.9997481
vn -0.01587105 0.01587105 -0.9997481
vn -0.01587105 0.01587105 -0.9997481
vn -0.01587105 0.01587105 0.9997481
vn -0.01587105 0.01587105 0.9997481
vn -0.01587105 0.01587105 0.9997481
vn -0.01587105 0.01587105 0.9997481
vn -0.01587105 0.999874 -0.000345267
vn -0.01587105 0.999874 -0.000345267
vn -0.01587105 0.999874 -0.000345267
vn -0.01587105 0.999874 -0.000345267
vn -0.999874 0.01587105 -0.0003439156
vn -0.999874 0.01587105 -0.0003439156
vn -0.999874 0.01587105 -0.0003439156
vn -0.999874 0.01587105 -0.0003439156
vn 0.999874 0.01587105 -0.0003439156
vn 0.999874 0.01587105 -0.0003439156
vn 0.999874 0.01587105 -0.0003439156
vn 0.999874 0.01587105 -0.0003439156
vn -0.04756513 0.9988682 0
vn -0.04756513 0.9988682 0
vn -0.04756513 0.9988682 0
vn -0.04756513 0.9988682 0
vn -0.01587105 0.999874 -0.000345267
vn -0.01587105 0.999874 -0.000345267
vn -0.01587105 0.999874 -0.000345267
vn -0.01587105 0.999874 -0.000345267
vn 0.04756513 0.9988682 0
vn 0.04756513 0.9988682 0
vn 0.04756513 0.9988682 0
vn 0.04756513 0.9988682 0
vn -0.01587105 0.999874 -0.000345267
vn -0.01587105 0.999874 -0.000345267
vn -0.01587105 0.999874 -0.000345267
vn -0.01587105 0.999874 -0.000345267
vn -0.01587105 0.01587105 -0.9997481
vn -0.01587105 0.01587105 -0.9997481
vn -0.01587105 0.01587105 -0.9997481
vn -0.01587105 0.01587105 -0.9997481
vn -0.01587105 0.01587105 -0.9997481
vn -0.01587105 0.01587105 -0.9997481
vn -0.01587105 0.01587105 -0.9997481
vn -0.01587105 0.01587105 0.9997481
vn -0.01587105 0.01587105 0.9997481
vn -0.01587105 0.01587105 0.9997481
vn -0.01587105 0.01587105 0.9997481
vn -0.01587105 0.01587105 0.9997481
vn -0.01587105 0.01587105 0.9997481
vn -0.01587105 0.01587105 0.9997481
g drawer04_0
f 3/3/3 2/2/2 1/1/1
f 4/4/4 3/3/3 1/1/1
f 7/7/7 6/6/6 5/5/5
f 8/8/8 7/7/7 5/5/5
f 11/11/11 10/10/10 9/9/9
f 12/12/12 11/11/11 9/9/9
f 15/15/15 14/14/14 13/13/13
f 16/16/16 15/15/15 13/13/13
f 19/19/19 18/18/18 17/17/17
f 20/20/20 19/19/19 17/17/17
f 23/23/23 22/22/22 21/21/21
f 24/24/24 23/23/23 21/21/21
f 27/27/27 26/26/26 25/25/25
f 28/28/28 27/27/27 25/25/25
f 31/31/31 30/30/30 29/29/29
f 32/32/32 31/31/31 29/29/29
f 35/35/35 34/34/34 33/33/33
f 36/36/36 35/35/35 33/33/33
f 39/39/39 38/38/38 37/37/37
f 40/40/40 39/39/39 37/37/37
f 43/43/43 42/42/42 41/41/41
f 44/44/44 43/43/43 41/41/41
f 47/47/47 46/46/46 45/45/45
f 48/48/48 47/47/47 45/45/45
f 51/51/51 50/50/50 49/49/49
f 50/50/50 52/52/52 49/49/49
f 49/49/49 52/52/52 53/53/53
f 52/52/52 54/54/54 53/53/53
f 53/53/53 54/54/54 55/55/55
f 54/54/54 56/56/56 55/55/55
f 55/55/55 56/56/56 57/57/57
f 56/56/56 58/58/58 57/57/57
f 57/57/57 58/58/58 59/59/59
f 58/58/58 60/60/60 59/59/59
f 59/59/59 60/60/60 61/61/61
f 60/60/60 62/62/62 61/61/61
f 65/65/65 64/64/64 63/63/63
f 66/66/66 65/65/65 63/63/63
f 67/67/67 65/65/65 66/66/66
f 68/68/68 67/67/67 66/66/66
f 69/69/69 67/67/67 68/68/68
f 70/70/70 69/69/69 68/68/68
f 71/71/71 69/69/69 70/70/70
f 72/72/72 71/71/71 70/70/70
f 73/73/73 71/71/71 72/72/72
f 74/74/74 73/73/73 72/72/72
f 75/75/75 73/73/73 74/74/74
f 76/76/76 75/75/75 74/74/74
f 79/79/79 78/78/78 77/77/77
f 80/80/80 79/79/79 77/77/77
f 83/83/83 82/82/82 81/81/81
f 84/84/84 83/83/83 81/81/81
f 87/87/87 86/86/86 85/85/85
f 88/88/88 87/87/87 85/85/85
f 91/91/91 90/90/90 89/89/89
f 92/92/92 91/91/91 89/89/89
f 95/95/95 94/94/94 93/93/93
f 96/96/96 95/95/95 93/93/93
f 99/99/99 98/98/98 97/97/97
f 100/100/100 99/99/99 97/97/97
f 103/103/103 102/102/102 101/101/101
f 104/104/104 103/103/103 101/101/101
f 107/107/107 106/106/106 105/105/105
f 108/108/108 107/107/107 105/105/105
f 111/111/111 110/110/110 109/109/109
f 112/112/112 111/111/111 109/109/109
f 115/115/115 114/114/114 113/113/113
f 116/116/116 115/115/115 113/113/113
f 119/119/119 118/118/118 117/117/117
f 120/120/120 119/119/119 117/117/117
f 123/123/123 122/122/122 121/121/121
f 124/124/124 123/123/123 121/121/121
f 127/127/127 126/126/126 125/125/125
f 128/128/128 127/127/127 125/125/125
f 131/131/131 130/130/130 129/129/129
f 132/132/132 131/131/131 129/129/129
f 135/135/135 134/134/134 133/133/133
f 133/133/133 134/134/134 136/136/136
f 137/137/137 134/134/134 135/135/135
f 136/136/136 134/134/134 138/138/138
f 139/139/139 134/134/134 137/137/137
f 138/138/138 134/134/134 139/139/139
f 142/142/142 141/141/141 140/140/140
f 140/140/140 141/141/141 143/143/143
f 144/144/144 141/141/141 142/142/142
f 143/143/143 141/141/141 145/145/145
f 146/146/146 141/141/141 144/144/144
f 145/145/145 141/141/141 146/146/146
