g eggs
v -0.07673255 0.004578978 -0.1339004
v -0.08061774 -0.004578978 -0.1419483
v -0.03260787 -0.004578978 -0.1386181
v -0.03371792 0.004578978 -0.1308477
v -0.106704 0.004578978 -0.1092017
v -0.1139194 -0.004578978 -0.1144744
v -0.08061774 -0.004578978 -0.1419483
v -0.07673255 0.004578978 -0.1339004
v -0.1119768 0.004578978 -0.06618703
v -0.1197472 -0.004578978 -0.06674206
v -0.1139194 -0.004578978 -0.1144744
v -0.106704 0.004578978 -0.1092017
v -0.09088576 0.004578978 -0.0212298
v -0.09615852 -0.004578978 -0.01678959
v -0.1197472 -0.004578978 -0.06674206
v -0.1119768 0.004578978 -0.06618703
v -0.055364 0.004578978 0.01179433
v -0.05675156 -0.004578978 0.02011974
v -0.09615852 -0.004578978 -0.01678959
v -0.09088576 0.004578978 -0.0212298
v -0.01040676 0.004578978 0.01345941
v -0.007076606 -0.004578978 0.02178483
v -0.05675156 -0.004578978 0.02011974
v -0.055364 0.004578978 0.01179433
v 0.02539251 0.004578978 -0.01623455
v 0.03288538 -0.004578978 -0.01123931
v -0.007076606 -0.004578978 0.02178483
v -0.01040676 0.004578978 0.01345941
v 0.03233035 0.004578978 -0.06063675
v 0.04065576 -0.004578978 -0.06035924
v 0.03288538 -0.004578978 -0.01123931
v 0.02539251 0.004578978 -0.01623455
v 0.006521568 0.004578978 -0.1017088
v 0.01207185 -0.004578978 -0.106149
v 0.04065576 -0.004578978 -0.06035924
v 0.03233035 0.004578978 -0.06063675
v -0.03371792 0.004578978 -0.1308477
v -0.03260787 -0.004578978 -0.1386181
v 0.01207185 -0.004578978 -0.106149
v 0.006521568 0.004578978 -0.1017088
v -0.0312203 0.004578978 0.1064265
v -0.03871317 -0.004578978 0.1111442
v -0.04065576 -0.004578978 0.06313437
v -0.03288539 0.004578978 0.06341189
v -0.003191411 0.004578978 0.1336229
v -0.007909149 -0.004578978 0.1413932
v -0.03871317 -0.004578978 0.1111442
v -0.0312203 0.004578978 0.1064265
v 0.03982322 0.004578978 0.1341779
v 0.04010074 -0.004578978 0.1419483
v -0.007909149 -0.004578978 0.1413932
v -0.003191411 0.004578978 0.1336229
v 0.08228283 0.004578978 0.1080916
v 0.08727808 -0.004578978 0.1130868
v 0.04010074 -0.004578978 0.1419483
v 0.03982322 0.004578978 0.1341779
v 0.1114218 0.004578978 0.0695172
v 0.1197472 -0.004578978 0.07007222
v 0.08727808 -0.004578978 0.1130868
v 0.08228283 0.004578978 0.1080916
v 0.1080916 0.004578978 0.02455997
v 0.1161395 -0.004578978 0.02011974
v 0.1197472 -0.004578978 0.07007222
v 0.1114218 0.004578978 0.0695172
v 0.07478996 0.004578978 -0.007909134
v 0.07895266 -0.004578978 -0.01595704
v 0.1161395 -0.004578978 0.02011974
v 0.1080916 0.004578978 0.02455997
v 0.02983273 0.004578978 -0.009851739
v 0.02900019 -0.004578978 -0.01817715
v 0.07895266 -0.004578978 -0.01595704
v 0.07478996 0.004578978 -0.007909134
v -0.008186653 0.004578978 0.02011974
v -0.01318191 -0.004578978 0.01540202
v 0.02900019 -0.004578978 -0.01817715
v 0.02983273 0.004578978 -0.009851739
v -0.03288539 0.004578978 0.06341189
v -0.04065576 -0.004578978 0.06313437
v -0.01318191 -0.004578978 0.01540202
v -0.008186653 0.004578978 0.02011974
v 0.04121079 0.004578978 0.00957422
v 0.04565101 0.004578978 0.0556415
v 0.01762212 0.004578978 0.02844515
v 0.06868465 0.004578978 0.0109618
v 0.002358869 0.004578978 0.05508648
v 0.08949818 0.004578978 0.03094278
v 0.003468916 0.004578978 0.0817278
v 0.09144078 0.004578978 0.05869415
v 0.02067477 0.004578978 0.09837863
v 0.07340239 0.004578978 0.08283785
v 0.0473161 0.004578978 0.09865613
v 0.01151682 0.004578978 -0.0514788
v -0.03455046 0.004578978 -0.05203383
v -0.004301459 0.004578978 -0.07701007
v 0.00735411 0.004578978 -0.02400494
v -0.0292777 0.004578978 -0.09504846
v -0.01484698 0.004578978 -0.005689025
v -0.05591902 0.004578978 -0.09699105
v -0.04259837 0.004578978 -0.006799087
v -0.07423493 0.004578978 -0.08145028
v -0.06452195 0.004578978 -0.02733511
v -0.07756509 0.004578978 -0.05508648
v 0.02983273 0.004578978 -0.009851739
v 0.04121079 0.004578978 0.00957422
v 0.01762212 0.004578978 0.02844515
v 0.07478996 0.004578978 -0.007909134
v -0.008186653 0.004578978 0.02011974
v 0.06868465 0.004578978 0.0109618
v 0.002358869 0.004578978 0.05508648
v 0.1080916 0.004578978 0.02455997
v -0.03288539 0.004578978 0.06341189
v 0.08949818 0.004578978 0.03094278
v 0.003468916 0.004578978 0.0817278
v 0.1114218 0.004578978 0.0695172
v -0.0312203 0.004578978 0.1064265
v 0.09144078 0.004578978 0.05869415
v 0.02067477 0.004578978 0.09837863
v 0.08228283 0.004578978 0.1080916
v -0.003191411 0.004578978 0.1336229
v 0.07340239 0.004578978 0.08283785
v 0.0473161 0.004578978 0.09865613
v 0.03982322 0.004578978 0.1341779
v 0.03233035 0.004578978 -0.06063675
v 0.01151682 0.004578978 -0.0514788
v -0.004301459 0.004578978 -0.07701007
v 0.02539251 0.004578978 -0.01623455
v 0.006521568 0.004578978 -0.1017088
v 0.00735411 0.004578978 -0.02400494
v -0.0292777 0.004578978 -0.09504846
v -0.01040676 0.004578978 0.01345941
v -0.03371792 0.004578978 -0.1308477
v -0.01484698 0.004578978 -0.005689025
v -0.05591902 0.004578978 -0.09699105
v -0.055364 0.004578978 0.01179433
v -0.07673255 0.004578978 -0.1339004
v -0.04259837 0.004578978 -0.006799087
v -0.07423493 0.004578978 -0.08145028
v -0.09088576 0.004578978 -0.0212298
v -0.106704 0.004578978 -0.1092017
v -0.06452195 0.004578978 -0.02733511
v -0.07756509 0.004578978 -0.05508648
v -0.1119768 0.004578978 -0.06618703
vt 0.716566 0.9447857
vt 0.716566 0.977861
vt 0.7496414 0.977861
vt 0.7496414 0.9447857
vt 0.716566 0.9447857
vt 0.716566 0.977861
vt 0.7496414 0.977861
vt 0.7496414 0.9447857
vt 0.716566 0.9447857
vt 0.716566 0.977861
vt 0.7496414 0.977861
vt 0.7496414 0.9447857
vt 0.716566 0.9447857
vt 0.716566 0.977861
vt 0.7496414 0.977861
vt 0.7496414 0.9447857
vt 0.716566 0.9447857
vt 0.716566 0.977861
vt 0.7496414 0.977861
vt 0.7496414 0.9447857
vt 0.716566 0.9447857
vt 0.716566 0.977861
vt 0.7496414 0.977861
vt 0.7496414 0.9447857
vt 0.716566 0.9447857
vt 0.716566 0.977861
vt 0.7496414 0.977861
vt 0.7496414 0.9447857
vt 0.716566 0.9447857
vt 0.716566 0.977861
vt 0.7496414 0.977861
vt 0.7496414 0.9447857
vt 0.716566 0.9447857
vt 0.716566 0.977861
vt 0.7496414 0.977861
vt 0.7496414 0.9447857
vt 0.716566 0.9447857
vt 0.716566 0.977861
vt 0.7496414 0.977861
vt 0.7496414 0.9447857
vt 0.716566 0.9447857
vt 0.716566 0.977861
vt 0.7496414 0.977861
vt 0.7496414 0.9447857
vt 0.716566 0.9447857
vt 0.716566 0.977861
vt 0.7496414 0.977861
vt 0.7496414 0.9447857
vt 0.716566 0.9447857
vt 0.716566 0.977861
vt 0.7496414 0.977861
vt 0.7496414 0.9447857
vt 0.716566 0.9447857
vt 0.716566 0.977861
vt 0.7496414 0.977861
vt 0.7496414 0.9447857
vt 0.716566 0.9447857
vt 0.716566 0.977861
vt 0.7496414 0.977861
vt 0.7496414 0.9447857
vt 0.716566 0.9447857
vt 0.716566 0.977861
vt 0.7496414 0.977861
vt 0.7496414 0.9447857
vt 0.716566 0.9447857
vt 0.716566 0.977861
vt 0.7496414 0.977861
vt 0.7496414 0.9447857
vt 0.716566 0.9447857
vt 0.716566 0.977861
vt 0.7496414 0.977861
vt 0.7496414 0.9447857
vt 0.716566 0.9447857
vt 0.716566 0.977861
vt 0.7496414 0.977861
vt 0.7496414 0.9447857
vt 0.716566 0.9447857
vt 0.716566 0.977861
vt 0.7496414 0.977861
vt 0.7496414 0.9447857
vt 0.1377481 0.7132585
vt 0.1377481 0.7132585
vt 0.1410557 0.7132585
vt 0.1377481 0.7132585
vt 0.1377481 0.716566
vt 0.1377481 0.7132585
vt 0.1377481 0.716566
vt 0.1344406 0.7132585
vt 0.1377481 0.716566
vt 0.1344406 0.7132585
vt 0.1344406 0.716566
vt 0.1377481 0.7132585
vt 0.1377481 0.7132585
vt 0.1410557 0.7132585
vt 0.1377481 0.7132585
vt 0.1377481 0.716566
vt 0.1377481 0.7132585
vt 0.1377481 0.716566
vt 0.1344406 0.7132585
vt 0.1377481 0.716566
vt 0.1344406 0.7132585
vt 0.1344406 0.716566
vt 0.7364112 0.9712459
vt 0.7364112 0.9712459
vt 0.7397187 0.9712459
vt 0.7364112 0.9679384
vt 0.7397187 0.9712459
vt 0.7364112 0.9679384
vt 0.7364112 0.9745535
vt 0.7331037 0.9679384
vt 0.7364112 0.9745535
vt 0.7331037 0.9679384
vt 0.7364112 0.977861
vt 0.7297962 0.9712459
vt 0.7364112 0.977861
vt 0.7297962 0.9712459
vt 0.7331037 0.977861
vt 0.7264886 0.9712459
vt 0.7331037 0.977861
vt 0.7264886 0.9712459
vt 0.7297962 0.9745535
vt 0.7297962 0.9745535
vt 0.7364112 0.9712459
vt 0.7364112 0.9712459
vt 0.7397187 0.9712459
vt 0.7364112 0.9679384
vt 0.7397187 0.9712459
vt 0.7364112 0.9679384
vt 0.7364112 0.9745535
vt 0.7331037 0.9679384
vt 0.7364112 0.9745535
vt 0.7331037 0.9679384
vt 0.7364112 0.977861
vt 0.7297962 0.9712459
vt 0.7364112 0.977861
vt 0.7297962 0.9712459
vt 0.7331037 0.977861
vt 0.7264886 0.9712459
vt 0.7331037 0.977861
vt 0.7264886 0.9712459
vt 0.7297962 0.9745535
vt 0.7297962 0.9745535
vn 0.05082458 0.6405008 -0.7662739
vn 0.05082458 0.6405008 -0.7662739
vn 0.05082458 0.6405008 -0.7662739
vn 0.05082458 0.6405008 -0.7662739
vn -0.4745827 0.6958069 -0.5390956
vn -0.4745827 0.6958069 -0.5390956
vn -0.4745827 0.6958069 -0.5390956
vn -0.4745827 0.6958069 -0.5390956
vn -0.7511128 0.6405008 -0.1599634
vn -0.7511128 0.6405008 -0.1599634
vn -0.7511128 0.6405008 -0.1599634
vn -0.7511128 0.6405008 -0.1599634
vn -0.7234598 0.5851948 0.3662688
vn -0.7234598 0.5851948 0.3662688
vn -0.7234598 0.5851948 0.3662688
vn -0.7234598 0.5851948 0.3662688
vn -0.5298887 0.6128478 0.5862043
vn -0.5298887 0.6128478 0.5862043
vn -0.5298887 0.6128478 0.5862043
vn -0.5298887 0.6128478 0.5862043
vn -0.03213447 0.6681538 0.7433289
vn -0.03213447 0.6681538 0.7433289
vn -0.03213447 0.6681538 0.7433289
vn -0.03213447 0.6681538 0.7433289
vn 0.4656198 0.6958069 0.5468556
vn 0.4656198 0.6958069 0.5468556
vn 0.4656198 0.6958069 0.5468556
vn 0.4656198 0.6958069 0.5468556
vn 0.7421499 0.6681538 0.05276347
vn 0.7421499 0.6681538 0.05276347
vn 0.7421499 0.6681538 0.05276347
vn 0.7421499 0.6681538 0.05276347
vn 0.6868439 0.6128478 -0.3907211
vn 0.6868439 0.6128478 -0.3907211
vn 0.6868439 0.6128478 -0.3907211
vn 0.6868439 0.6128478 -0.3907211
vn 0.4656198 0.5851948 -0.6638864
vn 0.4656198 0.5851948 -0.6638864
vn 0.4656198 0.5851948 -0.6638864
vn 0.4656198 0.5851948 -0.6638864
vn -0.7511128 0.6405008 0.1599634
vn -0.7511128 0.6405008 0.1599634
vn -0.7511128 0.6405008 0.1599634
vn -0.7511128 0.6405008 0.1599634
vn -0.5022358 0.6958069 0.5134316
vn -0.5022358 0.6958069 0.5134316
vn -0.5022358 0.6958069 0.5134316
vn -0.5022358 0.6958069 0.5134316
vn -0.004481435 0.6405008 0.7679445
vn -0.004481435 0.6405008 0.7679445
vn -0.004481435 0.6405008 0.7679445
vn -0.004481435 0.6405008 0.7679445
vn 0.4103138 0.5851948 0.6994209
vn 0.4103138 0.5851948 0.6994209
vn 0.4103138 0.5851948 0.6994209
vn 0.4103138 0.5851948 0.6994209
vn 0.6315379 0.6128478 0.4749499
vn 0.6315379 0.6128478 0.4749499
vn 0.6315379 0.6128478 0.4749499
vn 0.6315379 0.6128478 0.4749499
vn 0.7421499 0.6681538 -0.05276347
vn 0.7421499 0.6681538 -0.05276347
vn 0.7421499 0.6681538 -0.05276347
vn 0.7421499 0.6681538 -0.05276347
vn 0.4932728 0.6958069 -0.5220486
vn 0.4932728 0.6958069 -0.5220486
vn 0.4932728 0.6958069 -0.5220486
vn 0.4932728 0.6958069 -0.5220486
vn 0.02317154 0.6681538 -0.7436623
vn 0.02317154 0.6681538 -0.7436623
vn 0.02317154 0.6681538 -0.7436623
vn 0.02317154 0.6681538 -0.7436623
vn -0.5022358 0.6128478 -0.610063
vn -0.5022358 0.6128478 -0.610063
vn -0.5022358 0.6128478 -0.610063
vn -0.5022358 0.6128478 -0.610063
vn -0.6958069 0.5851948 -0.4164131
vn -0.6958069 0.5851948 -0.4164131
vn -0.6958069 0.5851948 -0.4164131
vn -0.6958069 0.5851948 -0.4164131
vn -0.004481435 0.99999 0
vn -0.004481435 0.99999 0
vn -0.004481435 0.99999 0
vn -0.004481435 0.99999 0
vn -0.004481435 0.99999 0
vn -0.004481435 0.99999 0
vn -0.004481435 0.99999 0
vn -0.004481435 0.99999 0
vn -0.004481435 0.99999 0
vn -0.004481435 0.99999 0
vn -0.004481435 0.99999 0
vn -0.004481435 0.99999 0
vn -0.004481435 0.99999 0
vn -0.004481435 0.99999 0
vn -0.004481435 0.99999 0
vn -0.004481435 0.99999 0
vn -0.004481435 0.99999 0
vn -0.004481435 0.99999 0
vn -0.004481435 0.99999 0
vn -0.004481435 0.99999 0
vn -0.004481435 0.99999 0
vn -0.004481435 0.99999 0
vn -0.004481435 0.99999 0
vn -0.004481435 0.99999 0
vn -0.004481435 0.99999 0
vn -0.004481435 0.99999 0
vn -0.004481435 0.99999 0
vn -0.004481435 0.99999 0
vn -0.004481435 0.99999 0
vn -0.004481435 0.99999 0
vn -0.004481435 0.99999 0
vn -0.004481435 0.99999 0
vn -0.004481435 0.99999 0
vn -0.004481435 0.99999 0
vn -0.004481435 0.99999 0
vn -0.004481435 0.99999 0
vn -0.004481435 0.99999 0
vn -0.004481435 0.99999 0
vn -0.004481435 0.99999 0
vn -0.004481435 0.99999 0
vn -0.004481435 0.99999 0
vn -0.004481435 0.99999 0
vn -0.004481435 0.99999 0
vn -0.004481435 0.99999 0
vn -0.004481435 0.99999 0
vn -0.004481435 0.99999 0
vn -0.004481435 0.99999 0
vn -0.004481435 0.99999 0
vn -0.004481435 0.99999 0
vn -0.004481435 0.99999 0
vn -0.004481435 0.99999 0
vn -0.004481435 0.99999 0
vn -0.004481435 0.99999 0
vn -0.004481435 0.99999 0
vn -0.004481435 0.99999 0
vn -0.004481435 0.99999 0
vn -0.004481435 0.99999 0
vn -0.004481435 0.99999 0
vn -0.004481435 0.99999 0
vn -0.004481435 0.99999 0
vn -0.004481435 0.99999 0
vn -0.004481435 0.99999 0
g eggs_0
f 3/3/3 2/2/2 1/1/1
f 4/4/4 3/3/3 1/1/1
f 7/7/7 6/6/6 5/5/5
f 8/8/8 7/7/7 5/5/5
f 11/11/11 10/10/10 9/9/9
f 12/12/12 11/11/11 9/9/9
f 15/15/15 14/14/14 13/13/13
f 16/16/16 15/15/15 13/13/13
f 19/19/19 18/18/18 17/17/17
f 20/20/20 19/19/19 17/17/17
f 23/23/23 22/22/22 21/21/21
f 24/24/24 23/23/23 21/21/21
f 27/27/27 26/26/26 25/25/25
f 28/28/28 27/27/27 25/25/25
f 31/31/31 30/30/30 29/29/29
f 32/32/32 31/31/31 29/29/29
f 35/35/35 34/34/34 33/33/33
f 36/36/36 35/35/35 33/33/33
f 39/39/39 38/38/38 37/37/37
f 40/40/40 39/39/39 37/37/37
f 43/43/43 42/42/42 41/41/41
f 44/44/44 43/43/43 41/41/41
f 47/47/47 46/46/46 45/45/45
f 48/48/48 47/47/47 45/45/45
f 51/51/51 50/50/50 49/49/49
f 52/52/52 51/51/51 49/49/49
f 55/55/55 54/54/54 53/53/53
f 56/56/56 55/55/55 53/53/53
f 59/59/59 58/58/58 57/57/57
f 60/60/60 59/59/59 57/57/57
f 63/63/63 62/62/62 61/61/61
f 64/64/64 63/63/63 61/61/61
f 67/67/67 66/66/66 65/65/65
f 68/68/68 67/67/67 65/65/65
f 71/71/71 70/70/70 69/69/69
f 72/72/72 71/71/71 69/69/69
f 75/75/75 74/74/74 73/73/73
f 76/76/76 75/75/75 73/73/73
f 79/79/79 78/78/78 77/77/77
f 80/80/80 79/79/79 77/77/77
f 83/83/83 82/82/82 81/81/81
f 81/81/81 82/82/82 84/84/84
f 85/85/85 82/82/82 83/83/83
f 84/84/84 82/82/82 86/86/86
f 87/87/87 82/82/82 85/85/85
f 86/86/86 82/82/82 88/88/88
f 89/89/89 82/82/82 87/87/87
f 88/88/88 82/82/82 90/90/90
f 91/91/91 82/82/82 89/89/89
f 90/90/90 82/82/82 91/91/91
f 94/94/94 93/93/93 92/92/92
f 92/92/92 93/93/93 95/95/95
f 96/96/96 93/93/93 94/94/94
f 95/95/95 93/93/93 97/97/97
f 98/98/98 93/93/93 96/96/96
f 97/97/97 93/93/93 99/99/99
f 100/100/100 93/93/93 98/98/98
f 99/99/99 93/93/93 101/101/101
f 102/102/102 93/93/93 100/100/100
f 101/101/101 93/93/93 102/102/102
f 105/105/105 104/104/104 103/103/103
f 103/103/103 104/104/104 106/106/106
f 107/107/107 105/105/105 103/103/103
f 104/104/104 108/108/108 106/106/106
f 109/109/109 105/105/105 107/107/107
f 106/106/106 108/108/108 110/110/110
f 111/111/111 109/109/109 107/107/107
f 108/108/108 112/112/112 110/110/110
f 113/113/113 109/109/109 111/111/111
f 110/110/110 112/112/112 114/114/114
f 115/115/115 113/113/113 111/111/111
f 112/112/112 116/116/116 114/114/114
f 117/117/117 113/113/113 115/115/115
f 114/114/114 116/116/116 118/118/118
f 119/119/119 117/117/117 115/115/115
f 116/116/116 120/120/120 118/118/118
f 121/121/121 117/117/117 119/119/119
f 118/118/118 120/120/120 122/122/122
f 122/122/122 121/121/121 119/119/119
f 120/120/120 121/121/121 122/122/122
f 125/125/125 124/124/124 123/123/123
f 123/123/123 124/124/124 126/126/126
f 127/127/127 125/125/125 123/123/123
f 124/124/124 128/128/128 126/126/126
f 129/129/129 125/125/125 127/127/127
f 126/126/126 128/128/128 130/130/130
f 131/131/131 129/129/129 127/127/127
f 128/128/128 132/132/132 130/130/130
f 133/133/133 129/129/129 131/131/131
f 130/130/130 132/132/132 134/134/134
f 135/135/135 133/133/133 131/131/131
f 132/132/132 136/136/136 134/134/134
f 137/137/137 133/133/133 135/135/135
f 134/134/134 136/136/136 138/138/138
f 139/139/139 137/137/137 135/135/135
f 136/136/136 140/140/140 138/138/138
f 141/141/141 137/137/137 139/139/139
f 138/138/138 140/140/140 142/142/142
f 142/142/142 141/141/141 139/139/139
f 140/140/140 141/141/141 142/142/142
