g Env_Seawall_Corner_03
v 0 -2.384186E-07 0
v -7.336009E-16 -1.460787E-07 -1.101282
v 1.101281 -1.407204E-07 -1.101282
v 1.101281 -2.384186E-07 -7.336005E-16
v 1.101281 -3 -1.101282
v 1.101281 -3 -7.336005E-16
v 1.101281 -2.384186E-07 -7.336005E-16
v 1.101281 -1.407204E-07 -1.101282
v 1.101281 -1.407204E-07 -1.101282
v -7.336009E-16 -1.460787E-07 -1.101282
v -7.336009E-16 -3 -1.101282
v 1.101281 -3 -1.101282
v 1.101281 -3 -1.101282
v 20 -3 -1.332268E-14
v 1.101281 -3 -7.336005E-16
v 20 -3 -20
v -7.336009E-16 -3 -1.101282
v -1.332268E-14 -3 -20
vt 0.3317535 0.4802037
vt 0.3317535 0.4802037
vt 0.3317535 0.4802037
vt 0.3317535 0.4802037
vt 0.2034164 0.475554
vt 0.2034164 0.4755541
vt 0.2034164 0.4755541
vt 0.2034164 0.475554
vt 0.2006649 0.4737216
vt 0.2006649 0.4737216
vt 0.2006649 0.4737216
vt 0.2006649 0.4737216
vt 0.3848194 0.3327481
vt 0.3848194 0.3327482
vt 0.3848194 0.3327481
vt 0.3848194 0.3327482
vt 0.3848194 0.3327481
vt 0.3848194 0.3327482
vn 0 1 0
vn 0 1 0
vn 0 1 0
vn 0 1 0
vn 1 0 0
vn 1 0 0
vn 1 0 0
vn 1 0 0
vn 0 0 -1
vn 0 0 -1
vn 0 0 -1
vn 0 0 -1
vn 0 1 0
vn 0 1 0
vn 0 1 0
vn 0 1 0
vn 0 1 0
vn 0 1 0
g Env_Seawall_Corner_03_0
f 3/3/3 2/2/2 1/1/1
f 4/4/4 3/3/3 1/1/1
f 7/7/7 6/6/6 5/5/5
f 8/8/8 7/7/7 5/5/5
f 11/11/11 10/10/10 9/9/9
f 12/12/12 11/11/11 9/9/9
f 15/15/15 14/14/14 13/13/13
f 14/14/14 16/16/16 13/13/13
f 13/13/13 16/16/16 17/17/17
f 16/16/16 18/18/18 17/17/17
