g fence
v -0.2538224 0.2359425 0.1108991
v -0.2538222 0.3882377 0.110899
v -0.8224735 0.3925356 0.05676212
v -0.8224736 0.2402403 0.05676213
v -0.6162547 0.5012785 0.04031626
v -0.6298627 1.111091 0.04223661
v -0.6298627 1.111091 -0.04223686
v -0.6162547 0.5012786 -0.04031636
v -0.7556133 0.5011695 0.0401449
v -0.7755076 1.096163 0.04227917
v -0.7026495 1.103641 0.08450942
v -0.6860827 0.5012266 0.08045998
v -0.6860827 0.5012265 -0.08046009
v -0.7026495 1.103641 -0.08450954
v -0.7755076 1.096163 -0.0422793
v -0.7556133 0.5011695 -0.04014499
v -0.6162547 0.5012786 -0.04031636
v -0.6298627 1.111091 -0.04223686
v -0.7026495 1.103641 -0.08450954
v -0.6860827 0.5012265 -0.08046009
v -0.6860827 0.5012266 0.08045998
v -0.7026495 1.103641 0.08450942
v -0.6298627 1.111091 0.04223661
v -0.6162547 0.5012785 0.04031626
v -0.7556133 0.5011695 -0.04014499
v -0.7755076 1.096163 -0.0422793
v -0.7755076 1.096163 0.04227917
v -0.7556133 0.5011695 0.0401449
v -0.7755076 1.096163 0.04227917
v -0.6298627 1.111091 0.04223661
v -0.7026495 1.103641 0.08450942
v -0.6298627 1.111091 -0.04223686
v -0.7755076 1.096163 -0.0422793
v -0.7026495 1.103641 -0.08450954
v -0.7730961 -0.0005950808 -0.0403272
v -0.7556133 0.5011695 -0.04014499
v -0.7556133 0.5011695 0.0401449
v -0.7730961 -0.0005950711 0.04032725
v -0.7032441 -7.638219E-06 0.08046025
v -0.6860827 0.5012266 0.08045998
v -0.6162547 0.5012785 0.04031626
v -0.6337193 0.0005912624 0.04013843
v -0.6337193 0.0005912526 -0.0401384
v -0.6162547 0.5012786 -0.04031636
v -0.6860827 0.5012265 -0.08046009
v -0.7032441 -7.65782E-06 -0.08046022
v -0.7032441 -7.65782E-06 -0.08046022
v -0.6860827 0.5012265 -0.08046009
v -0.7556133 0.5011695 -0.04014499
v -0.7730961 -0.0005950808 -0.0403272
v -0.7730961 -0.0005950711 0.04032725
v -0.7556133 0.5011695 0.0401449
v -0.6860827 0.5012266 0.08045998
v -0.7032441 -7.638219E-06 0.08046025
v -0.6337193 0.0005912624 0.04013843
v -0.6162547 0.5012785 0.04031626
v -0.6162547 0.5012786 -0.04031636
v -0.6337193 0.0005912526 -0.0401384
v 0.7849147 0.5011642 0.04019649
v 0.7966778 1.085004 0.04232626
v 0.7966778 1.085004 -0.04232651
v 0.7849147 0.5011643 -0.04019655
v 0.797075 -0.0004131651 0.04029672
v 0.797075 -0.0004131749 -0.0402967
v 0.6455849 0.5012405 0.0403142
v 0.6548801 1.122352 0.04218178
v 0.7256827 1.103821 0.08444934
v 0.7153533 0.5012171 0.08045944
v 0.6577073 0.0004113309 0.04016553
v 0.7272775 -3.681962E-06 0.08045961
v 0.7153533 0.5012171 -0.08045954
v 0.7256827 1.103821 -0.08444958
v 0.6548801 1.122352 -0.04218203
v 0.6455849 0.5012406 -0.04031427
v 0.7272775 -3.701562E-06 -0.0804596
v 0.6577073 0.0004113211 -0.04016548
v 0.7849147 0.5011643 -0.04019655
v 0.7966778 1.085004 -0.04232651
v 0.7256827 1.103821 -0.08444958
v 0.7153533 0.5012171 -0.08045954
v 0.797075 -0.0004131749 -0.0402967
v 0.7272775 -3.701562E-06 -0.0804596
v 0.7153533 0.5012171 0.08045944
v 0.7256827 1.103821 0.08444934
v 0.7966778 1.085004 0.04232626
v 0.7849147 0.5011642 0.04019649
v 0.7272775 -3.681962E-06 0.08045961
v 0.797075 -0.0004131651 0.04029672
v 0.6455849 0.5012406 -0.04031427
v 0.6548801 1.122352 -0.04218203
v 0.6548801 1.122352 0.04218178
v 0.6455849 0.5012405 0.0403142
v 0.6577073 0.0004113211 -0.04016548
v 0.6577073 0.0004113309 0.04016553
v 0.7256827 1.103821 -0.08444958
v 0.7966778 1.085004 -0.04232651
v 0.7966778 1.085004 0.04232626
v 0.7256827 1.103821 0.08444934
v 0.6548801 1.122352 -0.04218203
v 0.6548801 1.122352 0.04218178
v -0.2538224 0.2359425 0.1711559
v -0.8224736 0.2402403 0.117019
v -0.8224735 0.3925356 0.117019
v -0.2538221 0.3882377 0.1711559
v -0.2538224 0.2359425 0.1108991
v -0.2538224 0.2359425 0.1711559
v 0.7768128 0.2402402 0.1170189
v 0.7768128 0.2402402 0.05676205
v -0.8224735 0.3925356 0.05676212
v -0.8224735 0.3925356 0.117019
v -0.8224736 0.2402403 0.117019
v -0.8224736 0.2402403 0.05676213
v 0.7768128 0.2402402 0.05676205
v 0.7768128 0.2402402 0.1170189
v 0.7768128 0.3925355 0.1170188
v 0.7768128 0.3925354 0.05676202
v -0.2538222 0.3882377 0.110899
v -0.2538221 0.3882377 0.1711559
v -0.8224735 0.3925356 0.117019
v -0.8224735 0.3925356 0.05676212
v -0.2469124 0.8207988 0.04017854
v -0.2469122 0.9730942 0.04017854
v -0.821844 0.9559032 0.05676204
v -0.8218442 0.8036078 0.05676205
v -0.2469124 0.8207988 0.1004354
v -0.8218442 0.8036078 0.1170189
v -0.821844 0.9559032 0.1170189
v -0.2469122 0.9730942 0.1004354
v -0.2469124 0.8207988 0.04017854
v -0.2469124 0.8207988 0.1004354
v 0.8066033 0.8036077 0.1170188
v 0.8066033 0.8036077 0.056762
v -0.821844 0.9559032 0.05676204
v -0.821844 0.9559032 0.1170189
v -0.8218442 0.8036078 0.1170189
v -0.8218442 0.8036078 0.05676205
v 0.8066033 0.8036077 0.056762
v 0.8066033 0.8036077 0.1170188
v 0.8066034 0.955903 0.1170188
v 0.8066034 0.955903 0.05676192
v -0.2469122 0.9730942 0.04017854
v -0.2469122 0.9730942 0.1004354
v -0.821844 0.9559032 0.1170189
v -0.821844 0.9559032 0.05676204
v 0.1683458 0.522738 0.05676204
v -0.8206561 0.6750334 0.05676205
v -0.8206562 0.5227381 0.0567621
v 0.168346 0.6750334 0.05676206
v 0.8299251 0.541334 0.05676201
v 0.8299253 0.6936294 0.056762
v 0.1683458 0.522738 0.1170189
v -0.8206562 0.5227381 0.1170189
v -0.8206561 0.6750334 0.117019
v 0.1683461 0.6750334 0.1170189
v 0.8299251 0.541334 0.1170188
v 0.8299253 0.6936294 0.1170188
v 0.1683458 0.522738 0.05676204
v 0.8299251 0.541334 0.1170188
v 0.8299251 0.541334 0.05676201
v 0.1683458 0.522738 0.1170189
v -0.8206562 0.5227381 0.0567621
v -0.8206562 0.5227381 0.1170189
v -0.8206561 0.6750334 0.05676205
v -0.8206561 0.6750334 0.117019
v -0.8206562 0.5227381 0.1170189
v -0.8206562 0.5227381 0.0567621
v 0.8299251 0.541334 0.05676201
v 0.8299251 0.541334 0.1170188
v 0.8299253 0.6936294 0.1170188
v 0.8299253 0.6936294 0.056762
v 0.168346 0.6750334 0.05676206
v -0.8206561 0.6750334 0.117019
v -0.8206561 0.6750334 0.05676205
v 0.1683461 0.6750334 0.1170189
v 0.8299253 0.6936294 0.056762
v 0.8299253 0.6936294 0.1170188
v 0.8066034 0.955903 0.05676192
v 0.8066034 0.955903 0.1170188
v -0.2469122 0.9730942 0.1004354
v -0.2469122 0.9730942 0.04017854
v -0.8218442 0.8036078 0.05676205
v -0.8218442 0.8036078 0.1170189
v -0.2469124 0.8207988 0.1004354
v -0.2469124 0.8207988 0.04017854
v 0.8066033 0.8036077 0.1170188
v -0.2469124 0.8207988 0.1004354
v -0.2469122 0.9730942 0.1004354
v 0.8066034 0.955903 0.1170188
v 0.8066033 0.8036077 0.056762
v 0.8066034 0.955903 0.05676192
v -0.2469122 0.9730942 0.04017854
v -0.2469124 0.8207988 0.04017854
v 0.7768128 0.3925354 0.05676202
v 0.7768128 0.3925355 0.1170188
v -0.2538221 0.3882377 0.1711559
v -0.2538222 0.3882377 0.110899
v -0.8224736 0.2402403 0.05676213
v -0.8224736 0.2402403 0.117019
v -0.2538224 0.2359425 0.1711559
v -0.2538224 0.2359425 0.1108991
v 0.7768128 0.2402402 0.1170189
v -0.2538224 0.2359425 0.1711559
v -0.2538221 0.3882377 0.1711559
v 0.7768128 0.3925355 0.1170188
v 0.7768128 0.2402402 0.05676205
v 0.7768128 0.3925354 0.05676202
v -0.2538222 0.3882377 0.110899
v -0.2538224 0.2359425 0.1108991
vt 0.3215311 0.8330224
vt 0.3215414 0.8418492
vt 0.3547118 0.8416519
vt 0.3546186 0.8329991
vt 0.1827083 0.806258
vt 0.232529 0.8077827
vt 0.2327176 0.8008346
vt 0.1828585 0.799678
vt 0.1830828 0.779782
vt 0.2321234 0.7801396
vt 0.2326058 0.7732504
vt 0.1831416 0.7731473
vt 0.1829521 0.7930761
vt 0.2324093 0.7938882
vt 0.2320565 0.7869932
vt 0.1830279 0.7864379
vt 0.1828585 0.799678
vt 0.2327176 0.8008346
vt 0.2324093 0.7938882
vt 0.1829521 0.7930761
vt 0.1831416 0.7731473
vt 0.2326058 0.7732504
vt 0.233044 0.7663564
vt 0.1831797 0.7665517
vt 0.1830279 0.7864379
vt 0.2320565 0.7869932
vt 0.2321234 0.7801396
vt 0.1830828 0.779782
vt 0.4094438 0.8247232
vt 0.3974014 0.824393
vt 0.4033253 0.8280333
vt 0.39759 0.8174449
vt 0.4096325 0.817768
vt 0.4037025 0.8141311
vt 0.1417577 0.7859063
vt 0.1830279 0.7864379
vt 0.1830828 0.779782
vt 0.1418347 0.7793888
vt 0.142131 0.7728881
vt 0.1831416 0.7731473
vt 0.1831797 0.7665517
vt 0.1424116 0.7663563
vt 0.1420392 0.7989557
vt 0.1828585 0.799678
vt 0.1829521 0.7930761
vt 0.1419069 0.7924151
vt 0.1419069 0.7924151
vt 0.1829521 0.7930761
vt 0.1830279 0.7864379
vt 0.1417577 0.7859063
vt 0.1418347 0.7793888
vt 0.1830828 0.779782
vt 0.1831416 0.7731473
vt 0.142131 0.7728881
vt 0.1419187 0.8054917
vt 0.1827083 0.806258
vt 0.1828585 0.799678
vt 0.1420392 0.7989557
vt 0.1829597 0.8422167
vt 0.2309812 0.8423912
vt 0.2309896 0.8355038
vt 0.1829548 0.8355756
vt 0.1417577 0.8421775
vt 0.1417577 0.8356335
vt 0.1829354 0.8554326
vt 0.2337466 0.855946
vt 0.2323965 0.8491656
vt 0.1829587 0.8488382
vt 0.1420632 0.8552678
vt 0.1419162 0.8487138
vt 0.1829607 0.8289519
vt 0.2324182 0.8287315
vt 0.2337864 0.8219208
vt 0.182945 0.8223526
vt 0.1419114 0.8290982
vt 0.1420534 0.8225445
vt 0.1829548 0.8355756
vt 0.2309896 0.8355038
vt 0.2324182 0.8287315
vt 0.1829607 0.8289519
vt 0.1417577 0.8356335
vt 0.1419114 0.8290982
vt 0.1829587 0.8488382
vt 0.2323965 0.8491656
vt 0.2309812 0.8423912
vt 0.1829597 0.8422167
vt 0.1419162 0.8487138
vt 0.1417577 0.8421775
vt 0.182945 0.8223526
vt 0.2337864 0.8219208
vt 0.2337062 0.8150198
vt 0.1828945 0.8157626
vt 0.1420534 0.8225445
vt 0.1420217 0.8159601
vt 0.4046858 0.8419191
vt 0.4106538 0.8384036
vt 0.4105735 0.8314789
vt 0.4045254 0.828103
vt 0.3986588 0.8385311
vt 0.3985787 0.8316301
vt 0.3214379 0.8540067
vt 0.3543798 0.8541208
vt 0.3544129 0.8450562
vt 0.3214691 0.8453248
vt 0.3215088 0.8574806
vt 0.3214379 0.8540067
vt 0.2620245 0.8540201
vt 0.2618428 0.8574989
vt 0.3579994 0.8450693
vt 0.3544129 0.8450562
vt 0.3543798 0.8541208
vt 0.3579663 0.8541339
vt 0.2584572 0.8540248
vt 0.2620245 0.8540201
vt 0.2620126 0.8450041
vt 0.2584453 0.8450088
vt 0.3215414 0.8418492
vt 0.3214691 0.8453248
vt 0.3544129 0.8450562
vt 0.3547118 0.8416519
vt 0.3229662 0.8083395
vt 0.3228942 0.8171369
vt 0.356035 0.8171875
vt 0.356306 0.8083677
vt 0.3229789 0.8294527
vt 0.3563894 0.8293663
vt 0.356129 0.8206664
vt 0.3229161 0.8206118
vt 0.3229579 0.8329499
vt 0.3229789 0.8294527
vt 0.2618853 0.8293331
vt 0.261931 0.8327752
vt 0.3595711 0.8205634
vt 0.356129 0.8206664
vt 0.3563894 0.8293663
vt 0.3598316 0.8292633
vt 0.2584453 0.8292738
vt 0.2618853 0.8293331
vt 0.262035 0.8206389
vt 0.2585951 0.8205796
vt 0.3228942 0.8171369
vt 0.3229161 0.8206118
vt 0.356129 0.8206664
vt 0.356035 0.8171875
vt 0.3003434 0.7836865
vt 0.357435 0.7925797
vt 0.3574508 0.7838182
vt 0.300213 0.7925048
vt 0.2621526 0.7837407
vt 0.2619112 0.7924957
vt 0.3003256 0.8048119
vt 0.3574265 0.8048105
vt 0.3574311 0.7960489
vt 0.300209 0.7959945
vt 0.2621411 0.8047202
vt 0.2619095 0.7959647
vt 0.3003225 0.8082896
vt 0.2621411 0.8047202
vt 0.2621333 0.8082116
vt 0.3003256 0.8048119
vt 0.3574265 0.8082896
vt 0.3574265 0.8048105
vt 0.3608977 0.7960507
vt 0.3574311 0.7960489
vt 0.3574265 0.8048105
vt 0.360893 0.8048124
vt 0.258677 0.8048118
vt 0.2621411 0.8047202
vt 0.2619095 0.7959647
vt 0.2584453 0.7960563
vt 0.300213 0.7925048
vt 0.3574311 0.7960489
vt 0.357435 0.7925797
vt 0.300209 0.7959945
vt 0.2619112 0.7924957
vt 0.2619095 0.7959647
vt 0.2620887 0.8171564
vt 0.262035 0.8206389
vt 0.3229161 0.8206118
vt 0.3228942 0.8171369
vt 0.3563015 0.8328116
vt 0.3563894 0.8293663
vt 0.3229789 0.8294527
vt 0.3229579 0.8329499
vt 0.2618853 0.8293331
vt 0.3229789 0.8294527
vt 0.3229161 0.8206118
vt 0.262035 0.8206389
vt 0.261945 0.8083387
vt 0.2620887 0.8171564
vt 0.3228942 0.8171369
vt 0.3229662 0.8083395
vt 0.2618498 0.8416063
vt 0.2620126 0.8450041
vt 0.3214691 0.8453248
vt 0.3215414 0.8418492
vt 0.3546983 0.8576073
vt 0.3543798 0.8541208
vt 0.3214379 0.8540067
vt 0.3215088 0.8574806
vt 0.2620245 0.8540201
vt 0.3214379 0.8540067
vt 0.3214691 0.8453248
vt 0.2620126 0.8450041
vt 0.2619022 0.8329991
vt 0.2618498 0.8416063
vt 0.3215414 0.8418492
vt 0.3215311 0.8330224
vn 0.09477382 -2.99755E-07 -0.9954988
vn 0.09477382 -2.99755E-07 -0.9954988
vn 0.09477382 -2.99755E-07 -0.9954988
vn 0.09477382 -2.99755E-07 -0.9954988
vn 0.9997512 0.02230949 0
vn 0.9997512 0.02230949 0
vn 0.9997512 0.02230949 0
vn 0.9997512 0.02230949 0
vn -0.500657 -0.01971425 0.8654213
vn -0.500657 -0.01971425 0.8654213
vn -0.500657 -0.01971425 0.8654213
vn -0.500657 -0.01971425 0.8654213
vn -0.5006572 -0.0197143 -0.8654211
vn -0.5006572 -0.0197143 -0.8654211
vn -0.5006572 -0.0197143 -0.8654211
vn -0.5006572 -0.0197143 -0.8654211
vn 0.5000146 0.008181617 -0.8659784
vn 0.5000146 0.008181617 -0.8659784
vn 0.5000146 0.008181617 -0.8659784
vn 0.5000146 0.008181617 -0.8659784
vn 0.5000151 0.008181744 0.8659781
vn 0.5000151 0.008181744 0.8659781
vn 0.5000151 0.008181744 0.8659781
vn 0.5000151 0.008181744 0.8659781
vn -0.9994414 -0.03341739 0
vn -0.9994414 -0.03341739 0
vn -0.9994414 -0.03341739 0
vn -0.9994414 -0.03341739 0
vn -0.1019583 0.9947886 -8.091676E-05
vn -0.1019583 0.9947886 -8.091676E-05
vn -0.1019583 0.9947886 -8.091676E-05
vn -0.1019583 0.9947886 -8.091676E-05
vn -0.1019587 0.9947886 8.086256E-05
vn -0.1019587 0.9947886 8.086256E-05
vn -0.9993936 0.03482154 0
vn -0.9993936 0.03482154 0
vn -0.9993936 0.03482154 0
vn -0.9993936 0.03482154 0
vn 0.5000328 -0.01743439 0.8658309
vn 0.5000328 -0.01743439 0.8658309
vn 0.5000328 -0.01743439 0.8658309
vn 0.5000328 -0.01743439 0.8658309
vn 0.5000328 -0.01743465 -0.8658309
vn 0.5000328 -0.01743465 -0.8658309
vn 0.5000328 -0.01743465 -0.8658309
vn 0.5000328 -0.01743465 -0.8658309
vn -0.4998703 0.01742327 -0.865925
vn -0.4998703 0.01742327 -0.865925
vn -0.4998703 0.01742327 -0.865925
vn -0.4998703 0.01742327 -0.865925
vn -0.4998704 0.01742351 0.865925
vn -0.4998704 0.01742351 0.865925
vn -0.4998704 0.01742351 0.865925
vn -0.4998704 0.01742351 0.865925
vn 0.9993923 -0.03486013 3.43826E-07
vn 0.9993923 -0.03486013 3.43826E-07
vn 0.9993923 -0.03486013 3.43826E-07
vn 0.9993923 -0.03486013 3.43826E-07
vn 0.9997972 -0.02014373 0
vn 0.9997972 -0.02014373 0
vn 0.9997972 -0.02014373 0
vn 0.9997972 -0.02014373 0
vn 0.9997062 0.02423688 -4.20504E-07
vn 0.9997062 0.02423688 -4.20504E-07
vn -0.5053667 0.003974167 0.8628955
vn -0.5053667 0.003974167 0.8628955
vn -0.5053667 0.003974167 0.8628955
vn -0.5053667 0.003974167 0.8628955
vn -0.4999553 -0.01212593 0.8659663
vn -0.4999553 -0.01212593 0.8659663
vn -0.5053672 0.003973936 -0.8628953
vn -0.5053672 0.003973936 -0.8628953
vn -0.5053672 0.003973936 -0.8628953
vn -0.5053672 0.003973936 -0.8628953
vn -0.4999557 -0.01212615 -0.8659661
vn -0.4999557 -0.01212615 -0.8659661
vn 0.5042453 -0.01384335 -0.8634495
vn 0.5042453 -0.01384335 -0.8634495
vn 0.5042453 -0.01384335 -0.8634495
vn 0.5042453 -0.01384335 -0.8634495
vn 0.4998396 0.01209131 -0.8660336
vn 0.4998396 0.01209131 -0.8660336
vn 0.5042451 -0.0138431 0.8634496
vn 0.5042451 -0.0138431 0.8634496
vn 0.5042451 -0.0138431 0.8634496
vn 0.5042451 -0.0138431 0.8634496
vn 0.499839 0.01209147 0.8660339
vn 0.499839 0.01209147 0.8660339
vn -0.9998881 0.0149637 0
vn -0.9998881 0.0149637 0
vn -0.9998881 0.0149637 0
vn -0.9998881 0.0149637 0
vn -0.9997072 -0.02419744 2.152252E-07
vn -0.9997072 -0.02419744 2.152252E-07
vn 0.2562016 0.9666234 0
vn 0.2562016 0.9666234 0
vn 0.2562016 0.9666234 0
vn 0.2562016 0.9666234 0
vn 0.2531976 0.9674146 0
vn 0.2531976 0.9674146 0
vn -0.09477379 2.678693E-07 0.9954988
vn -0.09477379 2.678693E-07 0.9954988
vn -0.09477379 2.678693E-07 0.9954988
vn -0.09477379 2.678693E-07 0.9954988
vn 0.004169909 -0.9999913 0
vn 0.004169909 -0.9999913 0
vn 0.004169909 -0.9999913 0
vn 0.004169909 -0.9999913 0
vn -1 7.827509E-07 0
vn -1 7.827509E-07 0
vn -1 7.827509E-07 0
vn -1 7.827509E-07 0
vn 1 0 8.118902E-07
vn 1 0 8.118902E-07
vn 1 0 8.118902E-07
vn 1 0 8.118902E-07
vn 0.007557803 0.9999715 2.378172E-07
vn 0.007557803 0.9999715 2.378172E-07
vn 0.007557803 0.9999715 2.378172E-07
vn 0.007557803 0.9999715 2.378172E-07
vn -0.02883229 0 -0.9995843
vn -0.02883229 0 -0.9995843
vn -0.02883229 0 -0.9995843
vn -0.02883229 0 -0.9995843
vn 0.02883229 0 0.9995843
vn 0.02883229 0 0.9995843
vn 0.02883229 0 0.9995843
vn 0.02883229 0 0.9995843
vn -0.01631567 -0.9998668 0
vn -0.01631567 -0.9998668 0
vn -0.01631567 -0.9998668 0
vn -0.01631567 -0.9998668 0
vn -1 7.827508E-07 0
vn -1 7.827508E-07 0
vn -1 7.827508E-07 0
vn -1 7.827508E-07 0
vn 1 -7.827503E-07 0
vn 1 -7.827503E-07 0
vn 1 -7.827503E-07 0
vn 1 -7.827503E-07 0
vn -0.02988751 0.9995533 0
vn -0.02988751 0.9995533 0
vn -0.02988751 0.9995533 0
vn -0.02988751 0.9995533 0
vn 0 0 -1
vn 0 0 -1
vn 0 0 -1
vn 0 0 -1
vn 0 0 -1
vn 0 0 -1
vn 0 0 1
vn 0 0 1
vn 0 0 1
vn 0 0 1
vn 0 0 1
vn 0 0 1
vn 0.02809739 -0.9996052 0
vn 0.02809739 -0.9996052 0
vn 0.02809739 -0.9996052 0
vn 0.02809739 -0.9996052 0
vn 0 -1 0
vn 0 -1 0
vn -1 1.174126E-06 0
vn -1 1.174126E-06 0
vn -1 1.174126E-06 0
vn -1 1.174126E-06 0
vn 1 -1.565501E-06 0
vn 1 -1.565501E-06 0
vn 1 -1.565501E-06 0
vn 1 -1.565501E-06 0
vn 0 1 0
vn 0 1 0
vn 0 1 0
vn 0 1 0
vn -0.02809743 0.9996052 0
vn -0.02809743 0.9996052 0
vn 0.01631561 0.9998668 0
vn 0.01631561 0.9998668 0
vn 0.01631561 0.9998668 0
vn 0.01631561 0.9998668 0
vn 0.02988749 -0.9995533 0
vn 0.02988749 -0.9995533 0
vn 0.02988749 -0.9995533 0
vn 0.02988749 -0.9995533 0
vn -0.01573909 0 0.9998761
vn -0.01573909 0 0.9998761
vn -0.01573909 0 0.9998761
vn -0.01573909 0 0.9998761
vn 0.01573907 -3.018019E-07 -0.9998761
vn 0.01573907 -3.018019E-07 -0.9998761
vn 0.01573907 -3.018019E-07 -0.9998761
vn 0.01573907 -3.018019E-07 -0.9998761
vn -0.00416997 0.9999913 0
vn -0.00416997 0.9999913 0
vn -0.00416997 0.9999913 0
vn -0.00416997 0.9999913 0
vn -0.00755767 -0.9999715 -1.155112E-07
vn -0.00755767 -0.9999715 -1.155112E-07
vn -0.00755767 -0.9999715 -1.155112E-07
vn -0.00755767 -0.9999715 -1.155112E-07
vn 0.0524555 2.468545E-07 0.9986233
vn 0.0524555 2.468545E-07 0.9986233
vn 0.0524555 2.468545E-07 0.9986233
vn 0.0524555 2.468545E-07 0.9986233
vn -0.05245549 -1.422072E-07 -0.9986233
vn -0.05245549 -1.422072E-07 -0.9986233
vn -0.05245549 -1.422072E-07 -0.9986233
vn -0.05245549 -1.422072E-07 -0.9986233
g fence_0
f 3/3/3 2/2/2 1/1/1
f 4/4/4 3/3/3 1/1/1
f 7/7/7 6/6/6 5/5/5
f 8/8/8 7/7/7 5/5/5
f 11/11/11 10/10/10 9/9/9
f 12/12/12 11/11/11 9/9/9
f 15/15/15 14/14/14 13/13/13
f 16/16/16 15/15/15 13/13/13
f 19/19/19 18/18/18 17/17/17
f 20/20/20 19/19/19 17/17/17
f 23/23/23 22/22/22 21/21/21
f 24/24/24 23/23/23 21/21/21
f 27/27/27 26/26/26 25/25/25
f 28/28/28 27/27/27 25/25/25
f 31/31/31 30/30/30 29/29/29
f 30/30/30 32/32/32 29/29/29
f 29/29/29 32/32/32 33/33/33
f 32/32/32 34/34/34 33/33/33
f 37/37/37 36/36/36 35/35/35
f 38/38/38 37/37/37 35/35/35
f 41/41/41 40/40/40 39/39/39
f 42/42/42 41/41/41 39/39/39
f 45/45/45 44/44/44 43/43/43
f 46/46/46 45/45/45 43/43/43
f 49/49/49 48/48/48 47/47/47
f 50/50/50 49/49/49 47/47/47
f 53/53/53 52/52/52 51/51/51
f 54/54/54 53/53/53 51/51/51
f 57/57/57 56/56/56 55/55/55
f 58/58/58 57/57/57 55/55/55
f 61/61/61 60/60/60 59/59/59
f 62/62/62 61/61/61 59/59/59
f 62/62/62 59/59/59 63/63/63
f 64/64/64 62/62/62 63/63/63
f 67/67/67 66/66/66 65/65/65
f 68/68/68 67/67/67 65/65/65
f 68/68/68 65/65/65 69/69/69
f 70/70/70 68/68/68 69/69/69
f 73/73/73 72/72/72 71/71/71
f 74/74/74 73/73/73 71/71/71
f 74/74/74 71/71/71 75/75/75
f 76/76/76 74/74/74 75/75/75
f 79/79/79 78/78/78 77/77/77
f 80/80/80 79/79/79 77/77/77
f 80/80/80 77/77/77 81/81/81
f 82/82/82 80/80/80 81/81/81
f 85/85/85 84/84/84 83/83/83
f 86/86/86 85/85/85 83/83/83
f 86/86/86 83/83/83 87/87/87
f 88/88/88 86/86/86 87/87/87
f 91/91/91 90/90/90 89/89/89
f 92/92/92 91/91/91 89/89/89
f 92/92/92 89/89/89 93/93/93
f 94/94/94 92/92/92 93/93/93
f 97/97/97 96/96/96 95/95/95
f 98/98/98 97/97/97 95/95/95
f 98/98/98 95/95/95 99/99/99
f 100/100/100 98/98/98 99/99/99
f 103/103/103 102/102/102 101/101/101
f 104/104/104 103/103/103 101/101/101
f 107/107/107 106/106/106 105/105/105
f 108/108/108 107/107/107 105/105/105
f 111/111/111 110/110/110 109/109/109
f 112/112/112 111/111/111 109/109/109
f 115/115/115 114/114/114 113/113/113
f 116/116/116 115/115/115 113/113/113
f 119/119/119 118/118/118 117/117/117
f 120/120/120 119/119/119 117/117/117
f 123/123/123 122/122/122 121/121/121
f 124/124/124 123/123/123 121/121/121
f 127/127/127 126/126/126 125/125/125
f 128/128/128 127/127/127 125/125/125
f 131/131/131 130/130/130 129/129/129
f 132/132/132 131/131/131 129/129/129
f 135/135/135 134/134/134 133/133/133
f 136/136/136 135/135/135 133/133/133
f 139/139/139 138/138/138 137/137/137
f 140/140/140 139/139/139 137/137/137
f 143/143/143 142/142/142 141/141/141
f 144/144/144 143/143/143 141/141/141
f 147/147/147 146/146/146 145/145/145
f 146/146/146 148/148/148 145/145/145
f 145/145/145 148/148/148 149/149/149
f 148/148/148 150/150/150 149/149/149
f 153/153/153 152/152/152 151/151/151
f 154/154/154 153/153/153 151/151/151
f 154/154/154 151/151/151 155/155/155
f 156/156/156 154/154/154 155/155/155
f 159/159/159 158/158/158 157/157/157
f 158/158/158 160/160/160 157/157/157
f 157/157/157 160/160/160 161/161/161
f 160/160/160 162/162/162 161/161/161
f 165/165/165 164/164/164 163/163/163
f 166/166/166 165/165/165 163/163/163
f 169/169/169 168/168/168 167/167/167
f 170/170/170 169/169/169 167/167/167
f 173/173/173 172/172/172 171/171/171
f 172/172/172 174/174/174 171/171/171
f 171/171/171 174/174/174 175/175/175
f 174/174/174 176/176/176 175/175/175
f 179/179/179 178/178/178 177/177/177
f 180/180/180 179/179/179 177/177/177
f 183/183/183 182/182/182 181/181/181
f 184/184/184 183/183/183 181/181/181
f 187/187/187 186/186/186 185/185/185
f 188/188/188 187/187/187 185/185/185
f 191/191/191 190/190/190 189/189/189
f 192/192/192 191/191/191 189/189/189
f 195/195/195 194/194/194 193/193/193
f 196/196/196 195/195/195 193/193/193
f 199/199/199 198/198/198 197/197/197
f 200/200/200 199/199/199 197/197/197
f 203/203/203 202/202/202 201/201/201
f 204/204/204 203/203/203 201/201/201
f 207/207/207 206/206/206 205/205/205
f 208/208/208 207/207/207 205/205/205
