g frame
v -0.5509923 -0.0134961 0.3385757
v -0.5509923 0.005281091 0.3385757
v 0.5509923 0.005281091 0.3385757
v 0.5509923 -0.0134961 0.3385757
v -0.5509923 0.005281091 0.3385757
v -0.5509923 0.005281091 -0.3244928
v 0.5509923 0.005281091 -0.3244928
v 0.5509923 0.005281091 0.3385757
v -0.5509923 0.005281091 -0.3244928
v -0.5509923 -0.0134961 -0.3244928
v 0.5509923 -0.0134961 -0.3244928
v 0.5509923 0.005281091 -0.3244928
v -0.5509923 -0.0134961 -0.3244928
v -0.5509923 -0.0134961 0.3385757
v 0.5509923 -0.0134961 0.3385757
v 0.5509923 -0.0134961 -0.3244928
v 0.5509923 -0.0134961 0.3385757
v 0.5509923 0.005281091 0.3385757
v 0.5509923 0.005281091 -0.3244928
v 0.5509923 -0.0134961 -0.3244928
v -0.5509923 -0.0134961 -0.3244928
v -0.5509923 0.005281091 -0.3244928
v -0.5509923 0.005281091 0.3385757
v -0.5509923 -0.0134961 0.3385757
v -0.6002824 -0.263467 -0.3503114
v -0.6002824 -0.2998478 -0.3503114
v -0.5498187 -0.2998478 -0.3503114
v -0.5498187 -0.263467 -0.3503114
v 0.5498188 -0.2998478 -0.3503114
v -0.5498187 0.263467 -0.3503114
v -0.6002824 0.263467 -0.3503114
v -0.6002824 0.2998478 -0.3503114
v -0.5498187 0.2998478 -0.3503114
v 0.5498188 0.263467 -0.3503114
v 0.5498188 0.2998478 -0.3503114
v 0.5498188 -0.263467 -0.3503114
v 0.6002824 0.263467 -0.3503114
v 0.6002824 0.2998478 -0.3503114
v 0.6002824 -0.263467 -0.3503114
v 0.6002824 -0.2998478 -0.3503114
v 0.5498188 -0.2998478 0.3503114
v 0.6002824 -0.263467 0.3503114
v 0.6002824 -0.2998478 0.3503114
v 0.5498188 -0.263467 0.3503114
v -0.5498187 -0.2998478 0.3503114
v 0.5498188 0.263467 0.3503114
v -0.5498187 -0.263467 0.3503114
v 0.6002824 0.263467 0.3503114
v 0.6002824 0.2998478 0.3503114
v 0.5498188 0.2998478 0.3503114
v -0.6002824 -0.2998478 0.3503114
v -0.6002824 -0.263467 0.3503114
v -0.5498187 0.263467 0.3503114
v -0.6002824 0.263467 0.3503114
v -0.5498187 0.2998478 0.3503114
v -0.6002824 0.2998478 0.3503114
v -0.6002824 -0.2998478 0.2975006
v -0.6002824 -0.2998478 0.3503114
v -0.5498187 -0.2998478 0.3503114
v -0.5498187 -0.2998478 0.2975006
v 0.5498188 -0.2998478 0.3503114
v -0.5498187 -0.2998478 -0.2975006
v -0.6002824 -0.2998478 -0.2975006
v -0.6002824 -0.2998478 -0.3503114
v -0.5498187 -0.2998478 -0.3503114
v 0.5498188 -0.2998478 -0.2975006
v 0.5498188 -0.2998478 -0.3503114
v 0.5498188 -0.2998478 0.2975006
v 0.6002824 -0.2998478 -0.2975006
v 0.6002824 -0.2998478 -0.3503114
v 0.6002824 -0.2998478 0.2975006
v 0.6002824 -0.2998478 0.3503114
v -0.6002824 -0.2998478 0.2975006
v -0.6002824 -0.263467 0.3503114
v -0.6002824 -0.2998478 0.3503114
v -0.6002824 -0.263467 0.2975006
v -0.6002824 -0.2998478 -0.2975006
v -0.6002824 0.263467 0.2975006
v -0.6002824 -0.263467 -0.2975006
v -0.6002824 0.263467 0.3503114
v -0.6002824 0.2998478 0.3503114
v -0.6002824 0.2998478 0.2975006
v -0.6002824 -0.2998478 -0.3503114
v -0.6002824 -0.263467 -0.3503114
v -0.6002824 0.263467 -0.2975006
v -0.6002824 0.263467 -0.3503114
v -0.6002824 0.2998478 -0.2975006
v -0.6002824 0.2998478 -0.3503114
v 0.6002824 0.263467 0.3503114
v 0.6002824 0.2998478 0.3503114
v 0.6002824 0.2998478 0.2975006
v 0.6002824 0.263467 0.2975006
v 0.6002824 0.2998478 -0.2975006
v 0.6002824 -0.263467 0.2975006
v 0.6002824 -0.263467 0.3503114
v 0.6002824 -0.2998478 0.3503114
v 0.6002824 -0.2998478 0.2975006
v 0.6002824 -0.263467 -0.2975006
v 0.6002824 -0.2998478 -0.2975006
v 0.6002824 -0.2998478 -0.3503114
v 0.6002824 -0.263467 -0.3503114
v 0.6002824 0.263467 -0.2975006
v 0.6002824 0.263467 -0.3503114
v 0.6002824 0.2998478 -0.3503114
v 0.5498188 0.2998478 -0.3503114
v 0.6002824 0.2998478 -0.3503114
v 0.6002824 0.2998478 -0.2975006
v 0.5498188 0.2998478 -0.2975006
v 0.6002824 0.2998478 0.2975006
v -0.5498187 0.2998478 -0.2975006
v 0.5498188 0.2998478 0.2975006
v 0.6002824 0.2998478 0.3503114
v 0.5498188 0.2998478 0.3503114
v -0.5498187 0.2998478 0.3503114
v -0.5498187 0.2998478 0.2975006
v -0.6002824 0.2998478 0.3503114
v -0.6002824 0.2998478 0.2975006
v -0.6002824 0.2998478 -0.2975006
v -0.5498187 0.2998478 -0.3503114
v -0.6002824 0.2998478 -0.3503114
v -0.5498187 -0.2998478 0.2975006
v -0.5498187 -0.263467 0.2975006
v -0.5498187 -0.263467 -0.2975006
v -0.5498187 -0.2998478 -0.2975006
v -0.5498187 -0.2998478 -0.2975006
v -0.5498187 -0.263467 -0.2975006
v 0.5498188 -0.263467 -0.2975006
v 0.5498188 -0.2998478 -0.2975006
v 0.5498188 -0.2998478 -0.2975006
v 0.5498188 -0.263467 -0.2975006
v 0.5498188 -0.263467 0.2975006
v 0.5498188 -0.2998478 0.2975006
v 0.5498188 -0.2998478 0.2975006
v 0.5498188 -0.263467 0.2975006
v -0.5498187 -0.263467 0.2975006
v -0.5498187 -0.2998478 0.2975006
v -0.5498187 0.2998478 -0.2975006
v -0.5498187 0.2646406 -0.2975006
v -0.5498187 0.2646406 0.2975006
v -0.5498187 0.2998478 0.2975006
v 0.5498188 0.2998478 0.2975006
v 0.5498188 0.2646406 0.2975006
v 0.5498188 0.2646406 -0.2975006
v 0.5498188 0.2998478 -0.2975006
v 0.5498188 0.2998478 -0.2975006
v -0.5498187 0.2646406 -0.2975006
v -0.5498187 0.2998478 -0.2975006
v 0.5498188 0.2646406 -0.2975006
v 0.6002824 0.263467 -0.2975006
v 0.5498188 -0.263467 -0.2975006
v 0.6002824 -0.263467 -0.2975006
v -0.6002824 0.263467 -0.2975006
v -0.5498187 -0.263467 -0.2975006
v -0.6002824 -0.263467 -0.2975006
v -0.5498187 0.2998478 0.2975006
v -0.5498187 0.2646406 0.2975006
v 0.5498188 0.2646406 0.2975006
v 0.5498188 0.2998478 0.2975006
v -0.6002824 -0.263467 -0.2975006
v -0.5498187 -0.263467 -0.2975006
v -0.5498187 -0.263467 0.2975006
v -0.6002824 -0.263467 0.2975006
v -0.5498187 -0.263467 0.3503114
v -0.5498187 -0.263467 0.2975006
v 0.5498188 -0.263467 0.2975006
v 0.5498188 -0.263467 0.3503114
v -0.6002824 0.263467 0.2975006
v -0.5498187 0.2646406 0.2975006
v -0.5498187 0.2646406 -0.2975006
v -0.6002824 0.263467 -0.2975006
v 0.5498188 0.263467 0.3503114
v 0.5498188 0.2646406 0.2975006
v -0.5498187 0.2646406 0.2975006
v -0.5498187 0.263467 0.3503114
v -0.5498187 -0.263467 0.2975006
v -0.5498187 0.2646406 0.2975006
v -0.6002824 0.263467 0.2975006
v -0.6002824 -0.263467 0.2975006
v -0.5498187 0.263467 0.3503114
v -0.5498187 0.2646406 0.2975006
v -0.5498187 -0.263467 0.2975006
v -0.5498187 -0.263467 0.3503114
v 0.5498188 -0.263467 -0.3503114
v 0.5498188 -0.263467 -0.2975006
v -0.5498187 -0.263467 -0.2975006
v -0.5498187 -0.263467 -0.3503114
v -0.5498187 0.263467 -0.3503114
v -0.5498187 0.2646406 -0.2975006
v 0.5498188 0.2646406 -0.2975006
v 0.5498188 0.263467 -0.3503114
v 0.6002824 0.263467 -0.2975006
v 0.5498188 0.2646406 -0.2975006
v 0.5498188 0.2646406 0.2975006
v 0.6002824 0.263467 0.2975006
v 0.6002824 -0.263467 0.2975006
v 0.5498188 -0.263467 0.2975006
v 0.5498188 -0.263467 -0.2975006
v 0.6002824 -0.263467 -0.2975006
v 0.5498188 -0.263467 0.2975006
v 0.5498188 0.2646406 0.2975006
v 0.5498188 0.263467 0.3503114
v 0.5498188 -0.263467 0.3503114
v 0.5498188 0.263467 -0.3503114
v 0.5498188 0.2646406 -0.2975006
v 0.5498188 -0.263467 -0.2975006
v 0.5498188 -0.263467 -0.3503114
v -0.5498187 -0.263467 -0.2975006
v -0.5498187 0.2646406 -0.2975006
v -0.5498187 0.263467 -0.3503114
v -0.5498187 -0.263467 -0.3503114
vt 0.8849744 0.8595268
vt 0.8849744 0.8687805
vt 0.8942281 0.8687805
vt 0.8942281 0.8595268
vt 0.8849744 0.8687805
vt 0.8849744 0.8780341
vt 0.8942281 0.8780341
vt 0.8942281 0.8687805
vt 0.8849744 0.8780341
vt 0.8849744 0.8872879
vt 0.8942281 0.8872879
vt 0.8942281 0.8780341
vt 0.8849744 0.8872879
vt 0.8849744 0.8965415
vt 0.8942281 0.8965415
vt 0.8942281 0.8872879
vt 0.8942281 0.8595268
vt 0.8942281 0.8687805
vt 0.9034817 0.8687805
vt 0.9034817 0.8595268
vt 0.8757207 0.8595268
vt 0.8757207 0.8687805
vt 0.8849744 0.8687805
vt 0.8849744 0.8595268
vt 0.7774004 0.631655
vt 0.7774004 0.631655
vt 0.7774004 0.631655
vt 0.7774004 0.631655
vt 0.7843407 0.631655
vt 0.7774004 0.6247148
vt 0.7774004 0.6247148
vt 0.7774004 0.6235581
vt 0.7774004 0.6235581
vt 0.7843407 0.6247148
vt 0.7843407 0.6235581
vt 0.7843407 0.631655
vt 0.7843407 0.6247148
vt 0.7843407 0.6235581
vt 0.7843407 0.631655
vt 0.7843407 0.631655
vt 0.7843407 0.6085209
vt 0.7843407 0.6085209
vt 0.7843407 0.6085209
vt 0.7843407 0.6085209
vt 0.7774004 0.6085209
vt 0.7843407 0.6154611
vt 0.7774004 0.6085209
vt 0.7843407 0.6154611
vt 0.7843407 0.6166179
vt 0.7843407 0.6166179
vt 0.7774004 0.6085209
vt 0.7774004 0.6085209
vt 0.7774004 0.6154611
vt 0.7774004 0.6154611
vt 0.7774004 0.6166179
vt 0.7774004 0.6166179
vt 0.7774004 0.6385953
vt 0.7774004 0.639752
vt 0.7774004 0.639752
vt 0.7774004 0.6385953
vt 0.7843407 0.639752
vt 0.7774004 0.631655
vt 0.7774004 0.631655
vt 0.7774004 0.631655
vt 0.7774004 0.631655
vt 0.7843407 0.631655
vt 0.7843407 0.631655
vt 0.7843407 0.6385953
vt 0.7843407 0.631655
vt 0.7843407 0.631655
vt 0.7843407 0.6385953
vt 0.7843407 0.639752
vt 0.7762437 0.6085209
vt 0.7774004 0.6085209
vt 0.7774004 0.6085209
vt 0.7762437 0.6085209
vt 0.7704602 0.6085209
vt 0.7762437 0.6154611
vt 0.7704602 0.6085209
vt 0.7774004 0.6154611
vt 0.7774004 0.6166179
vt 0.7762437 0.6166179
vt 0.7693034 0.6085209
vt 0.7693034 0.6085209
vt 0.7704602 0.6154611
vt 0.7693034 0.6154611
vt 0.7704602 0.6166179
vt 0.7693034 0.6166179
vt 0.7843407 0.6154611
vt 0.7843407 0.6166179
vt 0.7854974 0.6166179
vt 0.7854974 0.6154611
vt 0.791281 0.6166179
vt 0.7854974 0.6085209
vt 0.7843407 0.6085209
vt 0.7843407 0.6085209
vt 0.7854974 0.6085209
vt 0.791281 0.6085209
vt 0.791281 0.6085209
vt 0.7924377 0.6085209
vt 0.7924377 0.6085209
vt 0.791281 0.6154611
vt 0.7924377 0.6154611
vt 0.7924377 0.6166179
vt 0.7843407 0.6235581
vt 0.7843407 0.6235581
vt 0.7843407 0.6235581
vt 0.7843407 0.6235581
vt 0.7843407 0.6166179
vt 0.7774004 0.6235581
vt 0.7843407 0.6166179
vt 0.7843407 0.6166179
vt 0.7843407 0.6166179
vt 0.7774004 0.6166179
vt 0.7774004 0.6166179
vt 0.7774004 0.6166179
vt 0.7774004 0.6166179
vt 0.7774004 0.6235581
vt 0.7774004 0.6235581
vt 0.7774004 0.6235581
vt 0.7658334 0.6085209
vt 0.7808706 0.639752
vt 0.7808706 0.639752
vt 0.7959078 0.6085209
vt 0.7658334 0.6085209
vt 0.7808706 0.639752
vt 0.7808706 0.639752
vt 0.7959078 0.6085209
vt 0.7658334 0.6085209
vt 0.7808706 0.639752
vt 0.7959078 0.639752
vt 0.7959078 0.6085209
vt 0.7658334 0.6085209
vt 0.7658334 0.639752
vt 0.7808706 0.639752
vt 0.7959078 0.6085209
vt 0.7658334 0.6085209
vt 0.7808706 0.639752
vt 0.7808706 0.639752
vt 0.7959078 0.6085209
vt 0.7658334 0.6085209
vt 0.7658334 0.639752
vt 0.7808706 0.639752
vt 0.7959078 0.6085209
vt 0.7658334 0.6085209
vt 0.7808706 0.639752
vt 0.7959078 0.6085209
vt 0.7808706 0.639752
vt 0.791281 0.6154611
vt 0.7808706 0.639752
vt 0.791281 0.6085209
vt 0.7704602 0.6154611
vt 0.7808706 0.639752
vt 0.7704602 0.6085209
vt 0.7658334 0.6085209
vt 0.7808706 0.639752
vt 0.7959078 0.639752
vt 0.7959078 0.6085209
vt 0.7704602 0.6085209
vt 0.7808706 0.639752
vt 0.7808706 0.639752
vt 0.7762437 0.6085209
vt 0.7774004 0.6085209
vt 0.7808706 0.639752
vt 0.7658334 0.639752
vt 0.7843407 0.6085209
vt 0.7762437 0.6154611
vt 0.7808706 0.639752
vt 0.7808706 0.639752
vt 0.7704602 0.6154611
vt 0.7843407 0.6154611
vt 0.7959078 0.639752
vt 0.7808706 0.639752
vt 0.7774004 0.6154611
vt 0.7808706 0.639752
vt 0.7808706 0.639752
vt 0.7762437 0.6154611
vt 0.7762437 0.6085209
vt 0.7774004 0.6154611
vt 0.7808706 0.639752
vt 0.7808706 0.639752
vt 0.7774004 0.6085209
vt 0.7843407 0.631655
vt 0.7808706 0.639752
vt 0.7808706 0.639752
vt 0.7774004 0.631655
vt 0.7774004 0.6247148
vt 0.7808706 0.639752
vt 0.7808706 0.639752
vt 0.7843407 0.6247148
vt 0.791281 0.6154611
vt 0.7808706 0.639752
vt 0.7658334 0.639752
vt 0.7854974 0.6154611
vt 0.7854974 0.6085209
vt 0.7959078 0.639752
vt 0.7808706 0.639752
vt 0.791281 0.6085209
vt 0.7658334 0.639752
vt 0.7959078 0.639752
vt 0.7843407 0.6154611
vt 0.7843407 0.6085209
vt 0.7843407 0.6247148
vt 0.7808706 0.639752
vt 0.7808706 0.639752
vt 0.7843407 0.631655
vt 0.7808706 0.639752
vt 0.7808706 0.639752
vt 0.7774004 0.6247148
vt 0.7774004 0.631655
vn -0.01587105 0.01587105 0.9997481
vn -0.01587105 0.01587105 0.9997481
vn -0.01587105 0.01587105 0.9997481
vn -0.01587105 0.01587105 0.9997481
vn -0.01587105 0.999874 -0.000345267
vn -0.01587105 0.999874 -0.000345267
vn -0.01587105 0.999874 -0.000345267
vn -0.01587105 0.999874 -0.000345267
vn -0.01587105 0.01587105 -0.9997481
vn -0.01587105 0.01587105 -0.9997481
vn -0.01587105 0.01587105 -0.9997481
vn -0.01587105 0.01587105 -0.9997481
vn -0.01587105 -0.999874 -0.000345267
vn -0.01587105 -0.999874 -0.000345267
vn -0.01587105 -0.999874 -0.000345267
vn -0.01587105 -0.999874 -0.000345267
vn 0.999874 0.01587105 -0.0003439156
vn 0.999874 0.01587105 -0.0003439156
vn 0.999874 0.01587105 -0.0003439156
vn 0.999874 0.01587105 -0.0003439156
vn -0.999874 0.01587105 -0.0003439156
vn -0.999874 0.01587105 -0.0003439156
vn -0.999874 0.01587105 -0.0003439156
vn -0.999874 0.01587105 -0.0003439156
vn -0.01587105 0.01587105 -0.9997481
vn -0.01587105 0.01587105 -0.9997481
vn -0.01587105 0.01587105 -0.9997481
vn -0.01587105 0.01587105 -0.9997481
vn -0.01587105 0.01587105 -0.9997481
vn -0.01587105 0.01587105 -0.9997481
vn -0.01587105 0.01587105 -0.9997481
vn -0.01587105 0.01587105 -0.9997481
vn -0.01587105 0.01587105 -0.9997481
vn -0.01587105 0.01587105 -0.9997481
vn -0.01587105 0.01587105 -0.9997481
vn -0.01587105 0.01587105 -0.9997481
vn -0.01587105 0.01587105 -0.9997481
vn -0.01587105 0.01587105 -0.9997481
vn -0.01587105 0.01587105 -0.9997481
vn -0.01587105 0.01587105 -0.9997481
vn -0.01587105 0.01587105 0.9997481
vn -0.01587105 0.01587105 0.9997481
vn -0.01587105 0.01587105 0.9997481
vn -0.01587105 0.01587105 0.9997481
vn -0.01587105 0.01587105 0.9997481
vn -0.01587105 0.01587105 0.9997481
vn -0.01587105 0.01587105 0.9997481
vn -0.01587105 0.01587105 0.9997481
vn -0.01587105 0.01587105 0.9997481
vn -0.01587105 0.01587105 0.9997481
vn -0.01587105 0.01587105 0.9997481
vn -0.01587105 0.01587105 0.9997481
vn -0.01587105 0.01587105 0.9997481
vn -0.01587105 0.01587105 0.9997481
vn -0.01587105 0.01587105 0.9997481
vn -0.01587105 0.01587105 0.9997481
vn -0.01587105 -0.999874 -0.000345267
vn -0.01587105 -0.999874 -0.000345267
vn -0.01587105 -0.999874 -0.000345267
vn -0.01587105 -0.999874 -0.000345267
vn -0.01587105 -0.999874 -0.000345267
vn -0.01587105 -0.999874 -0.000345267
vn -0.01587105 -0.999874 -0.000345267
vn -0.01587105 -0.999874 -0.000345267
vn -0.01587105 -0.999874 -0.000345267
vn -0.01587105 -0.999874 -0.000345267
vn -0.01587105 -0.999874 -0.000345267
vn -0.01587105 -0.999874 -0.000345267
vn -0.01587105 -0.999874 -0.000345267
vn -0.01587105 -0.999874 -0.000345267
vn -0.01587105 -0.999874 -0.000345267
vn -0.01587105 -0.999874 -0.000345267
vn -0.999874 0.01587105 -0.0003439156
vn -0.999874 0.01587105 -0.0003439156
vn -0.999874 0.01587105 -0.0003439156
vn -0.999874 0.01587105 -0.0003439156
vn -0.999874 0.01587105 -0.0003439156
vn -0.999874 0.01587105 -0.0003439156
vn -0.999874 0.01587105 -0.0003439156
vn -0.999874 0.01587105 -0.0003439156
vn -0.999874 0.01587105 -0.0003439156
vn -0.999874 0.01587105 -0.0003439156
vn -0.999874 0.01587105 -0.0003439156
vn -0.999874 0.01587105 -0.0003439156
vn -0.999874 0.01587105 -0.0003439156
vn -0.999874 0.01587105 -0.0003439156
vn -0.999874 0.01587105 -0.0003439156
vn -0.999874 0.01587105 -0.0003439156
vn 0.999874 0.01587105 -0.0003439156
vn 0.999874 0.01587105 -0.0003439156
vn 0.999874 0.01587105 -0.0003439156
vn 0.999874 0.01587105 -0.0003439156
vn 0.999874 0.01587105 -0.0003439156
vn 0.999874 0.01587105 -0.0003439156
vn 0.999874 0.01587105 -0.0003439156
vn 0.999874 0.01587105 -0.0003439156
vn 0.999874 0.01587105 -0.0003439156
vn 0.999874 0.01587105 -0.0003439156
vn 0.999874 0.01587105 -0.0003439156
vn 0.999874 0.01587105 -0.0003439156
vn 0.999874 0.01587105 -0.0003439156
vn 0.999874 0.01587105 -0.0003439156
vn 0.999874 0.01587105 -0.0003439156
vn 0.999874 0.01587105 -0.0003439156
vn -0.01587105 0.999874 -0.000345267
vn -0.01587105 0.999874 -0.000345267
vn -0.01587105 0.999874 -0.000345267
vn -0.01587105 0.999874 -0.000345267
vn -0.01587105 0.999874 -0.000345267
vn -0.01587105 0.999874 -0.000345267
vn -0.01587105 0.999874 -0.000345267
vn -0.01587105 0.999874 -0.000345267
vn -0.01587105 0.999874 -0.000345267
vn -0.01587105 0.999874 -0.000345267
vn -0.01587105 0.999874 -0.000345267
vn -0.01587105 0.999874 -0.000345267
vn -0.01587105 0.999874 -0.000345267
vn -0.01587105 0.999874 -0.000345267
vn -0.01587105 0.999874 -0.000345267
vn -0.01587105 0.999874 -0.000345267
vn 0.999874 0.01587105 -0.0003439156
vn 0.999874 0.01587105 -0.0003439156
vn 0.999874 0.01587105 -0.0003439156
vn 0.999874 0.01587105 -0.0003439156
vn -0.01587105 0.01587105 0.9997481
vn -0.01587105 0.01587105 0.9997481
vn -0.01587105 0.01587105 0.9997481
vn -0.01587105 0.01587105 0.9997481
vn -0.999874 0.01587105 -0.0003439156
vn -0.999874 0.01587105 -0.0003439156
vn -0.999874 0.01587105 -0.0003439156
vn -0.999874 0.01587105 -0.0003439156
vn -0.01587105 0.01587105 -0.9997481
vn -0.01587105 0.01587105 -0.9997481
vn -0.01587105 0.01587105 -0.9997481
vn -0.01587105 0.01587105 -0.9997481
vn 0.999874 0.01587105 -0.0003439156
vn 0.999874 0.01587105 -0.0003439156
vn 0.999874 0.01587105 -0.0003439156
vn 0.999874 0.01587105 -0.0003439156
vn -0.999874 0.01587105 -0.0003439156
vn -0.999874 0.01587105 -0.0003439156
vn -0.999874 0.01587105 -0.0003439156
vn -0.999874 0.01587105 -0.0003439156
vn -0.01587105 0.01587105 0.9997481
vn -0.01587105 0.01587105 0.9997481
vn -0.01587105 0.01587105 0.9997481
vn -0.01587105 0.01587105 0.9997481
vn 0.01587099 0.01587105 0.9997481
vn 0.01587099 0.01587105 0.9997481
vn 0.01587099 0.01587105 0.9997481
vn -0.01587105 0.01587105 0.9997481
vn -0.01587105 0.01587105 0.9997481
vn -0.01587105 0.01587105 0.9997481
vn -0.01587105 0.01587105 -0.9997481
vn -0.01587105 0.01587105 -0.9997481
vn -0.01587105 0.01587105 -0.9997481
vn -0.01587105 0.01587105 -0.9997481
vn 0.01587099 0.999874 -0.000345267
vn 0.01587099 0.999874 -0.000345267
vn 0.01587099 0.999874 -0.000345267
vn 0.01587099 0.999874 -0.000345267
vn -0.01587105 0.999874 -0.000345267
vn -0.01587105 0.999874 -0.000345267
vn -0.01587105 0.999874 -0.000345267
vn -0.01587105 0.999874 -0.000345267
vn 0.01587099 -0.999874 -0.000345267
vn 0.01587099 -0.999874 -0.000345267
vn 0.01587099 -0.999874 -0.000345267
vn 0.01587099 -0.999874 -0.000345267
vn -0.01587105 -0.999874 -0.000345267
vn -0.01587105 -0.999874 -0.000345267
vn -0.01587105 -0.999874 -0.000345267
vn -0.01587105 -0.999874 -0.000345267
vn -0.01587105 0.01587105 -0.9997481
vn -0.01587105 0.01587105 -0.9997481
vn -0.01587105 0.01587105 -0.9997481
vn -0.01587105 0.01587105 -0.9997481
vn 0.999874 0.01587105 -0.0003439156
vn 0.999874 0.01587105 -0.0003439156
vn 0.999874 0.01587105 -0.0003439156
vn 0.999874 0.01587105 -0.0003439156
vn -0.01587105 0.999874 -0.000345267
vn -0.01587105 0.999874 -0.000345267
vn -0.01587105 0.999874 -0.000345267
vn -0.01587105 0.999874 -0.000345267
vn -0.01587105 -0.999874 -0.000345267
vn -0.01587105 -0.999874 -0.000345267
vn -0.01587105 -0.999874 -0.000345267
vn -0.01587105 -0.999874 -0.000345267
vn -0.01587105 -0.999874 -0.000345267
vn -0.01587105 -0.999874 -0.000345267
vn -0.01587105 -0.999874 -0.000345267
vn -0.01587105 -0.999874 -0.000345267
vn -0.01587105 0.999874 -0.000345267
vn -0.01587105 0.999874 -0.000345267
vn -0.01587105 0.999874 -0.000345267
vn -0.01587105 0.999874 -0.000345267
vn -0.999874 0.01587105 -0.0003439156
vn -0.999874 0.01587105 -0.0003439156
vn -0.999874 0.01587105 -0.0003439156
vn -0.999874 0.01587105 -0.0003439156
vn -0.999874 0.01587105 -0.0003439156
vn -0.999874 0.01587105 -0.0003439156
vn -0.999874 0.01587105 -0.0003439156
vn -0.999874 0.01587105 -0.0003439156
vn 0.999874 0.01587105 -0.0003439156
vn 0.999874 0.01587105 -0.0003439156
vn 0.999874 0.01587105 -0.0003439156
vn 0.999874 0.01587105 -0.0003439156
g frame_0
f 3/3/3 2/2/2 1/1/1
f 4/4/4 3/3/3 1/1/1
f 7/7/7 6/6/6 5/5/5
f 8/8/8 7/7/7 5/5/5
f 11/11/11 10/10/10 9/9/9
f 12/12/12 11/11/11 9/9/9
f 15/15/15 14/14/14 13/13/13
f 16/16/16 15/15/15 13/13/13
f 19/19/19 18/18/18 17/17/17
f 20/20/20 19/19/19 17/17/17
f 23/23/23 22/22/22 21/21/21
f 24/24/24 23/23/23 21/21/21
f 27/27/27 26/26/26 25/25/25
f 28/28/28 27/27/27 25/25/25
f 29/29/29 27/27/27 28/28/28
f 30/30/30 28/28/28 25/25/25
f 31/31/31 30/30/30 25/25/25
f 30/30/30 31/31/31 32/32/32
f 33/33/33 30/30/30 32/32/32
f 34/34/34 30/30/30 33/33/33
f 35/35/35 34/34/34 33/33/33
f 36/36/36 29/29/29 28/28/28
f 34/34/34 35/35/35 37/37/37
f 34/34/34 37/37/37 36/36/36
f 35/35/35 38/38/38 37/37/37
f 37/37/37 39/39/39 36/36/36
f 36/36/36 39/39/39 29/29/29
f 39/39/39 40/40/40 29/29/29
f 43/43/43 42/42/42 41/41/41
f 42/42/42 44/44/44 41/41/41
f 41/41/41 44/44/44 45/45/45
f 46/46/46 44/44/44 42/42/42
f 44/44/44 47/47/47 45/45/45
f 48/48/48 46/46/46 42/42/42
f 48/48/48 49/49/49 46/46/46
f 49/49/49 50/50/50 46/46/46
f 45/45/45 47/47/47 51/51/51
f 47/47/47 52/52/52 51/51/51
f 46/46/46 50/50/50 53/53/53
f 52/52/52 47/47/47 54/54/54
f 47/47/47 53/53/53 54/54/54
f 50/50/50 55/55/55 53/53/53
f 53/53/53 55/55/55 54/54/54
f 55/55/55 56/56/56 54/54/54
f 59/59/59 58/58/58 57/57/57
f 60/60/60 59/59/59 57/57/57
f 59/59/59 60/60/60 61/61/61
f 62/62/62 60/60/60 57/57/57
f 63/63/63 62/62/62 57/57/57
f 62/62/62 63/63/63 64/64/64
f 65/65/65 62/62/62 64/64/64
f 62/62/62 65/65/65 66/66/66
f 65/65/65 67/67/67 66/66/66
f 60/60/60 68/68/68 61/61/61
f 66/66/66 67/67/67 69/69/69
f 66/66/66 69/69/69 68/68/68
f 67/67/67 70/70/70 69/69/69
f 69/69/69 71/71/71 68/68/68
f 68/68/68 71/71/71 61/61/61
f 71/71/71 72/72/72 61/61/61
f 75/75/75 74/74/74 73/73/73
f 74/74/74 76/76/76 73/73/73
f 77/77/77 73/73/73 76/76/76
f 78/78/78 76/76/76 74/74/74
f 79/79/79 77/77/77 76/76/76
f 80/80/80 78/78/78 74/74/74
f 80/80/80 81/81/81 78/78/78
f 81/81/81 82/82/82 78/78/78
f 77/77/77 79/79/79 83/83/83
f 79/79/79 84/84/84 83/83/83
f 85/85/85 78/78/78 82/82/82
f 86/86/86 84/84/84 79/79/79
f 85/85/85 86/86/86 79/79/79
f 87/87/87 85/85/85 82/82/82
f 85/85/85 87/87/87 86/86/86
f 87/87/87 88/88/88 86/86/86
f 91/91/91 90/90/90 89/89/89
f 92/92/92 91/91/91 89/89/89
f 93/93/93 91/91/91 92/92/92
f 92/92/92 89/89/89 94/94/94
f 89/89/89 95/95/95 94/94/94
f 94/94/94 95/95/95 96/96/96
f 97/97/97 94/94/94 96/96/96
f 98/98/98 94/94/94 97/97/97
f 99/99/99 98/98/98 97/97/97
f 99/99/99 100/100/100 98/98/98
f 100/100/100 101/101/101 98/98/98
f 102/102/102 98/98/98 101/101/101
f 102/102/102 93/93/93 92/92/92
f 103/103/103 102/102/102 101/101/101
f 102/102/102 103/103/103 93/93/93
f 103/103/103 104/104/104 93/93/93
f 107/107/107 106/106/106 105/105/105
f 108/108/108 107/107/107 105/105/105
f 107/107/107 108/108/108 109/109/109
f 108/108/108 105/105/105 110/110/110
f 108/108/108 111/111/111 109/109/109
f 112/112/112 109/109/109 111/111/111
f 113/113/113 112/112/112 111/111/111
f 113/113/113 111/111/111 114/114/114
f 111/111/111 115/115/115 114/114/114
f 114/114/114 115/115/115 116/116/116
f 115/115/115 117/117/117 116/116/116
f 117/117/117 115/115/115 118/118/118
f 115/115/115 110/110/110 118/118/118
f 105/105/105 119/119/119 110/110/110
f 110/110/110 119/119/119 118/118/118
f 119/119/119 120/120/120 118/118/118
f 123/123/123 122/122/122 121/121/121
f 124/124/124 123/123/123 121/121/121
f 127/127/127 126/126/126 125/125/125
f 128/128/128 127/127/127 125/125/125
f 131/131/131 130/130/130 129/129/129
f 132/132/132 131/131/131 129/129/129
f 135/135/135 134/134/134 133/133/133
f 136/136/136 135/135/135 133/133/133
f 139/139/139 138/138/138 137/137/137
f 140/140/140 139/139/139 137/137/137
f 143/143/143 142/142/142 141/141/141
f 144/144/144 143/143/143 141/141/141
f 147/147/147 146/146/146 145/145/145
f 146/146/146 148/148/148 145/145/145
f 148/148/148 150/150/150 149/149/149
f 150/150/150 151/151/151 149/149/149
f 153/153/153 146/146/146 152/152/152
f 154/154/154 153/153/153 152/152/152
f 157/157/157 156/156/156 155/155/155
f 158/158/158 157/157/157 155/155/155
f 161/161/161 160/160/160 159/159/159
f 162/162/162 161/161/161 159/159/159
f 165/165/165 164/164/164 163/163/163
f 166/166/166 165/165/165 163/163/163
f 169/169/169 168/168/168 167/167/167
f 170/170/170 169/169/169 167/167/167
f 173/173/173 172/172/172 171/171/171
f 174/174/174 173/173/173 171/171/171
f 177/177/177 176/176/176 175/175/175
f 178/178/178 177/177/177 175/175/175
f 181/181/181 180/180/180 179/179/179
f 182/182/182 181/181/181 179/179/179
f 185/185/185 184/184/184 183/183/183
f 186/186/186 185/185/185 183/183/183
f 189/189/189 188/188/188 187/187/187
f 190/190/190 189/189/189 187/187/187
f 193/193/193 192/192/192 191/191/191
f 194/194/194 193/193/193 191/191/191
f 197/197/197 196/196/196 195/195/195
f 198/198/198 197/197/197 195/195/195
f 201/201/201 200/200/200 199/199/199
f 202/202/202 201/201/201 199/199/199
f 205/205/205 204/204/204 203/203/203
f 206/206/206 205/205/205 203/203/203
f 209/209/209 208/208/208 207/207/207
f 210/210/210 209/209/209 207/207/207
