g fuel-canister
v -0.1815045 -2.520558E-08 0.1051612
v -0.2334496 0.01769337 0.1051612
v -0.2486928 0.06191889 0.1051612
v -0.1815045 0.06191889 0.1051612
v 0.1815045 -2.520559E-08 0.105161
v -0.2486928 0.5249245 0.1051612
v 0.1815045 0.06191889 0.105161
v 0.2513071 0.06191889 0.105161
v 0.2360639 0.01769337 0.105161
v 0.1815045 0.5249245 0.105161
v 0.2513071 0.6011752 0.105161
v -0.1815045 0.5249245 0.1051612
v 0.09878993 0.6011752 0.1051611
v -0.04411097 0.6011752 0.1051611
v -0.09822226 0.6011752 0.1051612
v 0.1599565 0.653354 0.105161
v 0.2057149 0.6855494 0.105161
v 0.1599565 0.6855494 0.105161
v -0.04411097 0.653354 0.1051611
v -0.06129696 0.6855494 0.1051612
v -0.04411097 0.653354 0.1051611
v -0.04411101 0.6011752 1.789731E-08
v -0.04411097 0.6011752 0.1051611
v -0.04411101 0.653354 1.56165E-08
v -0.04411105 0.6533542 -0.1051611
v -0.04411105 0.6011752 -0.1051611
v 0.1599565 0.653354 0.105161
v -0.04411101 0.653354 1.56165E-08
v -0.04411097 0.653354 0.1051611
v 0.1599565 0.653354 -8.067946E-08
v 0.1599565 0.653354 -0.1051612
v -0.04411105 0.6533542 -0.1051611
v -0.04411097 0.6011752 0.1051611
v 0.09878989 0.6011752 -5.846804E-08
v 0.09878993 0.6011752 0.1051611
v -0.04411101 0.6011752 1.789731E-08
v -0.04411105 0.6011752 -0.1051611
v 0.09878985 0.6011752 -0.1051612
v 0.09878993 0.6011752 0.1051611
v 0.1599565 0.653354 -8.067946E-08
v 0.1599565 0.653354 0.105161
v 0.09878989 0.6011752 -5.846804E-08
v 0.09878985 0.6011752 -0.1051612
v 0.1599565 0.653354 -0.1051612
v 0.251307 0.6011752 -0.1051612
v 0.2513071 0.6011752 0.105161
v 0.2057149 0.6855494 0.105161
v 0.2057149 0.6855494 -0.1051612
v 0.2057149 0.6855494 0.105161
v 0.1599565 0.6855494 -0.1051612
v 0.2057149 0.6855494 -0.1051612
v 0.1599565 0.6855494 0.105161
v -0.06129703 0.6855496 -0.1051611
v -0.06129696 0.6855494 0.1051612
v 0.2513071 0.06191889 0.105161
v 0.2513071 0.6011752 0.105161
v 0.251307 0.6011752 -0.1051612
v 0.251307 0.06191888 -0.1051612
v -0.1815045 -2.520558E-08 0.1051612
v 0.1815045 -2.520559E-08 0.105161
v 0.1815045 -3.439906E-08 -0.1051612
v -0.1815045 -3.439906E-08 -0.1051611
v -0.2334497 0.01769337 -0.105161
v -0.2486929 0.06191888 -0.105161
v -0.2486928 0.06191889 0.1051612
v -0.2334496 0.01769337 0.1051612
v -0.09822226 0.6011752 0.1051612
v -0.2486928 0.5249245 0.1051612
v -0.2486929 0.5249245 -0.105161
v -0.09822233 0.6011752 -0.1051611
v -0.2334496 0.01769337 0.1051612
v -0.1815045 -2.520558E-08 0.1051612
v -0.1815045 -3.439906E-08 -0.1051611
v -0.2334497 0.01769337 -0.105161
v 0.2360639 0.01769337 0.105161
v 0.2513071 0.06191889 0.105161
v 0.251307 0.06191888 -0.1051612
v 0.2360638 0.01769337 -0.1051612
v 0.1815045 -2.520559E-08 0.105161
v 0.2360639 0.01769337 0.105161
v 0.2360638 0.01769337 -0.1051612
v 0.1815045 -3.439906E-08 -0.1051612
v -0.2486929 0.06191888 -0.105161
v -0.2486929 0.5249245 -0.105161
v -0.2486928 0.5249245 0.1051612
v -0.2486928 0.06191889 0.1051612
v -0.1815045 -3.439906E-08 -0.1051611
v -0.2486929 0.06191888 -0.105161
v -0.2334497 0.01769337 -0.105161
v -0.1815045 0.06191888 -0.1051611
v 0.1815045 -3.439906E-08 -0.1051612
v -0.2486929 0.5249245 -0.105161
v 0.1815045 0.06191888 -0.1051612
v -0.1815045 0.5249245 -0.1051611
v 0.251307 0.06191888 -0.1051612
v 0.2360638 0.01769337 -0.1051612
v 0.1815045 0.5249245 -0.1051612
v 0.251307 0.6011752 -0.1051612
v -0.04411105 0.6011752 -0.1051611
v -0.09822233 0.6011752 -0.1051611
v 0.09878985 0.6011752 -0.1051612
v -0.04411105 0.6533542 -0.1051611
v -0.06129703 0.6855496 -0.1051611
v 0.1599565 0.6855494 -0.1051612
v 0.1599565 0.653354 -0.1051612
v 0.2057149 0.6855494 -0.1051612
v -0.06129696 0.6855494 0.1051612
v -0.09822226 0.6011752 0.1051612
v -0.09822233 0.6011752 -0.1051611
v -0.06129703 0.6855496 -0.1051611
v -0.153254 0.631357 0.06340781
v -0.153254 0.631357 0.01462979
v -0.1042659 0.5176228 0.01684694
v -0.1042659 0.5176228 0.06119061
v -0.2336196 0.6052943 0.06340788
v -0.1934368 0.6183257 0.08779684
v -0.1281713 0.5057761 0.08336246
v -0.1872486 0.4939294 0.06119065
v -0.1934368 0.6183257 -0.009759233
v -0.2336196 0.6052943 0.01462982
v -0.1872486 0.4939294 0.01684696
v -0.1281713 0.5057761 -0.00532491
v -0.153254 0.631357 0.01462979
v -0.1934368 0.6183257 -0.009759233
v -0.1281713 0.5057761 -0.00532491
v -0.1042659 0.5176228 0.01684694
v -0.1934368 0.6183257 0.08779684
v -0.153254 0.631357 0.06340781
v -0.1042659 0.5176228 0.06119061
v -0.1281713 0.5057761 0.08336246
v -0.2336196 0.6052943 0.01462982
v -0.2336196 0.6052943 0.06340788
v -0.1872486 0.4939294 0.06119065
v -0.1872486 0.4939294 0.01684696
v -0.2336196 0.6052943 0.01462982
v -0.1934368 0.6183257 -0.009759233
v -0.153254 0.631357 0.01462979
v -0.153254 0.631357 0.06340781
v -0.2336196 0.6052943 0.06340788
v -0.1934368 0.6183257 0.08779684
vt 0.3194762 0.4235669
vt 0.32026 0.4258682
vt 0.3222193 0.4265435
vt 0.3222193 0.4235669
vt 0.3194761 0.4074847
vt 0.3427317 0.4265435
vt 0.3222193 0.4074847
vt 0.3222193 0.4043922
vt 0.32026 0.4050676
vt 0.3427317 0.4074847
vt 0.3461097 0.4043922
vt 0.3427317 0.4235669
vt 0.3461097 0.4111491
vt 0.3461097 0.41748
vt 0.3461097 0.4198773
vt 0.3484214 0.4084393
vt 0.3498477 0.4064121
vt 0.3498478 0.4084393
vt 0.3484215 0.41748
vt 0.3498478 0.4182414
vt 0.3771111 0.4043923
vt 0.3794228 0.4090512
vt 0.3794228 0.4043923
vt 0.3771112 0.4090512
vt 0.3771112 0.4137101
vt 0.3794228 0.4137101
vt 0.3680704 0.4043923
vt 0.3771112 0.4090512
vt 0.3771111 0.4043923
vt 0.3680704 0.4090512
vt 0.3680704 0.4137101
vt 0.3771112 0.4137101
vt 0.3794228 0.4043923
vt 0.3857537 0.4090512
vt 0.3857537 0.4043922
vt 0.3794228 0.4090512
vt 0.3794228 0.4137101
vt 0.3857537 0.4137101
vt 0.3857537 0.4043922
vt 0.3893156 0.4090512
vt 0.3893156 0.4043922
vt 0.3857537 0.4090512
vt 0.3857537 0.4137101
vt 0.3893156 0.4137101
vt 0.3623019 0.4599686
vt 0.3623019 0.4692864
vt 0.3665507 0.4692864
vt 0.3665507 0.4599686
vt 0.3661146 0.4265435
vt 0.3640873 0.4358613
vt 0.3661146 0.4358613
vt 0.3640873 0.4265435
vt 0.3542852 0.4358613
vt 0.3542852 0.4265435
vt 0.3384115 0.4692864
vt 0.3623019 0.4692864
vt 0.3623019 0.4599686
vt 0.3384115 0.4599685
vt 0.3177158 0.4692864
vt 0.333798 0.4692864
vt 0.333798 0.4599685
vt 0.3177158 0.4599685
vt 0.3201469 0.4358613
vt 0.3222193 0.4358613
vt 0.3222193 0.4265435
vt 0.3201469 0.4265435
vt 0.3502049 0.4265435
vt 0.3427317 0.4265435
vt 0.3427317 0.4358613
vt 0.3502049 0.4358613
vt 0.3201469 0.4265435
vt 0.3177158 0.4265435
vt 0.3177158 0.4358613
vt 0.3201469 0.4358613
vt 0.3363391 0.4692864
vt 0.3384115 0.4692864
vt 0.3384115 0.4599685
vt 0.3363391 0.4599685
vt 0.333798 0.4692864
vt 0.3363391 0.4692864
vt 0.3363391 0.4599685
vt 0.333798 0.4599685
vt 0.3222193 0.4358613
vt 0.3427317 0.4358613
vt 0.3427317 0.4265435
vt 0.3222193 0.4265435
vt 0.3194761 0.438838
vt 0.3222193 0.4358613
vt 0.32026 0.4365367
vt 0.3222193 0.438838
vt 0.3194762 0.4549202
vt 0.3427317 0.4358613
vt 0.3222193 0.4549202
vt 0.3427317 0.438838
vt 0.3222193 0.4580126
vt 0.32026 0.4573373
vt 0.3427317 0.4549202
vt 0.3461097 0.4580126
vt 0.3461097 0.4449249
vt 0.3461097 0.4425276
vt 0.3461097 0.4512557
vt 0.3484215 0.4449249
vt 0.3498478 0.4441635
vt 0.3498478 0.4539656
vt 0.3484214 0.4539656
vt 0.3498478 0.4559928
vt 0.3542852 0.4265435
vt 0.3502049 0.4265435
vt 0.3502049 0.4358613
vt 0.3542852 0.4358613
vt 0.3746223 0.4232053
vt 0.3752821 0.4213548
vt 0.3700972 0.4195061
vt 0.3694374 0.4213566
vt 0.3737333 0.4270324
vt 0.3741715 0.4251174
vt 0.3688962 0.422795
vt 0.3685897 0.4256228
vt 0.3761427 0.4195888
vt 0.377015 0.4178286
vt 0.3721398 0.415666
vt 0.3705881 0.4180498
vt 0.3752821 0.4213548
vt 0.3761427 0.4195888
vt 0.3705881 0.4180498
vt 0.3700972 0.4195061
vt 0.3741715 0.4251174
vt 0.3746223 0.4232053
vt 0.3694374 0.4213566
vt 0.3688962 0.422795
vt 0.3732141 0.4289271
vt 0.3737333 0.4270324
vt 0.3685897 0.4256228
vt 0.3680704 0.4275175
vt 0.3732141 0.4289271
vt 0.3745953 0.4303241
vt 0.3764958 0.4298265
vt 0.377015 0.4279318
vt 0.3737333 0.4270324
vt 0.3756338 0.4265348
vn 3.088615E-07 -1.128817E-07 1
vn 3.088615E-07 -1.128817E-07 1
vn 3.088615E-07 -1.128817E-07 1
vn 3.088615E-07 -1.128817E-07 1
vn 2.956054E-07 0 1
vn 3.326728E-07 0 1
vn 2.956054E-07 0 1
vn 2.956054E-07 0 1
vn 2.956054E-07 0 1
vn 4.418129E-07 0 1
vn 3.776431E-07 0 1
vn 3.326728E-07 0 1
vn 4.418129E-07 0 1
vn 4.418129E-07 0 1
vn 1.161456E-06 -1.27874E-07 1
vn 4.729742E-07 -8.161501E-07 1
vn 3.259055E-07 0 1
vn 4.729742E-07 -8.161501E-07 1
vn 1.161456E-06 -1.27874E-07 1
vn 1.161456E-06 -1.27874E-07 1
vn 1 0 -3.818857E-07
vn 1 0 -3.818857E-07
vn 1 0 -3.818857E-07
vn 1 0 -3.818857E-07
vn 1 0 -3.818851E-07
vn 1 0 -3.818851E-07
vn 1.929113E-07 -1 0
vn 1.929113E-07 -1 0
vn 1.929113E-07 -1 0
vn 1.929113E-07 -1 0
vn -3.47185E-07 -1 -5.667933E-07
vn -3.47185E-07 -1 -5.667933E-07
vn 0 1 0
vn 0 1 0
vn 0 1 0
vn 0 1 0
vn -4.957924E-07 1 0
vn -4.957924E-07 1 0
vn -0.648999 0.7607892 1.652289E-07
vn -0.648999 0.7607892 1.652289E-07
vn -0.648999 0.7607892 1.652289E-07
vn -0.648999 0.7607892 1.652289E-07
vn -0.6489989 0.7607893 2.753815E-07
vn -0.6489989 0.7607893 2.753815E-07
vn 0.8797742 0.4753918 -2.770304E-07
vn 0.8797742 0.4753918 -2.770304E-07
vn 0.8797742 0.4753918 -2.770304E-07
vn 0.8797742 0.4753918 -2.770304E-07
vn 0 1 0
vn 0 1 0
vn 0 1 0
vn 0 1 0
vn 6.404345E-07 1 2.833967E-07
vn 6.404345E-07 1 2.833967E-07
vn 1 0 -1.313831E-07
vn 1 0 -1.313831E-07
vn 1 0 -1.313831E-07
vn 1 0 -1.313831E-07
vn 0 -1 0
vn 0 -1 0
vn 0 -1 0
vn 0 -1 0
vn -0.9454188 -0.325858 2.829899E-07
vn -0.9454188 -0.325858 2.829899E-07
vn -0.9454188 -0.325858 2.829899E-07
vn -0.9454188 -0.325858 2.829899E-07
vn -0.4520229 0.8920063 1.575007E-07
vn -0.4520229 0.8920063 1.575007E-07
vn -0.4520229 0.8920063 1.575007E-07
vn -0.4520229 0.8920063 1.575007E-07
vn -0.3224263 -0.9465947 0
vn -0.3224263 -0.9465947 0
vn -0.3224263 -0.9465947 0
vn -0.3224263 -0.9465947 0
vn 0.9454188 -0.325858 -2.8299E-07
vn 0.9454188 -0.325858 -2.8299E-07
vn 0.9454188 -0.325858 -2.8299E-07
vn 0.9454188 -0.325858 -2.8299E-07
vn 0.3084806 -0.9512306 0
vn 0.3084806 -0.9512306 0
vn 0.3084806 -0.9512306 0
vn 0.3084806 -0.9512306 0
vn -1 0 3.060403E-07
vn -1 0 3.060403E-07
vn -1 0 3.060403E-07
vn -1 0 3.060403E-07
vn -5.325257E-07 -1.505088E-07 -1
vn -5.325257E-07 -1.505088E-07 -1
vn -5.325257E-07 -1.505088E-07 -1
vn -5.325257E-07 -1.505088E-07 -1
vn -5.810252E-07 1.440492E-07 -1
vn -3.326728E-07 0 -1
vn -5.810252E-07 1.440492E-07 -1
vn -3.326728E-07 0 -1
vn -5.810252E-07 1.440492E-07 -1
vn -5.810252E-07 1.440492E-07 -1
vn -3.591789E-07 0 -1
vn -3.45161E-07 0 -1
vn -4.123586E-07 -1.448552E-07 -1
vn -8.434584E-07 5.541201E-07 -1
vn -4.123586E-07 -1.448552E-07 -1
vn -8.434584E-07 5.541201E-07 -1
vn -8.434584E-07 5.541201E-07 -1
vn -5.430426E-07 5.441001E-07 -1
vn -5.430426E-07 5.441001E-07 -1
vn -3.259054E-07 0 -1
vn -0.9161112 0.400924 4.327086E-07
vn -0.9161112 0.400924 4.327086E-07
vn -0.9161112 0.400924 4.327086E-07
vn -0.9161112 0.400924 4.327086E-07
vn 0.9184277 0.3955889 -6.460901E-07
vn 0.9184277 0.3955889 -6.460901E-07
vn 0.9184277 0.3955889 -6.460901E-07
vn 0.9184277 0.3955889 -6.460901E-07
vn -0.3710193 -0.2118365 0.9041405
vn -0.3710193 -0.2118365 0.9041405
vn -0.3710193 -0.2118365 0.9041405
vn -0.3710193 -0.2118365 0.9041405
vn -0.3710204 -0.2118363 -0.90414
vn -0.3710204 -0.2118363 -0.90414
vn -0.3710204 -0.2118363 -0.90414
vn -0.3710204 -0.2118363 -0.90414
vn 0.5105781 0.2334726 -0.8275267
vn 0.5105781 0.2334726 -0.8275267
vn 0.5105781 0.2334726 -0.8275267
vn 0.5105781 0.2334726 -0.8275267
vn 0.5105783 0.2334723 0.8275267
vn 0.5105783 0.2334723 0.8275267
vn 0.5105783 0.2334723 0.8275267
vn 0.5105783 0.2334723 0.8275267
vn -0.9231684 -0.3843957 0
vn -0.9231684 -0.3843957 0
vn -0.9231684 -0.3843957 0
vn -0.9231684 -0.3843957 0
vn -0.3084845 0.9512295 1.129954E-07
vn -0.3084845 0.9512295 1.129954E-07
vn -0.3084845 0.9512295 1.129954E-07
vn -0.3084845 0.9512295 1.129954E-07
vn -0.3084845 0.9512295 1.129954E-07
vn -0.3084845 0.9512295 1.129954E-07
g fuel-canister_0
f 3/3/3 2/2/2 1/1/1
f 4/4/4 3/3/3 1/1/1
f 4/4/4 1/1/1 5/5/5
f 6/6/6 3/3/3 4/4/4
f 7/7/7 4/4/4 5/5/5
f 7/7/7 5/5/5 8/8/8
f 5/5/5 9/9/9 8/8/8
f 10/10/10 7/7/7 8/8/8
f 7/7/7 10/10/10 4/4/4
f 11/11/11 10/10/10 8/8/8
f 12/12/12 6/6/6 4/4/4
f 10/10/10 12/12/12 4/4/4
f 10/10/10 11/11/11 13/13/13
f 10/10/10 13/13/13 12/12/12
f 12/12/12 14/14/14 6/6/6
f 13/13/13 14/14/14 12/12/12
f 14/14/14 15/15/15 6/6/6
f 11/11/11 16/16/16 13/13/13
f 16/16/16 11/11/11 17/17/17
f 18/18/18 16/16/16 17/17/17
f 14/14/14 19/19/19 15/15/15
f 16/16/16 18/18/18 19/19/19
f 19/19/19 20/20/20 15/15/15
f 18/18/18 20/20/20 19/19/19
f 23/23/23 22/22/22 21/21/21
f 22/22/22 24/24/24 21/21/21
f 24/24/24 22/22/22 25/25/25
f 22/22/22 26/26/26 25/25/25
f 29/29/29 28/28/28 27/27/27
f 28/28/28 30/30/30 27/27/27
f 30/30/30 28/28/28 31/31/31
f 28/28/28 32/32/32 31/31/31
f 35/35/35 34/34/34 33/33/33
f 34/34/34 36/36/36 33/33/33
f 36/36/36 34/34/34 37/37/37
f 34/34/34 38/38/38 37/37/37
f 41/41/41 40/40/40 39/39/39
f 40/40/40 42/42/42 39/39/39
f 42/42/42 40/40/40 43/43/43
f 40/40/40 44/44/44 43/43/43
f 47/47/47 46/46/46 45/45/45
f 48/48/48 47/47/47 45/45/45
f 51/51/51 50/50/50 49/49/49
f 50/50/50 52/52/52 49/49/49
f 50/50/50 53/53/53 52/52/52
f 53/53/53 54/54/54 52/52/52
f 57/57/57 56/56/56 55/55/55
f 58/58/58 57/57/57 55/55/55
f 61/61/61 60/60/60 59/59/59
f 62/62/62 61/61/61 59/59/59
f 65/65/65 64/64/64 63/63/63
f 66/66/66 65/65/65 63/63/63
f 69/69/69 68/68/68 67/67/67
f 70/70/70 69/69/69 67/67/67
f 73/73/73 72/72/72 71/71/71
f 74/74/74 73/73/73 71/71/71
f 77/77/77 76/76/76 75/75/75
f 78/78/78 77/77/77 75/75/75
f 81/81/81 80/80/80 79/79/79
f 82/82/82 81/81/81 79/79/79
f 85/85/85 84/84/84 83/83/83
f 86/86/86 85/85/85 83/83/83
f 89/89/89 88/88/88 87/87/87
f 88/88/88 90/90/90 87/87/87
f 87/87/87 90/90/90 91/91/91
f 88/88/88 92/92/92 90/90/90
f 90/90/90 93/93/93 91/91/91
f 92/92/92 94/94/94 90/90/90
f 90/90/90 94/94/94 93/93/93
f 91/91/91 93/93/93 95/95/95
f 96/96/96 91/91/91 95/95/95
f 93/93/93 97/97/97 95/95/95
f 94/94/94 97/97/97 93/93/93
f 97/97/97 98/98/98 95/95/95
f 99/99/99 94/94/94 92/92/92
f 100/100/100 99/99/99 92/92/92
f 101/101/101 97/97/97 94/94/94
f 99/99/99 101/101/101 94/94/94
f 98/98/98 97/97/97 101/101/101
f 102/102/102 99/99/99 100/100/100
f 103/103/103 102/102/102 100/100/100
f 103/103/103 104/104/104 102/102/102
f 105/105/105 98/98/98 101/101/101
f 104/104/104 105/105/105 102/102/102
f 98/98/98 105/105/105 106/106/106
f 105/105/105 104/104/104 106/106/106
f 109/109/109 108/108/108 107/107/107
f 110/110/110 109/109/109 107/107/107
f 113/113/113 112/112/112 111/111/111
f 114/114/114 113/113/113 111/111/111
f 117/117/117 116/116/116 115/115/115
f 118/118/118 117/117/117 115/115/115
f 121/121/121 120/120/120 119/119/119
f 122/122/122 121/121/121 119/119/119
f 125/125/125 124/124/124 123/123/123
f 126/126/126 125/125/125 123/123/123
f 129/129/129 128/128/128 127/127/127
f 130/130/130 129/129/129 127/127/127
f 133/133/133 132/132/132 131/131/131
f 134/134/134 133/133/133 131/131/131
f 137/137/137 136/136/136 135/135/135
f 135/135/135 138/138/138 137/137/137
f 135/135/135 139/139/139 138/138/138
f 139/139/139 140/140/140 138/138/138
