g glass
v -0.5607986 0.2852584 -0.3378512
v -0.5607986 -0.2841151 -0.3378512
v 0.5573686 -0.2841151 -0.3378512
v 0.5573686 0.2852584 -0.3378512
v -0.5607986 -0.2841151 -0.3218447
v -0.5607986 0.2852584 -0.3218447
v 0.5573686 0.2852584 -0.3218447
v 0.5573686 -0.2841151 -0.3218447
v -0.5722319 -0.2738252 0.3378512
v -0.5722319 -0.2738252 -0.3355645
v 0.5688019 -0.2738252 -0.3355645
v 0.5688019 -0.2738252 0.3378512
v -0.5722319 -0.2886884 -0.3355645
v -0.5722319 -0.2886884 0.3378512
v 0.5688019 -0.2886884 0.3378512
v 0.5688019 -0.2886884 -0.3355645
v -0.5745184 0.290975 0.3378512
v -0.5745184 0.290975 -0.3355645
v 0.5722318 0.290975 -0.3355645
v 0.5722318 0.290975 0.3378512
v -0.5745184 0.2761118 -0.3355645
v -0.5745184 0.2761118 0.3378512
v 0.5722318 0.2761118 0.3378512
v 0.5722318 0.2761118 -0.3355645
v -0.5688019 0.2875451 0.3378512
v -0.5688019 0.2875451 -0.3355645
v -0.5688019 -0.290975 -0.3355645
v -0.5688019 -0.290975 0.3378512
v -0.5848083 0.2875451 -0.3355645
v -0.5848083 0.2875451 0.3378512
v -0.5848083 -0.290975 0.3378512
v -0.5848083 -0.290975 -0.3355645
v 0.5848083 0.2875451 0.3378512
v 0.5848083 0.2875451 -0.3355645
v 0.5848083 -0.290975 -0.3355645
v 0.5848083 -0.290975 0.3378512
v 0.5688019 0.2875451 -0.3355645
v 0.5688019 0.2875451 0.3378512
v 0.5688019 -0.290975 0.3378512
v 0.5688019 -0.290975 -0.3355645
vt 0.3764706 0.25
vt 0.3764706 0.5
vt 0.6264706 0.5
vt 0.6264706 0.25
vt 0.3764706 0.75
vt 0.3764706 1
vt 0.6264706 1
vt 0.6264706 0.75
vt 0.3764706 0.25
vt 0.3764706 0.5
vt 0.6264706 0.5
vt 0.6264706 0.25
vt 0.3764706 0.75
vt 0.3764706 1
vt 0.6264706 1
vt 0.6264706 0.75
vt 0.3764706 0.25
vt 0.3764706 0.5
vt 0.6264706 0.5
vt 0.6264706 0.25
vt 0.3764706 0.75
vt 0.3764706 1
vt 0.6264706 1
vt 0.6264706 0.75
vt 0.3764706 0.25
vt 0.3764706 0.5
vt 0.6264706 0.5
vt 0.6264706 0.25
vt 0.3764706 0.75
vt 0.3764706 1
vt 0.6264706 1
vt 0.6264706 0.75
vt 0.3764706 0.25
vt 0.3764706 0.5
vt 0.6264706 0.5
vt 0.6264706 0.25
vt 0.3764706 0.75
vt 0.3764706 1
vt 0.6264706 1
vt 0.6264706 0.75
vn -0.01587105 0.01587105 -0.9997481
vn -0.01587105 0.01587105 -0.9997481
vn -0.01587105 0.01587105 -0.9997481
vn -0.01587105 0.01587105 -0.9997481
vn -0.01587105 0.01587105 0.9997481
vn -0.01587105 0.01587105 0.9997481
vn -0.01587105 0.01587105 0.9997481
vn -0.01587105 0.01587105 0.9997481
vn -0.01587105 0.999874 -0.000345267
vn -0.01587105 0.999874 -0.000345267
vn -0.01587105 0.999874 -0.000345267
vn -0.01587105 0.999874 -0.000345267
vn -0.01587105 -0.999874 -0.000345267
vn -0.01587105 -0.999874 -0.000345267
vn -0.01587105 -0.999874 -0.000345267
vn -0.01587105 -0.999874 -0.000345267
vn -0.01587105 0.999874 -0.000345267
vn -0.01587105 0.999874 -0.000345267
vn -0.01587105 0.999874 -0.000345267
vn -0.01587105 0.999874 -0.000345267
vn -0.01587105 -0.999874 -0.000345267
vn -0.01587105 -0.999874 -0.000345267
vn -0.01587105 -0.999874 -0.000345267
vn -0.01587105 -0.999874 -0.000345267
vn 0.999874 0.01587105 -0.0003439156
vn 0.999874 0.01587105 -0.0003439156
vn 0.999874 0.01587105 -0.0003439156
vn 0.999874 0.01587105 -0.0003439156
vn -0.999874 0.01587105 -0.0003439156
vn -0.999874 0.01587105 -0.0003439156
vn -0.999874 0.01587105 -0.0003439156
vn -0.999874 0.01587105 -0.0003439156
vn 0.999874 -0.01587099 -0.000346655
vn 0.999874 -0.01587099 -0.000346655
vn 0.999874 -0.01587099 -0.000346655
vn 0.999874 -0.01587099 -0.000346655
vn -0.999874 0.01587105 -0.0003439156
vn -0.999874 0.01587105 -0.0003439156
vn -0.999874 0.01587105 -0.0003439156
vn -0.999874 0.01587105 -0.0003439156
g glass_0
f 3/3/3 2/2/2 1/1/1
f 4/4/4 3/3/3 1/1/1
f 7/7/7 6/6/6 5/5/5
f 8/8/8 7/7/7 5/5/5
f 11/11/11 10/10/10 9/9/9
f 12/12/12 11/11/11 9/9/9
f 15/15/15 14/14/14 13/13/13
f 16/16/16 15/15/15 13/13/13
f 19/19/19 18/18/18 17/17/17
f 20/20/20 19/19/19 17/17/17
f 23/23/23 22/22/22 21/21/21
f 24/24/24 23/23/23 21/21/21
f 27/27/27 26/26/26 25/25/25
f 28/28/28 27/27/27 25/25/25
f 31/31/31 30/30/30 29/29/29
f 32/32/32 31/31/31 29/29/29
f 35/35/35 34/34/34 33/33/33
f 36/36/36 35/35/35 33/33/33
f 39/39/39 38/38/38 37/37/37
f 40/40/40 39/39/39 37/37/37
