g glass
v 0.03141451 0.01778399 -0.050784
v 0.02637845 0.01197314 -0.04264881
v -0.02669396 0.01197314 -0.04264881
v -0.03134263 0.01778399 -0.050784
v 0.02637845 0.01197314 -0.04264881
v 0.03141451 0.01778399 -0.050784
v 0.06279308 0.01778399 -3.59416E-05
v 0.05310834 0.01197314 -3.59416E-05
v -0.03134263 0.01778399 -0.050784
v -0.02669396 0.01197314 -0.04264881
v -0.05303646 0.01197314 -3.59416E-05
v -0.0631086 0.01778399 -3.59416E-05
v -0.0631086 0.01778399 -3.59416E-05
v -0.05303646 0.01197314 -3.59416E-05
v -0.02669396 0.01197314 0.04257693
v -0.03134263 0.01778399 0.05071212
v -0.03134263 0.01778399 0.05071212
v -0.02669396 0.01197314 0.04257693
v 0.02637845 0.01197314 0.04257693
v 0.03141451 0.01778399 0.05071212
v 0.03141451 0.01778399 0.05071212
v 0.02637845 0.01197314 0.04257693
v 0.05310834 0.01197314 -3.59416E-05
v 0.06279308 0.01778399 -3.59416E-05
v 0.03141451 0.01778399 -0.050784
v -0.03134263 0.01778399 -0.050784
v -0.04335172 0.2986416 -0.07790129
v 0.0434236 0.2986416 -0.07790129
v -0.03134263 0.01778399 -0.050784
v -0.0631086 0.01778399 -3.59416E-05
v -0.08712675 0.2986416 -3.59416E-05
v -0.04335172 0.2986416 -0.07790129
v -0.0631086 0.01778399 -3.59416E-05
v -0.03134263 0.01778399 0.05071212
v -0.04335172 0.2986416 0.07782941
v -0.08712675 0.2986416 -3.59416E-05
v -0.03134263 0.01778399 0.05071212
v 0.03141451 0.01778399 0.05071212
v 0.0434236 0.2986416 0.07782941
v -0.04335172 0.2986416 0.07782941
v 0.03141451 0.01778399 0.05071212
v 0.06279308 0.01778399 -3.59416E-05
v 0.08681125 0.2986416 -3.59416E-05
v 0.0434236 0.2986416 0.07782941
v 0.06279308 0.01778399 -3.59416E-05
v 0.03141451 0.01778399 -0.050784
v 0.0434236 0.2986416 -0.07790129
v 0.08681125 0.2986416 -3.59416E-05
v 0.03645058 0.01236054 -0.0585318
v -0.0363787 0.01236054 -0.0585318
v -0.0286309 0.0007388368 -0.04574794
v 0.02870278 0.0007388368 -0.04574794
v 0.02870278 0.0007388368 -0.04574794
v 0.05698224 0.0007388368 -3.59416E-05
v 0.07286522 0.01236054 -3.59416E-05
v 0.03645058 0.01236054 -0.0585318
v -0.0363787 0.01236054 -0.0585318
v -0.07279334 0.01236054 -3.59416E-05
v -0.05691036 0.0007388368 -3.59416E-05
v -0.0286309 0.0007388368 -0.04574794
v -0.07279334 0.01236054 -3.59416E-05
v -0.0363787 0.01236054 0.05845992
v -0.0286309 0.0007388368 0.04606345
v -0.05691036 0.0007388368 -3.59416E-05
v -0.0363787 0.01236054 0.05845992
v 0.03645058 0.01236054 0.05845992
v 0.02870278 0.0007388368 0.04606345
v -0.0286309 0.0007388368 0.04606345
v 0.03645058 0.01236054 0.05845992
v 0.07286522 0.01236054 -3.59416E-05
v 0.05698224 0.0007388368 -3.59416E-05
v 0.02870278 0.0007388368 0.04606345
v 0.03645058 0.01236054 -0.0585318
v 0.04884705 0.297092 -0.08758603
v -0.04877517 0.297092 -0.08758603
v -0.0363787 0.01236054 -0.0585318
v -0.0363787 0.01236054 -0.0585318
v -0.04877517 0.297092 -0.08758603
v -0.09758628 0.297092 -3.59416E-05
v -0.07279334 0.01236054 -3.59416E-05
v -0.07279334 0.01236054 -3.59416E-05
v -0.09758628 0.297092 -3.59416E-05
v -0.04877517 0.297092 0.08751415
v -0.0363787 0.01236054 0.05845992
v -0.0363787 0.01236054 0.05845992
v -0.04877517 0.297092 0.08751415
v 0.04884705 0.297092 0.08751415
v 0.03645058 0.01236054 0.05845992
v 0.03645058 0.01236054 0.05845992
v 0.04884705 0.297092 0.08751415
v 0.09765816 0.297092 -3.59416E-05
v 0.07286522 0.01236054 -3.59416E-05
v 0.07286522 0.01236054 -3.59416E-05
v 0.09765816 0.297092 -3.59416E-05
v 0.04884705 0.297092 -0.08758603
v 0.03645058 0.01236054 -0.0585318
v -0.04335172 0.2986416 -0.07790129
v -0.04877517 0.297092 -0.08758603
v 0.04884705 0.297092 -0.08758603
v 0.0434236 0.2986416 -0.07790129
v 0.0434236 0.2986416 -0.07790129
v 0.04884705 0.297092 -0.08758603
v 0.09765816 0.297092 -3.59416E-05
v 0.08681125 0.2986416 -3.59416E-05
v 0.08681125 0.2986416 -3.59416E-05
v 0.09765816 0.297092 -3.59416E-05
v 0.04884705 0.297092 0.08751415
v 0.0434236 0.2986416 0.07782941
v 0.0434236 0.2986416 0.07782941
v 0.04884705 0.297092 0.08751415
v -0.04877517 0.297092 0.08751415
v -0.04335172 0.2986416 0.07782941
v -0.04335172 0.2986416 0.07782941
v -0.04877517 0.297092 0.08751415
v -0.09758628 0.297092 -3.59416E-05
v -0.08712675 0.2986416 -3.59416E-05
v -0.08712675 0.2986416 -3.59416E-05
v -0.09758628 0.297092 -3.59416E-05
v -0.04877517 0.297092 -0.08758603
v -0.04335172 0.2986416 -0.07790129
v 0.05698224 0.0007388368 -3.59416E-05
v 3.59416E-05 0.0007388368 -3.59416E-05
v 0.02870278 0.0007388368 0.04606345
v 0.02870278 0.0007388368 -0.04574794
v -0.0286309 0.0007388368 0.04606345
v -0.0286309 0.0007388368 -0.04574794
v -0.05691036 0.0007388368 -3.59416E-05
v 0.05310834 0.01197314 -3.59416E-05
v 0.02637845 0.01197314 0.04257693
v 3.59416E-05 0.01391009 -3.59416E-05
v 0.02637845 0.01197314 -0.04264881
v -0.02669396 0.01197314 0.04257693
v -0.02669396 0.01197314 -0.04264881
v -0.05303646 0.01197314 -3.59416E-05
vt 0.3738832 0.328587
vt 0.3789161 0.3134883
vt 0.41163 0.3134883
vt 0.4166629 0.328587
vt 0.6204956 0.3134883
vt 0.6255286 0.328587
vt 0.5827488 0.328587
vt 0.5877817 0.3134883
vt 0.4166629 0.328587
vt 0.4216958 0.3134883
vt 0.4544097 0.3134883
vt 0.4594426 0.328587
vt 0.4594426 0.328587
vt 0.461959 0.3134883
vt 0.4946729 0.3134883
vt 0.4997059 0.328587
vt 0.4997059 0.328587
vt 0.5047387 0.3134883
vt 0.5374526 0.3134883
vt 0.5424855 0.328587
vt 0.5424855 0.328587
vt 0.545002 0.3134883
vt 0.5777159 0.3134883
vt 0.5827488 0.328587
vt 0.3738832 0.328587
vt 0.4166629 0.328587
vt 0.4166629 0.6884399
vt 0.3738832 0.6884399
vt 0.4166629 0.328587
vt 0.4594426 0.328587
vt 0.4594426 0.6884399
vt 0.4166629 0.6884399
vt 0.4594426 0.328587
vt 0.4997059 0.328587
vt 0.4997059 0.6884399
vt 0.4594426 0.6884399
vt 0.4997059 0.328587
vt 0.5424855 0.328587
vt 0.5424855 0.6884399
vt 0.4997059 0.6884399
vt 0.5424855 0.328587
vt 0.5827488 0.328587
vt 0.5827488 0.6884399
vt 0.5424855 0.6884399
vt 0.5827488 0.328587
vt 0.6255286 0.328587
vt 0.6255286 0.6884399
vt 0.5827488 0.6884399
vt 0.3738832 0.328587
vt 0.4166629 0.328587
vt 0.41163 0.3134883
vt 0.3789161 0.3134883
vt 0.6204956 0.3134883
vt 0.5877817 0.3134883
vt 0.5827488 0.328587
vt 0.6255286 0.328587
vt 0.4166629 0.328587
vt 0.4594426 0.328587
vt 0.4544097 0.3134883
vt 0.4216958 0.3134883
vt 0.4594426 0.328587
vt 0.4997059 0.328587
vt 0.4946729 0.3134883
vt 0.461959 0.3134883
vt 0.4997059 0.328587
vt 0.5424855 0.328587
vt 0.5374526 0.3134883
vt 0.5047387 0.3134883
vt 0.5424855 0.328587
vt 0.5827488 0.328587
vt 0.5777159 0.3134883
vt 0.545002 0.3134883
vt 0.3738832 0.328587
vt 0.3738832 0.6884399
vt 0.4166629 0.6884399
vt 0.4166629 0.328587
vt 0.4166629 0.328587
vt 0.4166629 0.6884399
vt 0.4594426 0.6884399
vt 0.4594426 0.328587
vt 0.4594426 0.328587
vt 0.4594426 0.6884399
vt 0.4997059 0.6884399
vt 0.4997059 0.328587
vt 0.4997059 0.328587
vt 0.4997059 0.6884399
vt 0.5424855 0.6884399
vt 0.5424855 0.328587
vt 0.5424855 0.328587
vt 0.5424855 0.6884399
vt 0.5827488 0.6884399
vt 0.5827488 0.328587
vt 0.5827488 0.328587
vt 0.5827488 0.6884399
vt 0.6255286 0.6884399
vt 0.6255286 0.328587
vt 0.4166629 0.6884399
vt 0.4166629 0.6884399
vt 0.3738832 0.6884399
vt 0.3738832 0.6884399
vt 0.6255286 0.6884399
vt 0.6255286 0.6884399
vt 0.5827488 0.6884399
vt 0.5827488 0.6884399
vt 0.5827488 0.6884399
vt 0.5827488 0.6884399
vt 0.5424855 0.6884399
vt 0.5424855 0.6884399
vt 0.5424855 0.6884399
vt 0.5424855 0.6884399
vt 0.4997059 0.6884399
vt 0.4997059 0.6884399
vt 0.4997059 0.6884399
vt 0.4997059 0.6884399
vt 0.4594426 0.6884399
vt 0.4594426 0.6884399
vt 0.4594426 0.6884399
vt 0.4594426 0.6884399
vt 0.4166629 0.6884399
vt 0.4166629 0.6884399
vt 0.6255286 0.1549517
vt 0.4997059 0.1499188
vt 0.5626172 0.2631592
vt 0.5626172 0.04674421
vt 0.4367945 0.2631592
vt 0.4367945 0.04674421
vt 0.3738832 0.1549517
vt 0.6255286 0.1549517
vt 0.5626172 0.2631592
vt 0.4997059 0.1499188
vt 0.5626172 0.04674421
vt 0.4367945 0.2631592
vt 0.4367945 0.04674421
vt 0.3738832 0.1549517
vn -0.01587105 0.8094218 0.5870132
vn -0.01587105 0.8094218 0.5870132
vn -0.01587105 0.8094218 0.5870132
vn -0.01587105 0.8094218 0.5870132
vn -0.4602594 0.8411639 0.2839095
vn -0.4602594 0.8411639 0.2839095
vn -0.4602594 0.8411639 0.2839095
vn -0.4602594 0.8411639 0.2839095
vn 0.4602594 0.8411639 0.2839095
vn 0.4602594 0.8411639 0.2839095
vn 0.4602594 0.8411639 0.2839095
vn 0.4602594 0.8411639 0.2839095
vn 0.4602594 0.8411639 -0.2839095
vn 0.4602594 0.8411639 -0.2839095
vn 0.4602594 0.8411639 -0.2839095
vn 0.4602594 0.8411639 -0.2839095
vn -0.01587105 0.8094218 -0.5870132
vn -0.01587105 0.8094218 -0.5870132
vn -0.01587105 0.8094218 -0.5870132
vn -0.01587105 0.8094218 -0.5870132
vn -0.4602594 0.8411639 -0.2839095
vn -0.4602594 0.8411639 -0.2839095
vn -0.4602594 0.8411639 -0.2839095
vn -0.4602594 0.8411639 -0.2839095
vn -0.01587105 0.1110971 0.9936828
vn -0.01587105 0.1110971 0.9936828
vn -0.01587105 0.1110971 0.9936828
vn -0.01587105 0.1110971 0.9936828
vn 0.8729059 0.07935512 0.4813919
vn 0.8729059 0.07935512 0.4813919
vn 0.8729059 0.07935512 0.4813919
vn 0.8729059 0.07935512 0.4813919
vn 0.8729059 0.07935512 -0.4813919
vn 0.8729059 0.07935512 -0.4813919
vn 0.8729059 0.07935512 -0.4813919
vn 0.8729059 0.07935512 -0.4813919
vn -0.01587105 0.1110971 -0.9936828
vn -0.01587105 0.1110971 -0.9936828
vn -0.01587105 0.1110971 -0.9936828
vn -0.01587105 0.1110971 -0.9936828
vn -0.8729059 0.07935512 -0.4813919
vn -0.8729059 0.07935512 -0.4813919
vn -0.8729059 0.07935512 -0.4813919
vn -0.8729059 0.07935512 -0.4813919
vn -0.8729059 0.07935512 0.4813919
vn -0.8729059 0.07935512 0.4813919
vn -0.8729059 0.07935512 0.4813919
vn -0.8729059 0.07935512 0.4813919
vn -0.01587105 -0.7459377 -0.6658266
vn -0.01587105 -0.7459377 -0.6658266
vn -0.01587105 -0.7459377 -0.6658266
vn -0.01587105 -0.7459377 -0.6658266
vn 0.5554855 -0.7776798 -0.2943636
vn 0.5554855 -0.7776798 -0.2943636
vn 0.5554855 -0.7776798 -0.2943636
vn 0.5554855 -0.7776798 -0.2943636
vn -0.5554856 -0.7776798 -0.2943635
vn -0.5554856 -0.7776798 -0.2943635
vn -0.5554856 -0.7776798 -0.2943635
vn -0.5554856 -0.7776798 -0.2943635
vn -0.5554856 -0.7776798 0.2943635
vn -0.5554856 -0.7776798 0.2943635
vn -0.5554856 -0.7776798 0.2943635
vn -0.5554856 -0.7776798 0.2943635
vn -0.01587105 -0.7459377 0.6658266
vn -0.01587105 -0.7459377 0.6658266
vn -0.01587105 -0.7459377 0.6658266
vn -0.01587105 -0.7459377 0.6658266
vn 0.5554855 -0.7776798 0.2943636
vn 0.5554855 -0.7776798 0.2943636
vn 0.5554855 -0.7776798 0.2943636
vn 0.5554855 -0.7776798 0.2943636
vn -0.01587105 -0.1110971 -0.9936828
vn -0.01587105 -0.1110971 -0.9936828
vn -0.01587105 -0.1110971 -0.9936828
vn -0.01587105 -0.1110971 -0.9936828
vn -0.8729059 -0.07935506 -0.4813919
vn -0.8729059 -0.07935506 -0.4813919
vn -0.8729059 -0.07935506 -0.4813919
vn -0.8729059 -0.07935506 -0.4813919
vn -0.8729059 -0.07935506 0.4813919
vn -0.8729059 -0.07935506 0.4813919
vn -0.8729059 -0.07935506 0.4813919
vn -0.8729059 -0.07935506 0.4813919
vn -0.01587105 -0.1110971 0.9936828
vn -0.01587105 -0.1110971 0.9936828
vn -0.01587105 -0.1110971 0.9936828
vn -0.01587105 -0.1110971 0.9936828
vn 0.8729059 -0.07935506 0.4813919
vn 0.8729059 -0.07935506 0.4813919
vn 0.8729059 -0.07935506 0.4813919
vn 0.8729059 -0.07935506 0.4813919
vn 0.8729059 -0.07935506 -0.4813919
vn 0.8729059 -0.07935506 -0.4813919
vn 0.8729059 -0.07935506 -0.4813919
vn 0.8729059 -0.07935506 -0.4813919
vn -0.01587105 0.999874 -0.000345267
vn -0.01587105 0.999874 -0.000345267
vn -0.01587105 0.999874 -0.000345267
vn -0.01587105 0.999874 -0.000345267
vn 0.1414213 0.9899495 0
vn 0.1414213 0.9899495 0
vn 0.1414213 0.9899495 0
vn 0.1414213 0.9899495 0
vn 0.1414213 0.9899495 0
vn 0.1414213 0.9899495 0
vn 0.1414213 0.9899495 0
vn 0.1414213 0.9899495 0
vn -0.01587105 0.999874 -0.000345267
vn -0.01587105 0.999874 -0.000345267
vn -0.01587105 0.999874 -0.000345267
vn -0.01587105 0.999874 -0.000345267
vn -0.1414214 0.9899495 0
vn -0.1414214 0.9899495 0
vn -0.1414214 0.9899495 0
vn -0.1414214 0.9899495 0
vn -0.1414214 0.9899495 0
vn -0.1414214 0.9899495 0
vn -0.1414214 0.9899495 0
vn -0.1414214 0.9899495 0
vn -0.01587105 -0.999874 -0.000345267
vn -0.01587105 -0.999874 -0.000345267
vn -0.01587105 -0.999874 -0.000345267
vn -0.01587105 -0.999874 -0.000345267
vn -0.01587105 -0.999874 -0.000345267
vn -0.01587105 -0.999874 -0.000345267
vn -0.01587105 -0.999874 -0.000345267
vn 0.01587099 0.999874 -0.000345267
vn 0.01587099 0.999874 -0.000345267
vn -0.01587105 0.999874 -0.000345267
vn 0.01587099 0.999874 -0.000345267
vn -0.01587105 0.999874 -0.000345267
vn -0.01587105 0.999874 -0.000345267
vn -0.01587105 0.999874 -0.000345267
g glass_0
f 3/3/3 2/2/2 1/1/1
f 4/4/4 3/3/3 1/1/1
f 7/7/7 6/6/6 5/5/5
f 8/8/8 7/7/7 5/5/5
f 11/11/11 10/10/10 9/9/9
f 12/12/12 11/11/11 9/9/9
f 15/15/15 14/14/14 13/13/13
f 16/16/16 15/15/15 13/13/13
f 19/19/19 18/18/18 17/17/17
f 20/20/20 19/19/19 17/17/17
f 23/23/23 22/22/22 21/21/21
f 24/24/24 23/23/23 21/21/21
f 27/27/27 26/26/26 25/25/25
f 28/28/28 27/27/27 25/25/25
f 31/31/31 30/30/30 29/29/29
f 32/32/32 31/31/31 29/29/29
f 35/35/35 34/34/34 33/33/33
f 36/36/36 35/35/35 33/33/33
f 39/39/39 38/38/38 37/37/37
f 40/40/40 39/39/39 37/37/37
f 43/43/43 42/42/42 41/41/41
f 44/44/44 43/43/43 41/41/41
f 47/47/47 46/46/46 45/45/45
f 48/48/48 47/47/47 45/45/45
f 51/51/51 50/50/50 49/49/49
f 52/52/52 51/51/51 49/49/49
f 55/55/55 54/54/54 53/53/53
f 56/56/56 55/55/55 53/53/53
f 59/59/59 58/58/58 57/57/57
f 60/60/60 59/59/59 57/57/57
f 63/63/63 62/62/62 61/61/61
f 64/64/64 63/63/63 61/61/61
f 67/67/67 66/66/66 65/65/65
f 68/68/68 67/67/67 65/65/65
f 71/71/71 70/70/70 69/69/69
f 72/72/72 71/71/71 69/69/69
f 75/75/75 74/74/74 73/73/73
f 76/76/76 75/75/75 73/73/73
f 79/79/79 78/78/78 77/77/77
f 80/80/80 79/79/79 77/77/77
f 83/83/83 82/82/82 81/81/81
f 84/84/84 83/83/83 81/81/81
f 87/87/87 86/86/86 85/85/85
f 88/88/88 87/87/87 85/85/85
f 91/91/91 90/90/90 89/89/89
f 92/92/92 91/91/91 89/89/89
f 95/95/95 94/94/94 93/93/93
f 96/96/96 95/95/95 93/93/93
f 99/99/99 98/98/98 97/97/97
f 100/100/100 99/99/99 97/97/97
f 103/103/103 102/102/102 101/101/101
f 104/104/104 103/103/103 101/101/101
f 107/107/107 106/106/106 105/105/105
f 108/108/108 107/107/107 105/105/105
f 111/111/111 110/110/110 109/109/109
f 112/112/112 111/111/111 109/109/109
f 115/115/115 114/114/114 113/113/113
f 116/116/116 115/115/115 113/113/113
f 119/119/119 118/118/118 117/117/117
f 120/120/120 119/119/119 117/117/117
f 123/123/123 122/122/122 121/121/121
f 121/121/121 122/122/122 124/124/124
f 125/125/125 122/122/122 123/123/123
f 124/124/124 122/122/122 126/126/126
f 127/127/127 122/122/122 125/125/125
f 126/126/126 122/122/122 127/127/127
f 130/130/130 129/129/129 128/128/128
f 130/130/130 128/128/128 131/131/131
f 130/130/130 132/132/132 129/129/129
f 130/130/130 131/131/131 133/133/133
f 130/130/130 134/134/134 132/132/132
f 130/130/130 133/133/133 134/134/134
