g glass
v -1.105638 1.801374 0.1996343
v 0.001356125 1.971442 -0.1868858
v -1.105638 1.96835 -0.2116231
v 0.001356125 1.993088 -0.1776093
v 1.105258 1.986903 -0.2054387
v 1.105258 1.816834 0.2150952
v 1.170193 1.362287 -0.7063688
v 1.170193 0.5459564 -0.7063688
v 1.170193 0.5490485 0.3109521
v 1.170193 1.362287 0.3109521
v 1.170193 1.742623 0.1625284
v 1.170193 1.903415 -0.1930701
v 1.170193 1.900323 -0.7063688
v 1.136179 1.362287 -0.7063688
v 1.136179 0.5490485 0.3109521
v 1.136179 0.5459564 -0.7063688
v 1.136179 1.362287 0.3109521
v 1.136179 1.742623 0.1625284
v 1.136179 1.903415 -0.1930701
v 1.136179 1.900323 -0.7063688
v -1.170573 1.362287 -0.7063688
v -1.170573 0.5490485 0.3109521
v -1.170573 0.5459564 -0.7063688
v -1.170573 1.362287 0.3109521
v -1.170573 1.742623 0.1625284
v -1.170573 1.903415 -0.1930701
v -1.170573 1.900323 -0.7063688
v -1.136559 1.362287 -0.7063688
v -1.136559 0.5459564 -0.7063688
v -1.136559 0.5490485 0.3109521
v -1.136559 1.362287 0.3109521
v -1.136559 1.742623 0.1625284
v -1.136559 1.903415 -0.1930701
v -1.136559 1.900323 -0.7063688
v 1.105258 1.801374 0.1996343
v 1.105258 1.96835 -0.2116231
v 0.001356125 1.971442 -0.1868858
v -1.105638 1.801374 0.1996343
v -1.105638 1.393209 0.366611
v 1.105258 1.393209 0.366611
v 0.001356125 0.5521407 0.3635188
v 1.105258 0.5521407 0.3635188
v -1.105638 0.5521407 0.3635188
v -1.105638 1.816834 0.2150952
v -1.105638 1.986903 -0.2054387
v 0.001356125 1.993088 -0.1776093
v 1.105258 1.816834 0.2150952
v -1.105638 1.396301 0.3882561
v 1.105258 1.396301 0.3882561
v 1.105258 0.5521407 0.3882561
v 0.001356125 0.5521407 0.3882561
v -1.105638 0.5521407 0.3882561
vt 0.9490196 0.6392157
vt 1 1
vt 0.4509804 0.8235294
vt 1 1
vt 0.4509804 0.8235294
vt 0.9490196 0.6392157
vt 1 0
vt 1 0
vt 1 0
vt 1 0
vt 1 0
vt 1 0
vt 1 0
vt 1 0
vt 1 0
vt 1 0
vt 1 0
vt 1 0
vt 1 0
vt 1 0
vt 1 0
vt 1 0
vt 1 0
vt 1 0
vt 1 0
vt 1 0
vt 1 0
vt 1 0
vt 1 0
vt 1 0
vt 1 0
vt 1 0
vt 1 0
vt 1 0
vt 0.9490196 0.6392157
vt 0.4509804 0.8235294
vt 1 1
vt 0.9490196 0.6392157
vt 0.9490196 0.6313726
vt 0.9490196 0.6313726
vt 0.9490196 0.6117647
vt 0.9490196 0.6117647
vt 0.9490196 0.6117647
vt 0.9490196 0.6392157
vt 0.4509804 0.8235294
vt 1 1
vt 0.9490196 0.6392157
vt 0.9490196 0.6313726
vt 0.9490196 0.6313726
vt 0.9490196 0.6117647
vt 0.9490196 0.6117647
vt 0.9490196 0.6117647
vn -0.01587105 -0.7141957 -0.6997661
vn -0.01587105 -0.9363899 -0.3506023
vn -0.01587105 -0.9363899 -0.3506023
vn -0.01587105 0.9046479 0.425864
vn -0.01587105 0.9046479 0.425864
vn -0.01587105 0.6824538 0.7307565
vn 0.999874 0.01587105 -0.0003439156
vn 0.999874 0.01587105 -0.0003439156
vn 0.999874 0.01587105 -0.0003439156
vn 0.999874 0.01587105 -0.0003439156
vn 0.999874 0.01587105 -0.0003439156
vn 0.999874 0.01587105 -0.0003439156
vn 0.999874 0.01587105 -0.0003439156
vn -0.999874 0.01587105 -0.0003439156
vn -0.999874 0.01587105 -0.0003439156
vn -0.999874 0.01587105 -0.0003439156
vn -0.999874 0.01587105 -0.0003439156
vn -0.999874 0.01587105 -0.0003439156
vn -0.999874 0.01587105 -0.0003439156
vn -0.999874 0.01587105 -0.0003439156
vn -0.999874 0.01587105 -0.0003439156
vn -0.999874 0.01587105 -0.0003439156
vn -0.999874 0.01587105 -0.0003439156
vn -0.999874 0.01587105 -0.0003439156
vn -0.999874 0.01587105 -0.0003439156
vn -0.999874 0.01587105 -0.0003439156
vn -0.999874 0.01587105 -0.0003439156
vn 0.999874 0.01587105 -0.0003439156
vn 0.999874 0.01587105 -0.0003439156
vn 0.999874 0.01587105 -0.0003439156
vn 0.999874 0.01587105 -0.0003439156
vn 0.999874 0.01587105 -0.0003439156
vn 0.999874 0.01587105 -0.0003439156
vn 0.999874 0.01587105 -0.0003439156
vn -0.01587105 -0.7141957 -0.6997661
vn -0.01587105 -0.9363899 -0.3506023
vn -0.01587105 -0.9363899 -0.3506023
vn -0.01587105 -0.7141957 -0.6997661
vn -0.01587105 -0.1428391 -0.9896187
vn -0.01587105 -0.1428391 -0.9896187
vn -0.01587105 0.01587105 -0.9997481
vn -0.01587105 0.01587105 -0.9997481
vn -0.01587105 0.01587105 -0.9997481
vn -0.01587105 0.6824538 0.7307565
vn -0.01587105 0.9046479 0.425864
vn -0.01587105 0.9046479 0.425864
vn -0.01587105 0.6824538 0.7307565
vn -0.01587105 0.1428392 0.9896187
vn -0.01587105 0.1428392 0.9896187
vn -0.01587105 -0.01587099 0.9997481
vn -0.01587105 -0.01587099 0.9997481
vn -0.01587105 -0.01587099 0.9997481
g glass_0
f 3/3/3 2/2/2 1/1/1
f 6/6/6 5/5/5 4/4/4
f 9/9/9 8/8/8 7/7/7
f 10/10/10 9/9/9 7/7/7
f 11/11/11 10/10/10 7/7/7
f 11/11/11 7/7/7 12/12/12
f 7/7/7 13/13/13 12/12/12
f 16/16/16 15/15/15 14/14/14
f 15/15/15 17/17/17 14/14/14
f 17/17/17 18/18/18 14/14/14
f 14/14/14 18/18/18 19/19/19
f 20/20/20 14/14/14 19/19/19
f 23/23/23 22/22/22 21/21/21
f 22/22/22 24/24/24 21/21/21
f 24/24/24 25/25/25 21/21/21
f 21/21/21 25/25/25 26/26/26
f 27/27/27 21/21/21 26/26/26
f 30/30/30 29/29/29 28/28/28
f 31/31/31 30/30/30 28/28/28
f 32/32/32 31/31/31 28/28/28
f 32/32/32 28/28/28 33/33/33
f 28/28/28 34/34/34 33/33/33
f 37/37/37 36/36/36 35/35/35
f 35/35/35 38/38/38 37/37/37
f 39/39/39 38/38/38 35/35/35
f 40/40/40 39/39/39 35/35/35
f 41/41/41 39/39/39 40/40/40
f 40/40/40 42/42/42 41/41/41
f 41/41/41 43/43/43 39/39/39
f 46/46/46 45/45/45 44/44/44
f 46/46/46 44/44/44 47/47/47
f 44/44/44 48/48/48 47/47/47
f 48/48/48 49/49/49 47/47/47
f 50/50/50 49/49/49 48/48/48
f 48/48/48 51/51/51 50/50/50
f 48/48/48 52/52/52 51/51/51
