g grass
v 0.3801042 0.361343 -0.1484408
v 0.289482 0.1583814 -0.02604242
v 0.3817835 0.1374277 -0.02604242
v 0.1987417 0.3982232 -0.03836975
v 0.3112537 0.4140289 -0.03836973
v 0.2675924 0.7512193 -0.2146444
v 0.1185544 0.7159591 0.01299866
v 0.1407123 0.8842676 -0.01477008
v 0.05091413 0.7086414 0.01299872
v -0.08017201 0.5295476 0.06820996
v -0.1242452 0.7613968 0.1954478
v -0.2037968 0.5139965 0.06820997
v -0.398334 0.8575889 -0.0369547
v -0.3689435 0.4997262 0.0312464
v -0.25558 0.5194854 0.03124645
v -0.5116969 0.3712908 0.01680708
v -0.3983337 0.4184935 0.01680713
v -0.5802748 0.64353 -0.04985449
v -0.4067312 0.1671114 0.05963156
v -0.5914714 0.3636066 0.04129688
v -0.5648801 0.1418635 0.05963156
v 0.6999665 0.5681544 0.3571268
v 0.5273769 0.3660119 0.1102264
v 0.619473 0.302874 0.1119095
v 0.3801042 0.361343 -0.1484408
v 0.3817835 0.1374277 -0.02604244
v 0.289482 0.1583814 -0.02604243
v 0.1987417 0.3982232 -0.03836975
v 0.2675924 0.7512193 -0.2146444
v 0.3112537 0.4140289 -0.03836973
v 0.1185544 0.7159591 0.01299866
v 0.05091413 0.7086414 0.01299866
v 0.1407123 0.8842676 -0.01477008
v -0.08017201 0.5295476 0.06820993
v -0.2037968 0.5139965 0.06820994
v -0.1242452 0.7613968 0.1954478
v -0.398334 0.8575889 -0.0369547
v -0.25558 0.5194854 0.03124648
v -0.3689435 0.4997262 0.03124646
v -0.5116969 0.3712908 0.01680711
v -0.5802748 0.64353 -0.04985444
v -0.3983337 0.4184935 0.01680713
v -0.4067312 0.1671114 0.0596316
v -0.5648801 0.1418635 0.0596316
v -0.5914714 0.3636066 0.04129688
v 0.6999665 0.5681543 0.3571267
v 0.619473 0.302874 0.1119095
v 0.5273769 0.3660119 0.1102264
v 0.3112537 0.4140289 -0.03836973
v 0.1987417 0.3982232 -0.03836975
v 0.1735525 0.1808936 -0.01203027
v 0.2885831 0.166405 -0.006642747
v 0.1584388 0.003078513 0.01459981
v 0.2558371 0.003078495 0.01586674
v 0.289482 0.1583814 -0.02604242
v 0.2390441 0.004395668 -0.02604246
v 0.3263669 0.004395653 -0.02604246
v 0.3817835 0.1374277 -0.02604242
v -0.0003991469 0.5229533 0.02146009
v -0.02558882 0.005309554 0.002897718
v 0.08287121 0.004395667 0.002897717
v 0.09756543 0.534845 0.02146008
v 0.09756543 0.534845 0.02146008
v 0.1185544 0.7159591 0.01299866
v 0.05091413 0.7086414 0.01299872
v -0.0003991469 0.5229533 0.02146009
v -0.1464166 0.2582298 0.01265893
v -0.08903657 0.002462896 0.01680699
v -0.02838913 0.005207484 0.016807
v -0.05428058 0.2673776 0.01265895
v -0.1758059 0.2626146 0.06368179
v -0.25558 0.5194854 0.03124645
v -0.3689435 0.4997262 0.0312464
v -0.2758735 0.2521861 0.0636818
v -0.3983337 0.4184935 0.01680713
v -0.5116969 0.3712908 0.01680708
v -0.3087628 0.002450703 0.016807
v -0.171607 0.003548403 0.016807
v -0.6068665 0.2637124 -0.0470178
v -0.7802813 0.456564 -0.07226478
v -0.7034352 0.194555 -0.0470178
v -0.5102975 0.0035485 -0.02004191
v -0.4137287 0.00135297 -0.02004192
v -0.5648801 0.1418635 0.05963156
v -0.4221261 0.001353006 0.009879774
v -0.3073632 0.003548441 0.003496412
v -0.4067312 0.1671114 0.05963156
v 0.4587916 0.08923433 -0.01433142
v 0.3908045 0.1122312 -0.01647734
v 0.3163034 0.005631147 0.002511674
v 0.4092504 0.003945566 -0.005966504
v 0.171701 0.5498611 -0.00483028
v 0.08890412 0.346804 -0.004830324
v 0.2031869 0.3449745 -0.004830334
v 0.1637362 0.004937357 -0.004830419
v 0.07704385 0.006325088 -0.00483042
v -0.2037968 0.5139965 0.06820997
v -0.1464166 0.2582298 0.01265893
v -0.05428058 0.2673776 0.01265895
v -0.08017201 0.5295476 0.06820996
v -0.09603172 0.00574384 0.016807
v -0.1758059 0.2626146 0.06368179
v -0.2758735 0.2521861 0.0636818
v -0.1828036 0.004646131 0.016807
v 0.619473 0.302874 0.1119095
v 0.5273769 0.3660119 0.1102264
v 0.3908045 0.1122312 -0.01647734
v 0.4587916 0.08923433 -0.01433142
v 0.3112537 0.4140289 -0.03836973
v 0.1735525 0.1808936 -0.01203021
v 0.1987417 0.3982232 -0.03836975
v 0.2885831 0.166405 -0.006642806
v 0.1584388 0.003078513 0.0145998
v 0.2558371 0.003078495 0.01586675
v 0.289482 0.1583814 -0.02604243
v 0.3817835 0.1374277 -0.02604244
v 0.3263669 0.004395653 -0.02604246
v 0.2390441 0.004395668 -0.02604246
v -0.0003991469 0.5229533 0.02146015
v 0.09756543 0.534845 0.02146014
v 0.08287121 0.004395667 0.00289774
v -0.02558882 0.005309553 0.00289774
v 0.09756543 0.534845 0.02146014
v -0.0003991469 0.5229533 0.02146015
v 0.05091413 0.7086414 0.01299866
v 0.1185544 0.7159591 0.01299866
v -0.1464166 0.2582298 0.01265887
v -0.05428058 0.2673776 0.01265901
v -0.02838913 0.005207486 0.01680696
v -0.08903657 0.002462896 0.01680696
v -0.1758059 0.2626146 0.06368174
v -0.2758735 0.2521861 0.06368177
v -0.3689435 0.4997262 0.03124646
v -0.25558 0.5194854 0.03124648
v -0.3983337 0.4184935 0.01680713
v -0.171607 0.003548403 0.01680696
v -0.3087628 0.002450703 0.01680696
v -0.5116969 0.3712908 0.01680711
v -0.6068665 0.2637124 -0.04701777
v -0.7034352 0.194555 -0.04701777
v -0.7802813 0.456564 -0.07226472
v -0.5102975 0.0035485 -0.02004194
v -0.4137287 0.00135297 -0.02004194
v -0.5648801 0.1418635 0.0596316
v -0.4067312 0.1671114 0.0596316
v -0.3073632 0.003548441 0.003496408
v -0.4221261 0.001353006 0.009879826
v 0.4587916 0.08923433 -0.01433145
v 0.4092504 0.003945566 -0.005966543
v 0.3163034 0.005631147 0.002511621
v 0.3908045 0.1122312 -0.01647734
v 0.171701 0.5498611 -0.00483028
v 0.2031869 0.3449745 -0.004830334
v 0.08890412 0.346804 -0.004830324
v 0.1637362 0.004937357 -0.004830477
v 0.07704385 0.006325088 -0.00483036
v -0.2037968 0.5139965 0.06820994
v -0.08017201 0.5295476 0.06820993
v -0.05428058 0.2673776 0.01265901
v -0.1464166 0.2582298 0.01265887
v -0.09603172 0.00574384 0.01680696
v -0.1828036 0.004646131 0.01680696
v -0.2758735 0.2521861 0.06368177
v -0.1758059 0.2626146 0.06368174
v 0.619473 0.302874 0.1119095
v 0.4587916 0.08923433 -0.01433145
v 0.3908045 0.1122312 -0.01647734
v 0.5273769 0.3660119 0.1102264
vt 0.4425736 0.4733462
vt 0.4436552 0.4596391
vt 0.4385487 0.460117
vt 0.4694232 0.4292109
vt 0.4634274 0.4306083
vt 0.4679438 0.4508635
vt 0.4116695 0.4463668
vt 0.4109322 0.4556587
vt 0.4153111 0.445793
vt 0.4369138 0.4362676
vt 0.436914 0.4507959
vt 0.4436552 0.43664
vt 0.4246867 0.4571349
vt 0.4300386 0.4380671
vt 0.4239092 0.4369225
vt 0.4570131 0.4338389
vt 0.4503981 0.4331188
vt 0.4531114 0.4489799
vt 0.3990392 0.4665514
vt 0.3990392 0.4811994
vt 0.4062274 0.4714133
vt 0.4790845 0.4510964
vt 0.4819289 0.4316453
vt 0.4758876 0.4312974
vt 0.4636875 0.4734579
vt 0.4687332 0.4605834
vt 0.4636796 0.4597082
vt 0.457076 0.4292098
vt 0.458032 0.4508919
vt 0.4630364 0.4307516
vt 0.4024669 0.446722
vt 0.3990392 0.4453649
vt 0.4011522 0.4559499
vt 0.4368509 0.4363629
vt 0.4301016 0.4361867
vt 0.4356708 0.4508433
vt 0.4219189 0.4571069
vt 0.4238462 0.4369715
vt 0.4176615 0.4377653
vt 0.4437181 0.4338197
vt 0.4475755 0.448972
vt 0.4503351 0.4331188
vt 0.4381886 0.4617135
vt 0.4301016 0.4648615
vt 0.4349421 0.4759973
vt 0.4711117 0.4511859
vt 0.4758247 0.4316921
vt 0.4697746 0.4315735
vt 0.4634274 0.4306083
vt 0.4694232 0.4292109
vt 0.4697117 0.4172735
vt 0.4634274 0.417025
vt 0.4696405 0.4074967
vt 0.4643833 0.4079669
vt 0.4436552 0.4596391
vt 0.4436552 0.4508589
vt 0.4391585 0.4523318
vt 0.4385487 0.460117
vt 0.4175985 0.4355974
vt 0.4175985 0.4074967
vt 0.4117259 0.4077328
vt 0.4123276 0.4364985
vt 0.4123276 0.4364985
vt 0.4116695 0.4463668
vt 0.4153111 0.445793
vt 0.4175985 0.4355974
vt 0.4430994 0.4221315
vt 0.4425183 0.4079379
vt 0.4392583 0.4074967
vt 0.4380987 0.4217266
vt 0.4247451 0.4222659
vt 0.4239092 0.4369225
vt 0.4300386 0.4380671
vt 0.4300235 0.4236296
vt 0.4503981 0.4331188
vt 0.4570131 0.4338389
vt 0.4570131 0.4110273
vt 0.4504729 0.4074967
vt 0.4503981 0.4666736
vt 0.4503981 0.4807936
vt 0.4567952 0.4673826
vt 0.455934 0.4526162
vt 0.4521095 0.4490428
vt 0.4062274 0.4714133
vt 0.4060178 0.4602316
vt 0.4014344 0.4560128
vt 0.3990392 0.4665514
vt 0.4775448 0.4153641
vt 0.4813591 0.4145958
vt 0.4819289 0.4074967
vt 0.4775336 0.4100002
vt 0.4718662 0.4808621
vt 0.4759669 0.4697095
vt 0.4697746 0.469826
vt 0.4712696 0.4513372
vt 0.4759669 0.4512488
vt 0.4436552 0.43664
vt 0.4430994 0.4221315
vt 0.4380987 0.4217266
vt 0.4369138 0.4362676
vt 0.4256095 0.4074967
vt 0.4247451 0.4222659
vt 0.4300235 0.4236296
vt 0.4300386 0.409076
vt 0.4758876 0.4312974
vt 0.4819289 0.4316453
vt 0.4813591 0.4145958
vt 0.4775448 0.4153641
vt 0.4630364 0.4307516
vt 0.457076 0.4172689
vt 0.457076 0.4292098
vt 0.4633645 0.4171723
vt 0.4573833 0.4074967
vt 0.4626276 0.4080938
vt 0.4636796 0.4597082
vt 0.4687332 0.4605834
vt 0.4687332 0.4527743
vt 0.4643652 0.4509548
vt 0.3990392 0.4349158
vt 0.403985 0.4369489
vt 0.4108693 0.4090126
vt 0.4051908 0.4074967
vt 0.403985 0.4369489
vt 0.3990392 0.4349158
vt 0.3990392 0.4453649
vt 0.4024669 0.446722
vt 0.4318338 0.4217712
vt 0.4368509 0.4217738
vt 0.4368507 0.4074967
vt 0.4335657 0.4076717
vt 0.4238462 0.4222912
vt 0.4184987 0.423352
vt 0.4176615 0.4377653
vt 0.4238462 0.4369715
vt 0.4503351 0.4331188
vt 0.4503351 0.4074967
vt 0.4437847 0.4110081
vt 0.4437181 0.4338197
vt 0.4501538 0.4667485
vt 0.4437181 0.4668362
vt 0.4487896 0.4808025
vt 0.4460019 0.452222
vt 0.4501538 0.4490349
vt 0.4301016 0.4648615
vt 0.4381886 0.4617135
vt 0.4381886 0.4509063
vt 0.4327842 0.4540043
vt 0.4754001 0.4156785
vt 0.4758247 0.4103315
vt 0.4716354 0.4074967
vt 0.4716565 0.4146186
vt 0.461733 0.4804857
vt 0.4636167 0.4694123
vt 0.4574232 0.4694122
vt 0.4617742 0.4509548
vt 0.457076 0.4509548
vt 0.4301016 0.4361867
vt 0.4368509 0.4363629
vt 0.4368509 0.4217738
vt 0.4318338 0.4217712
vt 0.4238242 0.4074967
vt 0.4193123 0.4088213
vt 0.4184987 0.423352
vt 0.4238462 0.4222912
vt 0.4758247 0.4316921
vt 0.4754001 0.4156785
vt 0.4716565 0.4146186
vt 0.4697746 0.4315735
vn -0.108387 -0.4774454 -0.8719507
vn -0.108387 -0.4774454 -0.8719507
vn -0.108387 -0.4774454 -0.8719507
vn 0.06403261 -0.4558124 -0.8877696
vn 0.06403261 -0.4558124 -0.8877696
vn 0.06403261 -0.4558124 -0.8877696
vn 0.01785522 -0.1650484 -0.9861238
vn 0.01785522 -0.1650484 -0.9861238
vn 0.01785522 -0.1650484 -0.9861238
vn -0.05932042 0.4715708 -0.8798307
vn -0.05932042 0.4715708 -0.8798307
vn -0.05932042 0.4715708 -0.8798307
vn 0.03216945 -0.1845626 -0.9822941
vn 0.03216945 -0.1845626 -0.9822941
vn 0.03216945 -0.1845626 -0.9822941
vn 0.08972972 -0.2154962 -0.9723734
vn 0.08972972 -0.2154962 -0.9723734
vn 0.08972972 -0.2154962 -0.9723734
vn 0.01290885 -0.08085865 -0.996642
vn 0.01290885 -0.08085865 -0.996642
vn 0.01290885 -0.08085865 -0.996642
vn 0.3947022 0.5562358 -0.7313083
vn 0.3947022 0.5562358 -0.7313083
vn 0.3947022 0.5562358 -0.7313083
vn 0.1083868 0.4774452 0.8719508
vn 0.1083868 0.4774452 0.8719508
vn 0.1083868 0.4774452 0.8719508
vn -0.06403261 0.4558124 0.8877696
vn -0.06403261 0.4558124 0.8877696
vn -0.06403261 0.4558124 0.8877696
vn -0.0178562 0.1650486 0.9861238
vn -0.0178562 0.1650486 0.9861238
vn -0.0178562 0.1650486 0.9861238
vn 0.05932042 -0.4715709 0.8798307
vn 0.05932042 -0.4715709 0.8798307
vn 0.05932042 -0.4715709 0.8798307
vn -0.03216911 0.1845627 0.9822941
vn -0.03216911 0.1845627 0.9822941
vn -0.03216911 0.1845627 0.9822941
vn -0.08972951 0.2154962 0.9723734
vn -0.08972951 0.2154962 0.9723734
vn -0.08972951 0.2154962 0.9723734
vn -0.01290888 0.08085879 0.996642
vn -0.01290888 0.08085879 0.996642
vn -0.01290888 0.08085879 0.996642
vn -0.3947016 -0.556236 0.7313085
vn -0.3947016 -0.556236 0.7313085
vn -0.3947016 -0.556236 0.7313085
vn 0.02421162 -0.1263411 -0.9916914
vn 0.02421162 -0.1263411 -0.9916914
vn 0.02421162 -0.1263411 -0.9916914
vn 0.02421162 -0.1263411 -0.9916914
vn 0.02106603 -0.145436 -0.9891433
vn 0.02106603 -0.145436 -0.9891433
vn 0 2.597909E-07 -1
vn 0 2.597909E-07 -1
vn 0 2.597909E-07 -1
vn 0 2.597909E-07 -1
vn -0.001886399 0.03547066 -0.999369
vn -0.001886399 0.03547066 -0.999369
vn -0.001886399 0.03547066 -0.999369
vn -0.001886399 0.03547066 -0.999369
vn 0.005470226 -0.04716226 -0.9988722
vn 0.005470226 -0.04716226 -0.9988722
vn 0.005470226 -0.04716226 -0.9988722
vn 0.005470226 -0.04716226 -0.9988722
vn 0.001231404 -0.01581764 -0.9998741
vn 0.001231404 -0.01581764 -0.9998741
vn 0.001231404 -0.01581764 -0.9998741
vn 0.001231404 -0.01581764 -0.9998741
vn 0.01721788 -0.1217313 -0.9924138
vn 0.01721788 -0.1217313 -0.9924138
vn 0.01721788 -0.1217313 -0.9924138
vn 0.01721788 -0.1217313 -0.9924138
vn 1.355624E-07 3.34598E-07 -1
vn 1.355624E-07 3.34598E-07 -1
vn 1.355624E-07 3.34598E-07 -1
vn 1.355624E-07 3.34598E-07 -1
vn 0.05675727 -0.07925367 -0.9952374
vn 0.05675727 -0.07925367 -0.9952374
vn 0.05675727 -0.07925367 -0.9952374
vn 0.03170085 -0.09143446 -0.9953063
vn 0.03170085 -0.09143446 -0.9953063
vn -0.05165301 0.2914906 -0.9551781
vn -0.05165301 0.2914906 -0.9551781
vn -0.05165301 0.2914906 -0.9551781
vn -0.05165301 0.2914906 -0.9551781
vn -0.05529064 -0.1057904 -0.9928502
vn -0.05529064 -0.1057904 -0.9928502
vn -0.05529064 -0.1057904 -0.9928502
vn -0.05529064 -0.1057904 -0.9928502
vn 0 2.492043E-07 -1
vn 0 2.492043E-07 -1
vn 0 2.492043E-07 -1
vn 0 2.729044E-07 -1
vn 0 2.729044E-07 -1
vn -0.02358738 0.2060524 -0.9782567
vn -0.02358738 0.2060524 -0.9782567
vn -0.02358738 0.2060524 -0.9782567
vn -0.02358738 0.2060524 -0.9782567
vn -0.01104626 0.1790591 -0.9837763
vn -0.01104626 0.1790591 -0.9837763
vn -0.01104626 0.1790591 -0.9837763
vn -0.01104626 0.1790591 -0.9837763
vn 0.2135377 0.3564284 -0.9095936
vn 0.2135377 0.3564284 -0.9095936
vn 0.2135377 0.3564284 -0.9095936
vn 0.2135377 0.3564284 -0.9095936
vn -0.02421113 0.1263411 0.9916914
vn -0.02421113 0.1263411 0.9916914
vn -0.02421113 0.1263411 0.9916914
vn -0.02421113 0.1263411 0.9916914
vn -0.02106557 0.1454359 0.9891433
vn -0.02106557 0.1454359 0.9891433
vn 0 -1.645342E-07 1
vn 0 -1.645342E-07 1
vn 0 -1.645342E-07 1
vn 0 -1.645342E-07 1
vn 0.001886408 -0.03547074 0.999369
vn 0.001886408 -0.03547074 0.999369
vn 0.001886408 -0.03547074 0.999369
vn 0.001886408 -0.03547074 0.999369
vn -0.005470638 0.04716283 0.9988722
vn -0.005470638 0.04716283 0.9988722
vn -0.005470638 0.04716283 0.9988722
vn -0.005470638 0.04716283 0.9988722
vn -0.001232115 0.01581737 0.9998741
vn -0.001232115 0.01581737 0.9998741
vn -0.001232115 0.01581737 0.9998741
vn -0.001232115 0.01581737 0.9998741
vn -0.0172176 0.1217311 0.9924138
vn -0.0172176 0.1217311 0.9924138
vn -0.0172176 0.1217311 0.9924138
vn -0.0172176 0.1217311 0.9924138
vn 0 -4.032335E-07 1
vn 0 -4.032335E-07 1
vn 0 -4.032335E-07 1
vn 0 -4.032335E-07 1
vn -0.05675727 0.07925352 0.9952374
vn -0.05675727 0.07925352 0.9952374
vn -0.05675727 0.07925352 0.9952374
vn -0.03170082 0.09143428 0.9953064
vn -0.03170082 0.09143428 0.9953064
vn 0.0516533 -0.2914906 0.9551781
vn 0.0516533 -0.2914906 0.9551781
vn 0.0516533 -0.2914906 0.9551781
vn 0.0516533 -0.2914906 0.9551781
vn 0.05529067 0.10579 0.9928502
vn 0.05529067 0.10579 0.9928502
vn 0.05529067 0.10579 0.9928502
vn 0.05529067 0.10579 0.9928502
vn 0 -2.492043E-07 1
vn 0 -2.492043E-07 1
vn 0 -2.492043E-07 1
vn 6.275471E-07 -3.132875E-07 1
vn 6.275471E-07 -3.132875E-07 1
vn 0.02358687 -0.2060524 0.9782567
vn 0.02358687 -0.2060524 0.9782567
vn 0.02358687 -0.2060524 0.9782567
vn 0.02358687 -0.2060524 0.9782567
vn 0.01104634 -0.1790591 0.9837763
vn 0.01104634 -0.1790591 0.9837763
vn 0.01104634 -0.1790591 0.9837763
vn 0.01104634 -0.1790591 0.9837763
vn -0.2135373 -0.3564286 0.9095936
vn -0.2135373 -0.3564286 0.9095936
vn -0.2135373 -0.3564286 0.9095936
vn -0.2135373 -0.3564286 0.9095936
g grass_0
f 3/3/3 2/2/2 1/1/1
f 6/6/6 5/5/5 4/4/4
f 9/9/9 8/8/8 7/7/7
f 12/12/12 11/11/11 10/10/10
f 15/15/15 14/14/14 13/13/13
f 18/18/18 17/17/17 16/16/16
f 21/21/21 20/20/20 19/19/19
f 24/24/24 23/23/23 22/22/22
f 27/27/27 26/26/26 25/25/25
f 30/30/30 29/29/29 28/28/28
f 33/33/33 32/32/32 31/31/31
f 36/36/36 35/35/35 34/34/34
f 39/39/39 38/38/38 37/37/37
f 42/42/42 41/41/41 40/40/40
f 45/45/45 44/44/44 43/43/43
f 48/48/48 47/47/47 46/46/46
f 51/51/51 50/50/50 49/49/49
f 52/52/52 51/51/51 49/49/49
f 53/53/53 51/51/51 52/52/52
f 54/54/54 53/53/53 52/52/52
f 57/57/57 56/56/56 55/55/55
f 58/58/58 57/57/57 55/55/55
f 61/61/61 60/60/60 59/59/59
f 62/62/62 61/61/61 59/59/59
f 65/65/65 64/64/64 63/63/63
f 66/66/66 65/65/65 63/63/63
f 69/69/69 68/68/68 67/67/67
f 70/70/70 69/69/69 67/67/67
f 73/73/73 72/72/72 71/71/71
f 74/74/74 73/73/73 71/71/71
f 77/77/77 76/76/76 75/75/75
f 78/78/78 77/77/77 75/75/75
f 81/81/81 80/80/80 79/79/79
f 82/82/82 81/81/81 79/79/79
f 83/83/83 82/82/82 79/79/79
f 86/86/86 85/85/85 84/84/84
f 87/87/87 86/86/86 84/84/84
f 90/90/90 89/89/89 88/88/88
f 91/91/91 90/90/90 88/88/88
f 94/94/94 93/93/93 92/92/92
f 94/94/94 95/95/95 93/93/93
f 95/95/95 96/96/96 93/93/93
f 99/99/99 98/98/98 97/97/97
f 100/100/100 99/99/99 97/97/97
f 103/103/103 102/102/102 101/101/101
f 104/104/104 103/103/103 101/101/101
f 107/107/107 106/106/106 105/105/105
f 108/108/108 107/107/107 105/105/105
f 111/111/111 110/110/110 109/109/109
f 110/110/110 112/112/112 109/109/109
f 110/110/110 113/113/113 112/112/112
f 113/113/113 114/114/114 112/112/112
f 117/117/117 116/116/116 115/115/115
f 118/118/118 117/117/117 115/115/115
f 121/121/121 120/120/120 119/119/119
f 122/122/122 121/121/121 119/119/119
f 125/125/125 124/124/124 123/123/123
f 126/126/126 125/125/125 123/123/123
f 129/129/129 128/128/128 127/127/127
f 130/130/130 129/129/129 127/127/127
f 133/133/133 132/132/132 131/131/131
f 134/134/134 133/133/133 131/131/131
f 137/137/137 136/136/136 135/135/135
f 138/138/138 137/137/137 135/135/135
f 141/141/141 140/140/140 139/139/139
f 140/140/140 142/142/142 139/139/139
f 142/142/142 143/143/143 139/139/139
f 146/146/146 145/145/145 144/144/144
f 147/147/147 146/146/146 144/144/144
f 150/150/150 149/149/149 148/148/148
f 151/151/151 150/150/150 148/148/148
f 154/154/154 153/153/153 152/152/152
f 155/155/155 153/153/153 154/154/154
f 156/156/156 155/155/155 154/154/154
f 159/159/159 158/158/158 157/157/157
f 160/160/160 159/159/159 157/157/157
f 163/163/163 162/162/162 161/161/161
f 164/164/164 163/163/163 161/161/161
f 167/167/167 166/166/166 165/165/165
f 168/168/168 167/167/167 165/165/165
