g Grass
v -0.333451 0.4920475 -0.1490479
v -0.2742894 0.4954523 -0.2058973
v -0.4051611 0.4961644 -0.2827387
v -0.2442689 0.3083743 -0.03012723
v -0.1480892 0.3139096 -0.1225478
v -0.1775077 0.08552699 0.006222093
v -0.1010585 0.08992676 -0.06723918
v -0.1598636 -0.002195218 -0.0004505091
v -0.1031449 0.001069039 -0.05495248
v -0.104772 0.009704527 -0.04808344
v -0.1010585 0.08992676 -0.06723918
v -0.1031449 0.001069039 -0.05495248
v -0.1026856 0.09856222 -0.06037013
v -0.1614908 0.006440287 0.006418535
v -0.1480892 0.3139096 -0.1225478
v -0.1791349 0.09416245 0.01309118
v -0.1598636 -0.002195218 -0.0004505091
v -0.1775077 0.08552699 0.006222093
v -0.1497163 0.3225451 -0.1156788
v -0.2742894 0.4954523 -0.2058973
v -0.245896 0.3170098 -0.0232582
v -0.2442689 0.3083743 -0.03012723
v -0.2759166 0.5040878 -0.1990282
v -0.4051611 0.4961644 -0.2827387
v -0.3350782 0.5006831 -0.1421789
v -0.333451 0.4920475 -0.1490479
v -0.4067883 0.5047998 -0.2758697
v -0.01048309 0.5679569 -0.4033633
v 0.0902124 0.5679569 -0.3997592
v 0.04624142 0.5491657 -0.5797299
v -0.04938676 0.36731 -0.1977351
v 0.1143149 0.36731 -0.1918759
v -0.03694245 0.1057502 -0.07568285
v 0.09317724 0.1057502 -0.0710256
v -0.02094443 -0.0007715807 -0.05291944
v 0.07559329 -0.0007715835 -0.04946416
v 0.0739661 0.007863931 -0.0425951
v 0.09317724 0.1057502 -0.0710256
v 0.07559329 -0.0007715835 -0.04946416
v 0.09155007 0.1143857 -0.06415658
v -0.02257157 0.007863916 -0.0460504
v 0.1143149 0.36731 -0.1918759
v -0.03856961 0.1143857 -0.0688138
v -0.02094443 -0.0007715807 -0.05291944
v -0.03694245 0.1057502 -0.07568285
v 0.1126878 0.3759455 -0.1850069
v 0.0902124 0.5679569 -0.3997592
v -0.0510139 0.3759455 -0.1908661
v -0.04938676 0.36731 -0.1977351
v 0.08858524 0.5765922 -0.39289
v 0.04624142 0.5491657 -0.5797299
v -0.01211022 0.5765923 -0.3964942
v -0.01048309 0.5679569 -0.4033633
v 0.04461431 0.5578011 -0.5728608
v 0.3035528 0.4117337 -0.2113219
v 0.3412026 0.4117338 -0.1487765
v 0.4330443 0.3981192 -0.2466662
v 0.1633506 0.2663603 -0.1535843
v 0.2245584 0.2663603 -0.05190354
v 0.09419125 0.07685393 -0.0977443
v 0.1428427 0.07685392 -0.01692248
v 0.08670366 -0.0003237175 -0.0790282
v 0.1227989 -0.0003237077 -0.01906533
v 0.1211717 0.008311797 -0.01219627
v 0.1428427 0.07685392 -0.01692248
v 0.1227989 -0.0003237077 -0.01906533
v 0.1412156 0.08548938 -0.01005344
v 0.08507648 0.008311785 -0.07215914
v 0.2245584 0.2663603 -0.05190354
v 0.09256411 0.08548941 -0.09087526
v 0.08670366 -0.0003237175 -0.0790282
v 0.09419125 0.07685393 -0.0977443
v 0.2229312 0.2749958 -0.04503452
v 0.3412026 0.4117338 -0.1487765
v 0.1617235 0.2749958 -0.1467153
v 0.1633506 0.2663603 -0.1535843
v 0.3395755 0.4203693 -0.1419074
v 0.4330443 0.3981192 -0.2466662
v 0.3019257 0.4203693 -0.2044529
v 0.3035528 0.4117337 -0.2113219
v 0.4314172 0.4067546 -0.2397971
vt 0.5209811 0.1045554
vt 0.5236955 0.1047136
vt 0.522057 0.1094639
vt 0.5205842 0.09674192
vt 0.5249971 0.096999
vt 0.5214894 0.08899859
vt 0.5249971 0.08920293
vt 0.5221128 0.0860938
vt 0.5247151 0.0862454
vt 0.5247151 0.0862454
vt 0.5249971 0.08920293
vt 0.5247151 0.0862454
vt 0.5249971 0.08920293
vt 0.5221128 0.0860938
vt 0.5249971 0.096999
vt 0.5214894 0.08899859
vt 0.5221128 0.0860938
vt 0.5214894 0.08899859
vt 0.5249971 0.096999
vt 0.5236955 0.1047136
vt 0.5205842 0.09674192
vt 0.5205842 0.09674192
vt 0.5236955 0.1047136
vt 0.522057 0.1094639
vt 0.5209811 0.1045554
vt 0.5209811 0.1045554
vt 0.522057 0.1094639
vt 0.5209811 0.1045554
vt 0.5236955 0.1047136
vt 0.522057 0.1094639
vt 0.5205842 0.09674192
vt 0.5249971 0.096999
vt 0.5214894 0.08899859
vt 0.5249971 0.08920293
vt 0.5221128 0.0860938
vt 0.5247151 0.0862454
vt 0.5247151 0.0862454
vt 0.5249971 0.08920293
vt 0.5247151 0.0862454
vt 0.5249971 0.08920293
vt 0.5221128 0.0860938
vt 0.5249971 0.096999
vt 0.5214894 0.08899859
vt 0.5221128 0.0860938
vt 0.5214894 0.08899859
vt 0.5249971 0.096999
vt 0.5236955 0.1047136
vt 0.5205842 0.09674192
vt 0.5205842 0.09674192
vt 0.5236955 0.1047136
vt 0.522057 0.1094639
vt 0.5209811 0.1045554
vt 0.5209811 0.1045554
vt 0.522057 0.1094639
vt 0.5209811 0.1045554
vt 0.5236955 0.1047136
vt 0.522057 0.1094639
vt 0.5205842 0.09674192
vt 0.5249971 0.096999
vt 0.5214894 0.08899859
vt 0.5249971 0.08920293
vt 0.5221128 0.0860938
vt 0.5247151 0.0862454
vt 0.5247151 0.0862454
vt 0.5249971 0.08920293
vt 0.5247151 0.0862454
vt 0.5249971 0.08920293
vt 0.5221128 0.0860938
vt 0.5249971 0.096999
vt 0.5214894 0.08899859
vt 0.5221128 0.0860938
vt 0.5214894 0.08899859
vt 0.5249971 0.096999
vt 0.5236955 0.1047136
vt 0.5205842 0.09674192
vt 0.5205842 0.09674192
vt 0.5236955 0.1047136
vt 0.522057 0.1094639
vt 0.5209811 0.1045554
vt 0.5209811 0.1045554
vt 0.522057 0.1094639
vn -0.7317623 -0.6809284 0.02933366
vn 0.4712183 -0.1193739 -0.8739012
vn -0.4678256 -0.3353168 -0.8177419
vn -0.8771751 -0.4142328 -0.2428477
vn 0.5022898 -0.1701894 -0.8477857
vn -0.9099174 -0.2303917 -0.3449201
vn 0.5433617 -0.2067373 -0.8136447
vn -0.8136339 -0.1203869 -0.5687767
vn -0.3364896 -0.1212265 -0.9338516
vn 0.8902222 0.04181887 0.4536031
vn 0.5433617 -0.2067373 -0.8136447
vn -0.3364896 -0.1212265 -0.9338516
vn 0.8933766 0.191042 0.4066707
vn -0.7012526 -0.193245 0.6862224
vn 0.5022898 -0.1701894 -0.8477857
vn -0.2994246 -0.0468507 0.952969
vn -0.8136339 -0.1203869 -0.5687767
vn -0.9099174 -0.2303917 -0.3449201
vn 0.8480746 0.4763709 0.2320349
vn 0.4712183 -0.1193739 -0.8739012
vn -0.3240424 0.2091893 0.9226247
vn -0.8771751 -0.4142328 -0.2428477
vn 0.5341836 0.8427919 -0.06595213
vn -0.4678256 -0.3353168 -0.8177419
vn -0.4552087 0.5734891 0.6810986
vn -0.7317623 -0.6809284 0.02933366
vn -0.7704813 0.5680145 -0.2893409
vn -0.7688006 -0.4775445 -0.4253197
vn 0.871987 -0.3265208 -0.3647229
vn 0.07840816 -0.3657843 -0.9273911
vn -0.6959785 -0.394378 -0.6000665
vn 0.8269647 -0.3355202 -0.4511713
vn -0.6899846 -0.3071678 -0.6554152
vn 0.8295646 -0.2903539 -0.4769875
vn -0.4088746 -0.2490239 -0.877957
vn 0.5387288 -0.2516724 -0.80401
vn 0.640083 0.04953093 0.7667075
vn 0.8295646 -0.2903539 -0.4769875
vn 0.5387288 -0.2516724 -0.80401
vn 0.5933645 0.201819 0.7792225
vn -0.8205993 -0.001113473 0.5715029
vn 0.8269647 -0.3355202 -0.4511713
vn -0.7426339 0.1593723 0.6504579
vn -0.4088746 -0.2490239 -0.877957
vn -0.6899846 -0.3071678 -0.6554152
vn 0.6253356 0.4615625 0.6292182
vn 0.871987 -0.3265208 -0.3647229
vn -0.7495793 0.4137982 0.5166255
vn -0.6959785 -0.394378 -0.6000665
vn 0.568464 0.7917745 0.2234768
vn 0.07840816 -0.3657843 -0.9273911
vn -0.6581308 0.7395638 0.1411004
vn -0.7688006 -0.4775445 -0.4253197
vn -0.1006092 0.7450309 -0.6593987
vn -0.1882789 -0.1819343 -0.9651172
vn 0.651808 -0.6826802 0.330294
vn 0.681181 -0.3924762 -0.6180251
vn -0.2015496 -0.2514423 -0.9466543
vn 0.8761405 -0.4688448 0.1120825
vn -0.2213489 -0.2635335 -0.9389115
vn 0.9465756 -0.3202894 0.03754047
vn 0.4213905 -0.2521357 -0.8711244
vn 0.9440678 -0.2388728 -0.2273231
vn 0.2632727 -0.09502999 0.9600296
vn 0.9465756 -0.3202894 0.03754047
vn 0.9440678 -0.2388728 -0.2273231
vn -0.02399995 0.08436016 0.9961462
vn -0.9901401 0.1153393 0.07949383
vn 0.8761405 -0.4688448 0.1120825
vn -0.9640648 0.2595875 0.05651202
vn 0.4213905 -0.2521357 -0.8711244
vn -0.2213489 -0.2635335 -0.9389115
vn 0.05400715 0.331053 0.9420654
vn 0.651808 -0.6826802 0.330294
vn -0.8474182 0.524071 -0.08504137
vn -0.2015496 -0.2514423 -0.9466543
vn 0.2981581 0.6504559 0.6985763
vn 0.681181 -0.3924762 -0.6180251
vn -0.4428369 0.8508654 -0.2827077
vn -0.1882789 -0.1819343 -0.9651172
vn 0.8221829 0.5649589 -0.06954695
g Grass_0
f 3/3/3 2/2/2 1/1/1
f 1/1/1 2/2/2 4/4/4
f 2/2/2 5/5/5 4/4/4
f 4/4/4 5/5/5 6/6/6
f 5/5/5 7/7/7 6/6/6
f 6/6/6 7/7/7 8/8/8
f 7/7/7 9/9/9 8/8/8
f 12/12/12 11/11/11 10/10/10
f 11/11/11 13/13/13 10/10/10
f 10/10/10 13/13/13 14/14/14
f 11/11/11 15/15/15 13/13/13
f 13/13/13 16/16/16 14/14/14
f 17/17/17 14/14/14 16/16/16
f 18/18/18 17/17/17 16/16/16
f 15/15/15 19/19/19 13/13/13
f 13/13/13 19/19/19 16/16/16
f 15/15/15 20/20/20 19/19/19
f 18/18/18 16/16/16 21/21/21
f 19/19/19 21/21/21 16/16/16
f 22/22/22 18/18/18 21/21/21
f 20/20/20 23/23/23 19/19/19
f 19/19/19 23/23/23 21/21/21
f 20/20/20 24/24/24 23/23/23
f 22/22/22 21/21/21 25/25/25
f 23/23/23 25/25/25 21/21/21
f 26/26/26 22/22/22 25/25/25
f 24/24/24 26/26/26 27/27/27
f 24/24/24 27/27/27 23/23/23
f 23/23/23 27/27/27 25/25/25
f 26/26/26 25/25/25 27/27/27
f 30/30/30 29/29/29 28/28/28
f 28/28/28 29/29/29 31/31/31
f 29/29/29 32/32/32 31/31/31
f 31/31/31 32/32/32 33/33/33
f 32/32/32 34/34/34 33/33/33
f 33/33/33 34/34/34 35/35/35
f 34/34/34 36/36/36 35/35/35
f 39/39/39 38/38/38 37/37/37
f 38/38/38 40/40/40 37/37/37
f 37/37/37 40/40/40 41/41/41
f 38/38/38 42/42/42 40/40/40
f 40/40/40 43/43/43 41/41/41
f 44/44/44 41/41/41 43/43/43
f 45/45/45 44/44/44 43/43/43
f 42/42/42 46/46/46 40/40/40
f 40/40/40 46/46/46 43/43/43
f 42/42/42 47/47/47 46/46/46
f 45/45/45 43/43/43 48/48/48
f 46/46/46 48/48/48 43/43/43
f 49/49/49 45/45/45 48/48/48
f 47/47/47 50/50/50 46/46/46
f 46/46/46 50/50/50 48/48/48
f 47/47/47 51/51/51 50/50/50
f 49/49/49 48/48/48 52/52/52
f 50/50/50 52/52/52 48/48/48
f 53/53/53 49/49/49 52/52/52
f 51/51/51 54/54/54 50/50/50
f 50/50/50 54/54/54 52/52/52
f 53/53/53 52/52/52 54/54/54
f 51/51/51 53/53/53 54/54/54
f 57/57/57 56/56/56 55/55/55
f 55/55/55 56/56/56 58/58/58
f 56/56/56 59/59/59 58/58/58
f 58/58/58 59/59/59 60/60/60
f 59/59/59 61/61/61 60/60/60
f 60/60/60 61/61/61 62/62/62
f 61/61/61 63/63/63 62/62/62
f 66/66/66 65/65/65 64/64/64
f 65/65/65 67/67/67 64/64/64
f 64/64/64 67/67/67 68/68/68
f 65/65/65 69/69/69 67/67/67
f 67/67/67 70/70/70 68/68/68
f 71/71/71 68/68/68 70/70/70
f 72/72/72 71/71/71 70/70/70
f 69/69/69 73/73/73 67/67/67
f 67/67/67 73/73/73 70/70/70
f 69/69/69 74/74/74 73/73/73
f 72/72/72 70/70/70 75/75/75
f 73/73/73 75/75/75 70/70/70
f 76/76/76 72/72/72 75/75/75
f 74/74/74 77/77/77 73/73/73
f 73/73/73 77/77/77 75/75/75
f 74/74/74 78/78/78 77/77/77
f 76/76/76 75/75/75 79/79/79
f 77/77/77 79/79/79 75/75/75
f 80/80/80 76/76/76 79/79/79
f 78/78/78 80/80/80 81/81/81
f 78/78/78 81/81/81 77/77/77
f 77/77/77 81/81/81 79/79/79
f 80/80/80 79/79/79 81/81/81
