g GroundWall_Chamfer_NoSmooth
v -0.51 -0.2500001 0.5099999
v -0.535 -0.2353554 0.535
v -0.51 -0.2353554 0.5453553
v -0.51 -0.2500001 0.5099999
v -0.5453553 -0.2353554 0.5099999
v -0.535 -0.2353554 0.535
v -0.51 -0.2499999 -0.5100001
v -0.535 -0.2353553 -0.535
v -0.5453553 -0.2353553 -0.5100001
v -0.51 -0.2499999 -0.5100001
v -0.51 -0.2353553 -0.5453554
v -0.535 -0.2353553 -0.535
v 0.51 -0.2499999 -0.5100001
v 0.535 -0.2353553 -0.535
v 0.51 -0.2353553 -0.5453554
v 0.51 -0.2499999 -0.5100001
v 0.5453553 -0.2353553 -0.5100001
v 0.535 -0.2353553 -0.535
v 0.51 -0.2500001 0.5099999
v 0.535 -0.2353554 0.535
v 0.5453553 -0.2353554 0.5099999
v 0.51 -0.2500001 0.5099999
v 0.51 -0.2353554 0.5453553
v 0.535 -0.2353554 0.535
v -0.51 0.2353552 0.5453554
v -0.535 0.2353552 0.535
v -0.51 0.2499999 0.5100001
v -0.535 0.2353552 0.535
v -0.5453553 0.2353553 0.5100001
v -0.51 0.2499999 0.5100001
v -0.5453553 0.2353554 -0.5099999
v -0.535 0.2353554 -0.535
v -0.51 0.2500001 -0.5099999
v -0.535 0.2353554 -0.535
v -0.51 0.2353554 -0.5453553
v -0.51 0.2500001 -0.5099999
v 0.51 0.2353554 -0.5453553
v 0.535 0.2353554 -0.535
v 0.51 0.2500001 -0.5099999
v 0.535 0.2353554 -0.535
v 0.5453553 0.2353554 -0.5099999
v 0.51 0.2500001 -0.5099999
v 0.5453553 0.2353553 0.5100001
v 0.535 0.2353552 0.535
v 0.51 0.2499999 0.5100001
v 0.535 0.2353552 0.535
v 0.51 0.2353552 0.5453554
v 0.51 0.2499999 0.5100001
v -0.51 -0.2500001 0.5099999
v 0.51 -0.2499999 -0.5100001
v -0.51 -0.2499999 -0.5100001
v 0.51 -0.2500001 0.5099999
v -0.51 -0.2500001 0.5099999
v -0.5453553 -0.2353553 -0.5100001
v -0.5453553 -0.2353554 0.5099999
v -0.51 -0.2499999 -0.5100001
v -0.51 -0.2499999 -0.5100001
v 0.51 -0.2353553 -0.5453554
v -0.51 -0.2353553 -0.5453554
v 0.51 -0.2499999 -0.5100001
v 0.51 -0.2499999 -0.5100001
v 0.5453553 -0.2353554 0.5099999
v 0.5453553 -0.2353553 -0.5100001
v 0.51 -0.2500001 0.5099999
v 0.51 -0.2500001 0.5099999
v -0.51 -0.2353554 0.5453553
v 0.51 -0.2353554 0.5453553
v -0.51 -0.2500001 0.5099999
v -0.51 -0.2353554 0.5453553
v -0.5453553 -0.2000001 0.5453553
v -0.51 -0.2000001 0.5599999
v -0.535 -0.2353554 0.535
v -0.535 -0.2353554 0.535
v -0.56 -0.2000001 0.5099999
v -0.5453553 -0.2000001 0.5453553
v -0.5453553 -0.2353554 0.5099999
v -0.5453553 -0.2353554 0.5099999
v -0.56 -0.1999999 -0.5100001
v -0.56 -0.2000001 0.5099999
v -0.5453553 -0.2353553 -0.5100001
v -0.5453553 -0.2353553 -0.5100001
v -0.5453553 -0.1999999 -0.5453554
v -0.56 -0.1999999 -0.5100001
v -0.535 -0.2353553 -0.535
v -0.535 -0.2353553 -0.535
v -0.51 -0.1999999 -0.56
v -0.5453553 -0.1999999 -0.5453554
v -0.51 -0.2353553 -0.5453554
v -0.51 -0.2353553 -0.5453554
v 0.51 -0.1999999 -0.56
v -0.51 -0.1999999 -0.56
v 0.51 -0.2353553 -0.5453554
v 0.51 -0.2353553 -0.5453554
v 0.5453553 -0.1999999 -0.5453554
v 0.51 -0.1999999 -0.56
v 0.535 -0.2353553 -0.535
v 0.535 -0.2353553 -0.535
v 0.56 -0.1999999 -0.5100001
v 0.5453553 -0.1999999 -0.5453554
v 0.5453553 -0.2353553 -0.5100001
v 0.5453553 -0.2353553 -0.5100001
v 0.56 -0.2000001 0.5099999
v 0.56 -0.1999999 -0.5100001
v 0.5453553 -0.2353554 0.5099999
v 0.5453553 -0.2353554 0.5099999
v 0.5453553 -0.2000001 0.5453553
v 0.56 -0.2000001 0.5099999
v 0.535 -0.2353554 0.535
v 0.535 -0.2353554 0.535
v 0.51 -0.2000001 0.5599999
v 0.5453553 -0.2000001 0.5453553
v 0.51 -0.2353554 0.5453553
v 0.51 -0.2353554 0.5453553
v -0.51 -0.2000001 0.5599999
v 0.51 -0.2000001 0.5599999
v -0.51 -0.2353554 0.5453553
v -0.51 -0.2000001 0.5599999
v -0.5453553 0.1999999 0.5453554
v -0.51 0.1999999 0.56
v -0.5453553 -0.2000001 0.5453553
v -0.5453553 -0.2000001 0.5453553
v -0.56 0.1999999 0.5100001
v -0.5453553 0.1999999 0.5453554
v -0.56 -0.2000001 0.5099999
v -0.56 -0.2000001 0.5099999
v -0.56 0.2000001 -0.5099999
v -0.56 0.1999999 0.5100001
v -0.56 -0.1999999 -0.5100001
v -0.56 -0.1999999 -0.5100001
v -0.5453553 0.2000001 -0.5453553
v -0.56 0.2000001 -0.5099999
v -0.5453553 -0.1999999 -0.5453554
v -0.5453553 -0.1999999 -0.5453554
v -0.51 0.2000001 -0.5599999
v -0.5453553 0.2000001 -0.5453553
v -0.51 -0.1999999 -0.56
v -0.51 -0.1999999 -0.56
v 0.51 0.2000001 -0.5599999
v -0.51 0.2000001 -0.5599999
v 0.51 -0.1999999 -0.56
v 0.51 -0.1999999 -0.56
v 0.5453553 0.2000001 -0.5453553
v 0.51 0.2000001 -0.5599999
v 0.5453553 -0.1999999 -0.5453554
v 0.5453553 -0.1999999 -0.5453554
v 0.56 0.2000001 -0.5099999
v 0.5453553 0.2000001 -0.5453553
v 0.56 -0.1999999 -0.5100001
v 0.56 -0.1999999 -0.5100001
v 0.56 0.1999999 0.5100001
v 0.56 0.2000001 -0.5099999
v 0.56 -0.2000001 0.5099999
v 0.56 -0.2000001 0.5099999
v 0.5453553 0.1999999 0.5453554
v 0.56 0.1999999 0.5100001
v 0.5453553 -0.2000001 0.5453553
v 0.5453553 -0.2000001 0.5453553
v 0.51 0.1999999 0.56
v 0.5453553 0.1999999 0.5453554
v 0.51 -0.2000001 0.5599999
v 0.51 -0.2000001 0.5599999
v -0.51 0.1999999 0.56
v 0.51 0.1999999 0.56
v -0.51 -0.2000001 0.5599999
v -0.51 0.1999999 0.56
v -0.535 0.2353552 0.535
v -0.51 0.2353552 0.5453554
v -0.5453553 0.1999999 0.5453554
v -0.5453553 0.1999999 0.5453554
v -0.5453553 0.2353553 0.5100001
v -0.535 0.2353552 0.535
v -0.56 0.1999999 0.5100001
v -0.56 0.1999999 0.5100001
v -0.5453553 0.2353554 -0.5099999
v -0.5453553 0.2353553 0.5100001
v -0.56 0.2000001 -0.5099999
v -0.56 0.2000001 -0.5099999
v -0.535 0.2353554 -0.535
v -0.5453553 0.2353554 -0.5099999
v -0.5453553 0.2000001 -0.5453553
v -0.5453553 0.2000001 -0.5453553
v -0.51 0.2353554 -0.5453553
v -0.535 0.2353554 -0.535
v -0.51 0.2000001 -0.5599999
v -0.51 0.2000001 -0.5599999
v 0.51 0.2353554 -0.5453553
v -0.51 0.2353554 -0.5453553
v 0.51 0.2000001 -0.5599999
v 0.51 0.2000001 -0.5599999
v 0.535 0.2353554 -0.535
v 0.51 0.2353554 -0.5453553
v 0.5453553 0.2000001 -0.5453553
v 0.5453553 0.2000001 -0.5453553
v 0.5453553 0.2353554 -0.5099999
v 0.535 0.2353554 -0.535
v 0.56 0.2000001 -0.5099999
v 0.56 0.2000001 -0.5099999
v 0.5453553 0.2353553 0.5100001
v 0.5453553 0.2353554 -0.5099999
v 0.56 0.1999999 0.5100001
v 0.56 0.1999999 0.5100001
v 0.535 0.2353552 0.535
v 0.5453553 0.2353553 0.5100001
v 0.5453553 0.1999999 0.5453554
v 0.5453553 0.1999999 0.5453554
v 0.51 0.2353552 0.5453554
v 0.535 0.2353552 0.535
v 0.51 0.1999999 0.56
v 0.51 0.1999999 0.56
v -0.51 0.2353552 0.5453554
v 0.51 0.2353552 0.5453554
v -0.51 0.1999999 0.56
v -0.5453553 0.2353553 0.5100001
v -0.51 0.2500001 -0.5099999
v -0.51 0.2499999 0.5100001
v -0.5453553 0.2353554 -0.5099999
v -0.51 0.2353554 -0.5453553
v 0.51 0.2500001 -0.5099999
v -0.51 0.2500001 -0.5099999
v 0.51 0.2353554 -0.5453553
v 0.5453553 0.2353554 -0.5099999
v 0.51 0.2499999 0.5100001
v 0.51 0.2500001 -0.5099999
v 0.5453553 0.2353553 0.5100001
v 0.51 0.2353552 0.5453554
v -0.51 0.2499999 0.5100001
v 0.51 0.2499999 0.5100001
v -0.51 0.2353552 0.5453554
v 0.51 0.2499999 0.5100001
v -0.51 0.2500001 -0.5099999
v 0.51 0.2500001 -0.5099999
v -0.51 0.2499999 0.5100001
vt 0.04464286 0.9553571
vt 0.02232143 0.9776786
vt 0.04464286 0.9869245
vt 0.04464286 0.9553571
vt 0.01307559 0.9553571
vt 0.02232143 0.9776786
vt 0.04464286 0.04464286
vt 0.02232143 0.02232143
vt 0.01307559 0.04464286
vt 0.04464286 0.04464286
vt 0.04464286 0.01307559
vt 0.02232143 0.02232143
vt 0.9553571 0.04464286
vt 0.9776786 0.02232143
vt 0.9553571 0.01307559
vt 0.9553571 0.04464286
vt 0.9869245 0.04464286
vt 0.9776786 0.02232143
vt 0.9553571 0.9553571
vt 0.9776786 0.9776786
vt 0.9869245 0.9553571
vt 0.9553571 0.9553571
vt 0.9553571 0.9869245
vt 0.9776786 0.9776786
vt 0.04464286 0.01307553
vt 0.02232143 0.0223214
vt 0.04464286 0.04464287
vt 0.02232143 0.0223214
vt 0.01307559 0.04464287
vt 0.04464286 0.04464287
vt 0.01307559 0.9553571
vt 0.02232143 0.9776786
vt 0.04464286 0.9553571
vt 0.02232143 0.9776786
vt 0.04464286 0.9869244
vt 0.04464286 0.9553571
vt 0.9553571 0.9869244
vt 0.9776786 0.9776786
vt 0.9553571 0.9553571
vt 0.9776786 0.9776786
vt 0.9869245 0.9553571
vt 0.9553571 0.9553571
vt 0.9869245 0.04464287
vt 0.9776786 0.0223214
vt 0.9553571 0.04464287
vt 0.9776786 0.0223214
vt 0.9553571 0.01307553
vt 0.9553571 0.04464287
vt 0.04464286 0.9553571
vt 0.9553571 0.04464286
vt 0.04464286 0.04464286
vt 0.9553571 0.9553571
vt 0.04464286 0.9553571
vt 0.01307559 0.04464286
vt 0.01307559 0.9553571
vt 0.04464286 0.04464286
vt 0.04464286 0.04464286
vt 0.9553571 0.01307559
vt 0.04464286 0.01307559
vt 0.9553571 0.04464286
vt 0.9553571 0.04464286
vt 0.9869245 0.9553571
vt 0.9869245 0.04464286
vt 0.9553571 0.9553571
vt 0.9553571 0.9553571
vt 0.04464286 0.9869245
vt 0.9553571 0.9869245
vt 0.04464286 0.9553571
vt 0.04464286 0.9869245
vt 0.01307559 0.9869245
vt 0.04464286 1
vt 0.02232143 0.9776786
vt 0.02232143 0.9776786
vt 0 0.9553571
vt 0.01307559 0.9869245
vt 0.01307559 0.9553571
vt 0.01307559 0.9553571
vt 0 0.04464286
vt 0 0.9553571
vt 0.01307559 0.04464286
vt 0.01307559 0.04464286
vt 0.01307559 0.01307559
vt 0 0.04464286
vt 0.02232143 0.02232143
vt 0.02232143 0.02232143
vt 0.04464286 0
vt 0.01307559 0.01307559
vt 0.04464286 0.01307559
vt 0.04464286 0.01307559
vt 0.9553571 0
vt 0.04464286 0
vt 0.9553571 0.01307559
vt 0.9553571 0.01307559
vt 0.9869245 0.01307559
vt 0.9553571 0
vt 0.9776786 0.02232143
vt 0.9776786 0.02232143
vt 1 0.04464286
vt 0.9869245 0.01307559
vt 0.9869245 0.04464286
vt 0.9869245 0.04464286
vt 1 0.9553571
vt 1 0.04464286
vt 0.9869245 0.9553571
vt 0.9869245 0.9553571
vt 0.9869245 0.9869245
vt 1 0.9553571
vt 0.9776786 0.9776786
vt 0.9776786 0.9776786
vt 0.9553571 1
vt 0.9869245 0.9869245
vt 0.9553571 0.9869245
vt 0.9553571 0.9869245
vt 0.04464286 1
vt 0.9553571 1
vt 0.04464286 0.9869245
vt 0 1
vt 0.008344335 0
vt 0 0
vt 0.008344335 1
vt 0.008344335 1
vt 0.01668867 0
vt 0.008344335 0
vt 0.01668867 1
vt 0.01668867 1
vt 0.2390976 0
vt 0.01668867 0
vt 0.2390976 1
vt 0.2390976 1
vt 0.2474419 0
vt 0.2390976 0
vt 0.2474419 1
vt 0.2474419 1
vt 0.2557863 0
vt 0.2474419 0
vt 0.2557863 1
vt 0.2557863 1
vt 0.4781952 0
vt 0.2557863 0
vt 0.4781952 1
vt 0.4781952 1
vt 0.4865395 0
vt 0.4781952 0
vt 0.4865395 1
vt 0.4865395 1
vt 0.4948838 0
vt 0.4865395 0
vt 0.4948838 1
vt 0.4948838 1
vt 0.7172928 0
vt 0.4948838 0
vt 0.7172928 1
vt 0.7172928 1
vt 0.7256371 0
vt 0.7172928 0
vt 0.7256371 1
vt 0.7256371 1
vt 0.7339815 0
vt 0.7256371 0
vt 0.7339815 1
vt 0.7339815 1
vt 1 0
vt 0.7339815 0
vt 1 1
vt 0.04464286 0
vt 0.02232143 0.0223214
vt 0.04464286 0.01307553
vt 0.01307559 0.01307553
vt 0.01307559 0.01307553
vt 0.01307559 0.04464287
vt 0.02232143 0.0223214
vt 0 0.04464287
vt 0 0.04464287
vt 0.01307559 0.9553571
vt 0.01307559 0.04464287
vt 0 0.9553571
vt 0 0.9553571
vt 0.02232143 0.9776786
vt 0.01307559 0.9553571
vt 0.01307559 0.9869244
vt 0.01307559 0.9869244
vt 0.04464286 0.9869244
vt 0.02232143 0.9776786
vt 0.04464286 1
vt 0.04464286 1
vt 0.9553571 0.9869244
vt 0.04464286 0.9869244
vt 0.9553571 1
vt 0.9553571 1
vt 0.9776786 0.9776786
vt 0.9553571 0.9869244
vt 0.9869245 0.9869244
vt 0.9869245 0.9869244
vt 0.9869245 0.9553571
vt 0.9776786 0.9776786
vt 1 0.9553571
vt 1 0.9553571
vt 0.9869245 0.04464287
vt 0.9869245 0.9553571
vt 1 0.04464287
vt 1 0.04464287
vt 0.9776786 0.0223214
vt 0.9869245 0.04464287
vt 0.9869245 0.01307553
vt 0.9869245 0.01307553
vt 0.9553571 0.01307553
vt 0.9776786 0.0223214
vt 0.9553571 0
vt 0.9553571 0
vt 0.04464286 0.01307553
vt 0.9553571 0.01307553
vt 0.04464286 0
vt 0.01307559 0.04464287
vt 0.04464286 0.9553571
vt 0.04464286 0.04464287
vt 0.01307559 0.9553571
vt 0.04464286 0.9869244
vt 0.9553571 0.9553571
vt 0.04464286 0.9553571
vt 0.9553571 0.9869244
vt 0.9869245 0.9553571
vt 0.9553571 0.04464287
vt 0.9553571 0.9553571
vt 0.9869245 0.04464287
vt 0.9553571 0.01307553
vt 0.04464286 0.04464287
vt 0.9553571 0.04464287
vt 0.04464286 0.01307553
vt 0.9553571 0.04464287
vt 0.04464286 0.9553571
vt 0.9553571 0.9553571
vt 0.04464286 0.04464287
vn -0.156558 -0.912487 0.3779645
vn -0.156558 -0.9124869 0.3779645
vn -0.156558 -0.9124869 0.3779645
vn -0.3779645 -0.912487 0.156558
vn -0.3779645 -0.9124869 0.156558
vn -0.3779645 -0.9124869 0.156558
vn -0.3779645 -0.912487 -0.156558
vn -0.3779645 -0.9124869 -0.156558
vn -0.3779645 -0.9124869 -0.156558
vn -0.156558 -0.912487 -0.3779645
vn -0.156558 -0.9124869 -0.3779645
vn -0.156558 -0.9124869 -0.3779645
vn 0.156558 -0.912487 -0.3779645
vn 0.156558 -0.9124869 -0.3779645
vn 0.156558 -0.9124869 -0.3779645
vn 0.3779645 -0.912487 -0.156558
vn 0.3779645 -0.9124869 -0.156558
vn 0.3779645 -0.9124869 -0.156558
vn 0.3779645 -0.912487 0.156558
vn 0.3779645 -0.9124869 0.156558
vn 0.3779645 -0.9124869 0.156558
vn 0.156558 -0.912487 0.3779645
vn 0.156558 -0.9124869 0.3779645
vn 0.156558 -0.9124869 0.3779645
vn -0.1565582 0.9124867 0.3779649
vn -0.1565582 0.9124867 0.3779649
vn -0.1565582 0.9124867 0.3779649
vn -0.3779644 0.9124868 0.1565587
vn -0.3779644 0.9124868 0.1565587
vn -0.3779644 0.9124868 0.1565587
vn -0.3779645 0.9124871 -0.1565574
vn -0.3779645 0.9124871 -0.1565574
vn -0.3779645 0.9124871 -0.1565573
vn -0.1565578 0.9124871 -0.3779641
vn -0.1565578 0.9124871 -0.3779641
vn -0.1565578 0.9124871 -0.377964
vn 0.1565578 0.9124871 -0.3779641
vn 0.1565578 0.9124871 -0.3779641
vn 0.1565578 0.9124871 -0.377964
vn 0.3779645 0.9124871 -0.1565574
vn 0.3779645 0.9124871 -0.1565574
vn 0.3779645 0.9124871 -0.1565573
vn 0.3779644 0.9124868 0.1565587
vn 0.3779644 0.9124868 0.1565587
vn 0.3779644 0.9124868 0.1565587
vn 0.1565582 0.9124867 0.3779649
vn 0.1565582 0.9124867 0.3779649
vn 0.1565582 0.9124867 0.3779649
vn 0 -1 -1.49596E-07
vn 0 -1 -1.49596E-07
vn 0 -1 -1.49596E-07
vn 0 -1 -1.49596E-07
vn -0.3826834 -0.9238795 -1.382087E-07
vn -0.3826835 -0.9238795 -1.382087E-07
vn -0.3826835 -0.9238795 -1.382087E-07
vn -0.3826835 -0.9238795 -1.380412E-07
vn 0 -0.9238795 -0.3826835
vn 0 -0.9238795 -0.3826835
vn 0 -0.9238795 -0.3826835
vn 0 -0.9238795 -0.3826835
vn 0.3826835 -0.9238795 -1.382087E-07
vn 0.3826835 -0.9238795 -1.382087E-07
vn 0.3826835 -0.9238795 -1.382087E-07
vn 0.3826835 -0.9238795 -1.380412E-07
vn 0 -0.9238795 0.3826835
vn 0 -0.9238795 0.3826835
vn 0 -0.9238795 0.3826835
vn 0 -0.9238795 0.3826835
vn -0.3574067 -0.3574067 0.8628562
vn -0.3574067 -0.3574067 0.8628562
vn -0.3574067 -0.3574067 0.8628562
vn -0.3574067 -0.3574067 0.8628562
vn -0.8628562 -0.3574067 0.3574067
vn -0.8628562 -0.3574067 0.3574067
vn -0.8628562 -0.3574067 0.3574067
vn -0.8628562 -0.3574067 0.3574067
vn -0.9238795 -0.3826834 0
vn -0.9238795 -0.3826835 0
vn -0.9238795 -0.3826835 0
vn -0.9238795 -0.3826835 0
vn -0.8628562 -0.3574067 -0.3574067
vn -0.8628562 -0.3574067 -0.3574067
vn -0.8628562 -0.3574067 -0.3574067
vn -0.8628562 -0.3574067 -0.3574067
vn -0.3574067 -0.3574067 -0.8628562
vn -0.3574067 -0.3574067 -0.8628562
vn -0.3574067 -0.3574067 -0.8628562
vn -0.3574067 -0.3574067 -0.8628562
vn 0 -0.3826835 -0.9238795
vn 0 -0.3826835 -0.9238795
vn 0 -0.3826835 -0.9238795
vn 0 -0.3826835 -0.9238795
vn 0.3574067 -0.3574067 -0.8628562
vn 0.3574067 -0.3574067 -0.8628562
vn 0.3574067 -0.3574067 -0.8628562
vn 0.3574067 -0.3574067 -0.8628562
vn 0.8628562 -0.3574067 -0.3574067
vn 0.8628562 -0.3574067 -0.3574067
vn 0.8628562 -0.3574067 -0.3574067
vn 0.8628562 -0.3574067 -0.3574067
vn 0.9238795 -0.3826835 0
vn 0.9238795 -0.3826835 0
vn 0.9238795 -0.3826835 0
vn 0.9238795 -0.3826835 0
vn 0.8628562 -0.3574067 0.3574067
vn 0.8628562 -0.3574067 0.3574067
vn 0.8628562 -0.3574067 0.3574067
vn 0.8628562 -0.3574067 0.3574067
vn 0.3574067 -0.3574067 0.8628562
vn 0.3574067 -0.3574067 0.8628562
vn 0.3574067 -0.3574067 0.8628562
vn 0.3574067 -0.3574067 0.8628562
vn 0 -0.3826835 0.9238795
vn 0 -0.3826835 0.9238795
vn 0 -0.3826835 0.9238795
vn 0 -0.3826835 0.9238795
vn -0.3826834 -1.76216E-07 0.9238795
vn -0.3826834 -1.76216E-07 0.9238795
vn -0.3826834 -1.76216E-07 0.9238795
vn -0.3826834 -1.76216E-07 0.9238795
vn -0.9238795 0 0.3826834
vn -0.9238795 0 0.3826834
vn -0.9238795 0 0.3826834
vn -0.9238795 0 0.3826834
vn -1 0 0
vn -1 0 0
vn -1 0 0
vn -1 0 0
vn -0.9238795 0 -0.3826834
vn -0.9238795 0 -0.3826834
vn -0.9238795 0 -0.3826834
vn -0.9238795 0 -0.3826834
vn -0.3826834 1.76216E-07 -0.9238795
vn -0.3826834 1.76216E-07 -0.9238795
vn -0.3826834 1.76216E-07 -0.9238795
vn -0.3826834 1.76216E-07 -0.9238795
vn 0 1.907349E-07 -1
vn 0 1.907349E-07 -1
vn 0 1.907349E-07 -1
vn 0 1.907349E-07 -1
vn 0.3826834 1.76216E-07 -0.9238795
vn 0.3826834 1.76216E-07 -0.9238795
vn 0.3826834 1.76216E-07 -0.9238795
vn 0.3826834 1.76216E-07 -0.9238795
vn 0.9238795 0 -0.3826834
vn 0.9238795 0 -0.3826834
vn 0.9238795 0 -0.3826834
vn 0.9238795 0 -0.3826834
vn 1 0 0
vn 1 0 0
vn 1 0 0
vn 1 0 0
vn 0.9238795 0 0.3826834
vn 0.9238795 0 0.3826834
vn 0.9238795 0 0.3826834
vn 0.9238795 0 0.3826834
vn 0.3826834 -1.76216E-07 0.9238795
vn 0.3826834 -1.76216E-07 0.9238795
vn 0.3826834 -1.76216E-07 0.9238795
vn 0.3826834 -1.76216E-07 0.9238795
vn 0 -1.907349E-07 1
vn 0 -1.907349E-07 1
vn 0 -1.907349E-07 1
vn 0 -1.907349E-07 1
vn -0.3574067 0.3574067 0.8628561
vn -0.3574067 0.3574067 0.8628561
vn -0.3574067 0.3574067 0.8628562
vn -0.3574067 0.3574067 0.8628562
vn -0.8628561 0.3574068 0.357407
vn -0.8628561 0.3574068 0.357407
vn -0.8628561 0.3574068 0.357407
vn -0.8628561 0.3574067 0.3574069
vn -0.9238795 0.3826834 0
vn -0.9238795 0.3826835 0
vn -0.9238795 0.3826835 0
vn -0.9238795 0.3826835 0
vn -0.8628563 0.3574068 -0.3574065
vn -0.8628563 0.3574068 -0.3574065
vn -0.8628563 0.3574068 -0.3574065
vn -0.8628563 0.3574067 -0.3574066
vn -0.3574067 0.3574067 -0.8628561
vn -0.3574067 0.3574067 -0.8628561
vn -0.3574067 0.3574067 -0.8628562
vn -0.3574067 0.3574067 -0.8628562
vn 0 0.3826835 -0.9238795
vn 0 0.3826835 -0.9238795
vn 0 0.3826835 -0.9238795
vn 0 0.3826835 -0.9238795
vn 0.3574067 0.3574067 -0.8628561
vn 0.3574067 0.3574067 -0.8628561
vn 0.3574067 0.3574067 -0.8628562
vn 0.3574067 0.3574067 -0.8628562
vn 0.8628563 0.3574067 -0.3574066
vn 0.8628563 0.3574067 -0.3574066
vn 0.8628563 0.3574067 -0.3574065
vn 0.8628563 0.3574068 -0.3574066
vn 0.9238795 0.3826835 0
vn 0.9238795 0.3826835 0
vn 0.9238795 0.3826835 0
vn 0.9238795 0.3826835 0
vn 0.8628561 0.3574067 0.357407
vn 0.8628561 0.3574067 0.3574069
vn 0.8628561 0.3574068 0.357407
vn 0.8628561 0.3574068 0.3574069
vn 0.3574067 0.3574067 0.8628561
vn 0.3574067 0.3574067 0.8628561
vn 0.3574067 0.3574067 0.8628562
vn 0.3574067 0.3574067 0.8628562
vn 0 0.3826835 0.9238795
vn 0 0.3826835 0.9238795
vn 0 0.3826835 0.9238795
vn 0 0.3826835 0.9238795
vn -0.3826834 0.9238795 1.382087E-07
vn -0.3826835 0.9238795 1.382087E-07
vn -0.3826835 0.9238795 1.382087E-07
vn -0.3826835 0.9238795 1.380412E-07
vn 0 0.9238797 -0.382683
vn 0 0.9238797 -0.382683
vn 0 0.9238797 -0.382683
vn 0 0.9238797 -0.382683
vn 0.3826835 0.9238795 1.382087E-07
vn 0.3826835 0.9238795 1.382087E-07
vn 0.3826835 0.9238795 1.382087E-07
vn 0.3826835 0.9238795 1.380412E-07
vn 0 0.9238794 0.3826839
vn 0 0.9238793 0.3826839
vn 0 0.9238794 0.3826839
vn 0 0.9238794 0.3826839
vn 0 1 1.49596E-07
vn 0 1 1.49596E-07
vn 0 1 1.49596E-07
vn 0 1 1.49596E-07
g GroundWall_Chamfer_NoSmooth_0
f 3/3/3 2/2/2 1/1/1
f 6/6/6 5/5/5 4/4/4
f 9/9/9 8/8/8 7/7/7
f 12/12/12 11/11/11 10/10/10
f 15/15/15 14/14/14 13/13/13
f 18/18/18 17/17/17 16/16/16
f 21/21/21 20/20/20 19/19/19
f 24/24/24 23/23/23 22/22/22
f 27/27/27 26/26/26 25/25/25
f 30/30/30 29/29/29 28/28/28
f 33/33/33 32/32/32 31/31/31
f 36/36/36 35/35/35 34/34/34
f 39/39/39 38/38/38 37/37/37
f 42/42/42 41/41/41 40/40/40
f 45/45/45 44/44/44 43/43/43
f 48/48/48 47/47/47 46/46/46
f 51/51/51 50/50/50 49/49/49
f 50/50/50 52/52/52 49/49/49
f 55/55/55 54/54/54 53/53/53
f 54/54/54 56/56/56 53/53/53
f 59/59/59 58/58/58 57/57/57
f 58/58/58 60/60/60 57/57/57
f 63/63/63 62/62/62 61/61/61
f 62/62/62 64/64/64 61/61/61
f 67/67/67 66/66/66 65/65/65
f 66/66/66 68/68/68 65/65/65
f 71/71/71 70/70/70 69/69/69
f 70/70/70 72/72/72 69/69/69
f 75/75/75 74/74/74 73/73/73
f 74/74/74 76/76/76 73/73/73
f 79/79/79 78/78/78 77/77/77
f 78/78/78 80/80/80 77/77/77
f 83/83/83 82/82/82 81/81/81
f 82/82/82 84/84/84 81/81/81
f 87/87/87 86/86/86 85/85/85
f 86/86/86 88/88/88 85/85/85
f 91/91/91 90/90/90 89/89/89
f 90/90/90 92/92/92 89/89/89
f 95/95/95 94/94/94 93/93/93
f 94/94/94 96/96/96 93/93/93
f 99/99/99 98/98/98 97/97/97
f 98/98/98 100/100/100 97/97/97
f 103/103/103 102/102/102 101/101/101
f 102/102/102 104/104/104 101/101/101
f 107/107/107 106/106/106 105/105/105
f 106/106/106 108/108/108 105/105/105
f 111/111/111 110/110/110 109/109/109
f 110/110/110 112/112/112 109/109/109
f 115/115/115 114/114/114 113/113/113
f 114/114/114 116/116/116 113/113/113
f 119/119/119 118/118/118 117/117/117
f 118/118/118 120/120/120 117/117/117
f 123/123/123 122/122/122 121/121/121
f 122/122/122 124/124/124 121/121/121
f 127/127/127 126/126/126 125/125/125
f 126/126/126 128/128/128 125/125/125
f 131/131/131 130/130/130 129/129/129
f 130/130/130 132/132/132 129/129/129
f 135/135/135 134/134/134 133/133/133
f 134/134/134 136/136/136 133/133/133
f 139/139/139 138/138/138 137/137/137
f 138/138/138 140/140/140 137/137/137
f 143/143/143 142/142/142 141/141/141
f 142/142/142 144/144/144 141/141/141
f 147/147/147 146/146/146 145/145/145
f 146/146/146 148/148/148 145/145/145
f 151/151/151 150/150/150 149/149/149
f 150/150/150 152/152/152 149/149/149
f 155/155/155 154/154/154 153/153/153
f 154/154/154 156/156/156 153/153/153
f 159/159/159 158/158/158 157/157/157
f 158/158/158 160/160/160 157/157/157
f 163/163/163 162/162/162 161/161/161
f 162/162/162 164/164/164 161/161/161
f 167/167/167 166/166/166 165/165/165
f 166/166/166 168/168/168 165/165/165
f 171/171/171 170/170/170 169/169/169
f 170/170/170 172/172/172 169/169/169
f 175/175/175 174/174/174 173/173/173
f 174/174/174 176/176/176 173/173/173
f 179/179/179 178/178/178 177/177/177
f 178/178/178 180/180/180 177/177/177
f 183/183/183 182/182/182 181/181/181
f 182/182/182 184/184/184 181/181/181
f 187/187/187 186/186/186 185/185/185
f 186/186/186 188/188/188 185/185/185
f 191/191/191 190/190/190 189/189/189
f 190/190/190 192/192/192 189/189/189
f 195/195/195 194/194/194 193/193/193
f 194/194/194 196/196/196 193/193/193
f 199/199/199 198/198/198 197/197/197
f 198/198/198 200/200/200 197/197/197
f 203/203/203 202/202/202 201/201/201
f 202/202/202 204/204/204 201/201/201
f 207/207/207 206/206/206 205/205/205
f 206/206/206 208/208/208 205/205/205
f 211/211/211 210/210/210 209/209/209
f 210/210/210 212/212/212 209/209/209
f 215/215/215 214/214/214 213/213/213
f 214/214/214 216/216/216 213/213/213
f 219/219/219 218/218/218 217/217/217
f 218/218/218 220/220/220 217/217/217
f 223/223/223 222/222/222 221/221/221
f 222/222/222 224/224/224 221/221/221
f 227/227/227 226/226/226 225/225/225
f 226/226/226 228/228/228 225/225/225
f 231/231/231 230/230/230 229/229/229
f 230/230/230 232/232/232 229/229/229
