g hammer
v 0.02159852 0.5212967 0.02866078
v 0.09214061 0.4988026 0.02089729
v 0.09214061 0.4930977 0.02866078
v 0.02159851 0.5212967 -0.02880269
v -0.0766662 0.5212967 -0.01581119
v -0.0766662 0.5074432 -0.02880268
v -0.07666619 0.4606081 0.01708118
v -0.07666619 0.4739127 0.0286608
v 0.02159852 0.4606081 0.02866079
v -0.07666619 0.5074433 0.02866079
v -0.07666619 0.5212967 0.01708117
v 0.02159852 0.5212967 0.02866078
v 0.02159841 0.4606081 -0.02880268
v -0.0766662 0.4739127 -0.02880267
v -0.0766662 0.4606081 -0.01568747
v 0.02159852 0.4606081 0.02866079
v 0.09214061 0.4878779 0.02866078
v 0.09214061 0.4831022 0.02089742
v 0.09214061 0.4930977 -0.02880269
v 0.09214061 0.4988026 -0.02271948
v 0.02159851 0.5212967 -0.02880269
v 0.09214061 0.4831022 -0.02271948
v 0.09214061 0.4878778 -0.02880269
v 0.02159841 0.4606081 -0.02880268
v 0.02159851 0.5212967 -0.02880269
v 0.02159852 0.5212967 0.02866078
v -0.07666619 0.5212967 0.01708117
v -0.0766662 0.5212967 -0.01581119
v 0.02159851 0.5212967 -0.02880269
v 0.09214061 0.4988026 -0.02271948
v 0.09214061 0.4988026 0.02089729
v 0.02159852 0.5212967 0.02866078
v 0.09214061 0.4878778 -0.02880269
v 0.09214061 0.4831022 -0.02271948
v 0.09214061 0.4831022 0.02089742
v 0.09214061 0.4878779 0.02866078
v 0.09214061 0.4930977 -0.02880269
v 0.09214061 0.4930977 0.02866078
v 0.09214061 0.4988026 -0.02271948
v 0.09214061 0.4988026 0.02089729
v -0.0766662 0.4739127 -0.02880267
v -0.08283245 0.4758607 -0.02551809
v -0.08283245 0.464077 -0.01390221
v -0.0766662 0.4606081 -0.01568747
v -0.01509156 0.1254378 0.01252173
v -0.01509156 0.1254378 -0.01252274
v -0.01790873 0.2031904 -0.01533806
v -0.01790873 0.2031904 0.01533773
v -0.01790873 0.2031904 0.01533773
v -0.01790873 0.2031904 -0.01533806
v -0.01322026 0.4739127 -0.01065177
v -0.01322026 0.4739127 0.01065145
v -0.01322026 0.5238721 -0.00666529
v -0.01322026 0.5238721 0.006664955
v 0.02040622 0.01475019 0.01583708
v 0.01709081 0.1254378 0.01252173
v 0.01709086 0.1254378 -0.01252274
v 0.02040627 0.01475019 -0.01583808
v 0.01709086 0.1254378 -0.01252274
v 0.01709081 0.1254378 0.01252173
v 0.0199077 0.2031904 0.01533772
v 0.0199077 0.2031904 -0.01533807
v -0.01840692 0.01475018 -0.01583808
v -0.01502073 0.001614769 -0.01224959
v 0.01702005 0.001614769 -0.0122496
v 0.02040627 0.01475019 -0.01583808
v -0.01840692 0.01475018 -0.01583808
v -0.01840692 0.01475019 0.01583709
v -0.01502073 0.001614771 0.01224861
v -0.01502073 0.001614769 -0.01224959
v -0.01840692 0.01475019 0.01583709
v -0.01840692 0.01475018 -0.01583808
v -0.01509156 0.1254378 -0.01252274
v -0.01509156 0.1254378 0.01252173
v 0.01521937 0.4739127 -0.01065177
v 0.0199077 0.2031904 -0.01533807
v 0.0199077 0.2031904 0.01533772
v 0.01521937 0.4739127 0.01065145
v 0.01521937 0.5238721 0.006664952
v 0.01521937 0.5238721 -0.006665292
v 0.02040622 0.01475019 0.01583708
v 0.02040627 0.01475019 -0.01583808
v 0.01702005 0.001614769 -0.0122496
v 0.01702003 0.001614771 0.01224861
v -0.01322026 0.4739127 -0.01065177
v 0.01521937 0.4739127 -0.01065177
v 0.01521937 0.5238721 -0.006665292
v -0.01322026 0.5238721 -0.00666529
v -0.01840692 0.01475019 0.01583709
v -0.01509156 0.1254378 0.01252173
v 0.01709081 0.1254378 0.01252173
v 0.02040622 0.01475019 0.01583708
v -0.01509156 0.1254378 0.01252173
v -0.01790873 0.2031904 0.01533773
v 0.0199077 0.2031904 0.01533772
v 0.01709081 0.1254378 0.01252173
v -0.01502073 0.001614769 -0.01224959
v -0.01502073 0.001614771 0.01224861
v 0.01702003 0.001614771 0.01224861
v 0.01702005 0.001614769 -0.0122496
v -0.01790873 0.2031904 -0.01533806
v -0.01509156 0.1254378 -0.01252274
v 0.01709086 0.1254378 -0.01252274
v 0.0199077 0.2031904 -0.01533807
v -0.01790873 0.2031904 -0.01533806
v 0.0199077 0.2031904 -0.01533807
v 0.01521937 0.4739127 -0.01065177
v -0.01322026 0.4739127 -0.01065177
v -0.01509156 0.1254378 -0.01252274
v -0.01840692 0.01475018 -0.01583808
v 0.02040627 0.01475019 -0.01583808
v 0.01709086 0.1254378 -0.01252274
v 0.0199077 0.2031904 0.01533772
v -0.01790873 0.2031904 0.01533773
v -0.01322026 0.4739127 0.01065145
v 0.01521937 0.4739127 0.01065145
v 0.02159852 0.4606081 0.02866079
v 0.09214061 0.4831022 0.02089742
v 0.09214061 0.4831022 -0.02271948
v 0.02159841 0.4606081 -0.02880268
v 0.02159852 0.4606081 0.02866079
v 0.02159841 0.4606081 -0.02880268
v -0.0766662 0.4606081 -0.01568747
v -0.07666619 0.4606081 0.01708118
v 0.02159841 0.4606081 -0.02880268
v 0.09214061 0.4878778 -0.02880269
v 0.09214061 0.4930977 -0.02880269
v 0.02159851 0.5212967 -0.02880269
v 0.02159841 0.4606081 -0.02880268
v 0.02159851 0.5212967 -0.02880269
v -0.0766662 0.5074432 -0.02880268
v -0.0766662 0.4739127 -0.02880267
v 0.02159852 0.4606081 0.02866079
v -0.07666619 0.4739127 0.0286608
v -0.07666619 0.5074433 0.02866079
v 0.02159852 0.5212967 0.02866078
v 0.02159852 0.5212967 0.02866078
v 0.09214061 0.4878779 0.02866078
v 0.09214061 0.4930977 0.02866078
v -0.08283243 0.4758607 0.02537618
v -0.08283243 0.464077 0.01512035
v -0.08283245 0.464077 -0.01390221
v -0.08283245 0.4758607 -0.02551809
v -0.08283243 0.5055581 0.02537617
v -0.08283245 0.505558 -0.0255181
v -0.08283245 0.5178277 -0.01401175
v -0.08283243 0.5178277 0.01512035
v -0.07666619 0.5212967 0.01708117
v -0.08283243 0.5178277 0.01512035
v -0.08283245 0.5178277 -0.01401175
v -0.0766662 0.5212967 -0.01581119
v -0.0766662 0.5074432 -0.02880268
v -0.08283245 0.505558 -0.0255181
v -0.08283245 0.4758607 -0.02551809
v -0.0766662 0.4739127 -0.02880267
v -0.07666619 0.5074433 0.02866079
v -0.08283243 0.5055581 0.02537617
v -0.08283243 0.5178277 0.01512035
v -0.07666619 0.5212967 0.01708117
v -0.07666619 0.4739127 0.0286608
v -0.08283243 0.4758607 0.02537618
v -0.08283243 0.5055581 0.02537617
v -0.07666619 0.5074433 0.02866079
v -0.0766662 0.5212967 -0.01581119
v -0.08283245 0.5178277 -0.01401175
v -0.08283245 0.505558 -0.0255181
v -0.0766662 0.5074432 -0.02880268
v -0.07666619 0.4606081 0.01708118
v -0.08283243 0.464077 0.01512035
v -0.08283243 0.4758607 0.02537618
v -0.07666619 0.4739127 0.0286608
v -0.0766662 0.4606081 -0.01568747
v -0.08283245 0.464077 -0.01390221
v -0.08283243 0.464077 0.01512035
v -0.07666619 0.4606081 0.01708118
v 0.01521937 0.4739127 0.01065145
v -0.01322026 0.4739127 0.01065145
v -0.01322026 0.5238721 0.006664955
v 0.01521937 0.5238721 0.006664952
v 0.01521937 0.5238721 -0.006665292
v 0.01521937 0.5238721 0.006664952
v -0.01322026 0.5238721 0.006664955
v -0.01322026 0.5238721 -0.00666529
v -0.01502073 0.001614771 0.01224861
v -0.01840692 0.01475019 0.01583709
v 0.02040622 0.01475019 0.01583708
v 0.01702003 0.001614771 0.01224861
vt 0.5483717 0.6821628
vt 0.5303489 0.6820812
vt 0.5306607 0.6858116
vt 0.5482978 0.6692322
vt 0.5728431 0.6722413
vt 0.5727689 0.666495
vt 0.5699023 0.7005055
vt 0.5705971 0.6955755
vt 0.5467575 0.6955878
vt 0.571568 0.6867611
vt 0.5722352 0.6813815
vt 0.5483717 0.6821628
vt 0.5467031 0.6543434
vt 0.5726932 0.6576366
vt 0.5728431 0.6527032
vt 0.5467575 0.6955878
vt 0.530262 0.6880301
vt 0.5296038 0.6911546
vt 0.5295982 0.6662794
vt 0.5295442 0.6697023
vt 0.5482978 0.6692322
vt 0.5286932 0.6629294
vt 0.5293505 0.6648996
vt 0.5467031 0.6543434
vt 0.5482978 0.6692322
vt 0.5483717 0.6821628
vt 0.5722352 0.6813815
vt 0.5728431 0.6722413
vt 0.5482978 0.6692322
vt 0.5295442 0.6697023
vt 0.5303489 0.6820812
vt 0.5483717 0.6821628
vt 0.5249032 0.6680526
vt 0.5245416 0.6702367
vt 0.5259084 0.6825732
vt 0.5275023 0.6846193
vt 0.5271223 0.6677685
vt 0.5289786 0.6844557
vt 0.5295442 0.6697023
vt 0.5303489 0.6820812
vt 0.6830949 0.6724018
vt 0.6847708 0.6732377
vt 0.6876466 0.6702943
vt 0.686804 0.6685983
vt 0.1834534 0.7946778
vt 0.1795404 0.7946606
vt 0.1790481 0.8062897
vt 0.1834731 0.8063077
vt 0.1834731 0.8063077
vt 0.1790481 0.8062897
vt 0.1801595 0.8466788
vt 0.1833605 0.8465981
vt 0.1809675 0.8543109
vt 0.1830564 0.8542247
vt 0.1889865 0.7785385
vt 0.188397 0.7946783
vt 0.1921557 0.7946437
vt 0.1935119 0.7785639
vt 0.1921557 0.7946437
vt 0.188397 0.7946783
vt 0.1889787 0.8062934
vt 0.1935119 0.8062326
vt 0.1792096 0.7784418
vt 0.1793222 0.7764279
vt 0.1742165 0.7763324
vt 0.1736408 0.7784604
vt 0.1792096 0.7784418
vt 0.183567 0.7784239
vt 0.1835743 0.7763682
vt 0.1793222 0.7764279
vt 0.183567 0.7784239
vt 0.1792096 0.7784418
vt 0.1795404 0.7946606
vt 0.1834534 0.7946778
vt 0.1908531 0.8469445
vt 0.1935119 0.8062326
vt 0.1889787 0.8062934
vt 0.1876383 0.8467029
vt 0.1874372 0.8543497
vt 0.1894947 0.8545455
vt 0.1889865 0.7785385
vt 0.1935119 0.7785639
vt 0.1928791 0.776418
vt 0.1889745 0.776528
vt 0.1801595 0.8466788
vt 0.1758533 0.846984
vt 0.1765735 0.854759
vt 0.1809675 0.8543109
vt 0.183567 0.7784239
vt 0.1834534 0.7946778
vt 0.188397 0.7946783
vt 0.1889865 0.7785385
vt 0.1834534 0.7946778
vt 0.1834731 0.8063077
vt 0.1889787 0.8062934
vt 0.188397 0.7946783
vt 0.1836965 0.7722392
vt 0.1835743 0.7763682
vt 0.1889745 0.776528
vt 0.1890967 0.7723991
vt 0.1790481 0.8062897
vt 0.1795404 0.7946606
vt 0.1746908 0.7946
vt 0.1734563 0.8062295
vt 0.1790481 0.8062897
vt 0.1734563 0.8062295
vt 0.1758533 0.846984
vt 0.1801595 0.8466788
vt 0.1795404 0.7946606
vt 0.1792096 0.7784418
vt 0.1736408 0.7784604
vt 0.1746908 0.7946
vt 0.1889787 0.8062934
vt 0.1834731 0.8063077
vt 0.1833605 0.8465981
vt 0.1876383 0.8467029
vt 0.5467575 0.6955878
vt 0.5296038 0.6911546
vt 0.5262861 0.7017419
vt 0.5437958 0.7088506
vt 0.5467575 0.6955878
vt 0.5437958 0.7088506
vt 0.5686698 0.7089592
vt 0.5699023 0.7005055
vt 0.5467031 0.6543434
vt 0.5293505 0.6648996
vt 0.5295982 0.6662794
vt 0.5482978 0.6692322
vt 0.5467031 0.6543434
vt 0.5482978 0.6692322
vt 0.5727689 0.666495
vt 0.5726932 0.6576366
vt 0.5467575 0.6955878
vt 0.5705971 0.6955755
vt 0.571568 0.6867611
vt 0.5483717 0.6821628
vt 0.5483717 0.6821628
vt 0.530262 0.6880301
vt 0.5306607 0.6858116
vt 0.697504 0.6731416
vt 0.6949477 0.6702099
vt 0.6876466 0.6702943
vt 0.6847708 0.6732377
vt 0.6975134 0.6806231
vt 0.6847859 0.6807008
vt 0.687654 0.6837611
vt 0.6949597 0.683652
vt 0.6958508 0.6853212
vt 0.6949597 0.683652
vt 0.687654 0.6837611
vt 0.686806 0.685504
vt 0.6830948 0.681532
vt 0.6847859 0.6807008
vt 0.6847708 0.6732377
vt 0.6830949 0.6724018
vt 0.699207 0.6814417
vt 0.6975134 0.6806231
vt 0.6949597 0.683652
vt 0.6958508 0.6853212
vt 0.6992081 0.6723056
vt 0.697504 0.6731416
vt 0.6975134 0.6806231
vt 0.699207 0.6814417
vt 0.686806 0.685504
vt 0.687654 0.6837611
vt 0.6847859 0.6807008
vt 0.6830948 0.681532
vt 0.695841 0.6684776
vt 0.6949477 0.6702099
vt 0.697504 0.6731416
vt 0.6992081 0.6723056
vt 0.686804 0.6685983
vt 0.6876466 0.6702943
vt 0.6949477 0.6702099
vt 0.695841 0.6684776
vt 0.1876383 0.8467029
vt 0.1833605 0.8465981
vt 0.1830564 0.8542247
vt 0.1874372 0.8543497
vt 0.1873786 0.8564031
vt 0.1874372 0.8543497
vt 0.1830564 0.8542247
vt 0.1829978 0.856278
vt 0.1835743 0.7763682
vt 0.183567 0.7784239
vt 0.1889865 0.7785385
vt 0.1889745 0.776528
vn 0.3066111 0.7670122 0.5636327
vn 0.3066111 0.7670122 0.5636327
vn 0.3066111 0.7670122 0.5636327
vn -0.09599359 0.6808898 -0.7260678
vn -0.09599359 0.6808898 -0.7260678
vn -0.09599359 0.6808898 -0.7260678
vn -0.08854001 -0.6539379 0.7513494
vn -0.08854001 -0.6539379 0.7513494
vn -0.08854001 -0.6539379 0.7513494
vn -0.09004796 0.6387255 0.7641473
vn -0.09004796 0.6387255 0.7641473
vn -0.09004796 0.6387255 0.7641473
vn -0.0946237 -0.6988717 -0.7089604
vn -0.0946237 -0.6988717 -0.7089604
vn -0.0946237 -0.6988717 -0.7089604
vn 0.3127445 -0.8090168 0.4976772
vn 0.3127445 -0.8090168 0.4976772
vn 0.3127445 -0.8090168 0.4976772
vn 0.2799278 0.7002597 -0.6567166
vn 0.2799278 0.7002597 -0.6567166
vn 0.2799278 0.7002597 -0.6567166
vn 0.2909149 -0.7525508 -0.5907926
vn 0.2909149 -0.7525508 -0.5907926
vn 0.2909149 -0.7525508 -0.5907926
vn -1.04893E-07 1 0
vn -1.04893E-07 1 0
vn -1.04893E-07 1 0
vn -1.04893E-07 1 0
vn 0.3038035 0.9527347 0
vn 0.3038035 0.9527347 0
vn 0.3038035 0.9527347 0
vn 0.3038035 0.9527347 0
vn 1 0 0
vn 1 0 0
vn 1 0 0
vn 1 0 0
vn 1 0 0
vn 1 0 0
vn 1 0 0
vn 1 0 0
vn -0.5152017 -0.60168 -0.6103674
vn -0.5152017 -0.60168 -0.6103674
vn -0.5152017 -0.60168 -0.6103674
vn -0.5152017 -0.60168 -0.6103674
vn -0.9993442 -0.03620877 1.074131E-07
vn -0.9993442 -0.03620877 1.074131E-07
vn -0.9993442 -0.03620877 1.074131E-07
vn -0.9993442 -0.03620877 1.074131E-07
vn -0.99985 0.01731578 0
vn -0.99985 0.01731578 0
vn -0.99985 0.01731578 0
vn -0.99985 0.01731578 0
vn -1 0 1.345635E-07
vn -1 0 1.345635E-07
vn 0.9995517 0.02993945 1.779321E-06
vn 0.9995517 0.02993945 1.779321E-06
vn 0.9995517 0.02993945 1.779321E-06
vn 0.9995517 0.02993945 1.779321E-06
vn 0.9993444 -0.03620479 8.593051E-07
vn 0.9993444 -0.03620479 8.593051E-07
vn 0.9993444 -0.03620479 8.593051E-07
vn 0.9993444 -0.03620479 8.593051E-07
vn -1.183468E-07 -0.2635339 -0.9646501
vn -1.183468E-07 -0.2635339 -0.9646501
vn -1.183468E-07 -0.2635339 -0.9646501
vn -1.183468E-07 -0.2635339 -0.9646501
vn -0.9683414 -0.2496295 0
vn -0.9683414 -0.2496295 0
vn -0.9683414 -0.2496295 0
vn -0.9683414 -0.2496295 0
vn -0.9995517 0.02993898 0
vn -0.9995517 0.02993898 0
vn -0.9995517 0.02993898 0
vn -0.9995517 0.02993898 0
vn 0.99985 0.01731524 -1.323466E-07
vn 0.99985 0.01731524 -1.323466E-07
vn 0.99985 0.01731524 -1.323466E-07
vn 0.99985 0.01731524 -1.323466E-07
vn 1 0 0
vn 1 0 0
vn 0.9683411 -0.2496307 1.145844E-06
vn 0.9683411 -0.2496307 1.145844E-06
vn 0.9683411 -0.2496307 1.145844E-06
vn 0.9683411 -0.2496307 1.145844E-06
vn 0 0.07954165 -0.9968315
vn 0 0.07954165 -0.9968315
vn 0 0.07954165 -0.9968315
vn 0 0.07954165 -0.9968315
vn 0 0.02993891 0.9995517
vn 0 0.02993891 0.9995517
vn 0 0.02993891 0.9995517
vn 0 0.02993891 0.9995517
vn 0 -0.03619364 0.9993448
vn 0 -0.03619364 0.9993448
vn 0 -0.03619364 0.9993448
vn 0 -0.03619364 0.9993448
vn 0 -1 1.092958E-07
vn 0 -1 1.092958E-07
vn 0 -1 1.092958E-07
vn 0 -1 1.092958E-07
vn 0 -0.03618497 -0.9993451
vn 0 -0.03618497 -0.9993451
vn 0 -0.03618497 -0.9993451
vn 0 -0.03618497 -0.9993451
vn 0 0.01730773 -0.9998502
vn 0 0.01730773 -0.9998502
vn 0 0.01730773 -0.9998502
vn 0 0.01730773 -0.9998502
vn 0 0.02993875 -0.9995517
vn 0 0.02993875 -0.9995517
vn 0 0.02993875 -0.9995517
vn 0 0.02993875 -0.9995517
vn 0 0.01730767 0.9998502
vn 0 0.01730767 0.9998502
vn 0 0.01730767 0.9998502
vn 0 0.01730767 0.9998502
vn 0.3038021 -0.9527351 -3.110977E-07
vn 0.3038021 -0.9527351 -3.110977E-07
vn 0.3038021 -0.9527351 -3.110977E-07
vn 0.3038021 -0.9527351 -3.110977E-07
vn 3.151105E-07 -1 0
vn 3.151105E-07 -1 0
vn 3.151105E-07 -1 0
vn 3.151105E-07 -1 0
vn 0 -1.001567E-07 -1
vn 0 -1.001567E-07 -1
vn 0 -1.001567E-07 -1
vn 0 -1.001567E-07 -1
vn 0 -1.00592E-07 -1
vn 0 -1.00592E-07 -1
vn 0 -1.00592E-07 -1
vn 0 -1.00592E-07 -1
vn 0 1.005919E-07 1
vn 0 1.005919E-07 1
vn 0 1.005919E-07 1
vn 0 1.005919E-07 1
vn 1.063636E-07 1.001569E-07 1
vn 1.063636E-07 1.001569E-07 1
vn 1.063636E-07 1.001569E-07 1
vn -1 0 4.707016E-07
vn -1 0 4.707016E-07
vn -1 0 4.707016E-07
vn -1 0 4.707016E-07
vn -1 0 4.707016E-07
vn -1 0 4.707016E-07
vn -1 0 4.707016E-07
vn -1 0 4.707016E-07
vn -0.4903114 0.8715474 1.326439E-07
vn -0.4903114 0.8715474 1.326439E-07
vn -0.4903114 0.8715474 1.326439E-07
vn -0.4903114 0.8715474 1.326439E-07
vn -0.4701324 -1.317687E-07 -0.8825959
vn -0.4701324 -1.317687E-07 -0.8825959
vn -0.4701324 -1.317687E-07 -0.8825959
vn -0.4701324 -1.317687E-07 -0.8825959
vn -0.517503 0.5487753 0.6565335
vn -0.517503 0.5487753 0.6565335
vn -0.517503 0.5487753 0.6565335
vn -0.517503 0.5487753 0.6565335
vn -0.4701385 1.31768E-07 0.8825926
vn -0.4701385 1.31768E-07 0.8825926
vn -0.4701385 1.31768E-07 0.8825926
vn -0.4701385 1.31768E-07 0.8825926
vn -0.5130375 0.5871657 -0.6261222
vn -0.5130375 0.5871657 -0.6261222
vn -0.5130375 0.5871657 -0.6261222
vn -0.5130375 0.5871657 -0.6261222
vn -0.5202664 -0.5606663 0.6441865
vn -0.5202664 -0.5606663 0.6441865
vn -0.5202664 -0.5606663 0.6441865
vn -0.5202664 -0.5606663 0.6441865
vn -0.4903028 -0.8715521 1.331453E-07
vn -0.4903028 -0.8715521 1.331453E-07
vn -0.4903028 -0.8715521 1.331453E-07
vn -0.4903028 -0.8715521 1.331453E-07
vn 0 0.07954197 0.9968315
vn 0 0.07954197 0.9968315
vn 0 0.07954197 0.9968315
vn 0 0.07954197 0.9968315
vn -1.759338E-07 1 0
vn -1.759338E-07 1 0
vn -1.759338E-07 1 0
vn -1.759338E-07 1 0
vn 0 -0.2635334 0.9646502
vn 0 -0.2635334 0.9646502
vn 0 -0.2635334 0.9646502
vn 0 -0.2635334 0.9646502
g hammer_0
f 3/3/3 2/2/2 1/1/1
f 6/6/6 5/5/5 4/4/4
f 9/9/9 8/8/8 7/7/7
f 12/12/12 11/11/11 10/10/10
f 15/15/15 14/14/14 13/13/13
f 18/18/18 17/17/17 16/16/16
f 21/21/21 20/20/20 19/19/19
f 24/24/24 23/23/23 22/22/22
f 27/27/27 26/26/26 25/25/25
f 28/28/28 27/27/27 25/25/25
f 31/31/31 30/30/30 29/29/29
f 32/32/32 31/31/31 29/29/29
f 35/35/35 34/34/34 33/33/33
f 33/33/33 36/36/36 35/35/35
f 33/33/33 37/37/37 36/36/36
f 37/37/37 38/38/38 36/36/36
f 37/37/37 39/39/39 38/38/38
f 39/39/39 40/40/40 38/38/38
f 43/43/43 42/42/42 41/41/41
f 44/44/44 43/43/43 41/41/41
f 47/47/47 46/46/46 45/45/45
f 48/48/48 47/47/47 45/45/45
f 51/51/51 50/50/50 49/49/49
f 52/52/52 51/51/51 49/49/49
f 53/53/53 51/51/51 52/52/52
f 54/54/54 53/53/53 52/52/52
f 57/57/57 56/56/56 55/55/55
f 58/58/58 57/57/57 55/55/55
f 61/61/61 60/60/60 59/59/59
f 62/62/62 61/61/61 59/59/59
f 65/65/65 64/64/64 63/63/63
f 66/66/66 65/65/65 63/63/63
f 69/69/69 68/68/68 67/67/67
f 70/70/70 69/69/69 67/67/67
f 73/73/73 72/72/72 71/71/71
f 74/74/74 73/73/73 71/71/71
f 77/77/77 76/76/76 75/75/75
f 78/78/78 77/77/77 75/75/75
f 79/79/79 78/78/78 75/75/75
f 80/80/80 79/79/79 75/75/75
f 83/83/83 82/82/82 81/81/81
f 84/84/84 83/83/83 81/81/81
f 87/87/87 86/86/86 85/85/85
f 88/88/88 87/87/87 85/85/85
f 91/91/91 90/90/90 89/89/89
f 92/92/92 91/91/91 89/89/89
f 95/95/95 94/94/94 93/93/93
f 96/96/96 95/95/95 93/93/93
f 99/99/99 98/98/98 97/97/97
f 100/100/100 99/99/99 97/97/97
f 103/103/103 102/102/102 101/101/101
f 104/104/104 103/103/103 101/101/101
f 107/107/107 106/106/106 105/105/105
f 108/108/108 107/107/107 105/105/105
f 111/111/111 110/110/110 109/109/109
f 112/112/112 111/111/111 109/109/109
f 115/115/115 114/114/114 113/113/113
f 116/116/116 115/115/115 113/113/113
f 119/119/119 118/118/118 117/117/117
f 120/120/120 119/119/119 117/117/117
f 123/123/123 122/122/122 121/121/121
f 124/124/124 123/123/123 121/121/121
f 127/127/127 126/126/126 125/125/125
f 128/128/128 127/127/127 125/125/125
f 131/131/131 130/130/130 129/129/129
f 132/132/132 131/131/131 129/129/129
f 135/135/135 134/134/134 133/133/133
f 136/136/136 135/135/135 133/133/133
f 133/133/133 138/138/138 137/137/137
f 138/138/138 139/139/139 137/137/137
f 142/142/142 141/141/141 140/140/140
f 140/140/140 143/143/143 142/142/142
f 140/140/140 144/144/144 143/143/143
f 144/144/144 145/145/145 143/143/143
f 144/144/144 146/146/146 145/145/145
f 144/144/144 147/147/147 146/146/146
f 150/150/150 149/149/149 148/148/148
f 151/151/151 150/150/150 148/148/148
f 154/154/154 153/153/153 152/152/152
f 155/155/155 154/154/154 152/152/152
f 158/158/158 157/157/157 156/156/156
f 159/159/159 158/158/158 156/156/156
f 162/162/162 161/161/161 160/160/160
f 163/163/163 162/162/162 160/160/160
f 166/166/166 165/165/165 164/164/164
f 167/167/167 166/166/166 164/164/164
f 170/170/170 169/169/169 168/168/168
f 171/171/171 170/170/170 168/168/168
f 174/174/174 173/173/173 172/172/172
f 175/175/175 174/174/174 172/172/172
f 178/178/178 177/177/177 176/176/176
f 179/179/179 178/178/178 176/176/176
f 182/182/182 181/181/181 180/180/180
f 183/183/183 182/182/182 180/180/180
f 186/186/186 185/185/185 184/184/184
f 187/187/187 186/186/186 184/184/184
