g Helper
v -1.857063 -4.117662E-08 -0.7503712
v -0.4663348 2.148345E-08 -1.922329
v 0.9477207 1.43223E-08 -1.862688
v 1.791751 1.43223E-08 -0.8651726
v 2.006189 -5.012805E-08 0.7093778
v -1.8814 1.43223E-08 0.6802387
v -0.7818321 1.43223E-08 1.690437
v 0.5858678 1.43223E-08 1.929329
v 2.232075 -0.7884786 -0.8616811
v 2.030403 -0.2806906 -0.8711417
v 1.018239 -0.2806906 -2.074006
v 2.227294 -0.2806906 0.8907251
v 1.032138 -0.7884786 -2.28218
v 2.437084 -0.7884787 1.07023
v -0.5617575 -0.2806906 -2.149106
v -0.7396075 -0.7884786 -2.374294
v 0.8133816 -0.2806906 2.187054
v 0.9791672 -0.7884786 2.455596
v -0.8044751 -0.7884786 2.215213
v -0.8077319 -0.2806906 1.951499
v -2.363237 -0.7884786 0.7474958
v -2.117442 -0.2806906 0.7402342
v -2.300004 -0.7884786 -1.089301
v -2.075398 -0.2806907 -0.8838679
v 1.018239 -0.2806906 -2.074006
v -0.4663348 2.148345E-08 -1.922329
v -0.5617575 -0.2806906 -2.149106
v -2.075398 -0.2806907 -0.8838679
v 0.9477207 1.43223E-08 -1.862688
v -1.857063 -4.117662E-08 -0.7503712
v -1.8814 1.43223E-08 0.6802387
v -2.117442 -0.2806906 0.7402342
v -0.7818321 1.43223E-08 1.690437
v -0.8077319 -0.2806906 1.951499
v 2.030403 -0.2806906 -0.8711417
v 1.791751 1.43223E-08 -0.8651726
v 2.006189 -5.012805E-08 0.7093778
v 2.227294 -0.2806906 0.8907251
v 0.5858678 1.43223E-08 1.929329
v 0.8133816 -0.2806906 2.187054
vt 0.7122124 0.1761303
vt 0.7122123 0.1761303
vt 0.7122123 0.1761303
vt 0.7122123 0.1761303
vt 0.7122123 0.1761303
vt 0.7122123 0.1761303
vt 0.7122123 0.1761303
vt 0.7122123 0.1761303
vt 0.6675655 0.8229905
vt 0.6675655 0.8229905
vt 0.6675655 0.8229905
vt 0.6675655 0.8229905
vt 0.6675655 0.8229905
vt 0.6675655 0.8229905
vt 0.6675655 0.8229905
vt 0.6675655 0.8229905
vt 0.6675655 0.8229905
vt 0.6675655 0.8229905
vt 0.6675655 0.8229905
vt 0.6675654 0.8229905
vt 0.6675655 0.8229905
vt 0.6675655 0.8229905
vt 0.6675655 0.8229905
vt 0.6675655 0.8229905
vt 0.7058299 0.1605368
vt 0.7058299 0.1605368
vt 0.7058299 0.1605368
vt 0.7058299 0.1605368
vt 0.7058299 0.1605368
vt 0.7058299 0.1605368
vt 0.7058299 0.1605368
vt 0.7058299 0.1605368
vt 0.7058299 0.1605368
vt 0.7058299 0.1605368
vt 0.7058299 0.1605368
vt 0.7058299 0.1605368
vt 0.7058299 0.1605368
vt 0.7058299 0.1605368
vt 0.7058299 0.1605368
vt 0.7058299 0.1605368
vn 0 1 0
vn 0 1 0
vn 0 1 0
vn 0.4562553 0.8605734 -0.2263725
vn 0.4533111 0.8832006 0.1202737
vn 0 1 0
vn -0.2336736 0.8733959 0.4272895
vn 0.07819995 0.8908096 0.4475969
vn 0.8762951 0.3346743 -0.3465546
vn 0.8147207 0.4601947 -0.3527761
vn 0.4048569 0.4771206 -0.78003
vn 0.7651684 0.5858831 0.2669423
vn 0.3862762 0.3635971 -0.8476956
vn 0.8118259 0.4771824 0.336505
vn -0.2442137 0.5528879 -0.7966647
vn -0.3043512 0.4765566 -0.8247812
vn 0.236065 0.6136802 0.7534388
vn 0.2861612 0.5119271 0.8099644
vn -0.3624919 0.4146324 0.8346733
vn -0.3780856 0.5155969 0.7689026
vn -0.8516219 0.416805 0.3178264
vn -0.7825031 0.5174509 0.3463144
vn -0.7641022 0.5012528 -0.4060706
vn -0.7437491 0.5744759 -0.3417815
vn 0.4048569 0.4771206 -0.78003
vn -0.2300538 0.6572667 -0.7176877
vn -0.2442137 0.5528879 -0.7966647
vn -0.7437491 0.5744759 -0.3417815
vn 0.368174 0.6179773 -0.6946597
vn -0.6727954 0.6737154 -0.3057023
vn -0.692591 0.6459692 0.3210009
vn -0.7825031 0.5174509 0.3463144
vn -0.2336736 0.8733959 0.4272895
vn -0.3780856 0.5155969 0.7689026
vn 0.8147207 0.4601947 -0.3527761
vn 0.4562553 0.8605734 -0.2263725
vn 0.4533111 0.8832006 0.1202737
vn 0.7651684 0.5858831 0.2669423
vn 0.07819995 0.8908096 0.4475969
vn 0.236065 0.6136802 0.7534388
g Helper_0
f 3/3/3 2/2/2 1/1/1
f 1/1/1 4/4/4 3/3/3
f 1/1/1 5/5/5 4/4/4
f 1/1/1 6/6/6 5/5/5
f 6/6/6 7/7/7 5/5/5
f 7/7/7 8/8/8 5/5/5
f 11/11/11 10/10/10 9/9/9
f 10/10/10 12/12/12 9/9/9
f 13/13/13 11/11/11 9/9/9
f 12/12/12 14/14/14 9/9/9
f 15/15/15 11/11/11 13/13/13
f 16/16/16 15/15/15 13/13/13
f 14/14/14 12/12/12 17/17/17
f 18/18/18 14/14/14 17/17/17
f 18/18/18 17/17/17 19/19/19
f 17/17/17 20/20/20 19/19/19
f 19/19/19 20/20/20 21/21/21
f 20/20/20 22/22/22 21/21/21
f 16/16/16 23/23/23 15/15/15
f 21/21/21 22/22/22 23/23/23
f 23/23/23 24/24/24 15/15/15
f 22/22/22 24/24/24 23/23/23
f 27/27/27 26/26/26 25/25/25
f 27/27/27 28/28/28 26/26/26
f 26/26/26 29/29/29 25/25/25
f 28/28/28 30/30/30 26/26/26
f 31/31/31 30/30/30 28/28/28
f 32/32/32 31/31/31 28/28/28
f 33/33/33 31/31/31 32/32/32
f 34/34/34 33/33/33 32/32/32
f 25/25/25 29/29/29 35/35/35
f 29/29/29 36/36/36 35/35/35
f 36/36/36 37/37/37 35/35/35
f 37/37/37 38/38/38 35/35/35
f 39/39/39 33/33/33 34/34/34
f 38/38/38 37/37/37 39/39/39
f 40/40/40 39/39/39 34/34/34
f 40/40/40 38/38/38 39/39/39
