g IceCream
v -0.03268973 2.092505E-08 0.07892001
v 0.03826835 0.1053189 0.09238792
v 0.03268975 2.111029E-08 0.07892001
v -0.03826834 0.1053189 0.09238792
v -0.07892001 8.482196E-09 0.03268975
v 0.04123032 0.109994 0.09953875
v -0.09238795 0.1053189 0.03826832
v -0.07892001 -8.929415E-09 -0.03268974
v -0.0412303 0.109994 0.09953875
v -0.09238795 0.1053189 -0.03826838
v -0.03268975 -2.111029E-08 -0.07892001
v -0.04162922 0.1143085 0.1005018
v 0.04162924 0.1143085 0.1005018
v 0.04123032 0.118623 0.09953875
v -0.09953878 0.1099939 0.04123029
v -0.03826835 0.1053188 -0.09238798
v 0.03268972 -2.092505E-08 -0.07892002
v -0.1005018 0.1143085 0.0416292
v -0.0412303 0.118623 0.09953875
v 0.03718349 0.1234369 0.08976883
v -0.03718348 0.1234369 0.08976883
v -0.09953878 0.118623 0.04123029
v -0.08976887 0.1234369 0.03718346
v -0.09953877 0.1099939 -0.04123034
v -0.1005018 0.1143084 -0.04162925
v -0.09953877 0.118623 -0.04123035
v -0.08976889 0.1234368 -0.03718353
v -0.04162923 0.1143084 -0.1005019
v -0.04123032 0.118623 -0.09953881
v -0.03718351 0.1234368 -0.08976892
v -0.04123032 0.1099939 -0.09953881
v 0.04123029 0.118623 -0.09953881
v 0.03718344 0.1234368 -0.08976889
v 0.0416292 0.1143084 -0.1005019
v 0.03826832 0.1053188 -0.09238799
v 0.07892001 -8.482198E-09 -0.03268975
v 0.09953878 0.118623 -0.04123036
v 0.08976885 0.1234368 -0.03718352
v 0.04123029 0.1099939 -0.09953881
v 0.09238795 0.1053189 -0.03826839
v 0.07892001 8.929412E-09 0.03268973
v 0.1005018 0.1143084 -0.04162928
v 0.09953878 0.118623 0.04123027
v 0.08976886 0.1234369 0.03718344
v 0.09238795 0.1053189 0.03826831
v 0.03268975 2.111029E-08 0.07892001
v 0.03826835 0.1053189 0.09238792
v 0.09953878 0.1099939 -0.04123036
v 0.1005018 0.1143085 0.04162919
v 0.09953878 0.1099939 0.04123027
v 0.04123032 0.109994 0.09953875
v 0.04162924 0.1143085 0.1005018
v 0.04123032 0.118623 0.09953875
v 0.03718349 0.1234369 0.08976883
v -0.03268975 -2.111029E-08 -0.07892001
v 0.07892001 -8.482198E-09 -0.03268975
v 0.03268972 -2.092505E-08 -0.07892002
v -0.07892001 8.482196E-09 0.03268975
v -0.07892001 -8.929415E-09 -0.03268974
v 0.03268975 2.111029E-08 0.07892001
v 0.07892001 8.929412E-09 0.03268973
v -0.03268973 2.092505E-08 0.07892001
v -0.01375735 0.1577133 0.08688675
v 0.03718349 0.1234369 0.08976883
v -0.03718348 0.1234369 0.08976883
v 0.0517103 0.1577133 0.07116608
v 0.08976886 0.1234369 0.03718344
v 0.01538606 0.1963114 0.06559969
v 0.08688678 0.1577133 0.0137573
v 0.08976885 0.1234368 -0.03718352
v 0.05698349 0.1963113 0.03541482
v 0.02206972 0.2242122 0.02442556
v 0.07116612 0.1577133 -0.05171038
v 0.03718344 0.1234368 -0.08976889
v 0.03287717 0.2242122 0.001665811
v -1.323786E-08 0.2379927 -7.930691E-08
v 0.06542709 0.1963113 -0.01496928
v 0.01375731 0.1577133 -0.08688683
v -0.03718351 0.1234368 -0.08976892
v 0.02442562 0.2242122 -0.0220698
v -1.323786E-08 0.2379927 -7.930691E-08
v 0.03539698 0.1963113 -0.05694041
v -0.05171034 0.1577133 -0.07116621
v -0.08976889 0.1234368 -0.03718353
v 0.00166586 0.2242122 -0.03287726
v -1.323786E-08 0.2379927 -7.930691E-08
v -0.02206974 0.2242122 -0.02442571
v -0.0151419 0.1963113 -0.06501032
v -0.0868868 0.1577133 -0.0137574
v -0.08976887 0.1234369 0.03718346
v -0.05684877 0.1963113 -0.03508968
v -0.07116616 0.1577133 0.05171027
v -0.03718348 0.1234369 0.08976883
v -0.01375735 0.1577133 0.08688675
v -0.0328772 0.2242122 -0.001665959
v -1.323786E-08 0.2379927 -7.930691E-08
v -0.06518292 0.1963113 0.01555864
v -0.03526225 0.1963114 0.05726554
v 0.01538606 0.1963114 0.06559969
v -0.02442565 0.2242122 0.02206965
v -0.001665885 0.2242121 0.03287711
v 0.02206972 0.2242122 0.02442556
v -1.323786E-08 0.2379927 -7.930691E-08
vt 0.8573481 0.6921794
vt 0.9844899 0.8944581
vt 0.9844899 0.6927719
vt 0.8573481 0.8946927
vt 0.7314464 0.6923605
vt 0.9844899 0.9176164
vt 0.7314464 0.8946927
vt 0.612815 0.6923605
vt 0.8573481 0.9176528
vt 0.612815 0.8946927
vt 0.494184 0.6923605
vt 0.8573481 0.9362171
vt 0.9844899 0.9362628
vt 0.9844899 0.9557848
vt 0.7314464 0.9176528
vt 0.494184 0.8946927
vt 0.3874161 0.6923605
vt 0.7314464 0.9362001
vt 0.8573481 0.9557221
vt 0.9844899 0.9771339
vt 0.8573481 0.9769722
vt 0.7314464 0.9554927
vt 0.7314464 0.9770712
vt 0.612815 0.9176528
vt 0.612815 0.9362001
vt 0.612815 0.9554927
vt 0.612815 0.9770712
vt 0.494184 0.9362001
vt 0.494184 0.9554927
vt 0.494184 0.9770712
vt 0.494184 0.9176528
vt 0.3874161 0.9554927
vt 0.3874161 0.9770712
vt 0.3874161 0.9362001
vt 0.3874161 0.8946927
vt 0.2569217 0.6923605
vt 0.2569217 0.9554927
vt 0.2569217 0.9770712
vt 0.3874161 0.9176528
vt 0.2569217 0.8946927
vt 0.1382906 0.6923605
vt 0.2569217 0.9362001
vt 0.1382906 0.9554927
vt 0.1382906 0.9770712
vt 0.1382906 0.8946927
vt 0.01965949 0.6923605
vt 0.01965949 0.8946927
vt 0.2569217 0.9176528
vt 0.1382906 0.9362001
vt 0.1382906 0.9176528
vt 0.01965949 0.9176528
vt 0.01965949 0.9362001
vt 0.01965949 0.9554927
vt 0.01965949 0.9770712
vt 0.2116316 0.625064
vt 0.007398057 0.4208306
vt 0.06721672 0.5652455
vt 0.4158652 0.4208306
vt 0.3560465 0.5652455
vt 0.2116316 0.216597
vt 0.06721676 0.2764156
vt 0.3560465 0.2764156
vt 0.2920628 0.1961624
vt 0.3182957 0.06500513
vt 0.2060961 0.1521826
vt 0.3955941 0.1390301
vt 0.4659728 0.0121617
vt 0.3920518 0.2708651
vt 0.5185617 0.1139488
vt 0.6350592 0.01299531
vt 0.4742537 0.2418302
vt 0.4712174 0.349267
vt 0.6481607 0.13355
vt 0.8029289 0.08121558
vt 0.5208756 0.3373396
vt 0.5263627 0.4352655
vt 0.5589328 0.2400389
vt 0.7650646 0.2034028
vt 0.9380318 0.222096
vt 0.5666164 0.344928
vt 0.5263627 0.4352655
vt 0.6386001 0.2690393
vt 0.8446222 0.3177363
vt 0.9952284 0.4280755
vt 0.6031374 0.3686346
vt 0.5263627 0.4352655
vt 0.6255881 0.4037223
vt 0.6995231 0.3255955
vt 0.8636128 0.4457893
vt 0.9436848 0.5417814
vt 0.7317415 0.3996524
vt 0.8299552 0.5617588
vt 0.8930869 0.6144206
vt 0.7864639 0.6523921
vt 0.6303459 0.4444616
vt 0.5263627 0.4352655
vt 0.7303371 0.4772054
vt 0.69712 0.5523422
vt 0.6258681 0.6229244
vt 0.6151959 0.4850444
vt 0.5798722 0.518842
vt 0.5285335 0.5378394
vt 0.5263627 0.4352655
vn -0.2801787 -0.6811513 0.6764117
vn 0.3048378 -0.6045337 0.7359434
vn 0.2801789 -0.6811514 0.6764116
vn -0.3048376 -0.6045338 0.7359436
vn -0.6764115 -0.6811514 0.2801791
vn 0.319661 -0.5497717 0.7717306
vn -0.7359434 -0.6045338 0.3048379
vn -0.6764114 -0.6811516 -0.2801786
vn -0.319661 -0.5497717 0.7717306
vn -0.7359436 -0.6045337 -0.3048376
vn -0.2801789 -0.6811517 -0.6764113
vn -0.3826835 4.883881E-07 0.9238794
vn 0.3826837 4.811405E-07 0.9238794
vn 0.3093576 0.5886465 0.7468554
vn -0.771731 -0.5497707 0.3196615
vn -0.3048378 -0.6045341 -0.7359433
vn 0.2801787 -0.6811516 -0.6764113
vn -0.9238794 3.392378E-07 0.3826836
vn -0.3093575 0.5886464 0.7468556
vn 0.2666045 0.6954973 0.6672372
vn -0.2832905 0.695497 0.6603261
vn -0.7468564 0.5886453 0.3093578
vn -0.6672378 0.6954967 0.2666045
vn -0.7717299 -0.5497724 -0.319661
vn -0.9238795 1.41163E-07 -0.3826833
vn -0.7468554 0.5886466 -0.3093579
vn -0.6603266 0.6954963 -0.2832908
vn -0.3826837 0 -0.9238794
vn -0.309358 0.5886447 -0.7468567
vn -0.2666046 0.6954963 -0.6672381
vn -0.3196614 -0.549771 -0.7717308
vn 0.3093576 0.5886462 -0.7468559
vn 0.2832904 0.6954968 -0.6603262
vn 0.3826834 0 -0.9238795
vn 0.3048376 -0.6045339 -0.7359434
vn 0.6764113 -0.6811516 -0.2801787
vn 0.7468554 0.5886465 -0.3093577
vn 0.6672375 0.6954971 -0.2666047
vn 0.319661 -0.5497718 -0.7717303
vn 0.7359433 -0.6045341 -0.3048377
vn 0.6764116 -0.6811514 0.2801789
vn 0.9238793 1.369817E-07 -0.3826841
vn 0.7468558 0.5886464 0.3093573
vn 0.6603261 0.695497 0.2832903
vn 0.7359434 -0.6045339 0.3048378
vn 0.2801789 -0.6811514 0.6764116
vn 0.3048378 -0.6045337 0.7359434
vn 0.7717303 -0.5497719 -0.319661
vn 0.9238794 3.425553E-07 0.3826835
vn 0.7717304 -0.5497718 0.3196611
vn 0.319661 -0.5497717 0.7717306
vn 0.3826837 4.811405E-07 0.9238794
vn 0.3093576 0.5886465 0.7468554
vn 0.2666045 0.6954973 0.6672372
vn -0.2801789 -0.6811517 -0.6764113
vn 0.6764113 -0.6811516 -0.2801787
vn 0.2801787 -0.6811516 -0.6764113
vn -0.6764115 -0.6811514 0.2801791
vn -0.6764114 -0.6811516 -0.2801786
vn 0.2801789 -0.6811514 0.6764116
vn 0.6764116 -0.6811514 0.2801789
vn -0.2801787 -0.6811513 0.6764117
vn -0.1328593 0.3442036 0.9294472
vn 0.2666045 0.6954973 0.6672372
vn -0.2832905 0.695497 0.6603261
vn 0.5638629 0.3450192 0.7503467
vn 0.6603261 0.695497 0.2832903
vn 0.1815683 0.6150124 0.7673283
vn 0.9288596 0.3458807 0.1326135
vn 0.6672375 0.6954971 -0.2666047
vn 0.6700394 0.6157189 0.4146533
vn 0.3522572 0.849609 0.3925295
vn 0.7502093 0.3466586 -0.5630398
vn 0.2832904 0.6954968 -0.6603262
vn 0.5271708 0.8492504 0.02940608
vn 0 1 0
vn 0.7673649 0.6160409 -0.1778891
vn 0.1316889 0.3478722 -0.9282473
vn -0.2666046 0.6954963 -0.6672381
vn 0.3940756 0.8488026 -0.3524751
vn 0 1 0
vn 0.4142311 0.6164623 -0.6696168
vn -0.5623422 0.3491088 -0.7495961
vn -0.6603266 0.6954963 -0.2832908
vn 0.02862503 0.8480903 -0.5290778
vn 0 1 0
vn -0.3535761 0.8475605 -0.3957589
vn -0.180754 0.6172579 -0.7657157
vn -0.928077 0.3479116 -0.1327802
vn -0.6672378 0.6954967 0.2666045
vn -0.6690094 0.6172408 -0.4140535
vn -0.7507895 0.3458819 0.5627439
vn -0.2832905 0.695497 0.6603261
vn -0.1328593 0.3442036 0.9294472
vn -0.528693 0.8482786 -0.03011823
vn 0 1 0
vn -0.7664027 0.6163825 0.1808303
vn -0.4146261 0.6153821 0.6703656
vn 0.1815683 0.6150124 0.7673283
vn -0.393826 0.8493708 0.3513834
vn -0.02957522 0.8501953 0.525636
vn 0.3522572 0.849609 0.3925295
vn 0 1 0
g IceCream_0
f 3/3/3 2/2/2 1/1/1
f 4/4/4 1/1/1 2/2/2
f 1/1/1 4/4/4 5/5/5
f 2/2/2 6/6/6 4/4/4
f 7/7/7 5/5/5 4/4/4
f 5/5/5 7/7/7 8/8/8
f 9/9/9 4/4/4 6/6/6
f 4/4/4 9/9/9 7/7/7
f 10/10/10 8/8/8 7/7/7
f 8/8/8 10/10/10 11/11/11
f 9/9/9 6/6/6 12/12/12
f 13/13/13 12/12/12 6/6/6
f 13/13/13 14/14/14 12/12/12
f 15/15/15 7/7/7 9/9/9
f 7/7/7 15/15/15 10/10/10
f 16/16/16 11/11/11 10/10/10
f 11/11/11 16/16/16 17/17/17
f 12/12/12 18/18/18 9/9/9
f 15/15/15 9/9/9 18/18/18
f 19/19/19 12/12/12 14/14/14
f 12/12/12 19/19/19 18/18/18
f 14/14/14 20/20/20 19/19/19
f 21/21/21 19/19/19 20/20/20
f 19/19/19 21/21/21 22/22/22
f 22/22/22 18/18/18 19/19/19
f 23/23/23 22/22/22 21/21/21
f 24/24/24 10/10/10 15/15/15
f 10/10/10 24/24/24 16/16/16
f 18/18/18 25/25/25 15/15/15
f 18/18/18 22/22/22 25/25/25
f 24/24/24 15/15/15 25/25/25
f 22/22/22 23/23/23 26/26/26
f 26/26/26 25/25/25 22/22/22
f 27/27/27 26/26/26 23/23/23
f 25/25/25 28/28/28 24/24/24
f 25/25/25 26/26/26 28/28/28
f 26/26/26 27/27/27 29/29/29
f 29/29/29 28/28/28 26/26/26
f 30/30/30 29/29/29 27/27/27
f 31/31/31 16/16/16 24/24/24
f 31/31/31 24/24/24 28/28/28
f 29/29/29 30/30/30 32/32/32
f 33/33/33 32/32/32 30/30/30
f 28/28/28 29/29/29 34/34/34
f 28/28/28 34/34/34 31/31/31
f 32/32/32 34/34/34 29/29/29
f 16/16/16 31/31/31 35/35/35
f 35/35/35 17/17/17 16/16/16
f 17/17/17 35/35/35 36/36/36
f 32/32/32 33/33/33 37/37/37
f 38/38/38 37/37/37 33/33/33
f 39/39/39 31/31/31 34/34/34
f 39/39/39 35/35/35 31/31/31
f 40/40/40 36/36/36 35/35/35
f 35/35/35 39/39/39 40/40/40
f 36/36/36 40/40/40 41/41/41
f 34/34/34 32/32/32 42/42/42
f 34/34/34 42/42/42 39/39/39
f 37/37/37 42/42/42 32/32/32
f 37/37/37 38/38/38 43/43/43
f 44/44/44 43/43/43 38/38/38
f 45/45/45 41/41/41 40/40/40
f 41/41/41 45/45/45 46/46/46
f 47/47/47 46/46/46 45/45/45
f 48/48/48 40/40/40 39/39/39
f 48/48/48 39/39/39 42/42/42
f 40/40/40 48/48/48 45/45/45
f 42/42/42 37/37/37 49/49/49
f 42/42/42 49/49/49 48/48/48
f 43/43/43 49/49/49 37/37/37
f 45/45/45 50/50/50 47/47/47
f 50/50/50 45/45/45 48/48/48
f 50/50/50 48/48/48 49/49/49
f 51/51/51 47/47/47 50/50/50
f 51/51/51 50/50/50 52/52/52
f 49/49/49 52/52/52 50/50/50
f 49/49/49 43/43/43 52/52/52
f 53/53/53 52/52/52 43/43/43
f 43/43/43 44/44/44 53/53/53
f 54/54/54 53/53/53 44/44/44
f 57/57/57 56/56/56 55/55/55
f 56/56/56 58/58/58 55/55/55
f 55/55/55 58/58/58 59/59/59
f 60/60/60 58/58/58 56/56/56
f 61/61/61 60/60/60 56/56/56
f 62/62/62 58/58/58 60/60/60
f 65/65/65 64/64/64 63/63/63
f 66/66/66 63/63/63 64/64/64
f 64/64/64 67/67/67 66/66/66
f 63/63/63 66/66/66 68/68/68
f 69/69/69 66/66/66 67/67/67
f 67/67/67 70/70/70 69/69/69
f 71/71/71 68/68/68 66/66/66
f 66/66/66 69/69/69 71/71/71
f 68/68/68 71/71/71 72/72/72
f 73/73/73 69/69/69 70/70/70
f 70/70/70 74/74/74 73/73/73
f 75/75/75 72/72/72 71/71/71
f 75/75/75 76/76/76 72/72/72
f 77/77/77 71/71/71 69/69/69
f 71/71/71 77/77/77 75/75/75
f 69/69/69 73/73/73 77/77/77
f 78/78/78 73/73/73 74/74/74
f 74/74/74 79/79/79 78/78/78
f 80/80/80 75/75/75 77/77/77
f 80/80/80 81/81/81 75/75/75
f 82/82/82 77/77/77 73/73/73
f 77/77/77 82/82/82 80/80/80
f 73/73/73 78/78/78 82/82/82
f 83/83/83 78/78/78 79/79/79
f 79/79/79 84/84/84 83/83/83
f 85/85/85 80/80/80 82/82/82
f 85/85/85 86/86/86 80/80/80
f 87/87/87 86/86/86 85/85/85
f 88/88/88 82/82/82 78/78/78
f 82/82/82 88/88/88 85/85/85
f 78/78/78 83/83/83 88/88/88
f 87/87/87 85/85/85 88/88/88
f 89/89/89 83/83/83 84/84/84
f 84/84/84 90/90/90 89/89/89
f 91/91/91 88/88/88 83/83/83
f 88/88/88 91/91/91 87/87/87
f 83/83/83 89/89/89 91/91/91
f 92/92/92 89/89/89 90/90/90
f 90/90/90 93/93/93 92/92/92
f 94/94/94 92/92/92 93/93/93
f 95/95/95 87/87/87 91/91/91
f 95/95/95 96/96/96 87/87/87
f 97/97/97 91/91/91 89/89/89
f 89/89/89 92/92/92 97/97/97
f 91/91/91 97/97/97 95/95/95
f 92/92/92 94/94/94 98/98/98
f 98/98/98 97/97/97 92/92/92
f 99/99/99 98/98/98 94/94/94
f 100/100/100 96/96/96 95/95/95
f 100/100/100 95/95/95 97/97/97
f 97/97/97 98/98/98 100/100/100
f 101/101/101 96/96/96 100/100/100
f 101/101/101 100/100/100 98/98/98
f 98/98/98 99/99/99 101/101/101
f 102/102/102 101/101/101 99/99/99
f 102/102/102 103/103/103 101/101/101
