g Island-fish
v -7.295291 0 29.16516
v -14.95434 0 28.02563
v 0.622528 0 28.83684
v -22.13364 0 25.19886
v 7.779806 0 29.30787
v 35.40703 0 32.85275
v -26.72776 0 20.5414
v 13.70063 0 33.30604
v 33.77569 0 19.48927
v 33.46951 0 44.30965
v 17.957 0 39.12813
v 19.96835 0 46.79918
v 29.28069 0 49.37656
v 23.30736 0 49.32096
v -29.47036 0 11.56778
v 30.19438 0 6.84689
v 30.10494 0 -0.1820119
v -31.7536 0 -1.785308
v 33.23097 0 -5.913828
v -0.2092274 -1.192093E-07 -11.23743
v 38.31083 0 -11.29099
v -3.383547 -1.192093E-07 -11.31024
v 4.133917 -8.34465E-07 -14.58104
v -7.975046 0 -13.54818
v 40.74286 0 -16.79246
v -32.9386 0 -16.71329
v 5.323049 -6.00987E-07 -19.72737
v 42.24242 0 -26.51768
v 6.739511 -4.184677E-07 -30.34665
v -10.80298 0 -22.00171
v 39.72287 0 -39.58778
v 8.684338 -1.788139E-07 -40.31448
v 11.42095 0 -48.36395
v 32.34011 0 -48.79793
v 18.38723 0 -51.91128
v -36.74985 0 -23.1063
v -42.93349 0 -28.57639
v -46.6633 0 -33.49981
v -11.05788 1.788139E-07 -39.01466
v -48.23969 0 -39.54438
v -47.11815 0 -45.54896
v -12.23232 8.940697E-07 -46.90273
v -43.79452 0 -50.23804
v -18.12029 7.138702E-07 -52.8911
v -38.17925 0 -53.22736
v -26.94894 0 -54.52591
v -3.340741 -2.768536 -15.15296
v -3.383547 -1.192093E-07 -11.31024
v -7.975046 0 -13.54818
v -0.2092274 -1.192093E-07 -11.23743
v -6.976492 -2.768536 -17.26045
v -0.7130309 -2.768536 -14.81721
v -10.80298 0 -22.00171
v -8.54951 -2.768536 -24.6567
v -8.774805 -2.768536 -42.24416
v -11.05788 1.788139E-07 -39.01466
v -11.0193 -2.768536 -50.75912
v -12.23232 8.940697E-07 -46.90273
v 2.360479 -2.768536 -17.82429
v 4.133917 -8.34465E-07 -14.58104
v 5.323049 -6.00987E-07 -19.72737
v 3.62978 -2.768536 -24.14876
v 6.739511 -4.184677E-07 -30.34665
v 4.802075 -2.768535 -33.41334
v 8.684338 -1.788139E-07 -40.31448
v 7.012718 -2.768535 -43.47483
v -17.19376 -2.768536 -55.42308
v -18.12029 7.138702E-07 -52.8911
v -26.94894 0 -54.52591
v -27.85264 -2.768536 -57.515
v -38.17925 0 -53.22736
v -39.16854 -2.768536 -56.17818
v -43.79452 0 -50.23804
v -46.18734 -2.768536 -52.6068
v -47.11815 0 -45.54896
v -50.49859 -2.768536 -46.86277
v -48.23969 0 -39.54438
v -51.87954 -2.768536 -39.55246
v -46.6633 0 -33.49981
v -49.97322 -2.768536 -32.32501
v -42.93349 0 -28.57639
v -45.67036 -2.768536 -26.70899
v -36.74985 0 -23.1063
v -39.51922 -2.768536 -21.32883
v -32.9386 0 -16.71329
v -36.22697 -2.768536 -15.86847
v -31.7536 0 -1.785308
v -35.06783 -2.768536 -1.430358
v -29.47036 0 11.56778
v -32.69892 -2.768536 12.26795
v -26.72776 0 20.5414
v -29.65633 -2.768536 22.1112
v -22.13364 0 25.19886
v -24.07091 -2.768536 27.70997
v -14.95434 0 28.02563
v -15.91501 -2.768536 30.88516
v -7.295291 0 29.16516
v -7.550223 -2.768536 32.11571
v 0.622528 0 28.83684
v 0.6001147 -2.768536 31.78154
v 7.779806 0 29.30787
v 6.928849 -2.768536 32.19336
v 13.70063 0 33.30604
v 11.87259 -2.768536 35.49421
v 17.957 0 39.12813
v 15.57105 -2.768536 40.49628
v 19.96835 0 46.79918
v 17.72608 -2.768536 48.62293
v 23.30736 0 49.32096
v 22.66872 -2.768536 52.31388
v 29.28069 0 49.37656
v 31.051 -2.768536 52.39103
v 33.46951 0 44.30965
v 36.66604 -2.768536 45.67528
v 35.40703 0 32.85275
v 38.82994 -2.768536 33.02361
v 33.77569 0 19.48927
v 37.09732 -2.768536 18.99005
v 30.19438 0 6.84689
v 33.50769 -2.768536 6.460712
v 30.10494 0 -0.1820119
v 33.4314 -2.768536 0.5334782
v 33.23097 0 -5.913828
v 36.06268 -2.768536 -4.236927
v 38.31083 0 -11.29099
v 41.29961 -2.768536 -9.718045
v 40.74286 0 -16.79246
v 44.12117 -2.768536 -16.0289
v 42.24242 0 -26.51768
v 45.77102 -2.768536 -26.60856
v 39.72287 0 -39.58778
v 42.98584 -2.768536 -41.04942
v 32.34011 0 -48.79793
v 34.84871 -2.768536 -51.60567
v 18.38723 0 -51.91128
v 19.20325 -2.768536 -54.96289
v 11.42095 0 -48.36395
v 10.30865 -2.768535 -51.45815
vt 0.8167455 0.1465812
vt 0.8145515 0.1459685
vt 0.818875 0.1476196
vt 0.8123073 0.1458656
vt 0.8209254 0.1483569
vt 0.8289074 0.1509863
vt 0.8105425 0.1465412
vt 0.8231108 0.1480377
vt 0.8268492 0.1543536
vt 0.8298171 0.1477677
vt 0.8250951 0.1470433
vt 0.8267602 0.1454116
vt 0.829414 0.1459425
vt 0.8279151 0.1452048
vt 0.8087307 0.1486035
vt 0.8243813 0.1574081
vt 0.8234988 0.1593652
vt 0.806445 0.1519146
vt 0.8235648 0.1613479
vt 0.8113093 0.1706649
vt 0.8241839 0.1634764
vt 0.8104858 0.1700554
vt 0.8117571 0.1709947
vt 0.808152 0.1683265
vt 0.824084 0.1652454
vt 0.804145 0.1557589
vt 0.812165 0.171295
vt 0.8231799 0.1680062
vt 0.8125727 0.1715953
vt 0.8070207 0.1678524
vt 0.8201966 0.1722724
vt 0.8129805 0.1718955
vt 0.8133882 0.1721958
vt 0.8170071 0.1734922
vt 0.8139524 0.1726112
vt 0.8023094 0.1570608
vt 0.7999747 0.1578674
vt 0.7983929 0.1587516
vt 0.8049935 0.1666401
vt 0.7972575 0.1601608
vt 0.7968381 0.1618727
vt 0.8040055 0.166317
vt 0.7971965 0.1634186
vt 0.8029633 0.1663075
vt 0.7984505 0.1645941
vt 0.8008701 0.1656556
vt 0.8126258 0.16037
vt 0.8132744 0.1593976
vt 0.8114696 0.1580605
vt 0.8139113 0.159869
vt 0.8108832 0.1590757
vt 0.81337 0.1609209
vt 0.8105946 0.1576939
vt 0.8102047 0.1587909
vt 0.8085756 0.1578407
vt 0.8089936 0.1570231
vt 0.807772 0.1575738
vt 0.8082335 0.156741
vt 0.8137399 0.1611899
vt 0.8142576 0.1601241
vt 0.814573 0.1603563
vt 0.814083 0.1614395
vt 0.8148884 0.1605885
vt 0.8144261 0.1616891
vt 0.8152037 0.1608207
vt 0.8147691 0.1619386
vt 0.8069063 0.1575238
vt 0.8074567 0.1564991
vt 0.8058379 0.1559949
vt 0.8051504 0.1569738
vt 0.8039666 0.155174
vt 0.8030205 0.1560208
vt 0.8029969 0.1542649
vt 0.8017479 0.1547728
vt 0.8027197 0.1530693
vt 0.8013657 0.1531274
vt 0.803044 0.1517454
vt 0.8017645 0.1513986
vt 0.8039221 0.1506555
vt 0.8028686 0.1499875
vt 0.8051454 0.1499717
vt 0.804336 0.1491404
vt 0.806951 0.1493479
vt 0.8061681 0.1485078
vt 0.8083706 0.1483411
vt 0.8074008 0.1476627
vt 0.8101494 0.145368
vt 0.8091515 0.1447426
vt 0.8119171 0.1428073
vt 0.8110215 0.1420442
vt 0.8133183 0.1412123
vt 0.8126616 0.1402332
vt 0.8146831 0.1406899
vt 0.8144187 0.1395532
vt 0.8164187 0.1407694
vt 0.8165109 0.1396342
vt 0.8181155 0.1412433
vt 0.8184544 0.1401733
vt 0.8197624 0.1420463
vt 0.8202001 0.1410145
vt 0.8213482 0.1426166
vt 0.821598 0.1415156
vt 0.8230383 0.1423697
vt 0.8229735 0.1412992
vt 0.8245729 0.1416007
vt 0.8242921 0.1406212
vt 0.8258606 0.1403388
vt 0.8257687 0.1392847
vt 0.8267538 0.1401788
vt 0.8272433 0.1390861
vt 0.827913 0.1407493
vt 0.829004 0.1400029
vt 0.8282248 0.1421609
vt 0.8295082 0.1420112
vt 0.8275212 0.1446501
vt 0.8287185 0.144905
vt 0.8259294 0.1472543
vt 0.8270025 0.1477339
vt 0.8240208 0.1496165
vt 0.8250796 0.1501215
vt 0.8233384 0.1511301
vt 0.824501 0.1513916
vt 0.8233894 0.1526635
vt 0.8245631 0.1526725
vt 0.8238682 0.1543096
vt 0.8250513 0.154423
vt 0.823791 0.1556777
vt 0.8249584 0.1560827
vt 0.8230917 0.1578128
vt 0.8241646 0.1585067
vt 0.8207844 0.1611122
vt 0.8215441 0.1621873
vt 0.8183178 0.1620555
vt 0.8185012 0.1633484
vt 0.8159554 0.1613742
vt 0.8156067 0.1625479
vt 0.8155191 0.1610529
vt 0.8151122 0.1621882
vn 0 1 0
vn 0 1 0
vn 0 1 0
vn 0 1 0
vn 0 1 0
vn 0 1 0
vn 0 1 0
vn 0 1 0
vn 0 1 0
vn 0 1 0
vn 0 1 0
vn 0 1 0
vn 0 1 0
vn 0 1 0
vn 0 1 0
vn 0 1 0
vn 0 1 0
vn 0 1 0
vn 0 1 0
vn 0 1 0
vn 0 1 0
vn 0 1 0
vn 0 1 0
vn 0 1 0
vn 0 1 0
vn 0 1 0
vn 0 1 0
vn 0 1 0
vn 0 1 0
vn 0 1 0
vn 0 1 0
vn 0 1 0
vn 0 1 0
vn 0 1 0
vn 0 1 0
vn 0 1 0
vn 0 1 0
vn 0 1 0
vn 0 1 0
vn 0 1 0
vn 0 1 0
vn 0 1 0
vn 0 1 0
vn 0 1 0
vn 0 1 0
vn 0 1 0
vn 0.1830221 0.8010198 -0.5699738
vn 0.149164 0.8021937 -0.5781308
vn 0.4444746 0.7763448 -0.4469126
vn -0.1674242 0.8086053 -0.5640271
vn 0.5883101 0.7347035 -0.3377898
vn -0.2092706 0.8059621 -0.5537425
vn 0.7423512 0.6550533 -0.1407835
vn 0.7572906 0.6489344 -0.07345077
vn 0.7461702 0.6561154 -0.1128835
vn 0.7601259 0.6476812 -0.05213096
vn 0.5417746 0.7370237 -0.4040747
vn 0.6543114 0.7052121 -0.2730434
vn -0.6248286 0.725923 -0.2874457
vn -0.5390177 0.7527154 -0.3779941
vn -0.7353458 0.6624872 -0.1427485
vn -0.7561674 0.6445692 -0.1128784
vn -0.7577806 0.6421488 -0.1158163
vn -0.7476357 0.6496888 -0.1376421
vn -0.7307428 0.6561181 -0.1884785
vn -0.7178845 0.6563951 -0.2319206
vn 0.2872064 0.7349514 -0.6142955
vn 0.3006699 0.7369573 -0.6053855
vn 0.04364876 0.722003 -0.6905118
vn 0.01038428 0.7284858 -0.6849822
vn -0.1916866 0.751202 -0.6316263
vn -0.1944713 0.7513062 -0.6306504
vn -0.4078904 0.7716717 -0.4880043
vn -0.4161198 0.7727479 -0.4792753
vn -0.5597584 0.7911217 -0.2465705
vn -0.5615978 0.7913809 -0.2415042
vn -0.6061336 0.7949842 0.02453877
vn -0.6061902 0.7950853 0.01931271
vn -0.5559621 0.7824826 0.2804055
vn -0.5611032 0.7834104 0.2672662
vn -0.4693394 0.7628989 0.4446409
vn -0.4749404 0.7639145 0.4368823
vn -0.4999736 0.7632716 0.4091977
vn -0.4926456 0.7627596 0.418925
vn -0.6029714 0.7750391 0.18905
vn -0.6005812 0.7748566 0.1972295
vn -0.6343561 0.7688892 0.0800099
vn -0.6343956 0.7689105 0.07949081
vn -0.6248915 0.7662298 0.1496751
vn -0.6250428 0.766266 0.1488549
vn -0.5474094 0.7675111 0.3335713
vn -0.5509683 0.7677745 0.3270416
vn -0.3565355 0.7523161 0.5539883
vn -0.3646854 0.7528444 0.5479323
vn -0.1713744 0.7364411 0.6544352
vn -0.1757769 0.7366653 0.6530136
vn -0.03495826 0.7307871 0.6817096
vn -0.03694975 0.7308289 0.6815599
vn -0.008206856 0.7283179 0.6851903
vn -0.00835806 0.7283173 0.6851891
vn -0.21623 0.7347609 0.6429394
vn -0.2230537 0.7345634 0.6408305
vn -0.4803368 0.7167206 0.5055572
vn -0.4860891 0.7163218 0.5006
vn -0.6387982 0.7044086 0.3094274
vn -0.6431172 0.703935 0.3014563
vn -0.5821267 0.7200957 0.3776118
vn -0.5703647 0.7208931 0.3936969
vn -0.2297028 0.7392025 0.6331006
vn -0.2063681 0.7405595 0.6395184
vn 0.2441177 0.782402 0.5729341
vn 0.269528 0.783973 0.5592325
vn 0.5653791 0.7815998 0.2635304
vn 0.5671932 0.7817047 0.2592866
vn 0.6295838 0.7768196 0.013249
vn 0.6294909 0.7768495 0.01568961
vn 0.6242123 0.770719 -0.1278715
vn 0.6245501 0.7708485 -0.1254186
vn 0.6311895 0.7702664 -0.09104659
vn 0.6308485 0.7702588 -0.09344263
vn 0.6122848 0.7762187 0.1503056
vn 0.6110729 0.7761533 0.1554859
vn 0.5230916 0.7642038 0.3773164
vn 0.5186749 0.7639925 0.383786
vn 0.5259451 0.7708497 0.3594058
vn 0.5314861 0.7716118 0.3494821
vn 0.5992892 0.7801536 0.1794793
vn 0.6005114 0.7803838 0.1743196
vn 0.6175907 0.7864255 -0.01079632
vn 0.617569 0.7864311 -0.01160086
vn 0.55133 0.7956656 -0.2509013
vn 0.5517716 0.7956353 -0.250025
vn 0.3044412 0.7920479 -0.5291273
vn 0.3349289 0.7949738 -0.5058057
vn -0.1061177 0.7524054 -0.6500963
vn -0.03327363 0.7588712 -0.6503901
vn -0.558789 0.7089765 -0.4302407
vn -0.4602697 0.7231141 -0.5150316
g Island-fish_0
f 3/3/3 2/2/2 1/1/1
f 4/4/4 2/2/2 3/3/3
f 4/4/4 3/3/3 5/5/5
f 4/4/4 5/5/5 6/6/6
f 7/7/7 4/4/4 6/6/6
f 5/5/5 8/8/8 6/6/6
f 7/7/7 6/6/6 9/9/9
f 8/8/8 10/10/10 6/6/6
f 8/8/8 11/11/11 10/10/10
f 11/11/11 12/12/12 10/10/10
f 12/12/12 13/13/13 10/10/10
f 12/12/12 14/14/14 13/13/13
f 15/15/15 7/7/7 9/9/9
f 15/15/15 9/9/9 16/16/16
f 15/15/15 16/16/16 17/17/17
f 18/18/18 15/15/15 17/17/17
f 18/18/18 17/17/17 19/19/19
f 18/18/18 19/19/19 20/20/20
f 20/20/20 19/19/19 21/21/21
f 18/18/18 20/20/20 22/22/22
f 23/23/23 20/20/20 21/21/21
f 18/18/18 22/22/22 24/24/24
f 23/23/23 21/21/21 25/25/25
f 26/26/26 18/18/18 24/24/24
f 27/27/27 23/23/23 25/25/25
f 27/27/27 25/25/25 28/28/28
f 29/29/29 27/27/27 28/28/28
f 26/26/26 24/24/24 30/30/30
f 29/29/29 28/28/28 31/31/31
f 32/32/32 29/29/29 31/31/31
f 33/33/33 32/32/32 31/31/31
f 33/33/33 31/31/31 34/34/34
f 34/34/34 35/35/35 33/33/33
f 36/36/36 26/26/26 30/30/30
f 37/37/37 36/36/36 30/30/30
f 38/38/38 37/37/37 30/30/30
f 38/38/38 30/30/30 39/39/39
f 40/40/40 38/38/38 39/39/39
f 41/41/41 40/40/40 39/39/39
f 41/41/41 39/39/39 42/42/42
f 43/43/43 41/41/41 42/42/42
f 43/43/43 42/42/42 44/44/44
f 45/45/45 43/43/43 44/44/44
f 44/44/44 46/46/46 45/45/45
f 49/49/49 48/48/48 47/47/47
f 48/48/48 50/50/50 47/47/47
f 51/51/51 49/49/49 47/47/47
f 50/50/50 52/52/52 47/47/47
f 53/53/53 49/49/49 51/51/51
f 54/54/54 53/53/53 51/51/51
f 53/53/53 54/54/54 55/55/55
f 56/56/56 53/53/53 55/55/55
f 55/55/55 57/57/57 56/56/56
f 57/57/57 58/58/58 56/56/56
f 52/52/52 50/50/50 59/59/59
f 50/50/50 60/60/60 59/59/59
f 60/60/60 61/61/61 59/59/59
f 61/61/61 62/62/62 59/59/59
f 61/61/61 63/63/63 62/62/62
f 63/63/63 64/64/64 62/62/62
f 63/63/63 65/65/65 64/64/64
f 65/65/65 66/66/66 64/64/64
f 58/58/58 57/57/57 67/67/67
f 68/68/68 58/58/58 67/67/67
f 69/69/69 68/68/68 67/67/67
f 70/70/70 69/69/69 67/67/67
f 71/71/71 69/69/69 70/70/70
f 72/72/72 71/71/71 70/70/70
f 73/73/73 71/71/71 72/72/72
f 74/74/74 73/73/73 72/72/72
f 75/75/75 73/73/73 74/74/74
f 76/76/76 75/75/75 74/74/74
f 77/77/77 75/75/75 76/76/76
f 78/78/78 77/77/77 76/76/76
f 79/79/79 77/77/77 78/78/78
f 80/80/80 79/79/79 78/78/78
f 81/81/81 79/79/79 80/80/80
f 82/82/82 81/81/81 80/80/80
f 83/83/83 81/81/81 82/82/82
f 84/84/84 83/83/83 82/82/82
f 85/85/85 83/83/83 84/84/84
f 86/86/86 85/85/85 84/84/84
f 87/87/87 85/85/85 86/86/86
f 88/88/88 87/87/87 86/86/86
f 89/89/89 87/87/87 88/88/88
f 90/90/90 89/89/89 88/88/88
f 91/91/91 89/89/89 90/90/90
f 92/92/92 91/91/91 90/90/90
f 93/93/93 91/91/91 92/92/92
f 94/94/94 93/93/93 92/92/92
f 95/95/95 93/93/93 94/94/94
f 96/96/96 95/95/95 94/94/94
f 97/97/97 95/95/95 96/96/96
f 98/98/98 97/97/97 96/96/96
f 99/99/99 97/97/97 98/98/98
f 100/100/100 99/99/99 98/98/98
f 101/101/101 99/99/99 100/100/100
f 102/102/102 101/101/101 100/100/100
f 103/103/103 101/101/101 102/102/102
f 104/104/104 103/103/103 102/102/102
f 105/105/105 103/103/103 104/104/104
f 106/106/106 105/105/105 104/104/104
f 107/107/107 105/105/105 106/106/106
f 108/108/108 107/107/107 106/106/106
f 109/109/109 107/107/107 108/108/108
f 110/110/110 109/109/109 108/108/108
f 111/111/111 109/109/109 110/110/110
f 112/112/112 111/111/111 110/110/110
f 113/113/113 111/111/111 112/112/112
f 114/114/114 113/113/113 112/112/112
f 115/115/115 113/113/113 114/114/114
f 116/116/116 115/115/115 114/114/114
f 117/117/117 115/115/115 116/116/116
f 118/118/118 117/117/117 116/116/116
f 119/119/119 117/117/117 118/118/118
f 120/120/120 119/119/119 118/118/118
f 121/121/121 119/119/119 120/120/120
f 122/122/122 121/121/121 120/120/120
f 123/123/123 121/121/121 122/122/122
f 124/124/124 123/123/123 122/122/122
f 125/125/125 123/123/123 124/124/124
f 126/126/126 125/125/125 124/124/124
f 127/127/127 125/125/125 126/126/126
f 128/128/128 127/127/127 126/126/126
f 129/129/129 127/127/127 128/128/128
f 130/130/130 129/129/129 128/128/128
f 131/131/131 129/129/129 130/130/130
f 132/132/132 131/131/131 130/130/130
f 133/133/133 131/131/131 132/132/132
f 134/134/134 133/133/133 132/132/132
f 135/135/135 133/133/133 134/134/134
f 136/136/136 135/135/135 134/134/134
f 137/137/137 135/135/135 136/136/136
f 138/138/138 137/137/137 136/136/136
f 137/137/137 138/138/138 66/66/66
f 65/65/65 137/137/137 66/66/66
