g juice
v 0.0278475 0.01838453 -0.04835645
v -0.02776998 0.01838453 -0.04835645
v -0.02394628 0.01351801 -0.04105666
v 0.02367619 0.01351801 -0.04105666
v 0.02367619 0.01351801 -0.04105666
v 0.04766123 0.01351801 -3.875792E-05
v 0.05565624 0.01838453 -3.875792E-05
v 0.0278475 0.01838453 -0.04835645
v -0.02776998 0.01838453 -0.04835645
v -0.05592634 0.01838453 -3.875792E-05
v -0.04758371 0.01351801 -3.875792E-05
v -0.02394628 0.01351801 -0.04105666
v -0.05592634 0.01838453 -3.875792E-05
v -0.02776998 0.01838453 0.04827893
v -0.02394628 0.01351801 0.04132675
v -0.04758371 0.01351801 -3.875792E-05
v -0.02776998 0.01838453 0.04827893
v 0.0278475 0.01838453 0.04827893
v 0.02367619 0.01351801 0.04132675
v -0.02394628 0.01351801 0.04132675
v 0.0278475 0.01838453 0.04827893
v 0.05565624 0.01838453 -3.875792E-05
v 0.04766123 0.01351801 -3.875792E-05
v 0.02367619 0.01351801 0.04132675
v 0.0278475 0.01838453 -0.04835645
v 0.04140426 0.2728345 -0.07164627
v -0.04132675 0.2728345 -0.07164627
v -0.02776998 0.01838453 -0.04835645
v -0.02776998 0.01838453 -0.04835645
v -0.04132675 0.2728345 -0.07164627
v -0.08269225 0.2728345 -3.875792E-05
v -0.05592634 0.01838453 -3.875792E-05
v -0.05592634 0.01838453 -3.875792E-05
v -0.08269225 0.2728345 -3.875792E-05
v -0.04132675 0.2728345 0.07156876
v -0.02776998 0.01838453 0.04827893
v -0.02776998 0.01838453 0.04827893
v -0.04132675 0.2728345 0.07156876
v 0.04140426 0.2728345 0.07156876
v 0.0278475 0.01838453 0.04827893
v 0.0278475 0.01838453 0.04827893
v 0.04140426 0.2728345 0.07156876
v 0.08276977 0.2728345 -3.875792E-05
v 0.05565624 0.01838453 -3.875792E-05
v 0.05565624 0.01838453 -3.875792E-05
v 0.08276977 0.2728345 -3.875792E-05
v 0.04140426 0.2728345 -0.07164627
v 0.0278475 0.01838453 -0.04835645
v 0.08276977 0.2728345 -3.875792E-05
v 0.04140426 0.2728345 0.07156876
v -0.04132675 0.2728345 0.07156876
v -0.08269225 0.2728345 -3.875792E-05
v 0.04140426 0.2728345 -0.07164627
v -0.04132675 0.2728345 -0.07164627
v 0.04766123 0.01351801 -3.875792E-05
v 3.875792E-05 0.01525605 -3.875792E-05
v 0.02367619 0.01351801 0.04132675
v 0.02367619 0.01351801 -0.04105666
v -0.02394628 0.01351801 0.04132675
v -0.02394628 0.01351801 -0.04105666
v -0.04758371 0.01351801 -3.875792E-05
vt 0.05767014 0.7049112
vt 0.06034469 0.7049112
vt 0.06034469 0.7049112
vt 0.05767014 0.7049112
vt 0.08174109 0.7049112
vt 0.07906654 0.7049112
vt 0.07639199 0.7049112
vt 0.08174109 0.7049112
vt 0.06034469 0.7049112
vt 0.06569379 0.7049112
vt 0.06569379 0.7049112
vt 0.06301924 0.7049112
vt 0.06569379 0.7049112
vt 0.06836834 0.7049112
vt 0.06836834 0.7049112
vt 0.06569379 0.7049112
vt 0.06836834 0.7049112
vt 0.07371744 0.7049112
vt 0.07371744 0.7049112
vt 0.07104289 0.7049112
vt 0.07371744 0.7049112
vt 0.07639199 0.7049112
vt 0.07639199 0.7049112
vt 0.07371744 0.7049112
vt 0.05767014 0.7049112
vt 0.05767014 0.7396804
vt 0.06034469 0.7396804
vt 0.06034469 0.7049112
vt 0.06034469 0.7049112
vt 0.06034469 0.7396804
vt 0.06569379 0.7396804
vt 0.06569379 0.7049112
vt 0.06569379 0.7049112
vt 0.06569379 0.7396804
vt 0.06836834 0.7396804
vt 0.06836834 0.7049112
vt 0.06836834 0.7049112
vt 0.06836834 0.7396804
vt 0.07371744 0.7396804
vt 0.07371744 0.7049112
vt 0.07371744 0.7049112
vt 0.07371744 0.7396804
vt 0.07639199 0.7396804
vt 0.07639199 0.7049112
vt 0.07639199 0.7049112
vt 0.07639199 0.7396804
vt 0.08174109 0.7396804
vt 0.08174109 0.7049112
vt 0.06569379 0.7396804
vt 0.07371744 0.7396804
vt 0.06836834 0.7396804
vt 0.06569379 0.7396804
vt 0.05767014 0.7396804
vt 0.06034469 0.7396804
vt 0.08174109 0.6888639
vt 0.06836834 0.6888639
vt 0.07639199 0.6995621
vt 0.07639199 0.6781657
vt 0.06301924 0.6995621
vt 0.06301924 0.6781657
vt 0.05767014 0.6888639
vn -0.01587105 -0.8411638 -0.5405475
vn -0.01587105 -0.8411638 -0.5405475
vn -0.01587105 -0.8411638 -0.5405475
vn -0.01587105 -0.8411638 -0.5405475
vn 0.4920015 -0.8411638 -0.2244505
vn 0.4920015 -0.8411638 -0.2244505
vn 0.4920015 -0.8411638 -0.2244505
vn 0.4920015 -0.8411638 -0.2244505
vn -0.4920015 -0.8411638 -0.2244504
vn -0.4920015 -0.8411638 -0.2244504
vn -0.4920015 -0.8411638 -0.2244504
vn -0.4920015 -0.8411638 -0.2244504
vn -0.4920015 -0.8411638 0.2244504
vn -0.4920015 -0.8411638 0.2244504
vn -0.4920015 -0.8411638 0.2244504
vn -0.4920015 -0.8411638 0.2244504
vn -0.01587105 -0.8411638 0.5405475
vn -0.01587105 -0.8411638 0.5405475
vn -0.01587105 -0.8411638 0.5405475
vn -0.01587105 -0.8411638 0.5405475
vn 0.4920015 -0.8411638 0.2244505
vn 0.4920015 -0.8411638 0.2244505
vn 0.4920015 -0.8411638 0.2244505
vn 0.4920015 -0.8411638 0.2244505
vn -0.01587105 -0.07935506 -0.9967201
vn -0.01587105 -0.07935506 -0.9967201
vn -0.01587105 -0.07935506 -0.9967201
vn -0.01587105 -0.07935506 -0.9967201
vn -0.8729059 -0.07935506 -0.4813919
vn -0.8729059 -0.07935506 -0.4813919
vn -0.8729059 -0.07935506 -0.4813919
vn -0.8729059 -0.07935506 -0.4813919
vn -0.8729059 -0.07935506 0.4813919
vn -0.8729059 -0.07935506 0.4813919
vn -0.8729059 -0.07935506 0.4813919
vn -0.8729059 -0.07935506 0.4813919
vn -0.01587105 -0.07935506 0.9967201
vn -0.01587105 -0.07935506 0.9967201
vn -0.01587105 -0.07935506 0.9967201
vn -0.01587105 -0.07935506 0.9967201
vn 0.8729059 -0.07935506 0.4813919
vn 0.8729059 -0.07935506 0.4813919
vn 0.8729059 -0.07935506 0.4813919
vn 0.8729059 -0.07935506 0.4813919
vn 0.8729059 -0.07935506 -0.4813919
vn 0.8729059 -0.07935506 -0.4813919
vn 0.8729059 -0.07935506 -0.4813919
vn 0.8729059 -0.07935506 -0.4813919
vn -0.01587105 0.999874 -0.000345267
vn -0.01587105 0.999874 -0.000345267
vn -0.01587105 0.999874 -0.000345267
vn -0.01587105 0.999874 -0.000345267
vn -0.01587105 0.999874 -0.000345267
vn -0.01587105 0.999874 -0.000345267
vn -0.04756513 -0.9988682 0
vn -0.01587105 -0.999874 -0.000345267
vn -0.01587105 -0.999874 -0.000345267
vn -0.01587105 -0.999874 -0.000345267
vn 0.01587099 -0.999874 -0.000345267
vn 0.01587099 -0.999874 -0.000345267
vn 0.04756513 -0.9988682 0
g juice_0
f 3/3/3 2/2/2 1/1/1
f 4/4/4 3/3/3 1/1/1
f 7/7/7 6/6/6 5/5/5
f 8/8/8 7/7/7 5/5/5
f 11/11/11 10/10/10 9/9/9
f 12/12/12 11/11/11 9/9/9
f 15/15/15 14/14/14 13/13/13
f 16/16/16 15/15/15 13/13/13
f 19/19/19 18/18/18 17/17/17
f 20/20/20 19/19/19 17/17/17
f 23/23/23 22/22/22 21/21/21
f 24/24/24 23/23/23 21/21/21
f 27/27/27 26/26/26 25/25/25
f 28/28/28 27/27/27 25/25/25
f 31/31/31 30/30/30 29/29/29
f 32/32/32 31/31/31 29/29/29
f 35/35/35 34/34/34 33/33/33
f 36/36/36 35/35/35 33/33/33
f 39/39/39 38/38/38 37/37/37
f 40/40/40 39/39/39 37/37/37
f 43/43/43 42/42/42 41/41/41
f 44/44/44 43/43/43 41/41/41
f 47/47/47 46/46/46 45/45/45
f 48/48/48 47/47/47 45/45/45
f 51/51/51 50/50/50 49/49/49
f 52/52/52 51/51/51 49/49/49
f 52/52/52 49/49/49 53/53/53
f 54/54/54 52/52/52 53/53/53
f 57/57/57 56/56/56 55/55/55
f 55/55/55 56/56/56 58/58/58
f 59/59/59 56/56/56 57/57/57
f 58/58/58 56/56/56 60/60/60
f 61/61/61 56/56/56 59/59/59
f 60/60/60 56/56/56 61/61/61
