g Key_Cyl
v 0 -0.25 0.075
v 0 0.25 0.075
v -0.06495191 -0.25 0.0375
v -0.06495191 0.25 0.0375
v -0.0649519 -0.25 -0.03750001
v -0.0649519 0.25 -0.03750001
v 6.556709E-09 -0.25 -0.075
v 6.556709E-09 0.25 -0.075
v 0.06495191 -0.25 -0.03749999
v 0.06495191 0.25 -0.03749999
v 0.06495191 -0.25 0.03749999
v 0.06495191 0.25 0.03749999
v -1.311342E-08 -0.25 0.075
v -1.311342E-08 0.25 0.075
v 0 0.25 0
v 0 0.25 0.075
v -0.06495191 0.25 0.0375
v -0.0649519 0.25 -0.03750001
v 6.556709E-09 0.25 -0.075
v 0.06495191 0.25 -0.03749999
v 0.06495191 0.25 0.03749999
v -1.311342E-08 0.25 0.075
v 0 -0.25 0
v -1.311342E-08 -0.25 0.075
v 0.06495191 -0.25 0.03749999
v 0.06495191 -0.25 -0.03749999
v 6.556709E-09 -0.25 -0.075
v -0.0649519 -0.25 -0.03750001
v -0.06495191 -0.25 0.0375
v 0 -0.25 0.075
vt 0 0
vt 0 1
vt -0.1666667 0
vt -0.1666667 1
vt -0.3333333 0
vt -0.3333333 1
vt -0.5 0
vt -0.5 1
vt -0.6666667 0
vt -0.6666667 1
vt -0.8333334 0
vt -0.8333334 1
vt -1 0
vt -1 1
vt 0.5 0.5
vt 0.5 1
vt 0.9330127 0.75
vt 0.9330127 0.25
vt 0.5 0
vt 0.06698728 0.2500001
vt 0.06698728 0.7499999
vt 0.5000001 1
vt 0.5 0.5
vt 0.5000001 1
vt 0.06698728 0.7499999
vt 0.06698728 0.2500001
vt 0.5 0
vt 0.9330127 0.25
vt 0.9330127 0.75
vt 0.5 1
vn 0 0 1
vn 0 0 1
vn -0.8660254 0 0.4999999
vn -0.8660254 0 0.4999999
vn -0.8660253 0 -0.5000001
vn -0.8660253 0 -0.5000001
vn 8.742278E-08 0 -1
vn 8.742278E-08 0 -1
vn 0.8660254 0 -0.4999999
vn 0.8660254 0 -0.4999999
vn 0.8660254 0 0.4999999
vn 0.8660254 0 0.4999999
vn -1.748456E-07 0 1
vn -1.748456E-07 0 1
vn 0 1 0
vn 0 1 0
vn 0 1 0
vn 0 1 0
vn 0 1 0
vn 0 1 0
vn 0 1 0
vn 0 1 0
vn 0 -1 0
vn 0 -1 0
vn 0 -1 0
vn 0 -1 0
vn 0 -1 0
vn 0 -1 0
vn 0 -1 0
vn 0 -1 0
g Key_Cyl_0
f 2/2/2 4/4/4 3/3/3
f 3/3/3 1/1/1 2/2/2
f 4/4/4 6/6/6 5/5/5
f 5/5/5 3/3/3 4/4/4
f 6/6/6 8/8/8 7/7/7
f 7/7/7 5/5/5 6/6/6
f 8/8/8 10/10/10 9/9/9
f 9/9/9 7/7/7 8/8/8
f 10/10/10 12/12/12 11/11/11
f 11/11/11 9/9/9 10/10/10
f 12/12/12 14/14/14 13/13/13
f 13/13/13 11/11/11 12/12/12
f 17/17/17 16/16/16 15/15/15
f 18/18/18 17/17/17 15/15/15
f 19/19/19 18/18/18 15/15/15
f 20/20/20 19/19/19 15/15/15
f 21/21/21 20/20/20 15/15/15
f 22/22/22 21/21/21 15/15/15
f 25/25/25 24/24/24 23/23/23
f 26/26/26 25/25/25 23/23/23
f 27/27/27 26/26/26 23/23/23
f 28/28/28 27/27/27 23/23/23
f 29/29/29 28/28/28 23/23/23
f 30/30/30 29/29/29 23/23/23
