g kurabiye
v 0.0134478 -0.0132106 -0.02595975
v -0.0151933 -0.0003428627 -0.02595975
v -0.01631997 -0.009356212 -0.02595975
v 0.01457446 -0.004197255 -0.02595975
v 0.01350709 0.005705565 -0.02198676
v -0.0116354 0.008966975 -0.02198676
v -0.01631997 -0.009356212 -0.02595975
v -0.03001789 0.001554683 1.292676E-05
v -0.03120385 -0.007458664 1.292676E-05
v -0.0151933 -0.0003428627 -0.02595975
v -0.0116354 0.008966975 -0.02198676
v -0.02420665 0.01056803 1.292676E-05
v -0.03120385 -0.007458664 1.292676E-05
v -0.0151933 -0.0003428627 0.0259856
v -0.01631997 -0.009356212 0.0259856
v -0.03001789 0.001554683 1.292676E-05
v -0.02420665 0.01056803 1.292676E-05
v -0.0116354 0.008966975 0.02195331
v -0.01631997 -0.009356212 0.0259856
v 0.01457446 -0.004197255 0.0259856
v 0.0134478 -0.0132106 0.0259856
v -0.0151933 -0.0003428627 0.0259856
v -0.0116354 0.008966975 0.02195331
v 0.01350709 0.005705565 0.02195331
v 0.0134478 -0.0132106 0.0259856
v 0.02945835 -0.006094802 1.292676E-05
v 0.02827238 -0.01510815 1.292676E-05
v 0.01457446 -0.004197255 0.0259856
v 0.01350709 0.005705565 0.02195331
v 0.02613764 0.004045215 1.292676E-05
v 0.02827238 -0.01510815 1.292676E-05
v 0.01457446 -0.004197255 -0.02595975
v 0.0134478 -0.0132106 -0.02595975
v 0.02945835 -0.006094802 1.292676E-05
v 0.02613764 0.004045215 1.292676E-05
v 0.01350709 0.005705565 -0.02198676
v 0.02827238 -0.01510815 1.292676E-05
v -0.001436086 -0.01131306 1.292676E-05
v 0.0134478 -0.0132106 0.0259856
v 0.0134478 -0.0132106 -0.02595975
v -0.01631997 -0.009356212 0.0259856
v -0.01631997 -0.009356212 -0.02595975
v -0.03120385 -0.007458664 1.292676E-05
v 0.01350709 0.005705565 -0.02198676
v 0.02613764 0.004045215 1.292676E-05
v 0.01558254 0.009441361 1.292676E-05
v 0.008526035 0.01039014 -0.01232113
v -0.0116354 0.008966975 -0.02198676
v 0.008526035 0.01039014 0.01234698
v 0.01350709 0.005705565 0.02195331
v 0.001469532 0.01127961 1.292676E-05
v -0.005586971 0.01216909 -0.01232113
v -0.02420665 0.01056803 1.292676E-05
v -0.005586971 0.01216909 0.01234698
v -0.0116354 0.008966975 0.02195331
v -0.01264347 0.01311786 1.292676E-05
vt 0.9366702 0.2023155
vt 0.9366702 0.2083348
vt 0.9366702 0.2023155
vt 0.9366702 0.2083348
vt 0.9366702 0.2233831
vt 0.9366702 0.2233831
vt 0.9366702 0.2023155
vt 0.9396799 0.2083348
vt 0.9396799 0.2023155
vt 0.9366702 0.2083348
vt 0.9366702 0.2233831
vt 0.9396799 0.2233831
vt 0.9396799 0.2023155
vt 0.9426895 0.2083348
vt 0.9426895 0.2023155
vt 0.9396799 0.2083348
vt 0.9396799 0.2233831
vt 0.9426895 0.2233831
vt 0.9426895 0.2023155
vt 0.9456992 0.2083348
vt 0.9456992 0.2023155
vt 0.9426895 0.2083348
vt 0.9426895 0.2233831
vt 0.9456992 0.2233831
vt 0.9456992 0.2023155
vt 0.9487088 0.2083348
vt 0.9487088 0.2023155
vt 0.9456992 0.2083348
vt 0.9456992 0.2233831
vt 0.9487088 0.2233831
vt 0.9487088 0.2023155
vt 0.9487088 0.2083348
vt 0.9487088 0.2023155
vt 0.9487088 0.2083348
vt 0.9487088 0.2233831
vt 0.9487088 0.2233831
vt 0.9517184 0.1932866
vt 0.9426895 0.1902769
vt 0.9487088 0.1993058
vt 0.9487088 0.1842576
vt 0.9396799 0.1993058
vt 0.9396799 0.1842576
vt 0.9336605 0.1932866
vt 0.9487088 0.2384313
vt 0.9517184 0.232412
vt 0.9456992 0.232412
vt 0.9456992 0.2354217
vt 0.9396799 0.2384313
vt 0.9456992 0.2263927
vt 0.9487088 0.2233831
vt 0.9426895 0.232412
vt 0.9396799 0.2354217
vt 0.9336605 0.232412
vt 0.9396799 0.2263927
vt 0.9396799 0.2233831
vt 0.9396799 0.232412
vn 0.01571345 0.01571351 -0.999753
vn 0.01571345 0.1728484 -0.984823
vn 0.01571345 0.01571351 -0.999753
vn 0.01571345 0.1728484 -0.984823
vn 0.04714042 0.3928371 -0.918399
vn 0.04714042 0.3928371 -0.918399
vn -0.8642417 0.1099945 -0.4909048
vn -0.8328148 0.2985563 -0.4661371
vn -0.8642417 0.1099945 -0.4909048
vn -0.8328148 0.2985563 -0.4661371
vn -0.7385338 0.4871181 -0.4661371
vn -0.7385338 0.4871181 -0.4661371
vn -0.8642417 0.1099945 0.4909048
vn -0.8328148 0.2985563 0.4661371
vn -0.8642417 0.1099945 0.4909048
vn -0.8328148 0.2985563 0.4661371
vn -0.7385338 0.4871181 0.4661371
vn -0.7385338 0.4871181 0.4661371
vn -0.01571351 0.01571351 0.999753
vn 0.01571345 0.1728484 0.984823
vn -0.01571351 0.01571351 0.999753
vn 0.01571345 0.1728484 0.984823
vn 0.04714042 0.3928371 0.918399
vn 0.04714042 0.3928371 0.918399
vn 0.8642417 -0.1099944 0.4909048
vn 0.8642417 0.07856745 0.4969039
vn 0.8642417 -0.1099944 0.4909048
vn 0.8642417 0.07856745 0.4969039
vn 0.8328147 0.2671292 0.4848316
vn 0.8328147 0.2671292 0.4848316
vn 0.8642417 -0.1099944 -0.4909048
vn 0.8642417 0.07856745 -0.4969039
vn 0.8642417 -0.1099944 -0.4909048
vn 0.8642417 0.07856745 -0.4969039
vn 0.8328147 0.2671292 -0.4848316
vn 0.8328147 0.2671292 -0.4848316
vn -0.1414214 -0.9899495 0
vn -0.1414214 -0.9899495 0
vn -0.1414214 -0.9899495 0
vn -0.1414214 -0.9899495 0
vn -0.1414214 -0.9899495 0
vn -0.1414214 -0.9899495 0
vn -0.1414214 -0.9899495 0
vn 0.2985562 0.8956687 -0.3296086
vn 0.4534572 0.8912781 0
vn 0.3901491 0.9207518 0
vn 0.2671292 0.9270956 -0.2629367
vn -0.04714054 0.9585226 -0.281091
vn 0.2671292 0.9270956 0.2629367
vn 0.2985562 0.8956687 0.3296086
vn 0.1414213 0.9899495 0
vn -0.01571351 0.9585226 -0.2845829
vn -0.2020915 0.9793667 0
vn -0.01571351 0.9585226 0.2845829
vn -0.04714054 0.9585226 0.281091
vn -0.1414214 0.9899495 0
g kurabiye_0
f 3/3/3 2/2/2 1/1/1
f 2/2/2 4/4/4 1/1/1
f 4/4/4 2/2/2 5/5/5
f 2/2/2 6/6/6 5/5/5
f 9/9/9 8/8/8 7/7/7
f 8/8/8 10/10/10 7/7/7
f 10/10/10 8/8/8 11/11/11
f 8/8/8 12/12/12 11/11/11
f 15/15/15 14/14/14 13/13/13
f 14/14/14 16/16/16 13/13/13
f 16/16/16 14/14/14 17/17/17
f 14/14/14 18/18/18 17/17/17
f 21/21/21 20/20/20 19/19/19
f 20/20/20 22/22/22 19/19/19
f 22/22/22 20/20/20 23/23/23
f 20/20/20 24/24/24 23/23/23
f 27/27/27 26/26/26 25/25/25
f 26/26/26 28/28/28 25/25/25
f 28/28/28 26/26/26 29/29/29
f 26/26/26 30/30/30 29/29/29
f 33/33/33 32/32/32 31/31/31
f 32/32/32 34/34/34 31/31/31
f 35/35/35 34/34/34 32/32/32
f 36/36/36 35/35/35 32/32/32
f 39/39/39 38/38/38 37/37/37
f 37/37/37 38/38/38 40/40/40
f 41/41/41 38/38/38 39/39/39
f 40/40/40 38/38/38 42/42/42
f 43/43/43 38/38/38 41/41/41
f 42/42/42 38/38/38 43/43/43
f 46/46/46 45/45/45 44/44/44
f 47/47/47 46/46/46 44/44/44
f 44/44/44 48/48/48 47/47/47
f 45/45/45 46/46/46 49/49/49
f 50/50/50 45/45/45 49/49/49
f 47/47/47 51/51/51 46/46/46
f 46/46/46 51/51/51 49/49/49
f 48/48/48 52/52/52 47/47/47
f 52/52/52 51/51/51 47/47/47
f 48/48/48 53/53/53 52/52/52
f 50/50/50 49/49/49 54/54/54
f 49/49/49 51/51/51 54/54/54
f 55/55/55 50/50/50 54/54/54
f 56/56/56 51/51/51 52/52/52
f 53/53/53 56/56/56 52/52/52
f 54/54/54 51/51/51 56/56/56
f 55/55/55 54/54/54 56/56/56
f 53/53/53 55/55/55 56/56/56
