g leaf
v 0.1546072 0.05378458 -0.1534828
v 0.1864657 0.06615317 -0.08639263
v -0.0001874119 0.06615317 0.0001874119
v 0.08639263 0.06615317 -0.1782199
v 0.1546072 0.05378458 -0.1534828
v -0.0001874119 0.06615317 0.0001874119
v -0.0001874119 0.05378458 0.1785948
v -0.08639264 0.06615317 0.17822
v 0.000187397 0.05378458 -0.1785948
v 0.08639263 0.06615317 -0.1782199
v -0.0001874119 0.06615317 0.0001874119
v -0.08639264 0.06615317 0.17822
v -0.1546072 0.05378458 0.1534828
v -0.08639264 0.06615317 -0.1782199
v 0.000187397 0.05378458 -0.1785948
v -0.0001874119 0.06615317 0.0001874119
v 0.1546072 0.05378458 0.1534828
v 0.08639263 0.06615317 0.17822
v -0.1546072 0.05378458 -0.1534828
v -0.08639264 0.06615317 -0.1782199
v -0.0001874119 0.06615317 0.0001874119
v 0.08639263 0.06615317 0.17822
v -0.0001874119 0.05378458 0.1785948
v -0.1864657 0.06615317 -0.08639263
v -0.1546072 0.05378458 -0.1534828
v -0.0001874119 0.06615317 0.0001874119
v -0.1546072 0.05378458 0.1534828
v -0.1864657 0.06615317 0.08639264
v -0.0001874119 0.06615317 0.0001874119
v 0.1864657 0.06615317 0.08639264
v 0.1546072 0.05378458 0.1534828
v -0.0001874119 0.06615317 0.0001874119
v 0.1864657 0.05490901 -0.08639263
v 0.1546072 0.04254043 -0.1534828
v -0.0001874119 0.05490901 0.0001874119
v 0.1546072 0.04254043 -0.1534828
v 0.08639263 0.05490901 -0.1778452
v -0.0001874119 0.05490901 0.0001874119
v -0.08639264 0.05490901 0.1778452
v -0.0001874119 0.04254043 0.1785948
v 0.08639263 0.05490901 -0.1778452
v 0.000187397 0.04254043 -0.1785948
v -0.0001874119 0.05490901 0.0001874119
v -0.1546072 0.04254043 0.1534828
v -0.08639264 0.05490901 0.1778452
v 0.000187397 0.04254043 -0.1785948
v -0.08639264 0.05490901 -0.1778452
v -0.0001874119 0.05490901 0.0001874119
v 0.08639263 0.05490901 0.1778452
v 0.1546072 0.04254043 0.1534828
v -0.08639264 0.05490901 -0.1778452
v -0.1546072 0.04254043 -0.1534828
v -0.0001874119 0.05490901 0.0001874119
v -0.0001874119 0.04254043 0.1785948
v 0.08639263 0.05490901 0.1778452
v -0.1546072 0.04254043 -0.1534828
v -0.1864657 0.05490901 -0.08639263
v -0.0001874119 0.05490901 0.0001874119
v -0.1864657 0.05490901 0.08639264
v -0.1546072 0.04254043 0.1534828
v -0.0001874119 0.05490901 0.0001874119
v 0.1546072 0.04254043 0.1534828
v 0.1864657 0.05490901 0.08639264
v -0.0001874119 0.05490901 0.0001874119
v 0.08639263 0.06615317 -0.1782199
v 0.000187397 0.05378458 -0.1785948
v 0.000187397 0.04254043 -0.1785948
v 0.08639263 0.05490901 -0.1778452
v 0.1546072 0.05378458 -0.1534828
v 0.1546072 0.04254043 -0.1534828
v 0.1864657 0.06615317 -0.08639263
v 0.1864657 0.05490901 -0.08639263
v 0.1917129 0.05378458 0.0001874119
v 0.1917129 0.04254043 0.0001874119
v 0.1864657 0.06615317 0.08639264
v 0.1864657 0.05490901 0.08639264
v 0.1546072 0.05378458 0.1534828
v 0.1546072 0.04254043 0.1534828
v 0.08639263 0.06615317 0.17822
v 0.08639263 0.05490901 0.1778452
v -0.0001874119 0.05378458 0.1785948
v -0.0001874119 0.04254043 0.1785948
v 0.000187397 0.05378458 -0.1785948
v -0.08639264 0.05490901 -0.1778452
v 0.000187397 0.04254043 -0.1785948
v -0.08639264 0.06615317 -0.1782199
v -0.1546072 0.04254043 -0.1534828
v -0.1546072 0.05378458 -0.1534828
v -0.1864657 0.05490901 -0.08639263
v -0.1864657 0.06615317 -0.08639263
v -0.191713 0.04254043 -0.000187397
v -0.191713 0.05378458 -0.000187397
v -0.1864657 0.05490901 0.08639264
v -0.1864657 0.06615317 0.08639264
v -0.1546072 0.04254043 0.1534828
v -0.1546072 0.05378458 0.1534828
v -0.08639264 0.05490901 0.1778452
v -0.08639264 0.06615317 0.17822
v -0.0001874119 0.04254043 0.1785948
v -0.0001874119 0.05378458 0.1785948
v -0.191713 0.05378458 -0.000187397
v -0.1864657 0.06615317 -0.08639263
v -0.0001874119 0.06615317 0.0001874119
v -0.1864657 0.06615317 0.08639264
v 0.1917129 0.05378458 0.0001874119
v 0.1864657 0.06615317 0.08639264
v -0.0001874119 0.06615317 0.0001874119
v 0.1864657 0.06615317 -0.08639263
v -0.1864657 0.05490901 -0.08639263
v -0.191713 0.04254043 -0.000187397
v -0.0001874119 0.05490901 0.0001874119
v -0.1864657 0.05490901 0.08639264
v 0.1864657 0.05490901 0.08639264
v 0.1917129 0.04254043 0.0001874119
v -0.0001874119 0.05490901 0.0001874119
v 0.1864657 0.05490901 -0.08639263
vt 0.4410245 0.6228679
vt 0.4358536 0.6366571
vt 0.4298209 0.6366571
vt 0.4427481 0.6366571
vt 0.4410245 0.6228679
vt 0.4298209 0.6366571
vt 0.4168936 0.6228679
vt 0.4168936 0.6366571
vt 0.4427481 0.6228679
vt 0.4427481 0.6366571
vt 0.4298209 0.6366571
vt 0.4168936 0.6366571
vt 0.4186172 0.6228679
vt 0.4427481 0.6366571
vt 0.4427481 0.6228679
vt 0.4298209 0.6366571
vt 0.4186172 0.6228679
vt 0.4168936 0.6366571
vt 0.4410245 0.6228679
vt 0.4427481 0.6366571
vt 0.4298209 0.6366571
vt 0.4168936 0.6366571
vt 0.4168936 0.6228679
vt 0.4358536 0.6366571
vt 0.4410245 0.6228679
vt 0.4298209 0.6366571
vt 0.4186172 0.6228679
vt 0.4237881 0.6366571
vt 0.4298209 0.6366571
vt 0.4237881 0.6366571
vt 0.4186172 0.6228679
vt 0.4298209 0.6366571
vt 0.4358536 0.6245916
vt 0.4410245 0.6108025
vt 0.4298209 0.6245916
vt 0.4410245 0.6108025
vt 0.4427481 0.6245916
vt 0.4298209 0.6245916
vt 0.4168936 0.6245916
vt 0.4168936 0.6108025
vt 0.4427481 0.6245916
vt 0.4427481 0.6108025
vt 0.4298209 0.6245916
vt 0.4186172 0.6108025
vt 0.4168936 0.6245916
vt 0.4427481 0.6108025
vt 0.4427481 0.6245916
vt 0.4298209 0.6245916
vt 0.4168936 0.6245916
vt 0.4186172 0.6108025
vt 0.4427481 0.6245916
vt 0.4410245 0.6108025
vt 0.4298209 0.6245916
vt 0.4168936 0.6108025
vt 0.4168936 0.6245916
vt 0.4410245 0.6108025
vt 0.4358536 0.6245916
vt 0.4298209 0.6245916
vt 0.4237881 0.6245916
vt 0.4186172 0.6108025
vt 0.4298209 0.6245916
vt 0.4186172 0.6108025
vt 0.4237881 0.6245916
vt 0.4298209 0.6245916
vt 0.4427481 0.6366571
vt 0.4427481 0.6228679
vt 0.4427481 0.6108025
vt 0.4427481 0.6245916
vt 0.4410245 0.6228679
vt 0.4410245 0.6108025
vt 0.4358536 0.6366571
vt 0.4358536 0.6245916
vt 0.4298209 0.6228679
vt 0.4298209 0.6108025
vt 0.4237881 0.6366571
vt 0.4237881 0.6245916
vt 0.4186172 0.6228679
vt 0.4186172 0.6108025
vt 0.4168936 0.6366571
vt 0.4168936 0.6245916
vt 0.4168936 0.6228679
vt 0.4168936 0.6108025
vt 0.4427481 0.6228679
vt 0.4427481 0.6245916
vt 0.4427481 0.6108025
vt 0.4427481 0.6366571
vt 0.4410245 0.6108025
vt 0.4410245 0.6228679
vt 0.4358536 0.6245916
vt 0.4358536 0.6366571
vt 0.4298209 0.6108025
vt 0.4298209 0.6228679
vt 0.4237881 0.6245916
vt 0.4237881 0.6366571
vt 0.4186172 0.6108025
vt 0.4186172 0.6228679
vt 0.4168936 0.6245916
vt 0.4168936 0.6366571
vt 0.4168936 0.6108025
vt 0.4168936 0.6228679
vt 0.4298209 0.6228679
vt 0.4358536 0.6366571
vt 0.4298209 0.6366571
vt 0.4237881 0.6366571
vt 0.4298209 0.6228679
vt 0.4237881 0.6366571
vt 0.4298209 0.6366571
vt 0.4358536 0.6366571
vt 0.4358536 0.6245916
vt 0.4298209 0.6108025
vt 0.4298209 0.6245916
vt 0.4237881 0.6245916
vt 0.4237881 0.6245916
vt 0.4298209 0.6108025
vt 0.4298209 0.6245916
vt 0.4358536 0.6245916
vn 0.04756513 0.9988682 0
vn -0.01587105 0.999874 -0.000345267
vn -0.01587105 0.999874 -0.000345267
vn 0.01587099 0.999874 -0.000345267
vn 0.04756513 0.9988682 0
vn -0.01587105 0.999874 -0.000345267
vn -0.01587105 0.999874 -0.000345267
vn -0.01587105 0.999874 -0.000345267
vn -0.01587105 0.999874 -0.000345267
vn 0.01587099 0.999874 -0.000345267
vn -0.01587105 0.999874 -0.000345267
vn -0.01587105 0.999874 -0.000345267
vn -0.04756513 0.9988682 0
vn -0.01587105 0.999874 -0.000345267
vn -0.01587105 0.999874 -0.000345267
vn -0.01587105 0.999874 -0.000345267
vn 0.04756513 0.9988682 0
vn 0.01587099 0.999874 -0.000345267
vn -0.04756513 0.9988682 0
vn -0.01587105 0.999874 -0.000345267
vn -0.01587105 0.999874 -0.000345267
vn 0.01587099 0.999874 -0.000345267
vn -0.01587105 0.999874 -0.000345267
vn 0.01587099 0.999874 -0.000345267
vn -0.04756513 0.9988682 0
vn -0.01587105 0.999874 -0.000345267
vn -0.04756513 0.9988682 0
vn 0.01587099 0.999874 -0.000345267
vn -0.01587105 0.999874 -0.000345267
vn -0.01587105 0.999874 -0.000345267
vn 0.04756513 0.9988682 0
vn -0.01587105 0.999874 -0.000345267
vn 0.01587099 -0.999874 -0.000345267
vn -0.04756513 -0.9988682 0
vn -0.01587105 -0.999874 -0.000345267
vn -0.04756513 -0.9988682 0
vn -0.01587105 -0.999874 -0.000345267
vn -0.01587105 -0.999874 -0.000345267
vn 0.01587099 -0.999874 -0.000345267
vn -0.01587105 -0.999874 -0.000345267
vn -0.01587105 -0.999874 -0.000345267
vn -0.01587105 -0.999874 -0.000345267
vn -0.01587105 -0.999874 -0.000345267
vn 0.04756513 -0.9988682 0
vn 0.01587099 -0.999874 -0.000345267
vn -0.01587105 -0.999874 -0.000345267
vn 0.01587099 -0.999874 -0.000345267
vn -0.01587105 -0.999874 -0.000345267
vn -0.01587105 -0.999874 -0.000345267
vn -0.04756513 -0.9988682 0
vn 0.01587099 -0.999874 -0.000345267
vn 0.04756513 -0.9988682 0
vn -0.01587105 -0.999874 -0.000345267
vn -0.01587105 -0.999874 -0.000345267
vn -0.01587105 -0.999874 -0.000345267
vn 0.04756513 -0.9988682 0
vn -0.01587105 -0.999874 -0.000345267
vn -0.01587105 -0.999874 -0.000345267
vn -0.01587105 -0.999874 -0.000345267
vn 0.04756513 -0.9988682 0
vn -0.01587105 -0.999874 -0.000345267
vn -0.04756513 -0.9988682 0
vn 0.01587099 -0.999874 -0.000345267
vn -0.01587105 -0.999874 -0.000345267
vn 0.1745812 -0.01587099 -0.9845148
vn 0.01587099 -0.01587099 -0.9997481
vn 0.01587099 -0.01587099 -0.9997481
vn 0.1745812 -0.01587099 -0.9845148
vn 0.6824536 -0.01587099 -0.7307566
vn 0.6824536 -0.01587099 -0.7307566
vn 0.968132 -0.01587099 -0.2499373
vn 0.968132 -0.01587099 -0.2499373
vn 0.999874 -0.01587099 -0.000346655
vn 0.999874 -0.01587099 -0.000346655
vn 0.968132 -0.01587099 0.2499373
vn 0.968132 -0.01587099 0.2499373
vn 0.6824536 -0.01587099 0.7307566
vn 0.6824536 -0.01587099 0.7307566
vn 0.1745812 -0.01587099 0.9845148
vn 0.1745812 -0.01587099 0.9845148
vn -0.01587105 -0.01587099 0.9997481
vn -0.01587105 -0.01587099 0.9997481
vn 0.01587099 -0.01587099 -0.9997481
vn -0.1745812 -0.01587099 -0.9845148
vn 0.01587099 -0.01587099 -0.9997481
vn -0.1745812 -0.01587099 -0.9845148
vn -0.6824538 -0.01587099 -0.7307565
vn -0.6824538 -0.01587099 -0.7307565
vn -0.968132 -0.01587099 -0.249937
vn -0.968132 -0.01587099 -0.249937
vn -0.999874 -0.01587099 -0.000346655
vn -0.999874 -0.01587099 -0.000346655
vn -0.968132 -0.01587099 0.249937
vn -0.968132 -0.01587099 0.249937
vn -0.6824538 -0.01587099 0.7307565
vn -0.6824538 -0.01587099 0.7307565
vn -0.1745812 -0.01587099 0.9845148
vn -0.1745812 -0.01587099 0.9845148
vn -0.01587105 -0.01587099 0.9997481
vn -0.01587105 -0.01587099 0.9997481
vn -0.07911634 0.9968654 0
vn 0.01587099 0.999874 -0.000345267
vn -0.01587105 0.999874 -0.000345267
vn 0.01587099 0.999874 -0.000345267
vn 0.07911628 0.9968654 0
vn -0.01587105 0.999874 -0.000345267
vn -0.01587105 0.999874 -0.000345267
vn -0.01587105 0.999874 -0.000345267
vn -0.01587105 -0.999874 -0.000345267
vn 0.07911628 -0.9968654 0
vn -0.01587105 -0.999874 -0.000345267
vn -0.01587105 -0.999874 -0.000345267
vn 0.01587099 -0.999874 -0.000345267
vn -0.07911634 -0.9968654 0
vn -0.01587105 -0.999874 -0.000345267
vn 0.01587099 -0.999874 -0.000345267
g leaf_0
f 3/3/3 2/2/2 1/1/1
f 6/6/6 5/5/5 4/4/4
f 6/6/6 8/8/8 7/7/7
f 11/11/11 10/10/10 9/9/9
f 11/11/11 13/13/13 12/12/12
f 16/16/16 15/15/15 14/14/14
f 16/16/16 18/18/18 17/17/17
f 21/21/21 20/20/20 19/19/19
f 21/21/21 23/23/23 22/22/22
f 26/26/26 25/25/25 24/24/24
f 29/29/29 28/28/28 27/27/27
f 32/32/32 31/31/31 30/30/30
f 35/35/35 34/34/34 33/33/33
f 38/38/38 37/37/37 36/36/36
f 38/38/38 40/40/40 39/39/39
f 43/43/43 42/42/42 41/41/41
f 43/43/43 45/45/45 44/44/44
f 48/48/48 47/47/47 46/46/46
f 48/48/48 50/50/50 49/49/49
f 53/53/53 52/52/52 51/51/51
f 53/53/53 55/55/55 54/54/54
f 58/58/58 57/57/57 56/56/56
f 61/61/61 60/60/60 59/59/59
f 64/64/64 63/63/63 62/62/62
f 67/67/67 66/66/66 65/65/65
f 68/68/68 67/67/67 65/65/65
f 68/68/68 65/65/65 69/69/69
f 70/70/70 68/68/68 69/69/69
f 70/70/70 69/69/69 71/71/71
f 72/72/72 70/70/70 71/71/71
f 72/72/72 71/71/71 73/73/73
f 74/74/74 72/72/72 73/73/73
f 74/74/74 73/73/73 75/75/75
f 76/76/76 74/74/74 75/75/75
f 76/76/76 75/75/75 77/77/77
f 78/78/78 76/76/76 77/77/77
f 78/78/78 77/77/77 79/79/79
f 80/80/80 78/78/78 79/79/79
f 80/80/80 79/79/79 81/81/81
f 82/82/82 80/80/80 81/81/81
f 85/85/85 84/84/84 83/83/83
f 84/84/84 86/86/86 83/83/83
f 84/84/84 87/87/87 86/86/86
f 87/87/87 88/88/88 86/86/86
f 87/87/87 89/89/89 88/88/88
f 89/89/89 90/90/90 88/88/88
f 89/89/89 91/91/91 90/90/90
f 91/91/91 92/92/92 90/90/90
f 91/91/91 93/93/93 92/92/92
f 93/93/93 94/94/94 92/92/92
f 93/93/93 95/95/95 94/94/94
f 95/95/95 96/96/96 94/94/94
f 95/95/95 97/97/97 96/96/96
f 97/97/97 98/98/98 96/96/96
f 97/97/97 99/99/99 98/98/98
f 99/99/99 100/100/100 98/98/98
f 103/103/103 102/102/102 101/101/101
f 103/103/103 101/101/101 104/104/104
f 107/107/107 106/106/106 105/105/105
f 107/107/107 105/105/105 108/108/108
f 111/111/111 110/110/110 109/109/109
f 111/111/111 112/112/112 110/110/110
f 115/115/115 114/114/114 113/113/113
f 115/115/115 116/116/116 114/114/114
