g Leaf
v 0.9322633 0.4314446 -0.5611809
v 0.7230964 0.2198882 -0.1421207
v 0 0.09943077 0.006442805
v 0.07694501 0.3917891 -0.5423156
v 0.08473859 0.570421 -1.233103
v 1.03753 0.599903 -1.231351
v 0.07582492 0.548065 -1.97459
v 0.910386 0.5769635 -1.97459
v 0.5868856 0.3656511 -2.692747
v 0.06699942 0.3252099 -2.718022
v 0 0.05018352 -3.324963
v -0.7230964 0.2198882 -0.1421207
v -0.9322633 0.4314446 -0.5611809
v -0.07694499 0.3917891 -0.5423157
v -1.028642 0.599903 -1.231351
v -0.07585081 0.570421 -1.233103
v -0.9103861 0.5769635 -1.97459
v -0.07582492 0.548065 -1.97459
v -0.5868852 0.3656511 -2.692747
v -0.06699943 0.3252099 -2.718022
v 0 0.05018352 -3.324963
v 0.06699942 0.3252099 -2.718022
v -0.06699943 0.3252099 -2.718022
v -0.07582492 0.548065 -1.97459
v 0.07582492 0.548065 -1.97459
v -0.07585081 0.570421 -1.233103
v 0.08473859 0.570421 -1.233103
v 0.07694501 0.3917891 -0.5423156
v -0.07694499 0.3917891 -0.5423157
v 0 0.09943077 0.006442805
v 0.5868856 0.3656511 -2.692747
v 0 0.05018352 -3.324963
v 1.469941E-09 -0.06736317 -3.280907
v 0.5695716 0.2314694 -2.661111
v 0.910386 0.5769635 -1.97459
v 0.8835282 0.4376958 -1.959666
v 1.03753 0.599903 -1.231351
v 1.007052 0.4583568 -1.241547
v 0.9047601 0.2966424 -0.5922209
v 0.9322633 0.4314446 -0.5611809
v 0.7230964 0.2198882 -0.1421207
v 0.701764 0.089661 -0.1828182
v 0 0.09943077 0.006442805
v -3.130791E-09 -0.01838867 -0.03863742
v -0.7230964 0.2198882 -0.1421207
v -0.7017639 0.089661 -0.1828182
v -0.9322633 0.4314446 -0.5611809
v -0.9047602 0.2966424 -0.5922209
v -1.028642 0.599903 -1.231351
v -0.9981642 0.4583568 -1.241547
v -0.9103861 0.5769635 -1.97459
v -0.8835284 0.4376958 -1.959666
v -0.5868852 0.3656511 -2.692747
v -0.5695712 0.2314694 -2.661111
v 0 0.05018352 -3.324963
v 1.469941E-09 -0.06736317 -3.280907
vt 0.4789508 0.5234016
vt 0.4741978 0.5088236
vt 0.4577662 0.5030085
vt 0.4594439 0.5224079
vt 0.4595298 0.5449038
vt 0.4812962 0.5450303
vt 0.4592321 0.568359
vt 0.4782718 0.5683388
vt 0.4707889 0.5916675
vt 0.4589269 0.5927714
vt 0.4573147 0.6135728
vt 0.4412877 0.5086883
vt 0.4364147 0.5232264
vt 0.4559299 0.5223938
vt 0.4340935 0.544838
vt 0.4558597 0.5448889
vt 0.4367277 0.5681708
vt 0.4557677 0.5683451
vt 0.4440195 0.5915585
vt 0.4558716 0.5927592
vt 0.4576336 0.5734874
vt 0.4586419 0.560478
vt 0.4567311 0.5604703
vt 0.4566661 0.5452014
vt 0.4588328 0.5452101
vt 0.4567236 0.5305315
vt 0.4590189 0.5305409
vt 0.4589652 0.5164717
vt 0.4567675 0.5164629
vt 0.457916 0.504339
vt 0.214764 0.5527067
vt 0.214764 0.5527067
vt 0.214764 0.5527067
vt 0.214764 0.5527067
vt 0.214764 0.5527067
vt 0.214764 0.5527067
vt 0.214764 0.5527067
vt 0.214764 0.5527067
vt 0.214764 0.5527067
vt 0.214764 0.5527067
vt 0.214764 0.5527067
vt 0.214764 0.5527067
vt 0.214764 0.5527067
vt 0.214764 0.5527067
vt 0.214764 0.5527067
vt 0.214764 0.5527067
vt 0.214764 0.5527067
vt 0.214764 0.5527067
vt 0.214764 0.5527067
vt 0.214764 0.5527067
vt 0.214764 0.5527067
vt 0.214764 0.5527067
vt 0.214764 0.5527067
vt 0.214764 0.5527067
vt 0.214764 0.5527067
vt 0.214764 0.5527067
vn -0.03798023 0.9444243 0.3265277
vn -0.04251822 0.8912647 0.4514859
vn 0 0.8911978 0.4536149
vn -0.02029478 0.9337563 0.3573336
vn -0.01715271 0.9937396 0.1103964
vn -0.03399993 0.9933328 0.1101542
vn -0.01937561 0.9874851 -0.1565175
vn -0.03744141 0.9911719 -0.1271869
vn -0.04611335 0.9486033 -0.3130899
vn -0.02469465 0.9371539 -0.3480414
vn 0 0.9126577 -0.4087248
vn 0.04251823 0.8912647 0.4514859
vn 0.03798807 0.9442114 0.3271418
vn 0.02036162 0.9337208 0.3574227
vn 0.0339977 0.9933254 0.1102215
vn 0.01701885 0.9937397 0.1104164
vn 0.03745897 0.9910895 -0.1278222
vn 0.01943778 0.9874694 -0.1566088
vn 0.04611336 0.9486034 -0.3130897
vn 0.02469465 0.9371539 -0.3480413
vn 0 0.9126577 -0.4087248
vn -0.02469465 0.9371539 -0.3480414
vn 0.02469465 0.9371539 -0.3480413
vn 0.01943778 0.9874694 -0.1566088
vn -0.01937561 0.9874851 -0.1565175
vn 0.01701885 0.9937397 0.1104164
vn -0.01715271 0.9937396 0.1103964
vn -0.02029478 0.9337563 0.3573336
vn 0.02036162 0.9337208 0.3574227
vn 0 0.8911978 0.4536149
vn 0.8586711 -0.2203621 -0.4627358
vn 0.7686368 -0.2321036 -0.5960918
vn 0.7686368 -0.2321036 -0.5960918
vn 0.8422204 -0.2232078 -0.4907576
vn 0.9466152 -0.2043285 -0.2493386
vn 0.9432972 -0.2047731 -0.261263
vn 0.9769403 -0.2107571 -0.03419398
vn 0.9770333 -0.2111489 -0.02867282
vn 0.9444184 -0.2405156 0.224112
vn 0.951086 -0.2363614 0.1989186
vn 0.6970289 -0.3229938 0.6401763
vn 0.5894838 -0.3359368 0.7346124
vn 0 -0.3458249 0.9382991
vn 0 -0.3458249 0.9382991
vn -0.6970286 -0.3229937 0.6401765
vn -0.5894836 -0.3359367 0.7346125
vn -0.9526501 -0.235686 0.1921198
vn -0.9458578 -0.2399861 0.2185402
vn -0.9771467 -0.2097719 -0.03435193
vn -0.9772334 -0.2101257 -0.029361
vn -0.948114 -0.2045443 -0.2433956
vn -0.9447231 -0.2049734 -0.2558991
vn -0.858671 -0.2203627 -0.4627358
vn -0.8422202 -0.2232084 -0.4907576
vn -0.768637 -0.2321038 -0.5960916
vn -0.768637 -0.2321038 -0.5960916
g Leaf_0
f 3/3/3 2/2/2 1/1/1
f 4/4/4 3/3/3 1/1/1
f 5/5/5 4/4/4 1/1/1
f 6/6/6 5/5/5 1/1/1
f 5/5/5 6/6/6 7/7/7
f 6/6/6 8/8/8 7/7/7
f 8/8/8 9/9/9 7/7/7
f 9/9/9 10/10/10 7/7/7
f 11/11/11 10/10/10 9/9/9
f 13/13/13 12/12/12 3/3/3
f 14/14/14 13/13/13 3/3/3
f 13/13/13 14/14/14 15/15/15
f 14/14/14 16/16/16 15/15/15
f 15/15/15 16/16/16 17/17/17
f 16/16/16 18/18/18 17/17/17
f 19/19/19 17/17/17 18/18/18
f 11/11/11 19/19/19 20/20/20
f 20/20/20 19/19/19 18/18/18
f 23/23/23 22/22/22 21/21/21
f 23/23/23 24/24/24 22/22/22
f 24/24/24 25/25/25 22/22/22
f 25/25/25 24/24/24 26/26/26
f 27/27/27 25/25/25 26/26/26
f 27/27/27 26/26/26 28/28/28
f 26/26/26 29/29/29 28/28/28
f 29/29/29 30/30/30 28/28/28
f 33/33/33 32/32/32 31/31/31
f 34/34/34 33/33/33 31/31/31
f 34/34/34 31/31/31 35/35/35
f 36/36/36 34/34/34 35/35/35
f 36/36/36 35/35/35 37/37/37
f 38/38/38 36/36/36 37/37/37
f 38/38/38 37/37/37 39/39/39
f 37/37/37 40/40/40 39/39/39
f 39/39/39 40/40/40 41/41/41
f 42/42/42 39/39/39 41/41/41
f 41/41/41 43/43/43 42/42/42
f 43/43/43 44/44/44 42/42/42
f 43/43/43 45/45/45 44/44/44
f 45/45/45 46/46/46 44/44/44
f 46/46/46 45/45/45 47/47/47
f 48/48/48 46/46/46 47/47/47
f 47/47/47 49/49/49 48/48/48
f 49/49/49 50/50/50 48/48/48
f 50/50/50 49/49/49 51/51/51
f 52/52/52 50/50/50 51/51/51
f 52/52/52 51/51/51 53/53/53
f 54/54/54 52/52/52 53/53/53
f 53/53/53 55/55/55 54/54/54
f 55/55/55 56/56/56 54/54/54
