g lemon
v 0.008569732 0.3278784 -0.1198834
v 0.008569732 0.2952866 -0.08478452
v 0.008569732 0.2927795 -0.1329202
v 0.008569732 0.3454279 -0.0842831
v 0.008569732 0.2982951 -0.08277886
v 0.008569732 0.3308869 -0.1173764
v 0.008569732 0.3338954 -0.04667712
v 0.008569732 0.2982951 -0.07876755
v 0.008569732 0.3459293 -0.0802718
v 0.008569732 0.295788 -0.07626049
v 0.008569732 0.3308869 -0.04366864
v 0.008569732 0.2977936 -0.02762342
v 0.008569732 0.2541707 -0.1158721
v 0.008569732 0.2882668 -0.1329202
v 0.008569732 0.2907739 -0.08478452
v 0.008569732 0.2406326 -0.07876755
v 0.008569732 0.2516636 -0.1128636
v 0.008569732 0.2882668 -0.08227745
v 0.008569732 0.2566778 -0.0421644
v 0.008569732 0.2406326 -0.07475625
v 0.008569732 0.2882668 -0.07826614
v 0.008569732 0.2912753 -0.07575908
v 0.008569732 0.2942837 -0.02762342
v 0.008569732 0.2596863 -0.04015875
v 0.01408528 0.3278784 -0.1198834
v 0.01408528 0.2927795 -0.1329202
v 0.01408528 0.2952866 -0.08478452
v 0.01408528 0.3454279 -0.0842831
v 0.01408528 0.3308869 -0.1173764
v 0.01408528 0.2982951 -0.08277886
v 0.01408528 0.3338954 -0.04667712
v 0.01408528 0.3459293 -0.0802718
v 0.01408528 0.2982951 -0.07876755
v 0.01408528 0.295788 -0.07626049
v 0.01408528 0.2977936 -0.02762342
v 0.01408528 0.3308869 -0.04366864
v 0.01408528 0.2541707 -0.1158721
v 0.01408528 0.2907739 -0.08478452
v 0.01408528 0.2882668 -0.1329202
v 0.01408528 0.2406326 -0.07876755
v 0.01408528 0.2882668 -0.08227745
v 0.01408528 0.2516636 -0.1128636
v 0.01408528 0.2566778 -0.0421644
v 0.01408528 0.2882668 -0.07826614
v 0.01408528 0.2406326 -0.07475625
v 0.01408528 0.2912753 -0.07575908
v 0.01408528 0.2596863 -0.04015875
v 0.01408528 0.2942837 -0.02762342
v 0.008569732 0.3409152 -0.1309145
v 0.01408528 0.3409152 -0.1309145
v 0.01408528 0.3629773 -0.08277886
v 0.008569732 0.3629773 -0.08277886
v 0.008569732 0.3629773 -0.08277886
v 0.01408528 0.3629773 -0.08277886
v 0.01408528 0.3444251 -0.03364038
v 0.008569732 0.3444251 -0.03364038
v 0.008569732 0.3444251 -0.03364038
v 0.01408528 0.3444251 -0.03364038
v 0.01408528 0.2967908 -0.01057538
v 0.008569732 0.2967908 -0.01057538
v 0.008569732 0.2967908 -0.01057538
v 0.01408528 0.2967908 -0.01057538
v 0.01408528 0.2471509 -0.02812484
v 0.008569732 0.2471509 -0.02812484
v 0.008569732 0.2471509 -0.02812484
v 0.01408528 0.2471509 -0.02812484
v 0.01408528 0.2235845 -0.07525767
v 0.008569732 0.2235845 -0.07525767
v 0.008569732 0.2235845 -0.07525767
v 0.01408528 0.2235845 -0.07525767
v 0.01408528 0.2401311 -0.125399
v 0.008569732 0.2401311 -0.125399
v 0.008569732 0.2401311 -0.125399
v 0.01408528 0.2401311 -0.125399
v 0.01408528 0.2892696 -0.1499682
v 0.008569732 0.2892696 -0.1499682
v 0.008569732 0.2892696 -0.1499682
v 0.01408528 0.2892696 -0.1499682
v 0.01408528 0.3409152 -0.1309145
v 0.008569732 0.3409152 -0.1309145
v 0.01408528 0.2967908 -0.01057538
v 0.01408528 0.3343968 -0.04316723
v 0.01408528 0.2962894 -0.02461495
v 0.01408528 0.2561764 -0.03865451
v 0.01408528 0.3444251 -0.03364038
v 0.01408528 0.2471509 -0.02812484
v 0.01408528 0.3489378 -0.08227745
v 0.01408528 0.2376241 -0.07626049
v 0.01408528 0.3629773 -0.08277886
v 0.01408528 0.2235845 -0.07525767
v 0.01408528 0.3313883 -0.1208863
v 0.01408528 0.2506608 -0.1163735
v 0.01408528 0.3409152 -0.1309145
v 0.01408528 0.2401311 -0.125399
v 0.01408528 0.2902724 -0.1359286
v 0.01408528 0.2892696 -0.1499682
v 0.008569732 0.2967908 -0.01057538
v 0.008569732 0.2962894 -0.02461495
v 0.008569732 0.3343968 -0.04316723
v 0.008569732 0.2561764 -0.03865451
v 0.008569732 0.3444251 -0.03364038
v 0.008569732 0.2471509 -0.02812484
v 0.008569732 0.3489378 -0.08227745
v 0.008569732 0.2376241 -0.07626049
v 0.008569732 0.3629773 -0.08277886
v 0.008569732 0.2235845 -0.07525767
v 0.008569732 0.3313883 -0.1208863
v 0.008569732 0.2506608 -0.1163735
v 0.008569732 0.3409152 -0.1309145
v 0.008569732 0.2401311 -0.125399
v 0.008569732 0.2902724 -0.1359286
v 0.008569732 0.2892696 -0.1499682
v 0.01408528 0.2376241 -0.07626049
v 0.01408528 0.2561764 -0.03865451
v 0.01408528 0.2566778 -0.0421644
v 0.01408528 0.2596863 -0.04015875
v 0.01408528 0.2962894 -0.02461495
v 0.01408528 0.2406326 -0.07475625
v 0.01408528 0.2882668 -0.07826614
v 0.01408528 0.2406326 -0.07876755
v 0.01408528 0.2506608 -0.1163735
v 0.01408528 0.2882668 -0.08227745
v 0.01408528 0.2516636 -0.1128636
v 0.01408528 0.2912753 -0.07575908
v 0.01408528 0.2942837 -0.02762342
v 0.01408528 0.2907739 -0.08478452
v 0.01408528 0.2952866 -0.08478452
v 0.01408528 0.2541707 -0.1158721
v 0.01408528 0.2902724 -0.1359286
v 0.01408528 0.2882668 -0.1329202
v 0.01408528 0.2927795 -0.1329202
v 0.01408528 0.3278784 -0.1198834
v 0.01408528 0.3313883 -0.1208863
v 0.01408528 0.295788 -0.07626049
v 0.01408528 0.2977936 -0.02762342
v 0.01408528 0.3308869 -0.04366864
v 0.01408528 0.3343968 -0.04316723
v 0.01408528 0.3308869 -0.1173764
v 0.01408528 0.3454279 -0.0842831
v 0.01408528 0.2982951 -0.08277886
v 0.01408528 0.3489378 -0.08227745
v 0.01408528 0.2982951 -0.07876755
v 0.01408528 0.3338954 -0.04667712
v 0.01408528 0.3459293 -0.0802718
v 0.008569732 0.2376241 -0.07626049
v 0.008569732 0.2566778 -0.0421644
v 0.008569732 0.2561764 -0.03865451
v 0.008569732 0.2596863 -0.04015875
v 0.008569732 0.2962894 -0.02461495
v 0.008569732 0.2406326 -0.07475625
v 0.008569732 0.2882668 -0.07826614
v 0.008569732 0.2406326 -0.07876755
v 0.008569732 0.2506608 -0.1163735
v 0.008569732 0.2882668 -0.08227745
v 0.008569732 0.2516636 -0.1128636
v 0.008569732 0.2912753 -0.07575908
v 0.008569732 0.2942837 -0.02762342
v 0.008569732 0.2907739 -0.08478452
v 0.008569732 0.2952866 -0.08478452
v 0.008569732 0.2541707 -0.1158721
v 0.008569732 0.2902724 -0.1359286
v 0.008569732 0.2882668 -0.1329202
v 0.008569732 0.2927795 -0.1329202
v 0.008569732 0.3278784 -0.1198834
v 0.008569732 0.3313883 -0.1208863
v 0.008569732 0.295788 -0.07626049
v 0.008569732 0.2977936 -0.02762342
v 0.008569732 0.3308869 -0.04366864
v 0.008569732 0.3343968 -0.04316723
v 0.008569732 0.3308869 -0.1173764
v 0.008569732 0.3454279 -0.0842831
v 0.008569732 0.2982951 -0.08277886
v 0.008569732 0.3489378 -0.08227745
v 0.008569732 0.2982951 -0.07876755
v 0.008569732 0.3338954 -0.04667712
v 0.008569732 0.3459293 -0.0802718
vt 0.0792179 0.7182419
vt 0.07230953 0.7113335
vt 0.08267208 0.7113335
vt 0.07230953 0.721696
vt 0.07230953 0.7113335
vt 0.0792179 0.7182419
vt 0.06194698 0.721696
vt 0.06885535 0.7113335
vt 0.06885535 0.721696
vt 0.06885535 0.7113335
vt 0.06194698 0.7182419
vt 0.0584928 0.7113335
vt 0.0792179 0.700971
vt 0.08267208 0.7078793
vt 0.07230953 0.7113335
vt 0.06885535 0.6975168
vt 0.0792179 0.700971
vt 0.07230953 0.7078793
vt 0.06194698 0.700971
vt 0.06885535 0.6975168
vt 0.06885535 0.7078793
vt 0.06885535 0.7113335
vt 0.0584928 0.7113335
vt 0.06194698 0.700971
vt 0.08958045 0.7286044
vt 0.09303463 0.7182419
vt 0.0792179 0.7182419
vt 0.0792179 0.7320586
vt 0.08958045 0.7286044
vt 0.0792179 0.7182419
vt 0.06885535 0.7286044
vt 0.0792179 0.7320586
vt 0.0792179 0.7182419
vt 0.0792179 0.7182419
vt 0.06194698 0.7182419
vt 0.06885535 0.7286044
vt 0.08958045 0.7078793
vt 0.0792179 0.7182419
vt 0.09303463 0.7147877
vt 0.0792179 0.7044251
vt 0.0792179 0.7147877
vt 0.08958045 0.7044251
vt 0.06885535 0.7078793
vt 0.0792179 0.7147877
vt 0.07576372 0.7044251
vt 0.07576372 0.7182419
vt 0.06885535 0.7078793
vt 0.06194698 0.7182419
vt 0.08612627 0.721696
vt 0.08612627 0.721696
vt 0.07230953 0.7286044
vt 0.07230953 0.7286044
vt 0.07230953 0.7286044
vt 0.07230953 0.7286044
vt 0.06194698 0.721696
vt 0.06194698 0.721696
vt 0.06194698 0.721696
vt 0.06194698 0.721696
vt 0.05503861 0.7113335
vt 0.05503861 0.7113335
vt 0.05503861 0.7113335
vt 0.05503861 0.7113335
vt 0.06194698 0.6975168
vt 0.06194698 0.6975168
vt 0.06194698 0.6975168
vt 0.06194698 0.6975168
vt 0.07230953 0.6940626
vt 0.07230953 0.6940626
vt 0.07230953 0.6940626
vt 0.07230953 0.6940626
vt 0.08267208 0.6975168
vt 0.08267208 0.6975168
vt 0.08267208 0.6975168
vt 0.08267208 0.6975168
vt 0.08958045 0.7078793
vt 0.08958045 0.7078793
vt 0.08958045 0.7078793
vt 0.08958045 0.7078793
vt 0.08612627 0.721696
vt 0.08612627 0.721696
vt 0.006680042 0.7078793
vt 0.01358841 0.7182419
vt 0.01013423 0.7078793
vt 0.01358841 0.6975168
vt 0.01358841 0.721696
vt 0.01013423 0.6975168
vt 0.02395096 0.721696
vt 0.02395096 0.6940626
vt 0.02395096 0.7251502
vt 0.02395096 0.6906084
vt 0.03431351 0.7182419
vt 0.03085933 0.6975168
vt 0.03431351 0.7182419
vt 0.03431351 0.6940626
vt 0.03776769 0.7078793
vt 0.04122188 0.7078793
vt 0.01013423 0.7078793
vt 0.01358841 0.7078793
vt 0.02049678 0.7182419
vt 0.01704259 0.6975168
vt 0.01704259 0.721696
vt 0.01704259 0.6975168
vt 0.02740514 0.721696
vt 0.02740514 0.6940626
vt 0.02740514 0.7251502
vt 0.02740514 0.6906084
vt 0.03776769 0.7182419
vt 0.03776769 0.6975168
vt 0.04122188 0.7182419
vt 0.03776769 0.6940626
vt 0.04122188 0.7078793
vt 0.04467606 0.7078793
vt 0.7286044 0.8633176
vt 0.7182419 0.8667718
vt 0.721696 0.8667718
vt 0.7182419 0.8667718
vt 0.7147877 0.8771343
vt 0.7286044 0.8633176
vt 0.7286044 0.8736801
vt 0.7286044 0.8633176
vt 0.7355129 0.8667718
vt 0.7286044 0.8736801
vt 0.7355129 0.8667718
vt 0.7286044 0.8736801
vt 0.7182419 0.8736801
vt 0.7286044 0.8736801
vt 0.7286044 0.8771343
vt 0.7355129 0.8667718
vt 0.7424212 0.8736801
vt 0.7389669 0.8736801
vt 0.7389669 0.8736801
vt 0.7389669 0.8840427
vt 0.7389669 0.8840427
vt 0.7286044 0.8771343
vt 0.7182419 0.8771343
vt 0.721696 0.8840427
vt 0.721696 0.8840427
vt 0.7355129 0.8840427
vt 0.7286044 0.8874969
vt 0.7286044 0.8771343
vt 0.7286044 0.8874969
vt 0.7286044 0.8771343
vt 0.721696 0.8840427
vt 0.7286044 0.8874969
vt 0.7389669 0.8598634
vt 0.7320586 0.8633176
vt 0.7320586 0.8633176
vt 0.7320586 0.8633176
vt 0.7286044 0.870226
vt 0.7389669 0.8598634
vt 0.7389669 0.8667718
vt 0.7389669 0.8598634
vt 0.7458754 0.8598634
vt 0.7389669 0.8667718
vt 0.7458754 0.8598634
vt 0.7389669 0.870226
vt 0.7286044 0.870226
vt 0.7389669 0.870226
vt 0.7389669 0.870226
vt 0.7458754 0.8633176
vt 0.7493296 0.870226
vt 0.7493296 0.8667718
vt 0.7493296 0.870226
vt 0.7458754 0.8771343
vt 0.7458754 0.8771343
vt 0.7389669 0.870226
vt 0.7286044 0.870226
vt 0.7320586 0.8771343
vt 0.7320586 0.8771343
vt 0.7458754 0.8771343
vt 0.7389669 0.8805885
vt 0.7389669 0.870226
vt 0.7389669 0.8805885
vt 0.7389669 0.870226
vt 0.7320586 0.8771343
vt 0.7389669 0.8805885
vn -0.999874 0.01587105 -0.0003439156
vn -0.999874 0.01587105 -0.0003439156
vn -0.999874 0.01587105 -0.0003439156
vn -0.999874 0.01587105 -0.0003439156
vn -0.999874 0.01587105 -0.0003439156
vn -0.999874 0.01587105 -0.0003439156
vn -0.999874 0.01587105 -0.0003439156
vn -0.999874 0.01587105 -0.0003439156
vn -0.999874 0.01587105 -0.0003439156
vn -0.999874 0.01587105 -0.0003439156
vn -0.999874 0.01587105 -0.0003439156
vn -0.999874 0.01587105 -0.0003439156
vn -0.999874 0.01587105 -0.0003439156
vn -0.999874 0.01587105 -0.0003439156
vn -0.999874 0.01587105 -0.0003439156
vn -0.999874 0.01587105 -0.0003439156
vn -0.999874 0.01587105 -0.0003439156
vn -0.999874 0.01587105 -0.0003439156
vn -0.999874 0.01587105 -0.0003439156
vn -0.999874 0.01587105 -0.0003439156
vn -0.999874 0.01587105 -0.0003439156
vn -0.999874 0.01587105 -0.0003439156
vn -0.999874 0.01587105 -0.0003439156
vn -0.999874 0.01587105 -0.0003439156
vn 0.999874 0.01587105 -0.0003439156
vn 0.999874 0.01587105 -0.0003439156
vn 0.999874 0.01587105 -0.0003439156
vn 0.999874 0.01587105 -0.0003439156
vn 0.999874 0.01587105 -0.0003439156
vn 0.999874 0.01587105 -0.0003439156
vn 0.999874 0.01587105 -0.0003439156
vn 0.999874 0.01587105 -0.0003439156
vn 0.999874 0.01587105 -0.0003439156
vn 0.999874 0.01587105 -0.0003439156
vn 0.999874 0.01587105 -0.0003439156
vn 0.999874 0.01587105 -0.0003439156
vn 0.999874 0.01587105 -0.0003439156
vn 0.999874 0.01587105 -0.0003439156
vn 0.999874 0.01587105 -0.0003439156
vn 0.999874 0.01587105 -0.0003439156
vn 0.999874 0.01587105 -0.0003439156
vn 0.999874 0.01587105 -0.0003439156
vn 0.999874 0.01587105 -0.0003439156
vn 0.999874 0.01587105 -0.0003439156
vn 0.999874 0.01587105 -0.0003439156
vn 0.999874 0.01587105 -0.0003439156
vn 0.999874 0.01587105 -0.0003439156
vn 0.999874 0.01587105 -0.0003439156
vn -0.01587105 0.9046479 -0.425864
vn -0.01587105 0.9046479 -0.425864
vn -0.01587105 0.9046479 -0.425864
vn -0.01587105 0.9046479 -0.425864
vn -0.01587105 0.9363899 0.3506023
vn -0.01587105 0.9363899 0.3506023
vn -0.01587105 0.9363899 0.3506023
vn -0.01587105 0.9363899 0.3506023
vn -0.01587105 0.4285175 0.9033941
vn -0.01587105 0.4285175 0.9033941
vn -0.01587105 0.4285175 0.9033941
vn -0.01587105 0.4285175 0.9033941
vn -0.01587105 -0.3332914 0.9426903
vn -0.01587105 -0.3332914 0.9426903
vn -0.01587105 -0.3332914 0.9426903
vn -0.01587105 -0.3332914 0.9426903
vn -0.01587105 -0.9046479 0.4258642
vn -0.01587105 -0.9046479 0.4258642
vn -0.01587105 -0.9046479 0.4258642
vn -0.01587105 -0.9046479 0.4258642
vn -0.01587105 -0.9363899 -0.3506023
vn -0.01587105 -0.9363899 -0.3506023
vn -0.01587105 -0.9363899 -0.3506023
vn -0.01587105 -0.9363899 -0.3506023
vn -0.01587105 -0.4602594 -0.8876426
vn -0.01587105 -0.4602594 -0.8876426
vn -0.01587105 -0.4602594 -0.8876426
vn -0.01587105 -0.4602594 -0.8876426
vn -0.01587105 0.3332913 -0.9426903
vn -0.01587105 0.3332913 -0.9426903
vn -0.01587105 0.3332913 -0.9426903
vn -0.01587105 0.3332913 -0.9426903
vn 0.999874 0.01587105 -0.0003439156
vn 0.999874 0.01587105 -0.0003439156
vn 0.999874 0.01587105 -0.0003439156
vn 0.999874 0.01587105 -0.0003439156
vn 0.999874 0.01587105 -0.0003439156
vn 0.999874 0.01587105 -0.0003439156
vn 0.999874 0.01587105 -0.0003439156
vn 0.999874 0.01587105 -0.0003439156
vn 0.999874 0.01587105 -0.0003439156
vn 0.999874 0.01587105 -0.0003439156
vn 0.999874 0.01587105 -0.0003439156
vn 0.999874 0.01587105 -0.0003439156
vn 0.999874 0.01587105 -0.0003439156
vn 0.999874 0.01587105 -0.0003439156
vn 0.999874 0.01587105 -0.0003439156
vn 0.999874 0.01587105 -0.0003439156
vn -0.999874 0.01587105 -0.0003439156
vn -0.999874 0.01587105 -0.0003439156
vn -0.999874 0.01587105 -0.0003439156
vn -0.999874 0.01587105 -0.0003439156
vn -0.999874 0.01587105 -0.0003439156
vn -0.999874 0.01587105 -0.0003439156
vn -0.999874 0.01587105 -0.0003439156
vn -0.999874 0.01587105 -0.0003439156
vn -0.999874 0.01587105 -0.0003439156
vn -0.999874 0.01587105 -0.0003439156
vn -0.999874 0.01587105 -0.0003439156
vn -0.999874 0.01587105 -0.0003439156
vn -0.999874 0.01587105 -0.0003439156
vn -0.999874 0.01587105 -0.0003439156
vn -0.999874 0.01587105 -0.0003439156
vn -0.999874 0.01587105 -0.0003439156
vn 0.999874 0.01587105 -0.0003439156
vn 0.999874 0.01587105 -0.0003439156
vn 0.999874 0.01587105 -0.0003439156
vn 0.999874 0.01587105 -0.0003439156
vn 0.999874 0.01587105 -0.0003439156
vn 0.999874 0.01587105 -0.0003439156
vn 0.999874 0.01587105 -0.0003439156
vn 0.999874 0.01587105 -0.0003439156
vn 0.999874 0.01587105 -0.0003439156
vn 0.999874 0.01587105 -0.0003439156
vn 0.999874 0.01587105 -0.0003439156
vn 0.999874 0.01587105 -0.0003439156
vn 0.999874 0.01587105 -0.0003439156
vn 0.999874 0.01587105 -0.0003439156
vn 0.999874 0.01587105 -0.0003439156
vn 0.999874 0.01587105 -0.0003439156
vn 0.999874 0.01587105 -0.0003439156
vn 0.999874 0.01587105 -0.0003439156
vn 0.999874 0.01587105 -0.0003439156
vn 0.999874 0.01587105 -0.0003439156
vn 0.999874 0.01587105 -0.0003439156
vn 0.999874 0.01587105 -0.0003439156
vn 0.999874 0.01587105 -0.0003439156
vn 0.999874 0.01587105 -0.0003439156
vn 0.999874 0.01587105 -0.0003439156
vn 0.999874 0.01587105 -0.0003439156
vn 0.999874 0.01587105 -0.0003439156
vn 0.999874 0.01587105 -0.0003439156
vn 0.999874 0.01587105 -0.0003439156
vn 0.999874 0.01587105 -0.0003439156
vn 0.999874 0.01587105 -0.0003439156
vn 0.999874 0.01587105 -0.0003439156
vn -0.999874 0.01587105 -0.0003439156
vn -0.999874 0.01587105 -0.0003439156
vn -0.999874 0.01587105 -0.0003439156
vn -0.999874 0.01587105 -0.0003439156
vn -0.999874 0.01587105 -0.0003439156
vn -0.999874 0.01587105 -0.0003439156
vn -0.999874 0.01587105 -0.0003439156
vn -0.999874 0.01587105 -0.0003439156
vn -0.999874 0.01587105 -0.0003439156
vn -0.999874 0.01587105 -0.0003439156
vn -0.999874 0.01587105 -0.0003439156
vn -0.999874 0.01587105 -0.0003439156
vn -0.999874 0.01587105 -0.0003439156
vn -0.999874 0.01587105 -0.0003439156
vn -0.999874 0.01587105 -0.0003439156
vn -0.999874 0.01587105 -0.0003439156
vn -0.999874 0.01587105 -0.0003439156
vn -0.999874 0.01587105 -0.0003439156
vn -0.999874 0.01587105 -0.0003439156
vn -0.999874 0.01587105 -0.0003439156
vn -0.999874 0.01587105 -0.0003439156
vn -0.999874 0.01587105 -0.0003439156
vn -0.999874 0.01587105 -0.0003439156
vn -0.999874 0.01587105 -0.0003439156
vn -0.999874 0.01587105 -0.0003439156
vn -0.999874 0.01587105 -0.0003439156
vn -0.999874 0.01587105 -0.0003439156
vn -0.999874 0.01587105 -0.0003439156
vn -0.999874 0.01587105 -0.0003439156
vn -0.999874 0.01587105 -0.0003439156
vn -0.999874 0.01587105 -0.0003439156
vn -0.999874 0.01587105 -0.0003439156
g lemon_0
f 3/3/3 2/2/2 1/1/1
f 6/6/6 5/5/5 4/4/4
f 9/9/9 8/8/8 7/7/7
f 12/12/12 11/11/11 10/10/10
f 15/15/15 14/14/14 13/13/13
f 18/18/18 17/17/17 16/16/16
f 21/21/21 20/20/20 19/19/19
f 24/24/24 23/23/23 22/22/22
f 27/27/27 26/26/26 25/25/25
f 30/30/30 29/29/29 28/28/28
f 33/33/33 32/32/32 31/31/31
f 36/36/36 35/35/35 34/34/34
f 39/39/39 38/38/38 37/37/37
f 42/42/42 41/41/41 40/40/40
f 45/45/45 44/44/44 43/43/43
f 48/48/48 47/47/47 46/46/46
f 51/51/51 50/50/50 49/49/49
f 52/52/52 51/51/51 49/49/49
f 55/55/55 54/54/54 53/53/53
f 56/56/56 55/55/55 53/53/53
f 59/59/59 58/58/58 57/57/57
f 60/60/60 59/59/59 57/57/57
f 63/63/63 62/62/62 61/61/61
f 64/64/64 63/63/63 61/61/61
f 67/67/67 66/66/66 65/65/65
f 68/68/68 67/67/67 65/65/65
f 71/71/71 70/70/70 69/69/69
f 72/72/72 71/71/71 69/69/69
f 75/75/75 74/74/74 73/73/73
f 76/76/76 75/75/75 73/73/73
f 79/79/79 78/78/78 77/77/77
f 80/80/80 79/79/79 77/77/77
f 83/83/83 82/82/82 81/81/81
f 84/84/84 83/83/83 81/81/81
f 82/82/82 85/85/85 81/81/81
f 86/86/86 84/84/84 81/81/81
f 82/82/82 87/87/87 85/85/85
f 88/88/88 84/84/84 86/86/86
f 87/87/87 89/89/89 85/85/85
f 90/90/90 88/88/88 86/86/86
f 87/87/87 91/91/91 89/89/89
f 92/92/92 88/88/88 90/90/90
f 91/91/91 93/93/93 89/89/89
f 94/94/94 92/92/92 90/90/90
f 91/91/91 95/95/95 93/93/93
f 95/95/95 92/92/92 94/94/94
f 95/95/95 96/96/96 93/93/93
f 96/96/96 95/95/95 94/94/94
f 99/99/99 98/98/98 97/97/97
f 98/98/98 100/100/100 97/97/97
f 101/101/101 99/99/99 97/97/97
f 100/100/100 102/102/102 97/97/97
f 103/103/103 99/99/99 101/101/101
f 100/100/100 104/104/104 102/102/102
f 105/105/105 103/103/103 101/101/101
f 104/104/104 106/106/106 102/102/102
f 107/107/107 103/103/103 105/105/105
f 104/104/104 108/108/108 106/106/106
f 109/109/109 107/107/107 105/105/105
f 108/108/108 110/110/110 106/106/106
f 111/111/111 107/107/107 109/109/109
f 108/108/108 111/111/111 110/110/110
f 112/112/112 111/111/111 109/109/109
f 111/111/111 112/112/112 110/110/110
f 115/115/115 114/114/114 113/113/113
f 116/116/116 114/114/114 115/115/115
f 117/117/117 114/114/114 116/116/116
f 118/118/118 115/115/115 113/113/113
f 116/116/116 115/115/115 119/119/119
f 118/118/118 113/113/113 120/120/120
f 120/120/120 113/113/113 121/121/121
f 118/118/118 120/120/120 122/122/122
f 119/119/119 118/118/118 122/122/122
f 123/123/123 120/120/120 121/121/121
f 124/124/124 116/116/116 119/119/119
f 125/125/125 117/117/117 116/116/116
f 119/119/119 122/122/122 126/126/126
f 122/122/122 123/123/123 126/126/126
f 124/124/124 119/119/119 126/126/126
f 126/126/126 127/127/127 124/124/124
f 123/123/123 121/121/121 128/128/128
f 123/123/123 128/128/128 126/126/126
f 128/128/128 121/121/121 129/129/129
f 126/126/126 130/130/130 127/127/127
f 130/130/130 128/128/128 129/129/129
f 129/129/129 131/131/131 130/130/130
f 130/130/130 131/131/131 127/127/127
f 132/132/132 131/131/131 129/129/129
f 133/133/133 132/132/132 129/129/129
f 124/124/124 134/134/134 125/125/125
f 127/127/127 134/134/134 124/124/124
f 125/125/125 135/135/135 117/117/117
f 134/134/134 135/135/135 125/125/125
f 117/117/117 135/135/135 136/136/136
f 137/137/137 117/117/117 136/136/136
f 133/133/133 138/138/138 132/132/132
f 132/132/132 138/138/138 127/127/127
f 139/139/139 138/138/138 133/133/133
f 138/138/138 140/140/140 127/127/127
f 141/141/141 139/139/139 133/133/133
f 142/142/142 134/134/134 127/127/127
f 136/136/136 134/134/134 142/142/142
f 140/140/140 142/142/142 127/127/127
f 137/137/137 136/136/136 143/143/143
f 143/143/143 136/136/136 142/142/142
f 137/137/137 143/143/143 141/141/141
f 144/144/144 142/142/142 140/140/140
f 139/139/139 144/144/144 140/140/140
f 141/141/141 144/144/144 139/139/139
f 143/143/143 144/144/144 141/141/141
f 147/147/147 146/146/146 145/145/145
f 147/147/147 148/148/148 146/146/146
f 147/147/147 149/149/149 148/148/148
f 146/146/146 150/150/150 145/145/145
f 146/146/146 148/148/148 151/151/151
f 145/145/145 150/150/150 152/152/152
f 145/145/145 152/152/152 153/153/153
f 152/152/152 150/150/150 154/154/154
f 150/150/150 151/151/151 154/154/154
f 152/152/152 155/155/155 153/153/153
f 148/148/148 156/156/156 151/151/151
f 149/149/149 157/157/157 148/148/148
f 154/154/154 151/151/151 158/158/158
f 155/155/155 154/154/154 158/158/158
f 151/151/151 156/156/156 158/158/158
f 159/159/159 158/158/158 156/156/156
f 153/153/153 155/155/155 160/160/160
f 160/160/160 155/155/155 158/158/158
f 153/153/153 160/160/160 161/161/161
f 162/162/162 158/158/158 159/159/159
f 160/160/160 162/162/162 161/161/161
f 163/163/163 161/161/161 162/162/162
f 163/163/163 162/162/162 159/159/159
f 163/163/163 164/164/164 161/161/161
f 164/164/164 165/165/165 161/161/161
f 166/166/166 156/156/156 157/157/157
f 166/166/166 159/159/159 156/156/156
f 167/167/167 157/157/157 149/149/149
f 167/167/167 166/166/166 157/157/157
f 167/167/167 149/149/149 168/168/168
f 149/149/149 169/169/169 168/168/168
f 170/170/170 165/165/165 164/164/164
f 170/170/170 164/164/164 159/159/159
f 170/170/170 171/171/171 165/165/165
f 172/172/172 170/170/170 159/159/159
f 171/171/171 173/173/173 165/165/165
f 166/166/166 174/174/174 159/159/159
f 166/166/166 168/168/168 174/174/174
f 174/174/174 172/172/172 159/159/159
f 168/168/168 169/169/169 175/175/175
f 168/168/168 175/175/175 174/174/174
f 175/175/175 169/169/169 173/173/173
f 174/174/174 176/176/176 172/172/172
f 176/176/176 171/171/171 172/172/172
f 176/176/176 173/173/173 171/171/171
f 176/176/176 175/175/175 173/173/173
