g Lemon
v 0.60019 0.05376 0
v 0.59866 0.05747 0
v 0.56255 0.05747 -0.20475
v 0.564 0.05376 -0.20528
v 0.4586 0.05747 -0.38481
v 0.564 0.00525 -0.20528
v 0.60019 0.00525 0
v 0.59866 0.00154 0
v 0.56255 0.00154 -0.20475
v 0.45978 0.00525 -0.3858
v 0.4586 0.00154 -0.38481
v 0.45978 0.05376 -0.3858
v 0.29933 0.05747 -0.51845
v 0.3001 0.00525 -0.51978
v 0.29933 0.00154 -0.51845
v 0.3001 0.05376 -0.51978
v 0.10396 0.05747 -0.58956
v 0.10422 0.00525 -0.59108
v 0.10396 0.00154 -0.58956
v 0.10422 0.05376 -0.59108
v -0.10396 0.05747 -0.58956
v -0.10422 0.00525 -0.59108
v -0.10396 0.00154 -0.58956
v -0.10422 0.05376 -0.59108
v -0.29933 0.05747 -0.51845
v -0.3001 0.00525 -0.51978
v -0.29933 0.00154 -0.51845
v -0.3001 0.05376 -0.51978
v -0.4586 0.05747 -0.38481
v -0.45978 0.00525 -0.3858
v -0.4586 0.00154 -0.38481
v -0.45978 0.05376 -0.3858
v -0.56255 0.05747 -0.20475
v -0.564 0.00525 -0.20528
v -0.56255 0.00154 -0.20475
v -0.564 0.05376 -0.20528
v -0.59866 0.05747 0
v -0.60019 0.00525 0
v -0.59866 0.00154 0
v -0.60019 0.05376 0
v -0.56255 0.05747 0.20475
v -0.564 0.00525 0.20528
v -0.56255 0.00154 0.20475
v -0.564 0.05376 0.20528
v -0.4586 0.05747 0.38481
v -0.45978 0.00525 0.3858
v -0.4586 0.00154 0.38481
v -0.45978 0.05376 0.3858
v -0.29933 0.05747 0.51845
v -0.3001 0.00525 0.51978
v -0.29933 0.00154 0.51845
v -0.3001 0.05376 0.51978
v -0.10396 0.05747 0.58956
v -0.10422 0.00525 0.59108
v -0.10396 0.00154 0.58956
v -0.10422 0.05376 0.59108
v 0.10396 0.05747 0.58956
v 0.10422 0.00525 0.59108
v 0.10396 0.00154 0.58956
v 0.10422 0.05376 0.59108
v 0.29933 0.05747 0.51845
v 0.3001 0.00525 0.51978
v 0.29933 0.00154 0.51845
v 0.3001 0.05376 0.51978
v 0.4586 0.05747 0.38481
v 0.45978 0.00525 0.3858
v 0.4586 0.00154 0.38481
v 0.45978 0.05376 0.3858
v 0.56255 0.05747 0.20475
v 0.564 0.00525 0.20528
v 0.56255 0.00154 0.20475
v 0.564 0.05376 0.20528
v 0.59866 0.05747 0
v 0.60019 0.05376 0
v 0.60019 0.00525 0
v 0.59866 0.00154 0
v 0.5590701 0.05901 0.20348
v 0.56255 0.05747 0.20475
v 0.4586 0.05747 0.38481
v 0.45576 0.05901 0.38242
v 0.29933 0.05747 0.51845
v 0.59495 0.05901 0
v 0.59866 0.05747 0
v 0.29747 0.05901 0.51524
v 0.10396 0.05747 0.58956
v 0.5590701 0.05901 -0.20348
v 0.56255 0.05747 -0.20475
v 0.10331 0.05901 0.58591
v -0.10396 0.05747 0.58956
v 0.45576 0.05901 -0.38242
v 0.4586 0.05747 -0.38481
v -0.10331 0.05901 0.58591
v -0.29933 0.05747 0.51845
v 0.29747 0.05901 -0.51524
v 0.29933 0.05747 -0.51845
v -0.29747 0.05901 0.51524
v -0.4586 0.05747 0.38481
v 0.10331 0.05901 -0.58591
v 0.10396 0.05747 -0.58956
v -0.45576 0.05901 0.38242
v -0.56255 0.05747 0.20475
v -0.10331 0.05901 -0.58591
v -0.10396 0.05747 -0.58956
v -0.5590701 0.05901 0.20348
v -0.59866 0.05747 0
v -0.29747 0.05901 -0.51524
v -0.29933 0.05747 -0.51845
v -0.59495 0.05901 0
v -0.56255 0.05747 -0.20475
v -0.45576 0.05901 -0.38242
v -0.4586 0.05747 -0.38481
v -0.5590701 0.05901 -0.20348
v 0.05211 0.05901 -0.29554
v -0.05211 0.05901 -0.29554
v 0 0.05901 0
v 0.15005 0.05901 -0.25989
v -0.15005 0.05901 -0.25989
v -0.22989 0.05901 -0.1929
v 0.22989 0.05901 -0.1929
v -0.282 0.05901 -0.10264
v 0.282 0.05901 -0.10264
v -0.3001 0.05901 0
v 0.3001 0.05901 0
v -0.282 0.05901 0.10264
v 0.282 0.05901 0.10264
v -0.22989 0.05901 0.1929
v 0.22989 0.05901 0.1929
v -0.15005 0.05901 0.25989
v 0.15005 0.05901 0.25989
v -0.05211 0.05901 0.29554
v 0.05211 0.05901 0.29554
v 0.45576 0 0.38242
v 0.4586 0.00154 0.38481
v 0.56255 0.00154 0.20475
v 0.29747 0 0.51524
v 0.29933 0.00154 0.51845
v 0.5590701 0 0.20348
v 0.59866 0.00154 0
v 0.10331 0 0.58591
v 0.10396 0.00154 0.58956
v 0.59495 0 0
v 0.56255 0.00154 -0.20475
v -0.10331 0 0.58591
v -0.10396 0.00154 0.58956
v 0.5590701 0 -0.20348
v 0.4586 0.00154 -0.38481
v -0.29747 0 0.51524
v -0.29933 0.00154 0.51845
v 0.45576 0 -0.38242
v 0.29933 0.00154 -0.51845
v -0.45576 0 0.38242
v -0.4586 0.00154 0.38481
v 0.29747 0 -0.51524
v 0.10396 0.00154 -0.58956
v -0.5590701 0 0.20348
v -0.56255 0.00154 0.20475
v 0.10331 0 -0.58591
v -0.10396 0.00154 -0.58956
v -0.59495 0 0
v -0.59866 0.00154 0
v -0.10331 0 -0.58591
v -0.29933 0.00154 -0.51845
v -0.5590701 0 -0.20348
v -0.56255 0.00154 -0.20475
v -0.29747 0 -0.51524
v -0.4586 0.00154 -0.38481
v -0.45576 0 -0.38242
v 0.05211 0 -0.29554
v -0.05211 0 -0.29554
v 0 0 0
v 0.15005 0 -0.25989
v -0.15005 0 -0.25989
v -0.22989 0 -0.1929
v 0.22989 0 -0.1929
v -0.282 0 -0.10264
v 0.282 0 -0.10264
v -0.3001 0 0
v 0.3001 0 0
v -0.282 0 0.10264
v 0.282 0 0.10264
v -0.22989 0 0.1929
v 0.22989 0 0.1929
v -0.15005 0 0.25989
v 0.15005 0 0.25989
v -0.05211 0 0.29554
v 0.05211 0 0.29554
vt 0.0101 0.0396
vt 0.0101 0.0424
vt 0.0631 0.0424
vt 0.0631 0.0396
vt 0.1159 0.0424
vt 0.0631 0.0139
vt 0.0101 0.0139
vt 0.0101 0.0111
vt 0.0631 0.0111
vt 0.1159 0.0139
vt 0.1159 0.0111
vt 0.1159 0.0396
vt 0.168 0.0424
vt 0.168 0.0139
vt 0.168 0.0111
vt 0.168 0.0396
vt 0.2198 0.0424
vt 0.2198 0.0139
vt 0.2198 0.0111
vt 0.2198 0.0396
vt 0.2713 0.0424
vt 0.2713 0.0139
vt 0.2713 0.0111
vt 0.2713 0.0396
vt 0.323 0.0424
vt 0.323 0.0139
vt 0.323 0.0111
vt 0.323 0.0396
vt 0.3752 0.0424
vt 0.3752 0.0139
vt 0.3752 0.0111
vt 0.3752 0.0396
vt 0.4279 0.0424
vt 0.4279 0.0139
vt 0.4279 0.0111
vt 0.4279 0.0396
vt 0.481 0.0424
vt 0.481 0.0139
vt 0.481 0.0111
vt 0.481 0.0396
vt 0.5341 0.0424
vt 0.5341 0.0139
vt 0.5341 0.0111
vt 0.5341 0.0396
vt 0.5868 0.0424
vt 0.5868 0.0139
vt 0.5868 0.0111
vt 0.5868 0.0396
vt 0.639 0.0424
vt 0.639 0.0139
vt 0.639 0.0111
vt 0.639 0.0396
vt 0.6907 0.0424
vt 0.6907 0.0139
vt 0.6907 0.0111
vt 0.6907 0.0396
vt 0.7423 0.0424
vt 0.7423 0.0139
vt 0.7423 0.0111
vt 0.7423 0.0396
vt 0.794 0.0424
vt 0.794 0.0139
vt 0.794 0.0111
vt 0.794 0.0396
vt 0.8462 0.0424
vt 0.8462 0.0139
vt 0.8462 0.0111
vt 0.8462 0.0396
vt 0.8989 0.0424
vt 0.8989 0.0139
vt 0.8989 0.0111
vt 0.8989 0.0396
vt 0.952 0.0424
vt 0.952 0.0396
vt 0.952 0.0139
vt 0.952 0.0111
vt 0.9316 0.3566
vt 0.9354 0.3552
vt 0.8536 0.2114
vt 0.8505 0.2141
vt 0.7284 0.1046
vt 0.9597 0.5188
vt 0.9638 0.5188
vt 0.7263 0.1082
vt 0.5747 0.0478
vt 0.9316 0.6809
vt 0.9354 0.6823
vt 0.5739 0.0519
vt 0.4111 0.0478
vt 0.8505 0.8235
vt 0.8536 0.8261
vt 0.4118 0.0519
vt 0.2574 0.1046
vt 0.7263 0.9293
vt 0.7284 0.9329
vt 0.2595 0.1082
vt 0.1321 0.2114
vt 0.5739 0.9856
vt 0.5747 0.9897
vt 0.1353 0.2141
vt 0.0503 0.3552
vt 0.4118 0.9856
vt 0.4111 0.9897
vt 0.0542 0.3566
vt 0.0219 0.5188
vt 0.2595 0.9293
vt 0.2574 0.9329
vt 0.026 0.5188
vt 0.0503 0.6823
vt 0.1353 0.8235
vt 0.1321 0.8261
vt 0.0542 0.6809
vt 0.5338 0.7542
vt 0.452 0.7542
vt 0.4929 0.5188
vt 0.6106 0.7258
vt 0.3751 0.7258
vt 0.3125 0.6725
vt 0.6733 0.6725
vt 0.2716 0.6005
vt 0.7142 0.6005
vt 0.2574 0.5188
vt 0.7284 0.5188
vt 0.2716 0.437
vt 0.7142 0.437
vt 0.3125 0.3651
vt 0.6733 0.3651
vt 0.3751 0.3117
vt 0.6106 0.3117
vt 0.452 0.2833
vt 0.5338 0.2833
vt 0.8505 0.2141
vt 0.8536 0.2114
vt 0.9354 0.3552
vt 0.7263 0.1082
vt 0.7284 0.1046
vt 0.9316 0.3566
vt 0.9638 0.5188
vt 0.5739 0.0519
vt 0.5747 0.0478
vt 0.9597 0.5188
vt 0.9354 0.6823
vt 0.4118 0.0519
vt 0.4111 0.0478
vt 0.9316 0.6809
vt 0.8536 0.8261
vt 0.2595 0.1082
vt 0.2574 0.1046
vt 0.8505 0.8235
vt 0.7284 0.9329
vt 0.1353 0.2141
vt 0.1321 0.2114
vt 0.7263 0.9293
vt 0.5747 0.9897
vt 0.0542 0.3566
vt 0.0503 0.3552
vt 0.5739 0.9856
vt 0.4111 0.9897
vt 0.026 0.5188
vt 0.0219 0.5188
vt 0.4118 0.9856
vt 0.2574 0.9329
vt 0.0542 0.6809
vt 0.0503 0.6823
vt 0.2595 0.9293
vt 0.1321 0.8261
vt 0.1353 0.8235
vt 0.5338 0.7542
vt 0.452 0.7542
vt 0.4929 0.5188
vt 0.6106 0.7258
vt 0.3751 0.7258
vt 0.3125 0.6725
vt 0.6733 0.6725
vt 0.2716 0.6005
vt 0.7142 0.6005
vt 0.2574 0.5188
vt 0.7284 0.5188
vt 0.2716 0.437
vt 0.7142 0.437
vt 0.3125 0.3651
vt 0.6733 0.3651
vt 0.3751 0.3117
vt 0.6106 0.3117
vt 0.452 0.2833
vt 0.5338 0.2833
vn 0.9815716 0.1910945 0
vn 0.9238766 0.3826903 0
vn 0.8681624 0.3826834 -0.3159863
vn 0.9223837 0.1910966 -0.3356941
vn 0.7076945 0.382697 -0.5938954
vn 0.9223837 -0.1910966 -0.3356941
vn 0.9815716 -0.1910945 0
vn 0.9238766 -0.3826903 0
vn 0.8681624 -0.3826834 -0.3159863
vn 0.7519348 -0.1911088 -0.6309292
vn 0.7076945 -0.382697 -0.5938954
vn 0.7519348 0.1911088 -0.6309292
vn 0.4619067 0.3827055 -0.8001117
vn 0.4907819 -0.191093 -0.8500686
vn 0.4619067 -0.3827055 -0.8001117
vn 0.4907819 0.191093 -0.8500686
vn 0.1604062 0.3827146 -0.9098348
vn 0.1703945 -0.1910939 -0.9666689
vn 0.1604062 -0.3827146 -0.9098348
vn 0.1703945 0.1910939 -0.9666689
vn -0.1604062 0.3827146 -0.9098348
vn -0.1703945 -0.1910939 -0.9666689
vn -0.1604062 -0.3827146 -0.9098348
vn -0.1703945 0.1910939 -0.9666689
vn -0.4619067 0.3827055 -0.8001117
vn -0.4907819 -0.191093 -0.8500686
vn -0.4619067 -0.3827055 -0.8001117
vn -0.4907819 0.191093 -0.8500686
vn -0.7076945 0.382697 -0.5938954
vn -0.7519348 -0.1911088 -0.6309292
vn -0.7076945 -0.382697 -0.5938954
vn -0.7519348 0.1911088 -0.6309292
vn -0.8681624 0.3826834 -0.3159863
vn -0.9223837 -0.1910966 -0.3356941
vn -0.8681624 -0.3826834 -0.3159863
vn -0.9223837 0.1910966 -0.3356941
vn -0.9238766 0.3826903 0
vn -0.9815716 -0.1910945 0
vn -0.9238766 -0.3826903 0
vn -0.9815716 0.1910945 0
vn -0.8681624 0.3826834 0.3159863
vn -0.9223837 -0.1910966 0.3356941
vn -0.8681624 -0.3826834 0.3159863
vn -0.9223837 0.1910966 0.3356941
vn -0.7076945 0.382697 0.5938954
vn -0.7519348 -0.1911088 0.6309292
vn -0.7076945 -0.382697 0.5938954
vn -0.7519348 0.1911088 0.6309292
vn -0.4619067 0.3827055 0.8001117
vn -0.4907819 -0.191093 0.8500686
vn -0.4619067 -0.3827055 0.8001117
vn -0.4907819 0.191093 0.8500686
vn -0.1604062 0.3827146 0.9098348
vn -0.1703945 -0.1910939 0.9666689
vn -0.1604062 -0.3827146 0.9098348
vn -0.1703945 0.1910939 0.9666689
vn 0.1604062 0.3827146 0.9098348
vn 0.1703945 -0.1910939 0.9666689
vn 0.1604062 -0.3827146 0.9098348
vn 0.1703945 0.1910939 0.9666689
vn 0.4619067 0.3827055 0.8001117
vn 0.4907819 -0.191093 0.8500686
vn 0.4619067 -0.3827055 0.8001117
vn 0.4907819 0.191093 0.8500686
vn 0.7076945 0.382697 0.5938954
vn 0.7519348 -0.1911088 0.6309292
vn 0.7076945 -0.382697 0.5938954
vn 0.7519348 0.1911088 0.6309292
vn 0.8681624 0.3826834 0.3159863
vn 0.9223837 -0.1910966 0.3356941
vn 0.8681624 -0.3826834 0.3159863
vn 0.9223837 0.1910966 0.3356941
vn 0.9238766 0.3826903 0
vn 0.9815716 0.1910945 0
vn 0.9815716 -0.1910945 0
vn 0.9238766 -0.3826903 0
vn 0.2027111 0.9764534 0.07380404
vn 0.3595931 0.9238824 0.1308975
vn 0.2931892 0.9238661 0.245991
vn 0.1653067 0.9764397 0.1387056
vn 0.1912988 0.923894 0.3313979
vn 0.2158079 0.9764358 0
vn 0.3826903 0.9238766 0
vn 0.1079037 0.9764336 0.1869064
vn 0.06649777 0.923869 0.3768874
vn 0.2027111 0.9764534 -0.07380404
vn 0.3595931 0.9238824 -0.1308975
vn 0.03750151 0.9764394 0.2125086
vn -0.06649777 0.923869 0.3768874
vn 0.1653067 0.9764397 -0.1387056
vn 0.2931892 0.9238661 -0.245991
vn -0.03750151 0.9764394 0.2125086
vn -0.1912988 0.923894 0.3313979
vn 0.1079037 0.9764336 -0.1869064
vn 0.1912988 0.923894 -0.3313979
vn -0.1079037 0.9764336 0.1869064
vn -0.2931892 0.9238661 0.245991
vn 0.03750151 0.9764394 -0.2125086
vn 0.06649777 0.923869 -0.3768874
vn -0.1653067 0.9764397 0.1387056
vn -0.3595931 0.9238824 0.1308975
vn -0.03750151 0.9764394 -0.2125086
vn -0.06649777 0.923869 -0.3768874
vn -0.2027111 0.9764534 0.07380404
vn -0.3826903 0.9238766 0
vn -0.1079037 0.9764336 -0.1869064
vn -0.1912988 0.923894 -0.3313979
vn -0.2158079 0.9764358 0
vn -0.3595931 0.9238824 -0.1308975
vn -0.1653067 0.9764397 -0.1387056
vn -0.2931892 0.9238661 -0.245991
vn -0.2027111 0.9764534 -0.07380404
vn 0 1 0
vn 0 1 0
vn 0 1 0
vn 0 1 0
vn 0 1 0
vn 0 1 0
vn 0 1 0
vn 0 1 0
vn 0 1 0
vn 0 1 0
vn 0 1 0
vn 0 1 0
vn 0 1 0
vn 0 1 0
vn 0 1 0
vn 0 1 0
vn 0 1 0
vn 0 1 0
vn 0 1 0
vn 0.1653067 -0.9764397 0.1387056
vn 0.2931892 -0.9238661 0.245991
vn 0.3595931 -0.9238824 0.1308975
vn 0.1079037 -0.9764336 0.1869064
vn 0.1912988 -0.923894 0.3313979
vn 0.2027111 -0.9764534 0.07380404
vn 0.3826903 -0.9238766 0
vn 0.03750151 -0.9764394 0.2125086
vn 0.06649777 -0.923869 0.3768874
vn 0.2158079 -0.9764358 0
vn 0.3595931 -0.9238824 -0.1308975
vn -0.03750151 -0.9764394 0.2125086
vn -0.06649777 -0.923869 0.3768874
vn 0.2027111 -0.9764534 -0.07380404
vn 0.2931892 -0.9238661 -0.245991
vn -0.1079037 -0.9764336 0.1869064
vn -0.1912988 -0.923894 0.3313979
vn 0.1653067 -0.9764397 -0.1387056
vn 0.1912988 -0.923894 -0.3313979
vn -0.1653067 -0.9764397 0.1387056
vn -0.2931892 -0.9238661 0.245991
vn 0.1079037 -0.9764336 -0.1869064
vn 0.06649777 -0.923869 -0.3768874
vn -0.2027111 -0.9764534 0.07380404
vn -0.3595931 -0.9238824 0.1308975
vn 0.03750151 -0.9764394 -0.2125086
vn -0.06649777 -0.923869 -0.3768874
vn -0.2158079 -0.9764358 0
vn -0.3826903 -0.9238766 0
vn -0.03750151 -0.9764394 -0.2125086
vn -0.1912988 -0.923894 -0.3313979
vn -0.2027111 -0.9764534 -0.07380404
vn -0.3595931 -0.9238824 -0.1308975
vn -0.1079037 -0.9764336 -0.1869064
vn -0.2931892 -0.9238661 -0.245991
vn -0.1653067 -0.9764397 -0.1387056
vn 0 -1 0
vn 0 -1 0
vn 0 -1 0
vn 0 -1 0
vn 0 -1 0
vn 0 -1 0
vn 0 -1 0
vn 0 -1 0
vn 0 -1 0
vn 0 -1 0
vn 0 -1 0
vn 0 -1 0
vn 0 -1 0
vn 0 -1 0
vn 0 -1 0
vn 0 -1 0
vn 0 -1 0
vn 0 -1 0
vn 0 -1 0
g Lemon_0
f 3/3/3 2/2/2 1/1/1
f 4/4/4 3/3/3 1/1/1
f 5/5/5 3/3/3 4/4/4
f 4/4/4 1/1/1 6/6/6
f 1/1/1 7/7/7 6/6/6
f 7/7/7 8/8/8 6/6/6
f 8/8/8 9/9/9 6/6/6
f 6/6/6 9/9/9 10/10/10
f 4/4/4 6/6/6 10/10/10
f 9/9/9 11/11/11 10/10/10
f 12/12/12 5/5/5 4/4/4
f 12/12/12 4/4/4 10/10/10
f 13/13/13 5/5/5 12/12/12
f 10/10/10 11/11/11 14/14/14
f 12/12/12 10/10/10 14/14/14
f 11/11/11 15/15/15 14/14/14
f 16/16/16 13/13/13 12/12/12
f 16/16/16 12/12/12 14/14/14
f 17/17/17 13/13/13 16/16/16
f 14/14/14 15/15/15 18/18/18
f 16/16/16 14/14/14 18/18/18
f 15/15/15 19/19/19 18/18/18
f 20/20/20 17/17/17 16/16/16
f 20/20/20 16/16/16 18/18/18
f 21/21/21 17/17/17 20/20/20
f 18/18/18 19/19/19 22/22/22
f 20/20/20 18/18/18 22/22/22
f 19/19/19 23/23/23 22/22/22
f 24/24/24 21/21/21 20/20/20
f 24/24/24 20/20/20 22/22/22
f 25/25/25 21/21/21 24/24/24
f 22/22/22 23/23/23 26/26/26
f 24/24/24 22/22/22 26/26/26
f 23/23/23 27/27/27 26/26/26
f 28/28/28 25/25/25 24/24/24
f 28/28/28 24/24/24 26/26/26
f 29/29/29 25/25/25 28/28/28
f 26/26/26 27/27/27 30/30/30
f 28/28/28 26/26/26 30/30/30
f 27/27/27 31/31/31 30/30/30
f 32/32/32 29/29/29 28/28/28
f 32/32/32 28/28/28 30/30/30
f 33/33/33 29/29/29 32/32/32
f 30/30/30 31/31/31 34/34/34
f 32/32/32 30/30/30 34/34/34
f 31/31/31 35/35/35 34/34/34
f 36/36/36 33/33/33 32/32/32
f 36/36/36 32/32/32 34/34/34
f 37/37/37 33/33/33 36/36/36
f 34/34/34 35/35/35 38/38/38
f 36/36/36 34/34/34 38/38/38
f 35/35/35 39/39/39 38/38/38
f 40/40/40 37/37/37 36/36/36
f 40/40/40 36/36/36 38/38/38
f 41/41/41 37/37/37 40/40/40
f 38/38/38 39/39/39 42/42/42
f 40/40/40 38/38/38 42/42/42
f 39/39/39 43/43/43 42/42/42
f 44/44/44 41/41/41 40/40/40
f 44/44/44 40/40/40 42/42/42
f 45/45/45 41/41/41 44/44/44
f 42/42/42 43/43/43 46/46/46
f 44/44/44 42/42/42 46/46/46
f 43/43/43 47/47/47 46/46/46
f 48/48/48 45/45/45 44/44/44
f 48/48/48 44/44/44 46/46/46
f 49/49/49 45/45/45 48/48/48
f 46/46/46 47/47/47 50/50/50
f 48/48/48 46/46/46 50/50/50
f 47/47/47 51/51/51 50/50/50
f 52/52/52 49/49/49 48/48/48
f 52/52/52 48/48/48 50/50/50
f 53/53/53 49/49/49 52/52/52
f 50/50/50 51/51/51 54/54/54
f 52/52/52 50/50/50 54/54/54
f 51/51/51 55/55/55 54/54/54
f 56/56/56 53/53/53 52/52/52
f 56/56/56 52/52/52 54/54/54
f 57/57/57 53/53/53 56/56/56
f 54/54/54 55/55/55 58/58/58
f 56/56/56 54/54/54 58/58/58
f 55/55/55 59/59/59 58/58/58
f 60/60/60 57/57/57 56/56/56
f 60/60/60 56/56/56 58/58/58
f 61/61/61 57/57/57 60/60/60
f 58/58/58 59/59/59 62/62/62
f 60/60/60 58/58/58 62/62/62
f 59/59/59 63/63/63 62/62/62
f 64/64/64 61/61/61 60/60/60
f 64/64/64 60/60/60 62/62/62
f 65/65/65 61/61/61 64/64/64
f 62/62/62 63/63/63 66/66/66
f 64/64/64 62/62/62 66/66/66
f 63/63/63 67/67/67 66/66/66
f 68/68/68 65/65/65 64/64/64
f 68/68/68 64/64/64 66/66/66
f 69/69/69 65/65/65 68/68/68
f 66/66/66 67/67/67 70/70/70
f 68/68/68 66/66/66 70/70/70
f 67/67/67 71/71/71 70/70/70
f 72/72/72 69/69/69 68/68/68
f 72/72/72 68/68/68 70/70/70
f 73/73/73 69/69/69 72/72/72
f 74/74/74 73/73/73 72/72/72
f 74/74/74 72/72/72 75/75/75
f 72/72/72 70/70/70 75/75/75
f 70/70/70 71/71/71 75/75/75
f 71/71/71 76/76/76 75/75/75
f 79/79/79 78/78/78 77/77/77
f 80/80/80 79/79/79 77/77/77
f 81/81/81 79/79/79 80/80/80
f 77/77/77 78/78/78 82/82/82
f 78/78/78 83/83/83 82/82/82
f 84/84/84 81/81/81 80/80/80
f 85/85/85 81/81/81 84/84/84
f 82/82/82 83/83/83 86/86/86
f 83/83/83 87/87/87 86/86/86
f 88/88/88 85/85/85 84/84/84
f 89/89/89 85/85/85 88/88/88
f 86/86/86 87/87/87 90/90/90
f 87/87/87 91/91/91 90/90/90
f 92/92/92 89/89/89 88/88/88
f 93/93/93 89/89/89 92/92/92
f 90/90/90 91/91/91 94/94/94
f 91/91/91 95/95/95 94/94/94
f 96/96/96 93/93/93 92/92/92
f 97/97/97 93/93/93 96/96/96
f 94/94/94 95/95/95 98/98/98
f 95/95/95 99/99/99 98/98/98
f 100/100/100 97/97/97 96/96/96
f 101/101/101 97/97/97 100/100/100
f 98/98/98 99/99/99 102/102/102
f 99/99/99 103/103/103 102/102/102
f 104/104/104 101/101/101 100/100/100
f 105/105/105 101/101/101 104/104/104
f 102/102/102 103/103/103 106/106/106
f 103/103/103 107/107/107 106/106/106
f 108/108/108 105/105/105 104/104/104
f 109/109/109 105/105/105 108/108/108
f 106/106/106 107/107/107 110/110/110
f 107/107/107 111/111/111 110/110/110
f 111/111/111 109/109/109 112/112/112
f 112/112/112 109/109/109 108/108/108
f 110/110/110 111/111/111 112/112/112
f 113/113/113 98/98/98 102/102/102
f 114/114/114 102/102/102 106/106/106
f 114/114/114 113/113/113 102/102/102
f 113/113/113 114/114/114 115/115/115
f 116/116/116 113/113/113 115/115/115
f 113/113/113 116/116/116 98/98/98
f 114/114/114 117/117/117 115/115/115
f 117/117/117 114/114/114 106/106/106
f 117/117/117 106/106/106 110/110/110
f 116/116/116 94/94/94 98/98/98
f 118/118/118 117/117/117 110/110/110
f 118/118/118 110/110/110 112/112/112
f 117/117/117 118/118/118 115/115/115
f 116/116/116 119/119/119 94/94/94
f 119/119/119 116/116/116 115/115/115
f 119/119/119 90/90/90 94/94/94
f 120/120/120 118/118/118 112/112/112
f 118/118/118 120/120/120 115/115/115
f 120/120/120 112/112/112 108/108/108
f 119/119/119 121/121/121 90/90/90
f 121/121/121 119/119/119 115/115/115
f 121/121/121 86/86/86 90/90/90
f 122/122/122 120/120/120 108/108/108
f 120/120/120 122/122/122 115/115/115
f 122/122/122 108/108/108 104/104/104
f 121/121/121 123/123/123 86/86/86
f 123/123/123 121/121/121 115/115/115
f 122/122/122 124/124/124 115/115/115
f 124/124/124 122/122/122 104/104/104
f 125/125/125 123/123/123 115/115/115
f 123/123/123 82/82/82 86/86/86
f 123/123/123 125/125/125 82/82/82
f 124/124/124 104/104/104 100/100/100
f 125/125/125 77/77/77 82/82/82
f 126/126/126 124/124/124 100/100/100
f 124/124/124 126/126/126 115/115/115
f 126/126/126 100/100/100 96/96/96
f 125/125/125 127/127/127 77/77/77
f 127/127/127 125/125/125 115/115/115
f 127/127/127 80/80/80 77/77/77
f 128/128/128 126/126/126 96/96/96
f 126/126/126 128/128/128 115/115/115
f 128/128/128 96/96/96 92/92/92
f 127/127/127 129/129/129 80/80/80
f 129/129/129 127/127/127 115/115/115
f 129/129/129 84/84/84 80/80/80
f 130/130/130 128/128/128 92/92/92
f 128/128/128 130/130/130 115/115/115
f 130/130/130 92/92/92 88/88/88
f 131/131/131 88/88/88 84/84/84
f 129/129/129 131/131/131 84/84/84
f 131/131/131 129/129/129 115/115/115
f 131/131/131 130/130/130 88/88/88
f 130/130/130 131/131/131 115/115/115
f 134/134/134 133/133/133 132/132/132
f 132/132/132 133/133/133 135/135/135
f 133/133/133 136/136/136 135/135/135
f 137/137/137 134/134/134 132/132/132
f 138/138/138 134/134/134 137/137/137
f 135/135/135 136/136/136 139/139/139
f 136/136/136 140/140/140 139/139/139
f 141/141/141 138/138/138 137/137/137
f 142/142/142 138/138/138 141/141/141
f 139/139/139 140/140/140 143/143/143
f 140/140/140 144/144/144 143/143/143
f 145/145/145 142/142/142 141/141/141
f 146/146/146 142/142/142 145/145/145
f 143/143/143 144/144/144 147/147/147
f 144/144/144 148/148/148 147/147/147
f 149/149/149 146/146/146 145/145/145
f 150/150/150 146/146/146 149/149/149
f 147/147/147 148/148/148 151/151/151
f 148/148/148 152/152/152 151/151/151
f 153/153/153 150/150/150 149/149/149
f 154/154/154 150/150/150 153/153/153
f 151/151/151 152/152/152 155/155/155
f 152/152/152 156/156/156 155/155/155
f 157/157/157 154/154/154 153/153/153
f 158/158/158 154/154/154 157/157/157
f 155/155/155 156/156/156 159/159/159
f 156/156/156 160/160/160 159/159/159
f 161/161/161 158/158/158 157/157/157
f 162/162/162 158/158/158 161/161/161
f 159/159/159 160/160/160 163/163/163
f 160/160/160 164/164/164 163/163/163
f 165/165/165 162/162/162 161/161/161
f 166/166/166 162/162/162 165/165/165
f 164/164/164 166/166/166 167/167/167
f 163/163/163 164/164/164 167/167/167
f 167/167/167 166/166/166 165/165/165
f 157/157/157 153/153/153 168/168/168
f 161/161/161 157/157/157 169/169/169
f 157/157/157 168/168/168 169/169/169
f 169/169/169 168/168/168 170/170/170
f 168/168/168 171/171/171 170/170/170
f 153/153/153 171/171/171 168/168/168
f 172/172/172 169/169/169 170/170/170
f 161/161/161 169/169/169 172/172/172
f 165/165/165 161/161/161 172/172/172
f 153/153/153 149/149/149 171/171/171
f 165/165/165 172/172/172 173/173/173
f 167/167/167 165/165/165 173/173/173
f 173/173/173 172/172/172 170/170/170
f 149/149/149 174/174/174 171/171/171
f 171/171/171 174/174/174 170/170/170
f 149/149/149 145/145/145 174/174/174
f 167/167/167 173/173/173 175/175/175
f 175/175/175 173/173/173 170/170/170
f 163/163/163 167/167/167 175/175/175
f 145/145/145 176/176/176 174/174/174
f 174/174/174 176/176/176 170/170/170
f 145/145/145 141/141/141 176/176/176
f 163/163/163 175/175/175 177/177/177
f 177/177/177 175/175/175 170/170/170
f 159/159/159 163/163/163 177/177/177
f 176/176/176 178/178/178 170/170/170
f 141/141/141 178/178/178 176/176/176
f 179/179/179 177/177/177 170/170/170
f 159/159/159 177/177/177 179/179/179
f 178/178/178 180/180/180 170/170/170
f 141/141/141 137/137/137 178/178/178
f 137/137/137 180/180/180 178/178/178
f 155/155/155 159/159/159 179/179/179
f 137/137/137 132/132/132 180/180/180
f 155/155/155 179/179/179 181/181/181
f 181/181/181 179/179/179 170/170/170
f 151/151/151 155/155/155 181/181/181
f 132/132/132 182/182/182 180/180/180
f 180/180/180 182/182/182 170/170/170
f 132/132/132 135/135/135 182/182/182
f 151/151/151 181/181/181 183/183/183
f 183/183/183 181/181/181 170/170/170
f 147/147/147 151/151/151 183/183/183
f 135/135/135 184/184/184 182/182/182
f 182/182/182 184/184/184 170/170/170
f 135/135/135 139/139/139 184/184/184
f 147/147/147 183/183/183 185/185/185
f 185/185/185 183/183/183 170/170/170
f 143/143/143 147/147/147 185/185/185
f 184/184/184 186/186/186 170/170/170
f 139/139/139 186/186/186 184/184/184
f 186/186/186 185/185/185 170/170/170
f 143/143/143 185/185/185 186/186/186
f 139/139/139 143/143/143 186/186/186
