g Mesh_Box_ForParticle
v 0.5 -0.5 -0.5
v 0.5 0.5 -0.5
v -0.5 -0.5 -0.5
v -0.5 0.5 -0.5
v -0.5 -0.5 0.5
v -0.5 0.5 0.5
v 0.5 -0.5 0.5
v 0.5 0.5 0.5
v 0.5 -0.5 0.5
v 0.5 0.5 0.5
v 0.5 -0.5 -0.5
v 0.5 0.5 -0.5
v -0.5 -0.5 -0.5
v -0.5 0.5 -0.5
v -0.5 -0.5 0.5
v -0.5 0.5 0.5
v 0.5 0.5 -0.5
v 0.5 0.5 0.5
v -0.5 0.5 -0.5
v -0.5 0.5 0.5
v -0.5 -0.5 -0.5
v -0.5 -0.5 0.5
v 0.5 -0.5 -0.5
v 0.5 -0.5 0.5
vt 0 0
vt 0 1
vt 1 0
vt 1 1
vt 0 0
vt 0 1
vt 1 0
vt 1 1
vt 0 0
vt 0 1
vt 1 0
vt 1 1
vt 0 0
vt 0 1
vt 1 0
vt 1 1
vt 0 0
vt 0 1
vt 1 0
vt 1 1
vt 0 0
vt 0 1
vt 1 0
vt 1 1
vn 0 0 -1
vn 0 0 -1
vn 0 0 -1
vn 0 0 -1
vn 0 0 1
vn 0 0 1
vn 0 0 1
vn 0 0 1
vn 1 0 0
vn 1 0 0
vn 1 0 0
vn 1 0 0
vn -1 0 0
vn -1 0 0
vn -1 0 0
vn -1 0 0
vn 0 1 0
vn 0 1 0
vn 0 1 0
vn 0 1 0
vn 0 -1 0
vn 0 -1 0
vn 0 -1 0
vn 0 -1 0
g Mesh_Box_ForParticle_0
f 4/4/4 2/2/2 1/1/1
f 1/1/1 3/3/3 4/4/4
f 8/8/8 6/6/6 5/5/5
f 5/5/5 7/7/7 8/8/8
f 12/12/12 10/10/10 9/9/9
f 9/9/9 11/11/11 12/12/12
f 16/16/16 14/14/14 13/13/13
f 13/13/13 15/15/15 16/16/16
f 20/20/20 18/18/18 17/17/17
f 17/17/17 19/19/19 20/20/20
f 24/24/24 22/22/22 21/21/21
f 21/21/21 23/23/23 24/24/24
