g mint
v -0.008271426 0.0001165122 -0.001048476
v -0.02621223 0.0001165122 0.01829031
v -0.03040618 0.0001165122 -0.01572731
v -0.04601701 0.0001165122 0.02295026
v -0.05067696 0.0001165122 -0.01549432
v -0.06791878 0.0001165122 0.01013541
v -0.06885076 0.0001165122 0.001980498
v -0.08888854 0.0001165122 0.006174445
v -0.08818954 0.0001165122 0.0108344
v -0.03040618 0.0001165122 -0.01572731
v -0.02621223 -0.004077442 -0.02015426
v 0.001048476 -0.004077442 -0.002213456
v -0.008271426 0.0001165122 -0.001048476
v -0.008271426 0.0001165122 -0.001048476
v 0.001048476 -0.004077442 -0.002213456
v -0.02108629 -0.004077442 0.02155228
v -0.02621223 0.0001165122 0.01829031
v -0.08818954 0.0001165122 0.0108344
v -0.09750944 -0.004077442 0.01246537
v -0.09820844 -0.004077442 0.006640449
v -0.08888854 0.0001165122 0.006174445
v -0.08888854 0.0001165122 0.006174445
v -0.09820844 -0.004077442 0.006640449
v -0.0737437 -0.004077442 0.001747496
v -0.06885076 0.0001165122 0.001980498
v -0.06791878 0.0001165122 0.01013541
v -0.07257871 -0.004077442 0.01153339
v -0.09750944 -0.004077442 0.01246537
v -0.08818954 0.0001165122 0.0108344
v -0.05067696 0.0001165122 -0.01549432
v -0.05114296 -0.004077442 -0.01992127
v -0.02621223 -0.004077442 -0.02015426
v -0.03040618 0.0001165122 -0.01572731
v -0.02621223 0.0001165122 0.01829031
v -0.02108629 -0.004077442 0.02155228
v -0.04555102 -0.004077442 0.02737722
v -0.04601701 0.0001165122 0.02295026
v -0.06885076 0.0001165122 0.001980498
v -0.0737437 -0.004077442 0.001747496
v -0.05114296 -0.004077442 -0.01992127
v -0.05067696 0.0001165122 -0.01549432
v -0.04601701 0.0001165122 0.02295026
v -0.04555102 -0.004077442 0.02737722
v -0.07257871 -0.004077442 0.01153339
v -0.06791878 0.0001165122 0.01013541
v 0.02947416 0.001514502 -0.02015426
v 0.0259792 0.001514502 -0.05440488
v 0.0625598 0.001514502 -0.02947416
v 0.03809506 0.001514502 -0.07770463
v 0.07956861 0.001514502 -0.04951194
v 0.06931672 0.001514502 -0.08818951
v 0.07793763 0.001514502 -0.08236458
v 0.09075249 0.001514502 -0.1051983
v 0.08562654 0.001514502 -0.1089263
v 0.0625598 0.001514502 -0.02947416
v 0.06349179 -0.004077442 -0.02178524
v 0.02271724 -0.004077442 -0.01013537
v 0.02947416 0.001514502 -0.02015426
v 0.02947416 0.001514502 -0.02015426
v 0.02271724 -0.004077442 -0.01013537
v 0.01829028 -0.004077442 -0.05207491
v 0.0259792 0.001514502 -0.05440488
v 0.08562654 0.001514502 -0.1089263
v 0.09168448 -0.004077442 -0.1191782
v 0.09820841 -0.004077442 -0.1147512
v 0.09075249 0.001514502 -0.1051983
v 0.09075249 0.001514502 -0.1051983
v 0.09820841 -0.004077442 -0.1147512
v 0.08236458 -0.004077442 -0.08679153
v 0.07793763 0.001514502 -0.08236458
v 0.06931672 0.001514502 -0.08818951
v 0.0716467 -0.004077442 -0.09401445
v 0.09168448 -0.004077442 -0.1191782
v 0.08562654 0.001514502 -0.1089263
v 0.07956861 0.001514502 -0.04951194
v 0.08446155 -0.004077442 -0.04648297
v 0.06349179 -0.004077442 -0.02178524
v 0.0625598 0.001514502 -0.02947416
v 0.0259792 0.001514502 -0.05440488
v 0.01829028 -0.004077442 -0.05207491
v 0.03343511 -0.004077442 -0.0807336
v 0.03809506 0.001514502 -0.07770463
v 0.07793763 0.001514502 -0.08236458
v 0.08236458 -0.004077442 -0.08679153
v 0.08446155 -0.004077442 -0.04648297
v 0.07956861 0.001514502 -0.04951194
v 0.03809506 0.001514502 -0.07770463
v 0.03343511 -0.004077442 -0.0807336
v 0.0716467 -0.004077442 -0.09401445
v 0.06931672 0.001514502 -0.08818951
v 0.02434821 0.004077472 0.0280762
v 0.05184191 0.004077472 0.03926009
v 0.01782428 0.004077472 0.05696788
v 0.06442378 0.004077472 0.05813287
v 0.02621219 0.004077472 0.07817066
v 0.05976383 0.004077472 0.08632557
v 0.05184191 0.004077472 0.09028652
v 0.06395778 0.004077472 0.1096253
v 0.06885073 0.004077472 0.1070623
v 0.01782428 0.004077472 0.05696788
v 0.01153336 -0.0005824789 0.05440491
v 0.01945527 -0.0005824789 0.01875632
v 0.02434821 0.004077472 0.0280762
v 0.02434821 0.004077472 0.0280762
v 0.01945527 -0.0005824789 0.01875632
v 0.0532399 -0.0005824789 0.03250316
v 0.05184191 0.004077472 0.03926009
v 0.06885073 0.004077472 0.1070623
v 0.07420967 -0.0005824789 0.1161492
v 0.06815173 -0.0005824789 0.1191782
v 0.06395778 0.004077472 0.1096253
v 0.06395778 0.004077472 0.1096253
v 0.06815173 -0.0005824789 0.1191782
v 0.0532399 -0.0005824789 0.09541246
v 0.05184191 0.004077472 0.09028652
v 0.05976383 0.004077472 0.08632557
v 0.06325879 -0.0005824789 0.09028652
v 0.07420967 -0.0005824789 0.1161492
v 0.06885073 0.004077472 0.1070623
v 0.02621219 0.004077472 0.07817066
v 0.02178524 -0.0005824789 0.08050063
v 0.01153336 -0.0005824789 0.05440491
v 0.01782428 0.004077472 0.05696788
v 0.05184191 0.004077472 0.03926009
v 0.0532399 -0.0005824789 0.03250316
v 0.06885073 -0.0005824789 0.05580291
v 0.06442378 0.004077472 0.05813287
v 0.05184191 0.004077472 0.09028652
v 0.0532399 -0.0005824789 0.09541246
v 0.02178524 -0.0005824789 0.08050063
v 0.02621219 0.004077472 0.07817066
v 0.06442378 0.004077472 0.05813287
v 0.06885073 -0.0005824789 0.05580291
v 0.06325879 -0.0005824789 0.09028652
v 0.05976383 0.004077472 0.08632557
vt 0.2121595 0.5376968
vt 0.2135389 0.5418351
vt 0.2135389 0.534938
vt 0.2149183 0.5418351
vt 0.2149183 0.534938
vt 0.2162977 0.5418351
vt 0.2162977 0.534938
vt 0.2190565 0.534938
vt 0.2190565 0.5418351
vt 0.2025038 0.5280411
vt 0.2025038 0.5542496
vt 0.2287123 0.5542496
vt 0.2287123 0.5280411
vt 0.2025038 0.5280411
vt 0.2025038 0.5542496
vt 0.2287123 0.5542496
vt 0.2287123 0.5280411
vt 0.2025038 0.5280411
vt 0.2025038 0.5542496
vt 0.2287123 0.5542496
vt 0.2287123 0.5280411
vt 0.2025038 0.5280411
vt 0.2025038 0.5542496
vt 0.2287123 0.5542496
vt 0.2287123 0.5280411
vt 0.2025038 0.5280411
vt 0.2025038 0.5542496
vt 0.2287123 0.5542496
vt 0.2287123 0.5280411
vt 0.2025038 0.5280411
vt 0.2025038 0.5542496
vt 0.2287123 0.5542496
vt 0.2287123 0.5280411
vt 0.2025038 0.5280411
vt 0.2025038 0.5542496
vt 0.2287123 0.5542496
vt 0.2287123 0.5280411
vt 0.2025038 0.5280411
vt 0.2025038 0.5542496
vt 0.2287123 0.5542496
vt 0.2287123 0.5280411
vt 0.2025038 0.5280411
vt 0.2025038 0.5542496
vt 0.2287123 0.5542496
vt 0.2287123 0.5280411
vt 0.2121595 0.5376968
vt 0.2135389 0.5418351
vt 0.2135389 0.534938
vt 0.2149183 0.5418351
vt 0.2149183 0.534938
vt 0.2162977 0.5418351
vt 0.2162977 0.534938
vt 0.2190565 0.534938
vt 0.2190565 0.5418351
vt 0.2025038 0.5280411
vt 0.2025038 0.5542496
vt 0.2287123 0.5542496
vt 0.2287123 0.5280411
vt 0.2025038 0.5280411
vt 0.2025038 0.5542496
vt 0.2287123 0.5542496
vt 0.2287123 0.5280411
vt 0.2025038 0.5280411
vt 0.2025038 0.5542496
vt 0.2287123 0.5542496
vt 0.2287123 0.5280411
vt 0.2025038 0.5280411
vt 0.2025038 0.5542496
vt 0.2287123 0.5542496
vt 0.2287123 0.5280411
vt 0.2025038 0.5280411
vt 0.2025038 0.5542496
vt 0.2287123 0.5542496
vt 0.2287123 0.5280411
vt 0.2025038 0.5280411
vt 0.2025038 0.5542496
vt 0.2287123 0.5542496
vt 0.2287123 0.5280411
vt 0.2025038 0.5280411
vt 0.2025038 0.5542496
vt 0.2287123 0.5542496
vt 0.2287123 0.5280411
vt 0.2025038 0.5280411
vt 0.2025038 0.5542496
vt 0.2287123 0.5542496
vt 0.2287123 0.5280411
vt 0.2025038 0.5280411
vt 0.2025038 0.5542496
vt 0.2287123 0.5542496
vt 0.2287123 0.5280411
vt 0.2121595 0.5376968
vt 0.2135389 0.5418351
vt 0.2135389 0.534938
vt 0.2149183 0.5418351
vt 0.2149183 0.534938
vt 0.2162977 0.5418351
vt 0.2162977 0.534938
vt 0.2190565 0.534938
vt 0.2190565 0.5418351
vt 0.2025038 0.5280411
vt 0.2025038 0.5542496
vt 0.2287123 0.5542496
vt 0.2287123 0.5280411
vt 0.2025038 0.5280411
vt 0.2025038 0.5542496
vt 0.2287123 0.5542496
vt 0.2287123 0.5280411
vt 0.2025038 0.5280411
vt 0.2025038 0.5542496
vt 0.2287123 0.5542496
vt 0.2287123 0.5280411
vt 0.2025038 0.5280411
vt 0.2025038 0.5542496
vt 0.2287123 0.5542496
vt 0.2287123 0.5280411
vt 0.2025038 0.5280411
vt 0.2025038 0.5542496
vt 0.2287123 0.5542496
vt 0.2287123 0.5280411
vt 0.2025038 0.5280411
vt 0.2025038 0.5542496
vt 0.2287123 0.5542496
vt 0.2287123 0.5280411
vt 0.2025038 0.5280411
vt 0.2025038 0.5542496
vt 0.2287123 0.5542496
vt 0.2287123 0.5280411
vt 0.2025038 0.5280411
vt 0.2025038 0.5542496
vt 0.2287123 0.5542496
vt 0.2287123 0.5280411
vt 0.2025038 0.5280411
vt 0.2025038 0.5542496
vt 0.2287123 0.5542496
vt 0.2287123 0.5280411
vn -0.01462942 0.9998923 -0.001170857
vn -0.01462942 0.9998923 -0.001170857
vn -0.01462942 0.9998923 -0.001170857
vn -0.01462942 0.9998923 -0.001170857
vn -0.01462942 0.9998923 -0.001170857
vn -0.01462942 0.9998923 -0.001170857
vn -0.01462942 0.9998923 -0.001170857
vn -0.01462942 0.9998923 -0.001170857
vn -0.01462942 0.9998923 -0.001170857
vn 0.3137916 0.8207536 -0.477387
vn 0.3137916 0.8207536 -0.477387
vn 0.3137916 0.8207536 -0.477387
vn 0.3137916 0.8207536 -0.477387
vn 0.4332173 0.8207536 0.3724059
vn 0.4332173 0.8207536 0.3724059
vn 0.4332173 0.8207536 0.3724059
vn 0.4332173 0.8207536 0.3724059
vn -0.4027633 0.910323 0.09536153
vn -0.4027633 0.910323 0.09536153
vn -0.4027633 0.910323 0.09536153
vn -0.4027633 0.910323 0.09536153
vn -0.1937681 0.2833375 -0.9392411
vn -0.1937681 0.2833375 -0.9392411
vn -0.1937681 0.2833375 -0.9392411
vn -0.1937681 0.2833375 -0.9392411
vn 0.04508346 0.2833375 0.9579599
vn 0.04508346 0.2833375 0.9579599
vn 0.04508346 0.2833375 0.9579599
vn 0.04508346 0.2833375 0.9579599
vn -0.01462942 0.7311843 -0.6820231
vn -0.01462942 0.7311843 -0.6820231
vn -0.01462942 0.7311843 -0.6820231
vn -0.01462942 0.7311843 -0.6820231
vn 0.1645093 0.7311843 0.662047
vn 0.1645093 0.7311843 0.662047
vn 0.1645093 0.7311843 0.662047
vn 0.1645093 0.7311843 0.662047
vn -0.5221891 0.6416149 -0.5618264
vn -0.5221891 0.6416149 -0.5618264
vn -0.5221891 0.6416149 -0.5618264
vn -0.5221891 0.6416149 -0.5618264
vn -0.4027633 0.6416149 0.6527727
vn -0.4027633 0.6416149 0.6527727
vn -0.4027633 0.6416149 0.6527727
vn -0.4027633 0.6416149 0.6527727
vn -0.01462942 0.9998923 -0.001170857
vn -0.01462942 0.9998923 -0.001170857
vn -0.01462942 0.9998923 -0.001170857
vn -0.01462942 0.9998923 -0.001170857
vn -0.01462942 0.9998923 -0.001170857
vn -0.01462942 0.9998923 -0.001170857
vn -0.01462942 0.9998923 -0.001170857
vn -0.01462942 0.9998923 -0.001170857
vn -0.01462942 0.9998923 -0.001170857
vn 0.1645093 0.8207536 0.5470833
vn 0.1645093 0.8207536 0.5470833
vn 0.1645093 0.8207536 0.5470833
vn 0.1645093 0.8207536 0.5470833
vn -0.5783712 0.8157737 0
vn -0.5783712 0.8157737 0
vn -0.5783712 0.8157737 0
vn -0.5783712 0.8157737 0
vn 0.2242222 0.910323 -0.347903
vn 0.2242222 0.910323 -0.347903
vn 0.2242222 0.910323 -0.347903
vn 0.2242222 0.910323 -0.347903
vn 0.8213512 0.2833375 0.4950778
vn 0.8213512 0.2833375 0.4950778
vn 0.8213512 0.2833375 0.4950778
vn 0.8213512 0.2833375 0.4950778
vn -0.7610407 0.2833375 -0.5835553
vn -0.7610407 0.2833375 -0.5835553
vn -0.7610407 0.2833375 -0.5835553
vn -0.7610407 0.2833375 -0.5835553
vn 0.5227867 0.7311843 0.4382505
vn 0.5227867 0.7311843 0.4382505
vn 0.5227867 0.7311843 0.4382505
vn 0.5227867 0.7311843 0.4382505
vn -0.6117584 0.7311843 -0.3018628
vn -0.6117584 0.7311843 -0.3018628
vn -0.6117584 0.7311843 -0.3018628
vn -0.6117584 0.7311843 -0.3018628
vn 0.7616383 0.6416149 -0.0907609
vn 0.7616383 0.6416149 -0.0907609
vn 0.7616383 0.6416149 -0.0907609
vn 0.7616383 0.6416149 -0.0907609
vn -0.253481 0.6416149 -0.7239321
vn -0.253481 0.6416149 -0.7239321
vn -0.253481 0.6416149 -0.7239321
vn -0.253481 0.6416149 -0.7239321
vn -0.01462942 0.9998923 -0.001170857
vn -0.01462942 0.9998923 -0.001170857
vn -0.01462942 0.9998923 -0.001170857
vn -0.01462942 0.9998923 -0.001170857
vn -0.01462942 0.9998923 -0.001170857
vn -0.01462942 0.9998923 -0.001170857
vn -0.01462942 0.9998923 -0.001170857
vn -0.01462942 0.9998923 -0.001170857
vn -0.01462942 0.9998923 -0.001170857
vn -0.5520455 0.8207536 -0.1470006
vn -0.5520455 0.8207536 -0.1470006
vn -0.5520455 0.8207536 -0.1470006
vn -0.5520455 0.8207536 -0.1470006
vn 0.2242222 0.8207536 -0.5254406
vn 0.2242222 0.8207536 -0.5254406
vn 0.2242222 0.8207536 -0.5254406
vn 0.2242222 0.8207536 -0.5254406
vn 0.1943657 0.910323 0.3654231
vn 0.1943657 0.910323 0.3654231
vn 0.1943657 0.910323 0.3654231
vn 0.1943657 0.910323 0.3654231
vn -0.8207536 0.2833375 0.4960678
vn -0.8207536 0.2833375 0.4960678
vn -0.8207536 0.2833375 0.4960678
vn -0.8207536 0.2833375 0.4960678
vn 0.8810641 0.2833375 -0.3787425
vn 0.8810641 0.2833375 -0.3787425
vn 0.8810641 0.2833375 -0.3787425
vn 0.8810641 0.2833375 -0.3787425
vn -0.6416149 0.7311843 0.2317324
vn -0.6416149 0.7311843 0.2317324
vn -0.6416149 0.7311843 0.2317324
vn -0.6416149 0.7311843 0.2317324
vn 0.5824996 0.7311843 -0.3550545
vn 0.5824996 0.7311843 -0.3550545
vn 0.5824996 0.7311843 -0.3550545
vn 0.5824996 0.7311843 -0.3550545
vn -0.3430504 0.6416149 0.686037
vn -0.3430504 0.6416149 0.686037
vn -0.3430504 0.6416149 0.686037
vn -0.3430504 0.6416149 0.686037
vn 0.7616383 0.6416149 0.0907609
vn 0.7616383 0.6416149 0.0907609
vn 0.7616383 0.6416149 0.0907609
vn 0.7616383 0.6416149 0.0907609
g mint_0
f 3/3/3 2/2/2 1/1/1
f 4/4/4 2/2/2 3/3/3
f 5/5/5 4/4/4 3/3/3
f 6/6/6 4/4/4 5/5/5
f 7/7/7 6/6/6 5/5/5
f 7/7/7 8/8/8 6/6/6
f 8/8/8 9/9/9 6/6/6
f 12/12/12 11/11/11 10/10/10
f 13/13/13 12/12/12 10/10/10
f 16/16/16 15/15/15 14/14/14
f 17/17/17 16/16/16 14/14/14
f 20/20/20 19/19/19 18/18/18
f 21/21/21 20/20/20 18/18/18
f 24/24/24 23/23/23 22/22/22
f 25/25/25 24/24/24 22/22/22
f 28/28/28 27/27/27 26/26/26
f 29/29/29 28/28/28 26/26/26
f 32/32/32 31/31/31 30/30/30
f 33/33/33 32/32/32 30/30/30
f 36/36/36 35/35/35 34/34/34
f 37/37/37 36/36/36 34/34/34
f 40/40/40 39/39/39 38/38/38
f 41/41/41 40/40/40 38/38/38
f 44/44/44 43/43/43 42/42/42
f 45/45/45 44/44/44 42/42/42
f 48/48/48 47/47/47 46/46/46
f 49/49/49 47/47/47 48/48/48
f 50/50/50 49/49/49 48/48/48
f 51/51/51 49/49/49 50/50/50
f 52/52/52 51/51/51 50/50/50
f 52/52/52 53/53/53 51/51/51
f 53/53/53 54/54/54 51/51/51
f 57/57/57 56/56/56 55/55/55
f 58/58/58 57/57/57 55/55/55
f 61/61/61 60/60/60 59/59/59
f 62/62/62 61/61/61 59/59/59
f 65/65/65 64/64/64 63/63/63
f 66/66/66 65/65/65 63/63/63
f 69/69/69 68/68/68 67/67/67
f 70/70/70 69/69/69 67/67/67
f 73/73/73 72/72/72 71/71/71
f 74/74/74 73/73/73 71/71/71
f 77/77/77 76/76/76 75/75/75
f 78/78/78 77/77/77 75/75/75
f 81/81/81 80/80/80 79/79/79
f 82/82/82 81/81/81 79/79/79
f 85/85/85 84/84/84 83/83/83
f 86/86/86 85/85/85 83/83/83
f 89/89/89 88/88/88 87/87/87
f 90/90/90 89/89/89 87/87/87
f 93/93/93 92/92/92 91/91/91
f 94/94/94 92/92/92 93/93/93
f 95/95/95 94/94/94 93/93/93
f 96/96/96 94/94/94 95/95/95
f 97/97/97 96/96/96 95/95/95
f 97/97/97 98/98/98 96/96/96
f 98/98/98 99/99/99 96/96/96
f 102/102/102 101/101/101 100/100/100
f 103/103/103 102/102/102 100/100/100
f 106/106/106 105/105/105 104/104/104
f 107/107/107 106/106/106 104/104/104
f 110/110/110 109/109/109 108/108/108
f 111/111/111 110/110/110 108/108/108
f 114/114/114 113/113/113 112/112/112
f 115/115/115 114/114/114 112/112/112
f 118/118/118 117/117/117 116/116/116
f 119/119/119 118/118/118 116/116/116
f 122/122/122 121/121/121 120/120/120
f 123/123/123 122/122/122 120/120/120
f 126/126/126 125/125/125 124/124/124
f 127/127/127 126/126/126 124/124/124
f 130/130/130 129/129/129 128/128/128
f 131/131/131 130/130/130 128/128/128
f 134/134/134 133/133/133 132/132/132
f 135/135/135 134/134/134 132/132/132
