g orange
v 0.004381817 0.2834294 -0.04626984
v -0.003725547 0.2834294 -0.0006659441
v -0.02973666 0.2834294 -0.04086493
v 0.03579783 0.2834294 -0.02633925
v -0.0006852858 0.2834294 -0.002692781
v 0.00775988 0.2834294 -0.04593203
v 0.0445808 0.2834294 0.01014387
v 0.001341555 0.2834294 0.0003474765
v 0.03782467 0.2834294 -0.02296118
v -0.001360897 0.2834294 0.002712127
v 0.04356738 0.2834294 0.01385975
v 0.02465021 0.2834294 0.04291112
v -0.004063349 0.2834294 0.002036508
v -0.03277691 0.2776867 -0.04221616
v -0.03277691 0.2834294 -0.04221616
v -0.004063349 0.2776867 0.002036508
v 0.02465021 0.2776867 0.04628918
v 0.02465021 0.2834294 0.04628918
v 0.03174415 0.2834294 0.0574368
v 0.03174415 0.2776867 0.0574368
v 0.02465021 0.2776867 0.04628918
v 0.02465021 0.2834294 0.04628918
v -0.03277691 0.2776867 -0.04221616
v -0.04020866 0.2776867 -0.05336378
v -0.04020866 0.2834294 -0.05336378
v -0.03277691 0.2834294 -0.04221616
v 0.009448916 0.2834294 -0.06180894
v 0.007422075 0.2776867 -0.06214675
v 0.01113795 0.2776867 -0.06147113
v 0.05066133 0.2776867 -0.03343318
v 0.05066133 0.2834294 -0.03343318
v 0.0597821 0.2776867 0.01554878
v 0.0597821 0.2834294 0.01554878
v 0.03174415 0.2776867 0.0574368
v 0.03174415 0.2834294 0.0574368
v -0.04020866 0.2834294 -0.05336378
v -0.04020866 0.2776867 -0.05336378
v 0.007422075 0.2776867 -0.06214675
v 0.009448916 0.2834294 -0.06180894
v 0.03174415 0.2834294 0.0574368
v 0.02465021 0.2834294 0.04628918
v 0.04660764 0.2834294 0.01284632
v 0.0597821 0.2834294 0.01554878
v 0.03951371 0.2834294 -0.02633925
v 0.05066133 0.2834294 -0.03343318
v 0.006746463 0.2834294 -0.04897229
v 0.009448916 0.2834294 -0.06180894
v -0.03277691 0.2834294 -0.04221616
v -0.04020866 0.2834294 -0.05336378
v 0.03951371 0.2834294 -0.02633925
v 0.04660764 0.2834294 0.01284632
v 0.0445808 0.2834294 0.01014387
v 0.03782467 0.2834294 -0.02296118
v 0.03579783 0.2834294 -0.02633925
v 0.006746463 0.2834294 -0.04897229
v 0.00775988 0.2834294 -0.04593203
v 0.004381817 0.2834294 -0.04626984
v -0.03277691 0.2834294 -0.04221616
v 0.006746463 0.2834294 -0.04897229
v 0.004381817 0.2834294 -0.04626984
v -0.02973666 0.2834294 -0.04086493
v -0.004063349 0.2834294 0.002036508
v -0.003725547 0.2834294 -0.0006659441
v 0.0445808 0.2834294 0.01014387
v 0.04660764 0.2834294 0.01284632
v 0.04356738 0.2834294 0.01385975
v 0.001341555 0.2834294 0.0003474765
v -0.001360897 0.2834294 0.002712127
v -0.003725547 0.2834294 -0.0006659441
v -0.004063349 0.2834294 0.002036508
v 0.02465021 0.2834294 0.04628918
v 0.02465021 0.2834294 0.04291112
v -0.0006852858 0.2834294 -0.002692781
v 0.03782467 0.2834294 -0.02296118
v 0.03579783 0.2834294 -0.02633925
v 0.00775988 0.2834294 -0.04593203
v 0.004381817 0.2834294 -0.04626984
v 0.04356738 0.2834294 0.01385975
v 0.04660764 0.2834294 0.01284632
v 0.02465021 0.2834294 0.04628918
v 0.02465021 0.2834294 0.04291112
vt 0.2314493 0.807516
vt 0.2314493 0.807516
vt 0.2314493 0.807516
vt 0.2348988 0.807516
vt 0.2348988 0.807516
vt 0.2348988 0.807516
vt 0.2348988 0.807516
vt 0.2348988 0.807516
vt 0.2348988 0.807516
vt 0.2383483 0.807516
vt 0.2383483 0.807516
vt 0.2383483 0.807516
vt 0.2314493 0.807516
vt 0.2176513 0.77992
vt 0.2176513 0.807516
vt 0.2314493 0.77992
vt 0.2417978 0.77992
vt 0.2417978 0.807516
vt 0.1486613 0.807516
vt 0.1486613 0.7695714
vt 0.1452118 0.7695714
vt 0.1452118 0.807516
vt 0.1141663 0.7695714
vt 0.1107168 0.7695714
vt 0.1107168 0.807516
vt 0.1141663 0.807516
vt 0.1072673 0.807516
vt 0.1072673 0.7695714
vt 0.1072673 0.7695714
vt 0.1176158 0.7695714
vt 0.1176158 0.807516
vt 0.1348633 0.7695714
vt 0.1348633 0.807516
vt 0.1486613 0.7695714
vt 0.1486613 0.807516
vt 0.1107168 0.807516
vt 0.1107168 0.7695714
vt 0.1072673 0.7695714
vt 0.1072673 0.807516
vt 0.1486613 0.807516
vt 0.1452118 0.807516
vt 0.1314138 0.807516
vt 0.1348633 0.807516
vt 0.1176158 0.807516
vt 0.1176158 0.807516
vt 0.1107168 0.807516
vt 0.1072673 0.807516
vt 0.1141663 0.807516
vt 0.1107168 0.807516
vt 0.7350764 0.938597
vt 0.7385259 0.966193
vt 0.7385259 0.9627435
vt 0.7350764 0.9420465
vt 0.7350764 0.938597
vt 0.7316269 0.924799
vt 0.7350764 0.924799
vt 0.7350764 0.924799
vt 0.7350764 0.9282485
vt 0.7316269 0.924799
vt 0.7350764 0.924799
vt 0.7350764 0.9282485
vt 0.7350764 0.959294
vt 0.7350764 0.9558445
vt 0.7385259 0.9627435
vt 0.7385259 0.966193
vt 0.7385259 0.966193
vt 0.7350764 0.9558445
vt 0.7350764 0.959294
vt 0.7350764 0.9558445
vt 0.7350764 0.959294
vt 0.7385259 0.98689
vt 0.7385259 0.9834405
vt 0.7350764 0.9558445
vt 0.7350764 0.9420465
vt 0.7350764 0.938597
vt 0.7350764 0.924799
vt 0.7350764 0.924799
vt 0.7385259 0.966193
vt 0.7385259 0.966193
vt 0.7385259 0.98689
vt 0.7385259 0.9834405
vn 0.005509138 0.9999848 -0.0002441406
vn 0.005509138 0.9999848 -0.0002441406
vn 0.005509138 0.9999848 -0.0002441406
vn 0.005509138 0.9999848 -0.0002441406
vn 0.005509138 0.9999848 -0.0002441406
vn 0.005509138 0.9999848 -0.0002441406
vn 0.005509138 0.9999848 -0.0002441406
vn 0.005509138 0.9999848 -0.0002441406
vn 0.005509138 0.9999848 -0.0002441406
vn 0.005509138 0.9999848 -0.0002441406
vn 0.005509138 0.9999848 -0.0002441406
vn 0.005509138 0.9999848 -0.0002441406
vn -0.8428764 -0.005509138 0.5380791
vn -0.8428764 -0.005509138 0.5380791
vn -0.8428764 -0.005509138 0.5380791
vn -0.8428764 -0.005509138 0.5380791
vn -0.8428764 -0.005509138 0.5380791
vn -0.8428764 -0.005509138 0.5380791
vn -0.8428764 -0.005509138 0.5380791
vn -0.8428764 -0.005509138 0.5380791
vn -0.8428764 -0.005509138 0.5380791
vn -0.8428764 -0.005509138 0.5380791
vn -0.8428764 -0.005509138 0.5380791
vn -0.8428764 -0.005509138 0.5380791
vn -0.8428764 -0.005509138 0.5380791
vn -0.8428764 -0.005509138 0.5380791
vn 0.2254609 0.05733424 -0.9725637
vn -0.1515993 0.05733424 -0.9867778
vn 0.5710995 0.05733424 -0.8188761
vn 0.8538947 0.02591258 -0.5198004
vn 0.8538947 0.02591258 -0.5198004
vn 0.9795814 -0.005509138 0.2009723
vn 0.9795814 -0.005509138 0.2009723
vn 0.822473 -0.005509138 0.5687775
vn 0.822473 -0.005509138 0.5687775
vn -0.183021 0.05733424 -0.9814358
vn -0.183021 0.05733424 -0.9814358
vn -0.1515993 0.05733424 -0.9867778
vn 0.2254609 0.05733424 -0.9725637
vn 0.005509138 0.9999848 -0.0002441406
vn 0.005509138 0.9999848 -0.0002441406
vn 0.005509138 0.9999848 -0.0002441406
vn 0.005509138 0.9999848 -0.0002441406
vn 0.005509138 0.9999848 -0.0002441406
vn 0.005509138 0.9999848 -0.0002441406
vn 0.005509138 0.9999848 -0.0002441406
vn 0.005509138 0.9999848 -0.0002441406
vn 0.005509138 0.9999848 -0.0002441406
vn 0.005509138 0.9999848 -0.0002441406
vn 0.005509138 0.9999848 -0.0002441406
vn 0.005509138 0.9999848 -0.0002441406
vn 0.005509138 0.9999848 -0.0002441406
vn 0.005509138 0.9999848 -0.0002441406
vn 0.005509138 0.9999848 -0.0002441406
vn 0.005509138 0.9999848 -0.0002441406
vn 0.005509138 0.9999848 -0.0002441406
vn 0.005509138 0.9999848 -0.0002441406
vn 0.005509138 0.9999848 -0.0002441406
vn 0.005509138 0.9999848 -0.0002441406
vn 0.005509138 0.9999848 -0.0002441406
vn 0.005509138 0.9999848 -0.0002441406
vn 0.005509138 0.9999848 -0.0002441406
vn 0.005509138 0.9999848 -0.0002441406
vn 0.005509138 0.9999848 -0.0002441406
vn 0.005509138 0.9999848 -0.0002441406
vn 0.005509138 0.9999848 -0.0002441406
vn 0.005509138 0.9999848 -0.0002441406
vn 0.005509138 0.9999848 -0.0002441406
vn 0.005509138 0.9999848 -0.0002441406
vn 0.005509138 0.9999848 -0.0002441406
vn 0.005509138 0.9999848 -0.0002441406
vn 0.005509138 0.9999848 -0.0002441406
vn 0.005509138 0.9999848 -0.0002441406
vn 0.005509138 0.9999848 -0.0002441406
vn 0.005509138 0.9999848 -0.0002441406
vn 0.005509138 0.9999848 -0.0002441406
vn 0.005509138 0.9999848 -0.0002441406
vn 0.005509138 0.9999848 -0.0002441406
vn 0.005509138 0.9999848 -0.0002441406
vn 0.005509138 0.9999848 -0.0002441406
vn 0.005509138 0.9999848 -0.0002441406
g orange_0
f 3/3/3 2/2/2 1/1/1
f 6/6/6 5/5/5 4/4/4
f 9/9/9 8/8/8 7/7/7
f 12/12/12 11/11/11 10/10/10
f 15/15/15 14/14/14 13/13/13
f 14/14/14 16/16/16 13/13/13
f 13/13/13 16/16/16 17/17/17
f 18/18/18 13/13/13 17/17/17
f 21/21/21 20/20/20 19/19/19
f 22/22/22 21/21/21 19/19/19
f 25/25/25 24/24/24 23/23/23
f 26/26/26 25/25/25 23/23/23
f 29/29/29 28/28/28 27/27/27
f 30/30/30 29/29/29 27/27/27
f 31/31/31 30/30/30 27/27/27
f 32/32/32 30/30/30 31/31/31
f 33/33/33 32/32/32 31/31/31
f 34/34/34 32/32/32 33/33/33
f 35/35/35 34/34/34 33/33/33
f 38/38/38 37/37/37 36/36/36
f 39/39/39 38/38/38 36/36/36
f 42/42/42 41/41/41 40/40/40
f 43/43/43 42/42/42 40/40/40
f 44/44/44 42/42/42 43/43/43
f 45/45/45 44/44/44 43/43/43
f 46/46/46 44/44/44 45/45/45
f 47/47/47 46/46/46 45/45/45
f 48/48/48 46/46/46 47/47/47
f 49/49/49 48/48/48 47/47/47
f 52/52/52 51/51/51 50/50/50
f 53/53/53 52/52/52 50/50/50
f 53/53/53 50/50/50 54/54/54
f 54/54/54 50/50/50 55/55/55
f 56/56/56 54/54/54 55/55/55
f 56/56/56 55/55/55 57/57/57
f 60/60/60 59/59/59 58/58/58
f 61/61/61 60/60/60 58/58/58
f 61/61/61 58/58/58 62/62/62
f 63/63/63 61/61/61 62/62/62
f 66/66/66 65/65/65 64/64/64
f 66/66/66 64/64/64 67/67/67
f 68/68/68 66/66/66 67/67/67
f 68/68/68 67/67/67 69/69/69
f 68/68/68 69/69/69 70/70/70
f 68/68/68 70/70/70 71/71/71
f 72/72/72 68/68/68 71/71/71
f 67/67/67 73/73/73 69/69/69
f 67/67/67 74/74/74 73/73/73
f 74/74/74 75/75/75 73/73/73
f 73/73/73 76/76/76 69/69/69
f 76/76/76 77/77/77 69/69/69
f 80/80/80 79/79/79 78/78/78
f 81/81/81 80/80/80 78/78/78
