g pCube1
v -0.001258807 -0.01308363 0.002084378
v -0.001258807 -0.009823614 0.002084378
v -0.0006010242 -0.003310771 0.005599821
v -0.0006010242 -0.006570784 0.005599821
v -0.0002003414 -0.001289544 0.006260668
v -0.0002003414 -0.004549556 0.006260668
v 0.0002003413 5.794048E-05 0.006260668
v 0.0002003413 -0.003202072 0.006260668
v 0.0008448932 0.001630006 0.005043316
v 0.0008448932 -0.001630006 0.005043316
v 0.001395839 0.001630006 0.001886705
v 0.001395839 -0.001630006 0.001886705
v 0.0002003413 5.794048E-05 0.006260668
v 0.0008448932 -0.0006158018 8.095377E-20
v 0.0008448932 0.001630006 0.005043316
v 0.001606646 0.000926469 -1.84506E-19
v 0.001395839 0.001630006 0.001886705
v 0.0008448932 -0.0006158018 8.095377E-20
v 0.001395839 0.001630006 -0.001886705
v 0.0008448932 0.001630006 -0.005043316
v 0.0002003413 -0.002187867 -1.387779E-19
v -0.0002003414 -0.001289544 0.006260668
v 0.0002003413 5.794048E-05 -0.006260668
v -0.0002003414 -0.003535353 -2.775557E-19
v -0.0006010242 -0.003310771 0.005599821
v -0.0002003414 -0.001289544 -0.006260668
v -0.0006010242 -0.00555658 -3.723873E-19
v -0.001258807 -0.009823614 0.002084378
v -0.0006010242 -0.003310771 -0.005599821
v -0.001258807 -0.01206942 -4.161666E-19
v -0.001258807 -0.009823614 -0.002084378
v -0.001258807 -0.009823614 -0.002084378
v -0.001258807 -0.01308363 -0.002084378
v -0.0006010242 -0.006570784 -0.005599821
v -0.0006010242 -0.003310771 -0.005599821
v -0.0002003414 -0.004549556 -0.006260668
v -0.0002003414 -0.001289544 -0.006260668
v 0.0002003413 -0.003202072 -0.006260668
v 0.0002003413 5.794048E-05 -0.006260668
v 0.0008448932 -0.001630006 -0.005043316
v 0.0008448932 0.001630006 -0.005043316
v 0.001395839 -0.001630006 -0.001886705
v 0.001395839 0.001630006 -0.001886705
v 0.0002003413 -0.003202072 -0.006260668
v 0.0008448932 -0.003875814 8.095377E-20
v 0.0008448932 -0.001630006 -0.005043316
v 0.001606646 -0.002333543 -1.84506E-19
v 0.001395839 -0.001630006 -0.001886705
v 0.0008448932 -0.003875814 8.095377E-20
v 0.001395839 -0.001630006 0.001886705
v 0.0008448932 -0.001630006 0.005043316
v 0.0002003413 -0.00544788 -1.387779E-19
v -0.0002003414 -0.004549556 -0.006260668
v 0.0002003413 -0.003202072 0.006260668
v -0.0002003414 -0.006795364 -2.775557E-19
v -0.0006010242 -0.006570784 -0.005599821
v -0.0002003414 -0.004549556 0.006260668
v -0.0006010242 -0.008816591 -3.723873E-19
v -0.001258807 -0.01308363 -0.002084378
v -0.0006010242 -0.006570784 0.005599821
v -0.001258807 -0.01532943 -4.161666E-19
v -0.001258807 -0.01308363 0.002084378
v 0.001606646 -0.002333543 -1.84506E-19
v 0.001395839 0.001630006 -0.001886705
v 0.001395839 -0.001630006 -0.001886705
v 0.001606646 0.000926469 -1.84506E-19
v 0.001395839 -0.001630006 0.001886705
v 0.001395839 0.001630006 0.001886705
v -0.001258807 -0.01308363 -0.002084378
v -0.001258807 -0.009823614 -0.002084378
v -0.001258807 -0.01206942 -4.161666E-19
v -0.001258807 -0.01532943 -4.161666E-19
v -0.001258807 -0.01532943 -4.161666E-19
v -0.001258807 -0.01206942 -4.161666E-19
v -0.001258807 -0.009823614 0.002084378
v -0.001258807 -0.01308363 0.002084378
vt 0.375 0
vt 0.375 0.25
vt 0.425 0.25
vt 0.425 0
vt 0.475 0.25
vt 0.475 0
vt 0.525 0.25
vt 0.525 0
vt 0.575 0.25
vt 0.575 0
vt 0.6250001 0.25
vt 0.6250001 0
vt 0.525 0.25
vt 0.575 0.375
vt 0.575 0.25
vt 0.6250001 0.375
vt 0.6250001 0.25
vt 0.575 0.375
vt 0.6250001 0.5
vt 0.575 0.5
vt 0.525 0.375
vt 0.475 0.25
vt 0.525 0.5
vt 0.475 0.375
vt 0.425 0.25
vt 0.475 0.5
vt 0.425 0.375
vt 0.375 0.25
vt 0.425 0.5
vt 0.375 0.375
vt 0.375 0.5
vt 0.375 0.5
vt 0.375 0.75
vt 0.425 0.75
vt 0.425 0.5
vt 0.475 0.75
vt 0.475 0.5
vt 0.525 0.75
vt 0.525 0.5
vt 0.575 0.75
vt 0.575 0.5
vt 0.6250001 0.75
vt 0.6250001 0.5
vt 0.525 0.75
vt 0.575 0.875
vt 0.575 0.75
vt 0.6250001 0.875
vt 0.6250001 0.75
vt 0.575 0.875
vt 0.6250001 1
vt 0.575 1
vt 0.525 0.875
vt 0.475 0.75
vt 0.525 1
vt 0.475 0.875
vt 0.425 0.75
vt 0.475 1
vt 0.425 0.875
vt 0.375 0.75
vt 0.425 1
vt 0.375 0.875
vt 0.375 1
vt 0.75 0
vt 0.875 0.25
vt 0.875 0
vt 0.75 0.25
vt 0.6250001 0
vt 0.6250001 0.25
vt 0.125 0
vt 0.125 0.25
vt 0.25 0.25
vt 0.25 0
vt 0.25 0
vt 0.25 0.25
vt 0.375 0.25
vt 0.375 0
vn -0.9829411 0 0.1839206
vn -0.9829411 0 0.1839206
vn -0.9282352 0 0.3719938
vn -0.9810048 0 0.1939837
vn -0.1839953 0 0.9829271
vn -0.8309868 0 0.5562922
vn 0.8692454 0 0.494381
vn 0.4786412 0 0.8780106
vn 0.9750167 0 0.2221315
vn 0.9559935 0 0.2933879
vn 0.9851078 0 0.1719379
vn 0.9851078 0 0.1719379
vn -0.9430562 0.3107519 -0.1186524
vn -0.9376873 0.3474802 0
vn -0.931067 0.3375682 -0.1384272
vn -0.921447 0.388504 0
vn -0.9046877 0.3814379 -0.189856
vn -0.9376873 0.3474802 0
vn -0.9046877 0.3814379 0.189856
vn -0.931067 0.3375682 0.1384272
vn -0.9515505 0.3074923 0
vn -0.9628296 0.2537344 -0.09261772
vn -0.9430562 0.3107519 0.1186524
vn -0.9724897 0.2329454 0
vn -0.9818013 0.1744804 -0.07498548
vn -0.9628296 0.2537345 0.09261773
vn -0.9900039 0.14104 0
vn -0.990491 0.1187748 -0.069427
vn -0.9818013 0.1744803 0.07498548
vn -0.9928868 0.1190621 0
vn -0.990491 0.1187748 0.069427
vn -0.9829411 0 -0.1839206
vn -0.9829411 0 -0.1839206
vn -0.9810048 0 -0.1939837
vn -0.9282353 0 -0.3719937
vn -0.830987 0 -0.5562919
vn -0.1839943 0 -0.9829273
vn 0.4786417 0 -0.8780103
vn 0.8692454 0 -0.494381
vn 0.9559935 0 -0.2933879
vn 0.9750167 0 -0.2221314
vn 0.9851078 0 -0.1719379
vn 0.9851078 0 -0.1719379
vn 0.9430562 -0.3107519 -0.1186524
vn 0.9376873 -0.3474802 0
vn 0.931067 -0.3375682 -0.1384272
vn 0.921447 -0.388504 0
vn 0.9046877 -0.3814379 -0.189856
vn 0.9376873 -0.3474802 0
vn 0.9046877 -0.3814379 0.189856
vn 0.931067 -0.3375682 0.1384272
vn 0.9515505 -0.3074923 0
vn 0.9628295 -0.2537344 -0.09261771
vn 0.9430562 -0.3107519 0.1186524
vn 0.9724897 -0.2329455 0
vn 0.9818013 -0.1744804 -0.07498546
vn 0.9628295 -0.2537344 0.09261771
vn 0.9900039 -0.14104 0
vn 0.990491 -0.1187748 -0.06942698
vn 0.9818013 -0.1744804 0.07498546
vn 0.9928868 -0.1190621 0
vn 0.990491 -0.1187748 0.06942698
vn 1 0 0
vn 0.9938158 0 -0.1110418
vn 0.9938158 0 -0.1110418
vn 1 0 0
vn 0.9938158 0 0.1110418
vn 0.9938158 0 0.1110418
vn -1 0 0
vn -1 0 0
vn -1 0 0
vn -1 0 0
vn -1 0 0
vn -1 0 0
vn -1 0 0
vn -1 0 0
g pCube1_0
f 3/3/3 2/2/2 1/1/1
f 4/4/4 3/3/3 1/1/1
f 5/5/5 3/3/3 4/4/4
f 6/6/6 5/5/5 4/4/4
f 7/7/7 5/5/5 6/6/6
f 8/8/8 7/7/7 6/6/6
f 9/9/9 7/7/7 8/8/8
f 10/10/10 9/9/9 8/8/8
f 11/11/11 9/9/9 10/10/10
f 12/12/12 11/11/11 10/10/10
f 15/15/15 14/14/14 13/13/13
f 17/17/17 16/16/16 15/15/15
f 16/16/16 18/18/18 15/15/15
f 16/16/16 19/19/19 18/18/18
f 19/19/19 20/20/20 18/18/18
f 18/18/18 21/21/21 13/13/13
f 18/18/18 20/20/20 21/21/21
f 13/13/13 21/21/21 22/22/22
f 20/20/20 23/23/23 21/21/21
f 21/21/21 24/24/24 22/22/22
f 21/21/21 23/23/23 24/24/24
f 22/22/22 24/24/24 25/25/25
f 23/23/23 26/26/26 24/24/24
f 24/24/24 27/27/27 25/25/25
f 24/24/24 26/26/26 27/27/27
f 25/25/25 27/27/27 28/28/28
f 26/26/26 29/29/29 27/27/27
f 27/27/27 30/30/30 28/28/28
f 27/27/27 29/29/29 30/30/30
f 29/29/29 31/31/31 30/30/30
f 34/34/34 33/33/33 32/32/32
f 35/35/35 34/34/34 32/32/32
f 36/36/36 34/34/34 35/35/35
f 37/37/37 36/36/36 35/35/35
f 38/38/38 36/36/36 37/37/37
f 39/39/39 38/38/38 37/37/37
f 40/40/40 38/38/38 39/39/39
f 41/41/41 40/40/40 39/39/39
f 42/42/42 40/40/40 41/41/41
f 43/43/43 42/42/42 41/41/41
f 46/46/46 45/45/45 44/44/44
f 48/48/48 47/47/47 46/46/46
f 47/47/47 49/49/49 46/46/46
f 47/47/47 50/50/50 49/49/49
f 50/50/50 51/51/51 49/49/49
f 49/49/49 52/52/52 44/44/44
f 49/49/49 51/51/51 52/52/52
f 44/44/44 52/52/52 53/53/53
f 51/51/51 54/54/54 52/52/52
f 52/52/52 55/55/55 53/53/53
f 52/52/52 54/54/54 55/55/55
f 53/53/53 55/55/55 56/56/56
f 54/54/54 57/57/57 55/55/55
f 55/55/55 58/58/58 56/56/56
f 55/55/55 57/57/57 58/58/58
f 56/56/56 58/58/58 59/59/59
f 57/57/57 60/60/60 58/58/58
f 58/58/58 61/61/61 59/59/59
f 58/58/58 60/60/60 61/61/61
f 60/60/60 62/62/62 61/61/61
f 65/65/65 64/64/64 63/63/63
f 64/64/64 66/66/66 63/63/63
f 63/63/63 66/66/66 67/67/67
f 66/66/66 68/68/68 67/67/67
f 71/71/71 70/70/70 69/69/69
f 72/72/72 71/71/71 69/69/69
f 75/75/75 74/74/74 73/73/73
f 76/76/76 75/75/75 73/73/73
