g PearCut
v 0.0224202 -0.0037215 -0.0022975
v 0.0213449 -0.0023 0.006014999
v 0.0268521 0 0
v 0.0213449 -0.0023 0.006014999
v 0.0105291 0 0.01203
v 0.0213449 0.0023 0.006014999
v 0.0099359 0.0039129 0.0102332
v 0.0213449 0.0023 0.006014999
v 0.0105291 0 0.01203
v 0.0213449 -0.0023 0.006014999
v 0.0213449 0.0023 0.006014999
v 0.0268521 0 0
v 0.0224202 -0.0037215 -0.0022975
v 0.0207629 0 -0.007434899
v 0.0124167 -0.0037215 -0.0097325
v 0.0063246 0 -0.0126491
v 0.0124167 -0.0037215 -0.0097325
v 0.0207629 0 -0.007434899
v 0.0268521 0 0
v 0.0207629 0 -0.007434899
v 0.0224202 -0.0037215 -0.0022975
v 0.0124167 0.0037215 -0.0097325
v 0.0063246 0 -0.0126491
v 0.0207629 0 -0.007434899
v 0.0207629 0 -0.007434899
v 0.0224202 0.0037215 -0.0022975
v 0.0124167 0.0037215 -0.0097325
v 0.0224202 0.0037215 -0.0022975
v 0.0207629 0 -0.007434899
v 0.0268521 0 0
v 0.0213449 0.0023 0.006014999
v 0.0224202 0.0037215 -0.0022975
v 0.0268521 0 0
v 0.0105291 0 0.01203
v 0 -0.0023 0.01345
v 0 0.0023 0.01345
v -0.0063246 0 0.0126491
v 0 0.0023 0.01345
v 0 -0.0023 0.01345
v 0 0.0023 0.01345
v 0.0099359 0.0039129 0.0102332
v 0.0105291 0 0.01203
v 0 -0.0023 -0.01345
v 0.0124167 -0.0037215 -0.0097325
v 0.0063246 0 -0.0126491
v 0 0.0023 -0.01345
v 0.0063246 0 -0.0126491
v 0.0124167 0.0037215 -0.0097325
v -0.007435 -0.0037215 0.0097325
v -0.0063246 0 0.0126491
v 0 -0.0023 0.01345
v 0 -0.0023 -0.01345
v 0 0.0023 -0.01345
v -0.007435 0 -0.01203
v -0.0063246 0.0039129 -0.0102332
v -0.007435 0 -0.01203
v 0 0.0023 -0.01345
v 0 0.0023 -0.01345
v 0 -0.0023 -0.01345
v 0.0063246 0 -0.0126491
v -0.0063246 0 0.0126491
v -0.007435 0.0037215 0.0097325
v 0 0.0023 0.01345
v -0.007435 -0.0037215 0.0097325
v -0.0120301 -0.0037215 0.0022975
v -0.01203 0 0.007434899
v -0.0141421 0 0
v -0.01203 0 0.007434899
v -0.0120301 -0.0037215 0.0022975
v -0.01203 0 0.007434899
v -0.0063246 0 0.0126491
v -0.007435 -0.0037215 0.0097325
v -0.0141421 0 0
v -0.0120301 -0.0037215 0.0022975
v -0.0120301 -0.0023 -0.006014999
v -0.0120301 0.0023 -0.006014999
v -0.007435 0 -0.01203
v -0.0063246 0.0039129 -0.0102332
v -0.007435 0 -0.01203
v -0.0120301 0.0023 -0.006014999
v -0.0120301 -0.0023 -0.006014999
v -0.0141421 0 0
v -0.0120301 -0.0023 -0.006014999
v -0.0120301 0.0023 -0.006014999
v -0.0141421 0 0
v -0.0120301 0.0023 -0.006014999
v -0.0120301 0.0037215 0.0022975
v -0.01203 0 0.007434899
v -0.007435 0.0037215 0.0097325
v -0.0063246 0 0.0126491
v -0.007435 0.0037215 0.0097325
v -0.01203 0 0.007434899
v -0.0120301 0.0037215 0.0022975
v -0.0141421 0 0
v -0.0120301 0.0037215 0.0022975
v -0.01203 0 0.007434899
v 0.0123481 -0.0037353 -0.009724
v 0.0124294 -0.0037353 -0.0097017
v 0.0124167 -0.0037215 -0.0097325
v -0.007435 0.0037215 0.0097325
v -0.0067607 0.0053063 0.0061959
v -0.0023118 0.0053063 0.008754
v 0 -0.0023 -0.01345
v -0.005627899 -0.0037353 -0.0105876
v 0 -0.0037353 -0.0114686
v -0.0091576 -0.0037353 0.006905
v -0.0091744 -0.0037353 0.0068779
v -0.0120301 -0.0037215 0.0022975
v 0.0224202 -0.0037215 -0.0022975
v 0.0150542 -0.0037353 -0.008128799
v 0.0223753 -0.0037353 -0.002306
v -0.0120301 0.0037215 0.0022975
v -0.0088637 0.0053063 -0.0018473
v -0.0085653 0.0053063 0.0032759
v -0.0120301 -0.0023 -0.006014999
v -0.0102579 -0.0037353 -0.0051289
v -0.0069531 -0.0037353 -0.0097686
v 0.0213449 -0.0023 0.006014999
v 0.0191719 -0.0037353 0.0051289
v 0.0115916 -0.0037353 0.0097686
v 0.0213449 -0.0023 0.006014999
v 0.0223736 -0.0037353 -0.0019891
v 0.0191719 -0.0037353 0.0051289
v -0.0120301 -0.0037215 0.0022975
v -0.0091744 -0.0037353 0.0068779
v -0.0119999 -0.0037353 0.002306
v -0.007435 -0.0037215 0.0097325
v -0.0091576 -0.0037353 0.006905
v -0.0086427 -0.0037353 0.0077381
v -0.0074292 -0.0037353 0.0097017
v 0.0130977 0.0053063 -0.0061959
v 0.0023118 0.0053063 -0.008754
v 0.0124167 0.0037215 -0.0097325
v 0.0224202 0.0037215 -0.0022975
v 0.0166432 0.0053063 0.0035814
v 0.0176092 0.0053063 0.0018473
v 0.0176092 0.0053063 0.0018473
v 0.0168861 0.0053063 -0.0032759
v 0.0224202 0.0037215 -0.0022975
v 0.008092499 -0.0037353 0.0105876
v 0 -0.0037353 0.0114686
v 0 -0.0023 0.01345
v 0.0124167 -0.0037215 -0.0097325
v 0.0150542 -0.0037353 -0.008128799
v 0.0224202 -0.0037215 -0.0022975
v 0.0150542 -0.0037353 -0.008128799
v 0.0124167 -0.0037215 -0.0097325
v 0.0124294 -0.0037353 -0.0097017
v 0.0224202 -0.0037215 -0.0022975
v 0.0223736 -0.0037353 -0.0019891
v 0.0213449 -0.0023 0.006014999
v 0.0223736 -0.0037353 -0.0019891
v 0.0224202 -0.0037215 -0.0022975
v 0.0223896 -0.0037353 -0.0022614
v 0.0213449 0.0023 0.006014999
v 0.0166432 0.0053063 0.0035814
v 0.0224202 0.0037215 -0.0022975
v 0.0166432 0.0053063 0.0035814
v 0.0213449 0.0023 0.006014999
v 0.0162705 0.0053063 0.004159
v 0.0099359 0.0039129 0.0102332
v 0.0162705 0.0053063 0.004159
v 0.0213449 0.0023 0.006014999
v 0.0162705 0.0053063 0.004159
v 0.0099359 0.0039129 0.0102332
v 0.0136924 0.0053063 0.0059274
v 0.0105291 0 0.01203
v 0.0115916 -0.0037353 0.0097686
v 0.0100128 -0.0037353 0.0103148
v 0.0115916 -0.0037353 0.0097686
v 0.0105291 0 0.01203
v 0.0213449 -0.0023 0.006014999
v 0.0105291 0 0.01203
v 0.008092499 -0.0037353 0.0105876
v 0 -0.0023 0.01345
v 0.008092499 -0.0037353 0.0105876
v 0.0105291 0 0.01203
v 0.0100128 -0.0037353 0.0103148
v 0 0.0023 -0.01345
v 0.0023118 0.0053063 -0.008754
v 0 0.0053063 -0.0092998
v 0.0023118 0.0053063 -0.008754
v 0 0.0023 -0.01345
v 0.0124167 0.0037215 -0.0097325
v 0.0099359 0.0039129 0.0102332
v 0.0021451 0.0053063 0.008963999
v 0.0132905 0.0053063 0.0060614
v 0.0136924 0.0053063 0.0059274
v -0.0063246 0.0039129 -0.0102332
v -0.0064443 0.0053063 -0.0063069
v -0.0070584 0.0053063 -0.0059274
v -0.0021451 0.0053063 -0.008963999
v 0 -0.0037353 -0.0114686
v 0.012316 -0.0037353 -0.0097282
v 0 -0.0023 -0.01345
v 0.0124167 -0.0037215 -0.0097325
v 0.0223753 -0.0037353 -0.002306
v 0.0223896 -0.0037353 -0.0022614
v 0.0224202 -0.0037215 -0.0022975
v 0.0150542 -0.0037353 -0.008128799
v 0.0223736 -0.0037353 -0.0019891
v -0.0086427 -0.0037353 0.0077381
v -0.0019808 -0.0037353 0.011001
v 0.0191719 -0.0037353 0.0051289
v 0.0115916 -0.0037353 0.0097686
v 0.008092499 -0.0037353 0.0105876
v 0.0100128 -0.0037353 0.0103148
v 0 -0.0037353 0.0114686
v -0.0073905 -0.0037353 0.009724
v -0.0074292 -0.0037353 0.0097017
v -0.007435 -0.0037215 0.0097325
v -0.0091576 -0.0037353 0.006905
v 0.0124294 -0.0037353 -0.0097017
v 0.012316 -0.0037353 -0.0097282
v -0.0091744 -0.0037353 0.0068779
v -0.005627899 -0.0037353 -0.0105876
v 0 -0.0037353 -0.0114686
v -0.0120025 -0.0037353 0.0022614
v -0.0119999 -0.0037353 0.002306
v -0.0120301 -0.0037215 0.0022975
v -0.0102579 -0.0037353 -0.0051289
v -0.0069531 -0.0037353 -0.0097686
v -0.006375 -0.0037353 -0.0103148
v 0.0162705 0.0053063 0.004159
v 0.0136924 0.0053063 0.0059274
v 0.0132905 0.0053063 0.0060614
v 0.0166432 0.0053063 0.0035814
v -0.0064443 0.0053063 -0.0063069
v 0.0021451 0.0053063 0.008963999
v -0.0070584 0.0053063 -0.0059274
v -0.008318 0.0053063 -0.004159
v -0.0088637 0.0053063 -0.0018473
v -0.0067607 0.0053063 0.0061959
v -0.0085653 0.0053063 0.0032759
v -0.0023118 0.0053063 0.008754
v 0 0.0053063 0.0092998
v -0.0017689 0.0053063 -0.0090229
v -0.0021451 0.0053063 -0.008963999
v 0.0130977 0.0053063 -0.0061959
v 0.0168861 0.0053063 -0.0032759
v 0.0176092 0.0053063 0.0018473
v 0.0023118 0.0053063 -0.008754
v 0 0.0053063 -0.0092998
v 0 0.0053063 -0.0092998
v -0.0017689 0.0053063 -0.0090229
v 0 0.0023 -0.01345
v -0.0021451 0.0053063 -0.008963999
v -0.0063246 0.0039129 -0.0102332
v 0 -0.0037353 0.0114686
v -0.0019808 -0.0037353 0.011001
v 0 -0.0023 0.01345
v -0.007435 -0.0037215 0.0097325
v -0.0073905 -0.0037353 0.009724
v 0 0.0023 0.01345
v 0.0021451 0.0053063 0.008963999
v 0.0099359 0.0039129 0.0102332
v 0 0.0053063 0.0092998
v 0.012316 -0.0037353 -0.0097282
v 0.0124294 -0.0037353 -0.0097017
v 0.0123481 -0.0037353 -0.009724
v 0.0124167 -0.0037215 -0.0097325
v -0.0120301 0.0037215 0.0022975
v -0.0067607 0.0053063 0.0061959
v -0.007435 0.0037215 0.0097325
v -0.0085653 0.0053063 0.0032759
v -0.0023118 0.0053063 0.008754
v 0 0.0023 0.01345
v -0.007435 0.0037215 0.0097325
v 0 0.0053063 0.0092998
v -0.0120301 0.0023 -0.006014999
v -0.0070584 0.0053063 -0.0059274
v -0.008318 0.0053063 -0.004159
v -0.0063246 0.0039129 -0.0102332
v -0.007435 0 -0.01203
v -0.005627899 -0.0037353 -0.0105876
v 0 -0.0023 -0.01345
v -0.006375 -0.0037353 -0.0103148
v -0.0120301 0.0023 -0.006014999
v -0.0088637 0.0053063 -0.0018473
v -0.0120301 0.0037215 0.0022975
v -0.008318 0.0053063 -0.004159
v -0.0120301 -0.0037215 0.0022975
v -0.0102579 -0.0037353 -0.0051289
v -0.0120301 -0.0023 -0.006014999
v -0.0120025 -0.0037353 0.0022614
v -0.007435 0 -0.01203
v -0.0069531 -0.0037353 -0.0097686
v -0.006375 -0.0037353 -0.0103148
v -0.0120301 -0.0023 -0.006014999
v 0.0224202 0.0037215 -0.0022975
v 0.0130977 0.0053063 -0.0061959
v 0.0124167 0.0037215 -0.0097325
v 0.0168861 0.0053063 -0.0032759
vt 0 0
vt 0 0
vt 0 0
vt 0 0
vt 0 0
vt 0 0
vt 0 0
vt 0 0
vt 0 0
vt 0 0
vt 0 0
vt 0 0
vt 0 0
vt 0 0
vt 0 0
vt 0 0
vt 0 0
vt 0 0
vt 0 0
vt 0 0
vt 0 0
vt 0 0
vt 0 0
vt 0 0
vt 0 0
vt 0 0
vt 0 0
vt 0 0
vt 0 0
vt 0 0
vt 0 0
vt 0 0
vt 0 0
vt 0 0
vt 0 0
vt 0 0
vt 0 0
vt 0 0
vt 0 0
vt 0 0
vt 0 0
vt 0 0
vt 0 0
vt 0 0
vt 0 0
vt 0 0
vt 0 0
vt 0 0
vt 0 0
vt 0 0
vt 0 0
vt 0 0
vt 0 0
vt 0 0
vt 0 0
vt 0 0
vt 0 0
vt 0 0
vt 0 0
vt 0 0
vt 0 0
vt 0 0
vt 0 0
vt 0 0
vt 0 0
vt 0 0
vt 0 0
vt 0 0
vt 0 0
vt 0 0
vt 0 0
vt 0 0
vt 0 0
vt 0 0
vt 0 0
vt 0 0
vt 0 0
vt 0 0
vt 0 0
vt 0 0
vt 0 0
vt 0 0
vt 0 0
vt 0 0
vt 0 0
vt 0 0
vt 0 0
vt 0 0
vt 0 0
vt 0 0
vt 0 0
vt 0 0
vt 0 0
vt 0 0
vt 0 0
vt 0 0
vt 0 0
vt 0 0
vt 0 0
vt 0 0
vt 0 0
vt 0 0
vt 0 0
vt 0 0
vt 0 0
vt 0 0
vt 0 0
vt 0 0
vt 0 0
vt 0 0
vt 0 0
vt 0 0
vt 0 0
vt 0 0
vt 0 0
vt 0 0
vt 0 0
vt 0 0
vt 0 0
vt 0 0
vt 0 0
vt 0 0
vt 0 0
vt 0 0
vt 0 0
vt 0 0
vt 0 0
vt 0 0
vt 0 0
vt 0 0
vt 0 0
vt 0 0
vt 0 0
vt 0 0
vt 0 0
vt 0 0
vt 0 0
vt 0 0
vt 0 0
vt 0 0
vt 0 0
vt 0 0
vt 0 0
vt 0 0
vt 0 0
vt 0 0
vt 0 0
vt 0 0
vt 0 0
vt 0 0
vt 0 0
vt 0 0
vt 0 0
vt 0 0
vt 0 0
vt 0 0
vt 0 0
vt 0 0
vt 0 0
vt 0 0
vt 0 0
vt 0 0
vt 0 0
vt 0 0
vt 0 0
vt 0 0
vt 0 0
vt 0 0
vt 0 0
vt 0 0
vt 0 0
vt 0 0
vt 0 0
vt 0 0
vt 0 0
vt 0 0
vt 0 0
vt 0 0
vt 0 0
vt 0 0
vt 0 0
vt 0 0
vt 0 0
vt 0 0
vt 0 0
vt 0 0
vt 0 0
vt 0 0
vt 0 0
vt 0 0
vt 0 0
vt 0 0
vt 0 0
vt 0 0
vt 0 0
vt 0 0
vt 0 0
vt 0 0
vt 0 0
vt 0 0
vt 0 0
vt 0 0
vt 0 0
vt 0 0
vt 0 0
vt 0 0
vt 0 0
vt 0 0
vt 0 0
vt 0 0
vt 0 0
vt 0 0
vt 0 0
vt 0 0
vt 0 0
vt 0 0
vt 0 0
vt 0 0
vt 0 0
vt 0 0
vt 0 0
vt 0 0
vt 0 0
vt 0 0
vt 0 0
vt 0 0
vt 0 0
vt 0 0
vt 0 0
vt 0 0
vt 0 0
vt 0 0
vt 0 0
vt 0 0
vt 0 0
vt 0 0
vt 0 0
vt 0 0
vt 0 0
vt 0 0
vt 0 0
vt 0 0
vt 0 0
vt 0 0
vt 0 0
vt 0 0
vt 0 0
vt 0 0
vt 0 0
vt 0 0
vt 0 0
vt 0 0
vt 0 0
vt 0 0
vt 0 0
vt 0 0
vt 0 0
vt 0 0
vt 0 0
vt 0 0
vt 0 0
vt 0 0
vt 0 0
vt 0 0
vt 0 0
vt 0 0
vt 0 0
vt 0 0
vt 0 0
vt 0 0
vt 0 0
vt 0 0
vt 0 0
vt 0 0
vt 0 0
vt 0 0
vt 0 0
vt 0 0
vt 0 0
vt 0 0
vt 0 0
vt 0 0
vt 0 0
vt 0 0
vt 0 0
vt 0 0
vt 0 0
vt 0 0
vt 0 0
vt 0 0
vt 0 0
vt 0 0
vt 0 0
vn 0.5627992 -0.7995937 0.2095399
vn 0.5627992 -0.7995937 0.2095399
vn 0.5627992 -0.7995937 0.2095399
vn 0.4860271 0 0.8739437
vn 0.4860271 0 0.8739437
vn 0.4860271 0 0.8739437
vn 0.3657771 0.4336123 0.8235213
vn 0.3657771 0.4336123 0.8235213
vn 0.3657771 0.4336123 0.8235213
vn 0.7375541 0 0.675288
vn 0.7375541 0 0.675288
vn 0.7375541 0 0.675288
vn 0.456241 -0.6442258 -0.6138543
vn 0.456241 -0.6442258 -0.6138543
vn 0.456241 -0.6442258 -0.6138543
vn 0.3342298 -0.1781899 -0.9254939
vn 0.3342298 -0.1781899 -0.9254939
vn 0.3342298 -0.1781899 -0.9254939
vn 0.6835279 -0.4684031 -0.559811
vn 0.6835279 -0.4684031 -0.559811
vn 0.6835279 -0.4684031 -0.559811
vn 0.3342298 0.1781899 -0.9254939
vn 0.3342298 0.1781899 -0.9254939
vn 0.3342298 0.1781899 -0.9254939
vn 0.456241 0.6442258 -0.6138543
vn 0.456241 0.6442258 -0.6138543
vn 0.456241 0.6442258 -0.6138543
vn 0.6835279 0.468403 -0.559811
vn 0.6835279 0.468403 -0.559811
vn 0.6835279 0.468403 -0.559811
vn 0.5627992 0.7995938 0.2095398
vn 0.5627992 0.7995938 0.2095398
vn 0.5627992 0.7995938 0.2095398
vn 0.1336544 0 0.991028
vn 0.1336544 0 0.991028
vn 0.1336544 0 0.991028
vn -0.1256293 0 0.9920772
vn -0.1256293 0 0.9920772
vn -0.1256293 0 0.9920772
vn 0.2128955 0.434209 0.8752931
vn 0.2128955 0.434209 0.8752931
vn 0.2128955 0.434209 0.8752931
vn 0.2358302 -0.3302338 -0.9139637
vn 0.2358302 -0.3302338 -0.9139637
vn 0.2358302 -0.3302338 -0.9139637
vn 0.2358302 0.3302338 -0.9139637
vn 0.2358302 0.3302338 -0.9139637
vn 0.2358302 0.3302338 -0.9139637
vn -0.2944297 -0.5335377 0.7928737
vn -0.2944297 -0.5335377 0.7928737
vn -0.2944297 -0.5335377 0.7928737
vn -0.1875978 0 -0.9822459
vn -0.1875978 0 -0.9822459
vn -0.1875978 0 -0.9822459
vn -0.3031873 0.4673771 -0.8304433
vn -0.3031873 0.4673771 -0.8304433
vn -0.3031873 0.4673771 -0.8304433
vn 0.1256293 0 -0.9920772
vn 0.1256293 0 -0.9920772
vn 0.1256293 0 -0.9920772
vn -0.2944296 0.5335377 0.7928737
vn -0.2944296 0.5335377 0.7928737
vn -0.2944296 0.5335377 0.7928737
vn -0.6884554 -0.587356 0.4254904
vn -0.6884554 -0.587356 0.4254904
vn -0.6884554 -0.587356 0.4254904
vn -0.9000356 -0.3529349 0.2556813
vn -0.9000356 -0.3529349 0.2556813
vn -0.9000356 -0.3529349 0.2556813
vn -0.6312001 -0.3529489 0.6906617
vn -0.6312001 -0.3529489 0.6906617
vn -0.6312001 -0.3529489 0.6906617
vn -0.8408523 -0.5335198 -0.09123592
vn -0.8408523 -0.5335198 -0.09123592
vn -0.8408523 -0.5335198 -0.09123592
vn -0.6071848 0.4673718 -0.6425653
vn -0.6071848 0.4673718 -0.6425653
vn -0.6071848 0.4673718 -0.6425653
vn -0.7946514 0 -0.607066
vn -0.7946514 0 -0.607066
vn -0.7946514 0 -0.607066
vn -0.9435278 0 -0.3312936
vn -0.9435278 0 -0.3312936
vn -0.9435278 0 -0.3312936
vn -0.8408523 0.5335198 -0.09123592
vn -0.8408523 0.5335198 -0.09123592
vn -0.8408523 0.5335198 -0.09123592
vn -0.6312001 0.3529489 0.6906617
vn -0.6312001 0.3529489 0.6906617
vn -0.6312001 0.3529489 0.6906617
vn -0.6884554 0.587356 0.4254904
vn -0.6884554 0.587356 0.4254904
vn -0.6884554 0.587356 0.4254904
vn -0.9000356 0.3529349 0.2556813
vn -0.9000356 0.3529349 0.2556813
vn -0.9000356 0.3529349 0.2556813
vn 0 -0.892565 -0.4509186
vn 0 -0.892565 -0.4509186
vn 0 -0.892565 -0.4509186
vn -0.2104885 0.9064699 0.3660694
vn -0.2104885 0.9064699 0.3660694
vn -0.2104885 0.9064699 0.3660694
vn -0.09144898 -0.806453 -0.5841838
vn -0.09144898 -0.806453 -0.5841838
vn -0.09144898 -0.806453 -0.5841838
vn 0 1 0
vn 0 1 0
vn 0 1 0
vn 0.3385083 -0.839206 -0.4256119
vn 0.3385083 -0.839206 -0.4256119
vn 0.3385083 -0.839206 -0.4256119
vn -0.4215535 0.9064711 0.0245533
vn -0.4215535 0.9064711 0.0245533
vn -0.4215535 0.9064711 0.0245533
vn -0.481617 -0.8064502 -0.3430497
vn -0.481617 -0.8064502 -0.3430497
vn -0.481617 -0.8064502 -0.3430497
vn 0.3157098 -0.7964129 0.5158039
vn 0.3157098 -0.7964129 0.5158039
vn 0.3157098 -0.7964129 0.5158039
vn 0.4760624 -0.8529425 0.2141345
vn 0.4760624 -0.8529425 0.2141345
vn 0.4760624 -0.8529425 0.2141345
vn -0.4640707 -0.8380811 0.2868075
vn -0.4637526 -0.8383261 0.2866058
vn -0.4637526 -0.8383261 0.2866058
vn -0.4644587 -0.8377834 0.2870489
vn -0.4640772 -0.838073 0.2868204
vn -0.4644937 -0.8377571 0.2870688
vn -0.4652214 -0.8372034 0.2875057
vn 0.1002972 0.9006132 -0.4228904
vn 0.1002972 0.9006132 -0.4228904
vn 0.1002972 0.9006132 -0.4228904
vn 0.5127906 0.8095965 0.2856559
vn 0.5127906 0.8095965 0.2856559
vn 0.5127906 0.8095965 0.2856559
vn 0.2815737 0.9587163 -0.039742
vn 0.2815737 0.9587163 -0.039742
vn 0.2815737 0.9587163 -0.039742
vn 0.06373562 -0.8081998 0.5854492
vn 0.06373562 -0.8081998 0.5854492
vn 0.06373562 -0.8081998 0.5854492
vn 0.02872945 0.9988396 -0.03865434
vn 0.02872945 0.9988396 -0.03865434
vn 0.02872945 0.9988396 -0.03865434
vn 0.2930018 -0.8216307 -0.488951
vn 0.2930018 -0.8216307 -0.488951
vn 0.2930018 -0.8216307 -0.488951
vn 0.9845451 -0.09920371 0.1443246
vn 0.9845451 -0.09920371 0.1443246
vn 0.9845451 -0.09920371 0.1443246
vn 0.4360876 -0.8999042 0
vn 0.4360876 -0.8999042 0
vn 0.4360876 -0.8999042 0
vn 0.4488679 0.8693559 0.2067316
vn 0.4488679 0.8693559 0.2067316
vn 0.4488679 0.8693559 0.2067316
vn 0.4163439 0.8686115 0.2686482
vn 0.4163439 0.8686115 0.2686482
vn 0.4163439 0.8686115 0.2686482
vn 0.2994114 0.8133428 0.4988251
vn 0.2994114 0.8133428 0.4988251
vn 0.2994114 0.8133428 0.4988251
vn 0.3953392 0.7152086 0.5763536
vn 0.3953392 0.7152086 0.5763536
vn 0.3953392 0.7152086 0.5763536
vn 0.2948478 -0.4321023 0.8522632
vn 0.2948478 -0.4321023 0.8522632
vn 0.2948478 -0.4321023 0.8522632
vn 0.3799421 -0.3975742 0.8352118
vn 0.3799421 -0.3975742 0.8352118
vn 0.3799421 -0.3975742 0.8352118
vn 0.2183265 -0.4722027 0.8540247
vn 0.2183265 -0.4722027 0.8540247
vn 0.2183265 -0.4722027 0.8540247
vn 0.1270916 -0.4283659 0.8946231
vn 0.1270916 -0.4283659 0.8946231
vn 0.1270916 -0.4283659 0.8946231
vn 0.1371909 0.8021936 -0.5810887
vn 0.1371909 0.8021936 -0.5810887
vn 0.1371909 0.8021936 -0.5810887
vn 0.0744869 0.8228081 -0.563417
vn 0.0744869 0.8228081 -0.563417
vn 0.0744869 0.8228081 -0.563417
vn 0.1190074 0.9090533 0.3993234
vn 0.1008356 0.9164701 0.3871884
vn 0.1190074 0.9090533 0.3993234
vn 0.1371158 0.9011526 0.4112458
vn -0.2057128 0.9202634 -0.3328626
vn -0.2057128 0.9202634 -0.3328626
vn -0.2057018 0.9202657 -0.3328632
vn -0.2057239 0.920261 -0.3328622
vn 0.08261623 -0.8070779 -0.5846364
vn 0.0837132 -0.8049282 -0.5874375
vn 0.0837132 -0.8049282 -0.5874375
vn 0.08480904 -0.8027673 -0.5902305
vn 0 -1 0
vn 0 -1 0
vn 0 -1 0
vn 0 -1 0
vn 0 -1 0
vn 0 -1 0
vn 0 -1 0
vn 0 -1 0
vn 0 -1 0
vn 0 -1 0
vn 0 -1 0
vn 0 -1 0
vn 0 -1 0
vn 0 -1 0
vn 0 -1 0
vn 0 -1 0
vn 0 -1 0
vn 0 -1 0
vn 0 -1 0
vn 0 -1 0
vn 0 -1 0
vn 0 -1 0
vn 0 -1 0
vn 0 -1 0
vn 0 -1 0
vn 0 -1 0
vn 0 -1 0
vn 0 1 0
vn 0 1 0
vn 0 1 0
vn 0 1 0
vn 0 1 0
vn 0 1 0
vn 0 1 0
vn 0 1 0
vn 0 1 0
vn 0 1 0
vn 0 1 0
vn 0 1 0
vn 0 1 0
vn 0 1 0
vn 0 1 0
vn 0 1 0
vn 0 1 0
vn 0 1 0
vn 0 1 0
vn 0 1 0
vn -0.09144594 0.8064578 -0.5841776
vn -0.09145445 0.8064556 -0.5841794
vn -0.09145723 0.8064548 -0.5841799
vn -0.0914629 0.8064533 -0.5841812
vn -0.09146287 0.8064533 -0.5841811
vn -0.1371771 -0.8021905 0.5810961
vn -0.1372471 -0.8019585 0.5813997
vn -0.1371771 -0.8021905 0.5810961
vn -0.1372821 -0.8018425 0.5815515
vn -0.1373871 -0.8014942 0.5820067
vn 0.07216821 0.8122443 0.5788359
vn 0.07216821 0.8122443 0.5788359
vn 0.05285633 0.8176787 0.5732433
vn 0.09144879 0.8064576 0.5841774
vn 0 1 0
vn 0 1 0
vn 0 1 0
vn 0 1 0
vn -0.4642932 0.8379108 0.2869449
vn -0.4642932 0.8379108 0.2869449
vn -0.4642975 0.8379056 0.2869527
vn -0.4642889 0.8379158 0.286937
vn -0.1371796 0.8021977 0.5810857
vn -0.1371796 0.8021977 0.5810857
vn -0.1371682 0.8022018 0.5810828
vn -0.1371909 0.8021936 0.5810887
vn -0.4816065 0.8064578 -0.3430468
vn -0.4816065 0.8064578 -0.3430468
vn -0.4816077 0.8064597 -0.3430406
vn -0.4816053 0.8064559 -0.343053
vn -0.3032064 -0.4673664 -0.8304424
vn -0.3032064 -0.4673664 -0.8304424
vn -0.3031841 -0.4673601 -0.8304541
vn -0.3032288 -0.4673727 -0.8304307
vn -0.5810829 0.8022001 -0.1371772
vn -0.5810829 0.8022001 -0.1371772
vn -0.5810781 0.8022027 -0.1371827
vn -0.5810879 0.8021976 -0.1371717
vn -0.580837 -0.8023885 -0.1371171
vn -0.580837 -0.8023885 -0.1371171
vn -0.5810996 -0.8021876 -0.1371801
vn -0.5805745 -0.8025892 -0.137054
vn -0.6071705 -0.4673623 -0.6425858
vn -0.6071705 -0.4673623 -0.6425858
vn -0.6071447 -0.4673702 -0.6426044
vn -0.6071962 -0.4673545 -0.6425672
vn 0.3215796 0.8461233 -0.4250434
vn 0.3215796 0.8461233 -0.4250434
vn 0.3256533 0.8378373 -0.4381537
vn 0.3174232 0.8541918 -0.4118239
g PearCut_0
f 3/3/3 2/2/2 1/1/1
f 6/6/6 5/5/5 4/4/4
f 9/9/9 8/8/8 7/7/7
f 12/12/12 11/11/11 10/10/10
f 15/15/15 14/14/14 13/13/13
f 18/18/18 17/17/17 16/16/16
f 21/21/21 20/20/20 19/19/19
f 24/24/24 23/23/23 22/22/22
f 27/27/27 26/26/26 25/25/25
f 30/30/30 29/29/29 28/28/28
f 33/33/33 32/32/32 31/31/31
f 36/36/36 35/35/35 34/34/34
f 39/39/39 38/38/38 37/37/37
f 42/42/42 41/41/41 40/40/40
f 45/45/45 44/44/44 43/43/43
f 48/48/48 47/47/47 46/46/46
f 51/51/51 50/50/50 49/49/49
f 54/54/54 53/53/53 52/52/52
f 57/57/57 56/56/56 55/55/55
f 60/60/60 59/59/59 58/58/58
f 63/63/63 62/62/62 61/61/61
f 66/66/66 65/65/65 64/64/64
f 69/69/69 68/68/68 67/67/67
f 72/72/72 71/71/71 70/70/70
f 75/75/75 74/74/74 73/73/73
f 78/78/78 77/77/77 76/76/76
f 81/81/81 80/80/80 79/79/79
f 84/84/84 83/83/83 82/82/82
f 87/87/87 86/86/86 85/85/85
f 90/90/90 89/89/89 88/88/88
f 93/93/93 92/92/92 91/91/91
f 96/96/96 95/95/95 94/94/94
f 99/99/99 98/98/98 97/97/97
f 102/102/102 101/101/101 100/100/100
f 105/105/105 104/104/104 103/103/103
f 108/108/108 107/107/107 106/106/106
f 111/111/111 110/110/110 109/109/109
f 114/114/114 113/113/113 112/112/112
f 117/117/117 116/116/116 115/115/115
f 120/120/120 119/119/119 118/118/118
f 123/123/123 122/122/122 121/121/121
f 126/126/126 125/125/125 124/124/124
f 124/124/124 128/128/128 127/127/127
f 129/129/129 127/127/127 128/128/128
f 127/127/127 129/129/129 130/130/130
f 133/133/133 132/132/132 131/131/131
f 136/136/136 135/135/135 134/134/134
f 139/139/139 138/138/138 137/137/137
f 142/142/142 141/141/141 140/140/140
f 145/145/145 144/144/144 143/143/143
f 148/148/148 147/147/147 146/146/146
f 151/151/151 150/150/150 149/149/149
f 154/154/154 153/153/153 152/152/152
f 157/157/157 156/156/156 155/155/155
f 160/160/160 159/159/159 158/158/158
f 163/163/163 162/162/162 161/161/161
f 166/166/166 165/165/165 164/164/164
f 169/169/169 168/168/168 167/167/167
f 172/172/172 171/171/171 170/170/170
f 175/175/175 174/174/174 173/173/173
f 178/178/178 177/177/177 176/176/176
f 181/181/181 180/180/180 179/179/179
f 184/184/184 183/183/183 182/182/182
f 187/187/187 186/186/186 185/185/185
f 188/188/188 187/187/187 185/185/185
f 191/191/191 190/190/190 189/189/189
f 189/189/189 190/190/190 192/192/192
f 195/195/195 194/194/194 193/193/193
f 195/195/195 196/196/196 194/194/194
f 199/199/199 198/198/198 197/197/197
f 200/200/200 197/197/197 198/198/198
f 198/198/198 201/201/201 200/200/200
f 202/202/202 200/200/200 201/201/201
f 201/201/201 203/203/203 202/202/202
f 201/201/201 204/204/204 203/203/203
f 205/205/205 203/203/203 204/204/204
f 203/203/203 205/205/205 206/206/206
f 207/207/207 206/206/206 205/205/205
f 206/206/206 208/208/208 203/203/203
f 209/209/209 202/202/202 203/203/203
f 209/209/209 210/210/210 202/202/202
f 211/211/211 210/210/210 209/209/209
f 202/202/202 212/212/212 200/200/200
f 213/213/213 200/200/200 212/212/212
f 212/212/212 214/214/214 213/213/213
f 214/214/214 212/212/212 215/215/215
f 215/215/215 216/216/216 214/214/214
f 217/217/217 214/214/214 216/216/216
f 216/216/216 215/215/215 218/218/218
f 219/219/219 218/218/218 215/215/215
f 218/218/218 219/219/219 220/220/220
f 218/218/218 221/221/221 216/216/216
f 221/221/221 222/222/222 216/216/216
f 223/223/223 216/216/216 222/222/222
f 226/226/226 225/225/225 224/224/224
f 224/224/224 227/227/227 226/226/226
f 228/228/228 226/226/226 227/227/227
f 226/226/226 228/228/228 229/229/229
f 230/230/230 229/229/229 228/228/228
f 230/230/230 231/231/231 229/229/229
f 232/232/232 229/229/229 231/231/231
f 229/229/229 232/232/232 233/233/233
f 234/234/234 233/233/233 232/232/232
f 233/233/233 235/235/235 229/229/229
f 236/236/236 229/229/229 235/235/235
f 227/227/227 237/237/237 228/228/228
f 238/238/238 228/228/228 237/237/237
f 237/237/237 227/227/227 239/239/239
f 240/240/240 239/239/239 227/227/227
f 227/227/227 241/241/241 240/240/240
f 239/239/239 242/242/242 237/237/237
f 243/243/243 237/237/237 242/242/242
f 246/246/246 245/245/245 244/244/244
f 245/245/245 246/246/246 247/247/247
f 248/248/248 247/247/247 246/246/246
f 251/251/251 250/250/250 249/249/249
f 251/251/251 252/252/252 250/250/250
f 253/253/253 250/250/250 252/252/252
f 256/256/256 255/255/255 254/254/254
f 257/257/257 254/254/254 255/255/255
f 260/260/260 259/259/259 258/258/258
f 260/260/260 258/258/258 261/261/261
f 264/264/264 263/263/263 262/262/262
f 265/265/265 262/262/262 263/263/263
f 268/268/268 267/267/267 266/266/266
f 269/269/269 266/266/266 267/267/267
f 272/272/272 271/271/271 270/270/270
f 273/273/273 270/270/270 271/271/271
f 276/276/276 275/275/275 274/274/274
f 277/277/277 274/274/274 275/275/275
f 280/280/280 279/279/279 278/278/278
f 281/281/281 278/278/278 279/279/279
f 284/284/284 283/283/283 282/282/282
f 285/285/285 282/282/282 283/283/283
f 288/288/288 287/287/287 286/286/286
f 289/289/289 286/286/286 287/287/287
f 292/292/292 291/291/291 290/290/290
f 293/293/293 290/290/290 291/291/291
