g Place-large-base-lvl1
v -191.2942 268.739 -0.0003695488
v -191.2945 -268.7389 -0.0003695488
v 191.2942 -268.739 -0.0003695488
v -191.2942 268.739 -0.0003695488
v -232.0637 250.9732 0.0005245209
v -191.2945 -268.7389 -0.0003695488
v -232.0637 250.9732 0.0005245209
v -232.064 -250.9729 0.0005245209
v -191.2945 -268.7389 -0.0003695488
v -232.0637 250.9732 0.0005245209
v -248.9856 206.1885 -0.0001251698
v -232.064 -250.9729 0.0005245209
v -248.9856 206.1885 -0.0001251698
v -248.9859 -206.1883 -0.0001251698
v -232.064 -250.9729 0.0005245209
v -218.2484 -320.9965 60.40158
v -250.2963 -268.8022 8.113259
v -275.6185 -295.9966 60.40158
v -198.1971 -291.5053 8.113408
v 218.2481 -320.9966 60.40158
v 198.1968 -291.5055 8.113408
v 275.6181 -295.9969 60.40158
v 250.2961 -268.8025 8.113259
v 298.8969 -234.385 60.40158
v 271.4384 -212.8531 8.117962
v -298.8968 234.3851 60.40158
v -271.4383 212.8531 8.117962
v -250.296 268.8025 8.113259
v -275.6181 295.9969 60.40158
v -198.1967 291.5055 8.113408
v -218.248 320.9966 60.40158
v 198.1971 291.5053 8.113408
v 218.2484 320.9965 60.40158
v 250.2963 268.8022 8.113259
v 275.6185 295.9966 60.40158
v 271.4385 212.8528 8.117962
v 298.897 234.3847 60.40158
v -298.8971 -234.3847 60.40158
v -271.4385 -212.8528 8.117962
v -271.4383 212.8531 8.117962
v -298.8968 234.3851 60.40158
v 298.897 234.3847 60.40158
v 271.4385 212.8528 8.117962
v 271.4384 -212.8531 8.117962
v 298.8969 -234.385 60.40158
v -275.6185 -295.9966 60.40158
v -250.2963 -268.8022 8.113259
v -271.4385 -212.8528 8.117962
v -298.8971 -234.3847 60.40158
v -198.1971 -291.5053 8.113408
v -191.2945 -268.7389 -0.0003695488
v -232.064 -250.9729 0.0005245209
v -250.2963 -268.8022 8.113259
v 198.1971 291.5053 8.113408
v 191.2944 268.7389 -0.0003695488
v 232.0639 250.9729 0.0005245209
v 250.2963 268.8022 8.113259
v 271.4384 -212.8531 8.117962
v 248.9856 -206.1885 -0.0001251698
v 232.0637 -250.9732 0.0005245209
v 250.2961 -268.8025 8.113259
v 191.2942 -268.739 -0.0003695488
v 198.1968 -291.5055 8.113408
v -250.2963 -268.8022 8.113259
v -232.064 -250.9729 0.0005245209
v -248.9859 -206.1883 -0.0001251698
v -271.4385 -212.8528 8.117962
v -271.4385 -212.8528 8.117962
v -248.9859 -206.1883 -0.0001251698
v -248.9856 206.1885 -0.0001251698
v -271.4383 212.8531 8.117962
v 198.1968 -291.5055 8.113408
v 191.2942 -268.739 -0.0003695488
v -191.2945 -268.7389 -0.0003695488
v -198.1971 -291.5053 8.113408
v 250.2963 268.8022 8.113259
v 232.0639 250.9729 0.0005245209
v 248.9858 206.1883 -0.0001251698
v 271.4385 212.8528 8.117962
v 271.4385 212.8528 8.117962
v 248.9858 206.1883 -0.0001251698
v 248.9856 -206.1885 -0.0001251698
v 271.4384 -212.8531 8.117962
v -198.1967 291.5055 8.113408
v -191.2942 268.739 -0.0003695488
v 191.2944 268.7389 -0.0003695488
v 198.1971 291.5053 8.113408
v -271.4383 212.8531 8.117962
v -248.9856 206.1885 -0.0001251698
v -232.0637 250.9732 0.0005245209
v -250.296 268.8025 8.113259
v -191.2942 268.739 -0.0003695488
v -198.1967 291.5055 8.113408
v 248.9856 -206.1885 -0.0001251698
v 248.9858 206.1883 -0.0001251698
v 232.0639 250.9729 0.0005245209
v 232.0637 -250.9732 0.0005245209
v 191.2944 268.7389 -0.0003695488
v 191.2942 -268.739 -0.0003695488
v -191.2942 268.739 -0.0003695488
vt 0.9366757 0.9614205
vt 0.9635244 0.9614204
vt 0.9366757 0.9614205
vt 0.9366757 0.9614205
vt 0.9330667 0.9614205
vt 0.9635244 0.9614204
vt 0.9330667 0.9614205
vt 0.9586841 0.9614206
vt 0.9635244 0.9614204
vt 0.9330667 0.9614205
vt 0.9292699 0.9614204
vt 0.9586841 0.9614206
vt 0.9292699 0.9614204
vt 0.9119337 0.9614204
vt 0.9586841 0.9614206
vt 0.9692625 0.9159412
vt 0.9704815 0.9450325
vt 0.9740311 0.9159412
vt 0.9661335 0.9450324
vt 0.9351216 0.9159412
vt 0.9350039 0.9450324
vt 0.9301603 0.9159412
vt 0.9304801 0.9450325
vt 0.9250013 0.9159412
vt 0.9257761 0.9450309
vt 0.9250012 0.9159412
vt 0.9257761 0.9450309
vt 0.9304801 0.9450325
vt 0.9301602 0.9159412
vt 0.9350039 0.9450324
vt 0.9351216 0.9159412
vt 0.9661335 0.9450324
vt 0.9692624 0.9159412
vt 0.9704814 0.9450325
vt 0.9740311 0.9159412
vt 0.9746177 0.9450309
vt 0.9785669 0.9159412
vt 0.8890063 0.9159412
vt 0.8929556 0.9450309
vt 0.925776 0.9450309
vt 0.9250012 0.9159412
vt 0.8890063 0.9159412
vt 0.8929555 0.9450309
vt 0.9257761 0.9450309
vt 0.9250013 0.9159412
vt 0.9740311 0.9159412
vt 0.9704815 0.9450325
vt 0.9746177 0.9450309
vt 0.978567 0.9159412
vt 0.9706479 0.9786459
vt 0.9659852 0.9786458
vt 0.9611449 0.978646
vt 0.9748523 0.9786459
vt 0.9706479 0.9786459
vt 0.9659852 0.9786459
vt 0.9611447 0.9786459
vt 0.9748522 0.9786459
vt 0.9309453 0.9786459
vt 0.9317307 0.9786459
vt 0.9355274 0.9786459
vt 0.9354513 0.9786459
vt 0.9391364 0.9786459
vt 0.9398255 0.9786459
vt 0.9748523 0.9786459
vt 0.9611449 0.978646
vt 0.9143944 0.9786458
vt 0.9005899 0.9786459
vt 0.8984902 0.9786459
vt 0.9143944 0.9786458
vt 0.9317306 0.9786459
vt 0.9308178 0.9786459
vt 0.9399071 0.9786459
vt 0.9391364 0.9786459
vt 0.9659852 0.9786458
vt 0.9705695 0.9786459
vt 0.9748522 0.9786459
vt 0.9611447 0.9786459
vt 0.9143944 0.9786458
vt 0.9005899 0.9786459
vt 0.8984902 0.9786459
vt 0.9143944 0.9786458
vt 0.9317307 0.9786459
vt 0.9308179 0.9786459
vt 0.9399071 0.9786459
vt 0.9391365 0.9786459
vt 0.9659852 0.9786459
vt 0.9705695 0.9786459
vt 0.9309453 0.9786459
vt 0.9317306 0.9786459
vt 0.9355274 0.9786459
vt 0.9354513 0.9786459
vt 0.9391365 0.9786459
vt 0.9398255 0.9786459
vt 0.92927 0.9614204
vt 0.9119337 0.9614204
vt 0.9586839 0.9614204
vt 0.9330667 0.9614204
vt 0.9635245 0.9614205
vt 0.9366757 0.9614205
vt 0.9366757 0.9614205
vn -0.03535552 0.1817497 -0.9827091
vn -0.03535565 -0.1817497 -0.9827091
vn 0.0353555 -0.1817497 -0.9827091
vn -0.03535552 0.1817497 -0.9827091
vn -0.1390384 0.1309588 -0.9815896
vn -0.03535565 -0.1817497 -0.9827091
vn -0.1390384 0.1309588 -0.9815896
vn -0.1390386 -0.1309585 -0.9815896
vn -0.03535565 -0.1817497 -0.9827091
vn -0.1390384 0.1309588 -0.9815896
vn -0.1831608 0.03081938 -0.9825997
vn -0.1390386 -0.1309585 -0.9815896
vn -0.1831608 0.03081938 -0.9825997
vn -0.183161 -0.03081919 -0.9825997
vn -0.1390386 -0.1309585 -0.9815896
vn -0.1931541 -0.8210661 -0.537161
vn -0.4654448 -0.4355967 -0.7704652
vn -0.5867674 -0.5663763 -0.5787243
vn -0.1185044 -0.6370401 -0.7616671
vn 0.1931533 -0.8210664 -0.5371608
vn 0.1185038 -0.6370403 -0.7616669
vn 0.5867665 -0.5663773 -0.5787242
vn 0.4654441 -0.4355973 -0.7704653
vn 0.8393614 -0.177313 -0.513841
vn 0.6509008 -0.1039788 -0.7520083
vn -0.8393615 0.1773132 -0.5138408
vn -0.650901 0.1039789 -0.7520081
vn -0.4654438 0.4355977 -0.7704652
vn -0.5867666 0.5663774 -0.5787241
vn -0.1185036 0.6370403 -0.7616669
vn -0.1931529 0.8210664 -0.5371609
vn 0.1185043 0.6370401 -0.7616671
vn 0.1931538 0.8210663 -0.5371609
vn 0.4654447 0.4355967 -0.7704653
vn 0.5867676 0.5663763 -0.5787241
vn 0.650901 0.1039777 -0.7520083
vn 0.8393619 0.1773117 -0.5138406
vn -0.8393615 -0.1773119 -0.513841
vn -0.6509011 -0.103978 -0.7520081
vn -0.650901 0.1039789 -0.7520081
vn -0.8393615 0.1773132 -0.5138408
vn 0.8393619 0.1773117 -0.5138406
vn 0.650901 0.1039777 -0.7520083
vn 0.6509008 -0.1039788 -0.7520083
vn 0.8393614 -0.177313 -0.513841
vn -0.5867674 -0.5663763 -0.5787243
vn -0.4654448 -0.4355967 -0.7704652
vn -0.6509011 -0.103978 -0.7520081
vn -0.8393615 -0.1773119 -0.513841
vn -0.1185044 -0.6370401 -0.7616671
vn -0.03535565 -0.1817497 -0.9827091
vn -0.1390386 -0.1309585 -0.9815896
vn -0.4654448 -0.4355967 -0.7704652
vn 0.1185043 0.6370401 -0.7616671
vn 0.0353556 0.1817496 -0.9827091
vn 0.1390383 0.1309583 -0.9815896
vn 0.4654447 0.4355967 -0.7704653
vn 0.6509008 -0.1039788 -0.7520083
vn 0.1831606 -0.0308193 -0.9825999
vn 0.1390384 -0.1309587 -0.9815896
vn 0.4654441 -0.4355973 -0.7704653
vn 0.0353555 -0.1817497 -0.9827091
vn 0.1185038 -0.6370403 -0.7616669
vn -0.4654448 -0.4355967 -0.7704652
vn -0.1390386 -0.1309585 -0.9815896
vn -0.183161 -0.03081919 -0.9825997
vn -0.6509011 -0.103978 -0.7520081
vn -0.6509011 -0.103978 -0.7520081
vn -0.183161 -0.03081919 -0.9825997
vn -0.1831608 0.03081938 -0.9825997
vn -0.650901 0.1039789 -0.7520081
vn 0.1185038 -0.6370403 -0.7616669
vn 0.0353555 -0.1817497 -0.9827091
vn -0.03535565 -0.1817497 -0.9827091
vn -0.1185044 -0.6370401 -0.7616671
vn 0.4654447 0.4355967 -0.7704653
vn 0.1390383 0.1309583 -0.9815896
vn 0.1831605 0.0308191 -0.9825999
vn 0.650901 0.1039777 -0.7520083
vn 0.650901 0.1039777 -0.7520083
vn 0.1831605 0.0308191 -0.9825999
vn 0.1831606 -0.0308193 -0.9825999
vn 0.6509008 -0.1039788 -0.7520083
vn -0.1185036 0.6370403 -0.7616669
vn -0.03535552 0.1817497 -0.9827091
vn 0.0353556 0.1817496 -0.9827091
vn 0.1185043 0.6370401 -0.7616671
vn -0.650901 0.1039789 -0.7520081
vn -0.1831608 0.03081938 -0.9825997
vn -0.1390384 0.1309588 -0.9815896
vn -0.4654438 0.4355977 -0.7704652
vn -0.03535552 0.1817497 -0.9827091
vn -0.1185036 0.6370403 -0.7616669
vn 0.1831606 -0.0308193 -0.9825999
vn 0.1831605 0.0308191 -0.9825999
vn 0.1390383 0.1309583 -0.9815896
vn 0.1390384 -0.1309587 -0.9815896
vn 0.0353556 0.1817496 -0.9827091
vn 0.0353555 -0.1817497 -0.9827091
vn -0.03535552 0.1817497 -0.9827091
g Place-large-base-lvl1_0
f 3/3/3 2/2/2 1/1/1
f 6/6/6 5/5/5 4/4/4
f 9/9/9 8/8/8 7/7/7
f 12/12/12 11/11/11 10/10/10
f 15/15/15 14/14/14 13/13/13
f 18/18/18 17/17/17 16/16/16
f 17/17/17 19/19/19 16/16/16
f 16/16/16 19/19/19 20/20/20
f 19/19/19 21/21/21 20/20/20
f 20/20/20 21/21/21 22/22/22
f 21/21/21 23/23/23 22/22/22
f 22/22/22 23/23/23 24/24/24
f 23/23/23 25/25/25 24/24/24
f 28/28/28 27/27/27 26/26/26
f 29/29/29 28/28/28 26/26/26
f 30/30/30 28/28/28 29/29/29
f 31/31/31 30/30/30 29/29/29
f 32/32/32 30/30/30 31/31/31
f 33/33/33 32/32/32 31/31/31
f 34/34/34 32/32/32 33/33/33
f 35/35/35 34/34/34 33/33/33
f 36/36/36 34/34/34 35/35/35
f 37/37/37 36/36/36 35/35/35
f 40/40/40 39/39/39 38/38/38
f 41/41/41 40/40/40 38/38/38
f 44/44/44 43/43/43 42/42/42
f 45/45/45 44/44/44 42/42/42
f 48/48/48 47/47/47 46/46/46
f 49/49/49 48/48/48 46/46/46
f 52/52/52 51/51/51 50/50/50
f 53/53/53 52/52/52 50/50/50
f 56/56/56 55/55/55 54/54/54
f 57/57/57 56/56/56 54/54/54
f 60/60/60 59/59/59 58/58/58
f 61/61/61 60/60/60 58/58/58
f 62/62/62 60/60/60 61/61/61
f 63/63/63 62/62/62 61/61/61
f 66/66/66 65/65/65 64/64/64
f 67/67/67 66/66/66 64/64/64
f 70/70/70 69/69/69 68/68/68
f 71/71/71 70/70/70 68/68/68
f 74/74/74 73/73/73 72/72/72
f 75/75/75 74/74/74 72/72/72
f 78/78/78 77/77/77 76/76/76
f 79/79/79 78/78/78 76/76/76
f 82/82/82 81/81/81 80/80/80
f 83/83/83 82/82/82 80/80/80
f 86/86/86 85/85/85 84/84/84
f 87/87/87 86/86/86 84/84/84
f 90/90/90 89/89/89 88/88/88
f 91/91/91 90/90/90 88/88/88
f 92/92/92 90/90/90 91/91/91
f 93/93/93 92/92/92 91/91/91
f 96/96/96 95/95/95 94/94/94
f 94/94/94 97/97/97 96/96/96
f 97/97/97 98/98/98 96/96/96
f 97/97/97 99/99/99 98/98/98
f 99/99/99 100/100/100 98/98/98
