g Place-medium-base-lvl1
v -1.454114 3.695488E-06 -2.042803
v 1.454112 3.695488E-06 -2.042804
v 1.764019 -5.245209E-06 -1.907758
v -1.659003 -0.6040159 -2.440036
v -1.902613 -0.08113259 -2.043285
v -2.095098 -0.6040159 -2.250002
v -1.506584 -0.08113408 -2.215861
v 1.659001 -0.6040159 -2.440038
v 1.506582 -0.08113408 -2.215863
v 2.095096 -0.6040159 -2.250003
v 1.902611 -0.08113259 -2.043287
v 2.272047 -0.6040159 -1.781664
v 2.063323 -0.08117962 -1.61799
v -2.272047 -0.6040159 1.781665
v -2.063323 -0.08117962 1.61799
v -1.902611 -0.08113259 2.043287
v -2.095096 -0.6040159 2.250003
v -1.506581 -0.08113408 2.215863
v -1.659 -0.6040159 2.440038
v 1.506584 -0.08113408 2.215861
v 1.659003 -0.6040159 2.440036
v 1.902613 -0.08113259 2.043285
v 2.095098 -0.6040159 2.250002
v 2.063325 -0.08117962 1.617988
v 2.272049 -0.6040159 1.781662
v -2.272049 -0.6040159 -1.781662
v -2.063325 -0.08117962 -1.617988
v -2.063323 -0.08117962 1.61799
v -2.272047 -0.6040159 1.781665
v 2.272049 -0.6040159 1.781662
v 2.063325 -0.08117962 1.617988
v 2.063323 -0.08117962 -1.61799
v 2.272047 -0.6040159 -1.781664
v -2.095098 -0.6040159 -2.250002
v -1.902613 -0.08113259 -2.043285
v -2.063325 -0.08117962 -1.617988
v -2.272049 -0.6040159 -1.781662
v -1.506584 -0.08113408 -2.215861
v -1.454114 3.695488E-06 -2.042803
v -1.764021 -5.245209E-06 -1.907756
v -1.902613 -0.08113259 -2.043285
v 1.506584 -0.08113408 2.215861
v 1.454114 3.695488E-06 2.042803
v 1.764021 -5.245209E-06 1.907756
v 1.902613 -0.08113259 2.043285
v 2.063323 -0.08117962 -1.61799
v 1.89265 1.251698E-06 -1.567331
v 1.764019 -5.245209E-06 -1.907758
v 1.902611 -0.08113259 -2.043287
v 1.454112 3.695488E-06 -2.042804
v 1.506582 -0.08113408 -2.215863
v -1.902613 -0.08113259 -2.043285
v -1.764021 -5.245209E-06 -1.907756
v -1.892652 1.251698E-06 -1.567328
v -2.063325 -0.08117962 -1.617988
v -2.063325 -0.08117962 -1.617988
v -1.892652 1.251698E-06 -1.567328
v -1.89265 1.251698E-06 1.567331
v -2.063323 -0.08117962 1.61799
v 1.506582 -0.08113408 -2.215863
v 1.454112 3.695488E-06 -2.042804
v -1.454114 3.695488E-06 -2.042803
v -1.506584 -0.08113408 -2.215861
v 1.902613 -0.08113259 2.043285
v 1.764021 -5.245209E-06 1.907756
v 1.892651 1.251698E-06 1.567328
v 2.063325 -0.08117962 1.617988
v 2.063325 -0.08117962 1.617988
v 1.892651 1.251698E-06 1.567328
v 1.89265 1.251698E-06 -1.567331
v 2.063323 -0.08117962 -1.61799
v -1.506581 -0.08113408 2.215863
v -1.454112 3.695488E-06 2.042804
v 1.454114 3.695488E-06 2.042803
v 1.506584 -0.08113408 2.215861
v -2.063323 -0.08117962 1.61799
v -1.89265 1.251698E-06 1.567331
v -1.764019 -5.245209E-06 1.907758
v -1.902611 -0.08113259 2.043287
v -1.454112 3.695488E-06 2.042804
v -1.506581 -0.08113408 2.215863
v 1.764019 -5.245209E-06 -1.907758
v -1.764021 -5.245209E-06 -1.907756
v -1.454114 3.695488E-06 -2.042803
v 1.89265 1.251698E-06 -1.567331
v -1.892652 1.251698E-06 -1.567328
v 1.892651 1.251698E-06 1.567328
v -1.89265 1.251698E-06 1.567331
v 1.892651 1.251698E-06 1.567328
v 1.764021 -5.245209E-06 1.907756
v -1.89265 1.251698E-06 1.567331
v -1.764019 -5.245209E-06 1.907758
v 1.454114 3.695488E-06 2.042803
v -1.454112 3.695488E-06 2.042804
vt 0.9635244 0.9614204
vt 0.9366757 0.9614205
vt 0.9330667 0.9614204
vt 0.9692625 0.9159412
vt 0.9704815 0.9450325
vt 0.9740311 0.9159412
vt 0.9661335 0.9450324
vt 0.9351216 0.9159412
vt 0.9350039 0.9450324
vt 0.9301603 0.9159412
vt 0.9304801 0.9450325
vt 0.9250013 0.9159412
vt 0.9257761 0.9450309
vt 0.9250012 0.9159412
vt 0.9257761 0.9450309
vt 0.9304801 0.9450325
vt 0.9301602 0.9159412
vt 0.9350039 0.9450324
vt 0.9351216 0.9159412
vt 0.9661335 0.9450324
vt 0.9692624 0.9159412
vt 0.9704814 0.9450325
vt 0.9740311 0.9159412
vt 0.9746177 0.9450309
vt 0.9785669 0.9159412
vt 0.8890063 0.9159412
vt 0.8929556 0.9450309
vt 0.925776 0.9450309
vt 0.9250012 0.9159412
vt 0.8890063 0.9159412
vt 0.8929555 0.9450309
vt 0.9257761 0.9450309
vt 0.9250013 0.9159412
vt 0.9740311 0.9159412
vt 0.9704815 0.9450325
vt 0.9746177 0.9450309
vt 0.978567 0.9159412
vt 0.9706479 0.9786459
vt 0.9659852 0.9786458
vt 0.9611449 0.978646
vt 0.9748523 0.9786459
vt 0.9706479 0.9786459
vt 0.9659852 0.9786459
vt 0.9611447 0.9786459
vt 0.9748522 0.9786459
vt 0.9309453 0.9786459
vt 0.9317307 0.9786459
vt 0.9355274 0.9786459
vt 0.9354513 0.9786459
vt 0.9391364 0.9786459
vt 0.9398255 0.9786459
vt 0.9748523 0.9786459
vt 0.9611449 0.978646
vt 0.9143944 0.9786458
vt 0.9005899 0.9786459
vt 0.8984902 0.9786459
vt 0.9143944 0.9786458
vt 0.9317306 0.9786459
vt 0.9308178 0.9786459
vt 0.9399071 0.9786459
vt 0.9391364 0.9786459
vt 0.9659852 0.9786458
vt 0.9705695 0.9786459
vt 0.9748522 0.9786459
vt 0.9611447 0.9786459
vt 0.9143944 0.9786458
vt 0.9005899 0.9786459
vt 0.8984902 0.9786459
vt 0.9143944 0.9786458
vt 0.9317307 0.9786459
vt 0.9308179 0.9786459
vt 0.9399071 0.9786459
vt 0.9391365 0.9786459
vt 0.9659852 0.9786459
vt 0.9705695 0.9786459
vt 0.9309453 0.9786459
vt 0.9317306 0.9786459
vt 0.9355274 0.9786459
vt 0.9354513 0.9786459
vt 0.9391365 0.9786459
vt 0.9398255 0.9786459
vt 0.9330667 0.9614204
vt 0.9586841 0.9614206
vt 0.9635244 0.9614204
vt 0.92927 0.9614204
vt 0.9119337 0.9614204
vt 0.9119337 0.9614204
vt 0.9292699 0.9614204
vt 0.9119337 0.9614204
vt 0.9586839 0.9614204
vt 0.9292699 0.9614204
vt 0.9330667 0.9614205
vt 0.9635245 0.9614205
vt 0.9366757 0.9614205
vn -0.04524286 0.9716985 -0.2318514
vn 0.04524257 0.9716986 -0.2318511
vn 0.1775606 0.9697808 -0.1673246
vn -0.2023474 0.4351253 -0.8773378
vn -0.5193722 0.7013054 -0.488286
vn -0.633923 0.4747357 -0.610547
vn -0.1362327 0.6922616 -0.7086709
vn 0.202347 0.4351249 -0.8773379
vn 0.1362322 0.6922616 -0.708671
vn 0.6339229 0.474735 -0.6105477
vn 0.5193722 0.7013054 -0.4882862
vn 0.8917237 0.4135481 -0.1838661
vn 0.7207004 0.6828224 -0.119768
vn -0.8917234 0.4135487 0.1838662
vn -0.7207004 0.6828224 0.1197682
vn -0.5193716 0.7013056 0.4882864
vn -0.6339228 0.4747356 0.6105474
vn -0.1362321 0.6922618 0.7086709
vn -0.2023468 0.4351253 0.8773379
vn 0.1362329 0.6922616 0.7086709
vn 0.2023475 0.4351251 0.8773379
vn 0.5193725 0.7013052 0.488286
vn 0.6339233 0.474735 0.6105472
vn 0.7207007 0.6828223 0.1197673
vn 0.891724 0.413548 0.1838652
vn -0.8917237 0.4135486 -0.183865
vn -0.7207006 0.6828223 -0.1197673
vn -0.7207004 0.6828224 0.1197682
vn -0.8917234 0.4135487 0.1838662
vn 0.891724 0.413548 0.1838652
vn 0.7207007 0.6828223 0.1197673
vn 0.7207004 0.6828224 -0.119768
vn 0.8917237 0.4135481 -0.1838661
vn -0.633923 0.4747357 -0.610547
vn -0.5193722 0.7013054 -0.488286
vn -0.7207006 0.6828223 -0.1197673
vn -0.8917237 0.4135486 -0.183865
vn -0.1362327 0.6922616 -0.7086709
vn -0.04524286 0.9716985 -0.2318514
vn -0.1775611 0.9697806 -0.1673247
vn -0.5193722 0.7013054 -0.488286
vn 0.1362329 0.6922616 0.7086709
vn 0.04524272 0.9716986 0.2318512
vn 0.1775609 0.9697807 0.1673246
vn 0.5193725 0.7013052 0.488286
vn 0.7207004 0.6828224 -0.119768
vn 0.2335009 0.9715565 -0.03943644
vn 0.1775606 0.9697808 -0.1673246
vn 0.5193722 0.7013054 -0.4882862
vn 0.04524257 0.9716986 -0.2318511
vn 0.1362322 0.6922616 -0.708671
vn -0.5193722 0.7013054 -0.488286
vn -0.1775611 0.9697806 -0.1673247
vn -0.2335015 0.9715564 -0.03943619
vn -0.7207006 0.6828223 -0.1197673
vn -0.7207006 0.6828223 -0.1197673
vn -0.2335015 0.9715564 -0.03943619
vn -0.2335013 0.9715565 0.03943665
vn -0.7207004 0.6828224 0.1197682
vn 0.1362322 0.6922616 -0.708671
vn 0.04524257 0.9716986 -0.2318511
vn -0.04524286 0.9716985 -0.2318514
vn -0.1362327 0.6922616 -0.7086709
vn 0.5193725 0.7013052 0.488286
vn 0.1775609 0.9697807 0.1673246
vn 0.233501 0.9715565 0.0394362
vn 0.7207007 0.6828223 0.1197673
vn 0.7207007 0.6828223 0.1197673
vn 0.233501 0.9715565 0.0394362
vn 0.2335009 0.9715565 -0.03943644
vn 0.7207004 0.6828224 -0.119768
vn -0.1362321 0.6922618 0.7086709
vn -0.04524254 0.9716986 0.2318511
vn 0.04524272 0.9716986 0.2318512
vn 0.1362329 0.6922616 0.7086709
vn -0.7207004 0.6828224 0.1197682
vn -0.2335013 0.9715565 0.03943665
vn -0.1775605 0.9697807 0.1673247
vn -0.5193716 0.7013056 0.4882864
vn -0.04524254 0.9716986 0.2318511
vn -0.1362321 0.6922618 0.7086709
vn 0.1775606 0.9697808 -0.1673246
vn -0.1775611 0.9697806 -0.1673247
vn -0.04524286 0.9716985 -0.2318514
vn 0.2335009 0.9715565 -0.03943644
vn -0.2335015 0.9715564 -0.03943619
vn 0.233501 0.9715565 0.0394362
vn -0.2335013 0.9715565 0.03943665
vn 0.233501 0.9715565 0.0394362
vn 0.1775609 0.9697807 0.1673246
vn -0.2335013 0.9715565 0.03943665
vn -0.1775605 0.9697807 0.1673247
vn 0.04524272 0.9716986 0.2318512
vn -0.04524254 0.9716986 0.2318511
g Place-medium-base-lvl1_0
f 3/3/3 2/2/2 1/1/1
f 6/6/6 5/5/5 4/4/4
f 5/5/5 7/7/7 4/4/4
f 4/4/4 7/7/7 8/8/8
f 7/7/7 9/9/9 8/8/8
f 8/8/8 9/9/9 10/10/10
f 9/9/9 11/11/11 10/10/10
f 10/10/10 11/11/11 12/12/12
f 11/11/11 13/13/13 12/12/12
f 16/16/16 15/15/15 14/14/14
f 17/17/17 16/16/16 14/14/14
f 18/18/18 16/16/16 17/17/17
f 19/19/19 18/18/18 17/17/17
f 20/20/20 18/18/18 19/19/19
f 21/21/21 20/20/20 19/19/19
f 22/22/22 20/20/20 21/21/21
f 23/23/23 22/22/22 21/21/21
f 24/24/24 22/22/22 23/23/23
f 25/25/25 24/24/24 23/23/23
f 28/28/28 27/27/27 26/26/26
f 29/29/29 28/28/28 26/26/26
f 32/32/32 31/31/31 30/30/30
f 33/33/33 32/32/32 30/30/30
f 36/36/36 35/35/35 34/34/34
f 37/37/37 36/36/36 34/34/34
f 40/40/40 39/39/39 38/38/38
f 41/41/41 40/40/40 38/38/38
f 44/44/44 43/43/43 42/42/42
f 45/45/45 44/44/44 42/42/42
f 48/48/48 47/47/47 46/46/46
f 49/49/49 48/48/48 46/46/46
f 50/50/50 48/48/48 49/49/49
f 51/51/51 50/50/50 49/49/49
f 54/54/54 53/53/53 52/52/52
f 55/55/55 54/54/54 52/52/52
f 58/58/58 57/57/57 56/56/56
f 59/59/59 58/58/58 56/56/56
f 62/62/62 61/61/61 60/60/60
f 63/63/63 62/62/62 60/60/60
f 66/66/66 65/65/65 64/64/64
f 67/67/67 66/66/66 64/64/64
f 70/70/70 69/69/69 68/68/68
f 71/71/71 70/70/70 68/68/68
f 74/74/74 73/73/73 72/72/72
f 75/75/75 74/74/74 72/72/72
f 78/78/78 77/77/77 76/76/76
f 79/79/79 78/78/78 76/76/76
f 80/80/80 78/78/78 79/79/79
f 81/81/81 80/80/80 79/79/79
f 84/84/84 83/83/83 82/82/82
f 83/83/83 85/85/85 82/82/82
f 83/83/83 86/86/86 85/85/85
f 86/86/86 87/87/87 85/85/85
f 86/86/86 88/88/88 87/87/87
f 91/91/91 90/90/90 89/89/89
f 91/91/91 92/92/92 90/90/90
f 92/92/92 93/93/93 90/90/90
f 92/92/92 94/94/94 93/93/93
