g plate
v -0.04046927 -0.002541542 -0.05610956
v -0.04046927 0.006451622 -0.05610956
v -0.06588475 0.006451622 -0.0213099
v -0.06588475 -0.002541542 -0.0213099
v -0.06588475 -0.002541542 -0.0213099
v -0.06588475 0.006451622 -0.0213099
v -0.06588475 0.006451622 0.02130991
v -0.06588475 -0.002541542 0.02130991
v -0.06588475 -0.002541542 0.02130991
v -0.06588475 0.006451622 0.02130991
v -0.04046927 0.006451622 0.05610956
v -0.04046927 -0.002541542 0.05610956
v -0.04046927 -0.002541542 0.05610956
v -0.04046927 0.006451622 0.05610956
v -0.0001955032 0.006451622 0.06901281
v -0.0001955032 -0.002541542 0.06901281
v -0.0001955032 -0.002541542 0.06901281
v -0.0001955032 0.006451622 0.06901281
v 0.04046926 0.006451622 0.05610956
v 0.04046926 -0.002541542 0.05610956
v 0.04046926 -0.002541542 0.05610956
v 0.04046926 0.006451622 0.05610956
v 0.06588475 0.006451622 0.02130991
v 0.06588475 -0.002541542 0.02130991
v 0.06588475 -0.002541542 0.02130991
v 0.06588475 0.006451622 0.02130991
v 0.06588475 0.006451622 -0.0213099
v 0.06588475 -0.002541542 -0.0213099
v 0.06588475 -0.002541542 -0.0213099
v 0.06588475 0.006451622 -0.0213099
v 0.04046926 0.006451622 -0.05610956
v 0.04046926 -0.002541542 -0.05610956
v 0.04046926 -0.002541542 -0.05610956
v 0.04046926 0.006451622 -0.05610956
v -0.0001955032 0.006451622 -0.06901281
v -0.0001955032 -0.002541542 -0.06901281
v -0.0001955032 -0.002541542 -0.06901281
v -0.0001955032 0.006451622 -0.06901281
v -0.04046927 0.006451622 -0.05610956
v -0.04046927 -0.002541542 -0.05610956
v -0.09247325 0.026002 -0.1800589
v -0.1128056 0.03499517 -0.1554255
v -0.1128056 0.026002 -0.1554255
v -0.09247325 0.03499517 -0.1800589
v -0.03069408 0.03499517 -0.2000003
v -0.03069408 0.026002 -0.2000003
v -0.0001955032 0.026002 -0.1921802
v -0.0001955032 0.03499517 -0.1921802
v 0.03069408 0.026002 -0.2000003
v 0.03069408 0.03499517 -0.2000003
v 0.09247325 0.03499517 -0.1800589
v 0.09247325 0.026002 -0.1800589
v 0.1128056 0.026002 -0.1554255
v 0.1128056 0.03499517 -0.1554255
v 0.1425222 0.026002 -0.1436952
v 0.1425222 0.03499517 -0.1436952
v 0.1808409 0.03499517 -0.09130023
v 0.1808409 0.026002 -0.09130023
v 0.182796 0.026002 -0.05923763
v 0.182796 0.03499517 -0.05923763
v 0.1996093 0.026002 -0.03264911
v 0.1996093 0.03499517 -0.03264911
v 0.1996093 0.03499517 0.03264913
v 0.1996093 0.026002 0.03264913
v 0.182796 0.026002 0.05923764
v 0.182796 0.03499517 0.05923764
v 0.1808409 0.026002 0.09130023
v 0.1808409 0.03499517 0.09130023
v 0.1425222 0.03499517 0.1436953
v 0.1425222 0.026002 0.1436953
v 0.1128056 0.026002 0.1554255
v 0.1128056 0.03499517 0.1554255
v 0.09247325 0.026002 0.1800589
v 0.09247325 0.03499517 0.1800589
v 0.03069408 0.03499517 0.2000003
v 0.03069408 0.026002 0.2000003
v -0.0001955032 0.026002 0.1921802
v -0.0001955032 0.03499517 0.1921802
v -0.03069408 0.026002 0.2000003
v -0.03069408 0.03499517 0.2000003
v -0.09247325 0.03499517 0.1800589
v -0.09247325 0.026002 0.1800589
v -0.1128056 0.026002 0.1554255
v -0.1128056 0.03499517 0.1554255
v -0.1425222 0.026002 0.1436953
v -0.1425222 0.03499517 0.1436953
v -0.180841 0.03499517 0.09130023
v -0.180841 0.026002 0.09130023
v -0.182796 0.026002 0.05923764
v -0.182796 0.03499517 0.05923764
v -0.1996093 0.026002 0.03264913
v -0.1996093 0.03499517 0.03264913
v -0.1996093 0.03499517 -0.03264911
v -0.1996093 0.026002 -0.03264911
v -0.182796 0.026002 -0.05923763
v -0.182796 0.03499517 -0.05923763
v -0.180841 0.026002 -0.09130023
v -0.180841 0.03499517 -0.09130023
v -0.1425222 0.03499517 -0.1436952
v -0.1425222 0.026002 -0.1436952
v -0.1128056 0.026002 -0.1554255
v -0.1128056 0.03499517 -0.1554255
v -0.04046927 0.006451622 -0.05610956
v -0.1128056 0.026002 -0.1554255
v -0.1425222 0.026002 -0.1436952
v -0.180841 0.026002 -0.09130023
v -0.06588475 0.006451622 -0.0213099
v -0.182796 0.026002 -0.05923763
v -0.1996093 0.026002 -0.03264911
v -0.1996093 0.026002 0.03264913
v -0.06588475 0.006451622 0.02130991
v -0.182796 0.026002 0.05923764
v -0.180841 0.026002 0.09130023
v -0.1425222 0.026002 0.1436953
v -0.04046927 0.006451622 0.05610956
v -0.1128056 0.026002 0.1554255
v -0.09247325 0.026002 0.1800589
v -0.03069408 0.026002 0.2000003
v -0.0001955032 0.006451622 0.06901281
v -0.0001955032 0.026002 0.1921802
v 0.03069408 0.026002 0.2000003
v 0.09247325 0.026002 0.1800589
v 0.04046926 0.006451622 0.05610956
v 0.1128056 0.026002 0.1554255
v 0.1425222 0.026002 0.1436953
v 0.1808409 0.026002 0.09130023
v 0.06588475 0.006451622 0.02130991
v 0.182796 0.026002 0.05923764
v 0.1996093 0.026002 0.03264913
v 0.1996093 0.026002 -0.03264911
v 0.06588475 0.006451622 -0.0213099
v 0.182796 0.026002 -0.05923763
v 0.1808409 0.026002 -0.09130023
v 0.1425222 0.026002 -0.1436952
v 0.04046926 0.006451622 -0.05610956
v 0.1128056 0.026002 -0.1554255
v 0.09247325 0.026002 -0.1800589
v 0.03069408 0.026002 -0.2000003
v -0.0001955032 0.006451622 -0.06901281
v -0.0001955032 0.026002 -0.1921802
v -0.03069408 0.026002 -0.2000003
v -0.09247325 0.026002 -0.1800589
v -0.04046927 0.006451622 -0.05610956
v -0.1128056 0.026002 -0.1554255
v -0.04046927 0.01583581 -0.05610956
v -0.1128056 0.03499517 -0.1554255
v -0.09247325 0.03499517 -0.1800589
v -0.03069408 0.03499517 -0.2000003
v -0.0001955032 0.01583581 -0.06901281
v -0.0001955032 0.03499517 -0.1921802
v 0.03069408 0.03499517 -0.2000003
v 0.09247325 0.03499517 -0.1800589
v 0.04046926 0.01583581 -0.05610956
v 0.1128056 0.03499517 -0.1554255
v 0.1425222 0.03499517 -0.1436952
v 0.1808409 0.03499517 -0.09130023
v 0.06588475 0.01583581 -0.0213099
v 0.182796 0.03499517 -0.05923763
v 0.1996093 0.03499517 -0.03264911
v 0.1996093 0.03499517 0.03264913
v 0.06588475 0.01583581 0.02130991
v 0.182796 0.03499517 0.05923764
v 0.1808409 0.03499517 0.09130023
v 0.1425222 0.03499517 0.1436953
v 0.04046926 0.01583581 0.05610956
v 0.1128056 0.03499517 0.1554255
v 0.09247325 0.03499517 0.1800589
v 0.03069408 0.03499517 0.2000003
v -0.0001955032 0.01583581 0.06901281
v -0.0001955032 0.03499517 0.1921802
v -0.03069408 0.03499517 0.2000003
v -0.09247325 0.03499517 0.1800589
v -0.04046927 0.01583581 0.05610956
v -0.1128056 0.03499517 0.1554255
v -0.1425222 0.03499517 0.1436953
v -0.180841 0.03499517 0.09130023
v -0.06588475 0.01583581 0.02130991
v -0.182796 0.03499517 0.05923764
v -0.1996093 0.03499517 0.03264913
v -0.1996093 0.03499517 -0.03264911
v -0.06588475 0.01583581 -0.0213099
v -0.182796 0.03499517 -0.05923763
v -0.180841 0.03499517 -0.09130023
v -0.1425222 0.03499517 -0.1436952
v -0.04046927 0.01583581 -0.05610956
v -0.1128056 0.03499517 -0.1554255
v -0.0001955032 -0.002541542 -0.06901281
v -0.0001955032 -0.002541542 0.0001955032
v 0.04046926 -0.002541542 -0.05610956
v -0.04046927 -0.002541542 -0.05610956
v 0.06588475 -0.002541542 -0.0213099
v -0.06588475 -0.002541542 -0.0213099
v 0.06588475 -0.002541542 0.02130991
v -0.06588475 -0.002541542 0.02130991
v 0.04046926 -0.002541542 0.05610956
v -0.04046927 -0.002541542 0.05610956
v -0.0001955032 -0.002541542 0.06901281
v 0.04046926 0.01583581 -0.05610956
v -0.0001955032 0.01583581 0.0001955032
v -0.0001955032 0.01583581 -0.06901281
v 0.06588475 0.01583581 -0.0213099
v -0.04046927 0.01583581 -0.05610956
v 0.06588475 0.01583581 0.02130991
v -0.06588475 0.01583581 -0.0213099
v 0.04046926 0.01583581 0.05610956
v -0.06588475 0.01583581 0.02130991
v -0.0001955032 0.01583581 0.06901281
v -0.04046927 0.01583581 0.05610956
vt 0.9358114 0.8780795
vt 0.9358114 0.882223
vt 0.9363639 0.8819467
vt 0.9363639 0.8780795
vt 0.9363639 0.8780795
vt 0.9363639 0.8819467
vt 0.9369164 0.8819467
vt 0.9369164 0.8780795
vt 0.9369164 0.8780795
vt 0.9369164 0.8819467
vt 0.9374688 0.8819467
vt 0.9374688 0.8780795
vt 0.9374688 0.8780795
vt 0.9374688 0.8819467
vt 0.9380212 0.8819467
vt 0.9380212 0.8780795
vt 0.9380212 0.8780795
vt 0.9380212 0.8819467
vt 0.9382975 0.8819467
vt 0.9385737 0.8780795
vt 0.9385737 0.8780795
vt 0.9382975 0.8819467
vt 0.9388499 0.8819467
vt 0.9391261 0.8780795
vt 0.9391261 0.8780795
vt 0.9388499 0.8819467
vt 0.9394024 0.8819467
vt 0.9396786 0.8780795
vt 0.9396786 0.8780795
vt 0.9394024 0.8819467
vt 0.9399549 0.8819467
vt 0.9402311 0.8780795
vt 0.9402311 0.8780795
vt 0.9399549 0.8819467
vt 0.9405073 0.8819467
vt 0.9407836 0.8780795
vt 0.9407836 0.8780795
vt 0.9405073 0.8819467
vt 0.9410598 0.882223
vt 0.941336 0.8780795
vt 0.9410598 0.882223
vt 0.941336 0.8863664
vt 0.941336 0.882223
vt 0.9410598 0.8863664
vt 0.9407836 0.8863664
vt 0.9407836 0.882223
vt 0.9407836 0.882223
vt 0.9407836 0.8863664
vt 0.9405073 0.882223
vt 0.9405073 0.8863664
vt 0.9402311 0.8863664
vt 0.9402311 0.882223
vt 0.9402311 0.882223
vt 0.9402311 0.8863664
vt 0.9399549 0.882223
vt 0.9399549 0.8863664
vt 0.9396786 0.8863664
vt 0.9396786 0.882223
vt 0.9396786 0.882223
vt 0.9396786 0.8863664
vt 0.9394024 0.882223
vt 0.9394024 0.8863664
vt 0.9391261 0.8863664
vt 0.9391261 0.882223
vt 0.9391261 0.882223
vt 0.9391261 0.8863664
vt 0.9388499 0.882223
vt 0.9388499 0.8863664
vt 0.9385737 0.8863664
vt 0.9385737 0.882223
vt 0.9385737 0.882223
vt 0.9385737 0.8863664
vt 0.9382975 0.882223
vt 0.9382975 0.8863664
vt 0.9380212 0.8863664
vt 0.9380212 0.882223
vt 0.9380212 0.882223
vt 0.9380212 0.8863664
vt 0.937745 0.882223
vt 0.937745 0.8863664
vt 0.9374688 0.8863664
vt 0.9374688 0.882223
vt 0.9374688 0.882223
vt 0.9374688 0.8863664
vt 0.9371926 0.882223
vt 0.9371926 0.8863664
vt 0.9369164 0.8863664
vt 0.9369164 0.882223
vt 0.9369164 0.882223
vt 0.9369164 0.8863664
vt 0.9366401 0.882223
vt 0.9366401 0.8863664
vt 0.9363639 0.8863664
vt 0.9363639 0.882223
vt 0.9363639 0.882223
vt 0.9363639 0.8863664
vt 0.9360876 0.882223
vt 0.9360876 0.8863664
vt 0.9358114 0.8863664
vt 0.9358114 0.882223
vt 0.9358114 0.882223
vt 0.9358114 0.8863664
vt 0.9358114 0.882223
vt 0.9358114 0.882223
vt 0.9358114 0.882223
vt 0.9360876 0.882223
vt 0.9363639 0.8819467
vt 0.9363639 0.882223
vt 0.9363639 0.882223
vt 0.9366401 0.882223
vt 0.9369164 0.8819467
vt 0.9369164 0.882223
vt 0.9369164 0.882223
vt 0.9371926 0.882223
vt 0.9374688 0.8819467
vt 0.9374688 0.882223
vt 0.9374688 0.882223
vt 0.937745 0.882223
vt 0.9380212 0.8819467
vt 0.9380212 0.882223
vt 0.9380212 0.882223
vt 0.9382975 0.882223
vt 0.9382975 0.8819467
vt 0.9385737 0.882223
vt 0.9385737 0.882223
vt 0.9388499 0.882223
vt 0.9388499 0.8819467
vt 0.9391261 0.882223
vt 0.9391261 0.882223
vt 0.9394024 0.882223
vt 0.9394024 0.8819467
vt 0.9396786 0.882223
vt 0.9396786 0.882223
vt 0.9399549 0.882223
vt 0.9399549 0.8819467
vt 0.9402311 0.882223
vt 0.9402311 0.882223
vt 0.9405073 0.882223
vt 0.9405073 0.8819467
vt 0.9407836 0.882223
vt 0.9407836 0.882223
vt 0.9410598 0.882223
vt 0.9410598 0.882223
vt 0.941336 0.882223
vt 0.9410598 0.8863664
vt 0.941336 0.8863664
vt 0.9410598 0.8863664
vt 0.9407836 0.8863664
vt 0.9407836 0.8863664
vt 0.9407836 0.8863664
vt 0.9405073 0.8863664
vt 0.9402311 0.8863664
vt 0.9402311 0.8863664
vt 0.9402311 0.8863664
vt 0.9399549 0.8863664
vt 0.9396786 0.8863664
vt 0.9396786 0.8863664
vt 0.9396786 0.8863664
vt 0.9394024 0.8863664
vt 0.9391261 0.8863664
vt 0.9391261 0.8863664
vt 0.9391261 0.8863664
vt 0.9388499 0.8863664
vt 0.9385737 0.8863664
vt 0.9385737 0.8863664
vt 0.9385737 0.8863664
vt 0.9382975 0.8863664
vt 0.9380212 0.8863664
vt 0.9380212 0.8863664
vt 0.9380212 0.8863664
vt 0.937745 0.8863664
vt 0.9374688 0.8863664
vt 0.9374688 0.8863664
vt 0.9374688 0.8863664
vt 0.9371926 0.8863664
vt 0.9369164 0.8863664
vt 0.9369164 0.8863664
vt 0.9369164 0.8863664
vt 0.9366401 0.8863664
vt 0.9363639 0.8863664
vt 0.9363639 0.8863664
vt 0.9363639 0.8863664
vt 0.9360876 0.8863664
vt 0.9358114 0.8863664
vt 0.9358114 0.8863664
vt 0.9358114 0.8863664
vt 0.9418885 0.8747647
vt 0.9385737 0.8744885
vt 0.941336 0.8766984
vt 0.941336 0.8728312
vt 0.9394024 0.8780795
vt 0.9394024 0.87145
vt 0.9374688 0.8780795
vt 0.9374688 0.87145
vt 0.9355352 0.8766984
vt 0.9355352 0.8728312
vt 0.9349827 0.8747647
vt 0.941336 0.8880237
vt 0.9385737 0.8896812
vt 0.9418885 0.8899574
vt 0.9394024 0.8866426
vt 0.941336 0.8918909
vt 0.9374688 0.8866426
vt 0.9394024 0.8932721
vt 0.9355352 0.8880237
vt 0.9374688 0.8932721
vt 0.9349827 0.8899574
vt 0.9355352 0.8918909
vn -0.8094218 0.01587105 -0.5870132
vn -0.8094218 0.01587105 -0.5870132
vn -0.8094218 0.01587105 -0.5870132
vn -0.8094218 0.01587105 -0.5870132
vn -0.999874 0.01587105 -0.0003439156
vn -0.999874 0.01587105 -0.0003439156
vn -0.999874 0.01587105 -0.0003439156
vn -0.999874 0.01587105 -0.0003439156
vn -0.8094218 0.01587105 0.5870132
vn -0.8094218 0.01587105 0.5870132
vn -0.8094218 0.01587105 0.5870132
vn -0.8094218 0.01587105 0.5870132
vn -0.3015493 0.01587105 0.9533185
vn -0.3015493 0.01587105 0.9533185
vn -0.3015493 0.01587105 0.9533185
vn -0.3015493 0.01587105 0.9533185
vn 0.3015493 0.01587105 0.9533185
vn 0.3015493 0.01587105 0.9533185
vn 0.3015493 0.01587105 0.9533185
vn 0.3015493 0.01587105 0.9533185
vn 0.8094218 0.01587105 0.5870132
vn 0.8094218 0.01587105 0.5870132
vn 0.8094218 0.01587105 0.5870132
vn 0.8094218 0.01587105 0.5870132
vn 0.999874 0.01587105 -0.0003439156
vn 0.999874 0.01587105 -0.0003439156
vn 0.999874 0.01587105 -0.0003439156
vn 0.999874 0.01587105 -0.0003439156
vn 0.8094218 0.01587105 -0.5870132
vn 0.8094218 0.01587105 -0.5870132
vn 0.8094218 0.01587105 -0.5870132
vn 0.8094218 0.01587105 -0.5870132
vn 0.3015493 0.01587105 -0.9533185
vn 0.3015493 0.01587105 -0.9533185
vn 0.3015493 0.01587105 -0.9533185
vn 0.3015493 0.01587105 -0.9533185
vn -0.3015493 0.01587105 -0.9533185
vn -0.3015493 0.01587105 -0.9533185
vn -0.3015493 0.01587105 -0.9533185
vn -0.3015493 0.01587105 -0.9533185
vn -0.4920015 0.01587105 -0.8704497
vn -0.5872276 0.01587105 -0.8092663
vn -0.5872276 0.01587105 -0.8092663
vn -0.4920015 0.01587105 -0.8704497
vn -0.1428392 0.01587105 -0.9896187
vn -0.1428392 0.01587105 -0.9896187
vn 0.01587099 0.01587105 -0.9997481
vn 0.01587099 0.01587105 -0.9997481
vn 0.1428391 0.01587105 -0.9896187
vn 0.1428391 0.01587105 -0.9896187
vn 0.4920015 0.01587105 -0.8704497
vn 0.4920015 0.01587105 -0.8704497
vn 0.5872276 0.01587105 -0.8092663
vn 0.5872276 0.01587105 -0.8092663
vn 0.6824536 0.01587105 -0.7307566
vn 0.6824536 0.01587105 -0.7307566
vn 0.9046479 0.01587105 -0.4258642
vn 0.9046479 0.01587105 -0.4258642
vn 0.9363899 0.01587105 -0.3506023
vn 0.9363899 0.01587105 -0.3506023
vn 0.968132 0.01587105 -0.2499373
vn 0.968132 0.01587105 -0.2499373
vn 0.968132 0.01587105 0.2499373
vn 0.968132 0.01587105 0.2499373
vn 0.9363899 0.01587105 0.3506023
vn 0.9363899 0.01587105 0.3506023
vn 0.9046479 0.01587105 0.4258642
vn 0.9046479 0.01587105 0.4258642
vn 0.6824536 0.01587105 0.7307566
vn 0.6824536 0.01587105 0.7307566
vn 0.5872276 0.01587105 0.8092663
vn 0.5872276 0.01587105 0.8092663
vn 0.4920015 0.01587105 0.8704497
vn 0.4920015 0.01587105 0.8704497
vn 0.1428391 0.01587105 0.9896187
vn 0.1428391 0.01587105 0.9896187
vn -0.01587105 0.01587105 0.9997481
vn -0.01587105 0.01587105 0.9997481
vn -0.1428392 0.01587105 0.9896187
vn -0.1428392 0.01587105 0.9896187
vn -0.4920015 0.01587105 0.8704497
vn -0.4920015 0.01587105 0.8704497
vn -0.5872276 0.01587105 0.8092663
vn -0.5872276 0.01587105 0.8092663
vn -0.6824538 0.01587105 0.7307565
vn -0.6824538 0.01587105 0.7307565
vn -0.9046479 0.01587105 0.425864
vn -0.9046479 0.01587105 0.425864
vn -0.9363899 0.01587105 0.3506023
vn -0.9363899 0.01587105 0.3506023
vn -0.968132 0.01587105 0.249937
vn -0.968132 0.01587105 0.249937
vn -0.968132 0.01587105 -0.249937
vn -0.968132 0.01587105 -0.249937
vn -0.9363899 0.01587105 -0.3506023
vn -0.9363899 0.01587105 -0.3506023
vn -0.9046479 0.01587105 -0.425864
vn -0.9046479 0.01587105 -0.425864
vn -0.6824538 0.01587105 -0.7307565
vn -0.6824538 0.01587105 -0.7307565
vn -0.5872276 0.01587105 -0.8092663
vn -0.5872276 0.01587105 -0.8092663
vn -0.07911634 -0.9968654 0
vn -0.07911634 -0.9968654 0
vn -0.1104315 -0.9938838 0
vn -0.1104315 -0.9938838 0
vn -0.1414214 -0.9899495 0
vn -0.1414214 -0.9899495 0
vn -0.1414214 -0.9899495 0
vn -0.1414214 -0.9899495 0
vn -0.1414214 -0.9899495 0
vn -0.1414214 -0.9899495 0
vn -0.1104315 -0.9938838 0
vn -0.1104315 -0.9938838 0
vn -0.07911634 -0.9968654 0
vn -0.07911634 -0.9968654 0
vn -0.04756513 -0.9988682 0
vn -0.01587105 -0.999874 -0.000345267
vn -0.01587105 -0.999874 -0.000345267
vn -0.01587105 -0.999874 -0.000345267
vn 0.01587099 -0.999874 -0.000345267
vn 0.04756513 -0.9988682 0
vn 0.07911628 -0.9968654 0
vn 0.07911628 -0.9968654 0
vn 0.1104315 -0.9938838 0
vn 0.1104315 -0.9938838 0
vn 0.1414213 -0.9899495 0
vn 0.1414213 -0.9899495 0
vn 0.1414213 -0.9899495 0
vn 0.1414213 -0.9899495 0
vn 0.1414213 -0.9899495 0
vn 0.1414213 -0.9899495 0
vn 0.1104315 -0.9938838 0
vn 0.1104315 -0.9938838 0
vn 0.07911628 -0.9968654 0
vn 0.07911628 -0.9968654 0
vn 0.04756513 -0.9988682 0
vn 0.01587099 -0.999874 -0.000345267
vn -0.01587105 -0.999874 -0.000345267
vn -0.01587105 -0.999874 -0.000345267
vn -0.01587105 -0.999874 -0.000345267
vn -0.04756513 -0.9988682 0
vn -0.07911634 -0.9968654 0
vn -0.07911634 -0.9968654 0
vn 0.07911628 0.9968654 0
vn 0.07911628 0.9968654 0
vn 0.04756513 0.9988682 0
vn 0.01587099 0.999874 -0.000345267
vn -0.01587105 0.999874 -0.000345267
vn -0.01587105 0.999874 -0.000345267
vn -0.01587105 0.999874 -0.000345267
vn -0.04756513 0.9988682 0
vn -0.07911634 0.9968654 0
vn -0.07911634 0.9968654 0
vn -0.1104315 0.9938838 0
vn -0.1104315 0.9938838 0
vn -0.1104315 0.9938838 0
vn -0.1414214 0.9899495 0
vn -0.1414214 0.9899495 0
vn -0.1414214 0.9899495 0
vn -0.1104315 0.9938838 0
vn -0.1414214 0.9899495 0
vn -0.1104315 0.9938838 0
vn -0.1104315 0.9938838 0
vn -0.07911634 0.9968654 0
vn -0.07911634 0.9968654 0
vn -0.04756513 0.9988682 0
vn -0.01587105 0.999874 -0.000345267
vn -0.01587105 0.999874 -0.000345267
vn -0.01587105 0.999874 -0.000345267
vn 0.01587099 0.999874 -0.000345267
vn 0.04756513 0.9988682 0
vn 0.07911628 0.9968654 0
vn 0.07911628 0.9968654 0
vn 0.1104315 0.9938838 0
vn 0.1104315 0.9938838 0
vn 0.1104315 0.9938838 0
vn 0.1414213 0.9899495 0
vn 0.1414213 0.9899495 0
vn 0.1414213 0.9899495 0
vn 0.1104315 0.9938838 0
vn 0.1414213 0.9899495 0
vn 0.1104315 0.9938838 0
vn 0.1104315 0.9938838 0
vn 0.07911628 0.9968654 0
vn 0.07911628 0.9968654 0
vn -0.01587105 -0.999874 -0.000345267
vn -0.01587105 -0.999874 -0.000345267
vn -0.01587105 -0.999874 -0.000345267
vn -0.01587105 -0.999874 -0.000345267
vn -0.01587105 -0.999874 -0.000345267
vn -0.01587105 -0.999874 -0.000345267
vn -0.01587105 -0.999874 -0.000345267
vn -0.01587105 -0.999874 -0.000345267
vn -0.01587105 -0.999874 -0.000345267
vn -0.01587105 -0.999874 -0.000345267
vn -0.01587105 -0.999874 -0.000345267
vn -0.07911634 0.9968654 0
vn -0.01587105 0.999874 -0.000345267
vn -0.01587105 0.999874 -0.000345267
vn -0.1104315 0.9938838 0
vn 0.07911628 0.9968654 0
vn -0.1104315 0.9938838 0
vn 0.1104315 0.9938838 0
vn -0.07911634 0.9968654 0
vn 0.1104315 0.9938838 0
vn -0.01587105 0.999874 -0.000345267
vn 0.07911628 0.9968654 0
g plate_0
f 3/3/3 2/2/2 1/1/1
f 4/4/4 3/3/3 1/1/1
f 7/7/7 6/6/6 5/5/5
f 8/8/8 7/7/7 5/5/5
f 11/11/11 10/10/10 9/9/9
f 12/12/12 11/11/11 9/9/9
f 15/15/15 14/14/14 13/13/13
f 16/16/16 15/15/15 13/13/13
f 19/19/19 18/18/18 17/17/17
f 20/20/20 19/19/19 17/17/17
f 23/23/23 22/22/22 21/21/21
f 24/24/24 23/23/23 21/21/21
f 27/27/27 26/26/26 25/25/25
f 28/28/28 27/27/27 25/25/25
f 31/31/31 30/30/30 29/29/29
f 32/32/32 31/31/31 29/29/29
f 35/35/35 34/34/34 33/33/33
f 36/36/36 35/35/35 33/33/33
f 39/39/39 38/38/38 37/37/37
f 40/40/40 39/39/39 37/37/37
f 43/43/43 42/42/42 41/41/41
f 42/42/42 44/44/44 41/41/41
f 41/41/41 44/44/44 45/45/45
f 46/46/46 41/41/41 45/45/45
f 46/46/46 45/45/45 47/47/47
f 45/45/45 48/48/48 47/47/47
f 47/47/47 48/48/48 49/49/49
f 48/48/48 50/50/50 49/49/49
f 49/49/49 50/50/50 51/51/51
f 52/52/52 49/49/49 51/51/51
f 52/52/52 51/51/51 53/53/53
f 51/51/51 54/54/54 53/53/53
f 53/53/53 54/54/54 55/55/55
f 54/54/54 56/56/56 55/55/55
f 55/55/55 56/56/56 57/57/57
f 58/58/58 55/55/55 57/57/57
f 58/58/58 57/57/57 59/59/59
f 57/57/57 60/60/60 59/59/59
f 59/59/59 60/60/60 61/61/61
f 60/60/60 62/62/62 61/61/61
f 61/61/61 62/62/62 63/63/63
f 64/64/64 61/61/61 63/63/63
f 64/64/64 63/63/63 65/65/65
f 63/63/63 66/66/66 65/65/65
f 65/65/65 66/66/66 67/67/67
f 66/66/66 68/68/68 67/67/67
f 67/67/67 68/68/68 69/69/69
f 70/70/70 67/67/67 69/69/69
f 70/70/70 69/69/69 71/71/71
f 69/69/69 72/72/72 71/71/71
f 71/71/71 72/72/72 73/73/73
f 72/72/72 74/74/74 73/73/73
f 73/73/73 74/74/74 75/75/75
f 76/76/76 73/73/73 75/75/75
f 76/76/76 75/75/75 77/77/77
f 75/75/75 78/78/78 77/77/77
f 77/77/77 78/78/78 79/79/79
f 78/78/78 80/80/80 79/79/79
f 79/79/79 80/80/80 81/81/81
f 82/82/82 79/79/79 81/81/81
f 82/82/82 81/81/81 83/83/83
f 81/81/81 84/84/84 83/83/83
f 83/83/83 84/84/84 85/85/85
f 84/84/84 86/86/86 85/85/85
f 85/85/85 86/86/86 87/87/87
f 88/88/88 85/85/85 87/87/87
f 88/88/88 87/87/87 89/89/89
f 87/87/87 90/90/90 89/89/89
f 89/89/89 90/90/90 91/91/91
f 90/90/90 92/92/92 91/91/91
f 91/91/91 92/92/92 93/93/93
f 94/94/94 91/91/91 93/93/93
f 94/94/94 93/93/93 95/95/95
f 93/93/93 96/96/96 95/95/95
f 95/95/95 96/96/96 97/97/97
f 96/96/96 98/98/98 97/97/97
f 97/97/97 98/98/98 99/99/99
f 100/100/100 97/97/97 99/99/99
f 100/100/100 99/99/99 101/101/101
f 99/99/99 102/102/102 101/101/101
f 105/105/105 104/104/104 103/103/103
f 106/106/106 105/105/105 103/103/103
f 107/107/107 106/106/106 103/103/103
f 108/108/108 106/106/106 107/107/107
f 109/109/109 108/108/108 107/107/107
f 110/110/110 109/109/109 107/107/107
f 111/111/111 110/110/110 107/107/107
f 112/112/112 110/110/110 111/111/111
f 113/113/113 112/112/112 111/111/111
f 114/114/114 113/113/113 111/111/111
f 115/115/115 114/114/114 111/111/111
f 116/116/116 114/114/114 115/115/115
f 117/117/117 116/116/116 115/115/115
f 118/118/118 117/117/117 115/115/115
f 119/119/119 118/118/118 115/115/115
f 120/120/120 118/118/118 119/119/119
f 121/121/121 120/120/120 119/119/119
f 122/122/122 121/121/121 119/119/119
f 123/123/123 122/122/122 119/119/119
f 124/124/124 122/122/122 123/123/123
f 125/125/125 124/124/124 123/123/123
f 126/126/126 125/125/125 123/123/123
f 127/127/127 126/126/126 123/123/123
f 128/128/128 126/126/126 127/127/127
f 129/129/129 128/128/128 127/127/127
f 130/130/130 129/129/129 127/127/127
f 131/131/131 130/130/130 127/127/127
f 132/132/132 130/130/130 131/131/131
f 133/133/133 132/132/132 131/131/131
f 134/134/134 133/133/133 131/131/131
f 135/135/135 134/134/134 131/131/131
f 136/136/136 134/134/134 135/135/135
f 137/137/137 136/136/136 135/135/135
f 138/138/138 137/137/137 135/135/135
f 139/139/139 138/138/138 135/135/135
f 140/140/140 138/138/138 139/139/139
f 141/141/141 140/140/140 139/139/139
f 142/142/142 141/141/141 139/139/139
f 143/143/143 142/142/142 139/139/139
f 144/144/144 142/142/142 143/143/143
f 147/147/147 146/146/146 145/145/145
f 148/148/148 147/147/147 145/145/145
f 149/149/149 148/148/148 145/145/145
f 150/150/150 148/148/148 149/149/149
f 151/151/151 150/150/150 149/149/149
f 152/152/152 151/151/151 149/149/149
f 153/153/153 152/152/152 149/149/149
f 154/154/154 152/152/152 153/153/153
f 155/155/155 154/154/154 153/153/153
f 156/156/156 155/155/155 153/153/153
f 157/157/157 156/156/156 153/153/153
f 158/158/158 156/156/156 157/157/157
f 159/159/159 158/158/158 157/157/157
f 160/160/160 159/159/159 157/157/157
f 161/161/161 160/160/160 157/157/157
f 162/162/162 160/160/160 161/161/161
f 163/163/163 162/162/162 161/161/161
f 164/164/164 163/163/163 161/161/161
f 165/165/165 164/164/164 161/161/161
f 166/166/166 164/164/164 165/165/165
f 167/167/167 166/166/166 165/165/165
f 168/168/168 167/167/167 165/165/165
f 169/169/169 168/168/168 165/165/165
f 170/170/170 168/168/168 169/169/169
f 171/171/171 170/170/170 169/169/169
f 172/172/172 171/171/171 169/169/169
f 173/173/173 172/172/172 169/169/169
f 174/174/174 172/172/172 173/173/173
f 175/175/175 174/174/174 173/173/173
f 176/176/176 175/175/175 173/173/173
f 177/177/177 176/176/176 173/173/173
f 178/178/178 176/176/176 177/177/177
f 179/179/179 178/178/178 177/177/177
f 180/180/180 179/179/179 177/177/177
f 181/181/181 180/180/180 177/177/177
f 182/182/182 180/180/180 181/181/181
f 183/183/183 182/182/182 181/181/181
f 184/184/184 183/183/183 181/181/181
f 185/185/185 184/184/184 181/181/181
f 186/186/186 184/184/184 185/185/185
f 189/189/189 188/188/188 187/187/187
f 187/187/187 188/188/188 190/190/190
f 191/191/191 188/188/188 189/189/189
f 190/190/190 188/188/188 192/192/192
f 193/193/193 188/188/188 191/191/191
f 192/192/192 188/188/188 194/194/194
f 195/195/195 188/188/188 193/193/193
f 194/194/194 188/188/188 196/196/196
f 197/197/197 188/188/188 195/195/195
f 196/196/196 188/188/188 197/197/197
f 200/200/200 199/199/199 198/198/198
f 198/198/198 199/199/199 201/201/201
f 202/202/202 199/199/199 200/200/200
f 201/201/201 199/199/199 203/203/203
f 204/204/204 199/199/199 202/202/202
f 203/203/203 199/199/199 205/205/205
f 206/206/206 199/199/199 204/204/204
f 205/205/205 199/199/199 207/207/207
f 208/208/208 199/199/199 206/206/206
f 207/207/207 199/199/199 208/208/208
