g Platform-helper
v -1.531863 0 -1.727536
v 0.07509434 0 -2.292726
v 1.522383 0 -1.847287
v 2.031582 0 -0.8185565
v -2.145845 0 -0.1299834
v 2.031582 0 0.5825461
v -2.013618 0 0.9068741
v 1.208034 0 1.716061
v -1.052855 0 1.461588
v -0.124492 0 2.149025
v 0.07509434 0 -2.292726
v -1.531863 0 -1.727536
v -1.772421 -4.150853 -2.058635
v 0.07509434 -4.150853 -2.701988
v -2.535074 -4.150853 -0.2564517
v 1.522383 0 -1.847287
v -2.145845 0 -0.1299834
v 1.762941 -4.150853 -2.178387
v -2.402848 -4.150853 1.033343
v 2.031582 0 -0.8185565
v -2.013618 0 0.9068741
v 2.420813 -4.150853 -0.9450251
v -1.293413 -4.150853 1.792688
v 2.031582 0 0.5825461
v -1.052855 0 1.461588
v 2.420813 -4.150853 0.7090155
v -0.124492 -4.150853 2.558286
v 1.208034 0 1.716061
v -0.124492 0 2.149025
v 1.448592 -4.150853 2.047161
vt 0.5638328 0.6688368
vt 0.5638328 0.6688368
vt 0.5638328 0.6688368
vt 0.5638328 0.6688368
vt 0.5638328 0.6688368
vt 0.5638328 0.6688368
vt 0.5638328 0.6688368
vt 0.5638328 0.6688368
vt 0.5638328 0.6688368
vt 0.5638328 0.6688368
vt 0.5452532 0.6422876
vt 0.5452532 0.6422876
vt 0.5452532 0.6422876
vt 0.5452532 0.6422876
vt 0.5452532 0.6422876
vt 0.5452532 0.6422876
vt 0.5452532 0.6422876
vt 0.5452532 0.6422876
vt 0.5452532 0.6422876
vt 0.5452532 0.6422876
vt 0.5452532 0.6422876
vt 0.5452532 0.6422876
vt 0.5452532 0.6422876
vt 0.5452532 0.6422876
vt 0.5452532 0.6422876
vt 0.5452532 0.6422876
vt 0.5452532 0.6422876
vt 0.5452532 0.6422876
vt 0.5452532 0.6422876
vt 0.5452532 0.6422876
vn 0 1 0
vn 0 1 0
vn 0 1 0
vn 0 1 0
vn 0 1 0
vn 0 1 0
vn 0 1 0
vn 0 1 0
vn 0 1 0
vn 0 1 0
vn -0.01867057 0.09823117 -0.9949884
vn -0.6889424 0.1008551 -0.717765
vn -0.6840082 0.1008777 -0.7224655
vn -0.01795246 0.0982312 -0.9950016
vn -0.9860014 0.09457894 -0.1373172
vn 0.6401528 0.1005876 -0.7616342
vn -0.9867389 0.09460272 -0.1318962
vn 0.6375968 0.1005922 -0.7637745
vn -0.8466302 0.09950268 0.5227968
vn 0.967618 0.09550263 -0.2336548
vn -0.8396823 0.09941202 0.5339017
vn 0.9670882 0.09549754 -0.2358405
vn -0.5506169 0.08816933 0.8300887
vn 0.9464671 0.09812122 0.307526
vn -0.5507066 0.08817631 0.8300284
vn 0.9464671 0.09812122 0.307526
vn -0.1409365 0.101922 0.9847583
vn 0.5849487 0.09812121 0.8051132
vn -0.1489205 0.1018861 0.9835863
vn 0.5849487 0.09812122 0.8051133
g Platform-helper_0
f 3/3/3 2/2/2 1/1/1
f 1/1/1 4/4/4 3/3/3
f 1/1/1 5/5/5 4/4/4
f 5/5/5 6/6/6 4/4/4
f 5/5/5 7/7/7 6/6/6
f 7/7/7 8/8/8 6/6/6
f 7/7/7 9/9/9 8/8/8
f 9/9/9 10/10/10 8/8/8
f 13/13/13 12/12/12 11/11/11
f 14/14/14 13/13/13 11/11/11
f 13/13/13 15/15/15 12/12/12
f 14/14/14 11/11/11 16/16/16
f 15/15/15 17/17/17 12/12/12
f 18/18/18 14/14/14 16/16/16
f 15/15/15 19/19/19 17/17/17
f 18/18/18 16/16/16 20/20/20
f 19/19/19 21/21/21 17/17/17
f 22/22/22 18/18/18 20/20/20
f 19/19/19 23/23/23 21/21/21
f 22/22/22 20/20/20 24/24/24
f 23/23/23 25/25/25 21/21/21
f 26/26/26 22/22/22 24/24/24
f 23/23/23 27/27/27 25/25/25
f 26/26/26 24/24/24 28/28/28
f 27/27/27 29/29/29 25/25/25
f 30/30/30 26/26/26 28/28/28
f 30/30/30 28/28/28 29/29/29
f 27/27/27 30/30/30 29/29/29
