g Platform-small-base-lvl1
v -1.415916 0.00181073 -3.037266
v 1.415914 0.00181073 -3.037267
v 1.832121 0.00181073 -2.954478
v -1.832124 0.00181073 -2.954476
v 2.184965 0.00181073 -2.718714
v -2.184967 0.00181073 -2.718713
v 2.420728 0.00181073 -2.365872
v -2.42073 0.00181073 -2.36587
v 2.503517 0.00181073 -1.949664
v -2.503518 0.00181073 -1.949663
v 2.503518 0.00181073 1.949663
v -2.503517 0.00181073 1.949664
v 2.42073 0.00181073 2.36587
v -2.420728 0.00181073 2.365872
v 2.184967 0.00181073 2.718713
v -2.184965 0.00181073 2.718714
v 1.832124 0.00181073 2.954476
v -1.832121 0.00181073 2.954478
v 1.415916 0.00181073 3.037266
v -1.415914 0.00181073 3.037267
v 2.723563 -0.2772141 2.090549
v 2.723562 -0.2772141 -2.090551
v 2.903367 -3.126359 -2.225105
v 2.903369 -3.126359 2.225103
v -2.377012 -0.2772141 2.915174
v -1.993156 -0.2772141 3.167972
v -2.12474 -3.126359 3.371873
v -2.533939 -3.126359 3.102803
v 1.993158 -0.2772141 3.167971
v 2.377014 -0.2772141 2.915172
v 2.533941 -3.126359 3.102802
v 2.124743 -3.126359 3.371872
v -2.723563 -0.2772141 -2.090549
v -2.723562 -0.2772141 2.090551
v -2.903367 -3.126359 2.225105
v -2.903369 -3.126359 -2.225103
v 2.377012 -0.2772141 -2.915174
v 1.993156 -0.2772141 -3.167972
v 2.12474 -3.126359 -3.371874
v 2.533939 -3.126359 -3.102804
v 2.377014 -0.2772141 2.915172
v 2.633498 -0.2772141 2.536832
v 2.807357 -3.126359 2.700111
v 2.533941 -3.126359 3.102802
v -2.723562 -0.2772141 2.090551
v -2.633497 -0.2772141 2.536833
v -2.807355 -3.126359 2.700113
v -2.903367 -3.126359 2.225105
v 1.993156 -0.2772141 -3.167972
v 1.540365 -0.2772141 -3.256745
v 1.642058 -3.126359 -3.466359
v 2.12474 -3.126359 -3.371874
v 2.633498 -0.2772141 2.536832
v 2.723563 -0.2772141 2.090549
v 2.903369 -3.126359 2.225103
v 2.807357 -3.126359 2.700111
v -2.633497 -0.2772141 2.536833
v -2.377012 -0.2772141 2.915174
v -2.533939 -3.126359 3.102803
v -2.807355 -3.126359 2.700113
v 1.540365 -0.2772141 -3.256745
v -1.540367 -0.2772141 -3.256743
v -1.64206 -3.126359 -3.466358
v 1.642058 -3.126359 -3.466359
v -1.540367 -0.2772141 -3.256743
v -1.993158 -0.2772141 -3.167972
v -2.124743 -3.126359 -3.371872
v -1.64206 -3.126359 -3.466358
v -1.993156 -0.2772141 3.167972
v -1.540365 -0.2772141 3.256744
v -1.642058 -3.126359 3.466359
v -2.12474 -3.126359 3.371873
v -1.993158 -0.2772141 -3.167972
v -2.377014 -0.2772141 -2.915173
v -2.533941 -3.126359 -3.102802
v -2.124743 -3.126359 -3.371872
v -1.540365 -0.2772141 3.256744
v 1.540367 -0.2772141 3.256743
v 1.64206 -3.126359 3.466358
v -1.642058 -3.126359 3.466359
v -2.377014 -0.2772141 -2.915173
v -2.633498 -0.2772141 -2.536832
v -2.807357 -3.126359 -2.70011
v -2.533941 -3.126359 -3.102802
v 2.723562 -0.2772141 -2.090551
v 2.633497 -0.2772141 -2.536834
v 2.807355 -3.126359 -2.700112
v 2.903367 -3.126359 -2.225105
v 1.540367 -0.2772141 3.256743
v 1.993158 -0.2772141 3.167971
v 2.124743 -3.126359 3.371872
v 1.64206 -3.126359 3.466358
v -2.633498 -0.2772141 -2.536832
v -2.723563 -0.2772141 -2.090549
v -2.903369 -3.126359 -2.225103
v -2.807357 -3.126359 -2.70011
v 2.633497 -0.2772141 -2.536834
v 2.377012 -0.2772141 -2.915174
v 2.533939 -3.126359 -3.102804
v 2.807355 -3.126359 -2.700112
v 2.723562 -0.2772141 -2.090551
v 2.723563 -0.2772141 2.090549
v 2.616334 -0.1955863 2.037521
v 2.633498 -0.2772141 2.536832
v 2.616333 -0.1955863 -2.037523
v 2.529816 -0.1955863 2.472484
v 2.529814 -0.1955863 -2.472486
v 2.377014 -0.2772141 2.915172
v 2.633497 -0.2772141 -2.536834
v 2.283429 -0.1955863 2.841228
v 2.283427 -0.1955863 -2.84123
v 1.993158 -0.2772141 3.167971
v 2.377012 -0.2772141 -2.915174
v 1.914685 -0.1955863 3.087615
v 1.914683 -0.1955863 -3.087616
v 1.540367 -0.2772141 3.256743
v 1.993156 -0.2772141 -3.167972
v 1.479722 -0.1955863 3.174135
v 1.47972 -0.1955863 -3.174136
v -1.540365 -0.2772141 3.256744
v 1.540365 -0.2772141 -3.256745
v -1.47972 -0.1955863 3.174136
v -1.479722 -0.1955863 -3.174135
v -1.993156 -0.2772141 3.167972
v -1.540367 -0.2772141 -3.256743
v -1.914683 -0.1955863 3.087616
v -1.914685 -0.1955863 -3.087615
v -2.377012 -0.2772141 2.915174
v -1.993158 -0.2772141 -3.167972
v -2.283427 -0.1955863 2.84123
v -2.283429 -0.1955863 -2.841228
v -2.633497 -0.2772141 2.536833
v -2.377014 -0.2772141 -2.915173
v -2.529814 -0.1955863 2.472486
v -2.529816 -0.1955863 -2.472484
v -2.633498 -0.2772141 -2.536832
v -2.723562 -0.2772141 2.090551
v -2.616333 -0.1955863 2.037523
v -2.616334 -0.1955863 -2.037521
v -2.723563 -0.2772141 -2.090549
v -2.42073 0.00181073 -2.36587
v -2.503518 0.00181073 -1.949663
v -2.616334 -0.1955863 -2.037521
v -2.529816 -0.1955863 -2.472484
v -2.616333 -0.1955863 2.037523
v -2.184967 0.00181073 -2.718713
v -2.503517 0.00181073 1.949664
v -2.283429 -0.1955863 -2.841228
v -2.529814 -0.1955863 2.472486
v -1.832124 0.00181073 -2.954476
v -2.420728 0.00181073 2.365872
v -1.914685 -0.1955863 -3.087615
v -2.283427 -0.1955863 2.84123
v -1.415916 0.00181073 -3.037266
v -2.184965 0.00181073 2.718714
v -1.479722 -0.1955863 -3.174135
v -1.914683 -0.1955863 3.087616
v 1.415914 0.00181073 -3.037267
v -1.832121 0.00181073 2.954478
v 1.47972 -0.1955863 -3.174136
v -1.47972 -0.1955863 3.174136
v 1.832121 0.00181073 -2.954478
v -1.415914 0.00181073 3.037267
v 1.914683 -0.1955863 -3.087616
v 1.479722 -0.1955863 3.174135
v 2.184965 0.00181073 -2.718714
v 1.415916 0.00181073 3.037266
v 2.283427 -0.1955863 -2.84123
v 1.914685 -0.1955863 3.087615
v 2.420728 0.00181073 -2.365872
v 1.832124 0.00181073 2.954476
v 2.529814 -0.1955863 -2.472486
v 2.283429 -0.1955863 2.841228
v 2.503517 0.00181073 -1.949664
v 2.184967 0.00181073 2.718713
v 2.616333 -0.1955863 -2.037523
v 2.529816 -0.1955863 2.472484
v 2.503518 0.00181073 1.949663
v 2.42073 0.00181073 2.36587
v 2.616334 -0.1955863 2.037521
vt 0.3174774 0.7163632
vt 0.3174774 0.7163632
vt 0.3174774 0.7163632
vt 0.3174774 0.7163632
vt 0.3174774 0.7163632
vt 0.3174774 0.7163632
vt 0.3174774 0.7163632
vt 0.3174774 0.7163632
vt 0.3174774 0.7163632
vt 0.3174774 0.7163632
vt 0.3174774 0.7163632
vt 0.3174774 0.7163632
vt 0.3174774 0.7163632
vt 0.3174774 0.7163632
vt 0.3174774 0.7163632
vt 0.3174774 0.7163632
vt 0.3174774 0.7163632
vt 0.3174774 0.7163632
vt 0.3174774 0.7163632
vt 0.3174774 0.7163632
vt 0.9745025 0.7298493
vt 0.9123095 0.7298493
vt 0.9103081 0.6873846
vt 0.976504 0.6873846
vt 0.9301254 0.729848
vt 0.9369932 0.7298475
vt 0.9370242 0.687121
vt 0.9297065 0.687121
vt 0.9369875 0.7298475
vt 0.9301197 0.729848
vt 0.9297008 0.687121
vt 0.9370185 0.687121
vt 0.9126332 0.7294958
vt 0.9741789 0.7294958
vt 0.9761595 0.6874731
vt 0.9106526 0.6874731
vt 0.9365996 0.729848
vt 0.9297318 0.7298475
vt 0.9297008 0.687121
vt 0.9370185 0.687121
vt 0.930143 0.7297583
vt 0.9369578 0.729848
vt 0.9369578 0.687216
vt 0.9297008 0.687121
vt 0.9298245 0.729848
vt 0.9365885 0.7296199
vt 0.9370242 0.687121
vt 0.9298245 0.6873636
vt 0.9301539 0.729705
vt 0.9370242 0.729848
vt 0.9370242 0.6872736
vt 0.9297008 0.687121
vt 0.9301365 0.7296199
vt 0.9369005 0.729848
vt 0.9369005 0.6873636
vt 0.9297008 0.687121
vt 0.9297672 0.729848
vt 0.9365821 0.7297583
vt 0.9370242 0.687121
vt 0.9297672 0.687216
vt 0.9248983 0.7301717
vt 0.9716719 0.7301717
vt 0.9732158 0.6867972
vt 0.9233543 0.6867972
vt 0.9370242 0.729848
vt 0.9301539 0.729705
vt 0.9297008 0.687121
vt 0.9370242 0.6872736
vt 0.9365711 0.729705
vt 0.9297008 0.729848
vt 0.9297008 0.6872736
vt 0.9370242 0.687121
vt 0.9369875 0.7298475
vt 0.9301197 0.729848
vt 0.9297008 0.687121
vt 0.9370185 0.687121
vt 0.9250203 0.7300585
vt 0.9715498 0.7300585
vt 0.9730856 0.6869105
vt 0.9234844 0.6869105
vt 0.9365157 0.7297583
vt 0.9297008 0.729848
vt 0.9297008 0.687216
vt 0.9369578 0.687121
vt 0.9369005 0.729848
vt 0.9301365 0.7296199
vt 0.9297008 0.687121
vt 0.9369005 0.6873636
vt 0.9370242 0.729848
vt 0.9301539 0.729705
vt 0.9297008 0.687121
vt 0.9370242 0.6872736
vt 0.9365221 0.7296199
vt 0.9297581 0.729848
vt 0.9297581 0.6873636
vt 0.9369578 0.687121
vt 0.9369578 0.729848
vt 0.930143 0.7297583
vt 0.9297008 0.687121
vt 0.9369578 0.687216
vt 0.6459453 0.7220616
vt 0.6459453 0.7220616
vt 0.6459453 0.7220616
vt 0.6459453 0.7220616
vt 0.6459453 0.7220616
vt 0.6459453 0.7220616
vt 0.6459453 0.7220616
vt 0.6459453 0.7220616
vt 0.6459453 0.7220616
vt 0.6459453 0.7220616
vt 0.6459453 0.7220616
vt 0.6459453 0.7220616
vt 0.6459453 0.7220616
vt 0.6459453 0.7220616
vt 0.6459453 0.7220616
vt 0.6459453 0.7220616
vt 0.6459453 0.7220616
vt 0.6459453 0.7220616
vt 0.6459453 0.7220616
vt 0.6459453 0.7220616
vt 0.6459453 0.7220616
vt 0.6459453 0.7220616
vt 0.6459453 0.7220616
vt 0.6459453 0.7220616
vt 0.6459453 0.7220616
vt 0.6459453 0.7220616
vt 0.6459453 0.7220616
vt 0.6459453 0.7220616
vt 0.6459453 0.7220616
vt 0.6459453 0.7220616
vt 0.6459453 0.7220616
vt 0.6459453 0.7220616
vt 0.6459453 0.7220616
vt 0.6459453 0.7220616
vt 0.6459453 0.7220616
vt 0.6459453 0.7220616
vt 0.6459453 0.7220616
vt 0.6459453 0.7220616
vt 0.6459453 0.7220616
vt 0.6459453 0.7220616
vt 0.2780252 0.6654831
vt 0.2780252 0.6654831
vt 0.2780252 0.6654831
vt 0.2780252 0.6654831
vt 0.2780252 0.6654831
vt 0.2780252 0.6654831
vt 0.2780252 0.6654831
vt 0.2780252 0.6654831
vt 0.2780252 0.6654831
vt 0.2780252 0.6654831
vt 0.2780252 0.6654831
vt 0.2780252 0.6654831
vt 0.2780252 0.6654831
vt 0.2780252 0.6654831
vt 0.2780252 0.6654831
vt 0.2780252 0.6654831
vt 0.2780252 0.6654831
vt 0.2780252 0.6654831
vt 0.2780252 0.6654831
vt 0.2780252 0.6654831
vt 0.2780252 0.6654831
vt 0.2780252 0.6654831
vt 0.2780252 0.6654831
vt 0.2780252 0.6654831
vt 0.2780252 0.6654831
vt 0.2780252 0.6654831
vt 0.2780252 0.6654831
vt 0.2780252 0.6654831
vt 0.2780252 0.6654831
vt 0.2780252 0.6654831
vt 0.2780252 0.6654831
vt 0.2780252 0.6654831
vt 0.2780252 0.6654831
vt 0.2780252 0.6654831
vt 0.2780252 0.6654831
vt 0.2780252 0.6654831
vt 0.2780252 0.6654831
vt 0.2780252 0.6654831
vt 0.2780252 0.6654831
vt 0.2780252 0.6654831
vn 0 1 0
vn 0 1 0
vn 0 1 0
vn 0 1 0
vn 0 1 0
vn 0 1 0
vn 0 1 0
vn 0 1 0
vn 0 1 0
vn 0 1 0
vn 0 1 0
vn 0 1 0
vn 0 1 0
vn 0 1 0
vn 0 1 0
vn 0 1 0
vn 0 1 0
vn 0 1 0
vn 0 1 0
vn 0 1 0
vn 0.9930421 0.06722327 0.09668722
vn 0.993042 0.06722315 -0.09668806
vn 0.9925177 0.06743048 -0.1017923
vn 0.9925178 0.0674306 0.1017914
vn -0.7001714 0.08524712 0.7088674
vn -0.3749714 0.08340994 0.9232764
vn -0.3785172 0.08347052 0.9218228
vn -0.6989384 0.08525868 0.7100818
vn 0.3749722 0.08340994 0.923276
vn 0.7001718 0.08524726 0.708867
vn 0.6989388 0.0852588 0.7100813
vn 0.3785182 0.08347052 0.9218224
vn -0.9930421 0.06722328 -0.09668723
vn -0.993042 0.06722318 0.09668805
vn -0.9925177 0.0674305 0.1017922
vn -0.9925178 0.0674306 -0.1017914
vn 0.7001716 0.0852473 -0.7088671
vn 0.3749713 0.08340999 -0.9232764
vn 0.3785172 0.08347055 -0.9218228
vn 0.6989385 0.08525883 -0.7100815
vn 0.7001718 0.08524726 0.708867
vn 0.9205607 0.07808965 0.3827142
vn 0.9177248 0.07829951 0.389423
vn 0.6989388 0.0852588 0.7100813
vn -0.993042 0.06722318 0.09668805
vn -0.9205604 0.07808948 0.3827147
vn -0.9177247 0.07829936 0.3894237
vn -0.9925177 0.0674305 0.1017922
vn 0.3749713 0.08340999 -0.9232764
vn 0.09455051 0.07641213 -0.9925832
vn 0.09800694 0.07651071 -0.9922403
vn 0.3785172 0.08347055 -0.9218228
vn 0.9205607 0.07808965 0.3827142
vn 0.9930421 0.06722327 0.09668722
vn 0.9925178 0.0674306 0.1017914
vn 0.9177248 0.07829951 0.389423
vn -0.9205604 0.07808948 0.3827147
vn -0.7001714 0.08524712 0.7088674
vn -0.6989384 0.08525868 0.7100818
vn -0.9177247 0.07829936 0.3894237
vn 0.09455051 0.07641213 -0.9925832
vn -0.09455086 0.07641213 -0.9925832
vn -0.09800728 0.07651071 -0.9922403
vn 0.09800694 0.07651071 -0.9922403
vn -0.09455086 0.07641213 -0.9925832
vn -0.3749717 0.08340981 -0.9232762
vn -0.3785177 0.0834704 -0.9218227
vn -0.09800728 0.07651071 -0.9922403
vn -0.3749714 0.08340994 0.9232764
vn -0.09455058 0.07641231 0.9925832
vn -0.09800704 0.0765109 0.9922403
vn -0.3785172 0.08347052 0.9218228
vn -0.3749717 0.08340981 -0.9232762
vn -0.7001721 0.08524708 -0.7088667
vn -0.6989391 0.08525862 -0.710081
vn -0.3785177 0.0834704 -0.9218227
vn -0.09455058 0.07641231 0.9925832
vn 0.09455127 0.07641225 0.9925832
vn 0.09800768 0.07651082 0.9922402
vn -0.09800704 0.0765109 0.9922403
vn -0.7001721 0.08524708 -0.7088667
vn -0.9205608 0.07808957 -0.3827138
vn -0.917725 0.07829944 -0.3894227
vn -0.6989391 0.08525862 -0.710081
vn 0.993042 0.06722315 -0.09668806
vn 0.9205605 0.07808948 -0.3827145
vn 0.9177247 0.07829934 -0.3894233
vn 0.9925177 0.06743048 -0.1017923
vn 0.09455127 0.07641225 0.9925832
vn 0.3749722 0.08340994 0.923276
vn 0.3785182 0.08347052 0.9218224
vn 0.09800768 0.07651082 0.9922402
vn -0.9205608 0.07808957 -0.3827138
vn -0.9930421 0.06722328 -0.09668723
vn -0.9925178 0.0674306 -0.1017914
vn -0.917725 0.07829944 -0.3894227
vn 0.9205605 0.07808948 -0.3827145
vn 0.7001716 0.0852473 -0.7088671
vn 0.6989385 0.08525883 -0.7100815
vn 0.9177247 0.07829934 -0.3894233
vn 0.5840247 0.8088621 -0.06824525
vn 0.5840251 0.8088617 0.06824479
vn 0.7255619 0.6842425 0.07329513
vn 0.515088 0.8273029 0.2241746
vn 0.7255615 0.6842429 -0.07329587
vn 0.6315661 0.7280549 0.2665715
vn 0.6315656 0.7280552 -0.2665721
vn 0.4032445 0.8237844 0.3984635
vn 0.5150885 0.8273024 -0.2241753
vn 0.470163 0.73898 0.482551
vn 0.4701625 0.7389798 -0.4825516
vn 0.250096 0.7925736 0.5561288
vn 0.4032452 0.8237835 -0.3984647
vn 0.2575063 0.7117664 0.6535129
vn 0.257506 0.7117666 -0.6535128
vn 0.08136995 0.7396871 0.6680133
vn 0.2500952 0.7925738 -0.5561288
vn 0.06797304 0.6637805 0.7448323
vn 0.06797275 0.6637817 -0.7448312
vn -0.08136948 0.7396873 0.6680133
vn 0.08136936 0.7396894 -0.668011
vn -0.0679727 0.6637803 0.7448324
vn -0.0679729 0.6637816 -0.7448311
vn -0.2500959 0.7925724 0.5561305
vn -0.08136943 0.7396888 -0.6680117
vn -0.2575061 0.7117656 0.6535138
vn -0.257506 0.7117669 -0.6535124
vn -0.4032456 0.823783 0.3984653
vn -0.2500952 0.7925743 -0.556128
vn -0.4701627 0.7389795 0.4825519
vn -0.4701628 0.7389802 -0.4825506
vn -0.5150886 0.8273024 0.2241751
vn -0.4032439 0.8237849 -0.3984631
vn -0.6315655 0.7280552 0.2665721
vn -0.6315659 0.7280551 -0.2665714
vn -0.5150878 0.8273031 -0.2241744
vn -0.5840247 0.808862 0.0682453
vn -0.7255615 0.6842428 0.07329591
vn -0.7255619 0.6842425 -0.07329513
vn -0.5840251 0.8088617 -0.06824479
vn -0.763696 0.5776836 -0.2881842
vn -0.8533514 0.5171288 -0.06609929
vn -0.7255619 0.6842425 -0.07329513
vn -0.6315659 0.7280551 -0.2665714
vn -0.7255615 0.6842428 0.07329591
vn -0.5598761 0.6202478 -0.5493918
vn -0.8533512 0.5171291 0.06610017
vn -0.4701628 0.7389802 -0.4825506
vn -0.6315655 0.7280552 0.2665721
vn -0.2912691 0.6156706 -0.7321967
vn -0.7636949 0.5776847 0.2881846
vn -0.257506 0.7117669 -0.6535124
vn -0.4701627 0.7389795 0.4825519
vn -0.06879359 0.5833729 -0.8092859
vn -0.5598752 0.6202489 0.5493917
vn -0.0679729 0.6637816 -0.7448311
vn -0.2575061 0.7117656 0.6535138
vn 0.06879308 0.5833723 -0.8092862
vn -0.2912685 0.61567 0.7321975
vn 0.06797275 0.6637817 -0.7448312
vn -0.0679727 0.6637803 0.7448324
vn 0.2912685 0.61567 -0.7321975
vn -0.06879308 0.5833723 0.8092862
vn 0.257506 0.7117666 -0.6535128
vn 0.06797304 0.6637805 0.7448323
vn 0.5598752 0.6202489 -0.5493917
vn 0.06879359 0.5833729 0.8092859
vn 0.4701625 0.7389798 -0.4825516
vn 0.2575063 0.7117664 0.6535129
vn 0.7636949 0.5776847 -0.2881846
vn 0.2912691 0.6156706 0.7321967
vn 0.6315656 0.7280552 -0.2665721
vn 0.470163 0.73898 0.482551
vn 0.8533512 0.5171291 -0.06610017
vn 0.5598761 0.6202478 0.5493918
vn 0.7255615 0.6842429 -0.07329587
vn 0.6315661 0.7280549 0.2665715
vn 0.8533514 0.5171288 0.06609929
vn 0.763696 0.5776836 0.2881842
vn 0.7255619 0.6842425 0.07329513
g Platform-small-base-lvl1_0
f 3/3/3 2/2/2 1/1/1
f 1/1/1 4/4/4 3/3/3
f 4/4/4 5/5/5 3/3/3
f 4/4/4 6/6/6 5/5/5
f 6/6/6 7/7/7 5/5/5
f 6/6/6 8/8/8 7/7/7
f 8/8/8 9/9/9 7/7/7
f 8/8/8 10/10/10 9/9/9
f 10/10/10 11/11/11 9/9/9
f 10/10/10 12/12/12 11/11/11
f 12/12/12 13/13/13 11/11/11
f 12/12/12 14/14/14 13/13/13
f 14/14/14 15/15/15 13/13/13
f 14/14/14 16/16/16 15/15/15
f 16/16/16 17/17/17 15/15/15
f 16/16/16 18/18/18 17/17/17
f 18/18/18 19/19/19 17/17/17
f 18/18/18 20/20/20 19/19/19
f 23/23/23 22/22/22 21/21/21
f 24/24/24 23/23/23 21/21/21
f 27/27/27 26/26/26 25/25/25
f 28/28/28 27/27/27 25/25/25
f 31/31/31 30/30/30 29/29/29
f 32/32/32 31/31/31 29/29/29
f 35/35/35 34/34/34 33/33/33
f 36/36/36 35/35/35 33/33/33
f 39/39/39 38/38/38 37/37/37
f 40/40/40 39/39/39 37/37/37
f 43/43/43 42/42/42 41/41/41
f 44/44/44 43/43/43 41/41/41
f 47/47/47 46/46/46 45/45/45
f 48/48/48 47/47/47 45/45/45
f 51/51/51 50/50/50 49/49/49
f 52/52/52 51/51/51 49/49/49
f 55/55/55 54/54/54 53/53/53
f 56/56/56 55/55/55 53/53/53
f 59/59/59 58/58/58 57/57/57
f 60/60/60 59/59/59 57/57/57
f 63/63/63 62/62/62 61/61/61
f 64/64/64 63/63/63 61/61/61
f 67/67/67 66/66/66 65/65/65
f 68/68/68 67/67/67 65/65/65
f 71/71/71 70/70/70 69/69/69
f 72/72/72 71/71/71 69/69/69
f 75/75/75 74/74/74 73/73/73
f 76/76/76 75/75/75 73/73/73
f 79/79/79 78/78/78 77/77/77
f 80/80/80 79/79/79 77/77/77
f 83/83/83 82/82/82 81/81/81
f 84/84/84 83/83/83 81/81/81
f 87/87/87 86/86/86 85/85/85
f 88/88/88 87/87/87 85/85/85
f 91/91/91 90/90/90 89/89/89
f 92/92/92 91/91/91 89/89/89
f 95/95/95 94/94/94 93/93/93
f 96/96/96 95/95/95 93/93/93
f 99/99/99 98/98/98 97/97/97
f 100/100/100 99/99/99 97/97/97
f 103/103/103 102/102/102 101/101/101
f 104/104/104 102/102/102 103/103/103
f 105/105/105 103/103/103 101/101/101
f 106/106/106 104/104/104 103/103/103
f 105/105/105 101/101/101 107/107/107
f 108/108/108 104/104/104 106/106/106
f 101/101/101 109/109/109 107/107/107
f 110/110/110 108/108/108 106/106/106
f 107/107/107 109/109/109 111/111/111
f 112/112/112 108/108/108 110/110/110
f 109/109/109 113/113/113 111/111/111
f 114/114/114 112/112/112 110/110/110
f 111/111/111 113/113/113 115/115/115
f 116/116/116 112/112/112 114/114/114
f 113/113/113 117/117/117 115/115/115
f 118/118/118 116/116/116 114/114/114
f 115/115/115 117/117/117 119/119/119
f 120/120/120 116/116/116 118/118/118
f 117/117/117 121/121/121 119/119/119
f 122/122/122 120/120/120 118/118/118
f 119/119/119 121/121/121 123/123/123
f 124/124/124 120/120/120 122/122/122
f 121/121/121 125/125/125 123/123/123
f 126/126/126 124/124/124 122/122/122
f 123/123/123 125/125/125 127/127/127
f 128/128/128 124/124/124 126/126/126
f 125/125/125 129/129/129 127/127/127
f 130/130/130 128/128/128 126/126/126
f 127/127/127 129/129/129 131/131/131
f 132/132/132 128/128/128 130/130/130
f 129/129/129 133/133/133 131/131/131
f 134/134/134 132/132/132 130/130/130
f 131/131/131 133/133/133 135/135/135
f 133/133/133 136/136/136 135/135/135
f 137/137/137 132/132/132 134/134/134
f 138/138/138 137/137/137 134/134/134
f 135/135/135 136/136/136 139/139/139
f 138/138/138 139/139/139 137/137/137
f 136/136/136 140/140/140 139/139/139
f 139/139/139 140/140/140 137/137/137
f 143/143/143 142/142/142 141/141/141
f 144/144/144 143/143/143 141/141/141
f 143/143/143 145/145/145 142/142/142
f 144/144/144 141/141/141 146/146/146
f 145/145/145 147/147/147 142/142/142
f 148/148/148 144/144/144 146/146/146
f 145/145/145 149/149/149 147/147/147
f 148/148/148 146/146/146 150/150/150
f 149/149/149 151/151/151 147/147/147
f 152/152/152 148/148/148 150/150/150
f 149/149/149 153/153/153 151/151/151
f 152/152/152 150/150/150 154/154/154
f 153/153/153 155/155/155 151/151/151
f 156/156/156 152/152/152 154/154/154
f 153/153/153 157/157/157 155/155/155
f 156/156/156 154/154/154 158/158/158
f 157/157/157 159/159/159 155/155/155
f 160/160/160 156/156/156 158/158/158
f 157/157/157 161/161/161 159/159/159
f 160/160/160 158/158/158 162/162/162
f 161/161/161 163/163/163 159/159/159
f 164/164/164 160/160/160 162/162/162
f 161/161/161 165/165/165 163/163/163
f 164/164/164 162/162/162 166/166/166
f 165/165/165 167/167/167 163/163/163
f 168/168/168 164/164/164 166/166/166
f 165/165/165 169/169/169 167/167/167
f 168/168/168 166/166/166 170/170/170
f 169/169/169 171/171/171 167/167/167
f 172/172/172 168/168/168 170/170/170
f 169/169/169 173/173/173 171/171/171
f 172/172/172 170/170/170 174/174/174
f 173/173/173 175/175/175 171/171/171
f 176/176/176 172/172/172 174/174/174
f 173/173/173 177/177/177 175/175/175
f 176/176/176 174/174/174 178/178/178
f 177/177/177 179/179/179 175/175/175
f 180/180/180 176/176/176 178/178/178
f 180/180/180 178/178/178 179/179/179
f 177/177/177 180/180/180 179/179/179
