g PlatformTeleport
v -0.50322 0.000542402 -6.190607E-09
v -0.4860732 0.05806601 -0.1302429
v -0.50322 0.05806601 -6.374179E-09
v -0.4860732 0.0005423978 -0.1302429
v -0.4358013 0.058066 -0.25161
v -0.4358013 0.0005423888 -0.25161
v -0.3558303 0.05806598 -0.3558303
v -0.3558303 0.0005423755 -0.3558303
v -0.25161 0.05806597 -0.4358013
v -0.25161 0.0005423588 -0.4358013
v -0.1302429 0.05806595 -0.4860732
v -0.1302429 0.0005423449 -0.4860732
v -2.714098E-08 0.05806593 -0.50322
v -3.564259E-08 0.00054232 -0.50322
v 0.1302429 0.05806591 -0.4860732
v 0.1302429 0.0005423006 -0.4860732
v 0.2516099 0.05806589 -0.4358014
v 0.2516099 0.0005422778 -0.4358014
v 0.3558302 0.05806588 -0.3558303
v 0.3558302 0.000542263 -0.3558303
v 0.4358012 0.05806587 -0.2516101
v 0.4358012 0.0005422572 -0.2516101
v 0.4860732 0.05806586 -0.1302431
v 0.4860732 0.000542251 -0.1302431
v 0.50322 0.05806586 -2.023353E-07
v 0.50322 0.00054225 -2.021517E-07
v 0.4860733 0.05806586 0.1302427
v 0.4860733 0.0005422542 0.1302427
v 0.4358014 0.05806588 0.2516098
v 0.4358014 0.0005422632 0.2516098
v 0.3558305 0.05806589 0.3558301
v 0.3558305 0.0005422765 0.3558301
v 0.2516102 0.0580659 0.4358012
v 0.2516102 0.0005422932 0.4358012
v 0.1302431 0.05806592 0.4860731
v 0.1302431 0.0005423072 0.4860731
v 2.448043E-07 0.05806594 0.50322
v 2.363027E-07 0.000542332 0.50322
v -0.1302427 0.05806596 0.4860733
v -0.1302427 0.0005423515 0.4860733
v -0.2516097 0.05806598 0.4358014
v -0.2516097 0.0005423743 0.4358014
v -0.3558301 0.058066 0.3558305
v -0.3558301 0.000542389 0.3558305
v -0.4358011 0.058066 0.2516103
v -0.4358011 0.0005423948 0.2516103
v -0.4860731 0.05806602 0.1302433
v -0.4860731 0.000542401 0.1302433
v -0.50322 0.05806601 -6.374179E-09
v -0.50322 0.000542402 -6.190607E-09
v -0.4358011 0.058066 0.2516103
v -0.4860731 0.05806602 0.1302433
v -0.4792896 0.08427539 0.1284256
v -0.4297192 0.08427539 0.2480989
v -0.3558301 0.058066 0.3558305
v -0.4961972 0.08427538 -6.686724E-09
v -0.50322 0.05806601 -6.374179E-09
v -0.3508642 0.08427538 0.3508646
v -0.2516097 0.05806598 0.4358014
v -0.4792897 0.08427539 -0.1284253
v -0.4860732 0.05806601 -0.1302429
v -0.2480983 0.08427536 0.4297195
v -0.1302427 0.05806596 0.4860733
v -0.4297194 0.08427536 -0.2480986
v -0.4358013 0.058066 -0.25161
v -0.128425 0.08427534 0.4792898
v 2.448043E-07 0.05806594 0.50322
v -0.3508644 0.08427536 -0.3508644
v -0.3558303 0.05806598 -0.3558303
v 2.454968E-07 0.08427531 0.4961972
v 0.1302431 0.05806592 0.4860731
v -0.2480986 0.08427535 -0.4297194
v -0.25161 0.05806597 -0.4358013
v 0.1284255 0.08427529 0.4792897
v 0.2516102 0.0580659 0.4358012
v -0.1284253 0.08427533 -0.4792897
v -0.1302429 0.05806595 -0.4860732
v 0.2480988 0.08427528 0.4297193
v 0.3558305 0.05806589 0.3558301
v -2.265327E-08 0.08427531 -0.4961972
v -2.714098E-08 0.05806593 -0.50322
v 0.3508646 0.08427526 0.3508643
v 0.4358014 0.05806588 0.2516098
v 0.1284252 0.08427529 -0.4792897
v 0.1302429 0.05806591 -0.4860732
v 0.4297195 0.08427525 0.2480984
v 0.4860733 0.05806586 0.1302427
v 0.2480986 0.08427528 -0.4297194
v 0.2516099 0.05806589 -0.4358014
v 0.4792898 0.08427523 0.1284251
v 0.50322 0.05806586 -2.023353E-07
v 0.3508643 0.08427525 -0.3508645
v 0.3558302 0.05806588 -0.3558303
v 0.4961972 0.08427525 -1.999131E-07
v 0.4860732 0.05806586 -0.1302431
v 0.4297193 0.08427525 -0.2480987
v 0.4358012 0.05806587 -0.2516101
v 0.4792897 0.08427523 -0.1284255
v 0.1974006 0.1656727 -0.3419079
v 0.2791666 0.1656727 -0.2791667
v 0.3419078 0.1656727 -0.1974008
v 0.3813487 0.1656727 -0.1021822
v 0.3948013 0.1656727 -1.473442E-07
v 0.3813488 0.1656727 0.1021819
v 0.1021821 0.1656727 -0.3813487
v 0.341908 0.1656728 0.1974005
v -1.505431E-08 0.1656727 -0.3948012
v 0.2791668 0.1656729 0.2791665
v -0.1021821 0.1656728 -0.3813487
v 0.1974008 0.1656729 0.3419079
v -0.1974006 0.1656729 -0.3419079
v 0.1021823 0.1656729 0.3813488
v -0.2791666 0.1656729 -0.2791667
v 1.983003E-07 0.1656731 0.3948013
v -0.3419079 0.165673 -0.1974007
v -0.1021819 0.1656731 0.3813488
v -0.3813487 0.165673 -0.1021821
v -0.1974004 0.1656731 0.341908
v -0.3948013 0.1656731 6.397157E-09
v -0.2791665 0.1656731 0.2791668
v -0.3813487 0.1656731 0.1021824
v -0.3419078 0.1656731 0.1974009
v -0.3016446 0.01354192 -0.1741546
v -0.3364408 0.01354199 -0.09014908
v -0.2462918 0.01354188 -0.2462918
v -0.3483092 0.01354203 -1.60748E-08
v -0.3364408 0.01354204 0.09014928
v -0.1741546 0.01354185 -0.3016446
v -0.3016445 0.01354205 0.1741548
v -0.2462916 0.01354207 0.246292
v -0.09014907 0.01354178 -0.3364408
v -0.1741544 0.01354204 0.3016447
v -1.872782E-08 0.01354175 -0.3483092
v -0.09014887 0.01354203 0.3364409
v 0.09014903 0.0135417 -0.3364408
v 1.69502E-07 0.01354195 0.3483092
v 0.1741545 0.01354168 -0.3016447
v 0.09014918 0.01354193 0.3364408
v 0.2462917 0.01354166 -0.2462919
v 0.1741547 0.01354185 0.3016445
v 0.3016446 0.01354166 -0.1741547
v 0.246292 0.01354183 0.2462916
v 0.3364408 0.01354168 -0.09014919
v 0.3016447 0.0135418 0.1741544
v 0.3483092 0.0135417 -1.517115E-07
v 0.3364409 0.01354172 0.09014889
vt 0 1
vt 0.04166667 0
vt 0 0
vt 0.04166667 1
vt 0.08333334 0
vt 0.08333334 1
vt 0.125 0
vt 0.125 1
vt 0.1666667 0
vt 0.1666667 1
vt 0.2083333 0
vt 0.2083333 1
vt 0.25 0
vt 0.25 1
vt 0.2916667 0
vt 0.2916667 1
vt 0.3333333 0
vt 0.3333333 1
vt 0.375 0
vt 0.375 1
vt 0.4166667 0
vt 0.4166667 1
vt 0.4583333 0
vt 0.4583333 1
vt 0.5 0
vt 0.5 1
vt 0.5416667 0
vt 0.5416667 1
vt 0.5833334 0
vt 0.5833334 1
vt 0.625 0
vt 0.625 1
vt 0.6666667 0
vt 0.6666667 1
vt 0.7083334 0
vt 0.7083334 1
vt 0.75 0
vt 0.75 1
vt 0.7916667 0
vt 0.7916667 1
vt 0.8333334 0
vt 0.8333334 1
vt 0.875 0
vt 0.875 1
vt 0.9166667 0
vt 0.9166667 1
vt 0.9583334 0
vt 0.9583334 1
vt 1 0
vt 1 1
vt 0.9330126 0.2499997
vt 0.9829628 0.3705902
vt 0.9762228 0.3723961
vt 0.9269695 0.2534886
vt 0.8535532 0.1464464
vt 0.9930221 0.5
vt 1 0.5
vt 0.8486192 0.1513805
vt 0.7499998 0.06698716
vt 0.9762229 0.6276035
vt 0.982963 0.6294096
vt 0.7465109 0.07303016
vt 0.6294093 0.01703703
vt 0.9269697 0.7465111
vt 0.9330127 0.75
vt 0.6276033 0.02377709
vt 0.4999998 0
vt 0.8486193 0.8486193
vt 0.8535534 0.8535534
vt 0.4999998 0.006977837
vt 0.3705903 0.01703715
vt 0.7465111 0.9269697
vt 0.75 0.9330127
vt 0.3723963 0.02377721
vt 0.2499999 0.0669874
vt 0.6276035 0.9762229
vt 0.6294096 0.982963
vt 0.2534888 0.0730304
vt 0.1464464 0.1464468
vt 0.5000001 0.9930221
vt 0.5000001 1
vt 0.1513805 0.1513809
vt 0.0669872 0.2500002
vt 0.3723966 0.9762229
vt 0.3705905 0.982963
vt 0.07303016 0.2534891
vt 0.01703703 0.3705907
vt 0.253489 0.9269698
vt 0.2500001 0.9330128
vt 0.02377709 0.3723967
vt 0 0.5000002
vt 0.1513808 0.8486194
vt 0.1464467 0.8535535
vt 0.006977837 0.5000002
vt 0.01703711 0.6294097
vt 0.07303035 0.7465112
vt 0.06698736 0.7500002
vt 0.02377721 0.6276037
vt 0.2630209 0.91046
vt 0.1648609 0.8351393
vt 0.08954012 0.7369794
vt 0.04219143 0.6226696
vt 0.02604167 0.5000002
vt 0.04219135 0.3773308
vt 0.3773306 0.9578087
vt 0.08953993 0.2630211
vt 0.5000001 0.9739584
vt 0.1648607 0.1648611
vt 0.6226695 0.9578086
vt 0.2630207 0.08954012
vt 0.7369792 0.91046
vt 0.3773304 0.04219147
vt 0.8351392 0.8351392
vt 0.4999998 0.02604167
vt 0.91046 0.7369792
vt 0.6226692 0.04219135
vt 0.9578086 0.6226695
vt 0.7369789 0.08953993
vt 0.9739584 0.5
vt 0.835139 0.1648607
vt 0.9578085 0.3773302
vt 0.9104599 0.2630206
vt 0.8879072 0.7239584
vt 0.9326543 0.6159294
vt 0.816725 0.816725
vt 0.9479167 0.5
vt 0.9326543 0.3840703
vt 0.7239584 0.8879072
vt 0.887907 0.2760414
vt 0.8167247 0.1832749
vt 0.6159294 0.9326543
vt 0.7239581 0.1120927
vt 0.5000001 0.9479167
vt 0.6159291 0.06734566
vt 0.3840707 0.9326543
vt 0.4999998 0.05208334
vt 0.2760417 0.8879073
vt 0.3840705 0.06734578
vt 0.1832752 0.816725
vt 0.2760415 0.1120929
vt 0.1120929 0.7239584
vt 0.1832749 0.1832753
vt 0.06734574 0.6159295
vt 0.1120927 0.2760419
vt 0.05208334 0.5000002
vt 0.06734566 0.3840708
vn -1 0 3.827292E-07
vn -0.957837 0.1291447 -0.2566515
vn -0.9916259 0.1291437 2.535768E-07
vn -0.9659258 0 -0.2588191
vn -0.8587731 0.1291432 -0.4958133
vn -0.8660253 -1.390409E-07 -0.5000001
vn -0.7011854 0.1291442 -0.7011852
vn -0.7071069 0 -0.7071066
vn -0.4958131 0.1291439 -0.8587732
vn -0.5000002 0 -0.8660253
vn -0.2566517 0.1291447 -0.9578369
vn -0.258819 0 -0.9659258
vn 0 0.1291436 -0.9916259
vn 0 0 -1
vn 0.2566515 0.1291441 -0.9578371
vn 0.2588188 0 -0.9659258
vn 0.4958129 0.1291436 -0.8587733
vn 0.4999999 0 -0.8660255
vn 0.7011852 0.1291443 -0.7011855
vn 0.7071066 0 -0.7071069
vn 0.858773 0.1291439 -0.4958132
vn 0.8660253 -1.405672E-07 -0.5000004
vn 0.9578369 0.1291447 -0.2566519
vn 0.9659257 0 -0.2588193
vn 0.9916259 0.1291436 -2.45043E-07
vn 1 0 -2.882429E-07
vn 0.9578371 0.1291441 0.2566512
vn 0.9659259 0 0.2588187
vn 0.8587734 0.1291435 0.4958125
vn 0.8660257 1.390407E-07 0.4999995
vn 0.7011858 0.1291447 0.7011847
vn 0.7071071 0 0.7071064
vn 0.4958133 0.1291439 0.8587731
vn 0.5000002 0 0.8660253
vn 0.2566521 0.1291441 0.9578369
vn 0.2588194 0 0.9659257
vn 4.05662E-07 0.1291436 0.9916259
vn 4.580791E-07 0 1
vn -0.2566511 0.1291443 0.9578371
vn -0.2588184 0 0.9659259
vn -0.4958123 0.1291446 0.8587734
vn -0.4999995 0 0.8660258
vn -0.7011849 0.1291443 0.7011858
vn -0.7071062 0 0.7071072
vn -0.8587728 0.1291444 0.4958134
vn -0.8660251 0 0.5000005
vn -0.957837 0.1291436 0.2566521
vn -0.9659257 0 0.2588194
vn -0.9916259 0.1291437 2.535768E-07
vn -1 0 3.827292E-07
vn -0.8587728 0.1291444 0.4958134
vn -0.957837 0.1291436 0.2566521
vn -0.8161273 0.534897 0.218681
vn -0.7317191 0.5348977 0.422459
vn -0.7011849 0.1291443 0.7011858
vn -0.8449172 0.534897 0
vn -0.9916259 0.1291437 2.535768E-07
vn -0.5974461 0.5348975 0.5974469
vn -0.4958123 0.1291446 0.8587734
vn -0.8161267 0.5348983 -0.2186804
vn -0.957837 0.1291447 -0.2566515
vn -0.4224577 0.5348979 0.7317197
vn -0.2566511 0.1291443 0.9578371
vn -0.7317197 0.5348969 -0.4224588
vn -0.8587731 0.1291432 -0.4958133
vn -0.2186801 0.5348974 0.8161272
vn 4.05662E-07 0.1291436 0.9916259
vn -0.5974463 0.5348979 -0.5974464
vn -0.7011854 0.1291442 -0.7011852
vn 4.284092E-07 0.5348968 0.8449174
vn 0.2566521 0.1291441 0.9578369
vn -0.4224583 0.5348977 -0.7317194
vn -0.4958131 0.1291439 -0.8587732
vn 0.2186812 0.5348974 0.8161269
vn 0.4958133 0.1291439 0.8587731
vn -0.2186804 0.5348986 -0.8161263
vn -0.2566517 0.1291447 -0.9578369
vn 0.4224588 0.5348975 0.7317194
vn 0.7011858 0.1291447 0.7011847
vn 0 0.5348979 -0.8449168
vn 0 0.1291436 -0.9916259
vn 0.5974466 0.5348982 0.5974458
vn 0.8587734 0.1291435 0.4958125
vn 0.2186804 0.5348982 -0.8161267
vn 0.2566515 0.1291441 -0.9578371
vn 0.73172 0.5348972 0.4224581
vn 0.9578371 0.1291441 0.2566512
vn 0.4224585 0.5348977 -0.7317194
vn 0.4958129 0.1291436 -0.8587733
vn 0.8161269 0.534898 0.2186801
vn 0.9916259 0.1291436 -2.45043E-07
vn 0.5974461 0.5348982 -0.5974462
vn 0.7011852 0.1291443 -0.7011855
vn 0.8449169 0.5348976 -2.809032E-07
vn 0.9578369 0.1291447 -0.2566519
vn 0.7317193 0.5348979 -0.4224586
vn 0.858773 0.1291439 -0.4958132
vn 0.8161263 0.5348985 -0.2186808
vn -0.1145603 0.9733979 0.1984247
vn -0.1620124 0.973398 0.1620129
vn -0.1984246 0.973398 0.1145602
vn -0.2213132 0.9733981 0.05930068
vn -0.2291205 0.9733981 -1.538232E-07
vn -0.221313 0.9733981 -0.05930069
vn -0.05930044 0.973398 0.2213136
vn -0.1984239 0.973398 -0.1145609
vn 3.242758E-07 0.973398 0.2291209
vn -0.1620121 0.9733983 -0.1620123
vn 0.0593014 0.973398 0.2213133
vn -0.1145598 0.9733983 -0.1984236
vn 0.1145605 0.9733981 0.198424
vn -0.05929987 0.9733983 -0.2213127
vn 0.1620127 0.9733983 0.1620119
vn 5.11359E-07 0.9733983 -0.2291197
vn 0.1984239 0.9733983 0.1145597
vn 0.05930027 0.9733984 -0.2213124
vn 0.2213131 0.9733981 0.05930033
vn 0.1145603 0.9733983 -0.1984235
vn 0.2291198 0.9733983 -3.907946E-07
vn 0.1620121 0.9733983 -0.162012
vn 0.2213123 0.9733984 -0.05930077
vn 0.1984236 0.9733983 -0.1145601
vn 0.8282134 0.292262 0.4781689
vn 0.9237518 0.292262 0.2475185
vn 0.6762332 0.292262 0.6762334
vn 0.9563383 0.292262 0
vn 0.9237517 0.292262 -0.2475191
vn 0.4781691 0.2922619 0.8282133
vn 0.828213 0.2922619 -0.4781698
vn 0.6762329 0.292262 -0.6762337
vn 0.2475187 0.2922619 0.9237518
vn 0.4781688 0.292262 -0.8282135
vn 1.213487E-07 0.2922619 0.9563383
vn 0.247518 0.2922623 -0.923752
vn -0.2475183 0.292262 0.923752
vn 0 0.2922622 -0.9563382
vn -0.4781688 0.292262 0.8282135
vn -0.2475189 0.2922625 -0.9237517
vn -0.6762331 0.2922622 0.6762335
vn -0.4781695 0.2922624 -0.8282129
vn -0.828213 0.2922621 0.4781694
vn -0.6762336 0.2922622 -0.676233
vn -0.9237517 0.2922621 0.2475189
vn -0.8282134 0.2922621 -0.4781688
vn -0.9563382 0.292262 1.540195E-07
vn -0.9237518 0.2922622 -0.2475182
g PlatformTeleport_0
f 3/3/3 2/2/2 1/1/1
f 2/2/2 4/4/4 1/1/1
f 2/2/2 5/5/5 4/4/4
f 5/5/5 6/6/6 4/4/4
f 5/5/5 7/7/7 6/6/6
f 7/7/7 8/8/8 6/6/6
f 7/7/7 9/9/9 8/8/8
f 9/9/9 10/10/10 8/8/8
f 9/9/9 11/11/11 10/10/10
f 11/11/11 12/12/12 10/10/10
f 11/11/11 13/13/13 12/12/12
f 13/13/13 14/14/14 12/12/12
f 13/13/13 15/15/15 14/14/14
f 15/15/15 16/16/16 14/14/14
f 15/15/15 17/17/17 16/16/16
f 17/17/17 18/18/18 16/16/16
f 17/17/17 19/19/19 18/18/18
f 19/19/19 20/20/20 18/18/18
f 19/19/19 21/21/21 20/20/20
f 21/21/21 22/22/22 20/20/20
f 21/21/21 23/23/23 22/22/22
f 23/23/23 24/24/24 22/22/22
f 23/23/23 25/25/25 24/24/24
f 25/25/25 26/26/26 24/24/24
f 25/25/25 27/27/27 26/26/26
f 27/27/27 28/28/28 26/26/26
f 27/27/27 29/29/29 28/28/28
f 29/29/29 30/30/30 28/28/28
f 29/29/29 31/31/31 30/30/30
f 31/31/31 32/32/32 30/30/30
f 31/31/31 33/33/33 32/32/32
f 33/33/33 34/34/34 32/32/32
f 33/33/33 35/35/35 34/34/34
f 35/35/35 36/36/36 34/34/34
f 35/35/35 37/37/37 36/36/36
f 37/37/37 38/38/38 36/36/36
f 37/37/37 39/39/39 38/38/38
f 39/39/39 40/40/40 38/38/38
f 39/39/39 41/41/41 40/40/40
f 41/41/41 42/42/42 40/40/40
f 41/41/41 43/43/43 42/42/42
f 43/43/43 44/44/44 42/42/42
f 43/43/43 45/45/45 44/44/44
f 45/45/45 46/46/46 44/44/44
f 45/45/45 47/47/47 46/46/46
f 47/47/47 48/48/48 46/46/46
f 47/47/47 49/49/49 48/48/48
f 49/49/49 50/50/50 48/48/48
f 53/53/53 52/52/52 51/51/51
f 54/54/54 53/53/53 51/51/51
f 54/54/54 51/51/51 55/55/55
f 53/53/53 56/56/56 52/52/52
f 56/56/56 57/57/57 52/52/52
f 58/58/58 54/54/54 55/55/55
f 58/58/58 55/55/55 59/59/59
f 56/56/56 60/60/60 57/57/57
f 60/60/60 61/61/61 57/57/57
f 62/62/62 58/58/58 59/59/59
f 62/62/62 59/59/59 63/63/63
f 60/60/60 64/64/64 61/61/61
f 64/64/64 65/65/65 61/61/61
f 66/66/66 62/62/62 63/63/63
f 66/66/66 63/63/63 67/67/67
f 64/64/64 68/68/68 65/65/65
f 68/68/68 69/69/69 65/65/65
f 70/70/70 66/66/66 67/67/67
f 70/70/70 67/67/67 71/71/71
f 68/68/68 72/72/72 69/69/69
f 72/72/72 73/73/73 69/69/69
f 74/74/74 70/70/70 71/71/71
f 74/74/74 71/71/71 75/75/75
f 72/72/72 76/76/76 73/73/73
f 76/76/76 77/77/77 73/73/73
f 78/78/78 74/74/74 75/75/75
f 78/78/78 75/75/75 79/79/79
f 76/76/76 80/80/80 77/77/77
f 80/80/80 81/81/81 77/77/77
f 82/82/82 78/78/78 79/79/79
f 82/82/82 79/79/79 83/83/83
f 80/80/80 84/84/84 81/81/81
f 84/84/84 85/85/85 81/81/81
f 86/86/86 82/82/82 83/83/83
f 86/86/86 83/83/83 87/87/87
f 84/84/84 88/88/88 85/85/85
f 88/88/88 89/89/89 85/85/85
f 90/90/90 86/86/86 87/87/87
f 90/90/90 87/87/87 91/91/91
f 88/88/88 92/92/92 89/89/89
f 92/92/92 93/93/93 89/89/89
f 94/94/94 90/90/90 91/91/91
f 94/94/94 91/91/91 95/95/95
f 92/92/92 96/96/96 93/93/93
f 96/96/96 97/97/97 93/93/93
f 98/98/98 95/95/95 97/97/97
f 98/98/98 94/94/94 95/95/95
f 96/96/96 98/98/98 97/97/97
f 99/99/99 88/88/88 84/84/84
f 100/100/100 92/92/92 88/88/88
f 99/99/99 100/100/100 88/88/88
f 101/101/101 96/96/96 92/92/92
f 100/100/100 101/101/101 92/92/92
f 102/102/102 98/98/98 96/96/96
f 101/101/101 102/102/102 96/96/96
f 103/103/103 94/94/94 98/98/98
f 102/102/102 103/103/103 98/98/98
f 104/104/104 90/90/90 94/94/94
f 103/103/103 104/104/104 94/94/94
f 105/105/105 99/99/99 84/84/84
f 105/105/105 84/84/84 80/80/80
f 104/104/104 106/106/106 90/90/90
f 106/106/106 86/86/86 90/90/90
f 107/107/107 105/105/105 80/80/80
f 107/107/107 80/80/80 76/76/76
f 106/106/106 108/108/108 86/86/86
f 108/108/108 82/82/82 86/86/86
f 109/109/109 107/107/107 76/76/76
f 109/109/109 76/76/76 72/72/72
f 108/108/108 110/110/110 82/82/82
f 110/110/110 78/78/78 82/82/82
f 111/111/111 109/109/109 72/72/72
f 111/111/111 72/72/72 68/68/68
f 110/110/110 112/112/112 78/78/78
f 112/112/112 74/74/74 78/78/78
f 113/113/113 111/111/111 68/68/68
f 113/113/113 68/68/68 64/64/64
f 112/112/112 114/114/114 74/74/74
f 114/114/114 70/70/70 74/74/74
f 115/115/115 113/113/113 64/64/64
f 115/115/115 64/64/64 60/60/60
f 114/114/114 116/116/116 70/70/70
f 116/116/116 66/66/66 70/70/70
f 117/117/117 115/115/115 60/60/60
f 117/117/117 60/60/60 56/56/56
f 116/116/116 118/118/118 66/66/66
f 118/118/118 62/62/62 66/66/66
f 119/119/119 117/117/117 56/56/56
f 119/119/119 56/56/56 53/53/53
f 118/118/118 120/120/120 62/62/62
f 120/120/120 58/58/58 62/62/62
f 121/121/121 119/119/119 53/53/53
f 121/121/121 53/53/53 54/54/54
f 122/122/122 54/54/54 58/58/58
f 120/120/120 122/122/122 58/58/58
f 122/122/122 121/121/121 54/54/54
f 123/123/123 115/115/115 117/117/117
f 124/124/124 123/123/123 117/117/117
f 124/124/124 117/117/117 119/119/119
f 123/123/123 125/125/125 115/115/115
f 126/126/126 124/124/124 119/119/119
f 126/126/126 119/119/119 121/121/121
f 125/125/125 113/113/113 115/115/115
f 127/127/127 126/126/126 121/121/121
f 127/127/127 121/121/121 122/122/122
f 125/125/125 128/128/128 113/113/113
f 129/129/129 127/127/127 122/122/122
f 129/129/129 122/122/122 120/120/120
f 128/128/128 111/111/111 113/113/113
f 130/130/130 129/129/129 120/120/120
f 128/128/128 131/131/131 111/111/111
f 130/130/130 120/120/120 118/118/118
f 131/131/131 109/109/109 111/111/111
f 132/132/132 130/130/130 118/118/118
f 131/131/131 133/133/133 109/109/109
f 132/132/132 118/118/118 116/116/116
f 133/133/133 107/107/107 109/109/109
f 134/134/134 132/132/132 116/116/116
f 133/133/133 135/135/135 107/107/107
f 134/134/134 116/116/116 114/114/114
f 135/135/135 105/105/105 107/107/107
f 136/136/136 134/134/134 114/114/114
f 135/135/135 137/137/137 105/105/105
f 136/136/136 114/114/114 112/112/112
f 137/137/137 99/99/99 105/105/105
f 138/138/138 136/136/136 112/112/112
f 137/137/137 139/139/139 99/99/99
f 138/138/138 112/112/112 110/110/110
f 139/139/139 100/100/100 99/99/99
f 140/140/140 138/138/138 110/110/110
f 139/139/139 141/141/141 100/100/100
f 140/140/140 110/110/110 108/108/108
f 141/141/141 101/101/101 100/100/100
f 142/142/142 140/140/140 108/108/108
f 141/141/141 143/143/143 101/101/101
f 142/142/142 108/108/108 106/106/106
f 143/143/143 102/102/102 101/101/101
f 144/144/144 142/142/142 106/106/106
f 143/143/143 145/145/145 102/102/102
f 144/144/144 106/106/106 104/104/104
f 145/145/145 103/103/103 102/102/102
f 146/146/146 144/144/144 104/104/104
f 145/145/145 146/146/146 103/103/103
f 146/146/146 104/104/104 103/103/103
