g Platform-medium-base-lvl1
v -2.004205 -0.001171052 -3.799199
v 2.004203 -0.001171052 -3.799201
v 2.593337 -0.001171052 -3.682014
v -2.59334 -0.001171052 -3.682013
v 3.092782 -0.001171052 -3.348295
v -3.092785 -0.001171052 -3.348294
v 3.426501 -0.001171052 -2.848851
v -3.426503 -0.001171052 -2.84885
v 3.543686 -0.001171052 -2.259718
v -3.543688 -0.001171052 -2.259716
v 3.543688 -0.001171052 2.259716
v -3.543686 -0.001171052 2.259718
v 3.426503 -0.001171052 2.84885
v -3.426501 -0.001171052 2.848851
v 3.092785 -0.001171052 3.348294
v -3.092782 -0.001171052 3.348295
v 2.59334 -0.001171052 3.682013
v -2.593337 -0.001171052 3.682014
v 2.004205 -0.001171052 3.799199
v -2.004203 -0.001171052 3.799201
v -2.798585 -0.2771999 -3.948139
v -3.337557 -0.2772021 -3.593184
v -3.414767 -3.126359 -3.687873
v -2.863326 -3.126359 -4.051038
v 3.337557 -0.2772021 3.593184
v 3.697688 -0.2772083 3.061958
v 3.783226 -3.126359 3.144357
v 3.414767 -3.126359 3.687873
v -3.824148 -0.2772141 -2.435334
v -3.824147 -0.2772141 2.435336
v -3.91261 -3.126359 2.503239
v -3.912612 -3.126359 -2.503237
v 3.824148 -0.2772141 2.435334
v 3.824147 -0.2772141 -2.435336
v 3.91261 -3.126359 -2.503239
v 3.912612 -3.126359 2.503236
v 3.697688 -0.2772083 3.061958
v 3.824148 -0.2772141 2.435334
v 3.912612 -3.126359 2.503236
v 3.783226 -3.126359 3.144357
v 2.162822 -0.2772005 -4.072785
v -2.162825 -0.2772005 -4.072783
v -2.212859 -3.126359 -4.178567
v 2.212856 -3.126359 -4.178568
v -3.697685 -0.2772083 3.06196
v -3.337555 -0.2772021 3.593186
v -3.414763 -3.126359 3.687874
v -3.783223 -3.126359 3.144359
v -2.162825 -0.2772005 -4.072783
v -2.798585 -0.2771999 -3.948139
v -2.863326 -3.126359 -4.051038
v -2.212859 -3.126359 -4.178567
v -2.798583 -0.2771999 3.94814
v -2.162822 -0.2772005 4.072785
v -2.212856 -3.126359 4.178568
v -2.863324 -3.126359 4.05104
v 2.162825 -0.2772005 4.072783
v 2.798585 -0.2771999 3.948137
v 2.863326 -3.126359 4.051038
v 2.212859 -3.126359 4.178567
v 3.337555 -0.2772021 -3.593186
v 2.798583 -0.2771999 -3.94814
v 2.863324 -3.126359 -4.051041
v 3.414763 -3.126359 -3.687875
v -2.162822 -0.2772005 4.072785
v 2.162825 -0.2772005 4.072783
v 2.212859 -3.126359 4.178567
v -2.212856 -3.126359 4.178568
v -3.337557 -0.2772021 -3.593184
v -3.697688 -0.2772083 -3.061958
v -3.783226 -3.126359 -3.144356
v -3.414767 -3.126359 -3.687873
v 3.824147 -0.2772141 -2.435336
v 3.697685 -0.2772083 -3.06196
v 3.783223 -3.126359 -3.144359
v 3.91261 -3.126359 -2.503239
v 2.798585 -0.2771999 3.948137
v 3.337557 -0.2772021 3.593184
v 3.414767 -3.126359 3.687873
v 2.863326 -3.126359 4.051038
v -3.697688 -0.2772083 -3.061958
v -3.824148 -0.2772141 -2.435334
v -3.912612 -3.126359 -2.503237
v -3.783226 -3.126359 -3.144356
v 3.697685 -0.2772083 -3.06196
v 3.337555 -0.2772021 -3.593186
v 3.414763 -3.126359 -3.687875
v 3.783223 -3.126359 -3.144359
v -3.337555 -0.2772021 3.593186
v -2.798583 -0.2771999 3.94814
v -2.863324 -3.126359 4.05104
v -3.414763 -3.126359 3.687874
v -3.824147 -0.2772141 2.435336
v -3.697685 -0.2772083 3.06196
v -3.783223 -3.126359 3.144359
v -3.91261 -3.126359 2.503239
v 2.798583 -0.2771999 -3.94814
v 2.162822 -0.2772005 -4.072785
v 2.212856 -3.126359 -4.178568
v 2.863324 -3.126359 -4.051041
v -3.697688 -0.2772083 -3.061958
v -3.702689 -0.1955862 -2.355766
v -3.824148 -0.2772141 -2.435334
v -3.580036 -0.19533 -2.965276
v -3.702687 -0.1955863 2.355768
v -3.337557 -0.2772021 -3.593184
v -3.824147 -0.2772141 2.435336
v -3.230802 -0.1945686 -3.481644
v -3.580034 -0.19533 2.965277
v -2.798585 -0.2771999 -3.948139
v -3.697685 -0.2772083 3.06196
v -2.708509 -0.1936638 -3.826358
v -3.230799 -0.1945686 3.481645
v -2.162825 -0.2772005 -4.072783
v -3.337555 -0.2772021 3.593186
v -2.09297 -0.1931586 -3.947263
v -2.708507 -0.1936637 3.826359
v 2.162822 -0.2772005 -4.072785
v -2.798583 -0.2771999 3.94814
v 2.092967 -0.1931586 -3.947265
v -2.092967 -0.1931587 3.947265
v 2.798583 -0.2771999 -3.94814
v -2.162822 -0.2772005 4.072785
v 2.708507 -0.1936638 -3.826359
v 2.09297 -0.1931587 3.947263
v 3.337555 -0.2772021 -3.593186
v 2.162825 -0.2772005 4.072783
v 3.230799 -0.1945687 -3.481645
v 2.708509 -0.1936637 3.826357
v 3.697685 -0.2772083 -3.06196
v 2.798585 -0.2771999 3.948137
v 3.580034 -0.19533 -2.965278
v 3.230802 -0.1945684 3.481642
v 3.824147 -0.2772141 -2.435336
v 3.337557 -0.2772021 3.593184
v 3.702687 -0.1955863 -2.355768
v 3.580036 -0.19533 2.965276
v 3.824148 -0.2772141 2.435334
v 3.697688 -0.2772083 3.061958
v 3.702689 -0.1955861 2.355765
v 3.543686 -0.001171052 -2.259718
v 3.426501 -0.001171052 -2.848851
v 3.580034 -0.19533 -2.965278
v 3.702687 -0.1955863 -2.355768
v 3.230799 -0.1945687 -3.481645
v 3.543688 -0.001171052 2.259716
v 3.092782 -0.001171052 -3.348295
v 3.702689 -0.1955861 2.355765
v 2.708507 -0.1936638 -3.826359
v 3.426503 -0.001171052 2.84885
v 2.593337 -0.001171052 -3.682014
v 3.580036 -0.19533 2.965276
v 2.092967 -0.1931586 -3.947265
v 3.092785 -0.001171052 3.348294
v 2.004203 -0.001171052 -3.799201
v 3.230802 -0.1945684 3.481642
v -2.09297 -0.1931586 -3.947263
v 2.59334 -0.001171052 3.682013
v -2.004205 -0.001171052 -3.799199
v 2.708509 -0.1936637 3.826357
v -2.708509 -0.1936638 -3.826358
v 2.004205 -0.001171052 3.799199
v -2.59334 -0.001171052 -3.682013
v 2.09297 -0.1931587 3.947263
v -3.230802 -0.1945686 -3.481644
v -2.004203 -0.001171052 3.799201
v -3.092785 -0.001171052 -3.348294
v -2.092967 -0.1931587 3.947265
v -3.580036 -0.19533 -2.965276
v -2.593337 -0.001171052 3.682014
v -3.426503 -0.001171052 -2.84885
v -2.708507 -0.1936637 3.826359
v -3.702689 -0.1955862 -2.355766
v -3.092782 -0.001171052 3.348295
v -3.543688 -0.001171052 -2.259716
v -3.230799 -0.1945686 3.481645
v -3.702687 -0.1955863 2.355768
v -3.426501 -0.001171052 2.848851
v -3.543686 -0.001171052 2.259718
v -3.580034 -0.19533 2.965277
vt 0.3174774 0.7163632
vt 0.3174774 0.7163632
vt 0.3174774 0.7163632
vt 0.3174774 0.7163632
vt 0.3174774 0.7163632
vt 0.3174774 0.7163632
vt 0.3174774 0.7163632
vt 0.3174774 0.7163632
vt 0.3174774 0.7163632
vt 0.3174774 0.7163632
vt 0.3174774 0.7163632
vt 0.3174774 0.7163632
vt 0.3174774 0.7163632
vt 0.3174774 0.7163632
vt 0.3174774 0.7163632
vt 0.3174774 0.7163632
vt 0.3174774 0.7163632
vt 0.3174774 0.7163632
vt 0.3174774 0.7163632
vt 0.3174774 0.7163632
vt 0.9404386 0.726226
vt 0.9325128 0.726226
vt 0.9323605 0.6912029
vt 0.9404696 0.6912029
vt 0.9325425 0.7261703
vt 0.9404118 0.726226
vt 0.9404118 0.69126
vt 0.9323605 0.6912029
vt 0.9722514 0.726225
vt 0.9124113 0.7262249
vt 0.9115771 0.691204
vt 0.9730856 0.691204
vt 0.9124998 0.7261732
vt 0.9721629 0.7261731
vt 0.9729946 0.6912558
vt 0.9116681 0.6912558
vt 0.9325414 0.7260915
vt 0.9403614 0.726226
vt 0.9403614 0.6913406
vt 0.9323605 0.6912029
vt 0.9174231 0.725996
vt 0.9698611 0.725996
vt 0.9704676 0.691433
vt 0.9168166 0.691433
vt 0.9404118 0.726226
vt 0.9325425 0.7261703
vt 0.9323605 0.6912029
vt 0.9404118 0.69126
vt 0.9404822 0.726226
vt 0.9325441 0.726146
vt 0.9323605 0.6912029
vt 0.9404822 0.6912848
vt 0.9325441 0.726146
vt 0.9404823 0.726226
vt 0.9404823 0.6912848
vt 0.9323605 0.6912029
vt 0.9404822 0.726226
vt 0.9325441 0.726146
vt 0.9323605 0.6912029
vt 0.9404822 0.6912848
vt 0.9403173 0.726226
vt 0.9323915 0.726226
vt 0.9323605 0.6912029
vt 0.9404696 0.6912029
vt 0.9701298 0.7261731
vt 0.9171544 0.7261731
vt 0.9165416 0.6912559
vt 0.9707426 0.6912559
vt 0.9325425 0.7261703
vt 0.9404118 0.726226
vt 0.9404118 0.69126
vt 0.9323605 0.6912029
vt 0.9403614 0.726226
vt 0.9325414 0.7260915
vt 0.9323605 0.6912029
vt 0.9403614 0.6913406
vt 0.9404386 0.726226
vt 0.9325128 0.726226
vt 0.9323605 0.6912029
vt 0.9404696 0.6912029
vt 0.9325414 0.7260915
vt 0.9403614 0.726226
vt 0.9403614 0.6913406
vt 0.9323605 0.6912029
vt 0.9404118 0.726226
vt 0.9325425 0.7261703
vt 0.9323605 0.6912029
vt 0.9404118 0.69126
vt 0.9325129 0.726226
vt 0.9404387 0.726226
vt 0.9404696 0.6912029
vt 0.9323605 0.691203
vt 0.9403614 0.726226
vt 0.9325414 0.7260915
vt 0.9323605 0.6912029
vt 0.9403614 0.6913406
vt 0.9325441 0.726146
vt 0.9404822 0.726226
vt 0.9404822 0.6912848
vt 0.9323605 0.6912029
vt 0.6459453 0.7220616
vt 0.6459453 0.7220616
vt 0.6459453 0.7220616
vt 0.6459453 0.7220616
vt 0.6459453 0.7220616
vt 0.6459453 0.7220616
vt 0.6459453 0.7220616
vt 0.6459453 0.7220616
vt 0.6459453 0.7220616
vt 0.6459453 0.7220616
vt 0.6459453 0.7220615
vt 0.6459453 0.7220616
vt 0.6459453 0.7220616
vt 0.6459453 0.7220616
vt 0.6459453 0.7220616
vt 0.6459452 0.7220615
vt 0.6459453 0.7220616
vt 0.6459453 0.7220616
vt 0.6459453 0.7220616
vt 0.6459453 0.7220616
vt 0.6459453 0.7220616
vt 0.6459453 0.7220616
vt 0.6459453 0.7220616
vt 0.6459453 0.7220616
vt 0.6459453 0.7220616
vt 0.6459453 0.7220616
vt 0.6459453 0.7220616
vt 0.6459453 0.7220616
vt 0.6459453 0.7220615
vt 0.6459453 0.7220616
vt 0.6459453 0.7220616
vt 0.6459453 0.7220616
vt 0.6459452 0.7220616
vt 0.6459453 0.7220616
vt 0.6459453 0.7220616
vt 0.6459453 0.7220616
vt 0.6459453 0.7220616
vt 0.6459453 0.7220616
vt 0.6459453 0.7220616
vt 0.6459453 0.7220616
vt 0.2780252 0.6654831
vt 0.2780252 0.6654831
vt 0.2780252 0.6654831
vt 0.2780252 0.6654831
vt 0.2780252 0.6654831
vt 0.2780252 0.6654831
vt 0.2780252 0.6654831
vt 0.2780252 0.6654831
vt 0.2780252 0.6654831
vt 0.2780252 0.6654831
vt 0.2780252 0.6654831
vt 0.2780252 0.6654831
vt 0.2780252 0.6654831
vt 0.2780252 0.6654831
vt 0.2780252 0.6654831
vt 0.2780252 0.6654831
vt 0.2780252 0.6654831
vt 0.2780252 0.6654831
vt 0.2780252 0.6654831
vt 0.2780252 0.6654831
vt 0.2780252 0.6654831
vt 0.2780252 0.6654831
vt 0.2780252 0.6654831
vt 0.2780252 0.6654831
vt 0.2780252 0.6654831
vt 0.2780252 0.6654831
vt 0.2780252 0.6654831
vt 0.2780252 0.6654831
vt 0.2780252 0.6654831
vt 0.2780252 0.6654831
vt 0.2780252 0.6654831
vt 0.2780252 0.6654831
vt 0.2780252 0.6654831
vt 0.2780252 0.6654831
vt 0.2780252 0.6654831
vt 0.2780252 0.6654831
vt 0.2780252 0.6654831
vt 0.2780252 0.6654831
vt 0.2780252 0.6654831
vt 0.2780252 0.6654831
vn -0.03555253 0.8915476 -0.4515296
vn 0.03555232 0.8915475 -0.4515297
vn 0.1576832 0.8962495 -0.4145755
vn -0.1576831 0.8962495 -0.4145755
vn 0.2983545 0.905699 -0.301154
vn -0.2983551 0.9056987 -0.3011543
vn 0.4046384 0.9009722 -0.156578
vn -0.4046388 0.9009721 -0.1565779
vn 0.4387366 0.8979514 -0.03454651
vn -0.4387365 0.8979514 -0.03454638
vn 0.4387365 0.8979515 0.03454635
vn -0.4387366 0.8979514 0.03454656
vn 0.4046389 0.900972 0.1565782
vn -0.4046385 0.9009722 0.1565782
vn 0.2983556 0.9056985 0.3011549
vn -0.2983547 0.905699 0.301154
vn 0.1576837 0.8962494 0.4145757
vn -0.1576832 0.8962495 0.4145755
vn 0.03555252 0.8915475 0.4515298
vn -0.03555231 0.8915473 0.45153
vn -0.3771515 0.04198433 -0.9251995
vn -0.7020841 0.0426488 -0.7108157
vn -0.7013693 0.04265286 -0.7115208
vn -0.3788264 0.04199764 -0.9245144
vn 0.7020835 0.04264908 0.7108163
vn 0.9220902 0.03881877 0.3850229
vn 0.9206302 0.03887537 0.3884957
vn 0.7013687 0.04265314 0.7115214
vn -0.9946271 0.03321916 -0.09804805
vn -0.9946269 0.03321903 0.09804909
vn -0.994366 0.03327275 0.1006433
vn -0.9943662 0.03327289 -0.1006422
vn 0.9946271 0.03321918 0.09804794
vn 0.9946269 0.03321901 -0.09804914
vn 0.994366 0.03327274 -0.1006434
vn 0.9943662 0.03327291 0.1006421
vn 0.9220902 0.03881877 0.3850229
vn 0.9946271 0.03321918 0.09804794
vn 0.9943662 0.03327291 0.1006421
vn 0.9206302 0.03887537 0.3884957
vn 0.09572443 0.03861045 -0.9946588
vn -0.09572487 0.0386105 -0.9946586
vn -0.09742342 0.03863417 -0.9944929
vn 0.097423 0.03863413 -0.994493
vn -0.9220899 0.03881835 0.3850237
vn -0.7020836 0.04264844 0.7108162
vn -0.7013688 0.0426525 0.7115213
vn -0.9206297 0.03887495 0.3884964
vn -0.09572487 0.0386105 -0.9946586
vn -0.3771515 0.04198433 -0.9251995
vn -0.3788264 0.04199764 -0.9245144
vn -0.09742342 0.03863417 -0.9944929
vn -0.3771515 0.04198398 0.9251995
vn -0.09572479 0.03861032 0.9946586
vn -0.09742337 0.03863399 0.9944929
vn -0.3788265 0.04199729 0.9245144
vn 0.09572568 0.0386107 0.9946586
vn 0.3771518 0.04198473 0.9251993
vn 0.3788268 0.04199805 0.9245142
vn 0.09742422 0.03863437 0.9944928
vn 0.7020838 0.0426487 -0.7108159
vn 0.3771512 0.04198432 -0.9251997
vn 0.3788261 0.04199764 -0.9245145
vn 0.701369 0.04265276 -0.711521
vn -0.09572479 0.03861032 0.9946586
vn 0.09572568 0.0386107 0.9946586
vn 0.09742422 0.03863437 0.9944928
vn -0.09742337 0.03863399 0.9944929
vn -0.7020841 0.0426488 -0.7108157
vn -0.9220904 0.03881869 -0.3850227
vn -0.9206303 0.03887528 -0.3884953
vn -0.7013693 0.04265286 -0.7115208
vn 0.9946269 0.03321901 -0.09804914
vn 0.9220901 0.03881839 -0.3850235
vn 0.92063 0.03887499 -0.3884962
vn 0.994366 0.03327274 -0.1006434
vn 0.3771518 0.04198473 0.9251993
vn 0.7020835 0.04264908 0.7108163
vn 0.7013687 0.04265314 0.7115214
vn 0.3788268 0.04199805 0.9245142
vn -0.9220904 0.03881869 -0.3850227
vn -0.9946271 0.03321916 -0.09804805
vn -0.9943662 0.03327289 -0.1006422
vn -0.9206303 0.03887528 -0.3884953
vn 0.9220901 0.03881839 -0.3850235
vn 0.7020838 0.0426487 -0.7108159
vn 0.701369 0.04265276 -0.711521
vn 0.92063 0.03887499 -0.3884962
vn -0.7020836 0.04264844 0.7108162
vn -0.3771515 0.04198398 0.9251995
vn -0.3788265 0.04199729 0.9245144
vn -0.7013688 0.0426525 0.7115213
vn -0.9946269 0.03321903 0.09804909
vn -0.9220899 0.03881835 0.3850237
vn -0.9206297 0.03887495 0.3884964
vn -0.994366 0.03327275 0.1006433
vn 0.3771512 0.04198432 -0.9251997
vn 0.09572443 0.03861045 -0.9946588
vn 0.097423 0.03863413 -0.994493
vn 0.3788261 0.04199764 -0.9245145
vn -0.4443518 0.8730426 -0.2008682
vn -0.5403444 0.8405654 -0.03844291
vn -0.527402 0.8470833 -0.06555093
vn -0.4629689 0.8691786 -0.1737476
vn -0.5403438 0.8405657 0.03844332
vn -0.3313023 0.881562 -0.3362845
vn -0.5274012 0.8470839 0.06555115
vn -0.3324447 0.8815758 -0.3351187
vn -0.4629676 0.8691795 0.1737471
vn -0.1966218 0.8709449 -0.4503275
vn -0.44435 0.8730436 0.2008681
vn -0.173648 0.8675908 -0.465975
vn -0.332444 0.8815764 0.3351182
vn -0.06246873 0.8456509 -0.5300682
vn -0.3313016 0.8815625 0.3362839
vn -0.03978167 0.8407723 -0.5399252
vn -0.1736481 0.8675909 0.4659748
vn 0.06246878 0.845651 -0.530068
vn -0.1966222 0.870945 0.4503271
vn 0.03978147 0.8407724 -0.5399251
vn -0.03978144 0.8407732 0.539924
vn 0.196622 0.8709451 -0.450327
vn -0.06246873 0.8456514 0.5300672
vn 0.173648 0.8675909 -0.4659748
vn 0.03978223 0.8407726 0.539925
vn 0.3313013 0.8815627 -0.3362836
vn 0.06246946 0.8456504 0.5300688
vn 0.3324436 0.8815765 -0.335118
vn 0.173649 0.8675895 0.4659769
vn 0.4443499 0.8730437 -0.2008677
vn 0.1966233 0.8709438 0.4503289
vn 0.4629672 0.8691797 -0.1737472
vn 0.3324445 0.8815758 0.3351189
vn 0.5274012 0.8470838 -0.06555108
vn 0.3313021 0.8815619 0.3362848
vn 0.540344 0.8405656 -0.03844326
vn 0.4629684 0.869179 0.1737475
vn 0.5274022 0.8470833 0.06555092
vn 0.4443509 0.8730431 0.200868
vn 0.5403446 0.8405652 0.03844285
vn 0.4387366 0.8979514 -0.03454651
vn 0.4046384 0.9009722 -0.156578
vn 0.6594951 0.6935354 -0.2899568
vn 0.7500646 0.6555086 -0.08781558
vn 0.5014599 0.7043715 -0.5023931
vn 0.4387365 0.8979515 0.03454635
vn 0.2983545 0.905699 -0.301154
vn 0.7500645 0.6555088 0.08781518
vn 0.2936125 0.6807873 -0.6710591
vn 0.4046389 0.900972 0.1565782
vn 0.1576832 0.8962495 -0.4145755
vn 0.659496 0.6935346 0.289957
vn 0.08852624 0.6344055 -0.7679145
vn 0.2983556 0.9056985 0.3011549
vn 0.03555232 0.8915475 -0.4515297
vn 0.5014616 0.7043698 0.5023938
vn -0.08852653 0.6344056 -0.7679145
vn 0.1576837 0.8962494 0.4145757
vn -0.03555253 0.8915476 -0.4515296
vn 0.293613 0.6807865 0.6710598
vn -0.293612 0.680787 -0.6710597
vn 0.03555252 0.8915475 0.4515298
vn -0.1576831 0.8962495 -0.4145755
vn 0.08852657 0.6344053 0.7679147
vn -0.5014606 0.7043709 -0.5023932
vn -0.03555231 0.8915473 0.45153
vn -0.2983551 0.9056987 -0.3011543
vn -0.0885262 0.6344053 0.7679148
vn -0.6594959 0.6935348 -0.2899563
vn -0.1576832 0.8962495 0.4145755
vn -0.4046388 0.9009721 -0.1565779
vn -0.2936125 0.6807874 0.671059
vn -0.7500646 0.6555086 -0.08781537
vn -0.2983547 0.905699 0.301154
vn -0.4387365 0.8979514 -0.03454638
vn -0.5014603 0.7043713 0.5023931
vn -0.7500646 0.6555086 0.08781568
vn -0.4046385 0.9009722 0.1565782
vn -0.4387366 0.8979514 0.03454656
vn -0.6594953 0.693535 0.2899568
g Platform-medium-base-lvl1_0
f 3/3/3 2/2/2 1/1/1
f 1/1/1 4/4/4 3/3/3
f 4/4/4 5/5/5 3/3/3
f 4/4/4 6/6/6 5/5/5
f 6/6/6 7/7/7 5/5/5
f 6/6/6 8/8/8 7/7/7
f 8/8/8 9/9/9 7/7/7
f 8/8/8 10/10/10 9/9/9
f 10/10/10 11/11/11 9/9/9
f 10/10/10 12/12/12 11/11/11
f 12/12/12 13/13/13 11/11/11
f 12/12/12 14/14/14 13/13/13
f 14/14/14 15/15/15 13/13/13
f 14/14/14 16/16/16 15/15/15
f 16/16/16 17/17/17 15/15/15
f 16/16/16 18/18/18 17/17/17
f 18/18/18 19/19/19 17/17/17
f 18/18/18 20/20/20 19/19/19
f 23/23/23 22/22/22 21/21/21
f 24/24/24 23/23/23 21/21/21
f 27/27/27 26/26/26 25/25/25
f 28/28/28 27/27/27 25/25/25
f 31/31/31 30/30/30 29/29/29
f 32/32/32 31/31/31 29/29/29
f 35/35/35 34/34/34 33/33/33
f 36/36/36 35/35/35 33/33/33
f 39/39/39 38/38/38 37/37/37
f 40/40/40 39/39/39 37/37/37
f 43/43/43 42/42/42 41/41/41
f 44/44/44 43/43/43 41/41/41
f 47/47/47 46/46/46 45/45/45
f 48/48/48 47/47/47 45/45/45
f 51/51/51 50/50/50 49/49/49
f 52/52/52 51/51/51 49/49/49
f 55/55/55 54/54/54 53/53/53
f 56/56/56 55/55/55 53/53/53
f 59/59/59 58/58/58 57/57/57
f 60/60/60 59/59/59 57/57/57
f 63/63/63 62/62/62 61/61/61
f 64/64/64 63/63/63 61/61/61
f 67/67/67 66/66/66 65/65/65
f 68/68/68 67/67/67 65/65/65
f 71/71/71 70/70/70 69/69/69
f 72/72/72 71/71/71 69/69/69
f 75/75/75 74/74/74 73/73/73
f 76/76/76 75/75/75 73/73/73
f 79/79/79 78/78/78 77/77/77
f 80/80/80 79/79/79 77/77/77
f 83/83/83 82/82/82 81/81/81
f 84/84/84 83/83/83 81/81/81
f 87/87/87 86/86/86 85/85/85
f 88/88/88 87/87/87 85/85/85
f 91/91/91 90/90/90 89/89/89
f 92/92/92 91/91/91 89/89/89
f 95/95/95 94/94/94 93/93/93
f 96/96/96 95/95/95 93/93/93
f 99/99/99 98/98/98 97/97/97
f 100/100/100 99/99/99 97/97/97
f 103/103/103 102/102/102 101/101/101
f 102/102/102 104/104/104 101/101/101
f 105/105/105 102/102/102 103/103/103
f 101/101/101 104/104/104 106/106/106
f 107/107/107 105/105/105 103/103/103
f 104/104/104 108/108/108 106/106/106
f 109/109/109 105/105/105 107/107/107
f 106/106/106 108/108/108 110/110/110
f 111/111/111 109/109/109 107/107/107
f 108/108/108 112/112/112 110/110/110
f 113/113/113 109/109/109 111/111/111
f 110/110/110 112/112/112 114/114/114
f 115/115/115 113/113/113 111/111/111
f 112/112/112 116/116/116 114/114/114
f 117/117/117 113/113/113 115/115/115
f 114/114/114 116/116/116 118/118/118
f 119/119/119 117/117/117 115/115/115
f 116/116/116 120/120/120 118/118/118
f 121/121/121 117/117/117 119/119/119
f 118/118/118 120/120/120 122/122/122
f 123/123/123 121/121/121 119/119/119
f 120/120/120 124/124/124 122/122/122
f 125/125/125 121/121/121 123/123/123
f 122/122/122 124/124/124 126/126/126
f 127/127/127 125/125/125 123/123/123
f 124/124/124 128/128/128 126/126/126
f 129/129/129 125/125/125 127/127/127
f 126/126/126 128/128/128 130/130/130
f 131/131/131 129/129/129 127/127/127
f 128/128/128 132/132/132 130/130/130
f 133/133/133 129/129/129 131/131/131
f 130/130/130 132/132/132 134/134/134
f 135/135/135 133/133/133 131/131/131
f 132/132/132 136/136/136 134/134/134
f 137/137/137 133/133/133 135/135/135
f 138/138/138 134/134/134 136/136/136
f 139/139/139 137/137/137 135/135/135
f 140/140/140 138/138/138 136/136/136
f 140/140/140 137/137/137 139/139/139
f 138/138/138 140/140/140 139/139/139
f 143/143/143 142/142/142 141/141/141
f 144/144/144 143/143/143 141/141/141
f 143/143/143 145/145/145 142/142/142
f 144/144/144 141/141/141 146/146/146
f 145/145/145 147/147/147 142/142/142
f 148/148/148 144/144/144 146/146/146
f 145/145/145 149/149/149 147/147/147
f 148/148/148 146/146/146 150/150/150
f 149/149/149 151/151/151 147/147/147
f 152/152/152 148/148/148 150/150/150
f 149/149/149 153/153/153 151/151/151
f 152/152/152 150/150/150 154/154/154
f 153/153/153 155/155/155 151/151/151
f 156/156/156 152/152/152 154/154/154
f 153/153/153 157/157/157 155/155/155
f 156/156/156 154/154/154 158/158/158
f 157/157/157 159/159/159 155/155/155
f 160/160/160 156/156/156 158/158/158
f 157/157/157 161/161/161 159/159/159
f 160/160/160 158/158/158 162/162/162
f 161/161/161 163/163/163 159/159/159
f 164/164/164 160/160/160 162/162/162
f 161/161/161 165/165/165 163/163/163
f 164/164/164 162/162/162 166/166/166
f 165/165/165 167/167/167 163/163/163
f 168/168/168 164/164/164 166/166/166
f 165/165/165 169/169/169 167/167/167
f 168/168/168 166/166/166 170/170/170
f 169/169/169 171/171/171 167/167/167
f 172/172/172 168/168/168 170/170/170
f 169/169/169 173/173/173 171/171/171
f 172/172/172 170/170/170 174/174/174
f 173/173/173 175/175/175 171/171/171
f 176/176/176 172/172/172 174/174/174
f 173/173/173 177/177/177 175/175/175
f 176/176/176 174/174/174 178/178/178
f 177/177/177 179/179/179 175/175/175
f 180/180/180 176/176/176 178/178/178
f 180/180/180 178/178/178 179/179/179
f 177/177/177 180/180/180 179/179/179
