g PlatformStop
v -0.48 0.000517374 -5.904955E-09
v -0.4636444 0.05538668 -0.1242331
v -0.48 0.05538668 -6.080056E-09
v -0.4636444 0.0005173701 -0.1242331
v -0.4156922 0.05538667 -0.24
v -0.4156922 0.0005173614 -0.24
v -0.3394112 0.05538665 -0.3394112
v -0.3394112 0.0005173488 -0.3394112
v -0.24 0.05538664 -0.4156922
v -0.24 0.0005173329 -0.4156922
v -0.1242331 0.05538663 -0.4636444
v -0.1242331 0.0005173195 -0.4636444
v -2.588862E-08 0.0553866 -0.48
v -3.399794E-08 0.0005172958 -0.48
v 0.1242331 0.05538659 -0.4636444
v 0.1242331 0.0005172773 -0.4636444
v 0.2399999 0.05538657 -0.4156922
v 0.2399999 0.0005172556 -0.4156922
v 0.3394112 0.05538655 -0.3394113
v 0.3394112 0.0005172415 -0.3394113
v 0.4156921 0.05538655 -0.2400001
v 0.4156921 0.0005172359 -0.2400001
v 0.4636444 0.05538653 -0.1242333
v 0.4636444 0.0005172301 -0.1242333
v 0.48 0.05538654 -1.92999E-07
v 0.48 0.000517229 -1.928239E-07
v 0.4636444 0.05538654 0.1242329
v 0.4636444 0.000517233 0.1242329
v 0.4156923 0.05538655 0.2399998
v 0.4156923 0.0005172417 0.2399998
v 0.3394115 0.05538657 0.3394111
v 0.3394115 0.0005172543 0.3394111
v 0.2400001 0.05538658 0.4156921
v 0.2400001 0.0005172702 0.4156921
v 0.1242333 0.05538659 0.4636443
v 0.1242333 0.0005172836 0.4636443
v 2.335083E-07 0.05538661 0.48
v 2.25399E-07 0.0005173073 0.48
v -0.1242329 0.05538663 0.4636444
v -0.1242329 0.0005173258 0.4636444
v -0.2399997 0.05538665 0.4156923
v -0.2399997 0.0005173475 0.4156923
v -0.3394111 0.05538667 0.3394115
v -0.3394111 0.0005173616 0.3394115
v -0.4156921 0.05538667 0.2400003
v -0.4156921 0.0005173672 0.2400003
v -0.4636443 0.05538668 0.1242335
v -0.4636443 0.000517373 0.1242335
v -0.48 0.05538668 -6.080056E-09
v -0.48 0.000517374 -5.904955E-09
v -0.3194668 0.05888594 0.1844445
v -0.356319 0.05888593 0.09547566
v 8.220902E-09 0.05888588 -1.336685E-08
v -0.2608435 0.05888592 0.2608438
v -0.3688886 0.05888594 -1.336684E-08
v -0.1844441 0.0588859 0.319467
v -0.356319 0.05888592 -0.0954754
v -0.0954752 0.05888589 0.3563191
v -0.3194669 0.05888592 -0.1844443
v 1.797218E-07 0.05888588 0.3688886
v -0.2608437 0.05888592 -0.2608437
v 0.09547554 0.05888587 0.356319
v -0.1844443 0.0588859 -0.3194669
v 0.1844444 0.05888585 0.3194668
v -0.0954754 0.05888589 -0.356319
v 0.2608438 0.05888585 0.2608435
v -1.962942E-08 0.05888587 -0.3688886
v 0.319467 0.05888584 0.1844442
v 0.09547537 0.05888588 -0.356319
v 0.3563191 0.05888583 0.09547524
v 0.1844442 0.05888585 -0.3194669
v 0.3688886 0.05888582 -1.570174E-07
v 0.2608436 0.05888584 -0.2608437
v 0.356319 0.05888583 -0.09547551
v 0.3194669 0.05888583 -0.1844444
v -0.4156921 0.05538667 0.2400003
v -0.4636443 0.05538668 0.1242335
v -0.4396072 0.08038669 0.1177927
v -0.394141 0.08038668 0.2275577
v -0.3394111 0.05538667 0.3394115
v -0.4551149 0.08038668 -7.189467E-09
v -0.48 0.05538668 -6.080056E-09
v -0.3218147 0.08038668 0.3218151
v -0.2399997 0.05538665 0.4156923
v -0.4396073 0.08038668 -0.1177924
v -0.4636444 0.05538668 -0.1242331
v -0.2275572 0.08038665 0.3941412
v -0.1242329 0.05538663 0.4636444
v -0.3941411 0.08038667 -0.2275575
v -0.4156922 0.05538667 -0.24
v -0.1177922 0.08038664 0.4396074
v 2.335083E-07 0.05538661 0.48
v -0.3218148 0.08038664 -0.3218148
v -0.3394112 0.05538665 -0.3394112
v 2.253016E-07 0.08038662 0.4551149
v 0.1242333 0.05538659 0.4636443
v -0.2275574 0.08038664 -0.3941411
v -0.24 0.05538664 -0.4156922
v 0.1177926 0.0803866 0.4396072
v 0.2400001 0.05538658 0.4156921
v -0.1177924 0.08038662 -0.4396073
v -0.1242331 0.05538663 -0.4636444
v 0.2275576 0.08038658 0.394141
v 0.3394115 0.05538657 0.3394111
v -2.064724E-08 0.0803866 -0.4551149
v -2.588862E-08 0.0553866 -0.48
v 0.321815 0.08038658 0.3218147
v 0.4156923 0.05538655 0.2399998
v 0.1177924 0.08038658 -0.4396073
v 0.1242331 0.05538659 -0.4636444
v 0.3941412 0.08038655 0.2275573
v 0.4636444 0.05538654 0.1242329
v 0.2275574 0.08038656 -0.3941411
v 0.2399999 0.05538657 -0.4156922
v 0.4396074 0.08038653 0.1177922
v 0.48 0.05538654 -1.92999E-07
v 0.3218148 0.08038654 -0.3218149
v 0.3394112 0.05538655 -0.3394113
v 0.4551149 0.08038654 -1.844178E-07
v 0.4636444 0.05538653 -0.1242333
v 0.3941411 0.08038654 -0.2275576
v 0.4156921 0.05538655 -0.2400001
v 0.4396072 0.08038652 -0.1177926
v 0.212588 0.09763289 -0.3682134
v 0.3006449 0.09763288 -0.3006451
v 0.3682133 0.09763288 -0.2125882
v 0.4106886 0.09763287 -0.1100438
v 0.4251761 0.09763287 -1.726867E-07
v 0.4106887 0.09763288 0.1100435
v 0.1100437 0.09763292 -0.4106887
v 0.3682134 0.09763287 0.2125879
v -1.605409E-08 0.09763292 -0.4251761
v 0.3006451 0.09763289 0.3006448
v -0.1100437 0.09763296 -0.4106886
v 0.2125882 0.09763291 0.3682133
v -0.2125881 0.09763296 -0.3682134
v 0.1100439 0.09763291 0.4106886
v -0.3006449 0.09763299 -0.300645
v 2.137155E-07 0.09763295 0.4251761
v -0.3682133 0.097633 -0.2125881
v -0.1100435 0.09763295 0.4106887
v -0.4106886 0.09763299 -0.1100437
v -0.2125878 0.09763298 0.3682134
v -0.4251761 0.097633 -7.116994E-09
v -0.3006448 0.09763298 0.3006451
v -0.4106885 0.097633 0.110044
v -0.3682132 0.097633 0.2125883
v -0.3194669 0.05888592 -0.1844443
v -0.356319 0.05888592 -0.0954754
v -0.2608437 0.05888592 -0.2608437
v -0.3688886 0.05888594 -1.336684E-08
v -0.356319 0.05888593 0.09547566
v -0.1844443 0.0588859 -0.3194669
v -0.3194668 0.05888594 0.1844445
v -0.2608435 0.05888592 0.2608438
v -0.0954754 0.05888589 -0.356319
v -0.1844441 0.0588859 0.319467
v -1.962942E-08 0.05888587 -0.3688886
v -0.0954752 0.05888589 0.3563191
v 0.09547537 0.05888588 -0.356319
v 1.797218E-07 0.05888588 0.3688886
v 0.1844442 0.05888585 -0.3194669
v 0.09547554 0.05888587 0.356319
v 0.2608436 0.05888584 -0.2608437
v 0.1844444 0.05888585 0.3194668
v 0.3194669 0.05888583 -0.1844444
v 0.2608438 0.05888585 0.2608435
v 0.356319 0.05888583 -0.09547551
v 0.319467 0.05888584 0.1844442
v 0.3688886 0.05888582 -1.570174E-07
v 0.3563191 0.05888583 0.09547524
vt 0 1
vt 0.04166667 0
vt 0 0
vt 0.04166667 1
vt 0.08333334 0
vt 0.08333334 1
vt 0.125 0
vt 0.125 1
vt 0.1666667 0
vt 0.1666667 1
vt 0.2083333 0
vt 0.2083333 1
vt 0.25 0
vt 0.25 1
vt 0.2916667 0
vt 0.2916667 1
vt 0.3333333 0
vt 0.3333333 1
vt 0.375 0
vt 0.375 1
vt 0.4166667 0
vt 0.4166667 1
vt 0.4583333 0
vt 0.4583333 1
vt 0.5 0
vt 0.5 1
vt 0.5416667 0
vt 0.5416667 1
vt 0.5833334 0
vt 0.5833334 1
vt 0.625 0
vt 0.625 1
vt 0.6666667 0
vt 0.6666667 1
vt 0.7083334 0
vt 0.7083334 1
vt 0.75 0
vt 0.75 1
vt 0.7916667 0
vt 0.7916667 1
vt 0.8333334 0
vt 0.8333334 1
vt 0.875 0
vt 0.875 1
vt 0.9166667 0
vt 0.9166667 1
vt 0.9583334 0
vt 0.9583334 1
vt 1 0
vt 1 1
vt 0.887907 0.2760414
vt 0.9326543 0.3840703
vt 0.5 0.5
vt 0.8167247 0.1832749
vt 0.9479167 0.5
vt 0.7239581 0.1120927
vt 0.9326543 0.6159294
vt 0.6159291 0.06734566
vt 0.8879072 0.7239584
vt 0.4999998 0.05208334
vt 0.816725 0.816725
vt 0.3840705 0.06734578
vt 0.7239584 0.8879072
vt 0.2760415 0.1120929
vt 0.6159294 0.9326543
vt 0.1832749 0.1832753
vt 0.5000001 0.9479167
vt 0.1120927 0.2760419
vt 0.3840707 0.9326543
vt 0.06734566 0.3840708
vt 0.2760417 0.8879073
vt 0.05208334 0.5000002
vt 0.1832752 0.816725
vt 0.06734574 0.6159295
vt 0.1120929 0.7239584
vt 0.9330126 0.2499997
vt 0.9829628 0.3705902
vt 0.9762228 0.3723961
vt 0.9269695 0.2534886
vt 0.8535532 0.1464464
vt 0.9930221 0.5
vt 1 0.5
vt 0.8486192 0.1513805
vt 0.7499998 0.06698716
vt 0.9762229 0.6276035
vt 0.982963 0.6294096
vt 0.7465109 0.07303016
vt 0.6294093 0.01703703
vt 0.9269697 0.7465111
vt 0.9330127 0.75
vt 0.6276033 0.02377709
vt 0.4999998 0
vt 0.8486193 0.8486193
vt 0.8535534 0.8535534
vt 0.4999998 0.006977837
vt 0.3705903 0.01703715
vt 0.7465111 0.9269697
vt 0.75 0.9330127
vt 0.3723963 0.02377721
vt 0.2499999 0.0669874
vt 0.6276035 0.9762229
vt 0.6294096 0.982963
vt 0.2534888 0.0730304
vt 0.1464464 0.1464468
vt 0.5000001 0.9930221
vt 0.5000001 1
vt 0.1513805 0.1513809
vt 0.0669872 0.2500002
vt 0.3723966 0.9762229
vt 0.3705905 0.982963
vt 0.07303016 0.2534891
vt 0.01703703 0.3705907
vt 0.253489 0.9269698
vt 0.2500001 0.9330128
vt 0.02377709 0.3723967
vt 0 0.5000002
vt 0.1513808 0.8486194
vt 0.1464467 0.8535535
vt 0.006977837 0.5000002
vt 0.01703711 0.6294097
vt 0.07303035 0.7465112
vt 0.06698736 0.7500002
vt 0.02377721 0.6276037
vt 0.2630209 0.91046
vt 0.1648609 0.8351393
vt 0.08954012 0.7369794
vt 0.04219143 0.6226696
vt 0.02604167 0.5000002
vt 0.04219135 0.3773308
vt 0.3773306 0.9578087
vt 0.08953993 0.2630211
vt 0.5000001 0.9739584
vt 0.1648607 0.1648611
vt 0.6226695 0.9578086
vt 0.2630207 0.08954012
vt 0.7369792 0.91046
vt 0.3773304 0.04219147
vt 0.8351392 0.8351392
vt 0.4999998 0.02604167
vt 0.91046 0.7369792
vt 0.6226692 0.04219135
vt 0.9578086 0.6226695
vt 0.7369789 0.08953993
vt 0.9739584 0.5
vt 0.835139 0.1648607
vt 0.9578085 0.3773302
vt 0.9104599 0.2630206
vt 0.8879072 0.7239584
vt 0.9326543 0.6159294
vt 0.816725 0.816725
vt 0.9479167 0.5
vt 0.9326543 0.3840703
vt 0.7239584 0.8879072
vt 0.887907 0.2760414
vt 0.8167247 0.1832749
vt 0.6159294 0.9326543
vt 0.7239581 0.1120927
vt 0.5000001 0.9479167
vt 0.6159291 0.06734566
vt 0.3840707 0.9326543
vt 0.4999998 0.05208334
vt 0.2760417 0.8879073
vt 0.3840705 0.06734578
vt 0.1832752 0.816725
vt 0.2760415 0.1120929
vt 0.1120929 0.7239584
vt 0.1832749 0.1832753
vt 0.06734574 0.6159295
vt 0.1120927 0.2760419
vt 0.05208334 0.5000002
vt 0.06734566 0.3840708
vn -1 0 2.679105E-07
vn -0.8970425 0.3708654 -0.2403618
vn -0.9286866 0.3708654 2.447648E-07
vn -0.9659258 0 -0.2588191
vn -0.8042662 0.3708651 -0.4643435
vn -0.8660253 -1.45767E-07 -0.5000002
vn -0.6566806 0.3708655 -0.6566806
vn -0.7071068 0 -0.7071066
vn -0.4643433 0.3708655 -0.8042661
vn -0.5000001 0 -0.8660253
vn -0.2403617 0.3708654 -0.8970423
vn -0.258819 0 -0.9659258
vn 0 0.3708654 -0.9286866
vn 0 0 -1
vn 0.2403617 0.3708652 -0.8970425
vn 0.2588188 0 -0.9659258
vn 0.4643433 0.3708653 -0.8042663
vn 0.5 0 -0.8660254
vn 0.6566805 0.3708652 -0.6566808
vn 0.7071066 0 -0.7071069
vn 0.8042662 0.3708651 -0.4643437
vn 0.8660253 -1.473671E-07 -0.5000004
vn 0.8970422 0.3708655 -0.2403621
vn 0.9659257 0 -0.2588194
vn 0.9286866 0.3708653 -3.169304E-07
vn 1 0 -3.193397E-07
vn 0.8970426 0.3708651 0.2403615
vn 0.9659259 0 0.2588187
vn 0.8042666 0.370865 0.4643429
vn 0.8660257 1.457668E-07 0.4999995
vn 0.6566809 0.3708652 0.6566803
vn 0.7071071 0 0.7071064
vn 0.4643435 0.3708651 0.8042662
vn 0.5000002 0 0.8660253
vn 0.2403622 0.370865 0.8970425
vn 0.2588195 0 0.9659257
vn 5.397462E-07 0.3708654 0.9286866
vn 4.592751E-07 0 1
vn -0.2403613 0.3708651 0.8970428
vn -0.2588185 0 0.9659259
vn -0.4643428 0.3708652 0.8042666
vn -0.4999995 0 0.8660258
vn -0.6566802 0.3708651 0.6566812
vn -0.7071062 0 0.7071073
vn -0.8042661 0.370865 0.464344
vn -0.8660251 0 0.5000005
vn -0.8970425 0.3708648 0.2403621
vn -0.9659257 0 0.2588194
vn -0.9286866 0.3708654 2.447648E-07
vn -1 0 2.679105E-07
vn 1.605973E-07 1 0
vn 1.313218E-07 1 0
vn 1.41402E-07 1 0
vn 1.875858E-07 1 0
vn 1.551158E-07 1 0
vn 1.556096E-07 1 0
vn 1.317623E-07 1 0
vn 0 1 0
vn 1.257224E-07 1 0
vn 0 1 0
vn 1.522704E-07 1 0
vn 1.547618E-07 1 0
vn 1.339834E-07 1 0
vn 1.252835E-07 1 0
vn 1.514162E-07 1 0
vn 1.169551E-07 1 0
vn 0 1 0
vn 1.506941E-07 1 0
vn 0 1 0
vn 1.567339E-07 1 0
vn 2.117882E-07 1 0
vn 1.551158E-07 1 0
vn 1.70551E-07 1 0
vn 1.438077E-07 1 0
vn 1.481115E-07 1 0
vn -0.8042661 0.370865 0.464344
vn -0.8970425 0.3708648 0.2403621
vn -0.5951219 0.7876558 0.1594626
vn -0.5335712 0.787656 0.3080581
vn -0.6566802 0.3708651 0.6566812
vn -0.6161154 0.7876558 0
vn -0.9286866 0.3708654 2.447648E-07
vn -0.4356589 0.787656 0.4356596
vn -0.4643428 0.3708652 0.8042666
vn -0.5951216 0.7876561 -0.1594623
vn -0.8970425 0.3708654 -0.2403618
vn -0.3080572 0.7876559 0.5335718
vn -0.2403613 0.3708651 0.8970428
vn -0.5335718 0.7876557 -0.308058
vn -0.8042662 0.3708651 -0.4643435
vn -0.159462 0.7876558 0.595122
vn 5.397462E-07 0.3708654 0.9286866
vn -0.4356596 0.7876557 -0.4356596
vn -0.6566806 0.3708655 -0.6566806
vn 4.470874E-07 0.7876558 0.6161155
vn 0.2403622 0.370865 0.8970425
vn -0.3080576 0.7876559 -0.5335715
vn -0.4643433 0.3708655 -0.8042661
vn 0.1594628 0.7876557 0.5951219
vn 0.4643435 0.3708651 0.8042662
vn -0.1594622 0.7876559 -0.5951217
vn -0.2403617 0.3708654 -0.8970423
vn 0.308058 0.7876557 0.5335717
vn 0.6566809 0.3708652 0.6566803
vn 0 0.787656 -0.6161153
vn 0 0.3708654 -0.9286866
vn 0.4356596 0.7876559 0.4356591
vn 0.8042666 0.370865 0.4643429
vn 0.1594625 0.7876557 -0.595122
vn 0.2403617 0.3708652 -0.8970425
vn 0.533572 0.7876557 0.3080574
vn 0.8970426 0.3708651 0.2403615
vn 0.3080577 0.7876558 -0.5335717
vn 0.4643433 0.3708653 -0.8042663
vn 0.5951222 0.7876555 0.1594622
vn 0.9286866 0.3708653 -3.169304E-07
vn 0.4356596 0.7876557 -0.4356596
vn 0.6566805 0.3708652 -0.6566808
vn 0.6161154 0.7876558 -3.196072E-07
vn 0.8970422 0.3708655 -0.2403621
vn 0.5335717 0.7876558 -0.3080579
vn 0.8042662 0.3708651 -0.4643437
vn 0.5951219 0.7876558 -0.1594626
vn 0.002173272 0.9999906 -0.003763977
vn 0.003073796 0.9999906 -0.003073628
vn 0.003763787 0.9999906 -0.00217316
vn 0.004198914 0.9999906 -0.001124831
vn 0.004346187 0.9999906 -1.744911E-07
vn 0.004198594 0.9999906 0.001125029
vn 0.001125171 0.9999906 -0.00419852
vn 0.00376387 0.9999906 0.002172913
vn 0 0.9999906 -0.00434613
vn 0.003073332 0.9999906 0.003073037
vn -0.0011247 0.9999906 -0.004198347
vn 0.002173149 0.9999906 0.003763882
vn -0.00217327 0.9999906 -0.003764263
vn 0.001124962 0.9999906 0.004197931
vn -0.003073356 0.9999906 -0.00307369
vn 1.737903E-07 0.9999906 0.004346086
vn -0.003763821 0.9999906 -0.002173169
vn -0.001124728 0.9999906 0.004198099
vn -0.004197857 0.9999906 -0.001124824
vn -0.002172737 0.9999906 0.003763568
vn -0.004346204 0.9999906 0
vn -0.003072656 0.9999906 0.003072875
vn -0.004197499 0.9999906 0.001124712
vn -0.00376318 0.9999906 0.00217284
vn 0.4910533 0.8237045 0.2835096
vn 0.5476986 0.8237045 0.1467553
vn 0.4009433 0.8237043 0.4009433
vn 0.5670197 0.8237043 0
vn 0.5476986 0.8237044 -0.1467559
vn 0.2835096 0.8237047 0.491053
vn 0.4910532 0.8237043 -0.2835101
vn 0.4009432 0.8237043 -0.4009436
vn 0.1467557 0.8237045 0.5476984
vn 0.2835096 0.8237043 -0.4910535
vn 0 0.8237044 0.5670195
vn 0.1467552 0.8237045 -0.5476986
vn -0.1467552 0.8237047 0.5476984
vn 0 0.8237043 -0.5670196
vn -0.2835092 0.8237047 0.491053
vn -0.1467557 0.8237045 -0.5476984
vn -0.4009428 0.8237047 0.4009431
vn -0.2835097 0.8237045 -0.4910529
vn -0.491053 0.8237045 0.2835097
vn -0.4009432 0.8237045 -0.400943
vn -0.5476981 0.8237047 0.1467558
vn -0.4910531 0.8237047 -0.2835093
vn -0.5670194 0.8237045 0
vn -0.5476986 0.8237045 -0.1467553
g PlatformStop_0
f 3/3/3 2/2/2 1/1/1
f 2/2/2 4/4/4 1/1/1
f 2/2/2 5/5/5 4/4/4
f 5/5/5 6/6/6 4/4/4
f 5/5/5 7/7/7 6/6/6
f 7/7/7 8/8/8 6/6/6
f 7/7/7 9/9/9 8/8/8
f 9/9/9 10/10/10 8/8/8
f 9/9/9 11/11/11 10/10/10
f 11/11/11 12/12/12 10/10/10
f 11/11/11 13/13/13 12/12/12
f 13/13/13 14/14/14 12/12/12
f 13/13/13 15/15/15 14/14/14
f 15/15/15 16/16/16 14/14/14
f 15/15/15 17/17/17 16/16/16
f 17/17/17 18/18/18 16/16/16
f 17/17/17 19/19/19 18/18/18
f 19/19/19 20/20/20 18/18/18
f 19/19/19 21/21/21 20/20/20
f 21/21/21 22/22/22 20/20/20
f 21/21/21 23/23/23 22/22/22
f 23/23/23 24/24/24 22/22/22
f 23/23/23 25/25/25 24/24/24
f 25/25/25 26/26/26 24/24/24
f 25/25/25 27/27/27 26/26/26
f 27/27/27 28/28/28 26/26/26
f 27/27/27 29/29/29 28/28/28
f 29/29/29 30/30/30 28/28/28
f 29/29/29 31/31/31 30/30/30
f 31/31/31 32/32/32 30/30/30
f 31/31/31 33/33/33 32/32/32
f 33/33/33 34/34/34 32/32/32
f 33/33/33 35/35/35 34/34/34
f 35/35/35 36/36/36 34/34/34
f 35/35/35 37/37/37 36/36/36
f 37/37/37 38/38/38 36/36/36
f 37/37/37 39/39/39 38/38/38
f 39/39/39 40/40/40 38/38/38
f 39/39/39 41/41/41 40/40/40
f 41/41/41 42/42/42 40/40/40
f 41/41/41 43/43/43 42/42/42
f 43/43/43 44/44/44 42/42/42
f 43/43/43 45/45/45 44/44/44
f 45/45/45 46/46/46 44/44/44
f 45/45/45 47/47/47 46/46/46
f 47/47/47 48/48/48 46/46/46
f 47/47/47 49/49/49 48/48/48
f 49/49/49 50/50/50 48/48/48
f 53/53/53 52/52/52 51/51/51
f 53/53/53 51/51/51 54/54/54
f 53/53/53 55/55/55 52/52/52
f 53/53/53 54/54/54 56/56/56
f 53/53/53 57/57/57 55/55/55
f 53/53/53 56/56/56 58/58/58
f 53/53/53 59/59/59 57/57/57
f 53/53/53 58/58/58 60/60/60
f 53/53/53 61/61/61 59/59/59
f 53/53/53 60/60/60 62/62/62
f 53/53/53 63/63/63 61/61/61
f 53/53/53 62/62/62 64/64/64
f 53/53/53 65/65/65 63/63/63
f 53/53/53 64/64/64 66/66/66
f 53/53/53 67/67/67 65/65/65
f 53/53/53 66/66/66 68/68/68
f 53/53/53 69/69/69 67/67/67
f 53/53/53 68/68/68 70/70/70
f 53/53/53 71/71/71 69/69/69
f 53/53/53 70/70/70 72/72/72
f 53/53/53 73/73/73 71/71/71
f 53/53/53 72/72/72 74/74/74
f 53/53/53 75/75/75 73/73/73
f 53/53/53 74/74/74 75/75/75
f 78/78/78 77/77/77 76/76/76
f 79/79/79 78/78/78 76/76/76
f 79/79/79 76/76/76 80/80/80
f 78/78/78 81/81/81 77/77/77
f 81/81/81 82/82/82 77/77/77
f 83/83/83 79/79/79 80/80/80
f 83/83/83 80/80/80 84/84/84
f 81/81/81 85/85/85 82/82/82
f 85/85/85 86/86/86 82/82/82
f 87/87/87 83/83/83 84/84/84
f 87/87/87 84/84/84 88/88/88
f 85/85/85 89/89/89 86/86/86
f 89/89/89 90/90/90 86/86/86
f 91/91/91 87/87/87 88/88/88
f 91/91/91 88/88/88 92/92/92
f 89/89/89 93/93/93 90/90/90
f 93/93/93 94/94/94 90/90/90
f 95/95/95 91/91/91 92/92/92
f 95/95/95 92/92/92 96/96/96
f 93/93/93 97/97/97 94/94/94
f 97/97/97 98/98/98 94/94/94
f 99/99/99 95/95/95 96/96/96
f 99/99/99 96/96/96 100/100/100
f 97/97/97 101/101/101 98/98/98
f 101/101/101 102/102/102 98/98/98
f 103/103/103 99/99/99 100/100/100
f 103/103/103 100/100/100 104/104/104
f 101/101/101 105/105/105 102/102/102
f 105/105/105 106/106/106 102/102/102
f 107/107/107 103/103/103 104/104/104
f 107/107/107 104/104/104 108/108/108
f 105/105/105 109/109/109 106/106/106
f 109/109/109 110/110/110 106/106/106
f 111/111/111 107/107/107 108/108/108
f 111/111/111 108/108/108 112/112/112
f 109/109/109 113/113/113 110/110/110
f 113/113/113 114/114/114 110/110/110
f 115/115/115 111/111/111 112/112/112
f 115/115/115 112/112/112 116/116/116
f 113/113/113 117/117/117 114/114/114
f 117/117/117 118/118/118 114/114/114
f 119/119/119 115/115/115 116/116/116
f 119/119/119 116/116/116 120/120/120
f 117/117/117 121/121/121 118/118/118
f 121/121/121 122/122/122 118/118/118
f 123/123/123 120/120/120 122/122/122
f 123/123/123 119/119/119 120/120/120
f 121/121/121 123/123/123 122/122/122
f 124/124/124 113/113/113 109/109/109
f 125/125/125 117/117/117 113/113/113
f 124/124/124 125/125/125 113/113/113
f 126/126/126 121/121/121 117/117/117
f 125/125/125 126/126/126 117/117/117
f 127/127/127 123/123/123 121/121/121
f 126/126/126 127/127/127 121/121/121
f 128/128/128 119/119/119 123/123/123
f 127/127/127 128/128/128 123/123/123
f 129/129/129 115/115/115 119/119/119
f 128/128/128 129/129/129 119/119/119
f 130/130/130 124/124/124 109/109/109
f 130/130/130 109/109/109 105/105/105
f 129/129/129 131/131/131 115/115/115
f 131/131/131 111/111/111 115/115/115
f 132/132/132 130/130/130 105/105/105
f 132/132/132 105/105/105 101/101/101
f 131/131/131 133/133/133 111/111/111
f 133/133/133 107/107/107 111/111/111
f 134/134/134 132/132/132 101/101/101
f 134/134/134 101/101/101 97/97/97
f 133/133/133 135/135/135 107/107/107
f 135/135/135 103/103/103 107/107/107
f 136/136/136 134/134/134 97/97/97
f 136/136/136 97/97/97 93/93/93
f 135/135/135 137/137/137 103/103/103
f 137/137/137 99/99/99 103/103/103
f 138/138/138 136/136/136 93/93/93
f 138/138/138 93/93/93 89/89/89
f 137/137/137 139/139/139 99/99/99
f 139/139/139 95/95/95 99/99/99
f 140/140/140 138/138/138 89/89/89
f 140/140/140 89/89/89 85/85/85
f 139/139/139 141/141/141 95/95/95
f 141/141/141 91/91/91 95/95/95
f 142/142/142 140/140/140 85/85/85
f 142/142/142 85/85/85 81/81/81
f 141/141/141 143/143/143 91/91/91
f 143/143/143 87/87/87 91/91/91
f 144/144/144 142/142/142 81/81/81
f 144/144/144 81/81/81 78/78/78
f 143/143/143 145/145/145 87/87/87
f 145/145/145 83/83/83 87/87/87
f 146/146/146 144/144/144 78/78/78
f 146/146/146 78/78/78 79/79/79
f 147/147/147 79/79/79 83/83/83
f 145/145/145 147/147/147 83/83/83
f 147/147/147 146/146/146 79/79/79
f 148/148/148 140/140/140 142/142/142
f 149/149/149 148/148/148 142/142/142
f 149/149/149 142/142/142 144/144/144
f 148/148/148 150/150/150 140/140/140
f 151/151/151 149/149/149 144/144/144
f 151/151/151 144/144/144 146/146/146
f 150/150/150 138/138/138 140/140/140
f 152/152/152 151/151/151 146/146/146
f 152/152/152 146/146/146 147/147/147
f 150/150/150 153/153/153 138/138/138
f 154/154/154 152/152/152 147/147/147
f 154/154/154 147/147/147 145/145/145
f 153/153/153 136/136/136 138/138/138
f 155/155/155 154/154/154 145/145/145
f 153/153/153 156/156/156 136/136/136
f 155/155/155 145/145/145 143/143/143
f 156/156/156 134/134/134 136/136/136
f 157/157/157 155/155/155 143/143/143
f 156/156/156 158/158/158 134/134/134
f 157/157/157 143/143/143 141/141/141
f 158/158/158 132/132/132 134/134/134
f 159/159/159 157/157/157 141/141/141
f 158/158/158 160/160/160 132/132/132
f 159/159/159 141/141/141 139/139/139
f 160/160/160 130/130/130 132/132/132
f 161/161/161 159/159/159 139/139/139
f 160/160/160 162/162/162 130/130/130
f 161/161/161 139/139/139 137/137/137
f 162/162/162 124/124/124 130/130/130
f 163/163/163 161/161/161 137/137/137
f 162/162/162 164/164/164 124/124/124
f 163/163/163 137/137/137 135/135/135
f 164/164/164 125/125/125 124/124/124
f 165/165/165 163/163/163 135/135/135
f 164/164/164 166/166/166 125/125/125
f 165/165/165 135/135/135 133/133/133
f 166/166/166 126/126/126 125/125/125
f 167/167/167 165/165/165 133/133/133
f 166/166/166 168/168/168 126/126/126
f 167/167/167 133/133/133 131/131/131
f 168/168/168 127/127/127 126/126/126
f 169/169/169 167/167/167 131/131/131
f 168/168/168 170/170/170 127/127/127
f 169/169/169 131/131/131 129/129/129
f 170/170/170 128/128/128 127/127/127
f 171/171/171 169/169/169 129/129/129
f 170/170/170 171/171/171 128/128/128
f 171/171/171 129/129/129 128/128/128
