g Platform-medium-bird-lvl1
v -3.791422 -0.001499561 -5.393699
v -4.526508 -3.153134 -5.391446
v -3.892124 -3.153134 -5.56143
v -4.409392 -0.001499561 -5.228115
v -4.99091 -3.153134 -4.927044
v -4.861779 -0.001499561 -4.775728
v -5.160893 -3.153134 -4.292661
v -5.027363 -0.001499561 -4.157757
v -5.160893 -3.153134 4.295291
v -5.027363 -0.001499561 4.160388
v -4.99091 -3.153134 4.929675
v -4.861779 -0.001499561 4.778358
v -4.526508 -3.153134 5.394078
v -4.409392 -0.001499561 5.230745
v -3.892124 -3.153134 5.564061
v -3.791422 -0.001499561 5.39633
v 3.892124 -3.153134 5.564059
v 3.791422 -0.001499561 5.396328
v 3.791422 -0.001499561 5.396328
v 4.526508 -3.153134 5.394076
v 3.892124 -3.153134 5.564059
v 4.409392 -0.001499561 5.230744
v 4.990911 -3.153134 4.929675
v 4.86178 -0.001499561 4.778358
v 5.160893 -3.153134 4.29529
v 5.027363 -0.001499561 4.160388
v 5.160893 -3.153134 -4.292661
v 5.027363 -0.001499561 -4.157759
v 4.99091 -3.153134 -4.927045
v 4.861779 -0.001499561 -4.775729
v 4.526508 -3.153134 -5.391447
v 4.409392 -0.001499561 -5.228115
v 3.892124 -3.153134 -5.56143
v 3.791422 -0.001499561 -5.3937
v -3.892124 -3.153134 -5.56143
v -3.791422 -0.001499561 -5.393699
v -3.485517 -0.001499561 -4.99162
v 3.485517 -0.001499561 -4.991622
v 4.053628 -0.001499561 -4.836579
v -4.053628 -0.001499561 -4.836579
v -4.469513 -0.001499561 -4.412996
v 4.469513 -0.001499561 -4.412996
v 4.621739 -0.001499561 -3.834371
v -4.621739 -0.001499561 -3.834371
v 4.621738 -0.001499561 3.837001
v -4.621739 -0.001499561 3.837001
v 4.469514 -0.001499561 4.415626
v -4.469513 -0.001499561 4.415626
v 4.053628 -0.001499561 4.839209
v -4.053628 -0.001499561 4.839209
v 3.485517 -0.001499561 4.994251
v -3.485517 -0.001499561 4.994252
v -4.861779 -0.001499561 4.778358
v -4.053628 -0.001499561 4.839209
v -4.409392 -0.001499561 5.230745
v -4.469513 -0.001499561 4.415626
v -3.485517 -0.001499561 4.994252
v -5.027363 -0.001499561 4.160388
v -3.791422 -0.001499561 5.39633
v -4.621739 -0.001499561 3.837001
v 3.485517 -0.001499561 4.994251
v -5.027363 -0.001499561 -4.157757
v 3.791422 -0.001499561 5.396328
v -4.621739 -0.001499561 -3.834371
v 4.053628 -0.001499561 4.839209
v -4.861779 -0.001499561 -4.775728
v 4.409392 -0.001499561 5.230744
v -4.469513 -0.001499561 -4.412996
v 4.469514 -0.001499561 4.415626
v -4.409392 -0.001499561 -5.228115
v 4.86178 -0.001499561 4.778358
v -4.053628 -0.001499561 -4.836579
v 4.621738 -0.001499561 3.837001
v -3.791422 -0.001499561 -5.393699
v 5.027363 -0.001499561 4.160388
v -3.485517 -0.001499561 -4.99162
v 4.621739 -0.001499561 -3.834371
v 3.791422 -0.001499561 -5.3937
v 5.027363 -0.001499561 -4.157759
v 3.485517 -0.001499561 -4.991622
v 4.469513 -0.001499561 -4.412996
v 4.409392 -0.001499561 -5.228115
v 4.861779 -0.001499561 -4.775729
v 4.053628 -0.001499561 -4.836579
vt 0.8878751 0.9449017
vt 0.8894134 0.9226569
vt 0.8866628 0.9236794
vt 0.8905546 0.9439054
vt 0.8921819 0.9219434
vt 0.8932514 0.9432105
vt 0.8949613 0.9215218
vt 0.895959 0.9427996
vt 0.939137 0.9167004
vt 0.9389917 0.9381031
vt 0.9419211 0.9165149
vt 0.9417037 0.9379225
vt 0.944706 0.9166222
vt 0.9444166 0.9380268
vt 0.9474855 0.9170412
vt 0.9471241 0.9384353
vt 0.9803752 0.9236795
vt 0.9791628 0.9449017
vt 0.8878751 0.9449018
vt 0.8894134 0.9226569
vt 0.8866628 0.9236795
vt 0.8905545 0.9439054
vt 0.8921819 0.9219435
vt 0.8932514 0.9432106
vt 0.8949613 0.9215218
vt 0.8959589 0.9427996
vt 0.939137 0.9167004
vt 0.9389917 0.9381032
vt 0.9419211 0.916515
vt 0.9417037 0.9379225
vt 0.944706 0.9166222
vt 0.9444166 0.938027
vt 0.9474855 0.9170414
vt 0.9471241 0.9384353
vt 0.9803752 0.9236795
vt 0.9791628 0.9449018
vt 0.1967429 0.5230634
vt 0.1563105 0.5230634
vt 0.1530154 0.5239624
vt 0.2000379 0.5239624
vt 0.2024501 0.5264193
vt 0.1506032 0.5264193
vt 0.1497203 0.5297753
vt 0.203333 0.5297753
vt 0.1497203 0.5849421
vt 0.203333 0.5849421
vt 0.1506032 0.5882983
vt 0.2024501 0.5882983
vt 0.1530154 0.590755
vt 0.2000379 0.590755
vt 0.1563105 0.5916542
vt 0.1967429 0.5916542
vt 0.9033341 0.9739177
vt 0.9033341 0.9739177
vt 0.9033341 0.9739177
vt 0.9033341 0.9739177
vt 0.9033341 0.9739177
vt 0.9033341 0.9739177
vt 0.9033341 0.9739177
vt 0.9033341 0.9739177
vt 0.9033341 0.9739177
vt 0.9033341 0.9739177
vt 0.9033341 0.9739177
vt 0.9033341 0.9739177
vt 0.9033341 0.9739177
vt 0.9033341 0.9739177
vt 0.9033341 0.9739177
vt 0.9033341 0.9739177
vt 0.9033341 0.9739177
vt 0.9033341 0.9739177
vt 0.9033341 0.9739177
vt 0.9033341 0.9739177
vt 0.9033341 0.9739177
vt 0.9033341 0.9739177
vt 0.9033341 0.9739177
vt 0.9033341 0.9739177
vt 0.9033341 0.9739177
vt 0.9033341 0.9739177
vt 0.9033341 0.9739177
vt 0.9033341 0.9739177
vt 0.9033341 0.9739177
vt 0.9033341 0.9739177
vt 0.9033341 0.9739177
vt 0.9033341 0.9739177
vn -0.1282709 0.05679254 -0.9901116
vn -0.4998731 0.06334034 -0.8637794
vn -0.1323314 0.05689353 -0.9895713
vn -0.4980911 0.06332749 -0.8648092
vn -0.8627813 0.05945586 -0.5020691
vn -0.8662521 0.05931025 -0.4960743
vn -0.9899172 0.04765088 -0.1333919
vn -0.9907261 0.04742562 -0.1273282
vn -0.9899172 0.04765083 0.1333919
vn -0.9907261 0.04742555 0.1273284
vn -0.8627815 0.05945596 0.5020688
vn -0.8662521 0.05931034 0.4960741
vn -0.4998735 0.06334055 0.8637792
vn -0.4980915 0.06332771 0.864809
vn -0.1323313 0.05689341 0.9895715
vn -0.1282707 0.05679241 0.9901118
vn 0.1323312 0.05689335 0.9895715
vn 0.1282706 0.05679236 0.9901118
vn 0.1282706 0.05679236 0.9901118
vn 0.4998727 0.06334043 0.8637796
vn 0.1323312 0.05689335 0.9895715
vn 0.4980907 0.06332758 0.8648094
vn 0.8627813 0.05945589 0.5020691
vn 0.8662521 0.05931027 0.4960744
vn 0.9899172 0.04765081 0.1333918
vn 0.9907261 0.04742555 0.1273282
vn 0.9899172 0.04765085 -0.1333919
vn 0.9907261 0.04742558 -0.1273283
vn 0.8627813 0.05945591 -0.5020692
vn 0.8662519 0.05931027 -0.4960744
vn 0.4998732 0.06334034 -0.8637794
vn 0.4980911 0.06332748 -0.8648092
vn 0.1323315 0.05689347 -0.9895713
vn 0.1282709 0.05679248 -0.9901116
vn -0.1323314 0.05689353 -0.9895713
vn -0.1282709 0.05679254 -0.9901116
vn 0 1 0
vn 0 1 0
vn 0 1 0
vn 0 1 0
vn 0 1 0
vn 0 1 0
vn 0 1 0
vn 0 1 0
vn 0 1 0
vn 0 1 0
vn 0 1 0
vn 0 1 0
vn 0 1 0
vn 0 1 0
vn 0 1 0
vn 0 1 0
vn 0 1 0
vn 0 1 0
vn 0 1 0
vn 0 1 0
vn 0 1 0
vn 0 1 0
vn 0 1 0
vn 0 1 0
vn 0 1 0
vn 0 1 0
vn 0 1 0
vn 0 1 0
vn 0 1 0
vn 0 1 0
vn 0 1 0
vn 0 1 0
vn 0 1 0
vn 0 1 0
vn 0 1 0
vn 0 1 0
vn 0 1 0
vn 0 1 0
vn 0 1 0
vn 0 1 0
vn 0 1 0
vn 0 1 0
vn 0 1 0
vn 0 1 0
vn 0 1 0
vn 0 1 0
vn 0 1 0
vn 0 1 0
g Platform-medium-bird-lvl1_0
f 3/3/3 2/2/2 1/1/1
f 2/2/2 4/4/4 1/1/1
f 2/2/2 5/5/5 4/4/4
f 5/5/5 6/6/6 4/4/4
f 5/5/5 7/7/7 6/6/6
f 7/7/7 8/8/8 6/6/6
f 7/7/7 9/9/9 8/8/8
f 9/9/9 10/10/10 8/8/8
f 9/9/9 11/11/11 10/10/10
f 11/11/11 12/12/12 10/10/10
f 11/11/11 13/13/13 12/12/12
f 13/13/13 14/14/14 12/12/12
f 13/13/13 15/15/15 14/14/14
f 15/15/15 16/16/16 14/14/14
f 15/15/15 17/17/17 16/16/16
f 17/17/17 18/18/18 16/16/16
f 21/21/21 20/20/20 19/19/19
f 20/20/20 22/22/22 19/19/19
f 20/20/20 23/23/23 22/22/22
f 23/23/23 24/24/24 22/22/22
f 23/23/23 25/25/25 24/24/24
f 25/25/25 26/26/26 24/24/24
f 25/25/25 27/27/27 26/26/26
f 27/27/27 28/28/28 26/26/26
f 27/27/27 29/29/29 28/28/28
f 29/29/29 30/30/30 28/28/28
f 29/29/29 31/31/31 30/30/30
f 31/31/31 32/32/32 30/30/30
f 31/31/31 33/33/33 32/32/32
f 33/33/33 34/34/34 32/32/32
f 33/33/33 35/35/35 34/34/34
f 35/35/35 36/36/36 34/34/34
f 39/39/39 38/38/38 37/37/37
f 37/37/37 40/40/40 39/39/39
f 40/40/40 41/41/41 39/39/39
f 41/41/41 42/42/42 39/39/39
f 41/41/41 43/43/43 42/42/42
f 41/41/41 44/44/44 43/43/43
f 44/44/44 45/45/45 43/43/43
f 44/44/44 46/46/46 45/45/45
f 46/46/46 47/47/47 45/45/45
f 46/46/46 48/48/48 47/47/47
f 48/48/48 49/49/49 47/47/47
f 48/48/48 50/50/50 49/49/49
f 50/50/50 51/51/51 49/49/49
f 50/50/50 52/52/52 51/51/51
f 55/55/55 54/54/54 53/53/53
f 54/54/54 56/56/56 53/53/53
f 57/57/57 54/54/54 55/55/55
f 53/53/53 56/56/56 58/58/58
f 59/59/59 57/57/57 55/55/55
f 56/56/56 60/60/60 58/58/58
f 61/61/61 57/57/57 59/59/59
f 58/58/58 60/60/60 62/62/62
f 63/63/63 61/61/61 59/59/59
f 60/60/60 64/64/64 62/62/62
f 65/65/65 61/61/61 63/63/63
f 62/62/62 64/64/64 66/66/66
f 67/67/67 65/65/65 63/63/63
f 64/64/64 68/68/68 66/66/66
f 69/69/69 65/65/65 67/67/67
f 66/66/66 68/68/68 70/70/70
f 71/71/71 69/69/69 67/67/67
f 68/68/68 72/72/72 70/70/70
f 73/73/73 69/69/69 71/71/71
f 70/70/70 72/72/72 74/74/74
f 75/75/75 73/73/73 71/71/71
f 72/72/72 76/76/76 74/74/74
f 77/77/77 73/73/73 75/75/75
f 74/74/74 76/76/76 78/78/78
f 79/79/79 77/77/77 75/75/75
f 76/76/76 80/80/80 78/78/78
f 81/81/81 77/77/77 79/79/79
f 78/78/78 80/80/80 82/82/82
f 83/83/83 81/81/81 79/79/79
f 80/80/80 84/84/84 82/82/82
f 84/84/84 81/81/81 83/83/83
f 82/82/82 84/84/84 83/83/83
