g pot
v 0.1428036 0.1078838 -0.1038405
v 0.1519931 0.1641231 -0.1104569
v 0.05826095 0.1641231 -0.1788262
v 0.05458517 0.1078838 -0.1677989
v 0.05458517 0.1078838 -0.1677989
v 0.05826095 0.1641231 -0.1788262
v -0.05826095 0.1641231 -0.1788262
v -0.05458517 0.1078838 -0.1677989
v -0.05458517 0.1078838 -0.1677989
v -0.05826095 0.1641231 -0.1788262
v -0.1519931 0.1641231 -0.1104569
v -0.1428036 0.1078838 -0.1038405
v -0.1428036 0.1078838 -0.1038405
v -0.1519931 0.1641231 -0.1104569
v -0.1880156 0.1641231 0.0001837909
v -0.1766207 0.1078838 0.0001837909
v -0.1766207 0.1078838 0.0001837909
v -0.1880156 0.1641231 0.0001837909
v -0.1519931 0.1641231 0.1104569
v -0.1428036 0.1078838 0.1038405
v -0.1428036 0.1078838 0.1038405
v -0.1519931 0.1641231 0.1104569
v -0.05826095 0.1641231 0.1788262
v -0.05458517 0.1078838 0.1677989
v -0.05458517 0.1078838 0.1677989
v -0.05826095 0.1641231 0.1788262
v 0.05826095 0.1641231 0.1788262
v 0.05458517 0.1078838 0.1677989
v 0.05458517 0.1078838 0.1677989
v 0.05826095 0.1641231 0.1788262
v 0.1519931 0.1641231 0.1104569
v 0.1428036 0.1078838 0.1038405
v 0.1428036 0.1078838 0.1038405
v 0.1519931 0.1641231 0.1104569
v 0.1880156 0.1641231 0.0001837909
v 0.1766207 0.1078838 0.0001837909
v 0.1766207 0.1078838 0.0001837909
v 0.1880156 0.1641231 0.0001837909
v 0.1519931 0.1641231 -0.1104569
v 0.1428036 0.1078838 -0.1038405
v 0.08950499 -0.1130299 -0.06524491
v 0.1266303 0.1119272 -0.09207802
v 0.04833637 0.1119272 -0.1490525
v 0.03436844 -0.1130299 -0.1053108
v 0.03436844 -0.1130299 -0.1053108
v 0.04833637 0.1119272 -0.1490525
v -0.04833637 0.1119272 -0.1490525
v -0.03436844 -0.1130299 -0.1053108
v -0.03436844 -0.1130299 -0.1053108
v -0.04833637 0.1119272 -0.1490525
v -0.1266302 0.1119272 -0.09207802
v -0.08950499 -0.1130299 -0.06524491
v -0.08950499 -0.1130299 -0.06524491
v -0.1266302 0.1119272 -0.09207802
v -0.1567716 0.1119272 0.0001837909
v -0.1108244 -0.1130299 0.0001837909
v -0.1108244 -0.1130299 0.0001837909
v -0.1567716 0.1119272 0.0001837909
v -0.1266302 0.1119272 0.09207803
v -0.08950499 -0.1130299 0.06524491
v -0.08950499 -0.1130299 0.06524491
v -0.1266302 0.1119272 0.09207803
v -0.04833637 0.1119272 0.1490524
v -0.03436844 -0.1130299 0.1053108
v -0.03436844 -0.1130299 0.1053108
v -0.04833637 0.1119272 0.1490524
v 0.04833637 0.1119272 0.1490524
v 0.03436844 -0.1130299 0.1053108
v 0.03436844 -0.1130299 0.1053108
v 0.04833637 0.1119272 0.1490524
v 0.1266303 0.1119272 0.09207803
v 0.08950499 -0.1130299 0.06524491
v 0.08950499 -0.1130299 0.06524491
v 0.1266303 0.1119272 0.09207803
v 0.1567716 0.1119272 0.0001837909
v 0.1108245 -0.1130299 0.0001837909
v 0.1108245 -0.1130299 0.0001837909
v 0.1567716 0.1119272 0.0001837909
v 0.1266303 0.1119272 -0.09207802
v 0.08950499 -0.1130299 -0.06524491
v 0.1266303 0.1119272 -0.09207802
v 0.1428036 0.1078838 -0.1038405
v 0.05458517 0.1078838 -0.1677989
v 0.04833637 0.1119272 -0.1490525
v 0.04833637 0.1119272 -0.1490525
v 0.05458517 0.1078838 -0.1677989
v -0.05458517 0.1078838 -0.1677989
v -0.04833637 0.1119272 -0.1490525
v -0.04833637 0.1119272 -0.1490525
v -0.05458517 0.1078838 -0.1677989
v -0.1428036 0.1078838 -0.1038405
v -0.1266302 0.1119272 -0.09207802
v -0.1266302 0.1119272 -0.09207802
v -0.1428036 0.1078838 -0.1038405
v -0.1766207 0.1078838 0.0001837909
v -0.1567716 0.1119272 0.0001837909
v -0.1567716 0.1119272 0.0001837909
v -0.1766207 0.1078838 0.0001837909
v -0.1428036 0.1078838 0.1038405
v -0.1266302 0.1119272 0.09207803
v -0.1266302 0.1119272 0.09207803
v -0.1428036 0.1078838 0.1038405
v -0.05458517 0.1078838 0.1677989
v -0.04833637 0.1119272 0.1490524
v -0.04833637 0.1119272 0.1490524
v -0.05458517 0.1078838 0.1677989
v 0.05458517 0.1078838 0.1677989
v 0.04833637 0.1119272 0.1490524
v 0.04833637 0.1119272 0.1490524
v 0.05458517 0.1078838 0.1677989
v 0.1428036 0.1078838 0.1038405
v 0.1266303 0.1119272 0.09207803
v 0.1266303 0.1119272 0.09207803
v 0.1428036 0.1078838 0.1038405
v 0.1766207 0.1078838 0.0001837909
v 0.1567716 0.1119272 0.0001837909
v 0.1567716 0.1119272 0.0001837909
v 0.1766207 0.1078838 0.0001837909
v 0.1428036 0.1078838 -0.1038405
v 0.1266303 0.1119272 -0.09207802
v 0.05826095 0.1641231 -0.1788262
v -0.04870394 0.1637555 -0.1505228
v -0.05826095 0.1641231 -0.1788262
v 0.04870395 0.1637555 -0.1505228
v 0.1519931 0.1641231 -0.1104569
v 0.1281006 0.1637555 -0.09281318
v 0.1880156 0.1641231 0.0001837909
v 0.1582419 0.1637555 0.0001837909
v 0.1519931 0.1641231 0.1104569
v 0.1281006 0.1637555 0.09281319
v 0.05826095 0.1641231 0.1788262
v 0.04870395 0.1637555 0.1505228
v -0.05826095 0.1641231 -0.1788262
v -0.04870394 0.1637555 -0.1505228
v -0.1281006 0.1637555 -0.09281318
v -0.1519931 0.1641231 -0.1104569
v -0.1582419 0.1637555 0.0001837909
v -0.1880156 0.1641231 0.0001837909
v -0.1281006 0.1637555 0.09281319
v -0.1519931 0.1641231 0.1104569
v -0.04870394 0.1637555 0.1505228
v -0.05826095 0.1641231 0.1788262
v 0.04870395 0.1637555 0.1505228
v 0.05826095 0.1641231 0.1788262
v 0.1281006 0.1637555 -0.09281318
v 0.1122948 0.1023702 -0.0814183
v 0.04282272 0.1023702 -0.1317763
v 0.04870395 0.1637555 -0.1505228
v 0.04870395 0.1637555 -0.1505228
v 0.04282272 0.1023702 -0.1317763
v -0.04282272 0.1023702 -0.1317763
v -0.04870394 0.1637555 -0.1505228
v -0.04870394 0.1637555 -0.1505228
v -0.04282272 0.1023702 -0.1317763
v -0.1122948 0.1023702 -0.0814183
v -0.1281006 0.1637555 -0.09281318
v -0.1281006 0.1637555 -0.09281318
v -0.1122948 0.1023702 -0.0814183
v -0.1387603 0.1023702 0.0001837909
v -0.1582419 0.1637555 0.0001837909
v -0.1582419 0.1637555 0.0001837909
v -0.1387603 0.1023702 0.0001837909
v -0.1122948 0.1023702 0.08141831
v -0.1281006 0.1637555 0.09281319
v -0.1281006 0.1637555 0.09281319
v -0.1122948 0.1023702 0.08141831
v -0.04282272 0.1023702 0.1317763
v -0.04870394 0.1637555 0.1505228
v -0.04870394 0.1637555 0.1505228
v -0.04282272 0.1023702 0.1317763
v 0.04282272 0.1023702 0.1317763
v 0.04870395 0.1637555 0.1505228
v 0.04870395 0.1637555 0.1505228
v 0.04282272 0.1023702 0.1317763
v 0.1122948 0.1023702 0.08141831
v 0.1281006 0.1637555 0.09281319
v 0.1281006 0.1637555 0.09281319
v 0.1122948 0.1023702 0.08141831
v 0.1387603 0.1023702 0.0001837909
v 0.1582419 0.1637555 0.0001837909
v 0.1582419 0.1637555 0.0001837909
v 0.1387603 0.1023702 0.0001837909
v 0.1122948 0.1023702 -0.0814183
v 0.1281006 0.1637555 -0.09281318
v 0.1108245 -0.1130299 0.0001837909
v -0.0001837909 -0.1130299 0.0001837909
v 0.08950499 -0.1130299 0.06524491
v 0.08950499 -0.1130299 -0.06524491
v 0.03436844 -0.1130299 0.1053108
v 0.03436844 -0.1130299 -0.1053108
v -0.03436844 -0.1130299 0.1053108
v -0.03436844 -0.1130299 -0.1053108
v -0.08950499 -0.1130299 0.06524491
v -0.08950499 -0.1130299 -0.06524491
v -0.1108244 -0.1130299 0.0001837909
vt 0.5200522 0.8633103
vt 0.5200522 0.8558155
vt 0.5125574 0.8558155
vt 0.5140564 0.8633103
vt 0.5140564 0.8633103
vt 0.5125574 0.8558155
vt 0.5125574 0.8558155
vt 0.5140564 0.8633103
vt 0.5140564 0.8633103
vt 0.5125574 0.8558155
vt 0.5200522 0.8558155
vt 0.5200522 0.8633103
vt 0.5200522 0.8633103
vt 0.5200522 0.8558155
vt 0.5320437 0.8558155
vt 0.5320437 0.8633103
vt 0.5320437 0.8633103
vt 0.5320437 0.8558155
vt 0.5440353 0.8558155
vt 0.5440353 0.8633103
vt 0.5440353 0.8633103
vt 0.5440353 0.8558155
vt 0.55153 0.8558155
vt 0.5500311 0.8633103
vt 0.5500311 0.8633103
vt 0.55153 0.8558155
vt 0.55153 0.8558155
vt 0.5500311 0.8633103
vt 0.5500311 0.8633103
vt 0.55153 0.8558155
vt 0.5440353 0.8558155
vt 0.5440353 0.8633103
vt 0.5440353 0.8633103
vt 0.5440353 0.8558155
vt 0.5320437 0.8558155
vt 0.5320437 0.8633103
vt 0.5320437 0.8633103
vt 0.5320437 0.8558155
vt 0.5200522 0.8558155
vt 0.5200522 0.8633103
vt 0.524549 0.8947881
vt 0.5215511 0.8633103
vt 0.5155553 0.8633103
vt 0.5200522 0.8947881
vt 0.5200522 0.8947881
vt 0.5155553 0.8633103
vt 0.5155553 0.8633103
vt 0.5200522 0.8947881
vt 0.5200522 0.8947881
vt 0.5155553 0.8633103
vt 0.5215511 0.8633103
vt 0.524549 0.8947881
vt 0.524549 0.8947881
vt 0.5215511 0.8633103
vt 0.5320437 0.8633103
vt 0.5320437 0.8947881
vt 0.5320437 0.8947881
vt 0.5320437 0.8633103
vt 0.5425363 0.8633103
vt 0.5395384 0.8947881
vt 0.5395384 0.8947881
vt 0.5425363 0.8633103
vt 0.5485321 0.8633103
vt 0.5440353 0.8947881
vt 0.5440353 0.8947881
vt 0.5485321 0.8633103
vt 0.5485321 0.8633103
vt 0.5440353 0.8947881
vt 0.5440353 0.8947881
vt 0.5485321 0.8633103
vt 0.5425363 0.8633103
vt 0.5395384 0.8947881
vt 0.5395384 0.8947881
vt 0.5425363 0.8633103
vt 0.5320437 0.8633103
vt 0.5320437 0.8947881
vt 0.5320437 0.8947881
vt 0.5320437 0.8633103
vt 0.5215511 0.8633103
vt 0.524549 0.8947881
vt 0.5215511 0.8633103
vt 0.5200522 0.8633103
vt 0.5140564 0.8633103
vt 0.5155553 0.8633103
vt 0.5155553 0.8633103
vt 0.5140564 0.8633103
vt 0.5140564 0.8633103
vt 0.5155553 0.8633103
vt 0.5155553 0.8633103
vt 0.5140564 0.8633103
vt 0.5200522 0.8633103
vt 0.5215511 0.8633103
vt 0.5215511 0.8633103
vt 0.5200522 0.8633103
vt 0.5320437 0.8633103
vt 0.5320437 0.8633103
vt 0.5320437 0.8633103
vt 0.5320437 0.8633103
vt 0.5440353 0.8633103
vt 0.5425363 0.8633103
vt 0.5425363 0.8633103
vt 0.5440353 0.8633103
vt 0.5500311 0.8633103
vt 0.5485321 0.8633103
vt 0.5485321 0.8633103
vt 0.5500311 0.8633103
vt 0.5500311 0.8633103
vt 0.5485321 0.8633103
vt 0.5485321 0.8633103
vt 0.5500311 0.8633103
vt 0.5440353 0.8633103
vt 0.5425363 0.8633103
vt 0.5425363 0.8633103
vt 0.5440353 0.8633103
vt 0.5320437 0.8633103
vt 0.5320437 0.8633103
vt 0.5320437 0.8633103
vt 0.5320437 0.8633103
vt 0.5200522 0.8633103
vt 0.5215511 0.8633103
vt 0.5125574 0.8558155
vt 0.5155553 0.8558155
vt 0.5125574 0.8558155
vt 0.5155553 0.8558155
vt 0.5200522 0.8558155
vt 0.5215511 0.8558155
vt 0.5320437 0.8558155
vt 0.5320437 0.8558155
vt 0.5440353 0.8558155
vt 0.5425363 0.8558155
vt 0.55153 0.8558155
vt 0.5485321 0.8558155
vt 0.5125574 0.8558155
vt 0.5155553 0.8558155
vt 0.5215511 0.8558155
vt 0.5200522 0.8558155
vt 0.5320437 0.8558155
vt 0.5320437 0.8558155
vt 0.5425363 0.8558155
vt 0.5440353 0.8558155
vt 0.5485321 0.8558155
vt 0.55153 0.8558155
vt 0.5485321 0.8558155
vt 0.55153 0.8558155
vt 0.5215511 0.8558155
vt 0.5230501 0.8648092
vt 0.5170543 0.8648092
vt 0.5155553 0.8558155
vt 0.5155553 0.8558155
vt 0.5170543 0.8648092
vt 0.5170543 0.8648092
vt 0.5155553 0.8558155
vt 0.5155553 0.8558155
vt 0.5170543 0.8648092
vt 0.5230501 0.8648092
vt 0.5215511 0.8558155
vt 0.5215511 0.8558155
vt 0.5230501 0.8648092
vt 0.5320437 0.8648092
vt 0.5320437 0.8558155
vt 0.5320437 0.8558155
vt 0.5320437 0.8648092
vt 0.5410374 0.8648092
vt 0.5425363 0.8558155
vt 0.5425363 0.8558155
vt 0.5410374 0.8648092
vt 0.5470331 0.8648092
vt 0.5485321 0.8558155
vt 0.5485321 0.8558155
vt 0.5470331 0.8648092
vt 0.5470331 0.8648092
vt 0.5485321 0.8558155
vt 0.5485321 0.8558155
vt 0.5470331 0.8648092
vt 0.5410374 0.8648092
vt 0.5425363 0.8558155
vt 0.5425363 0.8558155
vt 0.5410374 0.8648092
vt 0.5320437 0.8648092
vt 0.5320437 0.8558155
vt 0.5320437 0.8558155
vt 0.5320437 0.8648092
vt 0.5230501 0.8648092
vt 0.5215511 0.8558155
vt 0.5320437 0.8947881
vt 0.5320437 0.8947881
vt 0.5395384 0.8947881
vt 0.524549 0.8947881
vt 0.5440353 0.8947881
vt 0.5200522 0.8947881
vt 0.5440353 0.8947881
vt 0.5200522 0.8947881
vt 0.5395384 0.8947881
vt 0.524549 0.8947881
vt 0.5320437 0.8947881
vn 0.5872277 -0.2063233 -0.7826841
vn 0.5872277 -0.2063233 -0.7826841
vn 0.5872277 -0.2063233 -0.7826841
vn 0.5872277 -0.2063233 -0.7826841
vn -0.01587105 -0.2063233 -0.9783552
vn -0.01587105 -0.2063233 -0.9783552
vn -0.01587105 -0.2063233 -0.9783552
vn -0.01587105 -0.2063233 -0.9783552
vn -0.5872277 -0.2063233 -0.7826841
vn -0.5872277 -0.2063233 -0.7826841
vn -0.5872277 -0.2063233 -0.7826841
vn -0.5872277 -0.2063233 -0.7826841
vn -0.9363902 -0.2063233 -0.2839088
vn -0.9363902 -0.2063233 -0.2839088
vn -0.9363902 -0.2063233 -0.2839088
vn -0.9363902 -0.2063233 -0.2839088
vn -0.9363902 -0.2063233 0.2839088
vn -0.9363902 -0.2063233 0.2839088
vn -0.9363902 -0.2063233 0.2839088
vn -0.9363902 -0.2063233 0.2839088
vn -0.5872277 -0.2063233 0.7826841
vn -0.5872277 -0.2063233 0.7826841
vn -0.5872277 -0.2063233 0.7826841
vn -0.5872277 -0.2063233 0.7826841
vn -0.01587105 -0.2063233 0.9783552
vn -0.01587105 -0.2063233 0.9783552
vn -0.01587105 -0.2063233 0.9783552
vn -0.01587105 -0.2063233 0.9783552
vn 0.5872277 -0.2063233 0.7826841
vn 0.5872277 -0.2063233 0.7826841
vn 0.5872277 -0.2063233 0.7826841
vn 0.5872277 -0.2063233 0.7826841
vn 0.9363902 -0.2063233 0.2839088
vn 0.9363902 -0.2063233 0.2839088
vn 0.9363902 -0.2063233 0.2839088
vn 0.9363902 -0.2063233 0.2839088
vn 0.9363902 -0.2063233 -0.2839088
vn 0.9363902 -0.2063233 -0.2839088
vn 0.9363902 -0.2063233 -0.2839088
vn 0.9363902 -0.2063233 -0.2839088
vn 0.5872277 -0.2063233 -0.7826841
vn 0.5872277 -0.2063233 -0.7826841
vn 0.5872277 -0.2063233 -0.7826841
vn 0.5872277 -0.2063233 -0.7826841
vn -0.01587105 -0.2063233 -0.9783552
vn -0.01587105 -0.2063233 -0.9783552
vn -0.01587105 -0.2063233 -0.9783552
vn -0.01587105 -0.2063233 -0.9783552
vn -0.5872277 -0.2063233 -0.7826841
vn -0.5872277 -0.2063233 -0.7826841
vn -0.5872277 -0.2063233 -0.7826841
vn -0.5872277 -0.2063233 -0.7826841
vn -0.9363902 -0.2063233 -0.2839088
vn -0.9363902 -0.2063233 -0.2839088
vn -0.9363902 -0.2063233 -0.2839088
vn -0.9363902 -0.2063233 -0.2839088
vn -0.9363902 -0.2063233 0.2839088
vn -0.9363902 -0.2063233 0.2839088
vn -0.9363902 -0.2063233 0.2839088
vn -0.9363902 -0.2063233 0.2839088
vn -0.5872277 -0.2063233 0.7826841
vn -0.5872277 -0.2063233 0.7826841
vn -0.5872277 -0.2063233 0.7826841
vn -0.5872277 -0.2063233 0.7826841
vn -0.01587105 -0.2063233 0.9783552
vn -0.01587105 -0.2063233 0.9783552
vn -0.01587105 -0.2063233 0.9783552
vn -0.01587105 -0.2063233 0.9783552
vn 0.5872277 -0.2063233 0.7826841
vn 0.5872277 -0.2063233 0.7826841
vn 0.5872277 -0.2063233 0.7826841
vn 0.5872277 -0.2063233 0.7826841
vn 0.9363902 -0.2063233 0.2839088
vn 0.9363902 -0.2063233 0.2839088
vn 0.9363902 -0.2063233 0.2839088
vn 0.9363902 -0.2063233 0.2839088
vn 0.9363902 -0.2063233 -0.2839088
vn 0.9363902 -0.2063233 -0.2839088
vn 0.9363902 -0.2063233 -0.2839088
vn 0.9363902 -0.2063233 -0.2839088
vn -0.1110971 -0.9681322 0.2244493
vn -0.1110971 -0.9681322 0.2244493
vn -0.1110971 -0.9681322 0.2244493
vn -0.1110971 -0.9681322 0.2244493
vn -0.01587105 -0.9681322 0.2499363
vn -0.01587105 -0.9681322 0.2499363
vn -0.01587105 -0.9681322 0.2499363
vn -0.01587105 -0.9681322 0.2499363
vn 0.1110971 -0.9681322 0.2244493
vn 0.1110971 -0.9681322 0.2244493
vn 0.1110971 -0.9681322 0.2244493
vn 0.1110971 -0.9681322 0.2244493
vn 0.2063233 -0.9681322 0.1419534
vn 0.2063233 -0.9681322 0.1419534
vn 0.2063233 -0.9681322 0.1419534
vn 0.2063233 -0.9681322 0.1419534
vn 0.2063233 -0.9681322 -0.1419534
vn 0.2063233 -0.9681322 -0.1419534
vn 0.2063233 -0.9681322 -0.1419534
vn 0.2063233 -0.9681322 -0.1419534
vn 0.1110971 -0.9681322 -0.2244493
vn 0.1110971 -0.9681322 -0.2244493
vn 0.1110971 -0.9681322 -0.2244493
vn 0.1110971 -0.9681322 -0.2244493
vn -0.01587105 -0.9681322 -0.2499363
vn -0.01587105 -0.9681322 -0.2499363
vn -0.01587105 -0.9681322 -0.2499363
vn -0.01587105 -0.9681322 -0.2499363
vn -0.1110971 -0.9681322 -0.2244493
vn -0.1110971 -0.9681322 -0.2244493
vn -0.1110971 -0.9681322 -0.2244493
vn -0.1110971 -0.9681322 -0.2244493
vn -0.2063233 -0.9681322 -0.1419534
vn -0.2063233 -0.9681322 -0.1419534
vn -0.2063233 -0.9681322 -0.1419534
vn -0.2063233 -0.9681322 -0.1419534
vn -0.2063233 -0.9681322 0.1419534
vn -0.2063233 -0.9681322 0.1419534
vn -0.2063233 -0.9681322 0.1419534
vn -0.2063233 -0.9681322 0.1419534
vn -0.01587105 0.9998741 0
vn 0.01587099 0.9998741 0
vn 0.01587099 0.9998741 0
vn -0.01587105 0.9998741 0
vn -0.01587105 0.9998741 0
vn -0.01587105 0.9998741 0
vn -0.01587105 0.9998741 0
vn -0.01587105 0.9998741 0
vn -0.01587105 0.9998741 0
vn -0.01587105 0.9998741 0
vn -0.01587105 0.9998741 0
vn -0.01587105 0.9998741 0
vn 0.01587099 0.9998741 0
vn 0.01587099 0.9998741 0
vn 0.01587099 0.9998741 0
vn 0.01587099 0.9998741 0
vn 0.01587099 0.9998741 0
vn 0.01587099 0.9998741 0
vn 0.01587099 0.9998741 0
vn 0.01587099 0.9998741 0
vn 0.01587099 0.9998741 0
vn 0.01587099 0.9998741 0
vn -0.01587105 0.9998741 0
vn -0.01587105 0.9998741 0
vn -0.5554857 0.3015494 0.7749216
vn -0.5554857 0.3015494 0.7749216
vn -0.5554857 0.3015494 0.7749216
vn -0.5554857 0.3015494 0.7749216
vn -0.01587105 0.3015494 0.9533184
vn -0.01587105 0.3015494 0.9533184
vn -0.01587105 0.3015494 0.9533184
vn -0.01587105 0.3015494 0.9533184
vn 0.5554857 0.3015494 0.7749217
vn 0.5554857 0.3015494 0.7749217
vn 0.5554857 0.3015494 0.7749217
vn 0.5554857 0.3015494 0.7749217
vn 0.9046481 0.3015494 0.3011307
vn 0.9046481 0.3015494 0.3011307
vn 0.9046481 0.3015494 0.3011307
vn 0.9046481 0.3015494 0.3011307
vn 0.9046481 0.3015494 -0.3011307
vn 0.9046481 0.3015494 -0.3011307
vn 0.9046481 0.3015494 -0.3011307
vn 0.9046481 0.3015494 -0.3011307
vn 0.5554857 0.3015494 -0.7749217
vn 0.5554857 0.3015494 -0.7749217
vn 0.5554857 0.3015494 -0.7749217
vn 0.5554857 0.3015494 -0.7749217
vn -0.01587105 0.3015494 -0.9533184
vn -0.01587105 0.3015494 -0.9533184
vn -0.01587105 0.3015494 -0.9533184
vn -0.01587105 0.3015494 -0.9533184
vn -0.5554857 0.3015494 -0.7749216
vn -0.5554857 0.3015494 -0.7749216
vn -0.5554857 0.3015494 -0.7749216
vn -0.5554857 0.3015494 -0.7749216
vn -0.9046482 0.3015494 -0.3011305
vn -0.9046482 0.3015494 -0.3011305
vn -0.9046482 0.3015494 -0.3011305
vn -0.9046482 0.3015494 -0.3011305
vn -0.9046482 0.3015494 0.3011305
vn -0.9046482 0.3015494 0.3011305
vn -0.9046482 0.3015494 0.3011305
vn -0.9046482 0.3015494 0.3011305
vn -0.01587105 -0.9998741 0
vn -0.01587105 -0.9998741 0
vn -0.01587105 -0.9998741 0
vn -0.01587105 -0.9998741 0
vn -0.01587105 -0.9998741 0
vn -0.01587105 -0.9998741 0
vn -0.01587105 -0.9998741 0
vn -0.01587105 -0.9998741 0
vn -0.01587105 -0.9998741 0
vn -0.01587105 -0.9998741 0
vn -0.01587105 -0.9998741 0
g pot_0
f 3/3/3 2/2/2 1/1/1
f 4/4/4 3/3/3 1/1/1
f 7/7/7 6/6/6 5/5/5
f 8/8/8 7/7/7 5/5/5
f 11/11/11 10/10/10 9/9/9
f 12/12/12 11/11/11 9/9/9
f 15/15/15 14/14/14 13/13/13
f 16/16/16 15/15/15 13/13/13
f 19/19/19 18/18/18 17/17/17
f 20/20/20 19/19/19 17/17/17
f 23/23/23 22/22/22 21/21/21
f 24/24/24 23/23/23 21/21/21
f 27/27/27 26/26/26 25/25/25
f 28/28/28 27/27/27 25/25/25
f 31/31/31 30/30/30 29/29/29
f 32/32/32 31/31/31 29/29/29
f 35/35/35 34/34/34 33/33/33
f 36/36/36 35/35/35 33/33/33
f 39/39/39 38/38/38 37/37/37
f 40/40/40 39/39/39 37/37/37
f 43/43/43 42/42/42 41/41/41
f 44/44/44 43/43/43 41/41/41
f 47/47/47 46/46/46 45/45/45
f 48/48/48 47/47/47 45/45/45
f 51/51/51 50/50/50 49/49/49
f 52/52/52 51/51/51 49/49/49
f 55/55/55 54/54/54 53/53/53
f 56/56/56 55/55/55 53/53/53
f 59/59/59 58/58/58 57/57/57
f 60/60/60 59/59/59 57/57/57
f 63/63/63 62/62/62 61/61/61
f 64/64/64 63/63/63 61/61/61
f 67/67/67 66/66/66 65/65/65
f 68/68/68 67/67/67 65/65/65
f 71/71/71 70/70/70 69/69/69
f 72/72/72 71/71/71 69/69/69
f 75/75/75 74/74/74 73/73/73
f 76/76/76 75/75/75 73/73/73
f 79/79/79 78/78/78 77/77/77
f 80/80/80 79/79/79 77/77/77
f 83/83/83 82/82/82 81/81/81
f 84/84/84 83/83/83 81/81/81
f 87/87/87 86/86/86 85/85/85
f 88/88/88 87/87/87 85/85/85
f 91/91/91 90/90/90 89/89/89
f 92/92/92 91/91/91 89/89/89
f 95/95/95 94/94/94 93/93/93
f 96/96/96 95/95/95 93/93/93
f 99/99/99 98/98/98 97/97/97
f 100/100/100 99/99/99 97/97/97
f 103/103/103 102/102/102 101/101/101
f 104/104/104 103/103/103 101/101/101
f 107/107/107 106/106/106 105/105/105
f 108/108/108 107/107/107 105/105/105
f 111/111/111 110/110/110 109/109/109
f 112/112/112 111/111/111 109/109/109
f 115/115/115 114/114/114 113/113/113
f 116/116/116 115/115/115 113/113/113
f 119/119/119 118/118/118 117/117/117
f 120/120/120 119/119/119 117/117/117
f 123/123/123 122/122/122 121/121/121
f 122/122/122 124/124/124 121/121/121
f 121/121/121 124/124/124 125/125/125
f 124/124/124 126/126/126 125/125/125
f 125/125/125 126/126/126 127/127/127
f 126/126/126 128/128/128 127/127/127
f 127/127/127 128/128/128 129/129/129
f 128/128/128 130/130/130 129/129/129
f 129/129/129 130/130/130 131/131/131
f 130/130/130 132/132/132 131/131/131
f 135/135/135 134/134/134 133/133/133
f 136/136/136 135/135/135 133/133/133
f 137/137/137 135/135/135 136/136/136
f 138/138/138 137/137/137 136/136/136
f 139/139/139 137/137/137 138/138/138
f 140/140/140 139/139/139 138/138/138
f 141/141/141 139/139/139 140/140/140
f 142/142/142 141/141/141 140/140/140
f 143/143/143 141/141/141 142/142/142
f 144/144/144 143/143/143 142/142/142
f 147/147/147 146/146/146 145/145/145
f 148/148/148 147/147/147 145/145/145
f 151/151/151 150/150/150 149/149/149
f 152/152/152 151/151/151 149/149/149
f 155/155/155 154/154/154 153/153/153
f 156/156/156 155/155/155 153/153/153
f 159/159/159 158/158/158 157/157/157
f 160/160/160 159/159/159 157/157/157
f 163/163/163 162/162/162 161/161/161
f 164/164/164 163/163/163 161/161/161
f 167/167/167 166/166/166 165/165/165
f 168/168/168 167/167/167 165/165/165
f 171/171/171 170/170/170 169/169/169
f 172/172/172 171/171/171 169/169/169
f 175/175/175 174/174/174 173/173/173
f 176/176/176 175/175/175 173/173/173
f 179/179/179 178/178/178 177/177/177
f 180/180/180 179/179/179 177/177/177
f 183/183/183 182/182/182 181/181/181
f 184/184/184 183/183/183 181/181/181
f 187/187/187 186/186/186 185/185/185
f 185/185/185 186/186/186 188/188/188
f 189/189/189 186/186/186 187/187/187
f 188/188/188 186/186/186 190/190/190
f 191/191/191 186/186/186 189/189/189
f 190/190/190 186/186/186 192/192/192
f 193/193/193 186/186/186 191/191/191
f 192/192/192 186/186/186 194/194/194
f 195/195/195 186/186/186 193/193/193
f 194/194/194 186/186/186 195/195/195
