g pPipe3
v 0.0004671907 0.007541318 -0.0001655305
v 0.0004671907 0.01887621 -0.0001655305
v 0.0005874562 0.01887621 0
v 0.0005874562 0.007541318 0
v 0.0002725983 0.007541318 -0.0001023035
v 0.0002725983 0.01887621 -0.0001023035
v 0.0004671907 0.01887621 -0.0001655305
v 0.0004671907 0.007541318 -0.0001655305
v 0.0002725983 0.007541318 0.0001023035
v 0.0002725983 0.01887621 0.0001023035
v 0.0002725983 0.01887621 -0.0001023035
v 0.0002725983 0.007541318 -0.0001023035
v 0.0004671907 0.007541318 0.0001655304
v 0.0004671907 0.01887621 0.0001655304
v 0.0002725983 0.01887621 0.0001023035
v 0.0002725983 0.007541318 0.0001023035
v 0.0005874562 0.007541318 0
v 0.0005874562 0.01887621 0
v 0.0004671907 0.01887621 0.0001655304
v 0.0004671907 0.007541318 0.0001655304
v 0.0008810735 0.02523737 -0.005146051
v 0.01201519 0.02523737 1.750886E-09
v 0.004619906 0.02523737 -4.56348E-10
v 0.003166349 0.02523737 -0.01217939
v -0.005168474 0.02523737 -0.003180436
v -0.01115138 0.02523737 -0.007527275
v -0.005168474 0.02523737 0.003180436
v -0.01115138 0.02523737 0.007527281
v 0.0008810735 0.02523737 0.005146053
v 0.003166349 0.02523737 0.01217939
v 0.004619906 0.02523737 -4.56348E-10
v 0.01201519 0.02523737 1.750886E-09
v 0.0008422494 0.01887621 -0.001319844
v 0.0008422494 0.007541318 -0.001319844
v 0.001801174 0.007541318 0
v 0.001801174 0.01887621 0
v -0.0007093215 0.01887621 -0.0008157086
v -0.0007093215 0.007541318 -0.0008157086
v 0.0008422494 0.007541318 -0.001319844
v 0.0008422494 0.01887621 -0.001319844
v -0.0007093215 0.01887621 0.0008157086
v -0.0007093215 0.007541318 0.0008157086
v -0.0007093215 0.007541318 -0.0008157086
v -0.0007093215 0.01887621 -0.0008157086
v 0.0008422494 0.01887621 0.001319844
v 0.0008422494 0.007541318 0.001319844
v -0.0007093215 0.007541318 0.0008157086
v -0.0007093215 0.01887621 0.0008157086
v 0.001801174 0.01887621 0
v 0.001801174 0.007541318 0
v 0.0008422494 0.007541318 0.001319844
v 0.0008422494 0.01887621 0.001319844
v 0.0008422494 -0.04643134 -0.001319849
v 0.0005874562 -0.04643134 -7.646158E-09
v 0.001801174 -0.04643134 -2.817251E-08
v 0.0004671907 -0.04643134 -0.000165555
v -0.0007093215 -0.04643134 -0.0008157355
v 0.0002725983 -0.04643134 -0.0001023035
v -0.0007093215 -0.04643134 0.0008156998
v 0.0002725983 -0.04643134 0.0001023147
v 0.0008422494 -0.04643134 0.001319852
v 0.0004671907 -0.04643134 0.000165491
v 0.001801174 -0.04643134 -2.817251E-08
v 0.0005874562 -0.04643134 -7.646158E-09
v 0.0004671907 0.01887621 -0.0001655305
v 0.0008810735 0.02523737 -0.005146051
v 0.004619906 0.02523737 -4.56348E-10
v 0.0005874562 0.01887621 0
v 0.001801174 0.01887621 0
v 0.01201519 0.02523737 1.750886E-09
v 0.003166349 0.02523737 -0.01217939
v 0.0008422494 0.01887621 -0.001319844
v 0.0002725983 0.01887621 -0.0001023035
v -0.005168474 0.02523737 -0.003180436
v 0.0008810735 0.02523737 -0.005146051
v 0.0004671907 0.01887621 -0.0001655305
v 0.0008422494 0.01887621 -0.001319844
v 0.003166349 0.02523737 -0.01217939
v -0.01115138 0.02523737 -0.007527275
v -0.0007093215 0.01887621 -0.0008157086
v 0.0002725983 0.01887621 0.0001023035
v -0.005168474 0.02523737 0.003180436
v -0.005168474 0.02523737 -0.003180436
v 0.0002725983 0.01887621 -0.0001023035
v -0.0007093215 0.01887621 -0.0008157086
v -0.01115138 0.02523737 -0.007527275
v -0.01115138 0.02523737 0.007527281
v -0.0007093215 0.01887621 0.0008157086
v 0.0004671907 0.01887621 0.0001655304
v 0.0008810735 0.02523737 0.005146053
v -0.005168474 0.02523737 0.003180436
v 0.0002725983 0.01887621 0.0001023035
v -0.0007093215 0.01887621 0.0008157086
v -0.01115138 0.02523737 0.007527281
v 0.003166349 0.02523737 0.01217939
v 0.0008422494 0.01887621 0.001319844
v 0.0005874562 0.01887621 0
v 0.004619906 0.02523737 -4.56348E-10
v 0.0008810735 0.02523737 0.005146053
v 0.0004671907 0.01887621 0.0001655304
v 0.0008422494 0.01887621 0.001319844
v 0.003166349 0.02523737 0.01217939
v 0.01201519 0.02523737 1.750886E-09
v 0.001801174 0.01887621 0
v 0.0008422494 0.007541318 -0.001319844
v 0.001801174 -0.00850659 -2.412125E-09
v 0.001801174 0.007541318 0
v 0.0008422494 -0.00850659 -0.001319844
v 0.001801174 -0.02455449 -8.102506E-10
v 0.0008422494 -0.02455449 -0.001319849
v 0.001801174 -0.04643134 -2.817251E-08
v 0.0008422494 -0.04643134 -0.001319849
v 0.0005874562 0.007541318 0
v 0.0004671907 -0.00850659 -0.0001655292
v 0.0004671907 0.007541318 -0.0001655305
v 0.0005874562 -0.00850659 -2.412125E-09
v 0.0004671907 -0.02455449 -0.0001655276
v 0.0005874562 -0.02455449 -7.646158E-09
v 0.0004671907 -0.04643134 -0.000165555
v 0.0005874562 -0.04643134 -7.646158E-09
v -0.0007093215 0.007541318 -0.0008157086
v 0.0008422494 -0.00850659 -0.001319844
v 0.0008422494 0.007541318 -0.001319844
v -0.0007093215 -0.00850659 -0.0008157082
v 0.0008422494 -0.02455449 -0.001319849
v -0.0007093215 -0.02455449 -0.0008157082
v 0.0008422494 -0.04643134 -0.001319849
v -0.0007093215 -0.04643134 -0.0008157355
v 0.0004671907 0.007541318 -0.0001655305
v 0.0002725983 -0.00850659 -0.0001023035
v 0.0002725983 0.007541318 -0.0001023035
v 0.0004671907 -0.00850659 -0.0001655292
v 0.0002725983 -0.02455449 -0.0001023035
v 0.0004671907 -0.02455449 -0.0001655276
v 0.0002725983 -0.04643134 -0.0001023035
v 0.0004671907 -0.04643134 -0.000165555
v -0.0007093215 0.007541318 0.0008157086
v -0.0007093215 -0.00850659 -0.0008157082
v -0.0007093215 0.007541318 -0.0008157086
v -0.0007093215 -0.00850659 0.000815707
v -0.0007093215 -0.02455449 -0.0008157082
v -0.0007093215 -0.02455449 0.0008157053
v -0.0007093215 -0.04643134 -0.0008157355
v -0.0007093215 -0.04643134 0.0008156998
v 0.0002725983 0.007541318 -0.0001023035
v 0.0002725983 -0.00850659 0.0001023014
v 0.0002725983 0.007541318 0.0001023035
v 0.0002725983 -0.00850659 -0.0001023035
v 0.0002725983 -0.02455449 0.0001023067
v 0.0002725983 -0.02455449 -0.0001023035
v 0.0002725983 -0.04643134 0.0001023147
v 0.0002725983 -0.04643134 -0.0001023035
v 0.0008422494 0.007541318 0.001319844
v -0.0007093215 -0.00850659 0.000815707
v -0.0007093215 0.007541318 0.0008157086
v 0.0008422494 -0.00850659 0.001319839
v -0.0007093215 -0.02455449 0.0008157053
v 0.0008422494 -0.02455449 0.001319844
v -0.0007093215 -0.04643134 0.0008156998
v 0.0008422494 -0.04643134 0.001319852
v 0.0002725983 0.007541318 0.0001023035
v 0.0004671907 -0.00850659 0.0001655256
v 0.0004671907 0.007541318 0.0001655304
v 0.0002725983 -0.00850659 0.0001023014
v 0.0004671907 -0.02455449 0.000165524
v 0.0002725983 -0.02455449 0.0001023067
v 0.0004671907 -0.04643134 0.000165491
v 0.0002725983 -0.04643134 0.0001023147
v 0.001801174 0.007541318 0
v 0.0008422494 -0.00850659 0.001319839
v 0.0008422494 0.007541318 0.001319844
v 0.001801174 -0.00850659 -2.412125E-09
v 0.0008422494 -0.02455449 0.001319844
v 0.001801174 -0.02455449 -8.102506E-10
v 0.0008422494 -0.04643134 0.001319852
v 0.001801174 -0.04643134 -2.817251E-08
v 0.0004671907 0.007541318 0.0001655304
v 0.0005874562 -0.00850659 -2.412125E-09
v 0.0005874562 0.007541318 0
v 0.0004671907 -0.00850659 0.0001655256
v 0.0005874562 -0.02455449 -7.646158E-09
v 0.0004671907 -0.02455449 0.000165524
v 0.0005874562 -0.04643134 -7.646158E-09
v 0.0004671907 -0.04643134 0.000165491
vt 0.2 1
vt 0.2 0.75
vt 0 0.75
vt 0 1
vt 0.4 1
vt 0.4 0.75
vt 0.2 0.75
vt 0.2 1
vt 0.6 1
vt 0.6 0.75
vt 0.4 0.75
vt 0.4 1
vt 0.8 1
vt 0.8 0.75
vt 0.6 0.75
vt 0.6 1
vt 1 1
vt 1 0.75
vt 0.8 0.75
vt 0.8 1
vt 0.2 0.75
vt 0 0.5
vt 0 0.75
vt 0.2 0.5
vt 0.4 0.75
vt 0.4 0.5
vt 0.6 0.75
vt 0.6 0.5
vt 0.8 0.75
vt 0.8 0.5
vt 1 0.75
vt 1 0.5
vt 0.2 0.5
vt 0.2 0.25
vt 0 0.25
vt 0 0.5
vt 0.4 0.5
vt 0.4 0.25
vt 0.2 0.25
vt 0.2 0.5
vt 0.6 0.5
vt 0.6 0.25
vt 0.4 0.25
vt 0.4 0.5
vt 0.8 0.5
vt 0.8 0.25
vt 0.6 0.25
vt 0.6 0.5
vt 1 0.5
vt 1 0.25
vt 0.8 0.25
vt 0.8 0.5
vt 0.2 0.25
vt 0 0
vt 0 0.25
vt 0.2 0
vt 0.4 0.25
vt 0.4 0
vt 0.6 0.25
vt 0.6 0
vt 0.8 0.25
vt 0.8 0
vt 1 0.25
vt 1 0
vt 0.2 0.75
vt 0.2 0.75
vt 0 0.75
vt 0 0.75
vt 0 0.5
vt 0 0.5
vt 0.2 0.5
vt 0.2 0.5
vt 0.4 0.75
vt 0.4 0.75
vt 0.2 0.75
vt 0.2 0.75
vt 0.2 0.5
vt 0.2 0.5
vt 0.4 0.5
vt 0.4 0.5
vt 0.6 0.75
vt 0.6 0.75
vt 0.4 0.75
vt 0.4 0.75
vt 0.4 0.5
vt 0.4 0.5
vt 0.6 0.5
vt 0.6 0.5
vt 0.8 0.75
vt 0.8 0.75
vt 0.6 0.75
vt 0.6 0.75
vt 0.6 0.5
vt 0.6 0.5
vt 0.8 0.5
vt 0.8 0.5
vt 1 0.75
vt 1 0.75
vt 0.8 0.75
vt 0.8 0.75
vt 0.8 0.5
vt 0.8 0.5
vt 1 0.5
vt 1 0.5
vt 0.2 0.25
vt 0 0.25
vt 0 0.25
vt 0.2 0.25
vt 0 0.25
vt 0.2 0.25
vt 0 0.25
vt 0.2 0.25
vt 0 0
vt 0.2 0
vt 0.2 0
vt 0 0
vt 0.2 0
vt 0 0
vt 0.2 0
vt 0 0
vt 0.4 0.25
vt 0.2 0.25
vt 0.2 0.25
vt 0.4 0.25
vt 0.2 0.25
vt 0.4 0.25
vt 0.2 0.25
vt 0.4 0.25
vt 0.2 0
vt 0.4 0
vt 0.4 0
vt 0.2 0
vt 0.4 0
vt 0.2 0
vt 0.4 0
vt 0.2 0
vt 0.6 0.25
vt 0.4 0.25
vt 0.4 0.25
vt 0.6 0.25
vt 0.4 0.25
vt 0.6 0.25
vt 0.4 0.25
vt 0.6 0.25
vt 0.4 0
vt 0.6 0
vt 0.6 0
vt 0.4 0
vt 0.6 0
vt 0.4 0
vt 0.6 0
vt 0.4 0
vt 0.8 0.25
vt 0.6 0.25
vt 0.6 0.25
vt 0.8 0.25
vt 0.6 0.25
vt 0.8 0.25
vt 0.6 0.25
vt 0.8 0.25
vt 0.6 0
vt 0.8 0
vt 0.8 0
vt 0.6 0
vt 0.8 0
vt 0.6 0
vt 0.8 0
vt 0.6 0
vt 1 0.25
vt 0.8 0.25
vt 0.8 0.25
vt 1 0.25
vt 0.8 0.25
vt 1 0.25
vt 0.8 0.25
vt 1 0.25
vt 0.8 0
vt 1 0
vt 1 0
vt 0.8 0
vt 1 0
vt 0.8 0
vt 1 0
vt 0.8 0
vn -0.8090139 0 0.5877895
vn -0.7313974 0.4274111 0.5313922
vn -0.7323112 0.4250135 0.5320562
vn -0.8090139 0 0.5877895
vn 0.3090158 0 0.9510569
vn 0.2569513 0.5555063 0.7908151
vn 0.2578014 0.5513665 0.7934315
vn 0.3090157 0 0.9510569
vn 1 0 0
vn 0.7868894 0.6170942 0
vn 0.7868894 0.6170942 0
vn 1 0 0
vn 0.3090135 1.188711E-07 -0.9510576
vn 0.2578016 0.5513667 -0.7934312
vn 0.2569516 0.5555066 -0.790815
vn 0.3090135 1.188711E-07 -0.9510576
vn -0.8090144 0 -0.5877888
vn -0.7323114 0.4250135 -0.5320559
vn -0.7313975 0.4274112 -0.5313919
vn -0.8090144 0 -0.5877887
vn 0 1 0
vn 0 1 0
vn 0 1 0
vn 0 1 0
vn 0 1 0
vn 0 1 0
vn 0 1 0
vn 0 1 0
vn 0 1 0
vn 0 1 0
vn 0 1 0
vn 0 1 0
vn 0.5609579 -0.72057 -0.4075598
vn 0.8090164 0 -0.587786
vn 0.8090164 0 -0.587786
vn 0.5636126 -0.717398 -0.4094886
vn -0.1972135 -0.7698739 -0.6069604
vn -0.3090169 0 -0.9510565
vn -0.3090169 0 -0.9510565
vn -0.198928 -0.7652408 -0.612237
vn -0.6101148 -0.7923131 0
vn -1 0 0
vn -1 0 0
vn -0.6101148 -0.7923131 0
vn -0.1989278 -0.7652409 0.612237
vn -0.3090163 -1.21531E-07 0.9510567
vn -0.3090163 -1.21531E-07 0.9510567
vn -0.1972133 -0.769874 0.6069604
vn 0.5636126 -0.717398 0.4094886
vn 0.8090165 0 0.587786
vn 0.8090165 0 0.587786
vn 0.5609578 -0.7205701 0.4075598
vn 0 -1 1.653084E-06
vn 0 -1 0
vn 0 -1 0
vn 0 -1 1.653117E-06
vn 0 -1 1.65309E-06
vn 0 -1 1.653016E-06
vn 0 -1 -1.653052E-06
vn 0 -1 -1.653168E-06
vn 0 -1 -1.653099E-06
vn 0 -1 -1.653012E-06
vn 0 -1 0
vn 0 -1 0
vn -0.7313974 0.4274111 0.5313922
vn -0.7198686 0.4563371 0.523016
vn -0.7198686 0.4563371 0.5230159
vn -0.7323112 0.4250135 0.5320562
vn 0.5636126 -0.717398 -0.4094886
vn 0.4934986 -0.7924031 -0.3585477
vn 0.4934987 -0.7924031 -0.3585477
vn 0.5609579 -0.72057 -0.4075598
vn 0.2569513 0.5555063 0.7908151
vn 0.250239 0.5867187 0.7701569
vn 0.250239 0.5867186 0.7701569
vn 0.2578014 0.5513665 0.7934315
vn -0.198928 -0.7652408 -0.612237
vn -0.1705681 -0.8338644 -0.5249541
vn -0.170568 -0.8338644 -0.5249541
vn -0.1972135 -0.7698739 -0.6069604
vn 0.7868894 0.6170942 0
vn 0.7599263 0.6500092 0
vn 0.7599263 0.6500092 0
vn 0.7868894 0.6170942 0
vn -0.6101148 -0.7923131 0
vn -0.5202529 -0.8540123 0
vn -0.5202529 -0.8540123 0
vn -0.6101148 -0.7923131 0
vn 0.2578016 0.5513667 -0.7934312
vn 0.2502393 0.5867189 -0.7701567
vn 0.2502393 0.5867189 -0.7701567
vn 0.2569516 0.5555066 -0.790815
vn -0.1972133 -0.769874 0.6069604
vn -0.1705679 -0.8338644 0.5249541
vn -0.1705679 -0.8338644 0.5249541
vn -0.1989278 -0.7652409 0.612237
vn -0.7323114 0.4250135 -0.5320559
vn -0.7198687 0.4563372 -0.5230157
vn -0.7198688 0.4563371 -0.5230156
vn -0.7313975 0.4274112 -0.5313919
vn 0.5609578 -0.7205701 0.4075598
vn 0.4934986 -0.7924032 0.3585477
vn 0.4934986 -0.7924032 0.3585477
vn 0.5636126 -0.717398 0.4094886
vn 0.8090164 0 -0.587786
vn 0.8090165 0 -0.5877859
vn 0.8090164 0 -0.587786
vn 0.8090165 0 -0.5877859
vn 0.8090155 2.420981E-07 -0.5877874
vn 0.8090155 2.420981E-07 -0.5877874
vn 0.8090146 3.705448E-07 -0.5877886
vn 0.8090146 3.705448E-07 -0.5877886
vn -0.8090139 0 0.5877895
vn -0.8090082 0 0.5877973
vn -0.8090139 0 0.5877895
vn -0.8090082 0 0.5877973
vn -0.8090138 -2.409733E-07 0.5877897
vn -0.8090137 -2.409733E-07 0.5877897
vn -0.8090211 -3.654058E-07 0.5877796
vn -0.8090211 -3.654058E-07 0.5877796
vn -0.3090169 0 -0.9510565
vn -0.3090175 0 -0.9510564
vn -0.3090169 0 -0.9510565
vn -0.3090175 0 -0.9510564
vn -0.3090146 4.082659E-07 -0.9510573
vn -0.3090146 4.082658E-07 -0.9510573
vn -0.3090121 5.944044E-07 -0.9510582
vn -0.309012 5.944042E-07 -0.9510582
vn 0.3090157 0 0.9510569
vn 0.3090115 0 0.9510583
vn 0.3090158 0 0.9510569
vn 0.3090115 0 0.9510583
vn 0.3090412 -3.230037E-07 0.9510487
vn 0.3090412 -3.230037E-07 0.9510487
vn 0.3090653 -5.944927E-07 0.9510408
vn 0.3090653 -5.944927E-07 0.9510408
vn -1 0 0
vn -1 0 0
vn -1 0 0
vn -1 0 0
vn -1 0 0
vn -1 0 0
vn -1 0 0
vn -1 0 0
vn 1 0 0
vn 1 0 0
vn 1 0 0
vn 1 0 0
vn 1 0 0
vn 1 0 0
vn 1 0 0
vn 1 0 0
vn -0.3090163 -1.21531E-07 0.9510567
vn -0.3090163 0 0.9510567
vn -0.3090163 -1.21531E-07 0.9510567
vn -0.3090163 0 0.9510567
vn -0.3090201 0 0.9510555
vn -0.30902 0 0.9510555
vn -0.3090224 0 0.9510548
vn -0.3090224 0 0.9510548
vn 0.3090135 1.188711E-07 -0.9510576
vn 0.3090003 0 -0.951062
vn 0.3090135 1.188711E-07 -0.9510576
vn 0.3090003 0 -0.951062
vn 0.3089287 2.671169E-07 -0.9510853
vn 0.3089287 2.671169E-07 -0.9510853
vn 0.3088838 5.419157E-07 -0.9510997
vn 0.3088838 5.419157E-07 -0.9510997
vn 0.8090165 0 0.587786
vn 0.8090163 0 0.5877861
vn 0.8090165 0 0.587786
vn 0.8090163 0 0.5877861
vn 0.8090189 0 0.5877828
vn 0.8090189 0 0.5877828
vn 0.8090206 -2.535974E-07 0.5877804
vn 0.8090206 -2.535974E-07 0.5877804
vn -0.8090144 0 -0.5877887
vn -0.8090141 1.278327E-07 -0.5877892
vn -0.8090144 0 -0.5877888
vn -0.8090141 1.278327E-07 -0.5877892
vn -0.8090004 3.081388E-07 -0.5878083
vn -0.8090004 3.081387E-07 -0.5878083
vn -0.8089899 4.451991E-07 -0.5878226
vn -0.8089898 4.451992E-07 -0.5878227
g pPipe3_0
f 3/3/3 2/2/2 1/1/1
f 4/4/4 3/3/3 1/1/1
f 7/7/7 6/6/6 5/5/5
f 8/8/8 7/7/7 5/5/5
f 11/11/11 10/10/10 9/9/9
f 12/12/12 11/11/11 9/9/9
f 15/15/15 14/14/14 13/13/13
f 16/16/16 15/15/15 13/13/13
f 19/19/19 18/18/18 17/17/17
f 20/20/20 19/19/19 17/17/17
f 23/23/23 22/22/22 21/21/21
f 22/22/22 24/24/24 21/21/21
f 21/21/21 24/24/24 25/25/25
f 24/24/24 26/26/26 25/25/25
f 25/25/25 26/26/26 27/27/27
f 26/26/26 28/28/28 27/27/27
f 27/27/27 28/28/28 29/29/29
f 28/28/28 30/30/30 29/29/29
f 29/29/29 30/30/30 31/31/31
f 30/30/30 32/32/32 31/31/31
f 35/35/35 34/34/34 33/33/33
f 36/36/36 35/35/35 33/33/33
f 39/39/39 38/38/38 37/37/37
f 40/40/40 39/39/39 37/37/37
f 43/43/43 42/42/42 41/41/41
f 44/44/44 43/43/43 41/41/41
f 47/47/47 46/46/46 45/45/45
f 48/48/48 47/47/47 45/45/45
f 51/51/51 50/50/50 49/49/49
f 52/52/52 51/51/51 49/49/49
f 55/55/55 54/54/54 53/53/53
f 54/54/54 56/56/56 53/53/53
f 53/53/53 56/56/56 57/57/57
f 56/56/56 58/58/58 57/57/57
f 57/57/57 58/58/58 59/59/59
f 58/58/58 60/60/60 59/59/59
f 59/59/59 60/60/60 61/61/61
f 60/60/60 62/62/62 61/61/61
f 61/61/61 62/62/62 63/63/63
f 62/62/62 64/64/64 63/63/63
f 67/67/67 66/66/66 65/65/65
f 68/68/68 67/67/67 65/65/65
f 71/71/71 70/70/70 69/69/69
f 72/72/72 71/71/71 69/69/69
f 75/75/75 74/74/74 73/73/73
f 76/76/76 75/75/75 73/73/73
f 79/79/79 78/78/78 77/77/77
f 80/80/80 79/79/79 77/77/77
f 83/83/83 82/82/82 81/81/81
f 84/84/84 83/83/83 81/81/81
f 87/87/87 86/86/86 85/85/85
f 88/88/88 87/87/87 85/85/85
f 91/91/91 90/90/90 89/89/89
f 92/92/92 91/91/91 89/89/89
f 95/95/95 94/94/94 93/93/93
f 96/96/96 95/95/95 93/93/93
f 99/99/99 98/98/98 97/97/97
f 100/100/100 99/99/99 97/97/97
f 103/103/103 102/102/102 101/101/101
f 104/104/104 103/103/103 101/101/101
f 107/107/107 106/106/106 105/105/105
f 106/106/106 108/108/108 105/105/105
f 106/106/106 109/109/109 108/108/108
f 109/109/109 110/110/110 108/108/108
f 109/109/109 111/111/111 110/110/110
f 111/111/111 112/112/112 110/110/110
f 115/115/115 114/114/114 113/113/113
f 114/114/114 116/116/116 113/113/113
f 114/114/114 117/117/117 116/116/116
f 117/117/117 118/118/118 116/116/116
f 117/117/117 119/119/119 118/118/118
f 119/119/119 120/120/120 118/118/118
f 123/123/123 122/122/122 121/121/121
f 122/122/122 124/124/124 121/121/121
f 122/122/122 125/125/125 124/124/124
f 125/125/125 126/126/126 124/124/124
f 125/125/125 127/127/127 126/126/126
f 127/127/127 128/128/128 126/126/126
f 131/131/131 130/130/130 129/129/129
f 130/130/130 132/132/132 129/129/129
f 130/130/130 133/133/133 132/132/132
f 133/133/133 134/134/134 132/132/132
f 133/133/133 135/135/135 134/134/134
f 135/135/135 136/136/136 134/134/134
f 139/139/139 138/138/138 137/137/137
f 138/138/138 140/140/140 137/137/137
f 138/138/138 141/141/141 140/140/140
f 141/141/141 142/142/142 140/140/140
f 141/141/141 143/143/143 142/142/142
f 143/143/143 144/144/144 142/142/142
f 147/147/147 146/146/146 145/145/145
f 146/146/146 148/148/148 145/145/145
f 146/146/146 149/149/149 148/148/148
f 149/149/149 150/150/150 148/148/148
f 149/149/149 151/151/151 150/150/150
f 151/151/151 152/152/152 150/150/150
f 155/155/155 154/154/154 153/153/153
f 154/154/154 156/156/156 153/153/153
f 154/154/154 157/157/157 156/156/156
f 157/157/157 158/158/158 156/156/156
f 157/157/157 159/159/159 158/158/158
f 159/159/159 160/160/160 158/158/158
f 163/163/163 162/162/162 161/161/161
f 162/162/162 164/164/164 161/161/161
f 162/162/162 165/165/165 164/164/164
f 165/165/165 166/166/166 164/164/164
f 165/165/165 167/167/167 166/166/166
f 167/167/167 168/168/168 166/166/166
f 171/171/171 170/170/170 169/169/169
f 170/170/170 172/172/172 169/169/169
f 170/170/170 173/173/173 172/172/172
f 173/173/173 174/174/174 172/172/172
f 173/173/173 175/175/175 174/174/174
f 175/175/175 176/176/176 174/174/174
f 179/179/179 178/178/178 177/177/177
f 178/178/178 180/180/180 177/177/177
f 178/178/178 181/181/181 180/180/180
f 181/181/181 182/182/182 180/180/180
f 181/181/181 183/183/183 182/182/182
f 183/183/183 184/184/184 182/182/182
