g pPipe10
v 0.002720421 0.00540158 0.004572155
v 0.0009259923 0.01893283 0.0008101265
v 0.001041051 0.01899848 0.0009660617
v 0.002840686 0.00540158 0.004737686
v 0.002525828 0.00540158 0.004635382
v 0.0007318046 0.01892433 0.0008740241
v 0.0009259923 0.01893283 0.0008101265
v 0.002720421 0.00540158 0.004572155
v 0.002525828 0.00540158 0.004839989
v 0.0007268479 0.01898473 0.00106945
v 0.0007318046 0.01892433 0.0008740241
v 0.002525828 0.00540158 0.004635382
v 0.002720421 0.00540158 0.004903216
v 0.0009179722 0.01903056 0.001126333
v 0.0007268479 0.01898473 0.00106945
v 0.002525828 0.00540158 0.004839989
v 0.002840686 0.00540158 0.004737686
v 0.001041051 0.01899848 0.0009660617
v 0.0009179722 0.01903056 0.001126333
v 0.002720421 0.00540158 0.004903216
v 0.0005745675 0.02353285 -0.005834991
v 0.01147321 0.02660595 -0.001120543
v 0.004151525 0.02557378 -0.0009872423
v 0.003007486 0.02177558 -0.01259393
v -0.005462392 0.02326875 -0.00384853
v -0.01128045 0.02115053 -0.007892479
v -0.005616488 0.02514646 0.002226924
v -0.01164516 0.0255946 0.006486567
v 0.000325236 0.02657105 0.003995297
v 0.002417382 0.02896623 0.01067185
v 0.004151525 0.02557378 -0.0009872423
v 0.01147321 0.02660595 -0.001120543
v 0.001325282 0.01864443 -0.0002991529
v 0.003095479 0.00540158 0.003417841
v 0.004054404 0.00540158 0.004737686
v 0.002242689 0.01916788 0.0009441841
v -0.0002230604 0.01857669 0.0002103294
v 0.001543909 0.00540158 0.003921977
v 0.003095479 0.00540158 0.003417841
v 0.001325282 0.01864443 -0.0002991529
v -0.0002625823 0.01905828 0.001768544
v 0.001543909 0.00540158 0.005553395
v 0.001543909 0.00540158 0.003921977
v -0.0002230604 0.01857669 0.0002103294
v 0.001261334 0.01942365 0.002222091
v 0.003095479 0.00540158 0.006057531
v 0.001543909 0.00540158 0.005553395
v -0.0002625823 0.01905828 0.001768544
v 0.002242689 0.01916788 0.0009441841
v 0.004054404 0.00540158 0.004737686
v 0.003095479 0.00540158 0.006057531
v 0.001261334 0.01942365 0.002222091
v 0.003474476 -0.04640004 0.004271125
v 0.003219683 -0.04640004 0.005590967
v 0.0044334 -0.04640004 0.005590946
v 0.003099418 -0.04640004 0.005425419
v 0.001922905 -0.04640004 0.004775239
v 0.002904825 -0.04640004 0.005488671
v 0.001922905 -0.04640004 0.006406681
v 0.002904825 -0.04640004 0.005693296
v 0.003474476 -0.04640004 0.00691083
v 0.003099418 -0.04640004 0.005756469
v 0.0044334 -0.04640004 0.005590946
v 0.003219683 -0.04640004 0.005590967
v 0.0009259923 0.01893283 0.0008101265
v 0.0005745675 0.02353285 -0.005834991
v 0.004151525 0.02557378 -0.0009872423
v 0.001041051 0.01899848 0.0009660617
v 0.002242689 0.01916788 0.0009441841
v 0.01147321 0.02660595 -0.001120543
v 0.003007486 0.02177558 -0.01259393
v 0.001325282 0.01864443 -0.0002991529
v 0.0007318046 0.01892433 0.0008740241
v -0.005462392 0.02326875 -0.00384853
v 0.0005745675 0.02353285 -0.005834991
v 0.0009259923 0.01893283 0.0008101265
v 0.001325282 0.01864443 -0.0002991529
v 0.003007486 0.02177558 -0.01259393
v -0.01128045 0.02115053 -0.007892479
v -0.0002230604 0.01857669 0.0002103294
v 0.0007268479 0.01898473 0.00106945
v -0.005616488 0.02514646 0.002226924
v -0.005462392 0.02326875 -0.00384853
v 0.0007318046 0.01892433 0.0008740241
v -0.0002230604 0.01857669 0.0002103294
v -0.01128045 0.02115053 -0.007892479
v -0.01164516 0.0255946 0.006486567
v -0.0002625823 0.01905828 0.001768544
v 0.0009179722 0.01903056 0.001126333
v 0.000325236 0.02657105 0.003995297
v -0.005616488 0.02514646 0.002226924
v 0.0007268479 0.01898473 0.00106945
v -0.0002625823 0.01905828 0.001768544
v -0.01164516 0.0255946 0.006486567
v 0.002417382 0.02896623 0.01067185
v 0.001261334 0.01942365 0.002222091
v 0.001041051 0.01899848 0.0009660617
v 0.004151525 0.02557378 -0.0009872423
v 0.000325236 0.02657105 0.003995297
v 0.0009179722 0.01903056 0.001126333
v 0.001261334 0.01942365 0.002222091
v 0.002417382 0.02896623 0.01067185
v 0.01147321 0.02660595 -0.001120543
v 0.002242689 0.01916788 0.0009441841
v 0.003095479 0.00540158 0.003417841
v 0.0044334 -0.008475292 0.005590975
v 0.004054404 0.00540158 0.004737686
v 0.003474476 -0.008475292 0.004271134
v 0.0044334 -0.0245232 0.005590973
v 0.003474476 -0.0245232 0.004271125
v 0.0044334 -0.04640004 0.005590946
v 0.003474476 -0.04640004 0.004271125
v 0.002840686 0.00540158 0.004737686
v 0.003099418 -0.008475292 0.005425448
v 0.002720421 0.00540158 0.004572155
v 0.003219683 -0.008475292 0.005590975
v 0.003099418 -0.0245232 0.005425447
v 0.003219683 -0.0245232 0.005590967
v 0.003099418 -0.04640004 0.005425419
v 0.003219683 -0.04640004 0.005590967
v 0.001543909 0.00540158 0.003921977
v 0.003474476 -0.008475292 0.004271134
v 0.003095479 0.00540158 0.003417841
v 0.001922905 -0.008475292 0.004775269
v 0.003474476 -0.0245232 0.004271125
v 0.001922905 -0.0245232 0.004775266
v 0.003474476 -0.04640004 0.004271125
v 0.001922905 -0.04640004 0.004775239
v 0.002720421 0.00540158 0.004572155
v 0.002904825 -0.008475292 0.005488674
v 0.002525828 0.00540158 0.004635382
v 0.003099418 -0.008475292 0.005425448
v 0.002904825 -0.0245232 0.005488671
v 0.003099418 -0.0245232 0.005425447
v 0.002904825 -0.04640004 0.005488671
v 0.003099418 -0.04640004 0.005425419
v 0.001543909 0.00540158 0.005553395
v 0.001922905 -0.008475292 0.004775269
v 0.001543909 0.00540158 0.003921977
v 0.001922905 -0.008475292 0.006406684
v 0.001922905 -0.0245232 0.004775266
v 0.001922905 -0.0245232 0.006406686
v 0.001922905 -0.04640004 0.004775239
v 0.001922905 -0.04640004 0.006406681
v 0.002525828 0.00540158 0.004635382
v 0.002904825 -0.008475292 0.005693279
v 0.002525828 0.00540158 0.004839989
v 0.002904825 -0.008475292 0.005488674
v 0.002904825 -0.0245232 0.005693288
v 0.002904825 -0.0245232 0.005488671
v 0.002904825 -0.04640004 0.005693296
v 0.002904825 -0.04640004 0.005488671
v 0.003095479 0.00540158 0.006057531
v 0.001922905 -0.008475292 0.006406684
v 0.001543909 0.00540158 0.005553395
v 0.003474476 -0.008475292 0.006910816
v 0.001922905 -0.0245232 0.006406686
v 0.003474476 -0.0245232 0.006910821
v 0.001922905 -0.04640004 0.006406681
v 0.003474476 -0.04640004 0.00691083
v 0.002525828 0.00540158 0.004839989
v 0.003099418 -0.008475292 0.005756503
v 0.002720421 0.00540158 0.004903216
v 0.002904825 -0.008475292 0.005693279
v 0.003099418 -0.0245232 0.005756502
v 0.002904825 -0.0245232 0.005693288
v 0.003099418 -0.04640004 0.005756469
v 0.002904825 -0.04640004 0.005693296
v 0.004054404 0.00540158 0.004737686
v 0.003474476 -0.008475292 0.006910816
v 0.003095479 0.00540158 0.006057531
v 0.0044334 -0.008475292 0.005590975
v 0.003474476 -0.0245232 0.006910821
v 0.0044334 -0.0245232 0.005590973
v 0.003474476 -0.04640004 0.00691083
v 0.0044334 -0.04640004 0.005590946
v 0.002720421 0.00540158 0.004903216
v 0.003219683 -0.008475292 0.005590975
v 0.002840686 0.00540158 0.004737686
v 0.003099418 -0.008475292 0.005756503
v 0.003219683 -0.0245232 0.005590967
v 0.003099418 -0.0245232 0.005756502
v 0.003219683 -0.04640004 0.005590967
v 0.003099418 -0.04640004 0.005756469
vt 0.2 1
vt 0.2 0.75
vt 0 0.75
vt 0 1
vt 0.4 1
vt 0.4 0.75
vt 0.2 0.75
vt 0.2 1
vt 0.6 1
vt 0.6 0.75
vt 0.4 0.75
vt 0.4 1
vt 0.8 1
vt 0.8 0.75
vt 0.6 0.75
vt 0.6 1
vt 1 1
vt 1 0.75
vt 0.8 0.75
vt 0.8 1
vt 0.2 0.75
vt 0 0.5
vt 0 0.75
vt 0.2 0.5
vt 0.4 0.75
vt 0.4 0.5
vt 0.6 0.75
vt 0.6 0.5
vt 0.8 0.75
vt 0.8 0.5
vt 1 0.75
vt 1 0.5
vt 0.2 0.5
vt 0.2 0.25
vt 0 0.25
vt 0 0.5
vt 0.4 0.5
vt 0.4 0.25
vt 0.2 0.25
vt 0.2 0.5
vt 0.6 0.5
vt 0.6 0.25
vt 0.4 0.25
vt 0.4 0.5
vt 0.8 0.5
vt 0.8 0.25
vt 0.6 0.25
vt 0.6 0.5
vt 1 0.5
vt 1 0.25
vt 0.8 0.25
vt 0.8 0.5
vt 0.2 0.25
vt 0 0
vt 0 0.25
vt 0.2 0
vt 0.4 0.25
vt 0.4 0
vt 0.6 0.25
vt 0.6 0
vt 0.8 0.25
vt 0.8 0
vt 1 0.25
vt 1 0
vt 0.2 0.75
vt 0.2 0.75
vt 0 0.75
vt 0 0.75
vt 0 0.5
vt 0 0.5
vt 0.2 0.5
vt 0.2 0.5
vt 0.4 0.75
vt 0.4 0.75
vt 0.2 0.75
vt 0.2 0.75
vt 0.2 0.5
vt 0.2 0.5
vt 0.4 0.5
vt 0.4 0.5
vt 0.6 0.75
vt 0.6 0.75
vt 0.4 0.75
vt 0.4 0.75
vt 0.4 0.5
vt 0.4 0.5
vt 0.6 0.5
vt 0.6 0.5
vt 0.8 0.75
vt 0.8 0.75
vt 0.6 0.75
vt 0.6 0.75
vt 0.6 0.5
vt 0.6 0.5
vt 0.8 0.5
vt 0.8 0.5
vt 1 0.75
vt 1 0.75
vt 0.8 0.75
vt 0.8 0.75
vt 0.8 0.5
vt 0.8 0.5
vt 1 0.5
vt 1 0.5
vt 0.2 0.25
vt 0 0.25
vt 0 0.25
vt 0.2 0.25
vt 0 0.25
vt 0.2 0.25
vt 0 0.25
vt 0.2 0.25
vt 0 0
vt 0.2 0
vt 0.2 0
vt 0 0
vt 0.2 0
vt 0 0
vt 0.2 0
vt 0 0
vt 0.4 0.25
vt 0.2 0.25
vt 0.2 0.25
vt 0.4 0.25
vt 0.2 0.25
vt 0.4 0.25
vt 0.2 0.25
vt 0.4 0.25
vt 0.2 0
vt 0.4 0
vt 0.4 0
vt 0.2 0
vt 0.4 0
vt 0.2 0
vt 0.4 0
vt 0.2 0
vt 0.6 0.25
vt 0.4 0.25
vt 0.4 0.25
vt 0.6 0.25
vt 0.4 0.25
vt 0.6 0.25
vt 0.4 0.25
vt 0.6 0.25
vt 0.4 0
vt 0.6 0
vt 0.6 0
vt 0.4 0
vt 0.6 0
vt 0.4 0
vt 0.6 0
vt 0.4 0
vt 0.8 0.25
vt 0.6 0.25
vt 0.6 0.25
vt 0.8 0.25
vt 0.6 0.25
vt 0.8 0.25
vt 0.6 0.25
vt 0.8 0.25
vt 0.6 0
vt 0.8 0
vt 0.8 0
vt 0.6 0
vt 0.8 0
vt 0.6 0
vt 0.8 0
vt 0.6 0
vt 1 0.25
vt 0.8 0.25
vt 0.8 0.25
vt 1 0.25
vt 0.8 0.25
vt 1 0.25
vt 0.8 0.25
vt 1 0.25
vt 0.8 0
vt 1 0
vt 1 0
vt 0.8 0
vt 1 0
vt 0.8 0
vt 1 0
vt 0.8 0
vn -0.8102257 0.03635388 0.5849896
vn -0.7977638 0.4521808 0.3988803
vn -0.7980995 0.4508521 0.3997118
vn -0.809991 0.03172421 0.5855836
vn 0.3016907 0.1831583 0.9356472
vn 0.1615708 0.787594 0.594635
vn 0.1632816 0.7837801 0.5991893
vn 0.3019368 0.1798828 0.9362032
vn 0.9973423 0.07278761 -0.003228801
vn 0.6998961 0.6873659 -0.1940968
vn 0.7013061 0.686058 -0.1936341
vn 0.996493 0.08358046 -0.003995512
vn 0.3119837 -0.1266282 -0.9416111
vn 0.1990591 0.3162574 -0.9275542
vn 0.1978147 0.3204381 -0.9263848
vn 0.3123749 -0.1397633 -0.9396213
vn -0.8001981 -0.1661004 -0.5762756
vn -0.7718266 0.1365823 -0.6209902
vn -0.771077 0.1403527 -0.6210809
vn -0.8014241 -0.1548627 -0.5776997
vn -0.1386295 0.9451872 -0.2956402
vn -0.1386294 0.9451871 -0.2956405
vn -0.1386294 0.9451871 -0.2956405
vn -0.1386295 0.9451872 -0.2956403
vn -0.1386295 0.9451871 -0.2956405
vn -0.1386295 0.9451871 -0.2956405
vn -0.1386294 0.9451871 -0.2956407
vn -0.1386294 0.9451871 -0.2956406
vn -0.1386294 0.945187 -0.2956407
vn -0.1386294 0.945187 -0.2956407
vn -0.1386294 0.9451871 -0.2956405
vn -0.1386294 0.9451871 -0.2956405
vn 0.6765771 -0.7080311 -0.2023254
vn 0.8102298 -0.03637852 -0.5849822
vn 0.8099948 -0.03173774 -0.5855776
vn 0.6767476 -0.7078038 -0.20255
vn -0.08197111 -0.925411 -0.3699933
vn -0.3016723 -0.18339 -0.9356078
vn -0.3019229 -0.1800571 -0.9361742
vn -0.08456151 -0.9222201 -0.3773055
vn -0.5116104 -0.824789 0.240786
vn -0.9973411 -0.0728019 0.003250555
vn -0.9964836 -0.08369182 0.004029133
vn -0.5155575 -0.8225691 0.2399591
vn -0.1112156 -0.5524822 0.8260716
vn -0.3119598 0.126654 0.9416155
vn -0.3123405 0.1395926 0.9396581
vn -0.1096193 -0.5564334 0.8236295
vn 0.6582325 -0.4565243 0.5985946
vn 0.8001976 0.1658558 0.5763468
vn 0.8014016 0.154838 0.5777378
vn 0.6545008 -0.4638094 0.5970842
vn 0 -1 8.265368E-07
vn 0 -1 -8.265094E-07
vn 0 -1 -8.265456E-07
vn 0 -1 8.265877E-07
vn 0 -1 1.653084E-06
vn 0 -1 1.653009E-06
vn 0 -1 8.265225E-07
vn 0 -1 8.265837E-07
vn 0 -1 8.2655E-07
vn 0 -1 8.265005E-07
vn 0 -1 -8.265456E-07
vn 0 -1 -8.265094E-07
vn -0.7977638 0.4521808 0.3988803
vn -0.7886364 0.4852439 0.377612
vn -0.7886365 0.4852439 0.3776121
vn -0.7980995 0.4508521 0.3997118
vn 0.6767476 -0.7078038 -0.20255
vn 0.6071238 -0.7859333 -0.1170884
vn 0.6071237 -0.7859333 -0.1170884
vn 0.6765771 -0.7080311 -0.2023254
vn 0.1615708 0.787594 0.594635
vn 0.1477545 0.8168332 0.5576309
vn 0.1477545 0.8168332 0.5576309
vn 0.1632816 0.7837801 0.5991893
vn -0.08456151 -0.9222201 -0.3773055
vn -0.0405551 -0.9669291 -0.2518004
vn -0.04055509 -0.9669291 -0.2518004
vn -0.08197111 -0.925411 -0.3699933
vn 0.6998961 0.6873659 -0.1940968
vn 0.6622531 0.720444 -0.2058672
vn 0.6622531 0.720444 -0.2058672
vn 0.7013061 0.686058 -0.1936341
vn -0.5155575 -0.8225691 0.2399591
vn -0.3966841 -0.8798135 0.2618586
vn -0.396684 -0.8798136 0.2618586
vn -0.5116104 -0.824789 0.240786
vn 0.1990591 0.3162574 -0.9275542
vn 0.1850697 0.3621371 -0.9135677
vn 0.1850697 0.3621371 -0.9135677
vn 0.1978147 0.3204381 -0.9263848
vn -0.1096193 -0.5564334 0.8236295
vn -0.06598957 -0.6569993 0.7509975
vn -0.06598958 -0.6569992 0.7509975
vn -0.1112156 -0.5524822 0.8260716
vn -0.7718266 0.1365823 -0.6209902
vn -0.7632958 0.1764582 -0.6214837
vn -0.7632959 0.1764582 -0.6214837
vn -0.771077 0.1403527 -0.6210809
vn 0.6545008 -0.4638094 0.5970842
vn 0.5897517 -0.5742488 0.5678303
vn 0.5897517 -0.5742488 0.5678303
vn 0.6582325 -0.4565243 0.5985946
vn 0.8102298 -0.03637852 -0.5849822
vn 0.8090001 -0.00636503 -0.587774
vn 0.8099948 -0.03173774 -0.5855776
vn 0.8089985 -0.00665735 -0.5877729
vn 0.8090153 2.913723E-07 -0.5877875
vn 0.8090154 2.913724E-07 -0.5877874
vn 0.8090146 3.653259E-07 -0.5877887
vn 0.8090145 3.653259E-07 -0.5877887
vn -0.809991 0.03172421 0.5855836
vn -0.8089904 0.00665763 0.5877841
vn -0.8102257 0.03635388 0.5849896
vn -0.8089918 0.006365301 0.5877855
vn -0.8090146 -2.938551E-07 0.5877887
vn -0.8090145 -2.93855E-07 0.5877887
vn -0.8090219 -3.745077E-07 0.5877785
vn -0.8090219 -3.745077E-07 0.5877785
vn -0.3016723 -0.18339 -0.9356078
vn -0.3088695 -0.03094379 -0.9506009
vn -0.3019229 -0.1800571 -0.9361742
vn -0.3088682 -0.03109101 -0.9505966
vn -0.3090146 4.925378E-07 -0.9510573
vn -0.3090146 4.925377E-07 -0.9510573
vn -0.3090121 5.972971E-07 -0.9510581
vn -0.3090121 5.972971E-07 -0.9510581
vn 0.3019368 0.1798828 0.9362032
vn 0.3088609 0.03109117 0.950599
vn 0.3016907 0.1831583 0.9356472
vn 0.3088623 0.03094395 0.9506032
vn 0.3090427 -4.032961E-07 0.9510481
vn 0.3090427 -4.032961E-07 0.9510481
vn 0.3090684 -5.949173E-07 0.9510399
vn 0.3090684 -5.949173E-07 0.9510399
vn -0.9973411 -0.0728019 0.003250555
vn -0.9999164 -0.01292461 0
vn -0.9964836 -0.08369182 0.004029133
vn -0.9999232 -0.01239368 0
vn -1 0 0
vn -1 0 0
vn -1 0 0
vn -1 0 0
vn 0.996493 0.08358046 -0.003995512
vn 0.9999232 0.0123935 0
vn 0.9973423 0.07278761 -0.003228801
vn 0.9999166 0.01292443 0
vn 1 0 0
vn 1 0 0
vn 1 0 0
vn 1 0 0
vn -0.3119598 0.126654 0.9416155
vn -0.3089302 0.02354972 0.9507931
vn -0.3123405 0.1395926 0.9396581
vn -0.3089353 0.02283891 0.9508088
vn -0.3090186 1.271087E-07 0.951056
vn -0.3090186 1.271086E-07 0.951056
vn -0.3090205 0 0.9510553
vn -0.3090205 0 0.9510553
vn 0.3123749 -0.1397633 -0.9396213
vn 0.3089145 -0.02283914 -0.9508155
vn 0.3119837 -0.1266282 -0.9416111
vn 0.3089098 -0.02354994 -0.9507997
vn 0.308919 2.24083E-07 -0.9510884
vn 0.3089191 2.240831E-07 -0.9510884
vn 0.3088733 5.447672E-07 -0.9511032
vn 0.3088733 5.447673E-07 -0.9511033
vn 0.8001976 0.1658558 0.5763468
vn 0.8087285 0.02668395 0.5875765
vn 0.8014016 0.154838 0.5777378
vn 0.808715 0.02730336 0.5875668
vn 0.8090194 -1.17883E-07 0.587782
vn 0.8090194 -1.17883E-07 0.5877819
vn 0.8090214 -2.536186E-07 0.5877793
vn 0.8090214 -2.536186E-07 0.5877793
vn -0.8014241 -0.1548627 -0.5776997
vn -0.8087133 -0.02730322 -0.5875689
vn -0.8001981 -0.1661004 -0.5762756
vn -0.8087269 -0.02668383 -0.5875787
vn -0.8090047 3.300198E-07 -0.5878022
vn -0.8090047 3.300198E-07 -0.5878022
vn -0.8089961 4.370561E-07 -0.5878139
vn -0.8089961 4.370562E-07 -0.587814
g pPipe10_0
f 3/3/3 2/2/2 1/1/1
f 4/4/4 3/3/3 1/1/1
f 7/7/7 6/6/6 5/5/5
f 8/8/8 7/7/7 5/5/5
f 11/11/11 10/10/10 9/9/9
f 12/12/12 11/11/11 9/9/9
f 15/15/15 14/14/14 13/13/13
f 16/16/16 15/15/15 13/13/13
f 19/19/19 18/18/18 17/17/17
f 20/20/20 19/19/19 17/17/17
f 23/23/23 22/22/22 21/21/21
f 22/22/22 24/24/24 21/21/21
f 21/21/21 24/24/24 25/25/25
f 24/24/24 26/26/26 25/25/25
f 25/25/25 26/26/26 27/27/27
f 26/26/26 28/28/28 27/27/27
f 27/27/27 28/28/28 29/29/29
f 28/28/28 30/30/30 29/29/29
f 29/29/29 30/30/30 31/31/31
f 30/30/30 32/32/32 31/31/31
f 35/35/35 34/34/34 33/33/33
f 36/36/36 35/35/35 33/33/33
f 39/39/39 38/38/38 37/37/37
f 40/40/40 39/39/39 37/37/37
f 43/43/43 42/42/42 41/41/41
f 44/44/44 43/43/43 41/41/41
f 47/47/47 46/46/46 45/45/45
f 48/48/48 47/47/47 45/45/45
f 51/51/51 50/50/50 49/49/49
f 52/52/52 51/51/51 49/49/49
f 55/55/55 54/54/54 53/53/53
f 54/54/54 56/56/56 53/53/53
f 53/53/53 56/56/56 57/57/57
f 56/56/56 58/58/58 57/57/57
f 57/57/57 58/58/58 59/59/59
f 58/58/58 60/60/60 59/59/59
f 59/59/59 60/60/60 61/61/61
f 60/60/60 62/62/62 61/61/61
f 61/61/61 62/62/62 63/63/63
f 62/62/62 64/64/64 63/63/63
f 67/67/67 66/66/66 65/65/65
f 68/68/68 67/67/67 65/65/65
f 71/71/71 70/70/70 69/69/69
f 72/72/72 71/71/71 69/69/69
f 75/75/75 74/74/74 73/73/73
f 76/76/76 75/75/75 73/73/73
f 79/79/79 78/78/78 77/77/77
f 80/80/80 79/79/79 77/77/77
f 83/83/83 82/82/82 81/81/81
f 84/84/84 83/83/83 81/81/81
f 87/87/87 86/86/86 85/85/85
f 88/88/88 87/87/87 85/85/85
f 91/91/91 90/90/90 89/89/89
f 92/92/92 91/91/91 89/89/89
f 95/95/95 94/94/94 93/93/93
f 96/96/96 95/95/95 93/93/93
f 99/99/99 98/98/98 97/97/97
f 100/100/100 99/99/99 97/97/97
f 103/103/103 102/102/102 101/101/101
f 104/104/104 103/103/103 101/101/101
f 107/107/107 106/106/106 105/105/105
f 106/106/106 108/108/108 105/105/105
f 106/106/106 109/109/109 108/108/108
f 109/109/109 110/110/110 108/108/108
f 109/109/109 111/111/111 110/110/110
f 111/111/111 112/112/112 110/110/110
f 115/115/115 114/114/114 113/113/113
f 114/114/114 116/116/116 113/113/113
f 114/114/114 117/117/117 116/116/116
f 117/117/117 118/118/118 116/116/116
f 117/117/117 119/119/119 118/118/118
f 119/119/119 120/120/120 118/118/118
f 123/123/123 122/122/122 121/121/121
f 122/122/122 124/124/124 121/121/121
f 122/122/122 125/125/125 124/124/124
f 125/125/125 126/126/126 124/124/124
f 125/125/125 127/127/127 126/126/126
f 127/127/127 128/128/128 126/126/126
f 131/131/131 130/130/130 129/129/129
f 130/130/130 132/132/132 129/129/129
f 130/130/130 133/133/133 132/132/132
f 133/133/133 134/134/134 132/132/132
f 133/133/133 135/135/135 134/134/134
f 135/135/135 136/136/136 134/134/134
f 139/139/139 138/138/138 137/137/137
f 138/138/138 140/140/140 137/137/137
f 138/138/138 141/141/141 140/140/140
f 141/141/141 142/142/142 140/140/140
f 141/141/141 143/143/143 142/142/142
f 143/143/143 144/144/144 142/142/142
f 147/147/147 146/146/146 145/145/145
f 146/146/146 148/148/148 145/145/145
f 146/146/146 149/149/149 148/148/148
f 149/149/149 150/150/150 148/148/148
f 149/149/149 151/151/151 150/150/150
f 151/151/151 152/152/152 150/150/150
f 155/155/155 154/154/154 153/153/153
f 154/154/154 156/156/156 153/153/153
f 154/154/154 157/157/157 156/156/156
f 157/157/157 158/158/158 156/156/156
f 157/157/157 159/159/159 158/158/158
f 159/159/159 160/160/160 158/158/158
f 163/163/163 162/162/162 161/161/161
f 162/162/162 164/164/164 161/161/161
f 162/162/162 165/165/165 164/164/164
f 165/165/165 166/166/166 164/164/164
f 165/165/165 167/167/167 166/166/166
f 167/167/167 168/168/168 166/166/166
f 171/171/171 170/170/170 169/169/169
f 170/170/170 172/172/172 169/169/169
f 170/170/170 173/173/173 172/172/172
f 173/173/173 174/174/174 172/172/172
f 173/173/173 175/175/175 174/174/174
f 175/175/175 176/176/176 174/174/174
f 179/179/179 178/178/178 177/177/177
f 178/178/178 180/180/180 177/177/177
f 178/178/178 181/181/181 180/180/180
f 181/181/181 182/182/182 180/180/180
f 181/181/181 183/183/183 182/182/182
f 183/183/183 184/184/184 182/182/182
