g Puck_SquareTile_Thick_30cm
v -0.4548608 0.3003376 -0.4548607
v -0.4992375 0.2603376 -0.4548607
v -0.4548608 0.2603376 -0.4992374
v -0.4548608 0.3003373 0.454861
v -0.4548608 0.2603373 0.4992376
v -0.4992375 0.2603373 0.454861
v 0.4548608 0.3003373 0.454861
v 0.4992375 0.2603373 0.454861
v 0.4548608 0.2603373 0.4992376
v 0.4548608 0.3003376 -0.4548607
v 0.4548608 0.2603376 -0.4992374
v 0.4992375 0.2603376 -0.4548607
v -0.4548608 0.04000013 -0.4992375
v -0.4992375 0.04000013 -0.4548608
v -0.4548608 1.335144E-07 -0.4548608
v -0.4992375 0.03999986 0.4548608
v -0.4548608 0.03999986 0.4992375
v -0.4548608 -1.335144E-07 0.4548608
v 0.4548608 0.03999986 0.4992375
v 0.4992375 0.03999986 0.4548608
v 0.4548608 -1.335144E-07 0.4548608
v 0.4992375 0.04000013 -0.4548608
v 0.4548608 0.04000013 -0.4992375
v 0.4548608 1.335144E-07 -0.4548608
v -0.4548608 0.3003376 -0.4548607
v -0.4992375 0.2603373 0.454861
v -0.4992375 0.2603376 -0.4548607
v -0.4548608 0.3003373 0.454861
v -0.4548608 0.3003373 0.454861
v 0.4548608 0.2603373 0.4992376
v -0.4548608 0.2603373 0.4992376
v 0.4548608 0.3003373 0.454861
v 0.4548608 0.3003373 0.454861
v 0.4992375 0.2603376 -0.4548607
v 0.4992375 0.2603373 0.454861
v 0.4548608 0.3003376 -0.4548607
v 0.4548608 0.3003376 -0.4548607
v -0.4548608 0.2603376 -0.4992374
v 0.4548608 0.2603376 -0.4992374
v -0.4548608 0.3003376 -0.4548607
v -0.4548608 0.2603376 -0.4992374
v -0.4992375 0.04000013 -0.4548608
v -0.4548608 0.04000013 -0.4992375
v -0.4992375 0.2603376 -0.4548607
v -0.4992375 0.2603376 -0.4548607
v -0.4992375 0.03999986 0.4548608
v -0.4992375 0.04000013 -0.4548608
v -0.4992375 0.2603373 0.454861
v -0.4992375 0.2603373 0.454861
v -0.4548608 0.03999986 0.4992375
v -0.4992375 0.03999986 0.4548608
v -0.4548608 0.2603373 0.4992376
v -0.4548608 0.2603373 0.4992376
v 0.4548608 0.03999986 0.4992375
v -0.4548608 0.03999986 0.4992375
v 0.4548608 0.2603373 0.4992376
v 0.4548608 0.2603373 0.4992376
v 0.4992375 0.03999986 0.4548608
v 0.4548608 0.03999986 0.4992375
v 0.4992375 0.2603373 0.454861
v 0.4992375 0.2603373 0.454861
v 0.4992375 0.04000013 -0.4548608
v 0.4992375 0.03999986 0.4548608
v 0.4992375 0.2603376 -0.4548607
v 0.4992375 0.2603376 -0.4548607
v 0.4548608 0.04000013 -0.4992375
v 0.4992375 0.04000013 -0.4548608
v 0.4548608 0.2603376 -0.4992374
v 0.4548608 0.2603376 -0.4992374
v -0.4548608 0.04000013 -0.4992375
v 0.4548608 0.04000013 -0.4992375
v -0.4548608 0.2603376 -0.4992374
v -0.4992375 0.04000013 -0.4548608
v -0.4548608 -1.335144E-07 0.4548608
v -0.4548608 1.335144E-07 -0.4548608
v -0.4992375 0.03999986 0.4548608
v -0.4548608 0.03999986 0.4992375
v 0.4548608 -1.335144E-07 0.4548608
v -0.4548608 -1.335144E-07 0.4548608
v 0.4548608 0.03999986 0.4992375
v 0.4992375 0.03999986 0.4548608
v 0.4548608 1.335144E-07 -0.4548608
v 0.4548608 -1.335144E-07 0.4548608
v 0.4992375 0.04000013 -0.4548608
v 0.4548608 0.04000013 -0.4992375
v -0.4548608 1.335144E-07 -0.4548608
v 0.4548608 1.335144E-07 -0.4548608
v -0.4548608 0.04000013 -0.4992375
v -0.4548608 0.3003376 -0.4548607
v 0.4548608 0.3003373 0.454861
v -0.4548608 0.3003373 0.454861
v 0.4548608 0.3003376 -0.4548607
v 0.4548608 1.335144E-07 -0.4548608
v -0.4548608 -1.335144E-07 0.4548608
v 0.4548608 -1.335144E-07 0.4548608
v -0.4548608 1.335144E-07 -0.4548608
vt 0.5304635 0.8391685
vt 0.513151 0.8391685
vt 0.5304635 0.8564811
vt 0.5304635 0.4842596
vt 0.5304635 0.466947
vt 0.513151 0.4842596
vt 0.8853724 0.4842596
vt 0.902685 0.4842596
vt 0.8853724 0.466947
vt 0.8853724 0.8391685
vt 0.8853724 0.8564811
vt 0.902685 0.8391685
vt 0.5304635 0.466947
vt 0.513151 0.4842596
vt 0.5304635 0.4842596
vt 0.513151 0.8391685
vt 0.5304635 0.8564811
vt 0.5304635 0.8391685
vt 0.8853724 0.8564811
vt 0.902685 0.8391685
vt 0.8853724 0.8391685
vt 0.902685 0.4842596
vt 0.8853724 0.466947
vt 0.8853724 0.4842596
vt 0.5304635 0.8391685
vt 0.513151 0.4842596
vt 0.513151 0.8391685
vt 0.5304635 0.4842596
vt 0.5304635 0.4842596
vt 0.8853724 0.466947
vt 0.5304635 0.466947
vt 0.8853724 0.4842596
vt 0.8853724 0.4842596
vt 0.902685 0.8391685
vt 0.902685 0.4842596
vt 0.8853724 0.8391685
vt 0.8853724 0.8391685
vt 0.5304635 0.8564811
vt 0.8853724 0.8564811
vt 0.5304635 0.8391685
vt 0.513151 0.8564811
vt 0.5191612 0.466947
vt 0.513151 0.466947
vt 0.5191612 0.8564811
vt 0.5191612 0.8564811
vt 0.6062846 0.466947
vt 0.5191612 0.466947
vt 0.6062846 0.8564811
vt 0.6062846 0.8564811
vt 0.6122948 0.466947
vt 0.6062846 0.466947
vt 0.6122948 0.8564811
vt 0.6122948 0.8564811
vt 0.6994181 0.466947
vt 0.6122948 0.466947
vt 0.6994181 0.8564811
vt 0.6994181 0.8564811
vt 0.7054284 0.466947
vt 0.6994181 0.466947
vt 0.7054284 0.8564811
vt 0.7054284 0.8564811
vt 0.7925518 0.466947
vt 0.7054284 0.466947
vt 0.7925518 0.8564811
vt 0.7925518 0.8564811
vt 0.7985621 0.466947
vt 0.7925518 0.466947
vt 0.7985621 0.8564811
vt 0.7985621 0.8564811
vt 0.902685 0.466947
vt 0.7985621 0.466947
vt 0.902685 0.8564811
vt 0.513151 0.4842596
vt 0.5304635 0.8391685
vt 0.5304635 0.4842596
vt 0.513151 0.8391685
vt 0.5304635 0.8564811
vt 0.8853724 0.8391685
vt 0.5304635 0.8391685
vt 0.8853724 0.8564811
vt 0.902685 0.8391685
vt 0.8853724 0.4842596
vt 0.8853724 0.8391685
vt 0.902685 0.4842596
vt 0.8853724 0.466947
vt 0.5304635 0.4842596
vt 0.8853724 0.4842596
vt 0.5304635 0.466947
vt 0.0968703 0.8782507
vt 0.4339814 0.5411395
vt 0.0968703 0.5411395
vt 0.4339814 0.8782507
vt 0.4339814 0.5411395
vt 0.0968703 0.8782507
vt 0.4339814 0.8782507
vt 0.0968703 0.5411395
vn -0.5563456 0.6172192 -0.5563453
vn -0.5563456 0.6172192 -0.5563453
vn -0.5563456 0.6172192 -0.5563453
vn -0.5563453 0.6172187 0.5563461
vn -0.5563453 0.6172187 0.5563461
vn -0.5563453 0.6172187 0.5563461
vn 0.5563453 0.6172187 0.5563461
vn 0.5563453 0.6172186 0.5563461
vn 0.5563453 0.6172186 0.5563461
vn 0.5563456 0.6172192 -0.5563453
vn 0.5563456 0.6172192 -0.5563453
vn 0.5563456 0.6172192 -0.5563453
vn -0.5563455 -0.6172192 -0.5563455
vn -0.5563455 -0.6172192 -0.5563455
vn -0.5563455 -0.6172192 -0.5563455
vn -0.5563455 -0.6172192 0.5563454
vn -0.5563455 -0.6172192 0.5563454
vn -0.5563455 -0.6172192 0.5563454
vn 0.5563455 -0.6172192 0.5563454
vn 0.5563455 -0.6172192 0.5563454
vn 0.5563455 -0.6172192 0.5563454
vn 0.5563455 -0.6172192 -0.5563455
vn 0.5563455 -0.6172192 -0.5563455
vn 0.5563455 -0.6172192 -0.5563455
vn -0.6695285 0.7427863 2.180286E-07
vn -0.6695286 0.7427863 2.180286E-07
vn -0.6695286 0.7427863 2.180286E-07
vn -0.6695287 0.7427862 2.035441E-07
vn 0 0.7427858 0.6695291
vn 0 0.7427858 0.6695292
vn 0 0.7427858 0.6695291
vn 0 0.7427858 0.6695291
vn 0.6695287 0.7427862 2.180286E-07
vn 0.6695287 0.7427862 2.180286E-07
vn 0.6695287 0.7427862 2.180285E-07
vn 0.6695286 0.7427863 2.035442E-07
vn 0 0.7427864 -0.6695284
vn 0 0.7427865 -0.6695284
vn 0 0.7427865 -0.6695284
vn 0 0.7427865 -0.6695284
vn -0.7071068 2.448425E-07 -0.7071068
vn -0.7071068 2.448424E-07 -0.7071068
vn -0.7071068 2.448424E-07 -0.7071068
vn -0.7071068 2.448425E-07 -0.7071068
vn -1 0 0
vn -1 0 0
vn -1 0 0
vn -1 0 0
vn -0.7071068 -3.672637E-07 0.7071068
vn -0.7071068 -3.672637E-07 0.7071068
vn -0.7071068 -3.672637E-07 0.7071068
vn -0.7071065 -2.448426E-07 0.7071071
vn 0 -3.462596E-07 1
vn 0 -3.462596E-07 1
vn 0 -3.462596E-07 1
vn 0 -3.462596E-07 1
vn 0.7071068 -2.448425E-07 0.7071068
vn 0.7071068 -2.448424E-07 0.7071068
vn 0.7071068 -2.448425E-07 0.7071068
vn 0.7071065 -3.672638E-07 0.7071071
vn 1 0 0
vn 1 0 0
vn 1 0 0
vn 1 0 0
vn 0.7071068 2.448425E-07 -0.7071068
vn 0.7071068 2.448424E-07 -0.7071068
vn 0.7071068 2.448425E-07 -0.7071068
vn 0.7071068 2.448424E-07 -0.7071068
vn 0 3.462595E-07 -1
vn 0 3.462595E-07 -1
vn 0 3.462595E-07 -1
vn 0 3.462595E-07 -1
vn -0.6695285 -0.7427863 -2.180286E-07
vn -0.6695286 -0.7427863 -2.180286E-07
vn -0.6695286 -0.7427863 -2.180286E-07
vn -0.6695286 -0.7427863 -2.175817E-07
vn 0 -0.7427863 0.6695285
vn 0 -0.7427864 0.6695284
vn 0 -0.7427863 0.6695285
vn 0 -0.7427863 0.6695285
vn 0.6695285 -0.7427863 -2.180286E-07
vn 0.6695286 -0.7427863 -2.180286E-07
vn 0.6695286 -0.7427863 -2.180286E-07
vn 0.6695286 -0.7427863 -2.175817E-07
vn 0 -0.7427863 -0.6695286
vn 0 -0.7427863 -0.6695286
vn 0 -0.7427863 -0.6695285
vn 0 -0.7427863 -0.6695285
vn 0 1 2.725617E-07
vn 0 1 2.725617E-07
vn 0 1 2.725617E-07
vn 0 1 2.725617E-07
vn 0 -1 -2.93528E-07
vn 0 -1 -2.93528E-07
vn 0 -1 -2.93528E-07
vn 0 -1 -2.93528E-07
g Puck_SquareTile_Thick_30cm_0
f 3/3/3 2/2/2 1/1/1
f 6/6/6 5/5/5 4/4/4
f 9/9/9 8/8/8 7/7/7
f 12/12/12 11/11/11 10/10/10
f 15/15/15 14/14/14 13/13/13
f 18/18/18 17/17/17 16/16/16
f 21/21/21 20/20/20 19/19/19
f 24/24/24 23/23/23 22/22/22
f 27/27/27 26/26/26 25/25/25
f 26/26/26 28/28/28 25/25/25
f 31/31/31 30/30/30 29/29/29
f 30/30/30 32/32/32 29/29/29
f 35/35/35 34/34/34 33/33/33
f 34/34/34 36/36/36 33/33/33
f 39/39/39 38/38/38 37/37/37
f 38/38/38 40/40/40 37/37/37
f 43/43/43 42/42/42 41/41/41
f 42/42/42 44/44/44 41/41/41
f 47/47/47 46/46/46 45/45/45
f 46/46/46 48/48/48 45/45/45
f 51/51/51 50/50/50 49/49/49
f 50/50/50 52/52/52 49/49/49
f 55/55/55 54/54/54 53/53/53
f 54/54/54 56/56/56 53/53/53
f 59/59/59 58/58/58 57/57/57
f 58/58/58 60/60/60 57/57/57
f 63/63/63 62/62/62 61/61/61
f 62/62/62 64/64/64 61/61/61
f 67/67/67 66/66/66 65/65/65
f 66/66/66 68/68/68 65/65/65
f 71/71/71 70/70/70 69/69/69
f 70/70/70 72/72/72 69/69/69
f 75/75/75 74/74/74 73/73/73
f 74/74/74 76/76/76 73/73/73
f 79/79/79 78/78/78 77/77/77
f 78/78/78 80/80/80 77/77/77
f 83/83/83 82/82/82 81/81/81
f 82/82/82 84/84/84 81/81/81
f 87/87/87 86/86/86 85/85/85
f 86/86/86 88/88/88 85/85/85
f 91/91/91 90/90/90 89/89/89
f 90/90/90 92/92/92 89/89/89
f 95/95/95 94/94/94 93/93/93
f 94/94/94 96/96/96 93/93/93
