g rock
v 0.05730543 -0.00404942 -0.08749202
v 0.07006724 0.008466974 -0.08749202
v 0.07006724 -0.00404942 -0.07473021
v 0.09534544 0.008466974 -0.08749202
v 0.1081073 -0.00404942 -0.08749202
v 0.09534544 -0.00404942 -0.07473021
v 0.05730543 -0.00404942 -0.1127702
v 0.07006724 -0.00404942 -0.125532
v 0.07006724 0.008466974 -0.1127702
v 0.09534544 -0.00404942 -0.125532
v 0.1081073 -0.00404942 -0.1127702
v 0.09534544 0.008466974 -0.1127702
v 0.04994285 -0.005767353 0.125532
v 0.05607834 0.00404942 0.117924
v 0.06368634 -0.005767353 0.1243049
v 0.06884015 0.00404942 0.1029534
v 0.07497563 -0.005767353 0.09534544
v 0.07620273 -0.005767353 0.1090889
v 0.03472684 -0.005767353 0.1130156
v 0.03349975 -0.005767353 0.09927216
v 0.04110775 0.00404942 0.1054076
v 0.04601614 -0.005767353 0.08405615
v 0.06000505 -0.005767353 0.08282906
v 0.05362414 0.00404942 0.09043705
v -0.09559086 -0.008466966 -0.04969743
v -0.09068248 -0.00085897 -0.0555875
v -0.08479241 -0.008466966 -0.05067911
v -0.08111112 -0.00085897 -0.06712221
v -0.07620274 -0.008466966 -0.07301228
v -0.07522105 -0.008466966 -0.06221382
v -0.1071256 -0.008466966 -0.05951421
v -0.1081073 -0.008466966 -0.07006724
v -0.1022172 -0.00085897 -0.06515886
v -0.0985359 -0.008466966 -0.08160195
v -0.08773744 -0.008466966 -0.08258364
v -0.09264582 -0.00085897 -0.07693899
v 0.05730543 -0.00404942 -0.08749202
v 0.05730543 -0.00404942 -0.1127702
v 0.07006724 0.008466974 -0.1127702
v 0.07006724 0.008466974 -0.08749202
v 0.07006724 0.008466974 -0.08749202
v 0.09534544 0.008466974 -0.08749202
v 0.09534544 -0.00404942 -0.07473021
v 0.07006724 -0.00404942 -0.07473021
v 0.09534544 0.008466974 -0.08749202
v 0.09534544 0.008466974 -0.1127702
v 0.1081073 -0.00404942 -0.1127702
v 0.1081073 -0.00404942 -0.08749202
v 0.07006724 -0.00404942 -0.125532
v 0.09534544 -0.00404942 -0.125532
v 0.09534544 0.008466974 -0.1127702
v 0.07006724 0.008466974 -0.1127702
v 0.07006724 0.008466974 -0.08749202
v 0.07006724 0.008466974 -0.1127702
v 0.09534544 0.008466974 -0.1127702
v 0.09534544 0.008466974 -0.08749202
v 0.04994285 -0.005767353 0.125532
v 0.03472684 -0.005767353 0.1130156
v 0.04110775 0.00404942 0.1054076
v 0.05607834 0.00404942 0.117924
v 0.05607834 0.00404942 0.117924
v 0.06884015 0.00404942 0.1029534
v 0.07620273 -0.005767353 0.1090889
v 0.06368634 -0.005767353 0.1243049
v 0.06884015 0.00404942 0.1029534
v 0.05362414 0.00404942 0.09043705
v 0.06000505 -0.005767353 0.08282906
v 0.07497563 -0.005767353 0.09534544
v 0.03349975 -0.005767353 0.09927216
v 0.04601614 -0.005767353 0.08405615
v 0.05362414 0.00404942 0.09043705
v 0.04110775 0.00404942 0.1054076
v 0.05607834 0.00404942 0.117924
v 0.04110775 0.00404942 0.1054076
v 0.05362414 0.00404942 0.09043705
v 0.06884015 0.00404942 0.1029534
v -0.09559086 -0.008466966 -0.04969743
v -0.1071256 -0.008466966 -0.05951421
v -0.1022172 -0.00085897 -0.06515886
v -0.09068248 -0.00085897 -0.0555875
v -0.09068248 -0.00085897 -0.0555875
v -0.08111112 -0.00085897 -0.06712221
v -0.07522105 -0.008466966 -0.06221382
v -0.08479241 -0.008466966 -0.05067911
v -0.08111112 -0.00085897 -0.06712221
v -0.09264582 -0.00085897 -0.07693899
v -0.08773744 -0.008466966 -0.08258364
v -0.07620274 -0.008466966 -0.07301228
v -0.1081073 -0.008466966 -0.07006724
v -0.0985359 -0.008466966 -0.08160195
v -0.09264582 -0.00085897 -0.07693899
v -0.1022172 -0.00085897 -0.06515886
v -0.09068248 -0.00085897 -0.0555875
v -0.1022172 -0.00085897 -0.06515886
v -0.09264582 -0.00085897 -0.07693899
v -0.08111112 -0.00085897 -0.06712221
vt 0.7155885 0.8588172
vt 0.7267131 0.8699418
vt 0.7267131 0.8588172
vt 0.7385329 0.8699418
vt 0.7496575 0.8588172
vt 0.7385329 0.8588172
vt 0.7211508 0.8817617
vt 0.7267131 0.8928862
vt 0.7267131 0.8817617
vt 0.7385329 0.8928862
vt 0.7440952 0.8817617
vt 0.7385329 0.8817617
vt 0.7155885 0.8588172
vt 0.7267131 0.8699418
vt 0.7267131 0.8588172
vt 0.7385329 0.8699418
vt 0.7496575 0.8588172
vt 0.7385329 0.8588172
vt 0.7211508 0.8817617
vt 0.7267131 0.8928862
vt 0.7267131 0.8817617
vt 0.7385329 0.8928862
vt 0.7440952 0.8817617
vt 0.7385329 0.8817617
vt 0.7155885 0.8588172
vt 0.7267131 0.8699418
vt 0.7267131 0.8588172
vt 0.7385329 0.8699418
vt 0.7496575 0.8588172
vt 0.7385329 0.8588172
vt 0.7211508 0.8817617
vt 0.7267131 0.8928862
vt 0.7267131 0.8817617
vt 0.7385329 0.8928862
vt 0.7440952 0.8817617
vt 0.7385329 0.8817617
vt 0.7211508 0.8699418
vt 0.7211508 0.8817617
vt 0.7267131 0.8817617
vt 0.7267131 0.8699418
vt 0.7267131 0.8699418
vt 0.7385329 0.8699418
vt 0.7385329 0.8588172
vt 0.7267131 0.8588172
vt 0.7385329 0.8699418
vt 0.7385329 0.8817617
vt 0.7440952 0.8817617
vt 0.7440952 0.8699418
vt 0.7267131 0.8928862
vt 0.7385329 0.8928862
vt 0.7385329 0.8817617
vt 0.7267131 0.8817617
vt 0.7267131 0.8699418
vt 0.7267131 0.8817617
vt 0.7385329 0.8817617
vt 0.7385329 0.8699418
vt 0.7211508 0.8699418
vt 0.7211508 0.8817617
vt 0.7267131 0.8817617
vt 0.7267131 0.8699418
vt 0.7267131 0.8699418
vt 0.7385329 0.8699418
vt 0.7385329 0.8588172
vt 0.7267131 0.8588172
vt 0.7385329 0.8699418
vt 0.7385329 0.8817617
vt 0.7440952 0.8817617
vt 0.7440952 0.8699418
vt 0.7267131 0.8928862
vt 0.7385329 0.8928862
vt 0.7385329 0.8817617
vt 0.7267131 0.8817617
vt 0.7267131 0.8699418
vt 0.7267131 0.8817617
vt 0.7385329 0.8817617
vt 0.7385329 0.8699418
vt 0.7211508 0.8699418
vt 0.7211508 0.8817617
vt 0.7267131 0.8817617
vt 0.7267131 0.8699418
vt 0.7267131 0.8699418
vt 0.7385329 0.8699418
vt 0.7385329 0.8588172
vt 0.7267131 0.8588172
vt 0.7385329 0.8699418
vt 0.7385329 0.8817617
vt 0.7440952 0.8817617
vt 0.7440952 0.8699418
vt 0.7267131 0.8928862
vt 0.7385329 0.8928862
vt 0.7385329 0.8817617
vt 0.7267131 0.8817617
vt 0.7267131 0.8699418
vt 0.7267131 0.8817617
vt 0.7385329 0.8817617
vt 0.7385329 0.8699418
vn -0.5682826 0.5682826 0.5950712
vn -0.5682826 0.5682826 0.5950712
vn -0.5682826 0.5682826 0.5950712
vn 0.5828931 0.5682826 0.5807672
vn 0.5828931 0.5682826 0.5807672
vn 0.5828931 0.5682826 0.5807672
vn -0.5682826 0.5682826 -0.5950712
vn -0.5682826 0.5682826 -0.5950712
vn -0.5682826 0.5682826 -0.5950712
vn 0.5828931 0.5682826 -0.5807672
vn 0.5828931 0.5682826 -0.5807672
vn 0.5828931 0.5682826 -0.5807672
vn 0.06486404 0.5682826 0.8202728
vn 0.06486404 0.5682826 0.8202728
vn 0.06486404 0.5682826 0.8202728
vn 0.8131282 0.5682826 -0.1260054
vn 0.8131282 0.5682826 -0.1260054
vn 0.8131282 0.5682826 -0.1260054
vn -0.824267 0.5662012 0
vn -0.824267 0.5662012 0
vn -0.824267 0.5662012 0
vn -0.0790329 0.5682826 -0.8190291
vn -0.0790329 0.5682826 -0.8190291
vn -0.0790329 0.5682826 -0.8190291
vn 0.06486404 0.5682826 0.8202728
vn 0.06486404 0.5682826 0.8202728
vn 0.06486404 0.5682826 0.8202728
vn 0.8131282 0.5682826 -0.1260054
vn 0.8131282 0.5682826 -0.1260054
vn 0.8131282 0.5682826 -0.1260054
vn -0.824267 0.5662012 0
vn -0.824267 0.5662012 0
vn -0.824267 0.5662012 0
vn -0.0790329 0.5682826 -0.8190291
vn -0.0790329 0.5682826 -0.8190291
vn -0.0790329 0.5682826 -0.8190291
vn -0.7071067 0.7071067 0
vn -0.7071067 0.7071067 0
vn -0.7071067 0.7071067 0
vn -0.7071067 0.7071067 0
vn 0.007305264 0.7121795 0.7019594
vn 0.007305264 0.7121795 0.7019594
vn 0.007305264 0.7121795 0.7019594
vn 0.007305264 0.7121795 0.7019594
vn 0.6980107 0.7121795 -0.07470863
vn 0.6980107 0.7121795 -0.07470863
vn 0.6980107 0.7121795 -0.07470863
vn 0.6980107 0.7121795 -0.07470863
vn 0.007305264 0.7121795 -0.7019594
vn 0.007305264 0.7121795 -0.7019594
vn 0.007305264 0.7121795 -0.7019594
vn 0.007305264 0.7121795 -0.7019594
vn 0.007305264 0.9999733 0
vn 0.007305264 0.9999733 0
vn 0.007305264 0.9999733 0
vn 0.007305264 0.9999733 0
vn -0.4531651 0.7121795 0.5361359
vn -0.4531651 0.7121795 0.5361359
vn -0.4531651 0.7121795 0.5361359
vn -0.4531651 0.7121795 0.5361359
vn 0.5541137 0.7121795 0.4309969
vn 0.5541137 0.7121795 0.4309969
vn 0.5541137 0.7121795 0.4309969
vn 0.5541137 0.7121795 0.4309969
vn 0.4389961 0.7121795 -0.547798
vn 0.4389961 0.7121795 -0.547798
vn 0.4389961 0.7121795 -0.547798
vn 0.4389961 0.7121795 -0.547798
vn -0.5395032 0.7121795 -0.4491509
vn -0.5395032 0.7121795 -0.4491509
vn -0.5395032 0.7121795 -0.4491509
vn -0.5395032 0.7121795 -0.4491509
vn 0.007305264 0.9999733 0
vn 0.007305264 0.9999733 0
vn 0.007305264 0.9999733 0
vn 0.007305264 0.9999733 0
vn -0.4531651 0.7121795 0.5361359
vn -0.4531651 0.7121795 0.5361359
vn -0.4531651 0.7121795 0.5361359
vn -0.4531651 0.7121795 0.5361359
vn 0.5541137 0.7121795 0.4309969
vn 0.5541137 0.7121795 0.4309969
vn 0.5541137 0.7121795 0.4309969
vn 0.5541137 0.7121795 0.4309969
vn 0.4389961 0.7121795 -0.547798
vn 0.4389961 0.7121795 -0.547798
vn 0.4389961 0.7121795 -0.547798
vn 0.4389961 0.7121795 -0.547798
vn -0.5395032 0.7121795 -0.4491509
vn -0.5395032 0.7121795 -0.4491509
vn -0.5395032 0.7121795 -0.4491509
vn -0.5395032 0.7121795 -0.4491509
vn 0.007305264 0.9999733 0
vn 0.007305264 0.9999733 0
vn 0.007305264 0.9999733 0
vn 0.007305264 0.9999733 0
g rock_0
f 3/3/3 2/2/2 1/1/1
f 6/6/6 5/5/5 4/4/4
f 9/9/9 8/8/8 7/7/7
f 12/12/12 11/11/11 10/10/10
f 15/15/15 14/14/14 13/13/13
f 18/18/18 17/17/17 16/16/16
f 21/21/21 20/20/20 19/19/19
f 24/24/24 23/23/23 22/22/22
f 27/27/27 26/26/26 25/25/25
f 30/30/30 29/29/29 28/28/28
f 33/33/33 32/32/32 31/31/31
f 36/36/36 35/35/35 34/34/34
f 39/39/39 38/38/38 37/37/37
f 40/40/40 39/39/39 37/37/37
f 43/43/43 42/42/42 41/41/41
f 44/44/44 43/43/43 41/41/41
f 47/47/47 46/46/46 45/45/45
f 48/48/48 47/47/47 45/45/45
f 51/51/51 50/50/50 49/49/49
f 52/52/52 51/51/51 49/49/49
f 55/55/55 54/54/54 53/53/53
f 56/56/56 55/55/55 53/53/53
f 59/59/59 58/58/58 57/57/57
f 60/60/60 59/59/59 57/57/57
f 63/63/63 62/62/62 61/61/61
f 64/64/64 63/63/63 61/61/61
f 67/67/67 66/66/66 65/65/65
f 68/68/68 67/67/67 65/65/65
f 71/71/71 70/70/70 69/69/69
f 72/72/72 71/71/71 69/69/69
f 75/75/75 74/74/74 73/73/73
f 76/76/76 75/75/75 73/73/73
f 79/79/79 78/78/78 77/77/77
f 80/80/80 79/79/79 77/77/77
f 83/83/83 82/82/82 81/81/81
f 84/84/84 83/83/83 81/81/81
f 87/87/87 86/86/86 85/85/85
f 88/88/88 87/87/87 85/85/85
f 91/91/91 90/90/90 89/89/89
f 92/92/92 91/91/91 89/89/89
f 95/95/95 94/94/94 93/93/93
f 96/96/96 95/95/95 93/93/93
