g Rock_Wall_01
v 0.5134007 -0.8297429 -0.416487
v 0.4868675 1.417525 -0.4798657
v -0.02108634 0.4451702 -0.9223361
v -0.02108634 0.4451702 -0.9223361
v -0.080522 -1.023729 -0.9650217
v 0.07229114 1.389643 -0.8619951
v 0.4868675 1.417525 -0.4798657
v 0.2342036 1.771481 0.9912962
v 0.452444 2.160021 0.8051239
v 0.5309319 -0.8297429 0.75949
v -1.705759 -0.7223834 -0.3095345
v -2.350084 0.5220253 0.02175397
v -2.499435 -0.7406282 -0.03443724
v -0.5354636 2.055921 0.5204194
v -1.569557 1.679327 0.6380535
v -1.250672 2.055921 0.4911841
v 0.9321773 -0.8476707 1.007817
v 2.653943 0.4158 0.9845533
v 2.653943 -0.8476707 0.9845533
v 0.9321773 1.157974 1.007817
v 2.653943 0.4158 0.9845533
v 2.330723 1.157974 0.9889205
v 1.483867 2.313349 -0.1397868
v 1.055385 2.313349 0.6425328
v 0.7152191 2.313349 0.2638686
v 0.3272373 -0.8297429 0.9687449
v -0.3892647 -0.8297429 0.9351701
v -0.3892647 1.2 0.9351701
v -0.3892647 1.2 0.9351701
v 0.2342036 1.771481 0.9912962
v -0.1187518 1.939815 0.9595223
v -0.02108634 0.4451702 -0.9223361
v -0.9638585 -1.023729 -0.6435135
v -0.080522 -1.023729 -0.9650217
v 0.2342036 1.771481 0.9912962
v 0.5309319 -0.8297429 0.75949
v 0.3272373 -0.8297429 0.9687449
v -2.350084 0.5220253 0.02175397
v -1.624084 1.2 -0.08513492
v -1.81765 1.2 -0.0196954
v -1.624084 1.2 -0.08513492
v -2.350084 0.5220253 0.02175397
v -1.705759 -0.7223834 -0.3095345
v -2.556936 -0.7406282 0.8882469
v -2.443609 0.5885943 0.7982361
v -1.479062 -0.7223834 0.8887923
v 2.330723 1.157974 0.9889205
v 2.360809 1.157974 0.7764209
v 2.653943 0.4158 0.9845533
v 0.4199964 2.076384 -0.06122643
v 0.7152191 2.313349 0.2638686
v 0.4216629 2.137681 0.06209771
v 1.357225 2.146329 -0.4116912
v 1.483867 2.313349 -0.1397868
v 1.022251 2.061743 -0.4071651
v 1.022251 2.061743 -0.4071651
v 0.7152191 2.313349 0.2638686
v 0.4199964 2.076384 -0.06122643
v 0.4154329 -0.5987006 -0.398966
v 0.4296198 -0.5987006 0.650988
v 0.9321773 -0.8476707 1.007817
v 0.4154329 -0.5987006 -0.398966
v 0.9321773 -0.8476707 1.007817
v 2.137198 -0.8476707 -0.4222301
v -0.6003947 2.410174 0.3550953
v -0.1649724 2.410174 0.7680549
v -0.1187518 1.939815 0.9595223
v -0.3892647 1.2 0.9351701
v 0.4216629 2.137681 0.06209771
v 0.7152191 2.313349 0.2638686
v 1.055385 2.313349 0.6425328
v 0.4296198 1.32259 0.650988
v -1.628786 1.425126 -0.09805125
v -1.098671 2.055921 -0.3225522
v -1.250672 2.055921 0.4911841
v -1.569557 1.679327 0.6380535
v -1.628786 1.425126 -0.09805125
v -1.569557 1.679327 0.6380535
v -1.494361 1.2 0.8446528
v -1.624084 1.2 -0.08513492
v -0.1187518 1.939815 0.9595223
v 0.452444 2.160021 0.8051239
v 0.2342036 1.771481 0.9912962
v 0.455231 2.385807 0.7104855
v -0.1649724 2.410174 0.7680549
v -0.1649724 2.410174 0.7680549
v 0.4770841 2.325517 -0.03158027
v 0.455231 2.385807 0.7104855
v 0.05923723 2.316422 -0.4071583
v -0.6003947 2.410174 0.3550953
v -0.3892647 -0.8297429 0.9351701
v -0.9638585 -1.023729 -0.6435135
v -0.9081365 1.2 -0.4904183
v -0.3892647 1.2 0.9351701
v -0.6003947 2.410174 0.3550953
v -0.8811814 2.253316 -0.41636
v 2.494591 1.157974 -0.1684718
v 2.151385 1.157974 0.6277239
v 2.137198 1.157974 -0.4222301
v 2.360809 1.157974 0.7764209
v 2.330723 1.157974 0.9889205
v 0.9321773 1.157974 1.007817
v 0.4296198 1.157974 0.650988
v -2.350084 0.5220253 0.02175397
v -1.81765 1.2 -0.0196954
v -1.964334 1.2 0.7655736
v -2.443609 0.5885943 0.7982361
v 0.05923723 2.316422 -0.4071583
v 0.4868675 1.417525 -0.4798657
v 0.4770841 2.325517 -0.03158027
v 0.07229114 1.389643 -0.8619951
v -0.196164 2.253316 -0.6656859
v 2.653943 0.4158 0.9845533
v 2.360809 1.157974 0.7764209
v 2.494591 1.157974 -0.1684718
v 2.639755 0.790436 -0.06540096
v 0.4770841 2.325517 -0.03158027
v 0.452444 2.160021 0.8051239
v 0.455231 2.385807 0.7104855
v 0.4868675 1.417525 -0.4798657
v 0.5134007 -0.8297429 -0.416487
v 0.5309319 -0.8297429 0.75949
v 2.151385 1.688209 0.6277239
v 1.879134 2.313349 0.6314024
v 1.937752 2.313349 0.2173893
v 2.142556 1.921358 -0.02569854
v -1.479062 -0.7223834 0.8887923
v -1.494361 1.2 0.8446528
v -0.4790091 1.2 0.675527
v -0.4790091 -0.5007092 0.675527
v 2.639755 -0.8476707 -0.06540096
v 2.653943 -0.8476707 0.9845533
v 2.653943 0.4158 0.9845533
v 2.639755 0.790436 -0.06540096
v -1.628786 1.425126 -0.09805125
v -0.8482823 2.055921 -0.4093397
v -1.098671 2.055921 -0.3225522
v -0.8304087 1.2 -0.3602322
v -1.624084 1.2 -0.08513492
v 2.151385 1.157974 0.6277239
v 2.137198 1.540944 -0.4222301
v 2.137198 1.157974 -0.4222301
v 2.151385 1.688209 0.6277239
v 2.142556 1.921358 -0.02569854
v 1.483867 2.313349 -0.1397868
v 1.357225 2.146329 -0.4116912
v 2.137198 1.540944 -0.4222301
v 2.142556 1.921358 -0.02569854
v 1.937752 2.313349 0.2173893
v -0.4790091 1.2 0.675527
v -1.494361 1.2 0.8446528
v -1.569557 1.679327 0.6380535
v -0.5354636 2.055921 0.5204194
v -0.02108634 0.4451702 -0.9223361
v -0.9081365 1.2 -0.4904183
v -0.9638585 -1.023729 -0.6435135
v 0.07229114 1.389643 -0.8619951
v -0.196164 2.253316 -0.6656859
v -0.8811814 2.253316 -0.41636
v 0.4199964 2.076384 -0.06122643
v 0.6178087 1.157974 -0.4017004
v 1.022251 2.061743 -0.4071651
v 0.4169386 1.157974 -0.2875319
v 0.4154329 0.7057444 -0.398966
v 2.151385 1.157974 0.6277239
v 0.4296198 1.157974 0.650988
v 0.4296198 1.32259 0.650988
v 2.151385 1.688209 0.6277239
v 1.055385 2.313349 0.6425328
v 1.879134 2.313349 0.6314024
v 2.137198 -0.8476707 -0.4222301
v 0.4154329 0.7057444 -0.398966
v 0.4154329 -0.5987006 -0.398966
v 2.137198 1.157974 -0.4222301
v 0.6178087 1.157974 -0.4017004
v 2.137198 1.540944 -0.4222301
v 1.022251 2.061743 -0.4071651
v 1.357225 2.146329 -0.4116912
v -0.9120834 -0.5007092 -0.5846319
v -0.8304087 1.2 -0.3602322
v -1.624084 1.2 -0.08513492
v -1.705759 -0.7223834 -0.3095345
v 2.137198 1.157974 -0.4222301
v 2.639755 0.790436 -0.06540096
v 2.494591 1.157974 -0.1684718
v 2.639755 -0.8476707 -0.06540096
v 2.137198 -0.8476707 -0.4222301
v 0.05923723 2.316422 -0.4071583
v -0.6003947 2.410174 0.3550953
v -0.8811814 2.253316 -0.41636
v -0.196164 2.253316 -0.6656859
v -2.443609 0.5885943 0.7982361
v -1.964334 1.2 0.7655736
v -1.494361 1.2 0.8446528
v -1.479062 -0.7223834 0.8887923
v -2.350084 0.5220253 0.02175397
v -2.443609 0.5885943 0.7982361
v -2.556936 -0.7406282 0.8882469
v -2.499435 -0.7406282 -0.03443724
v -0.5354636 2.055921 0.5204194
v -1.250672 2.055921 0.4911841
v -1.098671 2.055921 -0.3225522
v -0.8482823 2.055921 -0.4093397
v -1.494361 1.2 0.8446528
v -1.964334 1.2 0.7655736
v -1.81765 1.2 -0.0196954
v -1.624084 1.2 -0.08513492
v 1.937752 2.313349 0.2173893
v 1.879134 2.313349 0.6314024
v 1.055385 2.313349 0.6425328
v 1.483867 2.313349 -0.1397868
v 0.9321773 1.157974 1.007817
v 0.9321773 -0.8476707 1.007817
v 0.4296198 -0.5987006 0.650988
v 0.4296198 1.157974 0.650988
v -2.499435 -0.7406282 -0.03443724
v -2.556936 -0.7406282 0.8882469
v -1.479062 -0.7223834 0.8887923
v -1.705759 -0.7223834 -0.3095345
v -1.705759 -0.7223834 -0.3095345
v -1.479062 -0.7223834 0.8887923
v -0.4790091 -0.5007092 0.675527
v -0.9120834 -0.5007092 -0.5846319
v -0.3892647 -0.8297429 0.9351701
v 0.5134007 -0.8297429 -0.416487
v -0.080522 -1.023729 -0.9650217
v -0.9638585 -1.023729 -0.6435135
v 0.5309319 -0.8297429 0.75949
v 0.5134007 -0.8297429 -0.416487
v -0.3892647 -0.8297429 0.9351701
v 0.3272373 -0.8297429 0.9687449
v 2.639755 -0.8476707 -0.06540096
v 2.137198 -0.8476707 -0.4222301
v 0.9321773 -0.8476707 1.007817
v 2.653943 -0.8476707 0.9845533
vt 0.04172177 0.9011235
vt 0.0452766 0.9312237
vt 0.05314141 0.9179273
vt 0.05314141 0.9179273
vt 0.05306078 0.8976498
vt 0.05248298 0.930257
vt 0.0452766 0.9312237
vt 0.02498871 0.9398482
vt 0.02975792 0.9446864
vt 0.02504009 0.9028766
vt 0.6458474 0.9035296
vt 0.663456 0.9223226
vt 0.6603957 0.8997671
vt 0.7109612 0.9505701
vt 0.6925679 0.9432536
vt 0.698159 0.9505701
vt 0.2280313 0.9344919
vt 0.2053531 0.9221416
vt 0.2062244 0.9371187
vt 0.2239249 0.9089492
vt 0.2053531 0.9221416
vt 0.2066732 0.9126403
vt 0.2176341 0.9471083
vt 0.2107847 0.9386794
vt 0.2081945 0.9442453
vt 0.1001208 0.9036235
vt 0.08995362 0.9023743
vt 0.08677262 0.9302865
vt 0.08677262 0.9302865
vt 0.09414871 0.9394937
vt 0.08871846 0.9410481
vt 0.05314141 0.9179273
vt 0.06644753 0.8974282
vt 0.05306078 0.8976498
vt 0.02498871 0.9398482
vt 0.02504009 0.9028766
vt 0.02097311 0.903454
vt 0.663456 0.9223226
vt 0.653679 0.9372787
vt 0.6572382 0.9364504
vt 0.653679 0.9372787
vt 0.663456 0.9223226
vt 0.6458474 0.9035296
vt 0.6768504 0.898148
vt 0.6774917 0.922053
vt 0.6960768 0.8995906
vt 0.2066732 0.9126403
vt 0.2039444 0.9124537
vt 0.2053531 0.9221416
vt 0.20428 0.9488254
vt 0.2081945 0.9442453
vt 0.2043998 0.9470668
vt 0.2169026 0.9513357
vt 0.2176341 0.9471083
vt 0.2125504 0.9525642
vt 0.2125504 0.9525642
vt 0.2081945 0.9442453
vt 0.20428 0.9488254
vt 0.1640251 0.9493747
vt 0.1711012 0.960205
vt 0.1792909 0.960205
vt 0.1640251 0.9493747
vt 0.1792909 0.960205
vt 0.1817325 0.9372951
vt 0.07698573 0.9465776
vt 0.08552506 0.9476243
vt 0.08871846 0.9410481
vt 0.08677262 0.9302865
vt 0.2043998 0.9470668
vt 0.2081945 0.9442453
vt 0.2107847 0.9386794
vt 0.1967341 0.9377242
vt 0.6859189 0.9506013
vt 0.6839606 0.9657491
vt 0.6982946 0.962043
vt 0.6996899 0.952941
vt 0.6786183 0.9425297
vt 0.6925679 0.9432536
vt 0.6938587 0.9339108
vt 0.6777347 0.9385937
vt 0.04660874 0.9608451
vt 0.04817919 0.9522662
vt 0.04316137 0.9566631
vt 0.05144808 0.9513981
vt 0.05356655 0.9597446
vt 0.05356655 0.9597446
vt 0.06102883 0.9476461
vt 0.05144808 0.9513981
vt 0.0678564 0.9513389
vt 0.06095551 0.9635031
vt 0.08995362 0.9023743
vt 0.06644753 0.8974282
vt 0.06630532 0.9283361
vt 0.08677262 0.9302865
vt 0.07698573 0.9465776
vt 0.06559113 0.9430256
vt 0.2116331 0.9759939
vt 0.2138644 0.9655476
vt 0.2062329 0.9759939
vt 0.2170288 0.9655476
vt 0.2182423 0.9631984
vt 0.2043278 0.9530332
vt 0.1967341 0.9530332
vt 0.6997211 0.9647237
vt 0.7151339 0.9655634
vt 0.7136114 0.9513572
vt 0.6997211 0.9506854
vt 0.05019021 0.9440075
vt 0.0452766 0.9312237
vt 0.04207621 0.9447196
vt 0.05248298 0.930257
vt 0.05523774 0.9423918
vt 0.2053531 0.9221416
vt 0.2039444 0.9124537
vt 0.1921232 0.9128466
vt 0.1935787 0.9175453
vt 0.04207621 0.9447196
vt 0.02975792 0.9446864
vt 0.03172312 0.9476243
vt 0.0452766 0.9312237
vt 0.04172177 0.9011235
vt 0.02504009 0.9028766
vt 0.2307066 0.9372951
vt 0.2213157 0.9372951
vt 0.2223473 0.9424192
vt 0.2272802 0.9463224
vt 0.6960768 0.8995906
vt 0.6938587 0.9339108
vt 0.7122343 0.9350321
vt 0.7140867 0.9046714
vt 0.192827 0.9372701
vt 0.2062244 0.9371187
vt 0.2053531 0.9221416
vt 0.1935787 0.9175453
vt 0.7291524 0.9368279
vt 0.7141606 0.9481581
vt 0.7189001 0.9481494
vt 0.714118 0.9328216
vt 0.7291413 0.932794
vt 0.1995147 0.913014
vt 0.1868895 0.9074805
vt 0.1865905 0.9121941
vt 0.1999287 0.9064878
vt 0.1920676 0.9031079
vt 0.2176341 0.9471083
vt 0.2169026 0.9513357
vt 0.2293861 0.9530082
vt 0.2272802 0.9463224
vt 0.2223473 0.9424192
vt 0.7122343 0.9350321
vt 0.6938587 0.9339108
vt 0.6925679 0.9432536
vt 0.7109612 0.9505701
vt 0.05314141 0.9179273
vt 0.06630532 0.9283361
vt 0.06644753 0.8974282
vt 0.05248298 0.930257
vt 0.05523774 0.9423918
vt 0.06559113 0.9430256
vt 0.1650879 0.8990061
vt 0.1678879 0.9110077
vt 0.1735719 0.9001997
vt 0.1650583 0.9106717
vt 0.1650437 0.9164158
vt 0.1995147 0.913014
vt 0.2207084 0.9143585
vt 0.2208369 0.9123324
vt 0.1999287 0.9064878
vt 0.2139078 0.8996493
vt 0.203768 0.8990061
vt 0.1850245 0.9368799
vt 0.1650437 0.9164158
vt 0.1640251 0.9324712
vt 0.1865905 0.9121941
vt 0.1678879 0.9110077
vt 0.1868895 0.9074805
vt 0.1735719 0.9001997
vt 0.1777613 0.8994203
vt 0.7141274 0.9021061
vt 0.714118 0.9328216
vt 0.7291413 0.932794
vt 0.7291524 0.898148
vt 0.1865905 0.9121941
vt 0.1935787 0.9175453
vt 0.1921232 0.9128466
vt 0.192827 0.9372701
vt 0.1850245 0.9368799
vt 0.0678564 0.9513389
vt 0.06095551 0.9635031
vt 0.07250161 0.9635031
vt 0.07250161 0.9534329
vt 0.6774917 0.922053
vt 0.6853436 0.9335307
vt 0.6938587 0.9339108
vt 0.6960768 0.8995906
vt 0.663456 0.9223226
vt 0.6774917 0.922053
vt 0.6768504 0.898148
vt 0.6603957 0.8997671
vt 0.6996899 0.9747689
vt 0.6982946 0.962043
vt 0.6839606 0.9657491
vt 0.6827179 0.9703228
vt 0.7221013 0.9506013
vt 0.7136114 0.9513572
vt 0.7151339 0.9655634
vt 0.7184942 0.9669995
vt 0.2223473 0.9424192
vt 0.2213157 0.9372951
vt 0.2107847 0.9386794
vt 0.2176341 0.9471083
vt 0.2239249 0.9089492
vt 0.2280313 0.9344919
vt 0.235371 0.9300592
vt 0.2317744 0.9076873
vt 0.6521225 0.9507391
vt 0.6458474 0.9660362
vt 0.6641029 0.9722393
vt 0.6671491 0.9506409
vt 0.6671491 0.9506409
vt 0.6641029 0.9722393
vt 0.6826866 0.9744331
vt 0.6826866 0.9506013
vt 0.02097311 0.9684948
vt 0.04313935 0.9649183
vt 0.04313942 0.9534329
vt 0.03151434 0.9476461
vt 0.03140424 0.9761544
vt 0.04313935 0.9649183
vt 0.02097311 0.9684948
vt 0.02737123 0.9760609
vt 0.189324 0.9374726
vt 0.1817325 0.9372951
vt 0.1792909 0.960205
vt 0.1967092 0.9480945
vn 0.6708009 -0.01299279 -0.7415237
vn 0.6708009 -0.01299279 -0.7415237
vn 0.6708009 -0.01299279 -0.7415237
vn 0.6783416 -0.02014151 -0.7344705
vn 0.6795547 -0.006178533 -0.7335989
vn 0.6783416 -0.02014151 -0.7344705
vn 0.6783416 -0.02014151 -0.7344705
vn 0.6436012 0.005214211 0.7653432
vn 0.6436012 0.005214211 0.7653432
vn 0.6436012 0.005214211 0.7653432
vn -0.3280841 0.08069239 -0.9411959
vn -0.3280841 0.08069239 -0.9411959
vn -0.3280841 0.08069239 -0.9411959
vn -0.03759864 0.390558 0.9198102
vn -0.03759864 0.390558 0.9198102
vn -0.03759864 0.390558 0.9198102
vn 0.01351048 0 0.9999088
vn 0.01351048 0 0.9999088
vn 0.01351048 0 0.9999088
vn 0.01351049 0 0.9999088
vn 0.01351049 0 0.9999088
vn 0.01351049 0 0.9999088
vn 0 1 0
vn 0 1 0
vn 0 1 0
vn -0.07921543 -0.01147478 0.9967914
vn -0.0468079 0 0.9989039
vn -0.0468079 0 0.9989039
vn -0.08965978 0 0.9959725
vn -0.08965978 0 0.9959725
vn -0.08965978 0 0.9959725
vn -0.341731 0.04111135 -0.9388983
vn -0.341731 0.04111135 -0.9388983
vn -0.341731 0.04111135 -0.9388983
vn 0.7164255 0.01957722 0.6973889
vn 0.7164255 0.01957722 0.6973889
vn 0.7164255 0.01957722 0.6973889
vn -0.3144292 0.1900701 -0.9300578
vn -0.3144292 0.1900701 -0.9300578
vn -0.3144292 0.1900701 -0.9300578
vn -0.2558539 0.1228007 -0.9588841
vn -0.2558539 0.1228007 -0.9588841
vn -0.2558539 0.1228007 -0.9588841
vn -0.00165084 0.0677022 0.9977042
vn -0.00165084 0.0677022 0.9977042
vn -0.00165084 0.0677022 0.9977042
vn 0.9094728 0.3953211 0.1287647
vn 0.9094728 0.3953211 0.1287647
vn 0.9094728 0.3953211 0.1287647
vn -0.2263888 0.873449 -0.4310858
vn -0.2263888 0.873449 -0.4310858
vn -0.2263888 0.873449 -0.4310858
vn -0.2263847 0.8734504 -0.4310852
vn -0.2263847 0.8734499 -0.431086
vn -0.2263847 0.8734504 -0.4310852
vn -0.2263847 0.8734499 -0.431086
vn -0.2263847 0.8734499 -0.431086
vn -0.2263847 0.8734499 -0.431086
vn -0.2034373 -0.9742027 -0.09768543
vn -0.2034373 -0.9742027 -0.09768543
vn -0.2034373 -0.9742027 -0.09768543
vn -0.2034373 -0.9742027 -0.09768543
vn -0.2034373 -0.9742027 -0.09768543
vn -0.2034373 -0.9742027 -0.09768543
vn -0.6709641 0.2220502 0.7074608
vn -0.6709641 0.2220502 0.7074608
vn -0.6709641 0.2220502 0.7074608
vn -0.6709641 0.2220504 0.7074608
vn -0.6718127 0.4294685 0.6035102
vn -0.6718127 0.4294685 0.6035102
vn -0.6718127 0.4294685 0.6035102
vn -0.6718123 0.4294683 0.6035107
vn -0.7823415 0.6054631 -0.1461375
vn -0.7823415 0.6054631 -0.1461375
vn -0.7823415 0.6054631 -0.1461375
vn -0.7823415 0.6054631 -0.1461375
vn -0.9896002 -0.0737543 0.1234985
vn -0.9896002 -0.0737543 0.1234985
vn -0.9896002 -0.0737543 0.1234985
vn -0.9896002 -0.0737543 0.1234985
vn 0.1002866 0.3835641 0.918053
vn 0.1002866 0.3835641 0.918053
vn 0.1002866 0.3835641 0.918053
vn 0.1002863 0.3835638 0.9180531
vn 0.1002863 0.3835638 0.9180531
vn 0.03171596 0.9962894 -0.08001051
vn 0.03171596 0.9962894 -0.08001051
vn 0.03171596 0.9962894 -0.08001051
vn 0.05340564 0.9961668 -0.06927931
vn 0.05340564 0.9961668 -0.06927931
vn -0.9396926 0 0.3420202
vn -0.9396926 0 0.3420202
vn -0.9396926 0 0.3420202
vn -0.9396926 0 0.3420202
vn -0.9396926 0 0.3420202
vn -0.9396926 0 0.3420202
vn 0 1 0
vn 0 1 0
vn 0 1 0
vn 0 1 0
vn 0 1 0
vn 0 1 0
vn 0 1 0
vn -0.7823417 0.605463 -0.1461371
vn -0.7823417 0.605463 -0.1461371
vn -0.7823417 0.605463 -0.1461371
vn -0.7823417 0.605463 -0.1461371
vn 0.6213968 0.3522238 -0.6998603
vn 0.6213968 0.3522238 -0.6998603
vn 0.6213968 0.3522238 -0.6998603
vn 0.6213968 0.3522237 -0.6998602
vn 0.6213968 0.3522237 -0.6998602
vn 0.9094727 0.3953209 0.1287663
vn 0.9094727 0.3953209 0.1287663
vn 0.9094727 0.3953209 0.1287663
vn 0.9094727 0.3953209 0.1287663
vn 0.9995806 -0.003428222 0.02875852
vn 0.9995806 -0.003428222 0.02875852
vn 0.9995666 0 0.02943616
vn 0.9995806 -0.003428222 0.02875852
vn 0.9997986 0.02005226 0.000812778
vn 0.9997986 0.02005226 0.000812778
vn 0.9094727 0.3953209 0.1287664
vn 0.9094727 0.3953209 0.1287664
vn 0.9094727 0.3953209 0.1287664
vn 0.9094727 0.3953209 0.1287664
vn 0.1850393 0.0127529 0.9826484
vn 0.1850393 0.0127529 0.9826484
vn 0.1850393 0.0127529 0.9826484
vn 0.1850393 0.0127529 0.9826484
vn 0.9999087 0 -0.01351085
vn 0.9999087 0 -0.01351085
vn 0.9999087 0 -0.01351085
vn 0.9999087 0 -0.01351085
vn -0.3268884 -0.06093533 -0.9430965
vn -0.3268884 -0.06093533 -0.9430965
vn -0.3268884 -0.06093533 -0.9430965
vn -0.3268884 -0.06093533 -0.9430965
vn -0.3268883 -0.06093517 -0.9430965
vn 0.9999087 0 -0.01351069
vn 0.9999087 0 -0.01351069
vn 0.9999087 0 -0.01351069
vn 0.9999087 0 -0.01351069
vn 0.9999087 0 -0.01351082
vn 0.4804431 0.6296275 -0.6105274
vn 0.4804431 0.6296275 -0.6105274
vn 0.4804431 0.6296275 -0.6105274
vn 0.4804431 0.6296275 -0.6105274
vn 0.480443 0.6296277 -0.6105272
vn 0.08496027 0.2683176 0.9595767
vn 0.08496027 0.2683176 0.9595767
vn 0.08496027 0.2683176 0.9595767
vn 0.08496027 0.2683176 0.9595767
vn -0.3805402 0.07997499 -0.9212997
vn -0.3805402 0.07997499 -0.9212997
vn -0.3805402 0.07997499 -0.9212997
vn -0.3805402 0.07997499 -0.9212997
vn -0.3566354 0.08627201 -0.9302518
vn -0.3566354 0.08627201 -0.9302518
vn -0.483007 0.2110103 -0.849811
vn -0.483007 0.2110103 -0.849811
vn -0.483007 0.2110103 -0.849811
vn -0.483007 0.2110103 -0.849811
vn -0.4830068 0.2110103 -0.8498112
vn 0.01351055 0 0.9999088
vn 0.01351055 0 0.9999088
vn 0.01351055 0 0.9999088
vn 0.01351055 0 0.9999088
vn 0.01351063 0 0.9999087
vn 0.01351063 0 0.9999087
vn -0.01351058 0 -0.9999087
vn -0.0135106 0 -0.9999087
vn -0.01351058 0 -0.9999087
vn -0.01351061 0 -0.9999087
vn -0.01351061 0 -0.9999087
vn -0.01351061 0 -0.9999087
vn -0.01351061 0 -0.9999087
vn -0.01351061 0 -0.9999087
vn -0.3409324 0.1306908 -0.9309592
vn -0.3409324 0.1306908 -0.9309592
vn -0.3409324 0.1306908 -0.9309592
vn -0.3409324 0.1306908 -0.9309592
vn 0.5789365 0 -0.8153725
vn 0.5789365 0 -0.8153725
vn 0.5789365 0 -0.8153725
vn 0.5789362 0 -0.8153728
vn 0.5789362 0 -0.8153728
vn -0.06418718 0.982232 -0.1763527
vn -0.06418718 0.982232 -0.1763527
vn -0.06418718 0.982232 -0.1763527
vn -0.06418718 0.982232 -0.1763527
vn -0.07726221 0.04433856 0.9960244
vn -0.07726221 0.04433856 0.9960244
vn -0.07726221 0.04433856 0.9960244
vn -0.07726221 0.04433856 0.9960244
vn -0.9908084 0.0992152 -0.09195161
vn -0.9908084 0.0992152 -0.09195161
vn -0.9908084 0.0992152 -0.09195161
vn -0.9908084 0.0992152 -0.09195161
vn 0 1 0
vn 0 1 0
vn 0 1 0
vn 0 1 0
vn 0 1 0
vn 0 1 0
vn 0 1 0
vn 0 1 0
vn 0 1 0
vn 0 1 0
vn 0 1 0
vn 0 1 0
vn -0.5789365 0 0.8153726
vn -0.5789365 0 0.8153726
vn -0.5789365 0 0.8153726
vn -0.5789365 0 0.8153726
vn 0.01926785 -0.9998133 -0.001537033
vn 0.01926785 -0.9998133 -0.001537033
vn 0.01926785 -0.9998133 -0.001537033
vn 0.01926785 -0.9998133 -0.001537033
vn 0.2240527 -0.9727204 -0.06012792
vn 0.2240527 -0.9727204 -0.06012792
vn 0.2240527 -0.9727204 -0.06012792
vn 0.2240527 -0.9727204 -0.06012792
vn 0.1113042 -0.9866588 0.1188104
vn 0.1113042 -0.9866588 0.1188104
vn 0.1113042 -0.9866588 0.1188104
vn 0.1113042 -0.9866588 0.1188104
vn 0 -1 0
vn 0 -1 0
vn 0 -1 0
vn 0 -1 0
vn 0 -1 0
vn 0 -1 0
vn 0 -1 0
vn 0 -1 0
g Rock_Wall_01_0
f 3/3/3 2/2/2 1/1/1
f 5/5/5 4/4/4 1/1/1
f 7/7/7 4/4/4 6/6/6
f 10/10/10 9/9/9 8/8/8
f 13/13/13 12/12/12 11/11/11
f 16/16/16 15/15/15 14/14/14
f 19/19/19 18/18/18 17/17/17
f 17/17/17 21/21/21 20/20/20
f 21/21/21 22/22/22 20/20/20
f 25/25/25 24/24/24 23/23/23
f 28/28/28 27/27/27 26/26/26
f 26/26/26 30/30/30 29/29/29
f 30/30/30 31/31/31 29/29/29
f 34/34/34 33/33/33 32/32/32
f 37/37/37 36/36/36 35/35/35
f 40/40/40 39/39/39 38/38/38
f 43/43/43 42/42/42 41/41/41
f 46/46/46 45/45/45 44/44/44
f 49/49/49 48/48/48 47/47/47
f 52/52/52 51/51/51 50/50/50
f 55/55/55 54/54/54 53/53/53
f 57/57/57 54/54/54 56/56/56
f 58/58/58 57/57/57 56/56/56
f 61/61/61 60/60/60 59/59/59
f 64/64/64 63/63/63 62/62/62
f 67/67/67 66/66/66 65/65/65
f 68/68/68 67/67/67 65/65/65
f 71/71/71 70/70/70 69/69/69
f 72/72/72 71/71/71 69/69/69
f 75/75/75 74/74/74 73/73/73
f 76/76/76 75/75/75 73/73/73
f 79/79/79 78/78/78 77/77/77
f 80/80/80 79/79/79 77/77/77
f 83/83/83 82/82/82 81/81/81
f 82/82/82 84/84/84 81/81/81
f 84/84/84 85/85/85 81/81/81
f 88/88/88 87/87/87 86/86/86
f 86/86/86 87/87/87 89/89/89
f 90/90/90 86/86/86 89/89/89
f 93/93/93 92/92/92 91/91/91
f 94/94/94 93/93/93 91/91/91
f 93/93/93 94/94/94 95/95/95
f 96/96/96 93/93/93 95/95/95
f 99/99/99 98/98/98 97/97/97
f 98/98/98 100/100/100 97/97/97
f 98/98/98 101/101/101 100/100/100
f 101/101/101 98/98/98 102/102/102
f 102/102/102 98/98/98 103/103/103
f 106/106/106 105/105/105 104/104/104
f 107/107/107 106/106/106 104/104/104
f 110/110/110 109/109/109 108/108/108
f 109/109/109 111/111/111 108/108/108
f 111/111/111 112/112/112 108/108/108
f 115/115/115 114/114/114 113/113/113
f 116/116/116 115/115/115 113/113/113
f 119/119/119 118/118/118 117/117/117
f 117/117/117 118/118/118 120/120/120
f 120/120/120 118/118/118 121/121/121
f 118/118/118 122/122/122 121/121/121
f 125/125/125 124/124/124 123/123/123
f 126/126/126 125/125/125 123/123/123
f 129/129/129 128/128/128 127/127/127
f 130/130/130 129/129/129 127/127/127
f 133/133/133 132/132/132 131/131/131
f 134/134/134 133/133/133 131/131/131
f 137/137/137 136/136/136 135/135/135
f 136/136/136 138/138/138 135/135/135
f 135/135/135 138/138/138 139/139/139
f 142/142/142 141/141/141 140/140/140
f 141/141/141 143/143/143 140/140/140
f 144/144/144 143/143/143 141/141/141
f 147/147/147 146/146/146 145/145/145
f 148/148/148 147/147/147 145/145/145
f 149/149/149 148/148/148 145/145/145
f 152/152/152 151/151/151 150/150/150
f 153/153/153 152/152/152 150/150/150
f 156/156/156 155/155/155 154/154/154
f 155/155/155 157/157/157 154/154/154
f 157/157/157 155/155/155 158/158/158
f 155/155/155 159/159/159 158/158/158
f 162/162/162 161/161/161 160/160/160
f 161/161/161 163/163/163 160/160/160
f 164/164/164 163/163/163 161/161/161
f 167/167/167 166/166/166 165/165/165
f 168/168/168 167/167/167 165/165/165
f 167/167/167 168/168/168 169/169/169
f 170/170/170 169/169/169 168/168/168
f 173/173/173 172/172/172 171/171/171
f 172/172/172 174/174/174 171/171/171
f 175/175/175 174/174/174 172/172/172
f 176/176/176 174/174/174 175/175/175
f 177/177/177 176/176/176 175/175/175
f 178/178/178 176/176/176 177/177/177
f 181/181/181 180/180/180 179/179/179
f 182/182/182 181/181/181 179/179/179
f 185/185/185 184/184/184 183/183/183
f 184/184/184 186/186/186 183/183/183
f 186/186/186 187/187/187 183/183/183
f 190/190/190 189/189/189 188/188/188
f 191/191/191 190/190/190 188/188/188
f 194/194/194 193/193/193 192/192/192
f 195/195/195 194/194/194 192/192/192
f 198/198/198 197/197/197 196/196/196
f 199/199/199 198/198/198 196/196/196
f 202/202/202 201/201/201 200/200/200
f 203/203/203 202/202/202 200/200/200
f 206/206/206 205/205/205 204/204/204
f 207/207/207 206/206/206 204/204/204
f 210/210/210 209/209/209 208/208/208
f 211/211/211 210/210/210 208/208/208
f 214/214/214 213/213/213 212/212/212
f 215/215/215 214/214/214 212/212/212
f 218/218/218 217/217/217 216/216/216
f 219/219/219 218/218/218 216/216/216
f 222/222/222 221/221/221 220/220/220
f 223/223/223 222/222/222 220/220/220
f 226/226/226 225/225/225 224/224/224
f 227/227/227 226/226/226 224/224/224
f 230/230/230 229/229/229 228/228/228
f 231/231/231 230/230/230 228/228/228
f 234/234/234 233/233/233 232/232/232
f 235/235/235 234/234/234 232/232/232
