g Rock_Square_l_01
v -0.5281128 3.434945 -0.5855242
v -0.569185 3.388554 -0.6264927
v 0.5665482 3.390208 -0.6317575
v 0.5274655 3.436497 -0.5904901
v -0.5665107 3.434889 0.5470418
v -0.6075853 3.388498 0.5880129
v -0.6075853 3.388498 -0.588012
v -0.5665107 3.434889 -0.5470409
v -0.569185 3.388554 0.6264936
v 0.566548 3.390208 0.6317587
v 0.6472872 -0.5999998 0.7257211
v -0.6504942 -0.6000002 0.7254341
v -0.6075853 3.388498 0.5880129
v -0.6888939 -0.6000002 0.687123
v -0.6888939 -0.6000002 -0.687122
v -0.6075853 3.388498 -0.588012
v 0.6045628 3.390263 -0.5933956
v 0.6853023 -0.5999998 -0.6871903
v 0.6853023 -0.5999998 0.6871914
v 0.6045626 3.390263 0.5933967
v 0.5274653 3.436498 0.5904912
v 0.566548 3.390208 0.6317587
v -0.569185 3.388554 0.6264936
v -0.5281128 3.434945 0.585525
v 0.5654821 3.436553 -0.5521308
v 0.6045628 3.390263 -0.5933956
v 0.6045626 3.390263 0.5933967
v 0.565482 3.436554 0.5521318
v -0.569185 3.388554 -0.6264927
v -0.6504942 -0.6000002 -0.7254331
v 0.6472873 -0.5999998 -0.72572
v 0.5665482 3.390208 -0.6317575
v -0.569185 3.388554 0.6264936
v -0.6075853 3.388498 0.5880129
v -0.5665107 3.434889 0.5470418
v -0.5281128 3.434945 0.585525
v -0.5281128 3.434945 -0.5855242
v -0.5665107 3.434889 -0.5470409
v -0.6075853 3.388498 -0.588012
v -0.569185 3.388554 -0.6264927
v 0.5654821 3.436553 -0.5521308
v 0.5274655 3.436497 -0.5904901
v 0.5665482 3.390208 -0.6317575
v 0.6045628 3.390263 -0.5933956
v 0.5274653 3.436498 0.5904912
v 0.565482 3.436554 0.5521318
v 0.6045626 3.390263 0.5933967
v 0.566548 3.390208 0.6317587
v -0.6504942 -0.6000002 0.7254341
v -0.6888939 -0.6000002 0.687123
v -0.6075853 3.388498 0.5880129
v -0.569185 3.388554 0.6264936
v -0.569185 3.388554 -0.6264927
v -0.6075853 3.388498 -0.588012
v -0.6888939 -0.6000002 -0.687122
v -0.6504942 -0.6000002 -0.7254331
v 0.6853023 -0.5999998 0.6871914
v 0.6472872 -0.5999998 0.7257211
v 0.566548 3.390208 0.6317587
v 0.6045626 3.390263 0.5933967
v 0.6045628 3.390263 -0.5933956
v 0.5665482 3.390208 -0.6317575
v 0.6472873 -0.5999998 -0.72572
v 0.6853023 -0.5999998 -0.6871903
v -0.6888939 -0.6000002 0.687123
v -0.6504942 -0.6000002 0.7254341
v 0.6472872 -0.5999998 0.7257211
v 0.6853023 -0.5999998 0.6871914
v 0.6853023 -0.5999998 -0.6871903
v -0.6888939 -0.6000002 -0.687122
v -0.6504942 -0.6000002 -0.7254331
v 0.6472873 -0.5999998 -0.72572
v 0.5274653 3.436498 0.5904912
v 0.03473466 3.435773 4.943848E-07
v 0.565482 3.436554 0.5521318
v 0.5654821 3.436553 -0.5521308
v -0.002831913 3.435718 0.03908056
v -0.5281128 3.434945 0.585525
v -0.5665107 3.434889 0.5470418
v -0.00283179 3.435718 -0.03907951
v 0.5274655 3.436497 -0.5904901
v -0.5281128 3.434945 -0.5855242
v -0.0404156 3.435663 4.943848E-07
v -0.5665107 3.434889 -0.5470409
vt 0.06106942 0.856119
vt 0.0621373 0.8570741
vt 0.06231286 0.8370055
vt 0.06120032 0.8379068
vt 0.04157803 0.8567628
vt 0.04066867 0.8578542
vt 0.06131893 0.8578547
vt 0.06041034 0.856791
vt 0.02055503 0.8361337
vt 0.0400692 0.8348396
vt 0.03681643 0.7661739
vt 0.01452021 0.7676826
vt 0.1038577 0.836032
vt 0.1100293 0.7675941
vt 0.08641546 0.7660547
vt 0.08364992 0.8347146
vt 0.06169832 0.8343046
vt 0.0616748 0.7655607
vt 0.03801521 0.7661248
vt 0.04126803 0.8347917
vt 0.04079161 0.8378779
vt 0.03968744 0.8369918
vt 0.03983609 0.8570656
vt 0.04091184 0.8560928
vt 0.06051668 0.8372526
vt 0.06149723 0.8361614
vt 0.04048914 0.8361595
vt 0.04146757 0.8372206
vt 0.0824519 0.8346592
vt 0.08521751 0.7659981
vt 0.0628746 0.7655538
vt 0.06289814 0.8342968
vt 0.03983609 0.8570656
vt 0.04066867 0.8578542
vt 0.04157803 0.8567628
vt 0.04091184 0.8560928
vt 0.06106942 0.856119
vt 0.06041034 0.856791
vt 0.06131893 0.8578547
vt 0.0621373 0.8570741
vt 0.06051668 0.8372526
vt 0.06120032 0.8379068
vt 0.06231286 0.8370055
vt 0.06149723 0.8361614
vt 0.04079161 0.8378779
vt 0.04146757 0.8372206
vt 0.04048914 0.8361595
vt 0.03968744 0.8369918
vt 0.1112244 0.7676948
vt 0.1100293 0.7675941
vt 0.1038577 0.836032
vt 0.1050527 0.8361336
vt 0.0824519 0.8346592
vt 0.08364992 0.8347146
vt 0.08641546 0.7660547
vt 0.08521751 0.7659981
vt 0.03801521 0.7661248
vt 0.03681643 0.7661739
vt 0.0400692 0.8348396
vt 0.04126803 0.8347917
vt 0.06169832 0.8343046
vt 0.06289814 0.8342968
vt 0.0628746 0.7655538
vt 0.0616748 0.7655607
vt 0.0151888 0.8361595
vt 0.01452519 0.8368245
vt 0.01452021 0.8593043
vt 0.01518762 0.8599629
vt 0.03899423 0.8599629
vt 0.03899305 0.8361595
vt 0.03965665 0.8368245
vt 0.03966159 0.8593044
vt 0.04079161 0.8378779
vt 0.0509948 0.8464053
vt 0.04146757 0.8372206
vt 0.06051668 0.8372526
vt 0.05030032 0.8470722
vt 0.04091184 0.8560928
vt 0.04157803 0.8567628
vt 0.05168763 0.8470733
vt 0.06120032 0.8379068
vt 0.06106942 0.856119
vt 0.05099321 0.8477388
vt 0.06041034 0.856791
vn -0.004463343 0.6637454 -0.7479454
vn -0.004463343 0.6637454 -0.7479454
vn -0.004463343 0.6637454 -0.7479454
vn -0.004463343 0.6637454 -0.7479454
vn -0.7487079 0.6629001 0
vn -0.7487079 0.6629001 0
vn -0.7487079 0.6629001 0
vn -0.7487079 0.6629001 0
vn -0.002297254 0.02417008 0.9997051
vn -0.002297254 0.02417008 0.9997051
vn -0.002297254 0.02417008 0.9997051
vn -0.002297254 0.02417008 0.9997051
vn -0.9997923 0.02038154 0
vn -0.9997923 0.02038154 0
vn -0.9997923 0.02038154 0
vn -0.9997923 0.02038154 0
vn 0.9997954 0.02023002 0
vn 0.9997954 0.02023002 0
vn 0.9997954 0.02023002 0
vn 0.9997954 0.02023002 0
vn -0.004463484 0.6637436 0.7479469
vn -0.004463484 0.6637436 0.7479469
vn -0.004463484 0.6637436 0.7479469
vn -0.004463484 0.6637436 0.7479469
vn 0.764102 0.6450953 0
vn 0.764102 0.6450953 0
vn 0.764102 0.6450953 0
vn 0.764102 0.6450953 0
vn -0.00229713 0.02417009 -0.9997051
vn -0.00229713 0.02417009 -0.9997051
vn -0.00229713 0.02417009 -0.9997051
vn -0.00229713 0.02417009 -0.9997051
vn -0.4426608 0.7809942 0.4405672
vn -0.4426608 0.7809942 0.4405672
vn -0.4426608 0.7809942 0.4405672
vn -0.4426608 0.7809942 0.4405672
vn -0.4426613 0.7809936 -0.4405677
vn -0.4426613 0.7809936 -0.4405677
vn -0.4426613 0.7809936 -0.4405677
vn -0.4426613 0.7809936 -0.4405677
vn 0.4481165 0.7752268 -0.4452134
vn 0.4481165 0.7752268 -0.4452134
vn 0.4481165 0.7752268 -0.4452134
vn 0.4481165 0.7752268 -0.4452134
vn 0.448118 0.7752253 0.4452145
vn 0.448118 0.7752253 0.4452145
vn 0.448118 0.7752253 0.4452145
vn 0.448118 0.7752253 0.4452145
vn -0.7067199 0.03195435 0.7067714
vn -0.7067199 0.03195435 0.7067714
vn -0.7067199 0.03195435 0.7067714
vn -0.7067199 0.03195435 0.7067714
vn -0.70672 0.03195437 -0.7067714
vn -0.70672 0.03195437 -0.7067714
vn -0.70672 0.03195437 -0.7067714
vn -0.70672 0.03195437 -0.7067714
vn 0.7107303 0.03091553 0.7027849
vn 0.7107303 0.03091553 0.7027849
vn 0.7107303 0.03091553 0.7027849
vn 0.7107303 0.03091553 0.7027849
vn 0.7107305 0.03091559 -0.7027847
vn 0.7107305 0.03091559 -0.7027847
vn 0.7107305 0.03091559 -0.7027847
vn 0.7107305 0.03091559 -0.7027847
vn 0 -1 0
vn 0 -1 0
vn 0 -1 0
vn 0 -1 0
vn 0 -1 0
vn 0 -1 0
vn 0 -1 0
vn 0 -1 0
vn -0.001470612 0.9999989 0
vn -0.001476479 0.9999989 0
vn -0.001470531 0.9999989 0
vn -0.001469814 0.9999989 0
vn -0.001476479 0.9999989 0
vn -0.001470612 0.9999989 0
vn -0.001470875 0.9999989 0
vn -0.001469853 0.9999989 0
vn -0.001469853 0.9999989 0
vn -0.001469853 0.9999989 0
vn -0.001479677 0.9999989 0
vn -0.001479677 0.9999989 0
g Rock_Square_l_01_0
f 3/3/3 2/2/2 1/1/1
f 4/4/4 3/3/3 1/1/1
f 7/7/7 6/6/6 5/5/5
f 8/8/8 7/7/7 5/5/5
f 11/11/11 10/10/10 9/9/9
f 12/12/12 11/11/11 9/9/9
f 15/15/15 14/14/14 13/13/13
f 16/16/16 15/15/15 13/13/13
f 19/19/19 18/18/18 17/17/17
f 20/20/20 19/19/19 17/17/17
f 23/23/23 22/22/22 21/21/21
f 24/24/24 23/23/23 21/21/21
f 27/27/27 26/26/26 25/25/25
f 28/28/28 27/27/27 25/25/25
f 31/31/31 30/30/30 29/29/29
f 32/32/32 31/31/31 29/29/29
f 35/35/35 34/34/34 33/33/33
f 36/36/36 35/35/35 33/33/33
f 39/39/39 38/38/38 37/37/37
f 40/40/40 39/39/39 37/37/37
f 43/43/43 42/42/42 41/41/41
f 44/44/44 43/43/43 41/41/41
f 47/47/47 46/46/46 45/45/45
f 48/48/48 47/47/47 45/45/45
f 51/51/51 50/50/50 49/49/49
f 52/52/52 51/51/51 49/49/49
f 55/55/55 54/54/54 53/53/53
f 56/56/56 55/55/55 53/53/53
f 59/59/59 58/58/58 57/57/57
f 60/60/60 59/59/59 57/57/57
f 63/63/63 62/62/62 61/61/61
f 64/64/64 63/63/63 61/61/61
f 67/67/67 66/66/66 65/65/65
f 68/68/68 67/67/67 65/65/65
f 69/69/69 68/68/68 65/65/65
f 70/70/70 69/69/69 65/65/65
f 69/69/69 70/70/70 71/71/71
f 72/72/72 69/69/69 71/71/71
f 75/75/75 74/74/74 73/73/73
f 76/76/76 74/74/74 75/75/75
f 74/74/74 77/77/77 73/73/73
f 73/73/73 77/77/77 78/78/78
f 78/78/78 77/77/77 79/79/79
f 80/80/80 74/74/74 76/76/76
f 74/74/74 80/80/80 77/77/77
f 81/81/81 80/80/80 76/76/76
f 81/81/81 82/82/82 80/80/80
f 77/77/77 83/83/83 79/79/79
f 80/80/80 83/83/83 77/77/77
f 80/80/80 82/82/82 83/83/83
f 83/83/83 84/84/84 79/79/79
f 82/82/82 84/84/84 83/83/83
