g rock
v -0.1447846 -0.006723747 0.02196422
v -0.1244639 0.01359689 0.02196422
v -0.1244639 -0.006723747 0.04198603
v -0.08412148 0.01359689 0.02196422
v -0.06409967 -0.006723747 0.02196422
v -0.08412148 -0.006723747 0.04198603
v -0.1447846 -0.006723747 -0.01837823
v -0.1244639 -0.006723747 -0.03869887
v -0.1244639 0.01359689 -0.01837823
v -0.08412148 -0.006723747 -0.03869887
v -0.06409967 -0.006723747 -0.01837823
v -0.08412148 0.01359689 -0.01837823
v -0.001045913 -0.01359691 0.1528531
v 0.01210274 0.007022575 0.1370149
v 0.02794088 -0.01359691 0.1501636
v 0.03840004 0.007022575 0.1056375
v 0.05124985 -0.01359691 0.09009814
v 0.05393936 -0.01359691 0.1187861
v -0.03242338 -0.01359691 0.1265558
v -0.03511287 -0.01359691 0.09786779
v -0.01927473 0.007022575 0.1110165
v -0.008815572 -0.01359691 0.06649034
v 0.0198724 -0.01359691 0.06380084
v 0.006723747 0.007022575 0.07963899
v 0.101155 -0.01060857 0.1140048
v 0.1113153 0.005827248 0.1014538
v 0.1238663 -0.01060857 0.111913
v 0.1322336 0.005827248 0.07665066
v 0.1426927 -0.01060857 0.06409967
v 0.1447846 -0.01060857 0.08681098
v 0.07605299 -0.01060857 0.09308647
v 0.07396116 -0.01060857 0.07037516
v 0.08651215 0.005827248 0.08083431
v 0.09487948 -0.01060857 0.0452732
v 0.1175908 -0.01060857 0.04318136
v 0.1071316 0.005827248 0.05573235
v 0.003735408 -0.009413242 -0.1008561
v 0.02106772 0.007919073 -0.1008561
v 0.02106772 -0.009413242 -0.08352382
v 0.05573235 0.007919073 -0.1008561
v 0.07306466 -0.009413242 -0.1008561
v 0.05573235 -0.009413242 -0.08352382
v 0.003735408 -0.009413242 -0.1355208
v 0.02106772 -0.009413242 -0.1528531
v 0.02106772 0.007919073 -0.1355208
v 0.05573235 -0.009413242 -0.1528531
v 0.07306466 -0.009413242 -0.1355208
v 0.05573235 0.007919073 -0.1355208
v -0.08920164 -0.01060857 -0.07545533
v -0.07874249 0.005827248 -0.08800632
v -0.06649034 -0.01060857 -0.07754716
v -0.05812301 0.005827248 -0.1131083
v -0.04766385 -0.01060857 -0.1256593
v -0.04557203 -0.01060857 -0.1026491
v -0.1143036 -0.01060857 -0.09637363
v -0.1163954 -0.01060857 -0.1193838
v -0.1038445 0.005827248 -0.1089246
v -0.09547713 -0.01060857 -0.1441869
v -0.07276583 -0.01060857 -0.1462787
v -0.08292615 0.005827248 -0.1337278
v -0.1447846 -0.006723747 0.02196422
v -0.1447846 -0.006723747 -0.01837823
v -0.1244639 0.01359689 -0.01837823
v -0.1244639 0.01359689 0.02196422
v -0.1244639 0.01359689 0.02196422
v -0.08412148 0.01359689 0.02196422
v -0.08412148 -0.006723747 0.04198603
v -0.1244639 -0.006723747 0.04198603
v -0.08412148 0.01359689 0.02196422
v -0.08412148 0.01359689 -0.01837823
v -0.06409967 -0.006723747 -0.01837823
v -0.06409967 -0.006723747 0.02196422
v -0.1244639 -0.006723747 -0.03869887
v -0.08412148 -0.006723747 -0.03869887
v -0.08412148 0.01359689 -0.01837823
v -0.1244639 0.01359689 -0.01837823
v -0.1244639 0.01359689 0.02196422
v -0.1244639 0.01359689 -0.01837823
v -0.08412148 0.01359689 -0.01837823
v -0.08412148 0.01359689 0.02196422
v -0.001045913 -0.01359691 0.1528531
v -0.03242338 -0.01359691 0.1265558
v -0.01927473 0.007022575 0.1110165
v 0.01210274 0.007022575 0.1370149
v 0.01210274 0.007022575 0.1370149
v 0.03840004 0.007022575 0.1056375
v 0.05393936 -0.01359691 0.1187861
v 0.02794088 -0.01359691 0.1501636
v 0.03840004 0.007022575 0.1056375
v 0.006723747 0.007022575 0.07963899
v 0.0198724 -0.01359691 0.06380084
v 0.05124985 -0.01359691 0.09009814
v -0.03511287 -0.01359691 0.09786779
v -0.008815572 -0.01359691 0.06649034
v 0.006723747 0.007022575 0.07963899
v -0.01927473 0.007022575 0.1110165
v 0.01210274 0.007022575 0.1370149
v -0.01927473 0.007022575 0.1110165
v 0.006723747 0.007022575 0.07963899
v 0.03840004 0.007022575 0.1056375
v 0.101155 -0.01060857 0.1140048
v 0.07605299 -0.01060857 0.09308647
v 0.08651215 0.005827248 0.08083431
v 0.1113153 0.005827248 0.1014538
v 0.1113153 0.005827248 0.1014538
v 0.1322336 0.005827248 0.07665066
v 0.1447846 -0.01060857 0.08681098
v 0.1238663 -0.01060857 0.111913
v 0.1322336 0.005827248 0.07665066
v 0.1071316 0.005827248 0.05573235
v 0.1175908 -0.01060857 0.04318136
v 0.1426927 -0.01060857 0.06409967
v 0.07396116 -0.01060857 0.07037516
v 0.09487948 -0.01060857 0.0452732
v 0.1071316 0.005827248 0.05573235
v 0.08651215 0.005827248 0.08083431
v 0.1113153 0.005827248 0.1014538
v 0.08651215 0.005827248 0.08083431
v 0.1071316 0.005827248 0.05573235
v 0.1322336 0.005827248 0.07665066
v 0.003735408 -0.009413242 -0.1008561
v 0.003735408 -0.009413242 -0.1355208
v 0.02106772 0.007919073 -0.1355208
v 0.02106772 0.007919073 -0.1008561
v 0.02106772 0.007919073 -0.1008561
v 0.05573235 0.007919073 -0.1008561
v 0.05573235 -0.009413242 -0.08352382
v 0.02106772 -0.009413242 -0.08352382
v 0.05573235 0.007919073 -0.1008561
v 0.05573235 0.007919073 -0.1355208
v 0.07306466 -0.009413242 -0.1355208
v 0.07306466 -0.009413242 -0.1008561
v 0.02106772 -0.009413242 -0.1528531
v 0.05573235 -0.009413242 -0.1528531
v 0.05573235 0.007919073 -0.1355208
v 0.02106772 0.007919073 -0.1355208
v 0.02106772 0.007919073 -0.1008561
v 0.02106772 0.007919073 -0.1355208
v 0.05573235 0.007919073 -0.1355208
v 0.05573235 0.007919073 -0.1008561
v -0.08920164 -0.01060857 -0.07545533
v -0.1143036 -0.01060857 -0.09637363
v -0.1038445 0.005827248 -0.1089246
v -0.07874249 0.005827248 -0.08800632
v -0.07874249 0.005827248 -0.08800632
v -0.05812301 0.005827248 -0.1131083
v -0.04557203 -0.01060857 -0.1026491
v -0.06649034 -0.01060857 -0.07754716
v -0.05812301 0.005827248 -0.1131083
v -0.08292615 0.005827248 -0.1337278
v -0.07276583 -0.01060857 -0.1462787
v -0.04766385 -0.01060857 -0.1256593
v -0.1163954 -0.01060857 -0.1193838
v -0.09547713 -0.01060857 -0.1441869
v -0.08292615 0.005827248 -0.1337278
v -0.1038445 0.005827248 -0.1089246
v -0.07874249 0.005827248 -0.08800632
v -0.1038445 0.005827248 -0.1089246
v -0.08292615 0.005827248 -0.1337278
v -0.05812301 0.005827248 -0.1131083
vt 0.7254577 0.8523293
vt 0.7254577 0.9017876
vt 0.721157 0.8523293
vt 0.7254577 0.9017876
vt 0.7254577 0.8523293
vt 0.721157 0.8523293
vt 0.7340592 0.8523293
vt 0.7383599 0.8523293
vt 0.7340592 0.9017876
vt 0.7383599 0.8523293
vt 0.7340592 0.8523293
vt 0.7340592 0.9017876
vt 0.7190067 0.8516124
vt 0.7225906 0.9017876
vt 0.7197235 0.8516124
vt 0.7290417 0.9017876
vt 0.7326256 0.8516124
vt 0.7261745 0.8516124
vt 0.724741 0.8516124
vt 0.7311921 0.8516124
vt 0.7283249 0.9017876
vt 0.7376431 0.8516124
vt 0.7383599 0.8516124
vt 0.734776 0.9017876
vt 0.7276081 0.8594971
vt 0.7297585 0.8989205
vt 0.7276081 0.8594971
vt 0.7354928 0.8989205
vt 0.7383599 0.8594971
vt 0.7333424 0.8594971
vt 0.7319089 0.8594971
vt 0.7369264 0.8594971
vt 0.734776 0.8989205
vt 0.7419439 0.8594971
vt 0.7426606 0.8594971
vt 0.7397935 0.8989205
vt 0.7276081 0.8573468
vt 0.7276081 0.8996373
vt 0.7240242 0.8573468
vt 0.7276081 0.8996373
vt 0.7276081 0.8573468
vt 0.7240242 0.8573468
vt 0.7354928 0.8573468
vt 0.7390767 0.8573468
vt 0.7354928 0.8996373
vt 0.7390767 0.8573468
vt 0.7354928 0.8573468
vt 0.7354928 0.8996373
vt 0.7225906 0.8544796
vt 0.724741 0.8946198
vt 0.7225906 0.8544796
vt 0.7304752 0.8946198
vt 0.7333424 0.8544796
vt 0.7283249 0.8544796
vt 0.7268913 0.8544796
vt 0.7319089 0.8544796
vt 0.7297585 0.8946198
vt 0.7369264 0.8544796
vt 0.7376431 0.8544796
vt 0.734776 0.8946198
vt 0.7254577 0.8523293
vt 0.7340592 0.8523293
vt 0.7340592 0.9017876
vt 0.7254577 0.9017876
vt 0.7254577 0.9017876
vt 0.7254577 0.9017876
vt 0.721157 0.8523293
vt 0.721157 0.8523293
vt 0.7254577 0.9017876
vt 0.7340592 0.9017876
vt 0.7340592 0.8523293
vt 0.7254577 0.8523293
vt 0.7383599 0.8523293
vt 0.7383599 0.8523293
vt 0.7340592 0.9017876
vt 0.7340592 0.9017876
vt 0.7254577 0.9017876
vt 0.7340592 0.9017876
vt 0.7340592 0.9017876
vt 0.7254577 0.9017876
vt 0.7190067 0.8516124
vt 0.724741 0.8516124
vt 0.7283249 0.9017876
vt 0.7225906 0.9017876
vt 0.7225906 0.9017876
vt 0.7290417 0.9017876
vt 0.7261745 0.8516124
vt 0.7197235 0.8516124
vt 0.7290417 0.9017876
vt 0.734776 0.9017876
vt 0.7383599 0.8516124
vt 0.7326256 0.8516124
vt 0.7311921 0.8516124
vt 0.7376431 0.8516124
vt 0.734776 0.9017876
vt 0.7283249 0.9017876
vt 0.7225906 0.9017876
vt 0.7283249 0.9017876
vt 0.734776 0.9017876
vt 0.7290417 0.9017876
vt 0.7276081 0.8594971
vt 0.7319089 0.8594971
vt 0.734776 0.8989205
vt 0.7297585 0.8989205
vt 0.7297585 0.8989205
vt 0.7354928 0.8989205
vt 0.7333424 0.8594971
vt 0.7276081 0.8594971
vt 0.7354928 0.8989205
vt 0.7397935 0.8989205
vt 0.7426606 0.8594971
vt 0.7383599 0.8594971
vt 0.7369264 0.8594971
vt 0.7419439 0.8594971
vt 0.7397935 0.8989205
vt 0.734776 0.8989205
vt 0.7297585 0.8989205
vt 0.734776 0.8989205
vt 0.7397935 0.8989205
vt 0.7354928 0.8989205
vt 0.7276081 0.8573468
vt 0.7354928 0.8573468
vt 0.7354928 0.8996373
vt 0.7276081 0.8996373
vt 0.7276081 0.8996373
vt 0.7276081 0.8996373
vt 0.7240242 0.8573468
vt 0.7240242 0.8573468
vt 0.7276081 0.8996373
vt 0.7354928 0.8996373
vt 0.7354928 0.8573468
vt 0.7276081 0.8573468
vt 0.7390767 0.8573468
vt 0.7390767 0.8573468
vt 0.7354928 0.8996373
vt 0.7354928 0.8996373
vt 0.7276081 0.8996373
vt 0.7354928 0.8996373
vt 0.7354928 0.8996373
vt 0.7276081 0.8996373
vt 0.7225906 0.8544796
vt 0.7268913 0.8544796
vt 0.7297585 0.8946198
vt 0.724741 0.8946198
vt 0.724741 0.8946198
vt 0.7304752 0.8946198
vt 0.7283249 0.8544796
vt 0.7225906 0.8544796
vt 0.7304752 0.8946198
vt 0.734776 0.8946198
vt 0.7376431 0.8544796
vt 0.7333424 0.8544796
vt 0.7319089 0.8544796
vt 0.7369264 0.8544796
vt 0.734776 0.8946198
vt 0.7297585 0.8946198
vt 0.724741 0.8946198
vt 0.7297585 0.8946198
vt 0.734776 0.8946198
vt 0.7304752 0.8946198
vn -0.5682825 0.5682825 0.5950714
vn -0.5682825 0.5682825 0.5950714
vn -0.5682825 0.5682825 0.5950714
vn 0.5828929 0.5682825 0.5807675
vn 0.5828929 0.5682825 0.5807675
vn 0.5828929 0.5682825 0.5807675
vn -0.5682825 0.5682825 -0.5950714
vn -0.5682825 0.5682825 -0.5950714
vn -0.5682825 0.5682825 -0.5950714
vn 0.5828929 0.5682825 -0.5807675
vn 0.5828929 0.5682825 -0.5807675
vn 0.5828929 0.5682825 -0.5807675
vn 0.06486398 0.5682825 0.820273
vn 0.06486398 0.5682825 0.820273
vn 0.06486398 0.5682825 0.820273
vn 0.813128 0.5682825 -0.1260074
vn 0.813128 0.5682825 -0.1260074
vn 0.813128 0.5682825 -0.1260074
vn -0.8242671 0.5662012 0
vn -0.8242671 0.5662012 0
vn -0.8242671 0.5662012 0
vn -0.07903296 0.5682825 -0.8190292
vn -0.07903296 0.5682825 -0.8190292
vn -0.07903296 0.5682825 -0.8190292
vn 0.06486398 0.5682825 0.820273
vn 0.06486398 0.5682825 0.820273
vn 0.06486398 0.5682825 0.820273
vn 0.813128 0.5682825 -0.1260074
vn 0.813128 0.5682825 -0.1260074
vn 0.813128 0.5682825 -0.1260074
vn -0.8242671 0.5662012 0
vn -0.8242671 0.5662012 0
vn -0.8242671 0.5662012 0
vn -0.07903296 0.5682825 -0.8190292
vn -0.07903296 0.5682825 -0.8190292
vn -0.07903296 0.5682825 -0.8190292
vn -0.5682825 0.5682825 0.5950714
vn -0.5682825 0.5682825 0.5950714
vn -0.5682825 0.5682825 0.5950714
vn 0.5828929 0.5682825 0.5807675
vn 0.5828929 0.5682825 0.5807675
vn 0.5828929 0.5682825 0.5807675
vn -0.5682825 0.5682825 -0.5950714
vn -0.5682825 0.5682825 -0.5950714
vn -0.5682825 0.5682825 -0.5950714
vn 0.5828929 0.5682825 -0.5807675
vn 0.5828929 0.5682825 -0.5807675
vn 0.5828929 0.5682825 -0.5807675
vn 0.06486398 0.5682825 0.820273
vn 0.06486398 0.5682825 0.820273
vn 0.06486398 0.5682825 0.820273
vn 0.813128 0.5682825 -0.1260074
vn 0.813128 0.5682825 -0.1260074
vn 0.813128 0.5682825 -0.1260074
vn -0.8242671 0.5662012 0
vn -0.8242671 0.5662012 0
vn -0.8242671 0.5662012 0
vn -0.07903296 0.5682825 -0.8190292
vn -0.07903296 0.5682825 -0.8190292
vn -0.07903296 0.5682825 -0.8190292
vn -0.7071068 0.7071068 0
vn -0.7071068 0.7071068 0
vn -0.7071068 0.7071068 0
vn -0.7071068 0.7071068 0
vn 0.007305205 0.7121794 0.7019595
vn 0.007305205 0.7121794 0.7019595
vn 0.007305205 0.7121794 0.7019595
vn 0.007305205 0.7121794 0.7019595
vn 0.6980104 0.7121794 -0.07471181
vn 0.6980104 0.7121794 -0.07471181
vn 0.6980104 0.7121794 -0.07471181
vn 0.6980104 0.7121794 -0.07471181
vn 0.007305205 0.7121794 -0.7019595
vn 0.007305205 0.7121794 -0.7019595
vn 0.007305205 0.7121794 -0.7019595
vn 0.007305205 0.7121794 -0.7019595
vn 0.007305205 0.9999733 -0.0002441406
vn 0.007305205 0.9999733 -0.0002441406
vn 0.007305205 0.9999733 -0.0002441406
vn 0.007305205 0.9999733 -0.0002441406
vn -0.4531649 0.7121794 0.5361362
vn -0.4531649 0.7121794 0.5361362
vn -0.4531649 0.7121794 0.5361362
vn -0.4531649 0.7121794 0.5361362
vn 0.5541135 0.7121794 0.4309973
vn 0.5541135 0.7121794 0.4309973
vn 0.5541135 0.7121794 0.4309973
vn 0.5541135 0.7121794 0.4309973
vn 0.438996 0.7121794 -0.5477983
vn 0.438996 0.7121794 -0.5477983
vn 0.438996 0.7121794 -0.5477983
vn 0.438996 0.7121794 -0.5477983
vn -0.5395031 0.7121794 -0.4491513
vn -0.5395031 0.7121794 -0.4491513
vn -0.5395031 0.7121794 -0.4491513
vn -0.5395031 0.7121794 -0.4491513
vn 0.007305205 0.9999733 -0.0002441406
vn 0.007305205 0.9999733 -0.0002441406
vn 0.007305205 0.9999733 -0.0002441406
vn 0.007305205 0.9999733 -0.0002441406
vn -0.4531649 0.7121794 0.5361362
vn -0.4531649 0.7121794 0.5361362
vn -0.4531649 0.7121794 0.5361362
vn -0.4531649 0.7121794 0.5361362
vn 0.5541135 0.7121794 0.4309973
vn 0.5541135 0.7121794 0.4309973
vn 0.5541135 0.7121794 0.4309973
vn 0.5541135 0.7121794 0.4309973
vn 0.438996 0.7121794 -0.5477983
vn 0.438996 0.7121794 -0.5477983
vn 0.438996 0.7121794 -0.5477983
vn 0.438996 0.7121794 -0.5477983
vn -0.5395031 0.7121794 -0.4491513
vn -0.5395031 0.7121794 -0.4491513
vn -0.5395031 0.7121794 -0.4491513
vn -0.5395031 0.7121794 -0.4491513
vn 0.007305205 0.9999733 -0.0002441406
vn 0.007305205 0.9999733 -0.0002441406
vn 0.007305205 0.9999733 -0.0002441406
vn 0.007305205 0.9999733 -0.0002441406
vn -0.7071068 0.7071068 0
vn -0.7071068 0.7071068 0
vn -0.7071068 0.7071068 0
vn -0.7071068 0.7071068 0
vn 0.007305205 0.7121794 0.7019595
vn 0.007305205 0.7121794 0.7019595
vn 0.007305205 0.7121794 0.7019595
vn 0.007305205 0.7121794 0.7019595
vn 0.6980104 0.7121794 -0.07471181
vn 0.6980104 0.7121794 -0.07471181
vn 0.6980104 0.7121794 -0.07471181
vn 0.6980104 0.7121794 -0.07471181
vn 0.007305205 0.7121794 -0.7019595
vn 0.007305205 0.7121794 -0.7019595
vn 0.007305205 0.7121794 -0.7019595
vn 0.007305205 0.7121794 -0.7019595
vn 0.007305205 0.9999733 -0.0002441406
vn 0.007305205 0.9999733 -0.0002441406
vn 0.007305205 0.9999733 -0.0002441406
vn 0.007305205 0.9999733 -0.0002441406
vn -0.4531649 0.7121794 0.5361362
vn -0.4531649 0.7121794 0.5361362
vn -0.4531649 0.7121794 0.5361362
vn -0.4531649 0.7121794 0.5361362
vn 0.5541135 0.7121794 0.4309973
vn 0.5541135 0.7121794 0.4309973
vn 0.5541135 0.7121794 0.4309973
vn 0.5541135 0.7121794 0.4309973
vn 0.438996 0.7121794 -0.5477983
vn 0.438996 0.7121794 -0.5477983
vn 0.438996 0.7121794 -0.5477983
vn 0.438996 0.7121794 -0.5477983
vn -0.5395031 0.7121794 -0.4491513
vn -0.5395031 0.7121794 -0.4491513
vn -0.5395031 0.7121794 -0.4491513
vn -0.5395031 0.7121794 -0.4491513
vn 0.007305205 0.9999733 -0.0002441406
vn 0.007305205 0.9999733 -0.0002441406
vn 0.007305205 0.9999733 -0.0002441406
vn 0.007305205 0.9999733 -0.0002441406
g rock_0
f 3/3/3 2/2/2 1/1/1
f 6/6/6 5/5/5 4/4/4
f 9/9/9 8/8/8 7/7/7
f 12/12/12 11/11/11 10/10/10
f 15/15/15 14/14/14 13/13/13
f 18/18/18 17/17/17 16/16/16
f 21/21/21 20/20/20 19/19/19
f 24/24/24 23/23/23 22/22/22
f 27/27/27 26/26/26 25/25/25
f 30/30/30 29/29/29 28/28/28
f 33/33/33 32/32/32 31/31/31
f 36/36/36 35/35/35 34/34/34
f 39/39/39 38/38/38 37/37/37
f 42/42/42 41/41/41 40/40/40
f 45/45/45 44/44/44 43/43/43
f 48/48/48 47/47/47 46/46/46
f 51/51/51 50/50/50 49/49/49
f 54/54/54 53/53/53 52/52/52
f 57/57/57 56/56/56 55/55/55
f 60/60/60 59/59/59 58/58/58
f 63/63/63 62/62/62 61/61/61
f 64/64/64 63/63/63 61/61/61
f 67/67/67 66/66/66 65/65/65
f 68/68/68 67/67/67 65/65/65
f 71/71/71 70/70/70 69/69/69
f 72/72/72 71/71/71 69/69/69
f 75/75/75 74/74/74 73/73/73
f 76/76/76 75/75/75 73/73/73
f 79/79/79 78/78/78 77/77/77
f 80/80/80 79/79/79 77/77/77
f 83/83/83 82/82/82 81/81/81
f 84/84/84 83/83/83 81/81/81
f 87/87/87 86/86/86 85/85/85
f 88/88/88 87/87/87 85/85/85
f 91/91/91 90/90/90 89/89/89
f 92/92/92 91/91/91 89/89/89
f 95/95/95 94/94/94 93/93/93
f 96/96/96 95/95/95 93/93/93
f 99/99/99 98/98/98 97/97/97
f 100/100/100 99/99/99 97/97/97
f 103/103/103 102/102/102 101/101/101
f 104/104/104 103/103/103 101/101/101
f 107/107/107 106/106/106 105/105/105
f 108/108/108 107/107/107 105/105/105
f 111/111/111 110/110/110 109/109/109
f 112/112/112 111/111/111 109/109/109
f 115/115/115 114/114/114 113/113/113
f 116/116/116 115/115/115 113/113/113
f 119/119/119 118/118/118 117/117/117
f 120/120/120 119/119/119 117/117/117
f 123/123/123 122/122/122 121/121/121
f 124/124/124 123/123/123 121/121/121
f 127/127/127 126/126/126 125/125/125
f 128/128/128 127/127/127 125/125/125
f 131/131/131 130/130/130 129/129/129
f 132/132/132 131/131/131 129/129/129
f 135/135/135 134/134/134 133/133/133
f 136/136/136 135/135/135 133/133/133
f 139/139/139 138/138/138 137/137/137
f 140/140/140 139/139/139 137/137/137
f 143/143/143 142/142/142 141/141/141
f 144/144/144 143/143/143 141/141/141
f 147/147/147 146/146/146 145/145/145
f 148/148/148 147/147/147 145/145/145
f 151/151/151 150/150/150 149/149/149
f 152/152/152 151/151/151 149/149/149
f 155/155/155 154/154/154 153/153/153
f 156/156/156 155/155/155 153/153/153
f 159/159/159 158/158/158 157/157/157
f 160/160/160 159/159/159 157/157/157
