g rock
v -0.1270925 -0.01125723 -0.06607506
v -0.1205666 -0.00114204 -0.07390618
v -0.1127355 -0.01125723 -0.06738024
v -0.107841 -0.00114204 -0.08924212
v -0.1013151 -0.01125723 -0.09707323
v -0.1000099 -0.01125723 -0.08271618
v -0.1424285 -0.01125723 -0.07912692
v -0.1437337 -0.01125723 -0.09315768
v -0.1359025 -0.00114204 -0.08663175
v -0.1310081 -0.01125723 -0.1084936
v -0.116651 -0.01125723 -0.1097988
v -0.123177 -0.00114204 -0.102294
v 0.06640135 -0.007667959 0.1669007
v 0.07455877 0.005383894 0.1567855
v 0.08467396 -0.007667959 0.1652692
v 0.0915262 0.005383894 0.1368814
v 0.09968361 -0.007667959 0.1267662
v 0.1013151 -0.007667959 0.1450389
v 0.04617096 -0.007667959 0.1502596
v 0.04453948 -0.007667959 0.131987
v 0.05465468 0.005383894 0.1401444
v 0.06118061 -0.007667959 0.1117566
v 0.07977951 -0.007667959 0.1101251
v 0.07129581 0.005383894 0.1202403
v 0.07619026 -0.005383894 -0.1163247
v 0.09315768 0.01125723 -0.1163247
v 0.09315768 -0.005383894 -0.09935731
v 0.1267662 0.01125723 -0.1163247
v 0.1437337 -0.005383894 -0.1163247
v 0.1267662 -0.005383894 -0.09935731
v 0.07619026 -0.005383894 -0.1499333
v 0.09315768 -0.005383894 -0.1669007
v 0.09315768 0.01125723 -0.1499333
v 0.1267662 -0.005383894 -0.1669007
v 0.1437337 -0.005383894 -0.1499333
v 0.1267662 0.01125723 -0.1499333
v -0.1270925 -0.01125723 -0.06607506
v -0.1424285 -0.01125723 -0.07912692
v -0.1359025 -0.00114204 -0.08663175
v -0.1205666 -0.00114204 -0.07390618
v -0.1205666 -0.00114204 -0.07390618
v -0.107841 -0.00114204 -0.08924212
v -0.1000099 -0.01125723 -0.08271618
v -0.1127355 -0.01125723 -0.06738024
v -0.107841 -0.00114204 -0.08924212
v -0.123177 -0.00114204 -0.102294
v -0.116651 -0.01125723 -0.1097988
v -0.1013151 -0.01125723 -0.09707323
v -0.1437337 -0.01125723 -0.09315768
v -0.1310081 -0.01125723 -0.1084936
v -0.123177 -0.00114204 -0.102294
v -0.1359025 -0.00114204 -0.08663175
v -0.1205666 -0.00114204 -0.07390618
v -0.1359025 -0.00114204 -0.08663175
v -0.123177 -0.00114204 -0.102294
v -0.107841 -0.00114204 -0.08924212
v 0.06640135 -0.007667959 0.1669007
v 0.04617096 -0.007667959 0.1502596
v 0.05465468 0.005383894 0.1401444
v 0.07455877 0.005383894 0.1567855
v 0.07455877 0.005383894 0.1567855
v 0.0915262 0.005383894 0.1368814
v 0.1013151 -0.007667959 0.1450389
v 0.08467396 -0.007667959 0.1652692
v 0.0915262 0.005383894 0.1368814
v 0.07129581 0.005383894 0.1202403
v 0.07977951 -0.007667959 0.1101251
v 0.09968361 -0.007667959 0.1267662
v 0.04453948 -0.007667959 0.131987
v 0.06118061 -0.007667959 0.1117566
v 0.07129581 0.005383894 0.1202403
v 0.05465468 0.005383894 0.1401444
v 0.07455877 0.005383894 0.1567855
v 0.05465468 0.005383894 0.1401444
v 0.07129581 0.005383894 0.1202403
v 0.0915262 0.005383894 0.1368814
v 0.07619026 -0.005383894 -0.1163247
v 0.07619026 -0.005383894 -0.1499333
v 0.09315768 0.01125723 -0.1499333
v 0.09315768 0.01125723 -0.1163247
v 0.09315768 0.01125723 -0.1163247
v 0.1267662 0.01125723 -0.1163247
v 0.1267662 -0.005383894 -0.09935731
v 0.09315768 -0.005383894 -0.09935731
v 0.1267662 0.01125723 -0.1163247
v 0.1267662 0.01125723 -0.1499333
v 0.1437337 -0.005383894 -0.1499333
v 0.1437337 -0.005383894 -0.1163247
v 0.09315768 -0.005383894 -0.1669007
v 0.1267662 -0.005383894 -0.1669007
v 0.1267662 0.01125723 -0.1499333
v 0.09315768 0.01125723 -0.1499333
v 0.09315768 0.01125723 -0.1163247
v 0.09315768 0.01125723 -0.1499333
v 0.1267662 0.01125723 -0.1499333
v 0.1267662 0.01125723 -0.1163247
vt 0.7151042 0.8637773
vt 0.7265406 0.874499
vt 0.7265406 0.8637773
vt 0.737977 0.874499
vt 0.7486986 0.8637773
vt 0.737977 0.8637773
vt 0.7208223 0.8859354
vt 0.7265406 0.8973718
vt 0.7265406 0.8859354
vt 0.737977 0.8973718
vt 0.7436951 0.8859354
vt 0.737977 0.8859354
vt 0.7151042 0.8637773
vt 0.7265406 0.874499
vt 0.7265406 0.8637773
vt 0.737977 0.874499
vt 0.7486986 0.8637773
vt 0.737977 0.8637773
vt 0.7208223 0.8859354
vt 0.7265406 0.8973718
vt 0.7265406 0.8859354
vt 0.737977 0.8973718
vt 0.7436951 0.8859354
vt 0.737977 0.8859354
vt 0.7151042 0.8637773
vt 0.7265406 0.874499
vt 0.7265406 0.8637773
vt 0.737977 0.874499
vt 0.7486986 0.8637773
vt 0.737977 0.8637773
vt 0.7208223 0.8859354
vt 0.7265406 0.8973718
vt 0.7265406 0.8859354
vt 0.737977 0.8973718
vt 0.7436951 0.8859354
vt 0.737977 0.8859354
vt 0.7208223 0.874499
vt 0.7208223 0.8859354
vt 0.7265406 0.8859354
vt 0.7265406 0.874499
vt 0.7265406 0.874499
vt 0.737977 0.874499
vt 0.737977 0.8637773
vt 0.7265406 0.8637773
vt 0.737977 0.874499
vt 0.737977 0.8859354
vt 0.7436951 0.8859354
vt 0.7436951 0.874499
vt 0.7265406 0.8973718
vt 0.737977 0.8973718
vt 0.737977 0.8859354
vt 0.7265406 0.8859354
vt 0.7265406 0.874499
vt 0.7265406 0.8859354
vt 0.737977 0.8859354
vt 0.737977 0.874499
vt 0.7208223 0.874499
vt 0.7208223 0.8859354
vt 0.7265406 0.8859354
vt 0.7265406 0.874499
vt 0.7265406 0.874499
vt 0.737977 0.874499
vt 0.737977 0.8637773
vt 0.7265406 0.8637773
vt 0.737977 0.874499
vt 0.737977 0.8859354
vt 0.7436951 0.8859354
vt 0.7436951 0.874499
vt 0.7265406 0.8973718
vt 0.737977 0.8973718
vt 0.737977 0.8859354
vt 0.7265406 0.8859354
vt 0.7265406 0.874499
vt 0.7265406 0.8859354
vt 0.737977 0.8859354
vt 0.737977 0.874499
vt 0.7208223 0.874499
vt 0.7208223 0.8859354
vt 0.7265406 0.8859354
vt 0.7265406 0.874499
vt 0.7265406 0.874499
vt 0.737977 0.874499
vt 0.737977 0.8637773
vt 0.7265406 0.8637773
vt 0.737977 0.874499
vt 0.737977 0.8859354
vt 0.7436951 0.8859354
vt 0.7436951 0.874499
vt 0.7265406 0.8973718
vt 0.737977 0.8973718
vt 0.737977 0.8859354
vt 0.7265406 0.8859354
vt 0.7265406 0.874499
vt 0.7265406 0.8859354
vt 0.737977 0.8859354
vt 0.737977 0.874499
vn 0.06486374 0.5682827 0.8202728
vn 0.06486374 0.5682827 0.8202728
vn 0.06486374 0.5682827 0.8202728
vn 0.8131277 0.5682827 -0.1260087
vn 0.8131277 0.5682827 -0.1260087
vn 0.8131277 0.5682827 -0.1260087
vn -0.8242671 0.5662013 0
vn -0.8242671 0.5662013 0
vn -0.8242671 0.5662013 0
vn -0.07903314 0.5682827 -0.8190291
vn -0.07903314 0.5682827 -0.8190291
vn -0.07903314 0.5682827 -0.8190291
vn 0.06486374 0.5682827 0.8202728
vn 0.06486374 0.5682827 0.8202728
vn 0.06486374 0.5682827 0.8202728
vn 0.8131277 0.5682827 -0.1260087
vn 0.8131277 0.5682827 -0.1260087
vn 0.8131277 0.5682827 -0.1260087
vn -0.8242671 0.5662013 0
vn -0.8242671 0.5662013 0
vn -0.8242671 0.5662013 0
vn -0.07903314 0.5682827 -0.8190291
vn -0.07903314 0.5682827 -0.8190291
vn -0.07903314 0.5682827 -0.8190291
vn -0.5682827 0.5682827 0.5950711
vn -0.5682827 0.5682827 0.5950711
vn -0.5682827 0.5682827 0.5950711
vn 0.5828927 0.5682827 0.5807676
vn 0.5828927 0.5682827 0.5807676
vn 0.5828927 0.5682827 0.5807676
vn -0.5682827 0.5682827 -0.5950711
vn -0.5682827 0.5682827 -0.5950711
vn -0.5682827 0.5682827 -0.5950711
vn 0.5828927 0.5682827 -0.5807676
vn 0.5828927 0.5682827 -0.5807676
vn 0.5828927 0.5682827 -0.5807676
vn -0.4531651 0.7121796 0.5361358
vn -0.4531651 0.7121796 0.5361358
vn -0.4531651 0.7121796 0.5361358
vn -0.4531651 0.7121796 0.5361358
vn 0.5541133 0.7121796 0.4309973
vn 0.5541133 0.7121796 0.4309973
vn 0.5541133 0.7121796 0.4309973
vn 0.5541133 0.7121796 0.4309973
vn 0.4389957 0.7121796 -0.5477983
vn 0.4389957 0.7121796 -0.5477983
vn 0.4389957 0.7121796 -0.5477983
vn 0.4389957 0.7121796 -0.5477983
vn -0.5395033 0.7121796 -0.4491508
vn -0.5395033 0.7121796 -0.4491508
vn -0.5395033 0.7121796 -0.4491508
vn -0.5395033 0.7121796 -0.4491508
vn 0.007304966 0.9999734 0
vn 0.007304966 0.9999734 0
vn 0.007304966 0.9999734 0
vn 0.007304966 0.9999734 0
vn -0.4531651 0.7121796 0.5361358
vn -0.4531651 0.7121796 0.5361358
vn -0.4531651 0.7121796 0.5361358
vn -0.4531651 0.7121796 0.5361358
vn 0.5541133 0.7121796 0.4309973
vn 0.5541133 0.7121796 0.4309973
vn 0.5541133 0.7121796 0.4309973
vn 0.5541133 0.7121796 0.4309973
vn 0.4389957 0.7121796 -0.5477983
vn 0.4389957 0.7121796 -0.5477983
vn 0.4389957 0.7121796 -0.5477983
vn 0.4389957 0.7121796 -0.5477983
vn -0.5395033 0.7121796 -0.4491508
vn -0.5395033 0.7121796 -0.4491508
vn -0.5395033 0.7121796 -0.4491508
vn -0.5395033 0.7121796 -0.4491508
vn 0.007304966 0.9999734 0
vn 0.007304966 0.9999734 0
vn 0.007304966 0.9999734 0
vn 0.007304966 0.9999734 0
vn -0.7071068 0.7071068 0
vn -0.7071068 0.7071068 0
vn -0.7071068 0.7071068 0
vn -0.7071068 0.7071068 0
vn 0.007304966 0.7121796 0.7019593
vn 0.007304966 0.7121796 0.7019593
vn 0.007304966 0.7121796 0.7019593
vn 0.007304966 0.7121796 0.7019593
vn 0.6980101 0.7121796 -0.07471342
vn 0.6980101 0.7121796 -0.07471342
vn 0.6980101 0.7121796 -0.07471342
vn 0.6980101 0.7121796 -0.07471342
vn 0.007304966 0.7121796 -0.7019593
vn 0.007304966 0.7121796 -0.7019593
vn 0.007304966 0.7121796 -0.7019593
vn 0.007304966 0.7121796 -0.7019593
vn 0.007304966 0.9999734 0
vn 0.007304966 0.9999734 0
vn 0.007304966 0.9999734 0
vn 0.007304966 0.9999734 0
g rock_0
f 3/3/3 2/2/2 1/1/1
f 6/6/6 5/5/5 4/4/4
f 9/9/9 8/8/8 7/7/7
f 12/12/12 11/11/11 10/10/10
f 15/15/15 14/14/14 13/13/13
f 18/18/18 17/17/17 16/16/16
f 21/21/21 20/20/20 19/19/19
f 24/24/24 23/23/23 22/22/22
f 27/27/27 26/26/26 25/25/25
f 30/30/30 29/29/29 28/28/28
f 33/33/33 32/32/32 31/31/31
f 36/36/36 35/35/35 34/34/34
f 39/39/39 38/38/38 37/37/37
f 40/40/40 39/39/39 37/37/37
f 43/43/43 42/42/42 41/41/41
f 44/44/44 43/43/43 41/41/41
f 47/47/47 46/46/46 45/45/45
f 48/48/48 47/47/47 45/45/45
f 51/51/51 50/50/50 49/49/49
f 52/52/52 51/51/51 49/49/49
f 55/55/55 54/54/54 53/53/53
f 56/56/56 55/55/55 53/53/53
f 59/59/59 58/58/58 57/57/57
f 60/60/60 59/59/59 57/57/57
f 63/63/63 62/62/62 61/61/61
f 64/64/64 63/63/63 61/61/61
f 67/67/67 66/66/66 65/65/65
f 68/68/68 67/67/67 65/65/65
f 71/71/71 70/70/70 69/69/69
f 72/72/72 71/71/71 69/69/69
f 75/75/75 74/74/74 73/73/73
f 76/76/76 75/75/75 73/73/73
f 79/79/79 78/78/78 77/77/77
f 80/80/80 79/79/79 77/77/77
f 83/83/83 82/82/82 81/81/81
f 84/84/84 83/83/83 81/81/81
f 87/87/87 86/86/86 85/85/85
f 88/88/88 87/87/87 85/85/85
f 91/91/91 90/90/90 89/89/89
f 92/92/92 91/91/91 89/89/89
f 95/95/95 94/94/94 93/93/93
f 96/96/96 95/95/95 93/93/93
