g rock-sharp
v 0.9260467 -0.04109191 0.09199966
v 0.9708412 0.6913259 0.456039
v 1.068886 -1.236462E-07 1.252833
v 0.739605 -0.2015732 -0.444085
v 0.2048386 -0.2015732 -0.444094
v -0.04247552 -0.2064896 -0.444094
v -0.04247552 -0.2064896 -0.444094
v -1.606304 -0.2064896 -0.4440755
v 0.739605 -0.2015732 -0.444085
v -0.9550403 1.55319 -1.339123
v -0.5459121 1.330902 -1.403972
v -0.3308133 0.7923942 -0.3477536
v -1.009393 1.227071 -0.4108319
v -0.2425041 0.4565299 -1.659057
v -0.2354177 0.4559794 -0.2334466
v -0.3308133 0.7923942 -0.3477536
v -0.5459121 1.330902 -1.403972
v -0.2425041 0.4565299 -1.659057
v 0.009221629 0.4565299 -1.659057
v 0.01630805 0.4559794 -0.2334466
v -0.2354177 0.4559794 -0.2334466
v 0.009221629 0.4565299 -1.659057
v 0.5385328 -0.1846045 -1.790862
v 0.5459386 -0.1846048 -0.04684382
v 0.01630805 0.4559794 -0.2334466
v -0.2425041 0.4565299 -1.659057
v -1.213117 2.917685E-07 -1.790861
v 0.5385328 -0.1846045 -1.790862
v 0.009221629 0.4565299 -1.659057
v -0.3308133 0.7923942 -0.3477536
v -1.193877 7.410493E-08 -0.4548526
v -1.009393 1.227071 -0.4108319
v -0.2354177 0.4559794 -0.2334466
v 0.5459386 -0.1846048 -0.04684382
v 0.01630805 0.4559794 -0.2334466
v 0.5459386 -0.1846048 -0.04684382
v 0.5385328 -0.1846045 -1.790862
v -1.213117 2.917685E-07 -1.790861
v -1.193877 7.410493E-08 -0.4548526
v -1.403249 1.629202 -0.08979516
v -0.9526123 3.603056 -1.986756
v -0.06196932 2.755698 -1.172408
v -0.06302597 1.748994 -0.2049199
v -1.457792 1.400896 0.129618
v -0.3628205 1.299947 0.2266338
v -1.790534 -2.38523E-07 1.464043
v -1.436122 -2.38523E-07 1.464043
v 0.1666668 1.791567 -0.2458349
v 0.1715392 2.569175 -0.9931502
v 0.3552307 2.482163 -0.9095278
v 0.759497 1.847042 -0.2991488
v 0.1666668 1.791567 -0.2458349
v 0.759497 1.847042 -0.2991488
v 0.6356236 1.20622 0.4250795
v 0.1001586 1.256883 0.4945822
v -0.06302597 1.748994 -0.2049199
v 0.1666668 1.791567 -0.2458349
v 0.1001586 1.256883 0.4945822
v -0.3628205 1.299947 0.2266338
v 0.1001586 1.256883 0.4945822
v 0.6356236 1.20622 0.4250795
v 0.7693417 -2.530673E-07 1.553315
v -0.9257184 -2.917684E-07 1.790862
v -0.3628205 1.299947 0.2266338
v 0.1001586 1.256883 0.4945822
v -0.9257184 -2.917684E-07 1.790862
v -1.436122 -2.38523E-07 1.464043
v -1.457792 1.400896 0.129618
v -1.790534 -2.38523E-07 1.464043
v -1.606304 -0.2064896 -0.4440755
v -1.52804 0.3911635 -0.7306932
v -1.469923 0.6918008 -0.8838468
v -1.403249 1.629202 -0.08979516
v -0.9897537 3.291008 -2.207928
v -0.9526123 3.603056 -1.986756
v -0.9897537 3.291008 -2.207928
v -0.04186818 0.8495427 -0.9642057
v -0.04074223 2.175184 -1.639528
v -1.469923 0.6918008 -0.8838468
v -0.04348755 0.2221712 -0.6446037
v -1.52804 0.3911635 -0.7306932
v 0.2028776 0.9056041 -0.9927653
v -0.04247552 -0.2064896 -0.444094
v -1.606304 -0.2064896 -0.4440755
v 0.203203 0.1932851 -0.6298883
v 0.2048386 -0.2015732 -0.444094
v 0.7025676 0.1348121 -0.6001002
v 0.739605 -0.2015732 -0.444085
v 0.8345589 0.9786538 -1.029979
v 0.2080694 1.929567 -1.514403
v 0.4037992 1.814988 -1.456033
v -0.06196932 2.755698 -1.172408
v -0.04074223 2.175184 -1.639528
v -0.04186818 0.8495427 -0.9642057
v -0.06302597 1.748994 -0.2049199
v -0.9526123 3.603056 -1.986756
v -0.9897537 3.291008 -2.207928
v -0.04074223 2.175184 -1.639528
v -0.06196932 2.755698 -1.172408
v 0.6356236 1.20622 0.4250795
v 0.7025676 0.1348121 -0.6001002
v 0.739605 -0.2015732 -0.444085
v 0.7693417 -2.530673E-07 1.553315
v -0.06302597 1.748994 -0.2049199
v -0.04186818 0.8495427 -0.9642057
v 0.2028776 0.9056041 -0.9927653
v 0.1666668 1.791567 -0.2458349
v 0.759497 1.847042 -0.2991488
v 0.8345589 0.9786538 -1.029979
v 0.7025676 0.1348121 -0.6001002
v 0.6356236 1.20622 0.4250795
v 0.1715392 2.569175 -0.9931502
v 0.2080694 1.929567 -1.514403
v 0.4037992 1.814988 -1.456033
v 0.3552307 2.482163 -0.9095278
v 0.3552307 2.482163 -0.9095278
v 0.4037992 1.814988 -1.456033
v 0.8345589 0.9786538 -1.029979
v 0.759497 1.847042 -0.2991488
v 0.1666668 1.791567 -0.2458349
v 0.2028776 0.9056041 -0.9927653
v 0.2080694 1.929567 -1.514403
v 0.1715392 2.569175 -0.9931502
v 1.376712 0.4641906 0.00437036
v 1.036493 -3.977478E-10 0.004370451
v 1.790534 -3.977499E-10 0.00437032
v 1.790534 0.4641906 0.004370287
v 1.790206 0.256709 0.3129228
v 1.790534 0.4641906 0.004370287
v 1.790534 -3.977499E-10 0.00437032
v 1.790534 -0.04109193 0.3118865
v 1.790534 0.4641906 0.004370287
v 1.481009 0.8151509 0.3151023
v 1.237555 0.8151509 0.3151023
v 1.376712 0.4641906 0.00437036
v 1.492506 -1.236462E-07 1.252833
v 1.561712 0.1832442 1.034333
v 1.790206 0.256709 0.3129228
v 1.790534 -0.04109193 0.3118865
v 1.481009 0.8151509 0.3151023
v 1.790534 0.4641906 0.004370287
v 1.790206 0.256709 0.3129228
v 1.561712 0.1832442 1.034333
v 1.237555 0.8151509 0.3151023
v 1.481009 0.8151509 0.3151023
v 1.561712 0.1832442 1.034333
v 0.9708412 0.6913259 0.456039
v 1.068886 -1.236462E-07 1.252833
v 1.492506 -1.236462E-07 1.252833
v 1.036493 -3.977478E-10 0.004370451
v 1.376712 0.4641906 0.00437036
v 1.237555 0.8151509 0.3151023
v 0.9708412 0.6913259 0.456039
v 0.9260467 -0.04109191 0.09199966
v 1.036493 -3.977478E-10 0.004370451
v 0.9260467 -0.04109191 0.09199966
v 1.790534 -0.04109193 0.3118865
v 1.790534 -3.977499E-10 0.00437032
v 0.9260467 -0.04109191 0.09199966
v 1.068886 -1.236462E-07 1.252833
v 1.492506 -1.236462E-07 1.252833
v 1.790534 -0.04109193 0.3118865
v -1.213117 2.917685E-07 -1.790861
v -0.9550403 1.55319 -1.339123
v -1.009393 1.227071 -0.4108319
v -1.193877 7.410493E-08 -0.4548526
v -1.606304 -0.2064896 -0.4440755
v 0.7693417 -2.530673E-07 1.553315
v 0.739605 -0.2015732 -0.444085
v -1.436122 -2.38523E-07 1.464043
v -1.790534 -2.38523E-07 1.464043
v -0.9257184 -2.917684E-07 1.790862
v -0.5459121 1.330902 -1.403972
v -0.9550403 1.55319 -1.339123
v -1.213117 2.917685E-07 -1.790861
v -0.2425041 0.4565299 -1.659057
vt 0.7192576 0.7937486
vt 0.7253486 0.7954143
vt 0.7254509 0.7871748
vt 0.7084991 0.7973486
vt 0.7084994 0.7931257
vt 0.708499 0.7911736
vt 0.708499 0.7911736
vt 0.7084994 0.7788245
vt 0.7084991 0.7973486
vt 0.6767629 0.8225455
vt 0.6736486 0.821846
vt 0.6715207 0.8300766
vt 0.6767629 0.8298913
vt 0.6686401 0.8428545
vt 0.6686401 0.8316659
vt 0.665982 0.8325201
vt 0.6616756 0.8406919
vt 0.7008533 0.8364586
vt 0.7027907 0.8364488
vt 0.7027907 0.8251883
vt 0.7008533 0.8251982
vt 0.6715207 0.8204322
vt 0.6769122 0.821846
vt 0.6769122 0.8081574
vt 0.6715259 0.8092436
vt 0.7152852 0.7839164
vt 0.7190925 0.7912333
vt 0.7190925 0.7773287
vt 0.7150907 0.7819382
vt 0.6940743 0.8313484
vt 0.7008533 0.8251883
vt 0.6913236 0.8256609
vt 0.6965895 0.8325328
vt 0.7008533 0.8393672
vt 0.6963719 0.8344743
vt 0.6779026 0.8311
vt 0.6913236 0.8310245
vt 0.6913236 0.8171606
vt 0.6810426 0.8173257
vt 0.7134449 0.8138978
vt 0.7135178 0.797543
vt 0.7052996 0.8040676
vt 0.7035348 0.8123041
vt 0.7134548 0.8157907
vt 0.705008 0.8161151
vt 0.7135177 0.8274002
vt 0.7108413 0.8272379
vt 0.6905651 0.8376093
vt 0.6905651 0.8311
vt 0.6891875 0.8320459
vt 0.6861351 0.8378444
vt 0.6673775 0.8134139
vt 0.6636249 0.8107172
vt 0.6616756 0.816167
vt 0.6649834 0.8187487
vt 0.6687537 0.8145976
vt 0.6673775 0.8134139
vt 0.6649834 0.8187487
vt 0.6691004 0.8187339
vt 0.7035348 0.8336528
vt 0.7039264 0.8377025
vt 0.7136571 0.8402155
vt 0.7136571 0.8274002
vt 0.6691004 0.8187339
vt 0.6649834 0.8187487
vt 0.6668617 0.8316659
vt 0.6715207 0.8314344
vt 0.6913236 0.7927812
vt 0.6913236 0.7773287
vt 0.6795998 0.7865909
vt 0.6811635 0.7916112
vt 0.6819061 0.794198
vt 0.6913129 0.7953102
vt 0.6883185 0.8165468
vt 0.6912129 0.8171606
vt 0.6784126 0.8081574
vt 0.6687044 0.787896
vt 0.6700337 0.7993791
vt 0.679459 0.7851963
vt 0.6680836 0.7824606
vt 0.6795997 0.7825381
vt 0.6668906 0.7886102
vt 0.6676483 0.7787891
vt 0.6795997 0.7773287
vt 0.6661692 0.7824408
vt 0.6657625 0.779057
vt 0.6622938 0.7824006
vt 0.6616756 0.7795563
vt 0.6621367 0.7898328
vt 0.6678843 0.797484
vt 0.6662728 0.7966744
vt 0.7165999 0.8116424
vt 0.7217964 0.8092737
vt 0.7217964 0.797543
vt 0.7135178 0.8010784
vt 0.7181585 0.8209388
vt 0.7206925 0.8195786
vt 0.7217964 0.8092737
vt 0.7165999 0.8116424
vt 0.7035348 0.8121284
vt 0.6922141 0.8129094
vt 0.6913236 0.8157055
vt 0.7035348 0.8251883
vt 0.6687537 0.8145976
vt 0.6715207 0.8093157
vt 0.6699967 0.8081574
vt 0.6673775 0.8134139
vt 0.7025927 0.8045489
vt 0.6939535 0.8057184
vt 0.6922141 0.8129094
vt 0.7035348 0.8121284
vt 0.6769873 0.8086871
vt 0.6769122 0.8128117
vt 0.6784525 0.812489
vt 0.6784525 0.8081574
vt 0.702914 0.797543
vt 0.696372 0.7985203
vt 0.6939535 0.8057184
vt 0.7025927 0.8045489
vt 0.6861351 0.8402253
vt 0.6861351 0.8311
vt 0.6780013 0.8345677
vt 0.6779026 0.8410591
vt 0.7084994 0.7945019
vt 0.7119204 0.7971921
vt 0.7119204 0.7912363
vt 0.7084994 0.7912333
vt 0.7221028 0.7802426
vt 0.7217499 0.7773287
vt 0.7190925 0.7797394
vt 0.7203923 0.7817829
vt 0.7272013 0.8084069
vt 0.7253941 0.8054819
vt 0.723565 0.8050649
vt 0.7240921 0.8076981
vt 0.7256949 0.7871748
vt 0.7255672 0.7849215
vt 0.7221028 0.7802426
vt 0.7203923 0.7817829
vt 0.7256949 0.777361
vt 0.7217499 0.7773287
vt 0.7221028 0.7802426
vt 0.7255672 0.7849215
vt 0.723565 0.8050649
vt 0.7253941 0.8054819
vt 0.7272013 0.8000726
vt 0.7217964 0.803521
vt 0.7238634 0.797543
vt 0.7270461 0.7982687
vt 0.7190925 0.794553
vt 0.7219026 0.7971797
vt 0.7254509 0.7970653
vt 0.7253486 0.7954143
vt 0.7192576 0.7937486
vt 0.6744483 0.8415258
vt 0.6752915 0.840829
vt 0.6686401 0.8390923
vt 0.6686462 0.8415258
vt 0.6752915 0.840829
vt 0.6742021 0.8316659
vt 0.6709425 0.8316659
vt 0.6686401 0.8390923
vt 0.7235327 0.8403001
vt 0.7235327 0.8274002
vt 0.7159637 0.8278913
vt 0.7136571 0.837392
vt 0.7084994 0.7788245
vt 0.6931511 0.797543
vt 0.7084991 0.7973486
vt 0.6938389 0.7801275
vt 0.6938391 0.7773287
vt 0.6913236 0.784157
vt 0.7096703 0.7868954
vt 0.7084994 0.7902617
vt 0.7190925 0.7912333
vt 0.7152852 0.7839164
vn -0.9925144 0 0.1221276
vn -0.9925144 0 0.1221276
vn -0.9925144 0 0.1221276
vn -0.0008377208 -0.995196 0.09789884
vn -0.0008377208 -0.995196 0.09789884
vn -0.0008377208 -0.995196 0.09789884
vn -0.0008377208 -0.995196 0.09789884
vn -0.0008377208 -0.995196 0.09789884
vn -0.0008377208 -0.995196 0.09789884
vn 0.4912018 0.8124142 0.3141718
vn 0.4912018 0.8124142 0.3141718
vn 0.4912018 0.8124142 0.3141718
vn 0.4912018 0.8124142 0.3141718
vn 0.9490966 0.314545 -0.01664797
vn 0.9490966 0.314545 -0.01664797
vn 0.9490966 0.314545 -0.01664797
vn 0.9490966 0.314545 -0.01664797
vn 0 1 0.0003861563
vn 0 1 0.0003861563
vn 0 1 0.0003861563
vn 0 1 0.0003861563
vn 0.7709903 0.6368377 -0.003414478
vn 0.7709903 0.6368377 -0.003414478
vn 0.7709903 0.6368377 -0.003414478
vn 0.7709903 0.6368377 -0.003414478
vn 0.02078407 0.2255568 -0.9740083
vn 0.02078407 0.2255568 -0.9740083
vn 0.02078407 0.2255568 -0.9740083
vn 0.02078407 0.2255568 -0.9740083
vn -0.1716459 0.05400157 0.9836775
vn -0.1716459 0.05400157 0.9836775
vn -0.1716459 0.05400157 0.9836775
vn -0.1716459 0.05400157 0.9836775
vn -0.1964225 0.0457279 0.9794525
vn -0.1964225 0.0457279 0.9794525
vn -0.1052652 -0.9944437 0.0009105068
vn -0.1052652 -0.9944437 0.0009105068
vn -0.1052652 -0.9944437 0.0009105068
vn -0.1052652 -0.9944437 0.0009105068
vn 0 0.6929235 0.7210112
vn 0 0.6929235 0.7210112
vn 0 0.6929235 0.7210112
vn 0 0.6929235 0.7210112
vn 1.30799E-07 0.6929235 0.721011
vn 1.30799E-07 0.6929235 0.721011
vn -0.0004286065 0.6897164 0.7240795
vn -0.0004286065 0.6897164 0.7240795
vn 1.981505E-07 0.6929236 0.721011
vn 1.981505E-07 0.6929236 0.721011
vn 1.981505E-07 0.6929236 0.721011
vn 1.981505E-07 0.6929236 0.721011
vn 0.06524663 0.7740644 0.6297358
vn 0.06524663 0.7740644 0.6297358
vn 0.06524663 0.7740644 0.6297358
vn 0.06524663 0.7740644 0.6297358
vn -0.1942517 0.7804009 0.5943405
vn -0.1942517 0.7804009 0.5943405
vn -0.1942517 0.7804009 0.5943405
vn -0.1942517 0.7804009 0.5943405
vn 0.1156209 0.6752129 0.7285049
vn 0.1156209 0.6752129 0.7285049
vn 0.1156209 0.6752129 0.7285049
vn 0.1156209 0.6752129 0.7285049
vn -0.2979619 0.7841138 0.544412
vn -0.2979619 0.7841138 0.544412
vn -0.2979619 0.7841138 0.544412
vn -0.2979619 0.7841138 0.544412
vn -0.9874734 0.1254113 -0.0957514
vn -0.9874734 0.1254113 -0.0957514
vn -0.9874734 0.1254113 -0.0957514
vn -0.9874734 0.1254113 -0.0957514
vn -0.9862421 0.1455795 -0.07831474
vn -0.9862421 0.1455795 -0.07831474
vn -0.9862421 0.1455795 -0.07831474
vn -0.9862421 0.1455795 -0.07831474
vn -9.585181E-06 -0.4539162 -0.8910444
vn -9.585181E-06 -0.4539162 -0.8910444
vn -9.585181E-06 -0.4539162 -0.8910444
vn -9.585181E-06 -0.4539162 -0.8910444
vn -1.792538E-07 -0.453923 -0.8910409
vn -1.792538E-07 -0.453923 -0.8910409
vn 3.577776E-07 -0.4539232 -0.8910409
vn 0.001729593 -0.4288954 -0.9033525
vn 0.001729593 -0.4288954 -0.9033525
vn 0 -0.4539235 -0.8910407
vn 0.002165735 -0.4233628 -0.9059576
vn 0 -0.4539235 -0.8910407
vn 0.002165735 -0.4233628 -0.9059576
vn 3.577776E-07 -0.4539232 -0.8910409
vn 3.577776E-07 -0.4539232 -0.8910409
vn 3.577776E-07 -0.4539232 -0.8910409
vn 0.999734 0.01264918 0.01928665
vn 0.999734 0.01264918 0.01928665
vn 0.999734 0.01264918 0.01928665
vn 0.999734 0.01264918 0.01928665
vn 0.7783956 0.3745949 -0.5037648
vn 0.7783956 0.3745949 -0.5037648
vn 0.7783956 0.3745949 -0.5037648
vn 0.7783956 0.3745949 -0.5037648
vn 0.9956962 0.08915936 -0.0252933
vn 0.9956962 0.08915936 -0.0252933
vn 0.9956962 0.08915936 -0.0252933
vn 0.9956962 0.08915936 -0.0252933
vn -0.238502 0.6217176 -0.7460456
vn -0.238502 0.6217176 -0.7460456
vn -0.238502 0.6217176 -0.7460456
vn -0.238502 0.6217176 -0.7460456
vn 0.9878429 -0.05818231 0.1441572
vn 0.9878429 -0.05818231 0.1441572
vn 0.9878429 -0.05818231 0.1441572
vn 0.9878429 -0.05818231 0.1441572
vn 0.5337716 0.5556281 -0.637468
vn 0.5337716 0.5556281 -0.637468
vn 0.5337716 0.5556281 -0.637468
vn 0.5337716 0.5556281 -0.637468
vn 0.9057425 0.3117586 -0.2871189
vn 0.9057425 0.3117586 -0.2871189
vn 0.9057425 0.3117586 -0.2871189
vn 0.9057425 0.3117586 -0.2871189
vn -0.9992217 -0.01883136 -0.03466037
vn -0.9992217 -0.01883136 -0.03466037
vn -0.9992217 -0.01883136 -0.03466037
vn -0.9992217 -0.01883136 -0.03466037
vn -1.75042E-07 0 -1
vn -1.75042E-07 0 -1
vn -1.75042E-07 0 -1
vn -1.75042E-07 0 -1
vn 0.9999996 0.0004298871 0.0007065804
vn 0.9999996 0.0004298871 0.0007065804
vn 0.9999996 0.0004298871 0.0007065804
vn 0.9999996 0.0004298871 0.0007065804
vn -1.576985E-07 0.6628935 -0.7487138
vn -1.576985E-07 0.6628935 -0.7487138
vn -1.576985E-07 0.6628935 -0.7487138
vn -1.576985E-07 0.6628935 -0.7487138
vn 0.9533243 3.584436E-07 0.3019485
vn 0.9533243 3.584436E-07 0.3019485
vn 0.9533243 3.584436E-07 0.3019485
vn 0.9533243 3.584436E-07 0.3019485
vn 0.832199 0.4595597 0.3102415
vn 0.832199 0.4595597 0.3102415
vn 0.832199 0.4595597 0.3102415
vn 0.832199 0.4595597 0.3102415
vn 0.004143798 0.7548265 0.6559114
vn 0.004143798 0.7548265 0.6559114
vn 0.004143798 0.7548265 0.6559114
vn 0.004143798 0.7548265 0.6559114
vn 0.004143798 0.7548265 0.6559114
vn 0.004143798 0.7548265 0.6559114
vn -0.582972 0.4039705 -0.7049477
vn -0.582972 0.4039705 -0.7049477
vn -0.582972 0.4039705 -0.7049477
vn -0.582972 0.4039705 -0.7049477
vn -0.582972 0.4039705 -0.7049477
vn 0.02668205 -0.9801608 -0.1963998
vn 0.02668205 -0.9801608 -0.1963998
vn 0.02668205 -0.9801608 -0.1963998
vn 0.02668205 -0.9801608 -0.1963998
vn -0.006586778 -0.9992336 0.0385856
vn -0.006586778 -0.9992336 0.0385856
vn -0.006586778 -0.9992336 0.0385856
vn -0.006586778 -0.9992336 0.0385856
vn -0.9877385 0.1559537 0.007144341
vn -0.9877385 0.1559537 0.007144341
vn -0.9877385 0.1559537 0.007144341
vn -0.9877385 0.1559537 0.007144341
vn -0.0008377208 -0.995196 0.09789884
vn -0.0008377208 -0.995196 0.09789884
vn -0.0008377208 -0.995196 0.09789884
vn -0.0008377208 -0.995196 0.09789884
vn -0.0008377208 -0.995196 0.09789884
vn -0.0008377208 -0.995196 0.09789884
vn -0.0008650961 0.2795419 -0.9601331
vn -0.0008650961 0.2795419 -0.9601331
vn -0.0008650961 0.2795419 -0.9601331
vn -0.0008650961 0.2795419 -0.9601331
g rock-sharp_0
f 3/3/3 2/2/2 1/1/1
f 6/6/6 5/5/5 4/4/4
f 9/9/9 8/8/8 7/7/7
f 12/12/12 11/11/11 10/10/10
f 13/13/13 12/12/12 10/10/10
f 16/16/16 15/15/15 14/14/14
f 17/17/17 16/16/16 14/14/14
f 20/20/20 19/19/19 18/18/18
f 21/21/21 20/20/20 18/18/18
f 24/24/24 23/23/23 22/22/22
f 25/25/25 24/24/24 22/22/22
f 28/28/28 27/27/27 26/26/26
f 29/29/29 28/28/28 26/26/26
f 32/32/32 31/31/31 30/30/30
f 31/31/31 33/33/33 30/30/30
f 31/31/31 34/34/34 33/33/33
f 34/34/34 35/35/35 33/33/33
f 38/38/38 37/37/37 36/36/36
f 39/39/39 38/38/38 36/36/36
f 42/42/42 41/41/41 40/40/40
f 43/43/43 42/42/42 40/40/40
f 43/43/43 40/40/40 44/44/44
f 45/45/45 43/43/43 44/44/44
f 45/45/45 44/44/44 46/46/46
f 47/47/47 45/45/45 46/46/46
f 50/50/50 49/49/49 48/48/48
f 51/51/51 50/50/50 48/48/48
f 54/54/54 53/53/53 52/52/52
f 55/55/55 54/54/54 52/52/52
f 58/58/58 57/57/57 56/56/56
f 59/59/59 58/58/58 56/56/56
f 62/62/62 61/61/61 60/60/60
f 63/63/63 62/62/62 60/60/60
f 66/66/66 65/65/65 64/64/64
f 67/67/67 66/66/66 64/64/64
f 70/70/70 69/69/69 68/68/68
f 71/71/71 70/70/70 68/68/68
f 72/72/72 71/71/71 68/68/68
f 73/73/73 72/72/72 68/68/68
f 74/74/74 72/72/72 73/73/73
f 75/75/75 74/74/74 73/73/73
f 78/78/78 77/77/77 76/76/76
f 77/77/77 79/79/79 76/76/76
f 77/77/77 80/80/80 79/79/79
f 80/80/80 81/81/81 79/79/79
f 80/80/80 77/77/77 82/82/82
f 80/80/80 83/83/83 81/81/81
f 83/83/83 84/84/84 81/81/81
f 83/83/83 80/80/80 85/85/85
f 85/85/85 80/80/80 82/82/82
f 86/86/86 83/83/83 85/85/85
f 86/86/86 85/85/85 87/87/87
f 88/88/88 86/86/86 87/87/87
f 87/87/87 85/85/85 89/89/89
f 85/85/85 82/82/82 89/89/89
f 89/89/89 82/82/82 90/90/90
f 91/91/91 89/89/89 90/90/90
f 94/94/94 93/93/93 92/92/92
f 95/95/95 94/94/94 92/92/92
f 98/98/98 97/97/97 96/96/96
f 99/99/99 98/98/98 96/96/96
f 102/102/102 101/101/101 100/100/100
f 103/103/103 102/102/102 100/100/100
f 106/106/106 105/105/105 104/104/104
f 107/107/107 106/106/106 104/104/104
f 110/110/110 109/109/109 108/108/108
f 111/111/111 110/110/110 108/108/108
f 114/114/114 113/113/113 112/112/112
f 115/115/115 114/114/114 112/112/112
f 118/118/118 117/117/117 116/116/116
f 119/119/119 118/118/118 116/116/116
f 122/122/122 121/121/121 120/120/120
f 123/123/123 122/122/122 120/120/120
f 126/126/126 125/125/125 124/124/124
f 127/127/127 126/126/126 124/124/124
f 130/130/130 129/129/129 128/128/128
f 131/131/131 130/130/130 128/128/128
f 134/134/134 133/133/133 132/132/132
f 135/135/135 134/134/134 132/132/132
f 138/138/138 137/137/137 136/136/136
f 139/139/139 138/138/138 136/136/136
f 142/142/142 141/141/141 140/140/140
f 143/143/143 142/142/142 140/140/140
f 146/146/146 145/145/145 144/144/144
f 144/144/144 147/147/147 146/146/146
f 147/147/147 148/148/148 146/146/146
f 148/148/148 149/149/149 146/146/146
f 152/152/152 151/151/151 150/150/150
f 150/150/150 153/153/153 152/152/152
f 150/150/150 154/154/154 153/153/153
f 157/157/157 156/156/156 155/155/155
f 158/158/158 157/157/157 155/155/155
f 161/161/161 160/160/160 159/159/159
f 162/162/162 161/161/161 159/159/159
f 165/165/165 164/164/164 163/163/163
f 166/166/166 165/165/165 163/163/163
f 169/169/169 168/168/168 167/167/167
f 168/168/168 170/170/170 167/167/167
f 167/167/167 170/170/170 171/171/171
f 168/168/168 172/172/172 170/170/170
f 175/175/175 174/174/174 173/173/173
f 176/176/176 175/175/175 173/173/173
