g Round Brick 1x1.331
v -0.649353 -0.4949499 -0.5019189
v -0.649353 0.5225179 -0.5019189
v -0.649353 0.5225179 0.147588
v -0.649353 -0.4949499 0.776188
v -0.649353 -0.4949499 0.776188
v -0.649353 0.5225179 0.147588
v 0.6496608 0.5225179 0.147588
v 0.6496608 -0.4949499 0.776188
v 0.6496608 -0.4949499 -0.5019189
v 0.6496608 -0.4949499 0.776188
v 0.6496608 0.5225179 0.147588
v 0.6496608 0.5225179 -0.5019189
v 0.6496608 0.5225179 -0.5019189
v 0.6496608 0.5225179 0.147588
v -0.649353 0.5225179 0.147588
v -0.649353 0.5225179 -0.5019189
v 0.6496608 0.5225179 -0.5019189
v -0.649353 0.5225179 -0.5019189
v -0.649353 -0.4949499 -0.5019189
v 0.6496608 -0.4949499 -0.5019189
v 0.6496608 -0.4949499 0.776188
v 0.6496608 -0.4949499 -0.5019189
v -0.649353 -0.4949499 -0.5019189
v -0.649353 -0.4949499 0.776188
v 0.1911033 0.6228709 -0.3918093
v 0.3276949 0.6228709 -0.4336231
v 0.4907686 0.6228709 -0.37369
v 0.1032945 0.6228709 -0.3026067
v 0.5688208 0.6228709 -0.2454612
v 0.07263106 0.6228709 -0.1952847
v 0.5730022 0.6228709 -0.1269889
v 0.08099383 0.6228709 -0.1088697
v 0.5367637 0.6228709 -0.04057384
v 0.1478958 0.6228709 0.006815076
v 0.4712555 0.6228709 0.02911574
v 0.2747308 0.6228709 0.07092947
v 0.3778714 0.6228709 0.06953567
v -0.415196 0.6228709 -0.41411
v -0.3064802 0.6228709 -0.4294417
v -0.2158838 0.6228709 -0.4043534
v -0.5127614 0.6228709 -0.347208
v -0.1392252 0.6228709 -0.3486018
v -0.08347356 0.6228709 -0.253824
v -0.5713006 0.6228709 -0.2357047
v -0.07650465 0.6228709 -0.1186262
v -0.5740882 0.6228709 -0.1409268
v -0.5448186 0.6228709 -0.0503304
v -0.147588 0.6228709 0.004027486
v -0.4430718 0.6228709 0.04862881
v -0.2799982 0.6228709 0.07511085
v -0.1392252 0.6228709 -0.3486018
v -0.1308625 0.5225179 -0.3416328
v -0.08347356 0.6228709 -0.253824
v -0.2158838 0.6228709 -0.4043534
v -0.07929218 0.5225179 -0.2343109
v -0.247941 0.5225179 -0.4196852
v -0.3064802 0.6228709 -0.4294417
v -0.3664133 0.5225179 -0.4266541
v -0.415196 0.6228709 -0.41411
v -0.4625849 0.5225179 -0.3904155
v -0.5127614 0.6228709 -0.347208
v -0.5448186 0.5225179 -0.3040005
v -0.5713006 0.6228709 -0.2357047
v -0.575482 0.5225179 -0.2064351
v -0.5740882 0.6228709 -0.1409268
v -0.5671193 0.5225179 -0.1046883
v -0.5448186 0.6228709 -0.0503304
v -0.5127614 0.5225179 -0.008516669
v -0.4430718 0.6228709 0.04862881
v -0.4235588 0.5225179 0.05699152
v -0.2799982 0.6228709 0.07511085
v -0.3064802 0.5225179 0.07511085
v -0.1866142 0.5225179 0.03608465
v -0.147588 0.6228709 0.004027486
v -0.1099556 0.5225179 -0.04475522
v -0.07650465 0.6228709 -0.1186262
v -0.07511085 0.5225179 -0.1325641
v 0.08099383 0.6228709 -0.1088697
v 0.07960004 0.5225179 -0.1116573
v 0.07263106 0.6228709 -0.1952847
v 0.1478958 0.6228709 0.006815076
v 0.07960004 0.5225179 -0.2384923
v 0.1576523 0.5225179 0.01517779
v 0.1032945 0.6228709 -0.3026067
v 0.12002 0.5225179 -0.3235135
v 0.186922 0.5225179 -0.3904155
v 0.1911033 0.6228709 -0.3918093
v 0.3221197 0.5225179 -0.4336231
v 0.3276949 0.6228709 -0.4336231
v 0.4656803 0.5225179 -0.3890218
v 0.4907686 0.6228709 -0.37369
v 0.5451264 0.5225179 -0.3012129
v 0.5688208 0.6228709 -0.2454612
v 0.5799712 0.5225179 -0.1646213
v 0.5730022 0.6228709 -0.1269889
v 0.5395513 0.5225179 -0.04475522
v 0.5367637 0.6228709 -0.04057384
v 0.4754368 0.5225179 0.02632815
v 0.4712555 0.6228709 0.02911574
v 0.3750838 0.5225179 0.07092947
v 0.3778714 0.6228709 0.06953567
v 0.2747308 0.6228709 0.07092947
v 0.2719433 0.5225179 0.06953567
vt 0.7569058 0.5039372
vt 0.7569058 0.5039372
vt 0.7569058 0.5039372
vt 0.7569058 0.5039372
vt 0.7569058 0.5039372
vt 0.7569058 0.5039372
vt 0.7569058 0.5039372
vt 0.7569058 0.5039372
vt 0.7569058 0.5039372
vt 0.7569058 0.5039372
vt 0.7569058 0.5039372
vt 0.7569058 0.5039372
vt 0.7569058 0.5039372
vt 0.7569058 0.5039372
vt 0.7569058 0.5039372
vt 0.7569058 0.5039372
vt 0.7569058 0.5039372
vt 0.7569058 0.5039372
vt 0.7569058 0.5039372
vt 0.7569058 0.5039372
vt 0.7569058 0.5039372
vt 0.7569058 0.5039372
vt 0.7569058 0.5039372
vt 0.7569058 0.5039372
vt 0.7569058 0.5039372
vt 0.7569058 0.5039372
vt 0.7569058 0.5039372
vt 0.7569058 0.5039372
vt 0.7569058 0.5039372
vt 0.7569058 0.5039372
vt 0.7569058 0.5039372
vt 0.7569058 0.5039372
vt 0.7569058 0.5039372
vt 0.7569058 0.5039372
vt 0.7569058 0.5039372
vt 0.7569058 0.5039372
vt 0.7569058 0.5039372
vt 0.7569058 0.5039372
vt 0.7569058 0.5039372
vt 0.7569058 0.5039372
vt 0.7569058 0.5039372
vt 0.7569058 0.5039372
vt 0.7569058 0.5039372
vt 0.7569058 0.5039372
vt 0.7569058 0.5039372
vt 0.7569058 0.5039372
vt 0.7569058 0.5039372
vt 0.7569058 0.5039372
vt 0.7569058 0.5039372
vt 0.7569058 0.5039372
vt 0.7569058 0.5039372
vt 0.7569058 0.5039372
vt 0.7569058 0.5039372
vt 0.7569058 0.5039372
vt 0.7569058 0.5039372
vt 0.7569058 0.5039372
vt 0.7569058 0.5039372
vt 0.7569058 0.5039372
vt 0.7569058 0.5039372
vt 0.7569058 0.5039372
vt 0.7569058 0.5039372
vt 0.7569058 0.5039372
vt 0.7569058 0.5039372
vt 0.7569058 0.5039372
vt 0.7569058 0.5039372
vt 0.7569058 0.5039372
vt 0.7569058 0.5039372
vt 0.7569058 0.5039372
vt 0.7569058 0.5039372
vt 0.7569058 0.5039372
vt 0.7569058 0.5039372
vt 0.7569058 0.5039372
vt 0.7569058 0.5039372
vt 0.7569058 0.5039372
vt 0.7569058 0.5039372
vt 0.7569058 0.5039372
vt 0.7569058 0.5039372
vt 0.7569058 0.5039372
vt 0.7569058 0.5039372
vt 0.7569058 0.5039372
vt 0.7569058 0.5039372
vt 0.7569058 0.5039372
vt 0.7569058 0.5039372
vt 0.7569058 0.5039372
vt 0.7569058 0.5039372
vt 0.7569058 0.5039372
vt 0.7569058 0.5039372
vt 0.7569058 0.5039372
vt 0.7569058 0.5039372
vt 0.7569058 0.5039372
vt 0.7569058 0.5039372
vt 0.7569058 0.5039372
vt 0.7569058 0.5039372
vt 0.7569058 0.5039372
vt 0.7569058 0.5039372
vt 0.7569058 0.5039372
vt 0.7569058 0.5039372
vt 0.7569058 0.5039372
vt 0.7569058 0.5039372
vt 0.7569058 0.5039372
vt 0.7569058 0.5039372
vt 0.7569058 0.5039372
vt 0.7569058 0.5039372
vn -0.999874 0.01587105 -0.0003439156
vn -0.999874 0.01587105 -0.0003439156
vn -0.999874 0.01587105 -0.0003439156
vn -0.999874 0.01587105 -0.0003439156
vn -0.01587105 0.5237435 0.8517281
vn -0.01587105 0.5237435 0.8517281
vn -0.01587105 0.5237435 0.8517281
vn -0.01587105 0.5237435 0.8517281
vn 0.999874 0.01587105 -0.0003439156
vn 0.999874 0.01587105 -0.0003439156
vn 0.999874 0.01587105 -0.0003439156
vn 0.999874 0.01587105 -0.0003439156
vn -0.01587105 0.999874 -0.000345267
vn -0.01587105 0.999874 -0.000345267
vn -0.01587105 0.999874 -0.000345267
vn -0.01587105 0.999874 -0.000345267
vn -0.01587105 0.01587105 -0.9997481
vn -0.01587105 0.01587105 -0.9997481
vn -0.01587105 0.01587105 -0.9997481
vn -0.01587105 0.01587105 -0.9997481
vn -0.01587105 -0.999874 -0.000345267
vn -0.01587105 -0.999874 -0.000345267
vn -0.01587105 -0.999874 -0.000345267
vn -0.01587105 -0.999874 -0.000345267
vn -0.01587105 0.999874 -0.000345267
vn -0.01587105 0.999874 -0.000345267
vn -0.01587105 0.999874 -0.000345267
vn -0.01587105 0.999874 -0.000345267
vn -0.01587105 0.999874 -0.000345267
vn -0.01587105 0.999874 -0.000345267
vn -0.01587105 0.999874 -0.000345267
vn -0.01587105 0.999874 -0.000345267
vn -0.01587105 0.999874 -0.000345267
vn -0.01587105 0.999874 -0.000345267
vn -0.01587105 0.999874 -0.000345267
vn -0.01587105 0.999874 -0.000345267
vn -0.01587105 0.999874 -0.000345267
vn -0.01587105 0.999874 -0.000345267
vn -0.01587105 0.999874 -0.000345267
vn -0.01587105 0.999874 -0.000345267
vn -0.01587105 0.999874 -0.000345267
vn -0.01587105 0.999874 -0.000345267
vn -0.01587105 0.999874 -0.000345267
vn -0.01587105 0.999874 -0.000345267
vn -0.01587105 0.999874 -0.000345267
vn -0.01587105 0.999874 -0.000345267
vn -0.01587105 0.999874 -0.000345267
vn -0.01587105 0.999874 -0.000345267
vn -0.01587105 0.999874 -0.000345267
vn -0.01587105 0.999874 -0.000345267
vn 0.7141957 -0.01587099 -0.6997661
vn 0.7459377 -0.01587099 -0.6658266
vn 0.968132 0.01587105 -0.2499373
vn 0.4602594 0.01587105 -0.8876426
vn 0.968132 -0.01587099 -0.2499373
vn 0.3332914 -0.01587099 -0.9426903
vn 0.04761302 0.01587105 -0.9987398
vn -0.1428392 -0.01587099 -0.9896187
vn -0.3650334 0.01587105 -0.9308591
vn -0.5554856 -0.01587099 -0.8313747
vn -0.7459378 0.01587105 -0.6658264
vn -0.8729059 -0.01587099 -0.4876305
vn -0.968132 0.01587105 -0.249937
vn -0.999874 -0.01587099 -0.000346655
vn -0.999874 0.01587105 -0.0003439156
vn -0.968132 -0.01587099 0.249937
vn -0.8411639 0.01587105 0.5405474
vn -0.7459378 -0.01587099 0.6658264
vn -0.4602594 0.01587105 0.8876426
vn -0.3650334 0.01587105 0.9308591
vn 0.1745812 0.01587105 0.9845148
vn 0.04761302 -0.01587099 0.9987398
vn 0.5237435 -0.01587099 0.8517281
vn 0.7141957 0.04761302 0.6983248
vn 0.8411638 -0.01587099 0.5405475
vn 0.968132 0.01587105 0.2499373
vn 0.999874 -0.01587099 -0.000346655
vn -0.968132 0.01587105 0.249937
vn -0.968132 -0.01587099 0.249937
vn -0.999874 0.01587105 -0.0003439156
vn -0.6824538 -0.01587099 0.7307565
vn -0.968132 -0.01587099 -0.249937
vn -0.6507117 -0.01587099 0.759159
vn -0.8729059 0.01587105 -0.4876305
vn -0.8094218 -0.01587099 -0.5870132
vn -0.5237435 0.01587105 -0.8517281
vn -0.5237435 0.01587105 -0.8517281
vn 0.01587099 0.01587105 -0.9997481
vn 0.01587099 0.01587105 -0.9997481
vn 0.5237435 -0.01587099 -0.8517281
vn 0.6189696 0.01587105 -0.7852545
vn 0.8729059 -0.01587099 -0.4876305
vn 0.968132 0.01587105 -0.2499373
vn 0.999874 -0.01587099 -0.000346655
vn 0.968132 0.01587105 0.2499373
vn 0.8411638 -0.01587099 0.5405475
vn 0.8411638 -0.01587099 0.5405475
vn 0.5872276 -0.01587099 0.8092663
vn 0.5872276 -0.01587099 0.8092663
vn 0.2063232 -0.01587099 0.9783552
vn 0.2063232 0.01587105 0.9783552
vn -0.2063233 0.01587105 0.9783552
vn -0.2380652 0.01587105 0.9711195
g Round Brick 1x1.331_0
f 3/3/3 2/2/2 1/1/1
f 4/4/4 3/3/3 1/1/1
f 7/7/7 6/6/6 5/5/5
f 8/8/8 7/7/7 5/5/5
f 11/11/11 10/10/10 9/9/9
f 12/12/12 11/11/11 9/9/9
f 15/15/15 14/14/14 13/13/13
f 16/16/16 15/15/15 13/13/13
f 19/19/19 18/18/18 17/17/17
f 20/20/20 19/19/19 17/17/17
f 23/23/23 22/22/22 21/21/21
f 24/24/24 23/23/23 21/21/21
f 27/27/27 26/26/26 25/25/25
f 25/25/25 28/28/28 27/27/27
f 28/28/28 29/29/29 27/27/27
f 28/28/28 30/30/30 29/29/29
f 30/30/30 31/31/31 29/29/29
f 30/30/30 32/32/32 31/31/31
f 32/32/32 33/33/33 31/31/31
f 32/32/32 34/34/34 33/33/33
f 34/34/34 35/35/35 33/33/33
f 34/34/34 36/36/36 35/35/35
f 36/36/36 37/37/37 35/35/35
f 40/40/40 39/39/39 38/38/38
f 38/38/38 41/41/41 40/40/40
f 41/41/41 42/42/42 40/40/40
f 41/41/41 43/43/43 42/42/42
f 41/41/41 44/44/44 43/43/43
f 44/44/44 45/45/45 43/43/43
f 44/44/44 46/46/46 45/45/45
f 46/46/46 47/47/47 45/45/45
f 47/47/47 48/48/48 45/45/45
f 47/47/47 49/49/49 48/48/48
f 49/49/49 50/50/50 48/48/48
f 53/53/53 52/52/52 51/51/51
f 54/54/54 51/51/51 52/52/52
f 55/55/55 52/52/52 53/53/53
f 56/56/56 54/54/54 52/52/52
f 54/54/54 56/56/56 57/57/57
f 56/56/56 58/58/58 57/57/57
f 57/57/57 58/58/58 59/59/59
f 58/58/58 60/60/60 59/59/59
f 59/59/59 60/60/60 61/61/61
f 60/60/60 62/62/62 61/61/61
f 61/61/61 62/62/62 63/63/63
f 62/62/62 64/64/64 63/63/63
f 65/65/65 63/63/63 64/64/64
f 66/66/66 65/65/65 64/64/64
f 65/65/65 66/66/66 67/67/67
f 66/66/66 68/68/68 67/67/67
f 67/67/67 68/68/68 69/69/69
f 68/68/68 70/70/70 69/69/69
f 71/71/71 69/69/69 70/70/70
f 72/72/72 71/71/71 70/70/70
f 72/72/72 73/73/73 71/71/71
f 71/71/71 73/73/73 74/74/74
f 73/73/73 75/75/75 74/74/74
f 74/74/74 75/75/75 76/76/76
f 75/75/75 77/77/77 76/76/76
f 77/77/77 55/55/55 76/76/76
f 76/76/76 55/55/55 53/53/53
f 80/80/80 79/79/79 78/78/78
f 78/78/78 79/79/79 81/81/81
f 82/82/82 79/79/79 80/80/80
f 79/79/79 83/83/83 81/81/81
f 84/84/84 82/82/82 80/80/80
f 85/85/85 82/82/82 84/84/84
f 85/85/85 84/84/84 86/86/86
f 84/84/84 87/87/87 86/86/86
f 86/86/86 87/87/87 88/88/88
f 87/87/87 89/89/89 88/88/88
f 88/88/88 89/89/89 90/90/90
f 89/89/89 91/91/91 90/90/90
f 92/92/92 90/90/90 91/91/91
f 93/93/93 92/92/92 91/91/91
f 94/94/94 92/92/92 93/93/93
f 95/95/95 94/94/94 93/93/93
f 94/94/94 95/95/95 96/96/96
f 95/95/95 97/97/97 96/96/96
f 96/96/96 97/97/97 98/98/98
f 97/97/97 99/99/99 98/98/98
f 98/98/98 99/99/99 100/100/100
f 99/99/99 101/101/101 100/100/100
f 102/102/102 100/100/100 101/101/101
f 103/103/103 100/100/100 102/102/102
f 103/103/103 102/102/102 83/83/83
f 102/102/102 81/81/81 83/83/83
