g RoundCut
v 0.0120301 -0.0037215 -0.0022975
v 0.0120301 -0.0023 0.006014999
v 0.0141421 0 0
v 0.0120301 -0.0023 0.006014999
v 0.007435 0 0.01203
v 0.0120301 0.0023 0.006014999
v 0.0063246 0.0039129 0.0102332
v 0.0120301 0.0023 0.006014999
v 0.007435 0 0.01203
v 0.0120301 -0.0023 0.006014999
v 0.0120301 0.0023 0.006014999
v 0.0141421 0 0
v 0.0120301 -0.0037215 -0.0022975
v 0.01203 0 -0.007434899
v 0.007435 -0.0037215 -0.0097325
v 0.0063246 0 -0.0126491
v 0.007435 -0.0037215 -0.0097325
v 0.01203 0 -0.007434899
v 0.0141421 0 0
v 0.01203 0 -0.007434899
v 0.0120301 -0.0037215 -0.0022975
v 0.007435 0.0037215 -0.0097325
v 0.0063246 0 -0.0126491
v 0.01203 0 -0.007434899
v 0.01203 0 -0.007434899
v 0.0120301 0.0037215 -0.0022975
v 0.007435 0.0037215 -0.0097325
v 0.0120301 0.0037215 -0.0022975
v 0.01203 0 -0.007434899
v 0.0141421 0 0
v 0.0120301 0.0023 0.006014999
v 0.0120301 0.0037215 -0.0022975
v 0.0141421 0 0
v 0.007435 0 0.01203
v 0 -0.0023 0.01345
v 0 0.0023 0.01345
v -0.0063246 0 0.0126491
v 0 0.0023 0.01345
v 0 -0.0023 0.01345
v 0 0.0023 0.01345
v 0.0063246 0.0039129 0.0102332
v 0.007435 0 0.01203
v 0 -0.0023 -0.01345
v 0.007435 -0.0037215 -0.0097325
v 0.0063246 0 -0.0126491
v 0 0.0023 -0.01345
v 0.0063246 0 -0.0126491
v 0.007435 0.0037215 -0.0097325
v -0.007435 -0.0037215 0.0097325
v -0.0063246 0 0.0126491
v 0 -0.0023 0.01345
v 0 -0.0023 -0.01345
v 0 0.0023 -0.01345
v -0.007435 0 -0.01203
v -0.0063246 0.0039129 -0.0102332
v -0.007435 0 -0.01203
v 0 0.0023 -0.01345
v 0 0.0023 -0.01345
v 0 -0.0023 -0.01345
v 0.0063246 0 -0.0126491
v -0.0063246 0 0.0126491
v -0.007435 0.0037215 0.0097325
v 0 0.0023 0.01345
v -0.007435 -0.0037215 0.0097325
v -0.0120301 -0.0037215 0.0022975
v -0.01203 0 0.007434899
v -0.0141421 0 0
v -0.01203 0 0.007434899
v -0.0120301 -0.0037215 0.0022975
v -0.01203 0 0.007434899
v -0.0063246 0 0.0126491
v -0.007435 -0.0037215 0.0097325
v -0.0141421 0 0
v -0.0120301 -0.0037215 0.0022975
v -0.0120301 -0.0023 -0.006014999
v -0.0120301 0.0023 -0.006014999
v -0.007435 0 -0.01203
v -0.0063246 0.0039129 -0.0102332
v -0.007435 0 -0.01203
v -0.0120301 0.0023 -0.006014999
v -0.0120301 -0.0023 -0.006014999
v -0.0141421 0 0
v -0.0120301 -0.0023 -0.006014999
v -0.0120301 0.0023 -0.006014999
v -0.0141421 0 0
v -0.0120301 0.0023 -0.006014999
v -0.0120301 0.0037215 0.0022975
v -0.01203 0 0.007434899
v -0.007435 0.0037215 0.0097325
v -0.0063246 0 0.0126491
v -0.007435 0.0037215 0.0097325
v -0.01203 0 0.007434899
v -0.0120301 0.0037215 0.0022975
v -0.0141421 0 0
v -0.0120301 0.0037215 0.0022975
v -0.01203 0 0.007434899
v 0.0073905 -0.0037353 -0.009724
v 0.0074292 -0.0037353 -0.0097017
v 0.007435 -0.0037215 -0.0097325
v 0.0073727 -0.0037353 -0.0097282
v -0.0091576 -0.0037353 0.006905
v 0.0084013 -0.0037353 -0.008128799
v -0.0091744 -0.0037353 0.0068779
v -0.0086427 -0.0037353 0.0077381
v -0.005627899 -0.0037353 -0.0105876
v 0 -0.0037353 -0.0114686
v -0.0120025 -0.0037353 0.0022614
v -0.0119999 -0.0037353 0.002306
v -0.0120301 -0.0037215 0.0022975
v -0.0102579 -0.0037353 -0.0051289
v -0.0069531 -0.0037353 -0.0097686
v -0.006375 -0.0037353 -0.0103148
v 0.0119382 -0.0037353 -0.0019891
v 0.0120025 -0.0037353 -0.0022614
v 0.0119999 -0.0037353 -0.002306
v 0.0120301 -0.0037215 -0.0022975
v -0.0019808 -0.0037353 0.011001
v 0.0102579 -0.0037353 0.0051289
v 0.0069531 -0.0037353 0.0097686
v -0.0073905 -0.0037353 0.009724
v -0.0074292 -0.0037353 0.0097017
v -0.007435 -0.0037215 0.0097325
v 0.005627899 -0.0037353 0.0105876
v 0 -0.0037353 0.0114686
v 0.006375 -0.0037353 0.0103148
v -0.007435 0.0037215 0.0097325
v -0.0067607 0.0053063 0.0061959
v -0.0023118 0.0053063 0.008754
v 0 -0.0023 -0.01345
v -0.005627899 -0.0037353 -0.0105876
v 0 -0.0037353 -0.0114686
v -0.0091576 -0.0037353 0.006905
v -0.0091744 -0.0037353 0.0068779
v -0.0120301 -0.0037215 0.0022975
v -0.0120301 0.0037215 0.0022975
v -0.0088637 0.0053063 -0.0018473
v -0.0085653 0.0053063 0.0032759
v -0.0120301 -0.0023 -0.006014999
v -0.0102579 -0.0037353 -0.0051289
v -0.0069531 -0.0037353 -0.0097686
v 0.0120301 -0.0023 0.006014999
v 0.0102579 -0.0037353 0.0051289
v 0.0069531 -0.0037353 0.0097686
v -0.0120301 -0.0037215 0.0022975
v -0.0091744 -0.0037353 0.0068779
v -0.0119999 -0.0037353 0.002306
v -0.007435 -0.0037215 0.0097325
v -0.0091576 -0.0037353 0.006905
v -0.0086427 -0.0037353 0.0077381
v -0.0074292 -0.0037353 0.0097017
v 0.0067607 0.0053063 -0.0061959
v 0.0023118 0.0053063 -0.008754
v 0.007435 0.0037215 -0.0097325
v 0.0088638 0.0053063 0.0018473
v 0.0085653 0.0053063 -0.0032759
v 0.0120301 0.0037215 -0.0022975
v 0.005627899 -0.0037353 0.0105876
v 0 -0.0037353 0.0114686
v 0 -0.0023 0.01345
v 0.0119382 -0.0037353 -0.0019891
v 0.0120301 -0.0037215 -0.0022975
v 0.0120025 -0.0037353 -0.0022614
v 0.0063246 0.0039129 0.0102332
v 0.0021451 0.0053063 0.008963999
v 0.0068416 0.0053063 0.0060614
v 0.0070584 0.0053063 0.0059274
v -0.0063246 0.0039129 -0.0102332
v -0.0064443 0.0053063 -0.0063069
v -0.0070584 0.0053063 -0.0059274
v -0.0021451 0.0053063 -0.008963999
v 0 -0.0037353 -0.0114686
v 0.0073727 -0.0037353 -0.0097282
v 0 -0.0023 -0.01345
v 0.007435 -0.0037215 -0.0097325
v 0.0120301 -0.0037215 -0.0022975
v 0.0084013 -0.0037353 -0.008128799
v 0.0119999 -0.0037353 -0.002306
v 0.007435 -0.0037215 -0.0097325
v 0.0074292 -0.0037353 -0.0097017
v 0.008318 0.0053063 0.004159
v 0.0070584 0.0053063 0.0059274
v 0.0068416 0.0053063 0.0060614
v 0.008454399 0.0053063 0.0035814
v -0.0064443 0.0053063 -0.0063069
v 0.0021451 0.0053063 0.008963999
v -0.0070584 0.0053063 -0.0059274
v -0.008318 0.0053063 -0.004159
v -0.0088637 0.0053063 -0.0018473
v -0.0067607 0.0053063 0.0061959
v -0.0085653 0.0053063 0.0032759
v -0.0023118 0.0053063 0.008754
v 0 0.0053063 0.0092998
v -0.0017689 0.0053063 -0.0090229
v -0.0021451 0.0053063 -0.008963999
v 0.0067607 0.0053063 -0.0061959
v 0.0085653 0.0053063 -0.0032759
v 0.0088638 0.0053063 0.0018473
v 0.0023118 0.0053063 -0.008754
v 0 0.0053063 -0.0092998
v 0.0120301 -0.0023 0.006014999
v 0.0119382 -0.0037353 -0.0019891
v 0.0102579 -0.0037353 0.0051289
v 0.0120301 -0.0037215 -0.0022975
v 0 0.0053063 -0.0092998
v -0.0017689 0.0053063 -0.0090229
v 0 0.0023 -0.01345
v -0.0021451 0.0053063 -0.008963999
v -0.0063246 0.0039129 -0.0102332
v 0.0120301 0.0037215 -0.0022975
v 0.008454399 0.0053063 0.0035814
v 0.0088638 0.0053063 0.0018473
v 0.0120301 0.0023 0.006014999
v 0.008318 0.0053063 0.004159
v 0 -0.0037353 0.0114686
v -0.0019808 -0.0037353 0.011001
v 0 -0.0023 0.01345
v -0.007435 -0.0037215 0.0097325
v -0.0073905 -0.0037353 0.009724
v 0 0.0023 0.01345
v 0.0021451 0.0053063 0.008963999
v 0.0063246 0.0039129 0.0102332
v 0 0.0053063 0.0092998
v 0.0073727 -0.0037353 -0.0097282
v 0.0074292 -0.0037353 -0.0097017
v 0.0073905 -0.0037353 -0.009724
v 0.007435 -0.0037215 -0.0097325
v -0.0120301 0.0037215 0.0022975
v -0.0067607 0.0053063 0.0061959
v -0.007435 0.0037215 0.0097325
v -0.0085653 0.0053063 0.0032759
v -0.0023118 0.0053063 0.008754
v 0 0.0023 0.01345
v -0.007435 0.0037215 0.0097325
v 0 0.0053063 0.0092998
v -0.0120301 0.0023 -0.006014999
v -0.0070584 0.0053063 -0.0059274
v -0.008318 0.0053063 -0.004159
v -0.0063246 0.0039129 -0.0102332
v 0.0063246 0.0039129 0.0102332
v 0.008318 0.0053063 0.004159
v 0.0120301 0.0023 0.006014999
v 0.0070584 0.0053063 0.0059274
v -0.007435 0 -0.01203
v -0.005627899 -0.0037353 -0.0105876
v 0 -0.0023 -0.01345
v -0.006375 -0.0037353 -0.0103148
v -0.0120301 0.0023 -0.006014999
v -0.0088637 0.0053063 -0.0018473
v -0.0120301 0.0037215 0.0022975
v -0.008318 0.0053063 -0.004159
v -0.0120301 -0.0037215 0.0022975
v -0.0102579 -0.0037353 -0.0051289
v -0.0120301 -0.0023 -0.006014999
v -0.0120025 -0.0037353 0.0022614
v -0.007435 0 -0.01203
v -0.0069531 -0.0037353 -0.0097686
v -0.006375 -0.0037353 -0.0103148
v -0.0120301 -0.0023 -0.006014999
v 0.007435 0 0.01203
v 0.0069531 -0.0037353 0.0097686
v 0.006375 -0.0037353 0.0103148
v 0.0120301 -0.0023 0.006014999
v 0.0120301 0.0037215 -0.0022975
v 0.0067607 0.0053063 -0.0061959
v 0.007435 0.0037215 -0.0097325
v 0.0085653 0.0053063 -0.0032759
v 0.007435 0 0.01203
v 0.005627899 -0.0037353 0.0105876
v 0 -0.0023 0.01345
v 0.006375 -0.0037353 0.0103148
v 0 0.0023 -0.01345
v 0.0023118 0.0053063 -0.008754
v 0 0.0053063 -0.0092998
v 0.007435 0.0037215 -0.0097325
vt 0 0
vt 0 0
vt 0 0
vt 0 0
vt 0 0
vt 0 0
vt 0 0
vt 0 0
vt 0 0
vt 0 0
vt 0 0
vt 0 0
vt 0 0
vt 0 0
vt 0 0
vt 0 0
vt 0 0
vt 0 0
vt 0 0
vt 0 0
vt 0 0
vt 0 0
vt 0 0
vt 0 0
vt 0 0
vt 0 0
vt 0 0
vt 0 0
vt 0 0
vt 0 0
vt 0 0
vt 0 0
vt 0 0
vt 0 0
vt 0 0
vt 0 0
vt 0 0
vt 0 0
vt 0 0
vt 0 0
vt 0 0
vt 0 0
vt 0 0
vt 0 0
vt 0 0
vt 0 0
vt 0 0
vt 0 0
vt 0 0
vt 0 0
vt 0 0
vt 0 0
vt 0 0
vt 0 0
vt 0 0
vt 0 0
vt 0 0
vt 0 0
vt 0 0
vt 0 0
vt 0 0
vt 0 0
vt 0 0
vt 0 0
vt 0 0
vt 0 0
vt 0 0
vt 0 0
vt 0 0
vt 0 0
vt 0 0
vt 0 0
vt 0 0
vt 0 0
vt 0 0
vt 0 0
vt 0 0
vt 0 0
vt 0 0
vt 0 0
vt 0 0
vt 0 0
vt 0 0
vt 0 0
vt 0 0
vt 0 0
vt 0 0
vt 0 0
vt 0 0
vt 0 0
vt 0 0
vt 0 0
vt 0 0
vt 0 0
vt 0 0
vt 0 0
vt 0 0
vt 0 0
vt 0 0
vt 0 0
vt 0 0
vt 0 0
vt 0 0
vt 0 0
vt 0 0
vt 0 0
vt 0 0
vt 0 0
vt 0 0
vt 0 0
vt 0 0
vt 0 0
vt 0 0
vt 0 0
vt 0 0
vt 0 0
vt 0 0
vt 0 0
vt 0 0
vt 0 0
vt 0 0
vt 0 0
vt 0 0
vt 0 0
vt 0 0
vt 0 0
vt 0 0
vt 0 0
vt 0 0
vt 0 0
vt 0 0
vt 0 0
vt 0 0
vt 0 0
vt 0 0
vt 0 0
vt 0 0
vt 0 0
vt 0 0
vt 0 0
vt 0 0
vt 0 0
vt 0 0
vt 0 0
vt 0 0
vt 0 0
vt 0 0
vt 0 0
vt 0 0
vt 0 0
vt 0 0
vt 0 0
vt 0 0
vt 0 0
vt 0 0
vt 0 0
vt 0 0
vt 0 0
vt 0 0
vt 0 0
vt 0 0
vt 0 0
vt 0 0
vt 0 0
vt 0 0
vt 0 0
vt 0 0
vt 0 0
vt 0 0
vt 0 0
vt 0 0
vt 0 0
vt 0 0
vt 0 0
vt 0 0
vt 0 0
vt 0 0
vt 0 0
vt 0 0
vt 0 0
vt 0 0
vt 0 0
vt 0 0
vt 0 0
vt 0 0
vt 0 0
vt 0 0
vt 0 0
vt 0 0
vt 0 0
vt 0 0
vt 0 0
vt 0 0
vt 0 0
vt 0 0
vt 0 0
vt 0 0
vt 0 0
vt 0 0
vt 0 0
vt 0 0
vt 0 0
vt 0 0
vt 0 0
vt 0 0
vt 0 0
vt 0 0
vt 0 0
vt 0 0
vt 0 0
vt 0 0
vt 0 0
vt 0 0
vt 0 0
vt 0 0
vt 0 0
vt 0 0
vt 0 0
vt 0 0
vt 0 0
vt 0 0
vt 0 0
vt 0 0
vt 0 0
vt 0 0
vt 0 0
vt 0 0
vt 0 0
vt 0 0
vt 0 0
vt 0 0
vt 0 0
vt 0 0
vt 0 0
vt 0 0
vt 0 0
vt 0 0
vt 0 0
vt 0 0
vt 0 0
vt 0 0
vt 0 0
vt 0 0
vt 0 0
vt 0 0
vt 0 0
vt 0 0
vt 0 0
vt 0 0
vt 0 0
vt 0 0
vt 0 0
vt 0 0
vt 0 0
vt 0 0
vt 0 0
vt 0 0
vt 0 0
vt 0 0
vt 0 0
vt 0 0
vt 0 0
vt 0 0
vt 0 0
vt 0 0
vt 0 0
vt 0 0
vt 0 0
vt 0 0
vt 0 0
vt 0 0
vt 0 0
vt 0 0
vt 0 0
vn 0.8408523 -0.5335198 0.09123592
vn 0.8408523 -0.5335198 0.09123592
vn 0.8408523 -0.5335198 0.09123592
vn 0.7946514 0 0.607066
vn 0.7946514 0 0.607066
vn 0.7946514 0 0.607066
vn 0.6071848 0.4673718 0.6425653
vn 0.6071848 0.4673718 0.6425653
vn 0.6071848 0.4673718 0.6425653
vn 0.9435278 0 0.3312936
vn 0.9435278 0 0.3312936
vn 0.9435278 0 0.3312936
vn 0.6884554 -0.5873559 -0.4254904
vn 0.6884554 -0.5873559 -0.4254904
vn 0.6884554 -0.5873559 -0.4254904
vn 0.6312001 -0.3529489 -0.6906617
vn 0.6312001 -0.3529489 -0.6906617
vn 0.6312001 -0.3529489 -0.6906617
vn 0.9000356 -0.3529349 -0.2556813
vn 0.9000356 -0.3529349 -0.2556813
vn 0.9000356 -0.3529349 -0.2556813
vn 0.6312001 0.352949 -0.6906617
vn 0.6312001 0.352949 -0.6906617
vn 0.6312001 0.352949 -0.6906617
vn 0.6884553 0.587356 -0.4254904
vn 0.6884553 0.587356 -0.4254904
vn 0.6884553 0.587356 -0.4254904
vn 0.9000356 0.3529348 -0.2556813
vn 0.9000356 0.3529348 -0.2556813
vn 0.9000356 0.3529348 -0.2556813
vn 0.8408523 0.5335198 0.09123592
vn 0.8408523 0.5335198 0.09123592
vn 0.8408523 0.5335198 0.09123592
vn 0.1875978 0 0.9822459
vn 0.1875978 0 0.9822459
vn 0.1875978 0 0.9822459
vn -0.1256293 0 0.9920772
vn -0.1256293 0 0.9920772
vn -0.1256293 0 0.9920772
vn 0.3031873 0.4673771 0.8304433
vn 0.3031873 0.4673771 0.8304433
vn 0.3031873 0.4673771 0.8304433
vn 0.2944297 -0.5335377 -0.7928737
vn 0.2944297 -0.5335377 -0.7928737
vn 0.2944297 -0.5335377 -0.7928737
vn 0.2944297 0.5335377 -0.7928737
vn 0.2944297 0.5335377 -0.7928737
vn 0.2944297 0.5335377 -0.7928737
vn -0.2944297 -0.5335377 0.7928737
vn -0.2944297 -0.5335377 0.7928737
vn -0.2944297 -0.5335377 0.7928737
vn -0.1875978 0 -0.9822459
vn -0.1875978 0 -0.9822459
vn -0.1875978 0 -0.9822459
vn -0.3031873 0.4673771 -0.8304433
vn -0.3031873 0.4673771 -0.8304433
vn -0.3031873 0.4673771 -0.8304433
vn 0.1256293 0 -0.9920772
vn 0.1256293 0 -0.9920772
vn 0.1256293 0 -0.9920772
vn -0.2944296 0.5335377 0.7928737
vn -0.2944296 0.5335377 0.7928737
vn -0.2944296 0.5335377 0.7928737
vn -0.6884554 -0.587356 0.4254904
vn -0.6884554 -0.587356 0.4254904
vn -0.6884554 -0.587356 0.4254904
vn -0.9000356 -0.3529349 0.2556813
vn -0.9000356 -0.3529349 0.2556813
vn -0.9000356 -0.3529349 0.2556813
vn -0.6312001 -0.3529489 0.6906617
vn -0.6312001 -0.3529489 0.6906617
vn -0.6312001 -0.3529489 0.6906617
vn -0.8408523 -0.5335198 -0.09123592
vn -0.8408523 -0.5335198 -0.09123592
vn -0.8408523 -0.5335198 -0.09123592
vn -0.6071848 0.4673718 -0.6425653
vn -0.6071848 0.4673718 -0.6425653
vn -0.6071848 0.4673718 -0.6425653
vn -0.7946514 0 -0.607066
vn -0.7946514 0 -0.607066
vn -0.7946514 0 -0.607066
vn -0.9435278 0 -0.3312936
vn -0.9435278 0 -0.3312936
vn -0.9435278 0 -0.3312936
vn -0.8408523 0.5335198 -0.09123592
vn -0.8408523 0.5335198 -0.09123592
vn -0.8408523 0.5335198 -0.09123592
vn -0.6312001 0.3529489 0.6906617
vn -0.6312001 0.3529489 0.6906617
vn -0.6312001 0.3529489 0.6906617
vn -0.6884554 0.587356 0.4254904
vn -0.6884554 0.587356 0.4254904
vn -0.6884554 0.587356 0.4254904
vn -0.9000356 0.3529349 0.2556813
vn -0.9000356 0.3529349 0.2556813
vn -0.9000356 0.3529349 0.2556813
vn 0 -1 0
vn 0 -1 0
vn 0 -1 0
vn 0 -1 0
vn 0 -1 0
vn 0 -1 0
vn 0 -1 0
vn 0 -1 0
vn 0 -1 0
vn 0 -1 0
vn 0 -1 0
vn 0 -1 0
vn 0 -1 0
vn 0 -1 0
vn 0 -1 0
vn 0 -1 0
vn 0 -1 0
vn 0 -1 0
vn 0 -1 0
vn 0 -1 0
vn 0 -1 0
vn 0 -1 0
vn 0 -1 0
vn 0 -1 0
vn 0 -1 0
vn 0 -1 0
vn 0 -1 0
vn 0 -1 0
vn 0 -1 0
vn -0.2104885 0.9064699 0.3660694
vn -0.2104885 0.9064699 0.3660694
vn -0.2104885 0.9064699 0.3660694
vn -0.09144898 -0.806453 -0.5841838
vn -0.09144898 -0.806453 -0.5841838
vn -0.09144898 -0.806453 -0.5841838
vn 0 1 0
vn 0 1 0
vn 0 1 0
vn -0.4215535 0.9064711 0.0245533
vn -0.4215535 0.9064711 0.0245533
vn -0.4215535 0.9064711 0.0245533
vn -0.481617 -0.8064502 -0.3430497
vn -0.481617 -0.8064502 -0.3430497
vn -0.481617 -0.8064502 -0.3430497
vn 0.481617 -0.8064502 0.3430497
vn 0.481617 -0.8064502 0.3430497
vn 0.481617 -0.8064502 0.3430497
vn -0.4640707 -0.8380811 0.2868075
vn -0.4637526 -0.8383261 0.2866058
vn -0.4637526 -0.8383261 0.2866058
vn -0.4644587 -0.8377834 0.2870489
vn -0.4640772 -0.838073 0.2868204
vn -0.4644937 -0.8377571 0.2870688
vn -0.4652214 -0.8372034 0.2875057
vn 0.2104885 0.9064699 -0.3660694
vn 0.2104885 0.9064699 -0.3660694
vn 0.2104885 0.9064699 -0.3660694
vn 0.4215553 0.9064699 -0.02456166
vn 0.4215553 0.9064699 -0.02456166
vn 0.4215553 0.9064699 -0.02456166
vn 0.09144897 -0.806453 0.5841838
vn 0.09144897 -0.806453 0.5841838
vn 0.09144897 -0.806453 0.5841838
vn 0.5861531 -0.8102003 0
vn 0.5861531 -0.8102003 0
vn 0.5861531 -0.8102003 0
vn 0.2057305 0.9202582 0.332866
vn 0.2057225 0.9202601 0.3328656
vn 0.2057305 0.9202582 0.332866
vn 0.2057386 0.9202563 0.3328665
vn -0.2057128 0.9202634 -0.3328626
vn -0.2057128 0.9202634 -0.3328626
vn -0.2057018 0.9202657 -0.3328632
vn -0.2057239 0.920261 -0.3328622
vn 0.1371737 -0.8021909 -0.5810964
vn 0.1373227 -0.8020039 -0.5813195
vn 0.1373227 -0.8020039 -0.5813195
vn 0.1374717 -0.8018166 -0.5815424
vn 0.4644151 -0.837817 -0.2870214
vn 0.4646789 -0.8376147 -0.2871848
vn 0.4637527 -0.8383253 -0.286608
vn 0.4651417 -0.8372589 -0.287473
vn 0.4652063 -0.8372098 -0.2875115
vn 0 1 0
vn 0 1 0
vn 0 1 0
vn 0 1 0
vn 0 1 0
vn 0 1 0
vn 0 1 0
vn 0 1 0
vn 0 1 0
vn 0 1 0
vn 0 1 0
vn 0 1 0
vn 0 1 0
vn 0 1 0
vn 0 1 0
vn 0 1 0
vn 0 1 0
vn 0 1 0
vn 0 1 0
vn 0 1 0
vn 0.5810053 -0.8022542 0.1371899
vn 0.5810053 -0.8022542 0.1371899
vn 0.5811009 -0.8021872 0.1371767
vn 0.5809098 -0.8023211 0.1372029
vn -0.09144594 0.8064578 -0.5841776
vn -0.09145445 0.8064556 -0.5841794
vn -0.09145723 0.8064548 -0.5841799
vn -0.0914629 0.8064533 -0.5841812
vn -0.09146287 0.8064533 -0.5841811
vn 0.5810932 0.8021912 0.137186
vn 0.581085 0.8021952 0.137197
vn 0.5810985 0.8021866 0.1371905
vn 0.5810783 0.8021995 0.1372003
vn 0.5810687 0.8022033 0.137219
vn -0.1371771 -0.8021905 0.5810961
vn -0.1372471 -0.8019585 0.5813997
vn -0.1371771 -0.8021905 0.5810961
vn -0.1372821 -0.8018425 0.5815515
vn -0.1373871 -0.8014942 0.5820067
vn 0.09145583 0.8064554 0.5841793
vn 0.09145583 0.8064554 0.5841793
vn 0.09146287 0.8064533 0.5841811
vn 0.09144879 0.8064576 0.5841774
vn 0 1 0
vn 0 1 0
vn 0 1 0
vn 0 1 0
vn -0.4642932 0.8379108 0.2869449
vn -0.4642932 0.8379108 0.2869449
vn -0.4642975 0.8379056 0.2869527
vn -0.4642889 0.8379158 0.286937
vn -0.1371796 0.8021977 0.5810857
vn -0.1371796 0.8021977 0.5810857
vn -0.1371682 0.8022018 0.5810828
vn -0.1371909 0.8021936 0.5810887
vn -0.4816065 0.8064578 -0.3430468
vn -0.4816065 0.8064578 -0.3430468
vn -0.4816077 0.8064597 -0.3430406
vn -0.4816053 0.8064559 -0.343053
vn 0.4816139 0.8064517 0.3430507
vn 0.4816139 0.8064517 0.3430507
vn 0.4816031 0.8064589 0.3430489
vn 0.4816245 0.8064445 0.3430525
vn -0.3032064 -0.4673664 -0.8304424
vn -0.3032064 -0.4673664 -0.8304424
vn -0.3031841 -0.4673601 -0.8304541
vn -0.3032288 -0.4673727 -0.8304307
vn -0.5810829 0.8022001 -0.1371772
vn -0.5810829 0.8022001 -0.1371772
vn -0.5810781 0.8022027 -0.1371827
vn -0.5810879 0.8021976 -0.1371717
vn -0.580837 -0.8023885 -0.1371171
vn -0.580837 -0.8023885 -0.1371171
vn -0.5810996 -0.8021876 -0.1371801
vn -0.5805745 -0.8025892 -0.137054
vn -0.6071705 -0.4673623 -0.6425858
vn -0.6071705 -0.4673623 -0.6425858
vn -0.6071447 -0.4673702 -0.6426044
vn -0.6071962 -0.4673545 -0.6425672
vn 0.6071705 -0.4673623 0.6425858
vn 0.6071705 -0.4673623 0.6425858
vn 0.6071447 -0.4673702 0.6426044
vn 0.6071962 -0.4673545 0.6425672
vn 0.4642932 0.8379108 -0.2869449
vn 0.4642932 0.8379108 -0.2869449
vn 0.4642975 0.8379056 -0.2869527
vn 0.4642889 0.8379158 -0.286937
vn 0.3032064 -0.4673664 0.8304424
vn 0.3032064 -0.4673664 0.8304424
vn 0.3031841 -0.4673601 0.8304541
vn 0.3032288 -0.4673727 0.8304307
vn 0.1371796 0.8021977 -0.5810857
vn 0.1371796 0.8021977 -0.5810857
vn 0.1371909 0.8021936 -0.5810887
vn 0.1371682 0.8022018 -0.5810828
g RoundCut_0
f 3/3/3 2/2/2 1/1/1
f 6/6/6 5/5/5 4/4/4
f 9/9/9 8/8/8 7/7/7
f 12/12/12 11/11/11 10/10/10
f 15/15/15 14/14/14 13/13/13
f 18/18/18 17/17/17 16/16/16
f 21/21/21 20/20/20 19/19/19
f 24/24/24 23/23/23 22/22/22
f 27/27/27 26/26/26 25/25/25
f 30/30/30 29/29/29 28/28/28
f 33/33/33 32/32/32 31/31/31
f 36/36/36 35/35/35 34/34/34
f 39/39/39 38/38/38 37/37/37
f 42/42/42 41/41/41 40/40/40
f 45/45/45 44/44/44 43/43/43
f 48/48/48 47/47/47 46/46/46
f 51/51/51 50/50/50 49/49/49
f 54/54/54 53/53/53 52/52/52
f 57/57/57 56/56/56 55/55/55
f 60/60/60 59/59/59 58/58/58
f 63/63/63 62/62/62 61/61/61
f 66/66/66 65/65/65 64/64/64
f 69/69/69 68/68/68 67/67/67
f 72/72/72 71/71/71 70/70/70
f 75/75/75 74/74/74 73/73/73
f 78/78/78 77/77/77 76/76/76
f 81/81/81 80/80/80 79/79/79
f 84/84/84 83/83/83 82/82/82
f 87/87/87 86/86/86 85/85/85
f 90/90/90 89/89/89 88/88/88
f 93/93/93 92/92/92 91/91/91
f 96/96/96 95/95/95 94/94/94
f 99/99/99 98/98/98 97/97/97
f 101/101/101 100/100/100 98/98/98
f 98/98/98 102/102/102 101/101/101
f 100/100/100 101/101/101 103/103/103
f 104/104/104 101/101/101 102/102/102
f 103/103/103 105/105/105 100/100/100
f 106/106/106 100/100/100 105/105/105
f 105/105/105 103/103/103 107/107/107
f 108/108/108 107/107/107 103/103/103
f 107/107/107 108/108/108 109/109/109
f 107/107/107 110/110/110 105/105/105
f 110/110/110 111/111/111 105/105/105
f 112/112/112 105/105/105 111/111/111
f 104/104/104 102/102/102 113/113/113
f 114/114/114 113/113/113 102/102/102
f 102/102/102 115/115/115 114/114/114
f 116/116/116 114/114/114 115/115/115
f 113/113/113 117/117/117 104/104/104
f 113/113/113 118/118/118 117/117/117
f 119/119/119 117/117/117 118/118/118
f 120/120/120 104/104/104 117/117/117
f 120/120/120 121/121/121 104/104/104
f 122/122/122 121/121/121 120/120/120
f 117/117/117 119/119/119 123/123/123
f 123/123/123 124/124/124 117/117/117
f 125/125/125 123/123/123 119/119/119
f 128/128/128 127/127/127 126/126/126
f 131/131/131 130/130/130 129/129/129
f 134/134/134 133/133/133 132/132/132
f 137/137/137 136/136/136 135/135/135
f 140/140/140 139/139/139 138/138/138
f 143/143/143 142/142/142 141/141/141
f 146/146/146 145/145/145 144/144/144
f 144/144/144 148/148/148 147/147/147
f 149/149/149 147/147/147 148/148/148
f 147/147/147 149/149/149 150/150/150
f 153/153/153 152/152/152 151/151/151
f 156/156/156 155/155/155 154/154/154
f 159/159/159 158/158/158 157/157/157
f 162/162/162 161/161/161 160/160/160
f 165/165/165 164/164/164 163/163/163
f 166/166/166 165/165/165 163/163/163
f 169/169/169 168/168/168 167/167/167
f 167/167/167 168/168/168 170/170/170
f 173/173/173 172/172/172 171/171/171
f 173/173/173 174/174/174 172/172/172
f 177/177/177 176/176/176 175/175/175
f 175/175/175 176/176/176 178/178/178
f 179/179/179 178/178/178 176/176/176
f 182/182/182 181/181/181 180/180/180
f 180/180/180 183/183/183 182/182/182
f 184/184/184 182/182/182 183/183/183
f 182/182/182 184/184/184 185/185/185
f 186/186/186 185/185/185 184/184/184
f 186/186/186 187/187/187 185/185/185
f 188/188/188 185/185/185 187/187/187
f 185/185/185 188/188/188 189/189/189
f 190/190/190 189/189/189 188/188/188
f 189/189/189 191/191/191 185/185/185
f 192/192/192 185/185/185 191/191/191
f 183/183/183 193/193/193 184/184/184
f 194/194/194 184/184/184 193/193/193
f 193/193/193 183/183/183 195/195/195
f 196/196/196 195/195/195 183/183/183
f 183/183/183 197/197/197 196/196/196
f 195/195/195 198/198/198 193/193/193
f 199/199/199 193/193/193 198/198/198
f 202/202/202 201/201/201 200/200/200
f 200/200/200 201/201/201 203/203/203
f 206/206/206 205/205/205 204/204/204
f 205/205/205 206/206/206 207/207/207
f 208/208/208 207/207/207 206/206/206
f 211/211/211 210/210/210 209/209/209
f 209/209/209 210/210/210 212/212/212
f 213/213/213 212/212/212 210/210/210
f 216/216/216 215/215/215 214/214/214
f 216/216/216 217/217/217 215/215/215
f 218/218/218 215/215/215 217/217/217
f 221/221/221 220/220/220 219/219/219
f 222/222/222 219/219/219 220/220/220
f 225/225/225 224/224/224 223/223/223
f 225/225/225 223/223/223 226/226/226
f 229/229/229 228/228/228 227/227/227
f 230/230/230 227/227/227 228/228/228
f 233/233/233 232/232/232 231/231/231
f 234/234/234 231/231/231 232/232/232
f 237/237/237 236/236/236 235/235/235
f 238/238/238 235/235/235 236/236/236
f 241/241/241 240/240/240 239/239/239
f 242/242/242 239/239/239 240/240/240
f 245/245/245 244/244/244 243/243/243
f 246/246/246 243/243/243 244/244/244
f 249/249/249 248/248/248 247/247/247
f 250/250/250 247/247/247 248/248/248
f 253/253/253 252/252/252 251/251/251
f 254/254/254 251/251/251 252/252/252
f 257/257/257 256/256/256 255/255/255
f 258/258/258 255/255/255 256/256/256
f 261/261/261 260/260/260 259/259/259
f 262/262/262 259/259/259 260/260/260
f 265/265/265 264/264/264 263/263/263
f 266/266/266 263/263/263 264/264/264
f 269/269/269 268/268/268 267/267/267
f 270/270/270 267/267/267 268/268/268
f 273/273/273 272/272/272 271/271/271
f 274/274/274 271/271/271 272/272/272
