g Round Brick 1x1.319
v -1.300335 0.4359804 0.3241228
v -1.300335 0.4359804 -0.324143
v 1.300355 0.4359804 -0.324143
v 1.300355 0.4359804 0.3241228
v 1.300355 -0.5809071 0.3241228
v 1.300355 -0.5809071 -0.324143
v -1.300335 -0.5809071 -0.324143
v -1.300335 -0.5809071 0.3241228
v -1.300335 0.4359804 -0.324143
v -1.300335 -0.5809071 -0.324143
v 1.300355 -0.5809071 -0.324143
v 1.300355 0.4359804 -0.324143
v 1.300355 0.4359804 0.3241228
v 1.300355 -0.5809071 0.3241228
v -1.300335 -0.5809071 0.3241228
v -1.300335 0.4359804 0.3241228
v -1.300335 0.4359804 0.3241228
v -1.300335 -0.5809071 0.3241228
v -1.300335 -0.5809071 -0.324143
v -1.300335 0.4359804 -0.324143
v 1.300355 0.4359804 -0.324143
v 1.300355 -0.5809071 -0.324143
v 1.300355 -0.5809071 0.3241228
v 1.300355 0.4359804 0.3241228
v -0.5478381 0.5376692 -0.12585
v -0.3851361 0.5376692 -0.2504187
v -0.2275186 0.5376692 -0.2351654
v -0.1207453 0.5376692 -0.1538143
v -0.06990099 0.5376692 -0.01399231
v -0.5732603 0.5376692 0.04447877
v -0.128372 0.5376692 0.1741319
v -0.5122471 0.5376692 0.1715897
v -0.3520873 0.5376692 0.2580252
v -1.058824 0.5376692 -0.2402498
v -0.9088331 0.5376692 -0.2453341
v -0.7715534 0.5376692 -0.1563566
v -1.16814 0.5376692 -0.1639832
v -1.226611 0.5376692 -0.04195666
v -0.720709 0.5376692 0.01142991
v -1.191019 0.5376692 0.1436253
v -0.7842644 0.5376692 0.1715897
v -0.9876419 0.5376692 0.2605674
v 0.8325868 0.5376692 -0.2148275
v 1.051218 0.5376692 -0.2504187
v 1.198666 0.5376692 -0.1207654
v 0.7486936 0.5376692 -0.1105967
v 1.229173 0.5376692 0.03430986
v 0.7181869 0.5376692 0.02159882
v 0.8097068 0.5376692 0.1970119
v 1.157991 0.5376692 0.1766741
v 1.005458 0.5376692 0.2554829
v 0.1080544 0.5376692 -0.138561
v 0.2555031 0.5376692 -0.2478764
v 0.4665073 0.5376692 -0.2173698
v 0.5707383 0.5376692 -0.05975223
v 0.06992114 0.5376692 -0.001281142
v 0.568196 0.5376692 0.07244313
v 0.1131388 0.5376692 0.1487098
v 0.4919295 0.5376692 0.1944697
v 0.3038052 0.5376692 0.2605674
v 0.2809253 0.4359804 -0.2580453
v 0.2555031 0.5376692 -0.2478764
v 0.1080544 0.5376692 -0.138561
v 0.4665073 0.5376692 -0.2173698
v 0.1055121 0.4359804 -0.1360188
v 0.4792184 0.4359804 -0.2021165
v 0.06992114 0.5376692 -0.001281142
v 0.5656538 0.4359804 -0.08008993
v 0.07246327 0.4359804 0.06735873
v 0.5707383 0.5376692 -0.05975223
v 0.1131388 0.5376692 0.1487098
v 0.1970321 0.4359804 0.2198919
v 0.3038052 0.5376692 0.2605674
v 0.3597341 0.4359804 0.2529407
v 0.5656538 0.4359804 0.08515429
v 0.568196 0.5376692 0.07244313
v 0.4919295 0.5376692 0.1944697
v 0.4817606 0.4359804 0.1970119
v -0.5732603 0.5376692 0.04447877
v -0.5758026 0.4359804 0.06735873
v -0.5478381 0.5376692 -0.12585
v -0.5122471 0.5376692 0.1715897
v -0.5427537 0.4359804 -0.1360188
v -0.4385227 0.4359804 0.2300607
v -0.4258116 0.4359804 -0.2326231
v -0.3520873 0.5376692 0.2580252
v -0.3851361 0.5376692 -0.2504187
v -0.2809051 0.4359804 0.2503985
v -0.2936162 0.4359804 -0.2529609
v -0.128372 0.5376692 0.1741319
v -0.2275186 0.5376692 -0.2351654
v -0.1207453 0.4359804 0.1639631
v -0.1385409 0.4359804 -0.1792365
v -0.06990099 0.5376692 -0.01399231
v -0.1207453 0.5376692 -0.1538143
v -0.06990099 0.4359804 -0.0190767
v 1.201209 0.4359804 -0.1182233
v 1.198666 0.5376692 -0.1207654
v 1.051218 0.5376692 -0.2504187
v 1.229173 0.5376692 0.03430986
v 1.109689 0.4359804 -0.2148275
v 1.226631 0.4359804 0.04447877
v 0.9800355 0.4359804 -0.2555031
v 1.157991 0.5376692 0.1766741
v 0.8325868 0.5376692 -0.2148275
v 1.1224 0.4359804 0.2122653
v 0.7944535 0.4359804 -0.1868632
v 1.005458 0.5376692 0.2554829
v 0.7486936 0.5376692 -0.1105967
v 0.9291911 0.4359804 0.2529407
v 0.7207292 0.4359804 -0.01399231
v 0.8097068 0.5376692 0.1970119
v 0.7181869 0.5376692 0.02159882
v 0.7690313 0.4359804 0.1537942
v -1.041029 0.4359804 -0.2504187
v -1.058824 0.5376692 -0.2402498
v -1.16814 0.5376692 -0.1639832
v -0.9088331 0.5376692 -0.2453341
v -1.193562 0.4359804 -0.1360188
v -0.8478199 0.4359804 -0.2224542
v -1.226611 0.5376692 -0.04195666
v -0.7715534 0.5376692 -0.1563566
v -1.226611 0.4359804 0.06735873
v -0.743589 0.4359804 -0.1029699
v -1.191019 0.5376692 0.1436253
v -0.720709 0.5376692 0.01142991
v -1.102042 0.4359804 0.2198919
v -0.7232512 0.4359804 0.05464768
v -0.9876419 0.5376692 0.2605674
v -0.9240865 0.4359804 0.2529407
v -0.7842644 0.5376692 0.1715897
v -0.7944332 0.4359804 0.1766741
vt 0.7706862 0.5137804
vt 0.7706862 0.5137804
vt 0.7706862 0.5137804
vt 0.7706862 0.5137804
vt 0.7706862 0.5137804
vt 0.7706862 0.5137804
vt 0.7706862 0.5137804
vt 0.7706862 0.5137804
vt 0.7706862 0.5137804
vt 0.7706862 0.5137804
vt 0.7706862 0.5137804
vt 0.7706862 0.5137804
vt 0.7706862 0.5137804
vt 0.7706862 0.5137804
vt 0.7706862 0.5137804
vt 0.7706862 0.5137804
vt 0.7706862 0.5137804
vt 0.7706862 0.5137804
vt 0.7706862 0.5137804
vt 0.7706862 0.5137804
vt 0.7706862 0.5137804
vt 0.7706862 0.5137804
vt 0.7706862 0.5137804
vt 0.7706862 0.5137804
vt 0.7706862 0.5137804
vt 0.7706862 0.5137804
vt 0.7706862 0.5137804
vt 0.7706862 0.5137804
vt 0.7706862 0.5137804
vt 0.7706862 0.5137804
vt 0.7706862 0.5137804
vt 0.7706862 0.5137804
vt 0.7706862 0.5137804
vt 0.7706862 0.5137804
vt 0.7706862 0.5137804
vt 0.7706862 0.5137804
vt 0.7706862 0.5137804
vt 0.7706862 0.5137804
vt 0.7706862 0.5137804
vt 0.7706862 0.5137804
vt 0.7706862 0.5137804
vt 0.7706862 0.5137804
vt 0.7706862 0.5137804
vt 0.7706862 0.5137804
vt 0.7706862 0.5137804
vt 0.7706862 0.5137804
vt 0.7706862 0.5137804
vt 0.7706862 0.5137804
vt 0.7706862 0.5137804
vt 0.7706862 0.5137804
vt 0.7706862 0.5137804
vt 0.7706862 0.5137804
vt 0.7706862 0.5137804
vt 0.7706862 0.5137804
vt 0.7706862 0.5137804
vt 0.7706862 0.5137804
vt 0.7706862 0.5137804
vt 0.7706862 0.5137804
vt 0.7706862 0.5137804
vt 0.7706862 0.5137804
vt 0.7706862 0.5137804
vt 0.7706862 0.5137804
vt 0.7706862 0.5137804
vt 0.7706862 0.5137804
vt 0.7706862 0.5137804
vt 0.7706862 0.5137804
vt 0.7706862 0.5137804
vt 0.7706862 0.5137804
vt 0.7706862 0.5137804
vt 0.7706862 0.5137804
vt 0.7706862 0.5137804
vt 0.7706862 0.5137804
vt 0.7706862 0.5137804
vt 0.7706862 0.5137804
vt 0.7706862 0.5137804
vt 0.7706862 0.5137804
vt 0.7706862 0.5137804
vt 0.7706862 0.5137804
vt 0.7706862 0.5137804
vt 0.7706862 0.5137804
vt 0.7706862 0.5137804
vt 0.7706862 0.5137804
vt 0.7706862 0.5137804
vt 0.7706862 0.5137804
vt 0.7706862 0.5137804
vt 0.7706862 0.5137804
vt 0.7706862 0.5137804
vt 0.7706862 0.5137804
vt 0.7706862 0.5137804
vt 0.7706862 0.5137804
vt 0.7706862 0.5137804
vt 0.7706862 0.5137804
vt 0.7706862 0.5137804
vt 0.7706862 0.5137804
vt 0.7706862 0.5137804
vt 0.7706862 0.5137804
vt 0.7706862 0.5137804
vt 0.7706862 0.5137804
vt 0.7706862 0.5137804
vt 0.7706862 0.5137804
vt 0.7706862 0.5137804
vt 0.7706862 0.5137804
vt 0.7706862 0.5137804
vt 0.7706862 0.5137804
vt 0.7706862 0.5137804
vt 0.7706862 0.5137804
vt 0.7706862 0.5137804
vt 0.7706862 0.5137804
vt 0.7706862 0.5137804
vt 0.7706862 0.5137804
vt 0.7706862 0.5137804
vt 0.7706862 0.5137804
vt 0.7706862 0.5137804
vt 0.7706862 0.5137804
vt 0.7706862 0.5137804
vt 0.7706862 0.5137804
vt 0.7706862 0.5137804
vt 0.7706862 0.5137804
vt 0.7706862 0.5137804
vt 0.7706862 0.5137804
vt 0.7706862 0.5137804
vt 0.7706862 0.5137804
vt 0.7706862 0.5137804
vt 0.7706862 0.5137804
vt 0.7706862 0.5137804
vt 0.7706862 0.5137804
vt 0.7706862 0.5137804
vt 0.7706862 0.5137804
vt 0.7706862 0.5137804
vt 0.7706862 0.5137804
vt 0.7706862 0.5137804
vt 0.7706862 0.5137804
vn -0.01587105 0.999874 -0.000345267
vn -0.01587105 0.999874 -0.000345267
vn -0.01587105 0.999874 -0.000345267
vn -0.01587105 0.999874 -0.000345267
vn -0.01587105 -0.999874 -0.000345267
vn -0.01587105 -0.999874 -0.000345267
vn -0.01587105 -0.999874 -0.000345267
vn -0.01587105 -0.999874 -0.000345267
vn -0.01587105 0.01587105 -0.9997481
vn -0.01587105 0.01587105 -0.9997481
vn -0.01587105 0.01587105 -0.9997481
vn -0.01587105 0.01587105 -0.9997481
vn 0.01587099 -0.01587099 0.9997481
vn 0.01587099 -0.01587099 0.9997481
vn 0.01587099 -0.01587099 0.9997481
vn 0.01587099 -0.01587099 0.9997481
vn -0.999874 0.01587105 -0.0003439156
vn -0.999874 0.01587105 -0.0003439156
vn -0.999874 0.01587105 -0.0003439156
vn -0.999874 0.01587105 -0.0003439156
vn 0.999874 0.01587105 -0.0003439156
vn 0.999874 0.01587105 -0.0003439156
vn 0.999874 0.01587105 -0.0003439156
vn 0.999874 0.01587105 -0.0003439156
vn -0.01587105 0.999874 -0.000345267
vn -0.01587105 0.999874 -0.000345267
vn -0.01587105 0.999874 -0.000345267
vn -0.01587105 0.999874 -0.000345267
vn -0.01587105 0.999874 -0.000345267
vn -0.01587105 0.999874 -0.000345267
vn -0.01587105 0.999874 -0.000345267
vn -0.01587105 0.999874 -0.000345267
vn -0.01587105 0.999874 -0.000345267
vn -0.01587105 0.999874 -0.000345267
vn -0.01587105 0.999874 -0.000345267
vn -0.01587105 0.999874 -0.000345267
vn -0.01587105 0.999874 -0.000345267
vn -0.01587105 0.999874 -0.000345267
vn -0.01587105 0.999874 -0.000345267
vn -0.01587105 0.999874 -0.000345267
vn -0.01587105 0.999874 -0.000345267
vn -0.01587105 0.999874 -0.000345267
vn -0.01587105 0.999874 -0.000345267
vn -0.01587105 0.999874 -0.000345267
vn -0.01587105 0.999874 -0.000345267
vn -0.01587105 0.999874 -0.000345267
vn -0.01587105 0.999874 -0.000345267
vn -0.01587105 0.999874 -0.000345267
vn -0.01587105 0.999874 -0.000345267
vn -0.01587105 0.999874 -0.000345267
vn -0.01587105 0.999874 -0.000345267
vn -0.01587105 0.999874 -0.000345267
vn -0.01587105 0.999874 -0.000345267
vn -0.01587105 0.999874 -0.000345267
vn -0.01587105 0.999874 -0.000345267
vn -0.01587105 0.999874 -0.000345267
vn -0.01587105 0.999874 -0.000345267
vn -0.01587105 0.999874 -0.000345267
vn -0.01587105 0.999874 -0.000345267
vn -0.01587105 0.999874 -0.000345267
vn -0.1745812 0.01587105 -0.9845148
vn -0.3015493 0.04761302 -0.952261
vn -0.8411639 -0.04761302 -0.5386802
vn 0.5237435 -0.01587099 -0.8517281
vn -0.8411639 -0.04761302 -0.5386802
vn 0.6189696 -0.04761302 -0.7839704
vn -0.999874 0.01587105 -0.0003439156
vn 0.9363899 0.01587105 -0.3506023
vn -0.968132 -0.01587099 0.249937
vn 0.968132 0.01587105 -0.2499373
vn -0.7776798 0.01587105 0.6284602
vn -0.5237435 0.01587105 0.8517281
vn -0.07935512 0.01587105 0.9967201
vn 0.1745812 0.01587105 0.9845148
vn 0.9363899 -0.01587099 0.3506023
vn 0.968132 0.01587105 0.2499373
vn 0.6507117 0.01587105 0.759159
vn 0.6189696 -0.01587099 0.7852545
vn -0.9988682 0.04756513 0
vn -0.968132 -0.01587099 0.249937
vn -0.8729059 0.01587105 -0.4876305
vn -0.7459378 -0.01587099 0.6658264
vn -0.8411639 0.01587105 -0.5405474
vn -0.4602594 -0.01587099 0.8876426
vn -0.4602594 -0.01587099 -0.8876426
vn -0.07935512 0.04761302 0.9957087
vn -0.2698073 0.01587105 -0.9627835
vn 0.2380652 0.01587105 0.9711195
vn 0.1428391 -0.01587099 -0.9896187
vn 0.7459377 0.01587105 0.6658266
vn 0.3650333 0.01587105 -0.9308591
vn 0.8094218 -0.01587099 0.5870132
vn 0.7459377 -0.01587099 -0.6658266
vn 0.999874 -0.01587099 -0.000346655
vn 0.8094218 0.01587105 -0.5870132
vn 0.999874 -0.01587099 -0.000346655
vn 0.8729059 0.04761302 -0.4855599
vn 0.8729059 0.04761302 -0.4855599
vn 0.3015493 0.01587105 -0.9533185
vn 0.999874 0.01587105 -0.0003439156
vn 0.5872276 -0.01587099 -0.8092663
vn 0.968132 -0.01587099 0.2499373
vn -0.04761302 0.01587105 -0.9987398
vn 0.7459377 0.01587105 0.6658266
vn -0.4920015 0.01587105 -0.8704497
vn 0.5554855 -0.01587099 0.8313747
vn -0.6824538 -0.01587099 -0.7307565
vn 0.1110971 -0.01587099 0.9936828
vn -0.9046479 -0.01587099 -0.425864
vn -0.2063233 -0.01587099 0.9783552
vn -0.9988682 -0.04756513 0
vn -0.6189697 0.01587105 0.7852545
vn -0.999874 0.01587105 -0.0003439156
vn -0.8094218 0.01587105 0.5870132
vn -0.2698073 -0.01587099 -0.9627835
vn -0.3650334 0.01587105 -0.9308591
vn -0.7459378 0.01587105 -0.6658264
vn 0.2380652 -0.01587099 -0.9711195
vn -0.8411639 -0.04761302 -0.5386802
vn 0.4920015 -0.01587099 -0.8704497
vn -0.999874 -0.01587099 -0.000346655
vn 0.8094218 0.01587105 -0.5870132
vn -0.968132 -0.01587099 0.249937
vn 0.9363899 -0.01587099 -0.3506023
vn -0.8094218 0.01587105 0.5870132
vn 0.9988682 0.04756513 0
vn -0.4920015 0.04761302 0.8692914
vn 0.968132 0.01587105 0.2499373
vn -0.04761302 0.01587105 0.9987398
vn 0.2380652 0.01587105 0.9711195
vn 0.7141957 0.04761302 0.6983248
vn 0.6824536 -0.04761302 0.7293765
g Round Brick 1x1.319_0
f 3/3/3 2/2/2 1/1/1
f 4/4/4 3/3/3 1/1/1
f 7/7/7 6/6/6 5/5/5
f 8/8/8 7/7/7 5/5/5
f 11/11/11 10/10/10 9/9/9
f 12/12/12 11/11/11 9/9/9
f 15/15/15 14/14/14 13/13/13
f 16/16/16 15/15/15 13/13/13
f 19/19/19 18/18/18 17/17/17
f 20/20/20 19/19/19 17/17/17
f 23/23/23 22/22/22 21/21/21
f 24/24/24 23/23/23 21/21/21
f 27/27/27 26/26/26 25/25/25
f 25/25/25 28/28/28 27/27/27
f 25/25/25 29/29/29 28/28/28
f 25/25/25 30/30/30 29/29/29
f 30/30/30 31/31/31 29/29/29
f 30/30/30 32/32/32 31/31/31
f 32/32/32 33/33/33 31/31/31
f 36/36/36 35/35/35 34/34/34
f 34/34/34 37/37/37 36/36/36
f 37/37/37 38/38/38 36/36/36
f 38/38/38 39/39/39 36/36/36
f 38/38/38 40/40/40 39/39/39
f 40/40/40 41/41/41 39/39/39
f 40/40/40 42/42/42 41/41/41
f 45/45/45 44/44/44 43/43/43
f 43/43/43 46/46/46 45/45/45
f 46/46/46 47/47/47 45/45/45
f 46/46/46 48/48/48 47/47/47
f 48/48/48 49/49/49 47/47/47
f 49/49/49 50/50/50 47/47/47
f 49/49/49 51/51/51 50/50/50
f 54/54/54 53/53/53 52/52/52
f 52/52/52 55/55/55 54/54/54
f 52/52/52 56/56/56 55/55/55
f 56/56/56 57/57/57 55/55/55
f 56/56/56 58/58/58 57/57/57
f 58/58/58 59/59/59 57/57/57
f 58/58/58 60/60/60 59/59/59
f 63/63/63 62/62/62 61/61/61
f 64/64/64 61/61/61 62/62/62
f 65/65/65 63/63/63 61/61/61
f 66/66/66 61/61/61 64/64/64
f 67/67/67 63/63/63 65/65/65
f 68/68/68 66/66/66 64/64/64
f 69/69/69 67/67/67 65/65/65
f 70/70/70 68/68/68 64/64/64
f 67/67/67 69/69/69 71/71/71
f 69/69/69 72/72/72 71/71/71
f 71/71/71 72/72/72 73/73/73
f 72/72/72 74/74/74 73/73/73
f 75/75/75 68/68/68 70/70/70
f 76/76/76 75/75/75 70/70/70
f 73/73/73 74/74/74 77/77/77
f 77/77/77 75/75/75 76/76/76
f 74/74/74 78/78/78 77/77/77
f 78/78/78 75/75/75 77/77/77
f 81/81/81 80/80/80 79/79/79
f 79/79/79 80/80/80 82/82/82
f 83/83/83 80/80/80 81/81/81
f 80/80/80 84/84/84 82/82/82
f 83/83/83 81/81/81 85/85/85
f 82/82/82 84/84/84 86/86/86
f 81/81/81 87/87/87 85/85/85
f 84/84/84 88/88/88 86/86/86
f 89/89/89 85/85/85 87/87/87
f 86/86/86 88/88/88 90/90/90
f 91/91/91 89/89/89 87/87/87
f 88/88/88 92/92/92 90/90/90
f 93/93/93 89/89/89 91/91/91
f 94/94/94 90/90/90 92/92/92
f 95/95/95 93/93/93 91/91/91
f 96/96/96 94/94/94 92/92/92
f 93/93/93 95/95/95 96/96/96
f 95/95/95 94/94/94 96/96/96
f 99/99/99 98/98/98 97/97/97
f 100/100/100 97/97/97 98/98/98
f 101/101/101 99/99/99 97/97/97
f 102/102/102 97/97/97 100/100/100
f 101/101/101 103/103/103 99/99/99
f 104/104/104 102/102/102 100/100/100
f 99/99/99 103/103/103 105/105/105
f 106/106/106 102/102/102 104/104/104
f 103/103/103 107/107/107 105/105/105
f 108/108/108 106/106/106 104/104/104
f 105/105/105 107/107/107 109/109/109
f 110/110/110 106/106/106 108/108/108
f 107/107/107 111/111/111 109/109/109
f 112/112/112 110/110/110 108/108/108
f 109/109/109 111/111/111 113/113/113
f 114/114/114 110/110/110 112/112/112
f 111/111/111 114/114/114 113/113/113
f 113/113/113 114/114/114 112/112/112
f 117/117/117 116/116/116 115/115/115
f 118/118/118 115/115/115 116/116/116
f 119/119/119 117/117/117 115/115/115
f 120/120/120 115/115/115 118/118/118
f 117/117/117 119/119/119 121/121/121
f 122/122/122 120/120/120 118/118/118
f 119/119/119 123/123/123 121/121/121
f 124/124/124 120/120/120 122/122/122
f 121/121/121 123/123/123 125/125/125
f 126/126/126 124/124/124 122/122/122
f 123/123/123 127/127/127 125/125/125
f 128/128/128 124/124/124 126/126/126
f 125/125/125 127/127/127 129/129/129
f 127/127/127 130/130/130 129/129/129
f 131/131/131 128/128/128 126/126/126
f 129/129/129 130/130/130 131/131/131
f 132/132/132 128/128/128 131/131/131
f 130/130/130 132/132/132 131/131/131
