g Round Brick 1x1.324
v -0.3249335 0.1483431 0.3249335
v -0.3249335 0.1483431 -0.324894
v 0.324894 0.1483431 -0.324894
v 0.324894 0.1483431 0.3249335
v 0.324894 -0.2334226 -0.324894
v -0.3249335 -0.2334226 -0.324894
v -0.3249335 -0.2334226 0.3249335
v 0.324894 -0.2334226 0.3249335
v 0.324894 0.1483431 0.3249335
v 0.324894 -0.2334226 0.3249335
v -0.3249335 -0.2334226 0.3249335
v -0.3249335 0.1483431 0.3249335
v -0.3249335 0.1483431 -0.324894
v -0.3249335 -0.2334226 -0.324894
v 0.324894 -0.2334226 -0.324894
v 0.324894 0.1483431 -0.324894
v 0.324894 0.1483431 -0.324894
v 0.324894 -0.2334226 -0.324894
v 0.324894 -0.2334226 0.3249335
v 0.324894 0.1483431 0.3249335
v -0.3249335 0.1483431 0.3249335
v -0.3249335 -0.2334226 0.3249335
v -0.3249335 -0.2334226 -0.324894
v -0.3249335 0.1483431 -0.324894
v -0.2074183 0.2487074 -0.1540205
v -0.06068304 0.2487074 -0.2467622
v 0.1279765 0.2487074 -0.2270705
v 0.246127 0.2487074 -0.06890133
v -0.2531539 0.2487074 0.05369565
v 0.2296113 0.2487074 0.1203935
v -0.1515191 0.2487074 0.2042422
v 0.03841087 0.2487074 0.2588709
v 0.2296113 0.2487074 0.1203935
v 0.2162718 0.1483431 0.1343683
v 0.08224088 0.1483431 0.2448961
v 0.2556553 0.1483431 -0.03459957
v 0.03841087 0.2487074 0.2588709
v 0.246127 0.2487074 -0.06890133
v -0.08355087 0.1483431 0.2398143
v 0.1724418 0.1483431 -0.1870518
v -0.1515191 0.2487074 0.2042422
v 0.1279765 0.2487074 -0.2270705
v -0.1997957 0.1483431 0.1585065
v 0.03714043 0.1483431 -0.2524792
v -0.06068304 0.2487074 -0.2467622
v -0.1032426 0.1483431 -0.231517
v -0.2074183 0.2487074 -0.1540205
v -0.2226635 0.1483431 -0.1286118
v -0.2531539 0.2487074 0.05369565
v -0.2525187 0.1483431 0.02638131
vt 0.7588744 0.5108274
vt 0.7588744 0.5108274
vt 0.7588744 0.5108274
vt 0.7588744 0.5108274
vt 0.7588744 0.5108274
vt 0.7588744 0.5108274
vt 0.7588744 0.5108274
vt 0.7588744 0.5108274
vt 0.7588744 0.5108274
vt 0.7588744 0.5108274
vt 0.7588744 0.5108274
vt 0.7588744 0.5108274
vt 0.7588744 0.5108274
vt 0.7588744 0.5108274
vt 0.7588744 0.5108274
vt 0.7588744 0.5108274
vt 0.7588744 0.5108274
vt 0.7588744 0.5108274
vt 0.7588744 0.5108274
vt 0.7588744 0.5108274
vt 0.7588744 0.5108274
vt 0.7588744 0.5108274
vt 0.7588744 0.5108274
vt 0.7588744 0.5108274
vt 0.7588744 0.5108274
vt 0.7588744 0.5108274
vt 0.7588744 0.5108274
vt 0.7588744 0.5108274
vt 0.7588744 0.5108274
vt 0.7588744 0.5108274
vt 0.7588744 0.5108274
vt 0.7588744 0.5108274
vt 0.7588744 0.5108274
vt 0.7588744 0.5108274
vt 0.7588744 0.5108274
vt 0.7588744 0.5108274
vt 0.7588744 0.5108274
vt 0.7588744 0.5108274
vt 0.7588744 0.5108274
vt 0.7588744 0.5108274
vt 0.7588744 0.5108274
vt 0.7588744 0.5108274
vt 0.7588744 0.5108274
vt 0.7588744 0.5108274
vt 0.7588744 0.5108274
vt 0.7588744 0.5108274
vt 0.7588744 0.5108274
vt 0.7588744 0.5108274
vt 0.7588744 0.5108274
vt 0.7588744 0.5108274
vn -0.01587105 0.999874 -0.000345267
vn -0.01587105 0.999874 -0.000345267
vn -0.01587105 0.999874 -0.000345267
vn -0.01587105 0.999874 -0.000345267
vn -0.01587105 -0.999874 -0.000345267
vn -0.01587105 -0.999874 -0.000345267
vn -0.01587105 -0.999874 -0.000345267
vn -0.01587105 -0.999874 -0.000345267
vn -0.01587105 0.01587105 0.9997481
vn -0.01587105 0.01587105 0.9997481
vn -0.01587105 0.01587105 0.9997481
vn -0.01587105 0.01587105 0.9997481
vn -0.01587105 0.01587105 -0.9997481
vn -0.01587105 0.01587105 -0.9997481
vn -0.01587105 0.01587105 -0.9997481
vn -0.01587105 0.01587105 -0.9997481
vn 0.999874 0.01587105 -0.0003439156
vn 0.999874 0.01587105 -0.0003439156
vn 0.999874 0.01587105 -0.0003439156
vn 0.999874 0.01587105 -0.0003439156
vn -0.999874 0.01587105 -0.0003439156
vn -0.999874 0.01587105 -0.0003439156
vn -0.999874 0.01587105 -0.0003439156
vn -0.999874 0.01587105 -0.0003439156
vn -0.01587105 0.999874 -0.000345267
vn -0.01587105 0.999874 -0.000345267
vn -0.01587105 0.999874 -0.000345267
vn -0.01587105 0.999874 -0.000345267
vn -0.01587105 0.999874 -0.000345267
vn -0.01587105 0.999874 -0.000345267
vn -0.01587105 0.999874 -0.000345267
vn -0.01587105 0.999874 -0.000345267
vn 0.8729059 0.01587105 0.4876305
vn 0.8411638 -0.04761302 0.5386803
vn 0.3967754 0.01587105 0.9177785
vn 0.999874 0.01587105 -0.0003439156
vn 0.1428391 0.01587105 0.9896187
vn 0.968132 0.04761302 -0.245873
vn -0.3015493 0.01587105 0.9533185
vn 0.7141957 -0.01587099 -0.6997661
vn -0.5872276 0.04761302 0.8080203
vn 0.4920015 0.01587105 -0.8704497
vn -0.7776798 0.01587105 0.6284602
vn 0.1428391 0.01587105 -0.9896187
vn -0.2380652 0.04761302 -0.9700814
vn -0.4285175 -0.01587099 -0.9033941
vn -0.8094218 0.01587105 -0.5870132
vn -0.8729059 0.01587105 -0.4876305
vn -0.968132 0.01587105 0.249937
vn -0.999874 -0.01587099 -0.000346655
g Round Brick 1x1.324_0
f 3/3/3 2/2/2 1/1/1
f 4/4/4 3/3/3 1/1/1
f 7/7/7 6/6/6 5/5/5
f 8/8/8 7/7/7 5/5/5
f 11/11/11 10/10/10 9/9/9
f 12/12/12 11/11/11 9/9/9
f 15/15/15 14/14/14 13/13/13
f 16/16/16 15/15/15 13/13/13
f 19/19/19 18/18/18 17/17/17
f 20/20/20 19/19/19 17/17/17
f 23/23/23 22/22/22 21/21/21
f 24/24/24 23/23/23 21/21/21
f 27/27/27 26/26/26 25/25/25
f 25/25/25 28/28/28 27/27/27
f 25/25/25 29/29/29 28/28/28
f 29/29/29 30/30/30 28/28/28
f 29/29/29 31/31/31 30/30/30
f 31/31/31 32/32/32 30/30/30
f 35/35/35 34/34/34 33/33/33
f 34/34/34 36/36/36 33/33/33
f 37/37/37 35/35/35 33/33/33
f 33/33/33 36/36/36 38/38/38
f 39/39/39 35/35/35 37/37/37
f 36/36/36 40/40/40 38/38/38
f 41/41/41 39/39/39 37/37/37
f 38/38/38 40/40/40 42/42/42
f 43/43/43 39/39/39 41/41/41
f 40/40/40 44/44/44 42/42/42
f 42/42/42 44/44/44 45/45/45
f 44/44/44 46/46/46 45/45/45
f 45/45/45 46/46/46 47/47/47
f 46/46/46 48/48/48 47/47/47
f 49/49/49 43/43/43 41/41/41
f 47/47/47 48/48/48 49/49/49
f 50/50/50 43/43/43 49/49/49
f 48/48/48 50/50/50 49/49/49
