g Round Brick 1x1.311
v -0.323899 0.9246172 -0.6499614
v 0.3239744 0.9246172 -0.6499614
v 0.3239744 0.9246172 0.649886
v -0.323899 0.9246172 0.649886
v 0.3239744 -1.072309 -0.6499614
v -0.323899 -1.072309 -0.6499614
v -0.323899 -1.072309 0.649886
v 0.3239744 -1.072309 0.649886
v 0.3239744 0.9246172 -0.6499614
v 0.3239744 -1.072309 -0.6499614
v 0.3239744 -1.072309 0.649886
v 0.3239744 0.9246172 0.649886
v -0.323899 0.9246172 0.649886
v -0.323899 -1.072309 0.649886
v -0.323899 -1.072309 -0.6499614
v -0.323899 0.9246172 -0.6499614
v 0.3239744 0.9246172 0.649886
v 0.3239744 -1.072309 0.649886
v -0.323899 -1.072309 0.649886
v -0.323899 0.9246172 0.649886
v -0.323899 0.9246172 -0.6499614
v -0.323899 -1.072309 -0.6499614
v 0.3239744 -1.072309 -0.6499614
v 0.3239744 0.9246172 -0.6499614
v -0.1270767 1.025079 0.1045241
v 0.03489161 1.025079 0.07172048
v 0.2009605 1.025079 0.163981
v -0.2254878 1.025079 0.2090861
v 0.2542665 1.025079 0.3279995
v -0.2541912 1.025079 0.3628534
v 0.1886591 1.025079 0.5063697
v -0.1598804 1.025079 0.526872
v 0.006188393 1.025079 0.5801781
v -0.1742321 1.025079 -0.5146461
v -0.02866554 1.025079 -0.5782032
v 0.1415038 1.025079 -0.541299
v 0.2460656 1.025079 -0.3936823
v -0.2521409 1.025079 -0.3690795
v 0.223513 1.025079 -0.1907093
v -0.2193372 1.025079 -0.1907093
v 0.04514277 1.025079 -0.07384604
v -0.09632325 1.025079 -0.09229815
v -0.1721818 0.9246172 -0.5166963
v -0.1742321 1.025079 -0.5146461
v -0.2521409 1.025079 -0.3690795
v -0.02866554 1.025079 -0.5782032
v -0.2541912 0.9246172 -0.3547279
v 0.02259028 0.9246172 -0.5843539
v 0.1415038 1.025079 -0.541299
v 0.1845586 0.9246172 -0.5023446
v 0.2460656 1.025079 -0.3936823
v 0.2563167 0.9246172 -0.3526776
v 0.223513 1.025079 -0.1907093
v 0.1907093 0.9246172 -0.1497046
v 0.04514277 1.025079 -0.07384604
v 0.01028883 0.9246172 -0.06974554
v -0.09632325 1.025079 -0.09229815
v -0.1414284 0.9246172 -0.1128005
v -0.2193372 1.025079 -0.1907093
v -0.2275381 0.9246172 -0.2153121
v 0.1886591 1.025079 0.5063697
v 0.170207 0.9246172 0.5145707
v 0.04309261 0.9246172 0.5781279
v 0.2460656 0.9246172 0.3936069
v 0.006188393 1.025079 0.5801781
v 0.2542665 1.025079 0.3279995
v -0.09017253 0.9246172 0.561726
v 0.2440153 0.9246172 0.2521409
v -0.1598804 1.025079 0.526872
v 0.2009605 1.025079 0.163981
v -0.2008851 0.9246172 0.4838172
v 0.1722572 0.9246172 0.1393781
v -0.2541912 1.025079 0.3628534
v 0.03489161 1.025079 0.07172048
v -0.2582916 0.9246172 0.3115977
v -0.002012491 0.9246172 0.06556976
v -0.2254878 1.025079 0.2090861
v -0.1270767 1.025079 0.1045241
v -0.182433 0.9246172 0.1475791
vt 0.7569058 0.5059059
vt 0.7569058 0.5059059
vt 0.7569058 0.5059059
vt 0.7569058 0.5059059
vt 0.7569058 0.5059059
vt 0.7569058 0.5059059
vt 0.7569058 0.5059059
vt 0.7569058 0.5059059
vt 0.7569058 0.5059059
vt 0.7569058 0.5059059
vt 0.7569058 0.5059059
vt 0.7569058 0.5059059
vt 0.7569058 0.5059059
vt 0.7569058 0.5059059
vt 0.7569058 0.5059059
vt 0.7569058 0.5059059
vt 0.7569058 0.5059059
vt 0.7569058 0.5059059
vt 0.7569058 0.5059059
vt 0.7569058 0.5059059
vt 0.7569058 0.5059059
vt 0.7569058 0.5059059
vt 0.7569058 0.5059059
vt 0.7569058 0.5059059
vt 0.7569058 0.5059059
vt 0.7569058 0.5059059
vt 0.7569058 0.5059059
vt 0.7569058 0.5059059
vt 0.7569058 0.5059059
vt 0.7569058 0.5059059
vt 0.7569058 0.5059059
vt 0.7569058 0.5059059
vt 0.7569058 0.5059059
vt 0.7569058 0.5059059
vt 0.7569058 0.5059059
vt 0.7569058 0.5059059
vt 0.7569058 0.5059059
vt 0.7569058 0.5059059
vt 0.7569058 0.5059059
vt 0.7569058 0.5059059
vt 0.7569058 0.5059059
vt 0.7569058 0.5059059
vt 0.7569058 0.5059059
vt 0.7569058 0.5059059
vt 0.7569058 0.5059059
vt 0.7569058 0.5059059
vt 0.7569058 0.5059059
vt 0.7569058 0.5059059
vt 0.7569058 0.5059059
vt 0.7569058 0.5059059
vt 0.7569058 0.5059059
vt 0.7569058 0.5059059
vt 0.7569058 0.5059059
vt 0.7569058 0.5059059
vt 0.7569058 0.5059059
vt 0.7569058 0.5059059
vt 0.7569058 0.5059059
vt 0.7569058 0.5059059
vt 0.7569058 0.5059059
vt 0.7569058 0.5059059
vt 0.7569058 0.5059059
vt 0.7569058 0.5059059
vt 0.7569058 0.5059059
vt 0.7569058 0.5059059
vt 0.7569058 0.5059059
vt 0.7569058 0.5059059
vt 0.7569058 0.5059059
vt 0.7569058 0.5059059
vt 0.7569058 0.5059059
vt 0.7569058 0.5059059
vt 0.7569058 0.5059059
vt 0.7569058 0.5059059
vt 0.7569058 0.5059059
vt 0.7569058 0.5059059
vt 0.7569058 0.5059059
vt 0.7569058 0.5059059
vt 0.7569058 0.5059059
vt 0.7569058 0.5059059
vt 0.7569058 0.5059059
vn -0.01587105 0.999874 -0.000345267
vn -0.01587105 0.999874 -0.000345267
vn -0.01587105 0.999874 -0.000345267
vn -0.01587105 0.999874 -0.000345267
vn -0.01587105 -0.999874 -0.000345267
vn -0.01587105 -0.999874 -0.000345267
vn -0.01587105 -0.999874 -0.000345267
vn -0.01587105 -0.999874 -0.000345267
vn 0.999874 0.01587105 -0.0003439156
vn 0.999874 0.01587105 -0.0003439156
vn 0.999874 0.01587105 -0.0003439156
vn 0.999874 0.01587105 -0.0003439156
vn -0.999874 0.01587105 -0.0003439156
vn -0.999874 0.01587105 -0.0003439156
vn -0.999874 0.01587105 -0.0003439156
vn -0.999874 0.01587105 -0.0003439156
vn -0.01587105 0.01587105 0.9997481
vn -0.01587105 0.01587105 0.9997481
vn -0.01587105 0.01587105 0.9997481
vn -0.01587105 0.01587105 0.9997481
vn 0.01587099 0.01587105 -0.9997481
vn 0.01587099 0.01587105 -0.9997481
vn 0.01587099 0.01587105 -0.9997481
vn 0.01587099 0.01587105 -0.9997481
vn -0.01587105 0.999874 -0.000345267
vn -0.01587105 0.999874 -0.000345267
vn -0.01587105 0.999874 -0.000345267
vn -0.01587105 0.999874 -0.000345267
vn -0.01587105 0.999874 -0.000345267
vn -0.01587105 0.999874 -0.000345267
vn -0.01587105 0.999874 -0.000345267
vn -0.01587105 0.999874 -0.000345267
vn -0.01587105 0.999874 -0.000345267
vn -0.01587105 0.999874 -0.000345267
vn -0.01587105 0.999874 -0.000345267
vn -0.01587105 0.999874 -0.000345267
vn -0.01587105 0.999874 -0.000345267
vn -0.01587105 0.999874 -0.000345267
vn -0.01587105 0.999874 -0.000345267
vn -0.01587105 0.999874 -0.000345267
vn -0.01587105 0.999874 -0.000345267
vn -0.01587105 0.999874 -0.000345267
vn -0.6824538 -0.01587099 -0.7307565
vn -0.6824538 -0.01587099 -0.7307565
vn -0.968132 0.01587105 -0.249937
vn -0.1428392 0.01587105 -0.9896187
vn -0.999874 0.01587105 -0.0003439156
vn 0.07935506 -0.01587099 -0.9967201
vn 0.5554855 0.01587105 -0.8313747
vn 0.7459377 -0.01587099 -0.6658266
vn 0.968132 0.04761302 -0.245873
vn 0.999874 -0.01587099 -0.000346655
vn 0.8729059 -0.01587099 0.4876305
vn 0.7141957 -0.01587099 0.6997661
vn 0.2380652 0.01587105 0.9711195
vn 0.04761302 -0.04761302 0.9977304
vn -0.3650334 0.01587105 0.9308591
vn -0.5554856 -0.01587099 0.8313747
vn -0.8729059 0.01587105 0.4876305
vn -0.9046479 -0.01587099 0.425864
vn 0.7141957 0.01587105 0.6997661
vn 0.6507117 -0.04761302 0.7578307
vn 0.2063232 0.01587105 0.9783552
vn 0.968132 0.01587105 0.2499373
vn 0.01587099 0.04761302 0.9987398
vn 0.9988682 0.04756513 0
vn -0.3332913 -0.01587099 0.9426903
vn 0.968132 -0.01587099 -0.2499373
vn -0.6189697 0.04761302 0.7839704
vn 0.7459377 -0.01587099 -0.6658266
vn -0.8094218 -0.01587099 0.5870132
vn 0.6189696 -0.04761302 -0.7839704
vn -0.968132 0.01587105 0.249937
vn 0.2063232 0.04761302 -0.9773248
vn -0.999874 -0.01587099 -0.000346655
vn 0.01587099 0.01587105 -0.9997481
vn -0.9046479 0.01587105 -0.425864
vn -0.4920015 -0.01587099 -0.8704497
vn -0.7141957 -0.04761302 -0.6983248
g Round Brick 1x1.311_0
f 3/3/3 2/2/2 1/1/1
f 4/4/4 3/3/3 1/1/1
f 7/7/7 6/6/6 5/5/5
f 8/8/8 7/7/7 5/5/5
f 11/11/11 10/10/10 9/9/9
f 12/12/12 11/11/11 9/9/9
f 15/15/15 14/14/14 13/13/13
f 16/16/16 15/15/15 13/13/13
f 19/19/19 18/18/18 17/17/17
f 20/20/20 19/19/19 17/17/17
f 23/23/23 22/22/22 21/21/21
f 24/24/24 23/23/23 21/21/21
f 27/27/27 26/26/26 25/25/25
f 25/25/25 28/28/28 27/27/27
f 28/28/28 29/29/29 27/27/27
f 28/28/28 30/30/30 29/29/29
f 30/30/30 31/31/31 29/29/29
f 30/30/30 32/32/32 31/31/31
f 32/32/32 33/33/33 31/31/31
f 36/36/36 35/35/35 34/34/34
f 34/34/34 37/37/37 36/36/36
f 34/34/34 38/38/38 37/37/37
f 38/38/38 39/39/39 37/37/37
f 38/38/38 40/40/40 39/39/39
f 40/40/40 41/41/41 39/39/39
f 40/40/40 42/42/42 41/41/41
f 45/45/45 44/44/44 43/43/43
f 46/46/46 43/43/43 44/44/44
f 47/47/47 45/45/45 43/43/43
f 48/48/48 43/43/43 46/46/46
f 49/49/49 48/48/48 46/46/46
f 50/50/50 48/48/48 49/49/49
f 51/51/51 50/50/50 49/49/49
f 52/52/52 50/50/50 51/51/51
f 53/53/53 52/52/52 51/51/51
f 54/54/54 52/52/52 53/53/53
f 55/55/55 54/54/54 53/53/53
f 56/56/56 54/54/54 55/55/55
f 57/57/57 56/56/56 55/55/55
f 58/58/58 56/56/56 57/57/57
f 45/45/45 47/47/47 59/59/59
f 59/59/59 58/58/58 57/57/57
f 47/47/47 60/60/60 59/59/59
f 60/60/60 58/58/58 59/59/59
f 63/63/63 62/62/62 61/61/61
f 62/62/62 64/64/64 61/61/61
f 65/65/65 63/63/63 61/61/61
f 61/61/61 64/64/64 66/66/66
f 67/67/67 63/63/63 65/65/65
f 64/64/64 68/68/68 66/66/66
f 69/69/69 67/67/67 65/65/65
f 66/66/66 68/68/68 70/70/70
f 71/71/71 67/67/67 69/69/69
f 68/68/68 72/72/72 70/70/70
f 73/73/73 71/71/71 69/69/69
f 74/74/74 70/70/70 72/72/72
f 75/75/75 71/71/71 73/73/73
f 76/76/76 74/74/74 72/72/72
f 77/77/77 75/75/75 73/73/73
f 74/74/74 76/76/76 78/78/78
f 79/79/79 75/75/75 77/77/77
f 76/76/76 79/79/79 78/78/78
f 78/78/78 79/79/79 77/77/77
