g Round Brick 1x1.310
v -0.02740932 0.5407355 -0.07119572
v 0.02334327 0.4392303 -0.2524549
v -0.03610975 0.4392303 -0.06539541
v 0.01899302 0.5407355 -0.2872567
v -0.05786085 0.4392303 -0.4235637
v -0.0622111 0.5407355 -0.4221136
v -0.2130188 0.5407355 -0.4917172
v -0.2188191 0.4392303 -0.488817
v -0.3783273 0.4392303 -0.4453148
v -0.4073287 0.5407355 -0.4235637
v -0.4827325 0.4392303 -0.2872567
v -0.4928831 0.5407355 -0.2118528
v -0.4609815 0.4392303 -0.1233984
v -0.3899279 0.5407355 -0.03349376
v -0.3725269 0.4392303 -0.02334327
v -0.2260695 0.5407355 0.02305913
v -0.2217193 0.4392303 0.02305913
v -0.02740932 0.5407355 -0.07119572
v -0.03610975 0.4392303 -0.06539541
v -0.4073287 0.5407355 -0.4235637
v -0.2130188 0.5407355 -0.4917172
v -0.0622111 0.5407355 -0.4221136
v -0.4928831 0.5407355 -0.2118528
v 0.01899302 0.5407355 -0.2872567
v -0.02740932 0.5407355 -0.07119572
v -0.3899279 0.5407355 -0.03349376
v -0.2260695 0.5407355 0.02305913
v -0.04336011 0.4392303 0.2376701
v -0.2623214 0.5407355 0.1593661
v -0.275372 0.4392303 0.1593661
v -0.08106208 0.5407355 0.2130188
v 0.005942404 0.5407355 0.3261245
v 0.0218932 0.4392303 0.4073287
v 0.0160929 0.5407355 0.4754822
v -0.007108271 0.4392303 0.5378354
v -0.05931097 0.5407355 0.6045388
v -0.1347148 0.4392303 0.6567414
v -0.2101187 0.5407355 0.6741424
v -0.2927729 0.4392303 0.6625417
v -0.3565761 0.5407355 0.6378905
v -0.4174793 0.4392303 0.5943882
v -0.4580812 0.5407355 0.5378354
v -0.4798324 0.4392303 0.4667817
v -0.4841826 0.5407355 0.3986282
v -0.4638816 0.4392303 0.3014733
v -0.4377803 0.5407355 0.2652215
v -0.275372 0.4392303 0.1593661
v -0.2623214 0.5407355 0.1593661
v -0.4377803 0.5407355 0.2652215
v -0.2623214 0.5407355 0.1593661
v -0.08106208 0.5407355 0.2130188
v 0.005942404 0.5407355 0.3261245
v -0.4841826 0.5407355 0.3986282
v 0.0160929 0.5407355 0.4754822
v -0.4580812 0.5407355 0.5378354
v -0.05931097 0.5407355 0.6045388
v -0.3565761 0.5407355 0.6378905
v -0.2101187 0.5407355 0.6741424
v 0.09149677 0.4392303 0.09121257
v 0.09294683 0.4392303 0.7422957
v -0.5566863 0.4392303 0.7422957
v -0.5566863 0.4392303 -0.5584205
v 0.7411299 0.4392303 -0.5584205
v 0.7411299 0.4392303 0.09121257
v 0.09149677 -0.5787216 0.09121257
v 0.7411299 -0.5787216 0.09121257
v 0.7411299 -0.5787216 -0.5584205
v -0.5566863 -0.5787216 -0.5584205
v -0.5566863 -0.5787216 0.7422957
v 0.09294683 -0.5787216 0.7422957
v -0.5566863 -0.5787216 0.7422957
v -0.5566863 -0.5787216 -0.5584205
v -0.5566863 0.4392303 -0.5584205
v -0.5566863 0.4392303 0.7422957
v 0.09149677 -0.5787216 0.09121257
v 0.09294683 -0.5787216 0.7422957
v 0.09294683 0.4392303 0.7422957
v 0.09149677 0.4392303 0.09121257
v 0.09294683 0.4392303 0.7422957
v 0.09294683 -0.5787216 0.7422957
v -0.5566863 -0.5787216 0.7422957
v -0.5566863 0.4392303 0.7422957
v 0.7411299 0.4392303 0.09121257
v 0.7411299 -0.5787216 0.09121257
v 0.09149677 -0.5787216 0.09121257
v 0.09149677 0.4392303 0.09121257
v -0.5566863 0.4392303 -0.5584205
v -0.5566863 -0.5787216 -0.5584205
v 0.7411299 -0.5787216 -0.5584205
v 0.7411299 0.4392303 -0.5584205
v 0.7411299 0.4392303 -0.5584205
v 0.7411299 -0.5787216 -0.5584205
v 0.7411299 -0.5787216 0.09121257
v 0.7411299 0.4392303 0.09121257
v 0.233604 0.5407355 -0.4206635
v 0.4192134 0.5407355 -0.4873669
v 0.5613207 0.5407355 -0.4424146
v 0.6729764 0.5407355 -0.2800063
v 0.1611003 0.5407355 -0.2278037
v 0.6178736 0.5407355 -0.07409585
v 0.2017024 0.5407355 -0.1001972
v 0.3191583 0.5407355 0.005658209
v 0.4844668 0.5407355 0.01145852
v 0.1901017 0.4392303 -0.1146979
v 0.2017024 0.5407355 -0.1001972
v 0.3191583 0.5407355 0.005658209
v 0.1611003 0.5407355 -0.2278037
v 0.3380093 0.4392303 0.01580876
v 0.1640005 0.4392303 -0.253905
v 0.4844668 0.5407355 0.01145852
v 0.5642208 0.4392303 -0.02044314
v 0.6178736 0.5407355 -0.07409585
v 0.6758766 0.4392303 -0.2191033
v 0.6729764 0.5407355 -0.2800063
v 0.6004727 0.4392303 -0.410513
v 0.5613207 0.5407355 -0.4424146
v 0.4772164 0.4392303 -0.4786665
v 0.4192134 0.5407355 -0.4873669
v 0.3351092 0.4392303 -0.4757663
v 0.233604 0.5407355 -0.4206635
v 0.2089527 0.4392303 -0.3800614
vt 0.7697019 0.5019686
vt 0.7697019 0.5019686
vt 0.7697019 0.5019686
vt 0.7697019 0.5019686
vt 0.7697019 0.5019686
vt 0.7697019 0.5019686
vt 0.7697019 0.5019686
vt 0.7697019 0.5019686
vt 0.7697019 0.5019686
vt 0.7697019 0.5019686
vt 0.7697019 0.5019686
vt 0.7697019 0.5019686
vt 0.7697019 0.5019686
vt 0.7697019 0.5019686
vt 0.7697019 0.5019686
vt 0.7697019 0.5019686
vt 0.7697019 0.5019686
vt 0.7697019 0.5019686
vt 0.7697019 0.5019686
vt 0.7697019 0.5019686
vt 0.7697019 0.5019686
vt 0.7697019 0.5019686
vt 0.7697019 0.5019686
vt 0.7697019 0.5019686
vt 0.7697019 0.5019686
vt 0.7697019 0.5019686
vt 0.7697019 0.5019686
vt 0.7697019 0.5019686
vt 0.7697019 0.5019686
vt 0.7697019 0.5019686
vt 0.7697019 0.5019686
vt 0.7697019 0.5019686
vt 0.7697019 0.5019686
vt 0.7697019 0.5019686
vt 0.7697019 0.5019686
vt 0.7697019 0.5019686
vt 0.7697019 0.5019686
vt 0.7697019 0.5019686
vt 0.7697019 0.5019686
vt 0.7697019 0.5019686
vt 0.7697019 0.5019686
vt 0.7697019 0.5019686
vt 0.7697019 0.5019686
vt 0.7697019 0.5019686
vt 0.7697019 0.5019686
vt 0.7697019 0.5019686
vt 0.7697019 0.5019686
vt 0.7697019 0.5019686
vt 0.7697019 0.5019686
vt 0.7697019 0.5019686
vt 0.7697019 0.5019686
vt 0.7697019 0.5019686
vt 0.7697019 0.5019686
vt 0.7697019 0.5019686
vt 0.7697019 0.5019686
vt 0.7697019 0.5019686
vt 0.7697019 0.5019686
vt 0.7697019 0.5019686
vt 0.7697019 0.5019686
vt 0.7697019 0.5019686
vt 0.7697019 0.5019686
vt 0.7697019 0.5019686
vt 0.7697019 0.5019686
vt 0.7697019 0.5019686
vt 0.7697019 0.5019686
vt 0.7697019 0.5019686
vt 0.7697019 0.5019686
vt 0.7697019 0.5019686
vt 0.7697019 0.5019686
vt 0.7697019 0.5019686
vt 0.7697019 0.5019686
vt 0.7697019 0.5019686
vt 0.7697019 0.5019686
vt 0.7697019 0.5019686
vt 0.7697019 0.5019686
vt 0.7697019 0.5019686
vt 0.7697019 0.5019686
vt 0.7697019 0.5019686
vt 0.7697019 0.5019686
vt 0.7697019 0.5019686
vt 0.7697019 0.5019686
vt 0.7697019 0.5019686
vt 0.7697019 0.5019686
vt 0.7697019 0.5019686
vt 0.7697019 0.5019686
vt 0.7697019 0.5019686
vt 0.7697019 0.5019686
vt 0.7697019 0.5019686
vt 0.7697019 0.5019686
vt 0.7697019 0.5019686
vt 0.7697019 0.5019686
vt 0.7697019 0.5019686
vt 0.7697019 0.5019686
vt 0.7697019 0.5019686
vt 0.7697019 0.5019686
vt 0.7697019 0.5019686
vt 0.7697019 0.5019686
vt 0.7697019 0.5019686
vt 0.7697019 0.5019686
vt 0.7697019 0.5019686
vt 0.7697019 0.5019686
vt 0.7697019 0.5019686
vt 0.7697019 0.5019686
vt 0.7697019 0.5019686
vt 0.7697019 0.5019686
vt 0.7697019 0.5019686
vt 0.7697019 0.5019686
vt 0.7697019 0.5019686
vt 0.7697019 0.5019686
vt 0.7697019 0.5019686
vt 0.7697019 0.5019686
vt 0.7697019 0.5019686
vt 0.7697019 0.5019686
vt 0.7697019 0.5019686
vt 0.7697019 0.5019686
vt 0.7697019 0.5019686
vt 0.7697019 0.5019686
vt 0.7697019 0.5019686
vt 0.7697019 0.5019686
vt 0.7697019 0.5019686
vt 0.7697019 0.5019686
vn 0.968132 -0.01587099 0.2499373
vn 0.999874 -0.01587099 -0.000346655
vn 0.9363899 -0.04761302 0.3477167
vn 0.968132 0.01587105 -0.2499373
vn 0.6824536 -0.01587099 -0.7307566
vn 0.6507117 0.04761302 -0.7578307
vn 0.07935506 0.01587105 -0.9967201
vn 0.04761302 -0.04761302 -0.9977304
vn -0.5554856 -0.01587099 -0.8313747
vn -0.6824538 0.04761302 -0.7293764
vn -0.968132 0.01587105 -0.249937
vn -0.999874 0.01587105 -0.0003439156
vn -0.9046479 0.01587105 0.425864
vn -0.6189697 0.01587105 0.7852545
vn -0.5237435 -0.01587099 0.8517281
vn 0.04761302 0.01587105 0.9987398
vn 0.07935506 0.01587105 0.9967201
vn 0.4285174 0.01587105 0.9033942
vn 0.4285174 0.01587105 0.9033942
vn -0.01587105 0.999874 -0.000345267
vn -0.01587105 0.999874 -0.000345267
vn -0.01587105 0.999874 -0.000345267
vn -0.01587105 0.999874 -0.000345267
vn -0.01587105 0.999874 -0.000345267
vn -0.01587105 0.999874 -0.000345267
vn -0.01587105 0.999874 -0.000345267
vn -0.01587105 0.999874 -0.000345267
vn 0.6824536 -0.01587099 -0.7307566
vn 0.3015493 -0.07935506 -0.9501425
vn 0.3015493 -0.07935506 -0.9501425
vn 0.5237435 0.01587105 -0.8517281
vn 0.9363899 -0.01587099 -0.3506023
vn 0.999874 -0.01587099 -0.000346655
vn 0.968132 0.01587105 0.2499373
vn 0.8729059 -0.01587099 0.4876305
vn 0.6824536 0.01587105 0.7307566
vn 0.3967754 -0.01587099 0.9177785
vn 0.07935506 0.01587105 0.9967201
vn -0.2380652 -0.01587099 0.9711195
vn -0.4920015 0.01587105 0.8704497
vn -0.7141957 -0.01587099 0.6997661
vn -0.8729059 0.01587105 0.4876305
vn -0.968132 -0.04761302 0.2458728
vn -0.999874 0.01587105 -0.0003439156
vn -0.8729059 -0.04761302 -0.4855599
vn -0.7459378 -0.01587099 -0.6658264
vn -0.5554856 0.01587105 -0.8313747
vn -0.5237435 0.07935512 -0.8481719
vn -0.01587105 0.999874 -0.000345267
vn -0.01587105 0.999874 -0.000345267
vn -0.01587105 0.999874 -0.000345267
vn -0.01587105 0.999874 -0.000345267
vn -0.01587105 0.999874 -0.000345267
vn -0.01587105 0.999874 -0.000345267
vn -0.01587105 0.999874 -0.000345267
vn -0.01587105 0.999874 -0.000345267
vn -0.01587105 0.999874 -0.000345267
vn -0.01587105 0.999874 -0.000345267
vn -0.01587105 0.999874 -0.000345267
vn -0.01587105 0.999874 -0.000345267
vn -0.01587105 0.999874 -0.000345267
vn -0.01587105 0.999874 -0.000345267
vn -0.01587105 0.999874 -0.000345267
vn -0.01587105 0.999874 -0.000345267
vn -0.01587105 -0.999874 -0.000345267
vn -0.01587105 -0.999874 -0.000345267
vn -0.01587105 -0.999874 -0.000345267
vn -0.01587105 -0.999874 -0.000345267
vn -0.01587105 -0.999874 -0.000345267
vn -0.01587105 -0.999874 -0.000345267
vn -0.999874 -0.01587099 -0.000346655
vn -0.999874 -0.01587099 -0.000346655
vn -0.999874 -0.01587099 -0.000346655
vn -0.999874 -0.01587099 -0.000346655
vn 0.999874 0.01587105 -0.0003439156
vn 0.999874 0.01587105 -0.0003439156
vn 0.999874 0.01587105 -0.0003439156
vn 0.999874 0.01587105 -0.0003439156
vn -0.01587105 0.01587105 0.9997481
vn -0.01587105 0.01587105 0.9997481
vn -0.01587105 0.01587105 0.9997481
vn -0.01587105 0.01587105 0.9997481
vn -0.01587105 0.01587105 0.9997481
vn -0.01587105 0.01587105 0.9997481
vn -0.01587105 0.01587105 0.9997481
vn -0.01587105 0.01587105 0.9997481
vn 0.01587099 0.01587105 -0.9997481
vn 0.01587099 0.01587105 -0.9997481
vn 0.01587099 0.01587105 -0.9997481
vn 0.01587099 0.01587105 -0.9997481
vn 0.999874 0.01587105 -0.0003439156
vn 0.999874 0.01587105 -0.0003439156
vn 0.999874 0.01587105 -0.0003439156
vn 0.999874 0.01587105 -0.0003439156
vn -0.01587105 0.999874 -0.000345267
vn -0.01587105 0.999874 -0.000345267
vn -0.01587105 0.999874 -0.000345267
vn -0.01587105 0.999874 -0.000345267
vn -0.01587105 0.999874 -0.000345267
vn -0.01587105 0.999874 -0.000345267
vn -0.01587105 0.999874 -0.000345267
vn -0.01587105 0.999874 -0.000345267
vn -0.01587105 0.999874 -0.000345267
vn -0.8729059 -0.01587099 0.4876305
vn -0.8094218 -0.01587099 0.5870132
vn -0.3967754 0.01587105 0.9177785
vn -0.999874 0.01587105 -0.0003439156
vn -0.3015493 -0.01587099 0.9533185
vn -0.999874 0.01587105 -0.0003439156
vn 0.2380652 -0.04761302 0.9700814
vn 0.5554855 -0.04761302 0.8301619
vn 0.8094218 -0.01587099 0.5870132
vn 0.999874 -0.01587099 -0.000346655
vn 0.968132 0.01587105 -0.2499373
vn 0.7459377 -0.01587099 -0.6658266
vn 0.5872276 0.04761302 -0.8080203
vn 0.2380652 -0.01587099 -0.9711195
vn -0.01587105 0.04761302 -0.9987398
vn -0.3332913 0.01587105 -0.9426903
vn -0.7141957 0.01587105 -0.6997661
vn -0.8411639 -0.01587099 -0.5405474
g Round Brick 1x1.310_0
f 3/3/3 2/2/2 1/1/1
f 1/1/1 2/2/2 4/4/4
f 2/2/2 5/5/5 4/4/4
f 4/4/4 5/5/5 6/6/6
f 6/6/6 5/5/5 7/7/7
f 5/5/5 8/8/8 7/7/7
f 8/8/8 9/9/9 7/7/7
f 7/7/7 9/9/9 10/10/10
f 9/9/9 11/11/11 10/10/10
f 10/10/10 11/11/11 12/12/12
f 11/11/11 13/13/13 12/12/12
f 12/12/12 13/13/13 14/14/14
f 13/13/13 15/15/15 14/14/14
f 16/16/16 14/14/14 15/15/15
f 17/17/17 16/16/16 15/15/15
f 18/18/18 16/16/16 17/17/17
f 19/19/19 18/18/18 17/17/17
f 22/22/22 21/21/21 20/20/20
f 20/20/20 23/23/23 22/22/22
f 23/23/23 24/24/24 22/22/22
f 23/23/23 25/25/25 24/24/24
f 23/23/23 26/26/26 25/25/25
f 26/26/26 27/27/27 25/25/25
f 30/30/30 29/29/29 28/28/28
f 29/29/29 31/31/31 28/28/28
f 32/32/32 28/28/28 31/31/31
f 33/33/33 28/28/28 32/32/32
f 34/34/34 33/33/33 32/32/32
f 35/35/35 33/33/33 34/34/34
f 36/36/36 35/35/35 34/34/34
f 37/37/37 35/35/35 36/36/36
f 38/38/38 37/37/37 36/36/36
f 39/39/39 37/37/37 38/38/38
f 40/40/40 39/39/39 38/38/38
f 41/41/41 39/39/39 40/40/40
f 42/42/42 41/41/41 40/40/40
f 43/43/43 41/41/41 42/42/42
f 44/44/44 43/43/43 42/42/42
f 45/45/45 43/43/43 44/44/44
f 46/46/46 45/45/45 44/44/44
f 47/47/47 45/45/45 46/46/46
f 48/48/48 47/47/47 46/46/46
f 51/51/51 50/50/50 49/49/49
f 49/49/49 52/52/52 51/51/51
f 49/49/49 53/53/53 52/52/52
f 53/53/53 54/54/54 52/52/52
f 53/53/53 55/55/55 54/54/54
f 55/55/55 56/56/56 54/54/54
f 55/55/55 57/57/57 56/56/56
f 57/57/57 58/58/58 56/56/56
f 61/61/61 60/60/60 59/59/59
f 62/62/62 61/61/61 59/59/59
f 59/59/59 63/63/63 62/62/62
f 63/63/63 59/59/59 64/64/64
f 67/67/67 66/66/66 65/65/65
f 68/68/68 67/67/67 65/65/65
f 65/65/65 69/69/69 68/68/68
f 65/65/65 70/70/70 69/69/69
f 73/73/73 72/72/72 71/71/71
f 74/74/74 73/73/73 71/71/71
f 77/77/77 76/76/76 75/75/75
f 78/78/78 77/77/77 75/75/75
f 81/81/81 80/80/80 79/79/79
f 82/82/82 81/81/81 79/79/79
f 85/85/85 84/84/84 83/83/83
f 86/86/86 85/85/85 83/83/83
f 89/89/89 88/88/88 87/87/87
f 90/90/90 89/89/89 87/87/87
f 93/93/93 92/92/92 91/91/91
f 94/94/94 93/93/93 91/91/91
f 97/97/97 96/96/96 95/95/95
f 95/95/95 98/98/98 97/97/97
f 95/95/95 99/99/99 98/98/98
f 99/99/99 100/100/100 98/98/98
f 99/99/99 101/101/101 100/100/100
f 101/101/101 102/102/102 100/100/100
f 102/102/102 103/103/103 100/100/100
f 106/106/106 105/105/105 104/104/104
f 107/107/107 104/104/104 105/105/105
f 108/108/108 106/106/106 104/104/104
f 109/109/109 104/104/104 107/107/107
f 106/106/106 108/108/108 110/110/110
f 108/108/108 111/111/111 110/110/110
f 110/110/110 111/111/111 112/112/112
f 111/111/111 113/113/113 112/112/112
f 112/112/112 113/113/113 114/114/114
f 113/113/113 115/115/115 114/114/114
f 114/114/114 115/115/115 116/116/116
f 115/115/115 117/117/117 116/116/116
f 116/116/116 117/117/117 118/118/118
f 117/117/117 119/119/119 118/118/118
f 120/120/120 109/109/109 107/107/107
f 118/118/118 119/119/119 120/120/120
f 121/121/121 109/109/109 120/120/120
f 119/119/119 121/121/121 120/120/120
