g Round Brick 1x1.330
v -0.3253592 -0.4444812 -0.7010946
v 0.3252101 -0.4444812 -0.7010946
v 0.3252101 0.572937 -0.7010946
v -0.3253592 0.572937 -0.7010946
v -0.3253592 -0.4444812 -0.7010946
v -0.3253592 0.572937 -0.7010946
v -0.3253592 0.572937 -0.05052525
v -0.3253592 -0.4444812 1.147607
v 0.3252101 -0.4444812 -0.7010946
v 0.3252101 -0.4444812 1.147607
v 0.3252101 0.572937 -0.05052525
v 0.3252101 0.572937 -0.7010946
v 0.3252101 -0.4444812 1.147607
v -0.3253592 -0.4444812 1.147607
v -0.3253592 0.572937 -0.05052525
v 0.3252101 0.572937 -0.05052525
v -0.3253592 0.572937 -0.7010946
v 0.3252101 0.572937 -0.7010946
v -0.3253592 -0.4444812 1.147607
v 0.3252101 -0.4444812 1.147607
v 0.3252101 -0.4444812 -0.7010946
v -0.3253592 -0.4444812 -0.7010946
v -0.09043139 0.6741366 -0.6125449
v 0.01799679 0.6741366 -0.6288092
v 0.1101608 0.6741366 -0.6035092
v -0.2006668 0.6741366 -0.534838
v 0.1860605 0.6741366 -0.547488
v 0.2438889 0.6741366 -0.4444812
v -0.2512666 0.6741366 -0.4101456
v 0.2456961 0.6741366 -0.310753
v -0.2458452 0.6741366 -0.323403
v -0.2151239 0.6741366 -0.2420818
v 0.1824463 0.6741366 -0.2005177
v -0.1175385 0.6741366 -0.1499178
v 0.1047394 0.6741366 -0.1463035
v 0.01257539 0.6741366 -0.1228108
v 0.1860605 0.6741366 -0.547488
v 0.1950963 0.572937 -0.5402594
v 0.2438889 0.6741366 -0.4444812
v 0.1101608 0.6741366 -0.6035092
v 0.2475032 0.572937 -0.4264098
v 0.07582521 0.572937 -0.6197734
v 0.01799679 0.6741366 -0.6288092
v -0.04163873 0.572937 -0.6251948
v -0.09043139 0.6741366 -0.6125449
v -0.137417 0.572937 -0.5890521
v -0.2006668 0.6741366 -0.534838
v -0.2331952 0.572937 -0.4824311
v -0.2512666 0.6741366 -0.4101456
v 0.2456961 0.6741366 -0.310753
v 0.2475032 0.572937 -0.323403
v 0.2149748 0.572937 -0.2438889
v 0.1824463 0.6741366 -0.2005177
v 0.139075 0.572937 -0.1625678
v 0.1047394 0.6741366 -0.1463035
v 0.01799679 0.572937 -0.1246179
v 0.01257539 0.6741366 -0.1228108
v -0.06874579 0.572937 -0.1336536
v -0.1175385 0.6741366 -0.1499178
v -0.1536812 0.572937 -0.1734106
v -0.2512666 0.572937 -0.3414744
v -0.2458452 0.6741366 -0.323403
v -0.2151239 0.6741366 -0.2420818
v -0.2205453 0.572937 -0.2529246
vt 0.7578901 0.5226392
vt 0.7578901 0.5226392
vt 0.7578901 0.5226392
vt 0.7578901 0.5226392
vt 0.7578901 0.5226392
vt 0.7578901 0.5226392
vt 0.7578901 0.5226392
vt 0.7578901 0.5226392
vt 0.7578901 0.5226392
vt 0.7578901 0.5226392
vt 0.7578901 0.5226392
vt 0.7578901 0.5226392
vt 0.7578901 0.5226392
vt 0.7578901 0.5226392
vt 0.7578901 0.5226392
vt 0.7578901 0.5226392
vt 0.7578901 0.5226392
vt 0.7578901 0.5226392
vt 0.7578901 0.5226392
vt 0.7578901 0.5226392
vt 0.7578901 0.5226392
vt 0.7578901 0.5226392
vt 0.7578901 0.5226392
vt 0.7578901 0.5226392
vt 0.7578901 0.5226392
vt 0.7578901 0.5226392
vt 0.7578901 0.5226392
vt 0.7578901 0.5226392
vt 0.7578901 0.5226392
vt 0.7578901 0.5226392
vt 0.7578901 0.5226392
vt 0.7578901 0.5226392
vt 0.7578901 0.5226392
vt 0.7578901 0.5226392
vt 0.7578901 0.5226392
vt 0.7578901 0.5226392
vt 0.7578901 0.5226392
vt 0.7578901 0.5226392
vt 0.7578901 0.5226392
vt 0.7578901 0.5226392
vt 0.7578901 0.5226392
vt 0.7578901 0.5226392
vt 0.7578901 0.5226392
vt 0.7578901 0.5226392
vt 0.7578901 0.5226392
vt 0.7578901 0.5226392
vt 0.7578901 0.5226392
vt 0.7578901 0.5226392
vt 0.7578901 0.5226392
vt 0.7578901 0.5226392
vt 0.7578901 0.5226392
vt 0.7578901 0.5226392
vt 0.7578901 0.5226392
vt 0.7578901 0.5226392
vt 0.7578901 0.5226392
vt 0.7578901 0.5226392
vt 0.7578901 0.5226392
vt 0.7578901 0.5226392
vt 0.7578901 0.5226392
vt 0.7578901 0.5226392
vt 0.7578901 0.5226392
vt 0.7578901 0.5226392
vt 0.7578901 0.5226392
vt 0.7578901 0.5226392
vn -0.01587105 0.01587105 -0.9997481
vn -0.01587105 0.01587105 -0.9997481
vn -0.01587105 0.01587105 -0.9997481
vn -0.01587105 0.01587105 -0.9997481
vn -0.999874 0.01587105 -0.0003439156
vn -0.999874 0.01587105 -0.0003439156
vn -0.999874 0.01587105 -0.0003439156
vn -0.999874 0.01587105 -0.0003439156
vn 0.999874 0.01587105 -0.0003439156
vn 0.999874 0.01587105 -0.0003439156
vn 0.999874 0.01587105 -0.0003439156
vn 0.999874 0.01587105 -0.0003439156
vn -0.01587105 0.7776798 0.6284602
vn -0.01587105 0.7776798 0.6284602
vn -0.01587105 0.9363899 0.3506023
vn -0.01587105 0.9363899 0.3506023
vn -0.01587105 0.999874 -0.000345267
vn -0.01587105 0.999874 -0.000345267
vn -0.01587105 -0.999874 -0.000345267
vn -0.01587105 -0.999874 -0.000345267
vn -0.01587105 -0.999874 -0.000345267
vn -0.01587105 -0.999874 -0.000345267
vn -0.01587105 0.999874 -0.000345267
vn -0.01587105 0.999874 -0.000345267
vn -0.01587105 0.999874 -0.000345267
vn -0.01587105 0.999874 -0.000345267
vn -0.01587105 0.999874 -0.000345267
vn -0.01587105 0.999874 -0.000345267
vn -0.01587105 0.999874 -0.000345267
vn -0.01587105 0.999874 -0.000345267
vn -0.01587105 0.999874 -0.000345267
vn -0.01587105 0.999874 -0.000345267
vn -0.01587105 0.999874 -0.000345267
vn -0.01587105 0.999874 -0.000345267
vn -0.01587105 0.999874 -0.000345267
vn -0.01587105 0.999874 -0.000345267
vn 0.7141957 -0.01587099 -0.6997661
vn 0.7459377 -0.01587099 -0.6658266
vn 0.968132 0.01587105 -0.2499373
vn 0.4602594 0.01587105 -0.8876426
vn 0.968132 -0.01587099 -0.2499373
vn 0.3332914 -0.01587099 -0.9426903
vn 0.04761302 0.01587105 -0.9987398
vn -0.1428392 -0.01587099 -0.9896187
vn -0.3650334 0.01587105 -0.9308591
vn -0.5554856 -0.01587099 -0.8313747
vn -0.7776798 0.01587105 -0.6284602
vn -0.9046479 -0.01587099 -0.425864
vn -0.999874 0.01587105 -0.0003439156
vn 0.968132 0.01587105 0.2499373
vn 0.968132 -0.01587099 0.2499373
vn 0.8411638 -0.01587099 0.5405475
vn 0.7459377 0.01587105 0.6658266
vn 0.5237435 -0.01587099 0.8517281
vn 0.3967754 0.01587105 0.9177785
vn 0.07935506 0.01587105 0.9967201
vn 0.04761302 0.01587105 0.9987398
vn -0.2698073 -0.01587099 0.9627835
vn -0.4602594 0.01587105 0.8876426
vn -0.6189697 -0.01587099 0.7852545
vn -0.999874 -0.01587099 -0.000346655
vn -0.968132 0.01587105 0.249937
vn -0.8411639 0.01587105 0.5405474
vn -0.8729059 -0.01587099 0.4876305
g Round Brick 1x1.330_0
f 3/3/3 2/2/2 1/1/1
f 4/4/4 3/3/3 1/1/1
f 7/7/7 6/6/6 5/5/5
f 8/8/8 7/7/7 5/5/5
f 11/11/11 10/10/10 9/9/9
f 12/12/12 11/11/11 9/9/9
f 15/15/15 14/14/14 13/13/13
f 16/16/16 15/15/15 13/13/13
f 15/15/15 16/16/16 17/17/17
f 16/16/16 18/18/18 17/17/17
f 21/21/21 20/20/20 19/19/19
f 22/22/22 21/21/21 19/19/19
f 25/25/25 24/24/24 23/23/23
f 23/23/23 26/26/26 25/25/25
f 26/26/26 27/27/27 25/25/25
f 26/26/26 28/28/28 27/27/27
f 26/26/26 29/29/29 28/28/28
f 29/29/29 30/30/30 28/28/28
f 29/29/29 31/31/31 30/30/30
f 31/31/31 32/32/32 30/30/30
f 32/32/32 33/33/33 30/30/30
f 32/32/32 34/34/34 33/33/33
f 34/34/34 35/35/35 33/33/33
f 34/34/34 36/36/36 35/35/35
f 39/39/39 38/38/38 37/37/37
f 40/40/40 37/37/37 38/38/38
f 41/41/41 38/38/38 39/39/39
f 42/42/42 40/40/40 38/38/38
f 40/40/40 42/42/42 43/43/43
f 42/42/42 44/44/44 43/43/43
f 43/43/43 44/44/44 45/45/45
f 44/44/44 46/46/46 45/45/45
f 45/45/45 46/46/46 47/47/47
f 46/46/46 48/48/48 47/47/47
f 47/47/47 48/48/48 49/49/49
f 50/50/50 41/41/41 39/39/39
f 51/51/51 41/41/41 50/50/50
f 52/52/52 51/51/51 50/50/50
f 53/53/53 52/52/52 50/50/50
f 54/54/54 52/52/52 53/53/53
f 55/55/55 54/54/54 53/53/53
f 54/54/54 55/55/55 56/56/56
f 55/55/55 57/57/57 56/56/56
f 56/56/56 57/57/57 58/58/58
f 57/57/57 59/59/59 58/58/58
f 60/60/60 58/58/58 59/59/59
f 48/48/48 61/61/61 49/49/49
f 49/49/49 61/61/61 62/62/62
f 63/63/63 60/60/60 59/59/59
f 63/63/63 62/62/62 61/61/61
f 64/64/64 60/60/60 63/63/63
f 64/64/64 63/63/63 61/61/61
