g Round Brick 1x1.316
v -1.201151 0.2156925 -0.1115257
v -1.071786 0.2156925 -0.2370861
v -0.8434944 0.2156925 -0.2256714
v -0.7217388 0.2156925 -0.06206238
v -1.216371 0.2156925 0.08632708
v -0.7445681 0.2156925 0.1281805
v -1.052762 0.2156925 0.2461312
v -0.8777382 0.2156925 0.2385216
v -1.847978 0.2156925 -0.1267451
v -1.676759 0.2156925 -0.2523054
v -1.475101 0.2156925 -0.210452
v -1.36476 0.2156925 -0.03162348
v -1.874612 0.2156925 0.03686392
v -1.425638 0.2156925 0.1662292
v -1.802319 0.2156925 0.1852536
v -1.600662 0.2156925 0.2575459
v 0.1762083 0.2156925 -0.2028422
v 0.3169881 0.2156925 -0.2523054
v 0.5034262 0.2156925 -0.1952325
v 0.07347703 0.2156925 -0.04303813
v 0.5833284 0.2156925 -0.004989505
v 0.1153305 0.2156925 0.1395953
v 0.5110359 0.2156925 0.1852536
v 0.2789395 0.2156925 0.253741
v -0.1928632 0.116766 -0.2256714
v -0.1966681 0.2156925 -0.2256714
v -0.3754966 0.2156925 -0.2485006
v -0.4135451 0.116766 -0.2408909
v -0.5200813 0.2156925 -0.1647936
v -0.5353007 0.116766 -0.1419644
v -0.5771542 0.116766 -0.004989505
v -0.5771542 0.2156925 -0.001184702
v -0.5391057 0.2156925 0.1357903
v -0.5429103 0.116766 0.1243758
v -0.4363744 0.116766 0.230912
v -0.4059355 0.2156925 0.2461312
v -0.230912 0.116766 0.2423265
v -0.2080827 0.2156925 0.230912
v -0.09393692 0.116766 0.1129611
v -0.08252239 0.2156925 0.090132
v -0.07110763 0.116766 -0.05064785
v -0.07871747 0.2156925 -0.07728183
v -0.1928632 0.116766 -0.2256714
v -0.1966681 0.2156925 -0.2256714
v -0.5200813 0.2156925 -0.1647936
v -0.3754966 0.2156925 -0.2485006
v -0.1966681 0.2156925 -0.2256714
v -0.07871747 0.2156925 -0.07728183
v -0.5771542 0.2156925 -0.001184702
v -0.08252239 0.2156925 0.090132
v -0.5391057 0.2156925 0.1357903
v -0.2080827 0.2156925 0.230912
v -0.4059355 0.2156925 0.2461312
v -1.946904 0.116766 0.3260334
v -1.946904 0.116766 -0.3245978
v 1.945468 0.116766 -0.3245978
v 1.945468 0.116766 0.3260334
v 1.945468 -0.2180617 -0.3245978
v -1.946904 -0.2180617 -0.3245978
v -1.946904 -0.2180617 0.3260334
v 1.945468 -0.2180617 0.3260334
v -1.946904 -0.2180617 -0.3245978
v 1.945468 -0.2180617 -0.3245978
v 1.945468 0.116766 -0.3245978
v -1.946904 0.116766 -0.3245978
v 1.945468 0.116766 0.3260334
v 1.945468 -0.2180617 0.3260334
v -1.946904 -0.2180617 0.3260334
v -1.946904 0.116766 0.3260334
v -1.946904 0.116766 0.3260334
v -1.946904 -0.2180617 0.3260334
v -1.946904 -0.2180617 -0.3245978
v -1.946904 0.116766 -0.3245978
v 1.945468 0.116766 -0.3245978
v 1.945468 -0.2180617 -0.3245978
v 1.945468 -0.2180617 0.3260334
v 1.945468 0.116766 0.3260334
v 1.530739 0.2156925 -0.2370861
v 1.694348 0.2156925 -0.2446958
v 1.816103 0.2156925 -0.1609888
v 1.397568 0.2156925 -0.1267451
v 1.880786 0.2156925 0.00262022
v 1.370934 0.2156925 0.05208337
v 1.800884 0.2156925 0.1814487
v 1.450837 0.2156925 0.1890583
v 1.62586 0.2156925 0.2575459
v 0.7811811 0.2156925 -0.1724033
v 0.8991318 0.2156925 -0.2446958
v 1.043716 0.2156925 -0.2446958
v 1.188301 0.2156925 -0.1343547
v 0.7203033 0.2156925 -0.04303813
v 1.222545 0.2156925 0.01022995
v 0.7355227 0.2156925 0.09774184
v 1.176887 0.2156925 0.1548147
v 0.864888 0.2156925 0.2385216
v 1.036107 0.2156925 0.2461312
v 0.8991318 0.2156925 -0.2446958
v 0.9257658 0.116766 -0.2523054
v 1.043716 0.2156925 -0.2446958
v 0.7811811 0.2156925 -0.1724033
v 1.096985 0.116766 -0.2218666
v 0.7887908 0.116766 -0.1762083
v 1.188301 0.2156925 -0.1343547
v 0.7203033 0.116766 -0.06206238
v 1.207325 0.116766 -0.0963062
v 0.7203033 0.2156925 -0.04303813
v 1.222545 0.2156925 0.01022995
v 1.21874 0.116766 0.05208337
v 0.7317179 0.116766 0.09774184
v 0.7355227 0.2156925 0.09774184
v 0.864888 0.2156925 0.2385216
v 0.8686929 0.116766 0.2385216
v 1.036107 0.2156925 0.2461312
v 1.043716 0.116766 0.2423265
v 1.176887 0.2156925 0.1548147
v 1.157862 0.116766 0.1738389
v 1.816103 0.2156925 -0.1609888
v 1.823713 0.116766 -0.1533791
v 1.880786 0.2156925 0.00262022
v 1.694348 0.2156925 -0.2446958
v 1.873176 0.116766 -0.02020895
v 1.690543 0.116766 -0.2485006
v 1.846542 0.116766 0.1205709
v 1.530739 0.2156925 -0.2370861
v 1.800884 0.2156925 0.1814487
v 1.515519 0.116766 -0.2332811
v 1.740006 0.116766 0.227107
v 1.397568 0.2156925 -0.1267451
v 1.389959 0.116766 -0.1153305
v 1.62586 0.2156925 0.2575459
v 1.591616 0.116766 0.253741
v 1.370934 0.2156925 0.05208337
v 1.370934 0.116766 0.05208337
v 1.447032 0.116766 0.1890583
v 1.450837 0.2156925 0.1890583
v 0.2789395 0.2156925 0.253741
v 0.4311339 0.116766 0.230912
v 0.2675248 0.116766 0.2499361
v 0.1191354 0.116766 0.1472049
v 0.5110359 0.2156925 0.1852536
v 0.1153305 0.2156925 0.1395953
v 0.564304 0.116766 0.1091564
v 0.07728183 0.116766 0.01783967
v 0.5833284 0.2156925 -0.004989505
v 0.07347703 0.2156925 -0.04303813
v 0.564304 0.116766 -0.0963062
v 0.1115257 0.116766 -0.1419644
v 0.5034262 0.2156925 -0.1952325
v 0.1762083 0.2156925 -0.2028422
v 0.4349388 0.116766 -0.2332811
v 0.26372 0.116766 -0.2446958
v 0.3169881 0.2156925 -0.2523054
v -1.676759 0.2156925 -0.2523054
v -1.672954 0.116766 -0.2485006
v -1.539784 0.116766 -0.2408909
v -1.790905 0.116766 -0.1914277
v -1.475101 0.2156925 -0.210452
v -1.847978 0.2156925 -0.1267451
v -1.387589 0.116766 -0.1115257
v -1.874612 0.116766 -0.03923321
v -1.36476 0.2156925 -0.03162348
v -1.874612 0.2156925 0.03686392
v -1.37998 0.116766 0.08252239
v -1.847978 0.116766 0.116766
v -1.425638 0.2156925 0.1662292
v -1.802319 0.2156925 0.1852536
v -1.482711 0.116766 0.2156925
v -1.756661 0.116766 0.2156925
v -1.600662 0.2156925 0.2575459
v -1.627296 0.116766 0.253741
v -1.056567 0.116766 0.2461312
v -1.052762 0.2156925 0.2461312
v -0.8777382 0.2156925 0.2385216
v -1.216371 0.2156925 0.08632708
v -0.8739333 0.116766 0.2347167
v -1.197346 0.116766 0.116766
v -0.7445681 0.2156925 0.1281805
v -1.22398 0.116766 -0.01259923
v -0.7445681 0.116766 0.1205709
v -1.201151 0.2156925 -0.1115257
v -0.7217388 0.2156925 -0.06206238
v -1.170712 0.116766 -0.1609888
v -0.7217388 0.116766 -0.0658673
v -1.071786 0.2156925 -0.2370861
v -0.9804695 0.116766 -0.2599151
v -0.8434944 0.2156925 -0.2256714
v -0.8092506 0.116766 -0.1990374
vt 0.763796 0.5098431
vt 0.763796 0.5098431
vt 0.763796 0.5098431
vt 0.763796 0.5098431
vt 0.763796 0.5098431
vt 0.763796 0.5098431
vt 0.763796 0.5098431
vt 0.763796 0.5098431
vt 0.763796 0.5098431
vt 0.763796 0.5098431
vt 0.763796 0.5098431
vt 0.763796 0.5098431
vt 0.763796 0.5098431
vt 0.763796 0.5098431
vt 0.763796 0.5098431
vt 0.763796 0.5098431
vt 0.763796 0.5098431
vt 0.763796 0.5098431
vt 0.763796 0.5098431
vt 0.763796 0.5098431
vt 0.763796 0.5098431
vt 0.763796 0.5098431
vt 0.763796 0.5098431
vt 0.763796 0.5098431
vt 0.763796 0.5098431
vt 0.763796 0.5098431
vt 0.763796 0.5098431
vt 0.763796 0.5098431
vt 0.763796 0.5098431
vt 0.763796 0.5098431
vt 0.763796 0.5098431
vt 0.763796 0.5098431
vt 0.763796 0.5098431
vt 0.763796 0.5098431
vt 0.763796 0.5098431
vt 0.763796 0.5098431
vt 0.763796 0.5098431
vt 0.763796 0.5098431
vt 0.763796 0.5098431
vt 0.763796 0.5098431
vt 0.763796 0.5098431
vt 0.763796 0.5098431
vt 0.763796 0.5098431
vt 0.763796 0.5098431
vt 0.763796 0.5098431
vt 0.763796 0.5098431
vt 0.763796 0.5098431
vt 0.763796 0.5098431
vt 0.763796 0.5098431
vt 0.763796 0.5098431
vt 0.763796 0.5098431
vt 0.763796 0.5098431
vt 0.763796 0.5098431
vt 0.763796 0.5098431
vt 0.763796 0.5098431
vt 0.763796 0.5098431
vt 0.763796 0.5098431
vt 0.763796 0.5098431
vt 0.763796 0.5098431
vt 0.763796 0.5098431
vt 0.763796 0.5098431
vt 0.763796 0.5098431
vt 0.763796 0.5098431
vt 0.763796 0.5098431
vt 0.763796 0.5098431
vt 0.763796 0.5098431
vt 0.763796 0.5098431
vt 0.763796 0.5098431
vt 0.763796 0.5098431
vt 0.763796 0.5098431
vt 0.763796 0.5098431
vt 0.763796 0.5098431
vt 0.763796 0.5098431
vt 0.763796 0.5098431
vt 0.763796 0.5098431
vt 0.763796 0.5098431
vt 0.763796 0.5098431
vt 0.763796 0.5098431
vt 0.763796 0.5098431
vt 0.763796 0.5098431
vt 0.763796 0.5098431
vt 0.763796 0.5098431
vt 0.763796 0.5098431
vt 0.763796 0.5098431
vt 0.763796 0.5098431
vt 0.763796 0.5098431
vt 0.763796 0.5098431
vt 0.763796 0.5098431
vt 0.763796 0.5098431
vt 0.763796 0.5098431
vt 0.763796 0.5098431
vt 0.763796 0.5098431
vt 0.763796 0.5098431
vt 0.763796 0.5098431
vt 0.763796 0.5098431
vt 0.763796 0.5098431
vt 0.763796 0.5098431
vt 0.763796 0.5098431
vt 0.763796 0.5098431
vt 0.763796 0.5098431
vt 0.763796 0.5098431
vt 0.763796 0.5098431
vt 0.763796 0.5098431
vt 0.763796 0.5098431
vt 0.763796 0.5098431
vt 0.763796 0.5098431
vt 0.763796 0.5098431
vt 0.763796 0.5098431
vt 0.763796 0.5098431
vt 0.763796 0.5098431
vt 0.763796 0.5098431
vt 0.763796 0.5098431
vt 0.763796 0.5098431
vt 0.763796 0.5098431
vt 0.763796 0.5098431
vt 0.763796 0.5098431
vt 0.763796 0.5098431
vt 0.763796 0.5098431
vt 0.763796 0.5098431
vt 0.763796 0.5098431
vt 0.763796 0.5098431
vt 0.763796 0.5098431
vt 0.763796 0.5098431
vt 0.763796 0.5098431
vt 0.763796 0.5098431
vt 0.763796 0.5098431
vt 0.763796 0.5098431
vt 0.763796 0.5098431
vt 0.763796 0.5098431
vt 0.763796 0.5098431
vt 0.763796 0.5098431
vt 0.763796 0.5098431
vt 0.763796 0.5098431
vt 0.763796 0.5098431
vt 0.763796 0.5098431
vt 0.763796 0.5098431
vt 0.763796 0.5098431
vt 0.763796 0.5098431
vt 0.763796 0.5098431
vt 0.763796 0.5098431
vt 0.763796 0.5098431
vt 0.763796 0.5098431
vt 0.763796 0.5098431
vt 0.763796 0.5098431
vt 0.763796 0.5098431
vt 0.763796 0.5098431
vt 0.763796 0.5098431
vt 0.763796 0.5098431
vt 0.763796 0.5098431
vt 0.763796 0.5098431
vt 0.763796 0.5098431
vt 0.763796 0.5098431
vt 0.763796 0.5098431
vt 0.763796 0.5098431
vt 0.763796 0.5098431
vt 0.763796 0.5098431
vt 0.763796 0.5098431
vt 0.763796 0.5098431
vt 0.763796 0.5098431
vt 0.763796 0.5098431
vt 0.763796 0.5098431
vt 0.763796 0.5098431
vt 0.763796 0.5098431
vt 0.763796 0.5098431
vt 0.763796 0.5098431
vt 0.763796 0.5098431
vt 0.763796 0.5098431
vt 0.763796 0.5098431
vt 0.763796 0.5098431
vt 0.763796 0.5098431
vt 0.763796 0.5098431
vt 0.763796 0.5098431
vt 0.763796 0.5098431
vt 0.763796 0.5098431
vt 0.763796 0.5098431
vt 0.763796 0.5098431
vt 0.763796 0.5098431
vt 0.763796 0.5098431
vt 0.763796 0.5098431
vt 0.763796 0.5098431
vt 0.763796 0.5098431
vt 0.763796 0.5098431
vt 0.763796 0.5098431
vt 0.763796 0.5098431
vt 0.763796 0.5098431
vt 0.763796 0.5098431
vt 0.763796 0.5098431
vn -0.01587105 0.999874 -0.000345267
vn -0.01587105 0.999874 -0.000345267
vn -0.01587105 0.999874 -0.000345267
vn -0.01587105 0.999874 -0.000345267
vn -0.01587105 0.999874 -0.000345267
vn -0.01587105 0.999874 -0.000345267
vn -0.01587105 0.999874 -0.000345267
vn -0.01587105 0.999874 -0.000345267
vn -0.01587105 0.999874 -0.000345267
vn -0.01587105 0.999874 -0.000345267
vn -0.01587105 0.999874 -0.000345267
vn -0.01587105 0.999874 -0.000345267
vn -0.01587105 0.999874 -0.000345267
vn -0.01587105 0.999874 -0.000345267
vn -0.01587105 0.999874 -0.000345267
vn -0.01587105 0.999874 -0.000345267
vn -0.01587105 0.999874 -0.000345267
vn -0.01587105 0.999874 -0.000345267
vn -0.01587105 0.999874 -0.000345267
vn -0.01587105 0.999874 -0.000345267
vn -0.01587105 0.999874 -0.000345267
vn -0.01587105 0.999874 -0.000345267
vn -0.01587105 0.999874 -0.000345267
vn -0.01587105 0.999874 -0.000345267
vn 0.07935506 -0.04761302 -0.9957087
vn 0.07935506 -0.04761302 -0.9957087
vn -0.1428392 0.01587105 -0.9896187
vn -0.3015493 0.01587105 -0.9533185
vn -0.7776798 -0.01587099 -0.6284602
vn -0.8411639 -0.01587099 -0.5405474
vn -0.999874 0.01587105 -0.0003439156
vn -0.999874 0.01587105 -0.0003439156
vn -0.8411639 0.01587105 0.5405474
vn -0.8729059 -0.01587099 0.4876305
vn -0.4602594 -0.01587099 0.8876426
vn -0.2698073 0.01587105 0.9627835
vn 0.3332914 -0.01587099 0.9426903
vn 0.4602594 0.01587105 0.8876426
vn 0.8729059 -0.01587099 0.4876305
vn 0.9363899 0.01587105 0.3506023
vn 0.968132 -0.01587099 -0.2499373
vn 0.9363899 0.01587105 -0.3506023
vn 0.8094218 -0.01587099 -0.5870132
vn 0.8094218 0.01587105 -0.5870132
vn -0.01587105 0.999874 -0.000345267
vn -0.01587105 0.999874 -0.000345267
vn -0.01587105 0.999874 -0.000345267
vn -0.01587105 0.999874 -0.000345267
vn -0.01587105 0.999874 -0.000345267
vn -0.01587105 0.999874 -0.000345267
vn -0.01587105 0.999874 -0.000345267
vn -0.01587105 0.999874 -0.000345267
vn -0.01587105 0.999874 -0.000345267
vn -0.01587105 0.999874 -0.000345267
vn -0.01587105 0.999874 -0.000345267
vn -0.01587105 0.999874 -0.000345267
vn -0.01587105 0.999874 -0.000345267
vn -0.01587105 -0.999874 -0.000345267
vn -0.01587105 -0.999874 -0.000345267
vn -0.01587105 -0.999874 -0.000345267
vn -0.01587105 -0.999874 -0.000345267
vn -0.01587105 0.01587105 -0.9997481
vn -0.01587105 0.01587105 -0.9997481
vn -0.01587105 0.01587105 -0.9997481
vn -0.01587105 0.01587105 -0.9997481
vn 0.01587099 0.01587105 0.9997481
vn 0.01587099 0.01587105 0.9997481
vn 0.01587099 0.01587105 0.9997481
vn 0.01587099 0.01587105 0.9997481
vn -0.999874 0.01587105 -0.0003439156
vn -0.999874 0.01587105 -0.0003439156
vn -0.999874 0.01587105 -0.0003439156
vn -0.999874 0.01587105 -0.0003439156
vn 0.999874 0.01587105 -0.0003439156
vn 0.999874 0.01587105 -0.0003439156
vn 0.999874 0.01587105 -0.0003439156
vn 0.999874 0.01587105 -0.0003439156
vn -0.01587105 0.999874 -0.000345267
vn -0.01587105 0.999874 -0.000345267
vn -0.01587105 0.999874 -0.000345267
vn -0.01587105 0.999874 -0.000345267
vn -0.01587105 0.999874 -0.000345267
vn -0.01587105 0.999874 -0.000345267
vn -0.01587105 0.999874 -0.000345267
vn -0.01587105 0.999874 -0.000345267
vn -0.01587105 0.999874 -0.000345267
vn -0.01587105 0.999874 -0.000345267
vn -0.01587105 0.999874 -0.000345267
vn -0.01587105 0.999874 -0.000345267
vn -0.01587105 0.999874 -0.000345267
vn -0.01587105 0.999874 -0.000345267
vn -0.01587105 0.999874 -0.000345267
vn -0.01587105 0.999874 -0.000345267
vn -0.01587105 0.999874 -0.000345267
vn -0.01587105 0.999874 -0.000345267
vn -0.01587105 0.999874 -0.000345267
vn -0.3015493 0.01587105 -0.9533185
vn -0.1745812 -0.01587099 -0.9845148
vn 0.3015493 0.01587105 -0.9533185
vn -0.7459378 -0.01587099 -0.6658264
vn 0.5237435 -0.01587099 -0.8517281
vn -0.6824538 -0.01587099 -0.7307565
vn 0.8411638 0.01587105 -0.5405475
vn -0.968132 -0.01587099 -0.249937
vn 0.9363899 -0.04761302 -0.3477167
vn -0.999874 0.01587105 -0.0003439156
vn 0.999874 0.01587105 -0.0003439156
vn 0.968132 -0.01587099 0.2499373
vn -0.9046479 -0.01587099 0.425864
vn -0.9046479 0.01587105 0.425864
vn -0.4285175 -0.01587099 0.9033941
vn -0.3967754 -0.01587099 0.9177785
vn 0.2698073 0.01587105 0.9627835
vn 0.2698073 0.01587105 0.9627835
vn 0.7776798 0.01587105 0.6284602
vn 0.7141957 -0.01587099 0.6997661
vn 0.7776798 0.01587105 -0.6284602
vn 0.8094218 0.01587105 -0.5870132
vn 0.999874 0.01587105 -0.0003439156
vn 0.2698073 -0.01587099 -0.9627835
vn 0.9988682 -0.04756513 0
vn 0.2698073 -0.01587099 -0.9627835
vn 0.8729059 0.01587105 0.4876305
vn -0.3332913 0.01587105 -0.9426903
vn 0.7141957 0.04761302 0.6983248
vn -0.3967754 0.01587105 -0.9177785
vn 0.4602594 0.01587105 0.8876426
vn -0.8729059 -0.01587099 -0.4876305
vn -0.9046479 -0.01587099 -0.425864
vn 0.01587099 0.01587105 0.9997481
vn -0.1745812 -0.01587099 0.9845148
vn -0.968132 0.01587105 0.249937
vn -0.968132 0.01587105 0.249937
vn -0.6824538 0.01587105 0.7307565
vn -0.6507117 0.01587105 0.759159
vn -0.2063233 0.01587105 0.9783552
vn 0.3650333 0.04761302 0.9297761
vn -0.2698073 -0.01587099 0.9627835
vn -0.8094218 0.04761302 0.5852943
vn 0.6824536 0.01587105 0.7307566
vn -0.8094218 0.04761302 0.5852943
vn 0.9363899 0.01587105 0.3506023
vn -0.999874 -0.01587099 -0.000346655
vn 0.999874 0.01587105 -0.0003439156
vn -0.999874 -0.01587099 -0.000346655
vn 0.9363899 -0.01587099 -0.3506023
vn -0.8411639 0.01587105 -0.5405474
vn 0.6824536 -0.01587099 -0.7307566
vn -0.5872276 0.01587105 -0.8092663
vn 0.3967754 -0.01587099 -0.9177785
vn -0.2698073 -0.04761302 -0.9617364
vn -0.01587105 0.01587105 -0.9997481
vn -0.2063233 0.04761302 -0.9773248
vn -0.2063233 -0.04761302 -0.9773248
vn 0.3332914 0.01587105 -0.9426903
vn -0.6507117 0.01587105 -0.759159
vn 0.5872276 0.01587105 -0.8092663
vn -0.8729059 0.01587105 -0.4876305
vn 0.9046479 0.01587105 -0.4258642
vn -0.999874 -0.01587099 -0.000346655
vn 0.999874 0.01587105 -0.0003439156
vn -0.9988682 0.04756513 0
vn 0.9363899 0.01587105 0.3506023
vn -0.9046479 -0.01587099 0.425864
vn 0.7776798 0.04761302 0.626855
vn -0.6824538 0.04761302 0.7293764
vn 0.5237435 0.01587105 0.8517281
vn -0.4920015 0.01587105 0.8704497
vn 0.07935506 0.01587105 0.9967201
vn -0.04761302 -0.01587099 0.9987398
vn -0.3650334 0.01587105 0.9308591
vn -0.3332913 0.01587105 0.9426903
vn 0.3650333 -0.01587099 0.9308591
vn -0.9363899 0.01587105 0.3506023
vn 0.3650333 -0.01587099 0.9308591
vn -0.8411639 0.01587105 0.5405474
vn 0.8729059 -0.01587099 0.4876305
vn -0.999874 0.01587105 -0.0003439156
vn 0.8729059 -0.01587099 0.4876305
vn -0.9046479 0.04761302 -0.4234915
vn 0.968132 0.01587105 -0.2499373
vn -0.7459378 -0.01587099 -0.6658264
vn 0.968132 0.04761302 -0.245873
vn -0.3967754 -0.01587099 -0.9177785
vn -0.01587105 0.04761302 -0.9987398
vn 0.4920015 0.01587105 -0.8704497
vn 0.6824536 -0.01587099 -0.7307566
g Round Brick 1x1.316_0
f 3/3/3 2/2/2 1/1/1
f 1/1/1 4/4/4 3/3/3
f 1/1/1 5/5/5 4/4/4
f 5/5/5 6/6/6 4/4/4
f 5/5/5 7/7/7 6/6/6
f 7/7/7 8/8/8 6/6/6
f 11/11/11 10/10/10 9/9/9
f 9/9/9 12/12/12 11/11/11
f 9/9/9 13/13/13 12/12/12
f 13/13/13 14/14/14 12/12/12
f 13/13/13 15/15/15 14/14/14
f 15/15/15 16/16/16 14/14/14
f 19/19/19 18/18/18 17/17/17
f 17/17/17 20/20/20 19/19/19
f 20/20/20 21/21/21 19/19/19
f 20/20/20 22/22/22 21/21/21
f 22/22/22 23/23/23 21/21/21
f 22/22/22 24/24/24 23/23/23
f 27/27/27 26/26/26 25/25/25
f 28/28/28 27/27/27 25/25/25
f 27/27/27 28/28/28 29/29/29
f 28/28/28 30/30/30 29/29/29
f 30/30/30 31/31/31 29/29/29
f 29/29/29 31/31/31 32/32/32
f 33/33/33 32/32/32 31/31/31
f 34/34/34 33/33/33 31/31/31
f 34/34/34 35/35/35 33/33/33
f 33/33/33 35/35/35 36/36/36
f 35/35/35 37/37/37 36/36/36
f 36/36/36 37/37/37 38/38/38
f 37/37/37 39/39/39 38/38/38
f 38/38/38 39/39/39 40/40/40
f 39/39/39 41/41/41 40/40/40
f 40/40/40 41/41/41 42/42/42
f 41/41/41 43/43/43 42/42/42
f 42/42/42 43/43/43 44/44/44
f 47/47/47 46/46/46 45/45/45
f 45/45/45 48/48/48 47/47/47
f 45/45/45 49/49/49 48/48/48
f 49/49/49 50/50/50 48/48/48
f 49/49/49 51/51/51 50/50/50
f 51/51/51 52/52/52 50/50/50
f 51/51/51 53/53/53 52/52/52
f 56/56/56 55/55/55 54/54/54
f 57/57/57 56/56/56 54/54/54
f 60/60/60 59/59/59 58/58/58
f 61/61/61 60/60/60 58/58/58
f 64/64/64 63/63/63 62/62/62
f 65/65/65 64/64/64 62/62/62
f 68/68/68 67/67/67 66/66/66
f 69/69/69 68/68/68 66/66/66
f 72/72/72 71/71/71 70/70/70
f 73/73/73 72/72/72 70/70/70
f 76/76/76 75/75/75 74/74/74
f 77/77/77 76/76/76 74/74/74
f 80/80/80 79/79/79 78/78/78
f 78/78/78 81/81/81 80/80/80
f 81/81/81 82/82/82 80/80/80
f 81/81/81 83/83/83 82/82/82
f 83/83/83 84/84/84 82/82/82
f 83/83/83 85/85/85 84/84/84
f 85/85/85 86/86/86 84/84/84
f 89/89/89 88/88/88 87/87/87
f 87/87/87 90/90/90 89/89/89
f 87/87/87 91/91/91 90/90/90
f 91/91/91 92/92/92 90/90/90
f 91/91/91 93/93/93 92/92/92
f 93/93/93 94/94/94 92/92/92
f 93/93/93 95/95/95 94/94/94
f 95/95/95 96/96/96 94/94/94
f 99/99/99 98/98/98 97/97/97
f 100/100/100 97/97/97 98/98/98
f 101/101/101 98/98/98 99/99/99
f 102/102/102 100/100/100 98/98/98
f 103/103/103 101/101/101 99/99/99
f 102/102/102 104/104/104 100/100/100
f 105/105/105 101/101/101 103/103/103
f 100/100/100 104/104/104 106/106/106
f 107/107/107 105/105/105 103/103/103
f 108/108/108 105/105/105 107/107/107
f 104/104/104 109/109/109 106/106/106
f 106/106/106 109/109/109 110/110/110
f 111/111/111 110/110/110 109/109/109
f 112/112/112 111/111/111 109/109/109
f 113/113/113 111/111/111 112/112/112
f 114/114/114 113/113/113 112/112/112
f 115/115/115 108/108/108 107/107/107
f 115/115/115 113/113/113 114/114/114
f 116/116/116 108/108/108 115/115/115
f 116/116/116 115/115/115 114/114/114
f 119/119/119 118/118/118 117/117/117
f 120/120/120 117/117/117 118/118/118
f 121/121/121 118/118/118 119/119/119
f 122/122/122 120/120/120 118/118/118
f 123/123/123 121/121/121 119/119/119
f 124/124/124 120/120/120 122/122/122
f 125/125/125 123/123/123 119/119/119
f 126/126/126 124/124/124 122/122/122
f 127/127/127 123/123/123 125/125/125
f 124/124/124 126/126/126 128/128/128
f 126/126/126 129/129/129 128/128/128
f 130/130/130 127/127/127 125/125/125
f 131/131/131 127/127/127 130/130/130
f 132/132/132 128/128/128 129/129/129
f 133/133/133 132/132/132 129/129/129
f 131/131/131 130/130/130 134/134/134
f 133/133/133 134/134/134 132/132/132
f 130/130/130 135/135/135 134/134/134
f 132/132/132 134/134/134 135/135/135
f 138/138/138 137/137/137 136/136/136
f 138/138/138 136/136/136 139/139/139
f 136/136/136 137/137/137 140/140/140
f 136/136/136 141/141/141 139/139/139
f 137/137/137 142/142/142 140/140/140
f 139/139/139 141/141/141 143/143/143
f 140/140/140 142/142/142 144/144/144
f 141/141/141 145/145/145 143/143/143
f 142/142/142 146/146/146 144/144/144
f 147/147/147 143/143/143 145/145/145
f 144/144/144 146/146/146 148/148/148
f 149/149/149 147/147/147 145/145/145
f 146/146/146 150/150/150 148/148/148
f 151/151/151 147/147/147 149/149/149
f 148/148/148 150/150/150 152/152/152
f 152/152/152 151/151/151 149/149/149
f 150/150/150 151/151/151 152/152/152
f 155/155/155 154/154/154 153/153/153
f 154/154/154 156/156/156 153/153/153
f 157/157/157 155/155/155 153/153/153
f 153/153/153 156/156/156 158/158/158
f 159/159/159 155/155/155 157/157/157
f 156/156/156 160/160/160 158/158/158
f 161/161/161 159/159/159 157/157/157
f 158/158/158 160/160/160 162/162/162
f 163/163/163 159/159/159 161/161/161
f 160/160/160 164/164/164 162/162/162
f 165/165/165 163/163/163 161/161/161
f 162/162/162 164/164/164 166/166/166
f 167/167/167 163/163/163 165/165/165
f 164/164/164 168/168/168 166/166/166
f 169/169/169 167/167/167 165/165/165
f 166/166/166 168/168/168 169/169/169
f 170/170/170 167/167/167 169/169/169
f 168/168/168 170/170/170 169/169/169
f 173/173/173 172/172/172 171/171/171
f 174/174/174 171/171/171 172/172/172
f 175/175/175 173/173/173 171/171/171
f 176/176/176 171/171/171 174/174/174
f 177/177/177 173/173/173 175/175/175
f 178/178/178 176/176/176 174/174/174
f 179/179/179 177/177/177 175/175/175
f 180/180/180 178/178/178 174/174/174
f 181/181/181 177/177/177 179/179/179
f 182/182/182 178/178/178 180/180/180
f 183/183/183 181/181/181 179/179/179
f 184/184/184 182/182/182 180/180/180
f 185/185/185 182/182/182 184/184/184
f 186/186/186 181/181/181 183/183/183
f 186/186/186 185/185/185 184/184/184
f 187/187/187 186/186/186 183/183/183
f 187/187/187 185/185/185 186/186/186
