g Round Brick 1x1.332
v -0.324445 -0.4878593 -0.501606
v 0.3253984 -0.4878593 -0.501606
v 0.3253984 0.5306453 -0.501606
v -0.324445 0.5306453 -0.501606
v -0.324445 -0.4878593 -0.501606
v -0.324445 0.5306453 -0.501606
v -0.324445 0.5306453 0.1482375
v -0.324445 -0.4878593 0.776836
v 0.3253984 -0.4878593 -0.501606
v 0.3253984 -0.4878593 0.776836
v 0.3253984 0.5306453 0.1482375
v 0.3253984 0.5306453 -0.501606
v 0.3253984 -0.4878593 0.776836
v -0.324445 -0.4878593 0.776836
v -0.324445 0.5306453 0.1482375
v 0.3253984 0.5306453 0.1482375
v -0.324445 0.5306453 -0.501606
v 0.3253984 0.5306453 -0.501606
v 0.3253984 0.5306453 0.1482375
v -0.324445 0.5306453 0.1482375
v -0.324445 -0.4878593 0.776836
v 0.3253984 -0.4878593 0.776836
v 0.3253984 -0.4878593 -0.501606
v -0.324445 -0.4878593 -0.501606
v -0.1057477 0.6318709 -0.4078786
v 0.0179725 0.6318709 -0.4291235
v 0.1092005 0.6318709 -0.4041295
v -0.1932266 0.6318709 -0.3391451
v 0.1866819 0.6318709 -0.347893
v 0.244168 0.6318709 -0.2454177
v -0.2394655 0.6318709 -0.2579147
v -0.2519624 0.6318709 -0.1479412
v 0.2454177 0.6318709 -0.1104502
v -0.2144715 0.6318709 -0.04296649
v 0.1829328 0.6318709 -0.001726419
v -0.1182446 0.6318709 0.04951125
v 0.1054514 0.6318709 0.05201066
v 0.01297373 0.6318709 0.07575488
v 0.1866819 0.6318709 -0.347893
v 0.1941801 0.5306453 -0.3403948
v 0.244168 0.6318709 -0.2454177
v 0.1092005 0.6318709 -0.4041295
v 0.2454177 0.5306453 -0.2341704
v 0.07670835 0.5306453 -0.4191259
v 0.2491668 0.5306453 -0.1316951
v 0.0179725 0.6318709 -0.4291235
v 0.2454177 0.6318709 -0.1104502
v -0.04201305 0.5306453 -0.4253744
v 0.2141753 0.5306453 -0.04421619
v -0.1057477 0.6318709 -0.4078786
v 0.1829328 0.6318709 -0.001726419
v -0.1382399 0.5306453 -0.3891331
v 0.1379436 0.5306453 0.03701425
v -0.1932266 0.6318709 -0.3391451
v 0.1054514 0.6318709 0.05201066
v -0.2144715 0.5306453 -0.310402
v 0.0179725 0.5306453 0.07575488
v -0.2394655 0.6318709 -0.2579147
v 0.01297373 0.6318709 0.07575488
v -0.2519624 0.5306453 -0.2054273
v -0.06825674 0.5306453 0.06575733
v -0.2519624 0.6318709 -0.1479412
v -0.1182446 0.6318709 0.04951125
v -0.2357163 0.5306453 -0.08045745
v -0.1532362 0.5306453 0.02576697
v -0.2144715 0.6318709 -0.04296649
vt 0.7657646 0.5216549
vt 0.7657646 0.5216549
vt 0.7657646 0.5216549
vt 0.7657646 0.5216549
vt 0.7657646 0.5216549
vt 0.7657646 0.5216549
vt 0.7657646 0.5216549
vt 0.7657646 0.5216549
vt 0.7657646 0.5216549
vt 0.7657646 0.5216549
vt 0.7657646 0.5216549
vt 0.7657646 0.5216549
vt 0.7657646 0.5216549
vt 0.7657646 0.5216549
vt 0.7657646 0.5216549
vt 0.7657646 0.5216549
vt 0.7657646 0.5216549
vt 0.7657646 0.5216549
vt 0.7657646 0.5216549
vt 0.7657646 0.5216549
vt 0.7657646 0.5216549
vt 0.7657646 0.5216549
vt 0.7657646 0.5216549
vt 0.7657646 0.5216549
vt 0.7657646 0.5216549
vt 0.7657646 0.5216549
vt 0.7657646 0.5216549
vt 0.7657646 0.5216549
vt 0.7657646 0.5216549
vt 0.7657646 0.5216549
vt 0.7657646 0.5216549
vt 0.7657646 0.5216549
vt 0.7657646 0.5216549
vt 0.7657646 0.5216549
vt 0.7657646 0.5216549
vt 0.7657646 0.5216549
vt 0.7657646 0.5216549
vt 0.7657646 0.5216549
vt 0.7657646 0.5216549
vt 0.7657646 0.5216549
vt 0.7657646 0.5216549
vt 0.7657646 0.5216549
vt 0.7657646 0.5216549
vt 0.7657646 0.5216549
vt 0.7657646 0.5216549
vt 0.7657646 0.5216549
vt 0.7657646 0.5216549
vt 0.7657646 0.5216549
vt 0.7657646 0.5216549
vt 0.7657646 0.5216549
vt 0.7657646 0.5216549
vt 0.7657646 0.5216549
vt 0.7657646 0.5216549
vt 0.7657646 0.5216549
vt 0.7657646 0.5216549
vt 0.7657646 0.5216549
vt 0.7657646 0.5216549
vt 0.7657646 0.5216549
vt 0.7657646 0.5216549
vt 0.7657646 0.5216549
vt 0.7657646 0.5216549
vt 0.7657646 0.5216549
vt 0.7657646 0.5216549
vt 0.7657646 0.5216549
vt 0.7657646 0.5216549
vt 0.7657646 0.5216549
vn -0.01587105 0.01587105 -0.9997481
vn -0.01587105 0.01587105 -0.9997481
vn -0.01587105 0.01587105 -0.9997481
vn -0.01587105 0.01587105 -0.9997481
vn -0.999874 0.01587105 -0.0003439156
vn -0.999874 0.01587105 -0.0003439156
vn -0.999874 0.01587105 -0.0003439156
vn -0.999874 0.01587105 -0.0003439156
vn 0.999874 0.01587105 -0.0003439156
vn 0.999874 0.01587105 -0.0003439156
vn 0.999874 0.01587105 -0.0003439156
vn 0.999874 0.01587105 -0.0003439156
vn -0.01587105 0.5237435 0.8517281
vn -0.01587105 0.5237435 0.8517281
vn -0.01587105 0.5237435 0.8517281
vn -0.01587105 0.5237435 0.8517281
vn -0.01587105 0.999874 -0.000345267
vn -0.01587105 0.999874 -0.000345267
vn -0.01587105 0.999874 -0.000345267
vn -0.01587105 0.999874 -0.000345267
vn -0.01587105 -0.999874 -0.000345267
vn -0.01587105 -0.999874 -0.000345267
vn -0.01587105 -0.999874 -0.000345267
vn -0.01587105 -0.999874 -0.000345267
vn -0.01587105 0.999874 -0.000345267
vn -0.01587105 0.999874 -0.000345267
vn -0.01587105 0.999874 -0.000345267
vn -0.01587105 0.999874 -0.000345267
vn -0.01587105 0.999874 -0.000345267
vn -0.01587105 0.999874 -0.000345267
vn -0.01587105 0.999874 -0.000345267
vn -0.01587105 0.999874 -0.000345267
vn -0.01587105 0.999874 -0.000345267
vn -0.01587105 0.999874 -0.000345267
vn -0.01587105 0.999874 -0.000345267
vn -0.01587105 0.999874 -0.000345267
vn -0.01587105 0.999874 -0.000345267
vn -0.01587105 0.999874 -0.000345267
vn 0.7141957 -0.01587099 -0.6997661
vn 0.7459377 -0.01587099 -0.6658266
vn 0.968132 0.01587105 -0.2499373
vn 0.4602594 0.01587105 -0.8876426
vn 0.968132 -0.01587099 -0.2499373
vn 0.3332914 -0.01587099 -0.9426903
vn 0.999874 -0.01587099 -0.000346655
vn 0.04761302 0.01587105 -0.9987398
vn 0.968132 0.01587105 0.2499373
vn -0.1428392 -0.01587099 -0.9896187
vn 0.8411638 -0.01587099 0.5405475
vn -0.3967754 0.01587105 -0.9177785
vn 0.7459377 0.01587105 0.6658266
vn -0.5554856 -0.01587099 -0.8313747
vn 0.5237435 -0.01587099 0.8517281
vn -0.7459378 0.01587105 -0.6658264
vn 0.3967754 0.01587105 0.9177785
vn -0.8411639 -0.01587099 -0.5405474
vn 0.07935506 0.01587105 0.9967201
vn -0.9363899 0.01587105 -0.3506023
vn 0.04761302 0.01587105 0.9987398
vn -0.999874 -0.01587099 -0.000346655
vn -0.2698073 -0.01587099 0.9627835
vn -0.999874 0.01587105 -0.0003439156
vn -0.4602594 0.01587105 0.8876426
vn -0.9363899 -0.01587099 0.3506023
vn -0.6189697 -0.01587099 0.7852545
vn -0.8411639 0.01587105 0.5405474
g Round Brick 1x1.332_0
f 3/3/3 2/2/2 1/1/1
f 4/4/4 3/3/3 1/1/1
f 7/7/7 6/6/6 5/5/5
f 8/8/8 7/7/7 5/5/5
f 11/11/11 10/10/10 9/9/9
f 12/12/12 11/11/11 9/9/9
f 15/15/15 14/14/14 13/13/13
f 16/16/16 15/15/15 13/13/13
f 19/19/19 18/18/18 17/17/17
f 20/20/20 19/19/19 17/17/17
f 23/23/23 22/22/22 21/21/21
f 24/24/24 23/23/23 21/21/21
f 27/27/27 26/26/26 25/25/25
f 25/25/25 28/28/28 27/27/27
f 28/28/28 29/29/29 27/27/27
f 28/28/28 30/30/30 29/29/29
f 28/28/28 31/31/31 30/30/30
f 31/31/31 32/32/32 30/30/30
f 32/32/32 33/33/33 30/30/30
f 32/32/32 34/34/34 33/33/33
f 34/34/34 35/35/35 33/33/33
f 34/34/34 36/36/36 35/35/35
f 36/36/36 37/37/37 35/35/35
f 36/36/36 38/38/38 37/37/37
f 41/41/41 40/40/40 39/39/39
f 42/42/42 39/39/39 40/40/40
f 43/43/43 40/40/40 41/41/41
f 44/44/44 42/42/42 40/40/40
f 43/43/43 41/41/41 45/45/45
f 42/42/42 44/44/44 46/46/46
f 41/41/41 47/47/47 45/45/45
f 44/44/44 48/48/48 46/46/46
f 49/49/49 45/45/45 47/47/47
f 46/46/46 48/48/48 50/50/50
f 51/51/51 49/49/49 47/47/47
f 48/48/48 52/52/52 50/50/50
f 53/53/53 49/49/49 51/51/51
f 50/50/50 52/52/52 54/54/54
f 55/55/55 53/53/53 51/51/51
f 52/52/52 56/56/56 54/54/54
f 53/53/53 55/55/55 57/57/57
f 54/54/54 56/56/56 58/58/58
f 55/55/55 59/59/59 57/57/57
f 56/56/56 60/60/60 58/58/58
f 57/57/57 59/59/59 61/61/61
f 58/58/58 60/60/60 62/62/62
f 59/59/59 63/63/63 61/61/61
f 60/60/60 64/64/64 62/62/62
f 65/65/65 61/61/61 63/63/63
f 62/62/62 64/64/64 66/66/66
f 66/66/66 65/65/65 63/63/63
f 64/64/64 65/65/65 66/66/66
