g Round Brick 1x1.325
v -0.1472629 0.5561636 -0.206972
v -0.005131602 0.5561636 -0.2550779
v 0.1599593 0.5561636 -0.2015054
v -0.2489414 0.5561636 -0.06702733
v 0.2583579 0.5561636 -0.0222013
v -0.2227018 0.5561636 0.1286765
v 0.1960388 0.5561636 0.164756
v -0.08931708 0.5561636 0.2391016
v 0.06046742 0.5561636 0.2467548
v 0.2616378 0.4555784 -0.01126814
v 0.2583579 0.5561636 -0.0222013
v 0.1599593 0.5561636 -0.2015054
v 0.1490261 0.4555784 -0.2102519
v -0.005131602 0.5561636 -0.2550779
v -0.01059824 0.4555784 -0.2539846
v -0.1735025 0.4555784 -0.1927588
v -0.1472629 0.5561636 -0.206972
v -0.2489414 0.5561636 -0.06702733
v -0.2511281 0.4555784 -0.03750777
v -0.2248884 0.4555784 0.1264899
v -0.2227018 0.5561636 0.1286765
v -0.08931708 0.5561636 0.2391016
v -0.04558438 0.4555784 0.2565947
v 0.06046742 0.5561636 0.2467548
v 0.1665192 0.4555784 0.1975555
v 0.1960388 0.5561636 0.164756
v 0.2616378 0.4555784 -0.01126814
v 0.2583579 0.5561636 -0.0222013
v 0.3250502 -0.5623001 -0.3250502
v -0.3243803 -0.5623001 -0.3250502
v -0.3243803 -0.5623001 0.3243803
v 0.3250502 -0.5623001 0.3243803
v -0.3243803 0.4555784 0.3243803
v -0.3243803 0.4555784 -0.3250502
v 0.3250502 0.4555784 -0.3250502
v 0.3250502 0.4555784 0.3243803
v 0.3250502 0.4555784 0.3243803
v 0.3250502 -0.5623001 0.3243803
v -0.3243803 -0.5623001 0.3243803
v -0.3243803 0.4555784 0.3243803
v -0.3243803 0.4555784 -0.3250502
v -0.3243803 -0.5623001 -0.3250502
v 0.3250502 -0.5623001 -0.3250502
v 0.3250502 0.4555784 -0.3250502
v 0.3250502 0.4555784 -0.3250502
v 0.3250502 -0.5623001 -0.3250502
v 0.3250502 -0.5623001 0.3243803
v 0.3250502 0.4555784 0.3243803
v -0.3243803 0.4555784 0.3243803
v -0.3243803 -0.5623001 0.3243803
v -0.3243803 -0.5623001 -0.3250502
v -0.3243803 0.4555784 -0.3250502
vt 0.7539529 0.5019686
vt 0.7539529 0.5019686
vt 0.7539529 0.5019686
vt 0.7539529 0.5019686
vt 0.7539529 0.5019686
vt 0.7539529 0.5019686
vt 0.7539529 0.5019686
vt 0.7539529 0.5019686
vt 0.7539529 0.5019686
vt 0.7539529 0.5019686
vt 0.7539529 0.5019686
vt 0.7539529 0.5019686
vt 0.7539529 0.5019686
vt 0.7539529 0.5019686
vt 0.7539529 0.5019686
vt 0.7539529 0.5019686
vt 0.7539529 0.5019686
vt 0.7539529 0.5019686
vt 0.7539529 0.5019686
vt 0.7539529 0.5019686
vt 0.7539529 0.5019686
vt 0.7539529 0.5019686
vt 0.7539529 0.5019686
vt 0.7539529 0.5019686
vt 0.7539529 0.5019686
vt 0.7539529 0.5019686
vt 0.7539529 0.5019686
vt 0.7539529 0.5019686
vt 0.7539529 0.5019686
vt 0.7539529 0.5019686
vt 0.7539529 0.5019686
vt 0.7539529 0.5019686
vt 0.7539529 0.5019686
vt 0.7539529 0.5019686
vt 0.7539529 0.5019686
vt 0.7539529 0.5019686
vt 0.7539529 0.5019686
vt 0.7539529 0.5019686
vt 0.7539529 0.5019686
vt 0.7539529 0.5019686
vt 0.7539529 0.5019686
vt 0.7539529 0.5019686
vt 0.7539529 0.5019686
vt 0.7539529 0.5019686
vt 0.7539529 0.5019686
vt 0.7539529 0.5019686
vt 0.7539529 0.5019686
vt 0.7539529 0.5019686
vt 0.7539529 0.5019686
vt 0.7539529 0.5019686
vt 0.7539529 0.5019686
vt 0.7539529 0.5019686
vn -0.01587105 0.999874 -0.000345267
vn -0.01587105 0.999874 -0.000345267
vn -0.01587105 0.999874 -0.000345267
vn -0.01587105 0.999874 -0.000345267
vn -0.01587105 0.999874 -0.000345267
vn -0.01587105 0.999874 -0.000345267
vn -0.01587105 0.999874 -0.000345267
vn -0.01587105 0.999874 -0.000345267
vn -0.01587105 0.999874 -0.000345267
vn 0.8729059 -0.04761302 -0.4855599
vn 0.8729059 -0.04761302 -0.4855599
vn 0.6507117 0.01587105 -0.759159
vn 0.6189696 -0.01587099 -0.7852545
vn -0.01587105 -0.01587099 -0.9997481
vn -0.04761302 -0.01587099 -0.9987398
vn -0.6507117 0.01587105 -0.759159
vn -0.5554856 0.01587105 -0.8313747
vn -0.968132 -0.01587099 -0.249937
vn -0.999874 -0.01587099 -0.000346655
vn -0.8729059 -0.01587099 0.4876305
vn -0.8729059 -0.01587099 0.4876305
vn -0.4285175 0.01587105 0.9033941
vn -0.2063233 -0.01587099 0.9783552
vn 0.2380652 -0.04761302 0.9700814
vn 0.6507117 -0.04761302 0.7578307
vn 0.8094218 -0.01587099 0.5870132
vn 0.9363899 0.01587105 0.3506023
vn 0.9363899 0.04761302 0.3477167
vn -0.01587105 -0.999874 -0.000345267
vn -0.01587105 -0.999874 -0.000345267
vn -0.01587105 -0.999874 -0.000345267
vn -0.01587105 -0.999874 -0.000345267
vn -0.01587105 0.999874 -0.000345267
vn -0.01587105 0.999874 -0.000345267
vn -0.01587105 0.999874 -0.000345267
vn -0.01587105 0.999874 -0.000345267
vn -0.01587105 0.01587105 0.9997481
vn -0.01587105 0.01587105 0.9997481
vn -0.01587105 0.01587105 0.9997481
vn -0.01587105 0.01587105 0.9997481
vn -0.01587105 0.01587105 -0.9997481
vn -0.01587105 0.01587105 -0.9997481
vn -0.01587105 0.01587105 -0.9997481
vn -0.01587105 0.01587105 -0.9997481
vn 0.999874 0.01587105 -0.0003439156
vn 0.999874 0.01587105 -0.0003439156
vn 0.999874 0.01587105 -0.0003439156
vn 0.999874 0.01587105 -0.0003439156
vn -0.999874 0.01587105 -0.0003439156
vn -0.999874 0.01587105 -0.0003439156
vn -0.999874 0.01587105 -0.0003439156
vn -0.999874 0.01587105 -0.0003439156
g Round Brick 1x1.325_0
f 3/3/3 2/2/2 1/1/1
f 1/1/1 4/4/4 3/3/3
f 4/4/4 5/5/5 3/3/3
f 4/4/4 6/6/6 5/5/5
f 6/6/6 7/7/7 5/5/5
f 6/6/6 8/8/8 7/7/7
f 8/8/8 9/9/9 7/7/7
f 12/12/12 11/11/11 10/10/10
f 13/13/13 12/12/12 10/10/10
f 12/12/12 13/13/13 14/14/14
f 13/13/13 15/15/15 14/14/14
f 15/15/15 16/16/16 14/14/14
f 14/14/14 16/16/16 17/17/17
f 17/17/17 16/16/16 18/18/18
f 16/16/16 19/19/19 18/18/18
f 19/19/19 20/20/20 18/18/18
f 18/18/18 20/20/20 21/21/21
f 22/22/22 21/21/21 20/20/20
f 23/23/23 22/22/22 20/20/20
f 22/22/22 23/23/23 24/24/24
f 23/23/23 25/25/25 24/24/24
f 24/24/24 25/25/25 26/26/26
f 25/25/25 27/27/27 26/26/26
f 26/26/26 27/27/27 28/28/28
f 31/31/31 30/30/30 29/29/29
f 32/32/32 31/31/31 29/29/29
f 35/35/35 34/34/34 33/33/33
f 36/36/36 35/35/35 33/33/33
f 39/39/39 38/38/38 37/37/37
f 40/40/40 39/39/39 37/37/37
f 43/43/43 42/42/42 41/41/41
f 44/44/44 43/43/43 41/41/41
f 47/47/47 46/46/46 45/45/45
f 48/48/48 47/47/47 45/45/45
f 51/51/51 50/50/50 49/49/49
f 52/52/52 51/51/51 49/49/49
