g Santa_Hat_Red
v -0.005555702 -0.008314696 0.002551892
v -0.007071068 -0.007071068 0.002551892
v -0.00674658 -0.006711201 0.002574046
v -0.005306775 -0.007892819 0.002574046
v -0.007928198 -0.005271395 0.002574046
v -0.003826835 -0.009238794 0.002551892
v -0.008314696 -0.005555702 0.002551892
v -0.003664114 -0.008770839 0.002574046
v -0.008806219 -0.003628733 0.002574046
v -0.001950903 -0.009807853 0.002551892
v -0.009238795 -0.003826834 0.002551892
v -0.001881722 -0.009311522 0.002574046
v -0.009346901 -0.001846342 0.002574046
v 8.742277E-10 -0.01 0.002551892
v -0.009807852 -0.001950903 0.002551892
v -2.809509E-05 -0.009494089 0.002574046
v -0.00952947 7.283523E-06 0.002574046
v 0.001950902 -0.009807853 0.002551892
v -0.01 -4.371139E-10 0.002551892
v 0.001825529 -0.009311522 0.002574046
v -0.009346901 0.00186091 0.002574046
v 0.003826834 -0.009238794 0.002551892
v -0.009807852 0.001950903 0.002551892
v 0.003607922 -0.008770839 0.002574046
v -0.008806219 0.003643302 0.002574046
v 0.005555703 -0.008314695 0.002551892
v -0.009238794 0.003826834 0.002551892
v 0.005250584 -0.007892818 0.002574046
v -0.007928198 0.005285963 0.002574046
v 0.007071067 -0.007071068 0.002551892
v -0.008314696 0.005555702 0.002551892
v 0.006690388 -0.006711202 0.002574046
v -0.00674658 0.006725768 0.002574046
v 0.008314694 -0.005555704 0.002551892
v -0.007071068 0.007071068 0.002551892
v 0.007872006 -0.005271398 0.002574046
v -0.005306776 0.007907386 0.002574046
v 0.009238794 -0.003826836 0.002551892
v -0.005555702 0.008314696 0.002551892
v 0.008750027 -0.003628735 0.002574046
v -0.003664114 0.008785407 0.002574046
v 0.009807852 -0.001950904 0.002551892
v -0.003826834 0.009238794 0.002551892
v 0.00929071 -0.001846342 0.002574046
v -0.001881722 0.009326089 0.002574046
v 0.01 1.192488E-10 0.002551892
v -0.001950903 0.009807852 0.002551892
v 0.009473276 7.284051E-06 0.002574046
v -2.809592E-05 0.009508656 0.002574046
v 0.009807852 0.001950904 0.002551892
v 0 0.01 0.002551892
v 0.00929071 0.001860911 0.002574046
v 0.001825529 0.00932609 0.002574046
v 0.009238794 0.003826836 0.002551892
v 0.001950902 0.009807853 0.002551892
v 0.008750027 0.003643303 0.002574046
v 0.003607922 0.008785407 0.002574046
v 0.008314697 0.005555701 0.002551892
v 0.003826834 0.009238795 0.002551892
v 0.007872007 0.005285962 0.002574046
v 0.005250584 0.007907386 0.002574046
v 0.007071069 0.007071066 0.002551892
v 0.005555703 0.008314696 0.002551892
v 0.00669039 0.006725767 0.002574046
v 0.001950902 0.009807853 0
v 0.003826834 0.009238795 0.002551892
v 0.001950902 0.009807853 0.002551892
v 0.003826834 0.009238795 0
v 0 0.01 0
v 0.005555703 0.008314696 0.002551892
v 0 0.01 0.002551892
v 0.005555703 0.008314696 0
v -0.001950903 0.009807852 0
v 0.007071069 0.007071066 0.002551892
v -0.001950903 0.009807852 0.002551892
v 0.007071069 0.007071066 0
v -0.003826834 0.009238794 0
v 0.008314697 0.005555701 0.002551892
v -0.003826834 0.009238794 0.002551892
v 0.008314697 0.005555701 0
v -0.005555702 0.008314696 0
v 0.009238794 0.003826836 0.002551892
v -0.005555702 0.008314696 0.002551892
v 0.009238794 0.003826836 0
v -0.007071068 0.007071068 0
v 0.009807852 0.001950904 0.002551892
v -0.007071068 0.007071068 0.002551892
v 0.009807852 0.001950904 0
v -0.008314696 0.005555702 0
v 0.01 1.192488E-10 0.002551892
v -0.008314696 0.005555702 0.002551892
v 0.01 1.192488E-10 0
v -0.009238794 0.003826834 0
v 0.009807852 -0.001950904 0.002551892
v -0.009238794 0.003826834 0.002551892
v 0.009807852 -0.001950904 0
v -0.009807852 0.001950903 0
v 0.009238794 -0.003826836 0.002551892
v -0.009807852 0.001950903 0.002551892
v 0.009238794 -0.003826836 0
v -0.01 -4.371139E-10 0
v 0.008314694 -0.005555704 0.002551892
v -0.01 -4.371139E-10 0.002551892
v 0.008314694 -0.005555704 0
v -0.009807852 -0.001950903 0
v 0.007071067 -0.007071068 0.002551892
v -0.009807852 -0.001950903 0.002551892
v 0.007071067 -0.007071068 0
v -0.009238795 -0.003826834 0
v 0.005555703 -0.008314695 0.002551892
v -0.009238795 -0.003826834 0.002551892
v 0.005555703 -0.008314695 0
v -0.008314696 -0.005555702 0
v 0.003826834 -0.009238794 0.002551892
v -0.008314696 -0.005555702 0.002551892
v 0.003826834 -0.009238794 0
v -0.007071068 -0.007071068 0
v 0.001950902 -0.009807853 0.002551892
v -0.007071068 -0.007071068 0.002551892
v 0.001950902 -0.009807853 0
v -0.005555702 -0.008314696 0
v 8.742277E-10 -0.01 0.002551892
v -0.005555702 -0.008314696 0.002551892
v 8.742277E-10 -0.01 0
v -0.003826835 -0.009238794 0
v -0.001950903 -0.009807853 0.002551892
v -0.003826835 -0.009238794 0.002551892
v -0.001950903 -0.009807853 0
vt 0 0
vt 0 0
vt 0 0
vt 0 0
vt 0 0
vt 0 0
vt 0 0
vt 0 0
vt 0 0
vt 0 0
vt 0 0
vt 0 0
vt 0 0
vt 0 0
vt 0 0
vt 0 0
vt 0 0
vt 0 0
vt 0 0
vt 0 0
vt 0 0
vt 0 0
vt 0 0
vt 0 0
vt 0 0
vt 0 0
vt 0 0
vt 0 0
vt 0 0
vt 0 0
vt 0 0
vt 0 0
vt 0 0
vt 0 0
vt 0 0
vt 0 0
vt 0 0
vt 0 0
vt 0 0
vt 0 0
vt 0 0
vt 0 0
vt 0 0
vt 0 0
vt 0 0
vt 0 0
vt 0 0
vt 0 0
vt 0 0
vt 0 0
vt 0 0
vt 0 0
vt 0 0
vt 0 0
vt 0 0
vt 0 0
vt 0 0
vt 0 0
vt 0 0
vt 0 0
vt 0 0
vt 0 0
vt 0 0
vt 0 0
vt 0 0
vt 0 0
vt 0 0
vt 0 0
vt 0 0
vt 0 0
vt 0 0
vt 0 0
vt 0 0
vt 0 0
vt 0 0
vt 0 0
vt 0 0
vt 0 0
vt 0 0
vt 0 0
vt 0 0
vt 0 0
vt 0 0
vt 0 0
vt 0 0
vt 0 0
vt 0 0
vt 0 0
vt 0 0
vt 0 0
vt 0 0
vt 0 0
vt 0 0
vt 0 0
vt 0 0
vt 0 0
vt 0 0
vt 0 0
vt 0 0
vt 0 0
vt 0 0
vt 0 0
vt 0 0
vt 0 0
vt 0 0
vt 0 0
vt 0 0
vt 0 0
vt 0 0
vt 0 0
vt 0 0
vt 0 0
vt 0 0
vt 0 0
vt 0 0
vt 0 0
vt 0 0
vt 0 0
vt 0 0
vt 0 0
vt 0 0
vt 0 0
vt 0 0
vt 0 0
vt 0 0
vt 0 0
vt 0 0
vt 0 0
vn -0.02499455 -0.03771155 0.998976
vn -0.03222117 -0.03244431 0.9989541
vn -0.03244206 -0.03224508 0.9989533
vn -0.02526934 -0.03754938 0.9989753
vn -0.03846296 -0.02555224 0.9989333
vn -0.01695969 -0.04139769 0.9989988
vn -0.03830742 -0.02576375 0.9989339
vn -0.01726875 -0.04129019 0.998998
vn -0.04304391 -0.01772021 0.998916
vn -0.008461043 -0.04341288 0.9990214
vn -0.0429543 -0.01791592 0.9989164
vn -0.008780388 -0.04336833 0.9990206
vn -0.04595277 -0.009065377 0.9989024
vn 0 -0.04373969 0.9990429
vn -0.04591798 -0.009218875 0.9989027
vn 0 -0.0437566 0.9990422
vn -0.04703186 0 0.9988934
vn 0.008589352 -0.0424244 0.9990628
vn -0.04703045 0 0.9988934
vn 0.008319357 -0.04249258 0.9990621
vn -0.04621194 0.009202166 0.9988893
vn 0.01652826 -0.03956688 0.9990802
vn -0.04621596 0.009181576 0.9988893
vn 0.01630884 -0.0396695 0.9990797
vn -0.04352023 0.01800095 0.9988903
vn 0.02372037 -0.03531022 0.9990948
vn -0.04350043 0.01804762 0.9988905
vn 0.02355937 -0.03542664 0.9990945
vn -0.03908007 0.02604497 0.9988966
vn 0.0299438 -0.02983158 0.9991062
vn -0.03901156 0.02614317 0.9988967
vn 0.02984113 -0.02994018 0.9991061
vn -0.03310269 0.03298169 0.9989077
vn 0.03501423 -0.02333437 0.9991143
vn -0.03296963 0.03310674 0.9989079
vn 0.03496227 -0.02341524 0.9991142
vn -0.02587212 0.03852108 0.9989228
vn 0.0387847 -0.016042 0.9991189
vn -0.02567047 0.03864434 0.9989232
vn 0.03876958 -0.01607932 0.9991187
vn -0.01772478 0.04245041 0.9989414
vn 0.04114523 -0.008193305 0.9991196
vn -0.01746252 0.04254456 0.998942
vn 0.04114854 -0.008177003 0.9991196
vn -0.009026853 0.04464162 0.9989623
vn 0.04202262 0 0.9991166
vn -0.008721881 0.04468544 0.998963
vn 0.04202364 0 0.9991166
vn 0 0.0450518 0.9989846
vn 0.04138106 0.008162092 0.99911
vn 0 0.04503334 0.9989855
vn 0.04135916 0.008287856 0.9991099
vn 0.008540001 0.04371751 0.9990075
vn 0.03922359 0.01614421 0.9991001
vn 0.008856239 0.04363526 0.9990084
vn 0.03916074 0.01631158 0.9990997
vn 0.0167165 0.0407448 0.9990298
vn 0.03559449 0.02363994 0.9990867
vn 0.01700185 0.04060705 0.9990305
vn 0.03547745 0.02383198 0.9990863
vn 0.0240862 0.03629662 0.9990508
vn 0.03058226 0.03038389 0.9990703
vn 0.02432277 0.03611943 0.9990514
vn 0.03040462 0.03057971 0.9990699
vn 0.1950902 0.9807854 0
vn 0.3826834 0.9238795 0
vn 0.1950902 0.9807854 0
vn 0.3826834 0.9238795 0
vn 0 1 0
vn 0.5555704 0.8314695 0
vn 0 1 0
vn 0.5555704 0.8314695 0
vn -0.1950904 0.9807853 0
vn 0.7071069 0.7071066 0
vn -0.1950904 0.9807853 0
vn 0.7071069 0.7071066 0
vn -0.3826834 0.9238795 0
vn 0.8314696 0.5555702 0
vn -0.3826834 0.9238795 0
vn 0.8314696 0.5555702 0
vn -0.5555702 0.8314696 0
vn 0.9238795 0.3826834 0
vn -0.5555702 0.8314696 0
vn 0.9238795 0.3826834 0
vn -0.7071068 0.7071068 0
vn 0.9807853 0.1950904 0
vn -0.7071068 0.7071068 0
vn 0.9807853 0.1950904 0
vn -0.8314696 0.5555702 0
vn 1 0 0
vn -0.8314696 0.5555702 0
vn 1 0 0
vn -0.9238795 0.3826834 0
vn 0.9807853 -0.1950903 0
vn -0.9238795 0.3826834 0
vn 0.9807853 -0.1950903 0
vn -0.9807853 0.1950904 0
vn 0.9238794 -0.3826835 0
vn -0.9807853 0.1950904 0
vn 0.9238794 -0.3826835 0
vn -1 0 0
vn 0.8314695 -0.5555705 0
vn -1 0 0
vn 0.8314695 -0.5555705 0
vn -0.9807853 -0.1950903 0
vn 0.7071066 -0.7071069 0
vn -0.9807853 -0.1950903 0
vn 0.7071066 -0.7071069 0
vn -0.9238795 -0.3826833 0
vn 0.5555702 -0.8314696 0
vn -0.9238795 -0.3826833 0
vn 0.5555702 -0.8314696 0
vn -0.8314696 -0.5555702 0
vn 0.3826835 -0.9238794 0
vn -0.8314696 -0.5555702 0
vn 0.3826835 -0.9238794 0
vn -0.7071068 -0.7071068 0
vn 0.1950904 -0.9807853 0
vn -0.7071068 -0.7071068 0
vn 0.1950904 -0.9807853 0
vn -0.5555702 -0.8314696 0
vn 0 -1 0
vn -0.5555702 -0.8314696 0
vn 0 -1 0
vn -0.3826834 -0.9238795 0
vn -0.1950903 -0.9807853 0
vn -0.3826834 -0.9238795 0
vn -0.1950903 -0.9807853 0
g Santa_Hat_Red_0
f 3/3/3 2/2/2 1/1/1
f 4/4/4 3/3/3 1/1/1
f 3/3/3 5/5/5 2/2/2
f 4/4/4 1/1/1 6/6/6
f 5/5/5 7/7/7 2/2/2
f 8/8/8 4/4/4 6/6/6
f 5/5/5 9/9/9 7/7/7
f 8/8/8 6/6/6 10/10/10
f 9/9/9 11/11/11 7/7/7
f 12/12/12 8/8/8 10/10/10
f 9/9/9 13/13/13 11/11/11
f 12/12/12 10/10/10 14/14/14
f 13/13/13 15/15/15 11/11/11
f 16/16/16 12/12/12 14/14/14
f 13/13/13 17/17/17 15/15/15
f 16/16/16 14/14/14 18/18/18
f 17/17/17 19/19/19 15/15/15
f 20/20/20 16/16/16 18/18/18
f 17/17/17 21/21/21 19/19/19
f 20/20/20 18/18/18 22/22/22
f 21/21/21 23/23/23 19/19/19
f 24/24/24 20/20/20 22/22/22
f 21/21/21 25/25/25 23/23/23
f 24/24/24 22/22/22 26/26/26
f 25/25/25 27/27/27 23/23/23
f 28/28/28 24/24/24 26/26/26
f 25/25/25 29/29/29 27/27/27
f 28/28/28 26/26/26 30/30/30
f 29/29/29 31/31/31 27/27/27
f 32/32/32 28/28/28 30/30/30
f 29/29/29 33/33/33 31/31/31
f 32/32/32 30/30/30 34/34/34
f 33/33/33 35/35/35 31/31/31
f 36/36/36 32/32/32 34/34/34
f 33/33/33 37/37/37 35/35/35
f 36/36/36 34/34/34 38/38/38
f 37/37/37 39/39/39 35/35/35
f 40/40/40 36/36/36 38/38/38
f 37/37/37 41/41/41 39/39/39
f 40/40/40 38/38/38 42/42/42
f 41/41/41 43/43/43 39/39/39
f 44/44/44 40/40/40 42/42/42
f 41/41/41 45/45/45 43/43/43
f 44/44/44 42/42/42 46/46/46
f 45/45/45 47/47/47 43/43/43
f 48/48/48 44/44/44 46/46/46
f 45/45/45 49/49/49 47/47/47
f 48/48/48 46/46/46 50/50/50
f 49/49/49 51/51/51 47/47/47
f 52/52/52 48/48/48 50/50/50
f 49/49/49 53/53/53 51/51/51
f 52/52/52 50/50/50 54/54/54
f 53/53/53 55/55/55 51/51/51
f 56/56/56 52/52/52 54/54/54
f 53/53/53 57/57/57 55/55/55
f 56/56/56 54/54/54 58/58/58
f 57/57/57 59/59/59 55/55/55
f 60/60/60 56/56/56 58/58/58
f 57/57/57 61/61/61 59/59/59
f 60/60/60 58/58/58 62/62/62
f 61/61/61 63/63/63 59/59/59
f 64/64/64 60/60/60 62/62/62
f 64/64/64 62/62/62 63/63/63
f 61/61/61 64/64/64 63/63/63
f 67/67/67 66/66/66 65/65/65
f 66/66/66 68/68/68 65/65/65
f 67/67/67 65/65/65 69/69/69
f 66/66/66 70/70/70 68/68/68
f 71/71/71 67/67/67 69/69/69
f 70/70/70 72/72/72 68/68/68
f 71/71/71 69/69/69 73/73/73
f 70/70/70 74/74/74 72/72/72
f 75/75/75 71/71/71 73/73/73
f 74/74/74 76/76/76 72/72/72
f 75/75/75 73/73/73 77/77/77
f 74/74/74 78/78/78 76/76/76
f 79/79/79 75/75/75 77/77/77
f 78/78/78 80/80/80 76/76/76
f 79/79/79 77/77/77 81/81/81
f 78/78/78 82/82/82 80/80/80
f 83/83/83 79/79/79 81/81/81
f 82/82/82 84/84/84 80/80/80
f 83/83/83 81/81/81 85/85/85
f 82/82/82 86/86/86 84/84/84
f 87/87/87 83/83/83 85/85/85
f 86/86/86 88/88/88 84/84/84
f 87/87/87 85/85/85 89/89/89
f 86/86/86 90/90/90 88/88/88
f 91/91/91 87/87/87 89/89/89
f 90/90/90 92/92/92 88/88/88
f 91/91/91 89/89/89 93/93/93
f 90/90/90 94/94/94 92/92/92
f 95/95/95 91/91/91 93/93/93
f 94/94/94 96/96/96 92/92/92
f 95/95/95 93/93/93 97/97/97
f 94/94/94 98/98/98 96/96/96
f 99/99/99 95/95/95 97/97/97
f 98/98/98 100/100/100 96/96/96
f 99/99/99 97/97/97 101/101/101
f 98/98/98 102/102/102 100/100/100
f 103/103/103 99/99/99 101/101/101
f 102/102/102 104/104/104 100/100/100
f 103/103/103 101/101/101 105/105/105
f 102/102/102 106/106/106 104/104/104
f 107/107/107 103/103/103 105/105/105
f 106/106/106 108/108/108 104/104/104
f 107/107/107 105/105/105 109/109/109
f 106/106/106 110/110/110 108/108/108
f 111/111/111 107/107/107 109/109/109
f 110/110/110 112/112/112 108/108/108
f 111/111/111 109/109/109 113/113/113
f 110/110/110 114/114/114 112/112/112
f 115/115/115 111/111/111 113/113/113
f 114/114/114 116/116/116 112/112/112
f 115/115/115 113/113/113 117/117/117
f 114/114/114 118/118/118 116/116/116
f 119/119/119 115/115/115 117/117/117
f 118/118/118 120/120/120 116/116/116
f 119/119/119 117/117/117 121/121/121
f 118/118/118 122/122/122 120/120/120
f 123/123/123 119/119/119 121/121/121
f 122/122/122 124/124/124 120/120/120
f 123/123/123 121/121/121 125/125/125
f 122/122/122 126/126/126 124/124/124
f 127/127/127 123/123/123 125/125/125
f 126/126/126 128/128/128 124/124/124
f 127/127/127 125/125/125 128/128/128
f 126/126/126 127/127/127 128/128/128
