g sauce
v -0.137733 0.05155367 -0.004838809
v -0.1351302 0.05155367 -0.08320992
v -0.1279004 0.05155367 -0.1147319
v -0.09348655 0.05155367 -0.1303483
v -0.08857028 0.05155367 0.136287
v -0.1264545 0.05155367 0.04981852
v -0.1209598 0.05155367 0.1180679
v -0.1307924 0.05155367 0.0952217
v 0.09333165 0.05155367 -0.1271671
v 0.0279742 0.05155367 -0.131505
v -0.02668314 0.05155367 -0.1320834
v 0.08870457 0.05155367 0.136287
v -0.02523717 0.05155367 0.14236
v 0.02508228 0.05155367 0.14236
v 0.1262996 0.05155367 0.0503969
v 0.1208049 0.05155367 0.1183571
v 0.1306375 0.05155367 0.0955109
v 0.1372889 0.05155367 -0.002236083
v 0.1268779 0.05155367 -0.1086588
v 0.1332402 0.05155367 -0.07598011
v -0.1307924 0.05155367 0.0952217
v -0.1383113 0.04634821 0.1007164
v -0.1336843 0.04634821 0.05299963
v -0.1264545 0.05155367 0.04981852
v -0.1455411 0.04634821 -0.004549623
v -0.137733 0.05155367 -0.004838809
v -0.143806 0.04634821 -0.087837
v -0.1351302 0.05155367 -0.08320992
v -0.136287 0.04634821 -0.1213833
v -0.1279004 0.05155367 -0.1147319
v 0.1262996 0.05155367 0.0503969
v 0.1384456 0.04634821 0.1010056
v 0.1306375 0.05155367 0.0955109
v 0.1338186 0.04634821 0.05328883
v 0.1372889 0.05155367 -0.002236083
v 0.1450971 0.04634821 -0.001946896
v 0.1332402 0.05155367 -0.07598011
v 0.1419159 0.04634821 -0.0800288
v 0.1268779 0.05155367 -0.1086588
v 0.1352645 0.04634821 -0.1147319
v -0.08857028 0.05155367 0.136287
v -0.1281896 0.04634821 0.1247193
v -0.1209598 0.05155367 0.1180679
v -0.09406494 0.04634821 0.1440952
v -0.02523717 0.05155367 0.14236
v -0.02668314 0.04634821 0.1507466
v 0.02508228 0.05155367 0.14236
v 0.02652824 0.04634821 0.1507466
v 0.1208049 0.05155367 0.1183571
v 0.1280347 0.04634821 0.1252977
v 0.09391003 0.04634821 0.1440952
v 0.08870457 0.05155367 0.136287
v 0.02652824 0.04634821 0.1507466
v 0.02508228 0.05155367 0.14236
v 0.1306375 0.05155367 0.0955109
v 0.1384456 0.04634821 0.1010056
v 0.1280347 0.04634821 0.1252977
v 0.1208049 0.05155367 0.1183571
v -0.1279004 0.05155367 -0.1147319
v -0.136287 0.04634821 -0.1213833
v -0.09955959 0.04634821 -0.1381564
v -0.09348655 0.05155367 -0.1303483
v -0.0281291 0.04634821 -0.1398916
v -0.02668314 0.05155367 -0.1320834
v -0.1209598 0.05155367 0.1180679
v -0.1281896 0.04634821 0.1247193
v -0.1383113 0.04634821 0.1007164
v -0.1307924 0.05155367 0.0952217
v 0.09333165 0.05155367 -0.1271671
v 0.1352645 0.04634821 -0.1147319
v 0.1268779 0.05155367 -0.1086588
v 0.09969388 0.04634821 -0.1349753
v 0.0279742 0.05155367 -0.131505
v 0.02942016 0.04634821 -0.1396024
v -0.02668314 0.05155367 -0.1320834
v -0.0281291 0.04634821 -0.1398916
vt 0.02779885 0.8888116
vt 0.03465951 0.8888116
vt 0.03808984 0.8888116
vt 0.03808984 0.8888116
vt 0.01407753 0.8888116
vt 0.02436852 0.8888116
vt 0.01750786 0.8888116
vt 0.01750786 0.8888116
vt 0.03808984 0.8888116
vt 0.03808984 0.8888116
vt 0.03808984 0.8888116
vt 0.01407753 0.8888116
vt 0.01407753 0.8888116
vt 0.01407753 0.8888116
vt 0.02436852 0.8888116
vt 0.01750786 0.8888116
vt 0.01750786 0.8888116
vt 0.02779885 0.8888116
vt 0.03808984 0.8888116
vt 0.03465951 0.8888116
vt 0.01750786 0.8888116
vt 0.01750786 0.8647994
vt 0.02436852 0.8647994
vt 0.02436852 0.8888116
vt 0.02779885 0.8647994
vt 0.02779885 0.8888116
vt 0.03465951 0.8647994
vt 0.03465951 0.8888116
vt 0.03808984 0.8647994
vt 0.03808984 0.8888116
vt 0.02436852 0.8888116
vt 0.01750786 0.8647994
vt 0.01750786 0.8888116
vt 0.02436852 0.8647994
vt 0.02779885 0.8888116
vt 0.02779885 0.8647994
vt 0.03465951 0.8888116
vt 0.03465951 0.8647994
vt 0.03808984 0.8888116
vt 0.03808984 0.8647994
vt 0.01407753 0.8888116
vt 0.01750786 0.8647994
vt 0.01750786 0.8888116
vt 0.01407753 0.8647994
vt 0.01407753 0.8888116
vt 0.01407753 0.8647994
vt 0.01407753 0.8888116
vt 0.01407753 0.8647994
vt 0.01750786 0.8888116
vt 0.01750786 0.8647994
vt 0.01407753 0.8647994
vt 0.01407753 0.8888116
vt 0.01407753 0.8647994
vt 0.01407753 0.8888116
vt 0.01750786 0.8888116
vt 0.01750786 0.8647994
vt 0.01750786 0.8647994
vt 0.01750786 0.8888116
vt 0.03808984 0.8888116
vt 0.03808984 0.8647994
vt 0.03808984 0.8647994
vt 0.03808984 0.8888116
vt 0.03808984 0.8647994
vt 0.03808984 0.8888116
vt 0.01750786 0.8888116
vt 0.01750786 0.8647994
vt 0.01750786 0.8647994
vt 0.01750786 0.8888116
vt 0.03808984 0.8888116
vt 0.03808984 0.8647994
vt 0.03808984 0.8888116
vt 0.03808984 0.8647994
vt 0.03808984 0.8888116
vt 0.03808984 0.8647994
vt 0.03808984 0.8888116
vt 0.03808984 0.8647994
vn 0.006897569 0.9999763 0
vn 0.006897569 0.9999763 0
vn 0.006897569 0.9999763 0
vn 0.006897569 0.9999763 0
vn 0.006897569 0.9999763 0
vn 0.006897569 0.9999763 0
vn 0.006897569 0.9999763 0
vn 0.006897569 0.9999763 0
vn 0.006897569 0.9999763 0
vn 0.006897569 0.9999763 0
vn 0.006897569 0.9999763 0
vn 0.006897569 0.9999763 0
vn 0.006897569 0.9999763 0
vn 0.006897569 0.9999763 0
vn 0.006897569 0.9999763 0
vn 0.006897569 0.9999763 0
vn 0.006897569 0.9999763 0
vn 0.006897569 0.9999763 0
vn 0.006897569 0.9999763 0
vn 0.006897569 0.9999763 0
vn -0.5972267 0.7986015 -0.0745373
vn -0.5972267 0.7986015 -0.0745373
vn -0.5703891 0.8213747 0
vn -0.546883 0.8237734 0.1493869
vn -0.5415509 0.840668 0
vn -0.5415509 0.840668 0
vn -0.4965394 0.8489451 -0.1809443
vn -0.5217112 0.8489451 -0.08431834
vn -0.4713675 0.874117 -0.1171842
vn -0.4713675 0.874117 -0.1171842
vn 0.5606782 0.8237734 0.08388922
vn 0.58585 0.7986015 -0.1378962
vn 0.58585 0.7986015 -0.1378962
vn 0.5606782 0.8237734 0.08388922
vn 0.533516 0.8457899 0
vn 0.533516 0.8457899 0
vn 0.5103345 0.8489451 -0.1372984
vn 0.5103345 0.8489451 -0.1372984
vn 0.4851626 0.874117 -0.02316507
vn 0.4851626 0.874117 -0.02316507
vn -0.1189617 0.8489451 0.5149177
vn -0.2448209 0.874117 0.4195023
vn -0.2448209 0.874117 0.4195023
vn -0.1441335 0.874117 0.4638372
vn -0.01827431 0.8489451 0.5281649
vn -0.01827431 0.8489451 0.5281649
vn 0.03206939 0.8489451 0.5275071
vn 0.03206939 0.8489451 0.5275071
vn 0.2334442 0.874117 0.4259381
vn 0.2334442 0.874117 0.4259381
vn 0.1327568 0.874117 0.4672205
vn 0.107585 0.8489451 0.5174144
vn 0.03206939 0.8489451 0.5275071
vn 0.03206939 0.8489451 0.5275071
vn 0.4599908 0.874117 0.1559741
vn 0.4599908 0.874117 0.1559741
vn 0.4599908 0.874117 0.1559741
vn 0.4599908 0.874117 0.1559741
vn -0.1944772 0.874117 -0.445082
vn -0.1944772 0.874117 -0.445082
vn -0.1189617 0.874117 -0.470922
vn -0.068618 0.8489451 -0.5240074
vn -0.01827431 0.8237734 -0.5666246
vn 0.006897569 0.8237734 -0.5668773
vn -0.4461956 0.874117 0.1919087
vn -0.4461956 0.874117 0.1919087
vn -0.4461956 0.874117 0.1919087
vn -0.4461956 0.874117 0.1919087
vn 0.107585 0.8489451 -0.5174144
vn 0.2334442 0.874117 -0.4259381
vn 0.2334442 0.874117 -0.4259381
vn 0.1327568 0.874117 -0.4672205
vn 0.03206939 0.8489451 -0.5275071
vn 0.03206939 0.8489451 -0.5275071
vn 0.006897569 0.8237734 -0.5668773
vn -0.01827431 0.8237734 -0.5666246
g sauce_0
f 3/3/3 2/2/2 1/1/1
f 3/3/3 1/1/1 4/4/4
f 5/5/5 4/4/4 1/1/1
f 6/6/6 5/5/5 1/1/1
f 5/5/5 6/6/6 7/7/7
f 7/7/7 6/6/6 8/8/8
f 9/9/9 4/4/4 5/5/5
f 9/9/9 10/10/10 4/4/4
f 10/10/10 11/11/11 4/4/4
f 12/12/12 9/9/9 5/5/5
f 12/12/12 5/5/5 13/13/13
f 14/14/14 12/12/12 13/13/13
f 9/9/9 12/12/12 15/15/15
f 16/16/16 15/15/15 12/12/12
f 17/17/17 15/15/15 16/16/16
f 18/18/18 9/9/9 15/15/15
f 9/9/9 18/18/18 19/19/19
f 20/20/20 19/19/19 18/18/18
f 23/23/23 22/22/22 21/21/21
f 24/24/24 23/23/23 21/21/21
f 25/25/25 23/23/23 24/24/24
f 26/26/26 25/25/25 24/24/24
f 25/25/25 26/26/26 27/27/27
f 26/26/26 28/28/28 27/27/27
f 29/29/29 27/27/27 28/28/28
f 30/30/30 29/29/29 28/28/28
f 33/33/33 32/32/32 31/31/31
f 32/32/32 34/34/34 31/31/31
f 31/31/31 34/34/34 35/35/35
f 34/34/34 36/36/36 35/35/35
f 37/37/37 35/35/35 36/36/36
f 38/38/38 37/37/37 36/36/36
f 37/37/37 38/38/38 39/39/39
f 38/38/38 40/40/40 39/39/39
f 43/43/43 42/42/42 41/41/41
f 42/42/42 44/44/44 41/41/41
f 41/41/41 44/44/44 45/45/45
f 44/44/44 46/46/46 45/45/45
f 45/45/45 46/46/46 47/47/47
f 46/46/46 48/48/48 47/47/47
f 51/51/51 50/50/50 49/49/49
f 52/52/52 51/51/51 49/49/49
f 53/53/53 51/51/51 52/52/52
f 54/54/54 53/53/53 52/52/52
f 57/57/57 56/56/56 55/55/55
f 58/58/58 57/57/57 55/55/55
f 61/61/61 60/60/60 59/59/59
f 62/62/62 61/61/61 59/59/59
f 63/63/63 61/61/61 62/62/62
f 64/64/64 63/63/63 62/62/62
f 67/67/67 66/66/66 65/65/65
f 68/68/68 67/67/67 65/65/65
f 71/71/71 70/70/70 69/69/69
f 70/70/70 72/72/72 69/69/69
f 69/69/69 72/72/72 73/73/73
f 72/72/72 74/74/74 73/73/73
f 73/73/73 74/74/74 75/75/75
f 74/74/74 76/76/76 75/75/75
