g shrub-round
v -0.4771086 0.06234194 0.4614771
v -0.2656811 -0.2192454 0.1489373
v -0.6795633 0.1149148 0.010417
v -0.265691 -0.1973049 -0.1947215
v 0.06838242 -0.2185507 0.2771002
v -0.4466872 0.05838357 -0.4707957
v -0.4771086 0.06234194 0.4614771
v -0.1393123 0.2445809 0.7441995
v 0.2640043 0.3078029 0.7209468
v -0.000846518 0.1125975 -0.6742914
v 0.4449748 0.0318462 0.4613445
v 0.1376179 -0.2208869 -0.2585899
v 0.4754342 0.05846591 -0.4401421
v 0.3903696 -0.1731724 0.009024694
v 0.7011967 0.240633 -0.1929736
v 0.6778677 0.1155488 0.1505078
v 0.7245152 0.5082781 0.2806455
v 0.2640043 0.3078029 0.7209468
v 0.7011967 0.240633 -0.1929736
v 0.2640132 0.6482504 0.7450317
v 0.7245051 0.6443847 -0.2551279
v 0.4449954 0.9553878 0.4952531
v 0.6778747 0.8989998 0.01440481
v -0.0008462779 0.9010826 0.6985154
v 0.2008103 1.211381 0.2831507
v -0.2657043 0.5789891 0.7449715
v 0.4754132 0.9514782 -0.4368965
v 0.2640061 0.4348135 -0.7204353
v 0.7011967 0.240633 -0.1929736
v 0.4754342 0.05846591 -0.4401421
v -0.000846518 0.1125975 -0.6742914
v -0.2656996 0.365492 -0.720649
v 0.2639896 1.23315 -0.1241416
v -0.4466881 0.9553878 0.4952532
v -0.1393115 1.234703 0.2831608
v -0.2656849 1.233514 -0.05397631
v -0.0008464665 1.185152 -0.3803947
v 0.1376188 0.7692283 -0.719646
v -0.2656952 0.7060502 -0.6962818
v -0.4771062 0.9514782 -0.4368963
v -0.6795675 0.8989998 0.01440505
v -0.737859 0.4364751 -0.2240312
v -0.7262081 0.5082781 0.2806457
v -0.2657043 0.5789891 0.7449715
v -0.4771086 0.06234194 0.4614771
v -0.4466872 0.05838357 -0.4707957
v -0.000846518 0.1125975 -0.6742914
v -0.6795633 0.1149148 0.010417
v -0.4771086 0.06234194 0.4614771
v -0.1393123 0.2445809 0.7441995
v 0.2640043 0.3078029 0.7209468
v -0.2657043 0.5789891 0.7449715
vt 0.2777197 0.4163838
vt 0.2824644 0.4071854
vt 0.2704783 0.4069902
vt 0.2808706 0.4005176
vt 0.2893896 0.4083267
vt 0.2738881 0.3946385
vt 0.2777197 0.4163838
vt 0.2866552 0.4235139
vt 0.2965961 0.4228383
vt 0.2829175 0.3867701
vt 0.2998451 0.4128489
vt 0.2885028 0.3975099
vt 0.2954147 0.3894458
vt 0.2950729 0.4013685
vt 0.3047931 0.3923747
vt 0.3057545 0.4020696
vt 0.3129525 0.4083882
vt 0.3062986 0.4255533
vt 0.3174769 0.3946416
vt 0.3114009 0.4235242
vt 0.3222707 0.4022023
vt 0.3180649 0.4159354
vt 0.3210641 0.408061
vt 0.3204101 0.4223662
vt 0.3238754 0.4151165
vt 0.3233329 0.4290103
vt 0.3278178 0.4055768
vt 0.3362076 0.3980585
vt 0.3174769 0.3946416
vt 0.3296893 0.3867701
vt 0.3473118 0.393382
vt 0.348105 0.401971
vt 0.3269879 0.4109935
vt 0.3283168 0.4220019
vt 0.3268414 0.4169255
vt 0.3308278 0.4145063
vt 0.3313627 0.4102267
vt 0.3349254 0.4036927
vt 0.3406696 0.4063825
vt 0.3370377 0.4122237
vt 0.3353521 0.4183847
vt 0.3436565 0.4180251
vt 0.3369696 0.4250617
vt 0.3233329 0.4290103
vt 0.336431 0.4376901
vt 0.3559021 0.4088716
vt 0.3473118 0.393382
vt 0.3485691 0.4268883
vt 0.336431 0.4376901
vt 0.3194181 0.4361281
vt 0.3062986 0.4255533
vt 0.3233329 0.4290103
vn -0.5933598 -0.5467613 0.590742
vn -0.3256496 -0.9268011 0.1870615
vn -0.8605989 -0.509267 0.004101898
vn -0.3340916 -0.9019761 -0.2735356
vn 0.0720928 -0.9143314 0.3984982
vn -0.582275 -0.5519856 -0.5968817
vn -0.5933598 -0.5467613 0.590742
vn -0.1536996 -0.3837146 0.910571
vn 0.3594379 -0.2947642 0.8853917
vn 0.01884353 -0.5346878 -0.8448396
vn 0.5185516 -0.5874932 0.6212536
vn 0.1390037 -0.9256051 -0.3520416
vn 0.6216817 -0.516785 -0.5885959
vn 0.5010366 -0.8654235 0.002110496
vn 0.9029238 -0.3040532 -0.3037766
vn 0.8657172 -0.470733 0.1701298
vn 0.9225891 0.01707494 0.385406
vn 0.3594379 -0.2947642 0.8853917
vn 0.9029238 -0.3040532 -0.3037766
vn 0.3755623 0.1339757 0.9170625
vn 0.9163651 0.1192635 -0.3821664
vn 0.5989865 0.5490136 0.5829231
vn 0.8520318 0.5218758 0.04107676
vn -0.01461448 0.5238022 0.8517146
vn 0.280448 0.9027068 0.3262963
vn -0.39154 0.07140432 0.9173864
vn 0.6013832 0.5407379 -0.5881673
vn 0.3986019 -0.08127756 -0.9135154
vn 0.9029238 -0.3040532 -0.3037766
vn 0.6216817 -0.516785 -0.5885959
vn 0.01884353 -0.5346878 -0.8448396
vn -0.3817934 -0.1298163 -0.9150856
vn 0.3515809 0.9256614 -0.1397925
vn -0.5961813 0.5469998 0.5876727
vn -0.1874297 0.9278782 0.3223541
vn -0.3643039 0.9279879 -0.07823739
vn -0.02175391 0.8452481 -0.5339311
vn 0.1663803 0.3464368 -0.9232005
vn -0.3735447 0.2667941 -0.8884172
vn -0.6182569 0.5365534 -0.574342
vn -0.8632052 0.5048302 0.004834511
vn -0.9353608 -0.04975745 -0.3501776
vn -0.9224953 0.004977539 0.3859761
vn -0.39154 0.07140432 0.9173864
vn -0.5933598 -0.5467613 0.590742
vn -0.582275 -0.5519856 -0.5968817
vn 0.01884353 -0.5346878 -0.8448396
vn -0.8605989 -0.509267 0.004101898
vn -0.5933598 -0.5467613 0.590742
vn -0.1536996 -0.3837146 0.910571
vn 0.3594379 -0.2947642 0.8853917
vn -0.39154 0.07140432 0.9173864
g shrub-round_0
f 3/3/3 2/2/2 1/1/1
f 3/3/3 4/4/4 2/2/2
f 4/4/4 5/5/5 2/2/2
f 3/3/3 6/6/6 4/4/4
f 2/2/2 5/5/5 7/7/7
f 8/8/8 7/7/7 5/5/5
f 9/9/9 8/8/8 5/5/5
f 10/10/10 4/4/4 6/6/6
f 11/11/11 9/9/9 5/5/5
f 10/10/10 12/12/12 4/4/4
f 12/12/12 5/5/5 4/4/4
f 10/10/10 13/13/13 12/12/12
f 12/12/12 14/14/14 5/5/5
f 14/14/14 12/12/12 13/13/13
f 14/14/14 11/11/11 5/5/5
f 13/13/13 15/15/15 14/14/14
f 15/15/15 16/16/16 14/14/14
f 16/16/16 11/11/11 14/14/14
f 11/11/11 16/16/16 17/17/17
f 17/17/17 18/18/18 11/11/11
f 19/19/19 17/17/17 16/16/16
f 17/17/17 20/20/20 18/18/18
f 21/21/21 17/17/17 19/19/19
f 17/17/17 22/22/22 20/20/20
f 21/21/21 23/23/23 17/17/17
f 22/22/22 17/17/17 23/23/23
f 22/22/22 24/24/24 20/20/20
f 23/23/23 25/25/25 22/22/22
f 24/24/24 22/22/22 25/25/25
f 20/20/20 24/24/24 26/26/26
f 27/27/27 23/23/23 21/21/21
f 27/27/27 21/21/21 28/28/28
f 21/21/21 29/29/29 28/28/28
f 29/29/29 30/30/30 28/28/28
f 30/30/30 31/31/31 28/28/28
f 28/28/28 31/31/31 32/32/32
f 23/23/23 33/33/33 25/25/25
f 23/23/23 27/27/27 33/33/33
f 24/24/24 34/34/34 26/26/26
f 24/24/24 25/25/25 35/35/35
f 24/24/24 35/35/35 34/34/34
f 25/25/25 36/36/36 35/35/35
f 33/33/33 36/36/36 25/25/25
f 35/35/35 36/36/36 34/34/34
f 33/33/33 27/27/27 37/37/37
f 33/33/33 37/37/37 36/36/36
f 27/27/27 28/28/28 38/38/38
f 27/27/27 38/38/38 37/37/37
f 38/38/38 28/28/28 39/39/39
f 38/38/38 39/39/39 37/37/37
f 39/39/39 28/28/28 32/32/32
f 37/37/37 40/40/40 36/36/36
f 39/39/39 40/40/40 37/37/37
f 41/41/41 34/34/34 36/36/36
f 40/40/40 41/41/41 36/36/36
f 42/42/42 40/40/40 39/39/39
f 42/42/42 39/39/39 32/32/32
f 40/40/40 42/42/42 41/41/41
f 34/34/34 41/41/41 43/43/43
f 42/42/42 43/43/43 41/41/41
f 34/34/34 43/43/43 44/44/44
f 43/43/43 45/45/45 44/44/44
f 42/42/42 32/32/32 46/46/46
f 32/32/32 47/47/47 46/46/46
f 46/46/46 48/48/48 42/42/42
f 42/42/42 48/48/48 43/43/43
f 49/49/49 43/43/43 48/48/48
f 50/50/50 26/26/26 45/45/45
f 51/51/51 26/26/26 50/50/50
f 20/20/20 52/52/52 51/51/51
