g SM_Icon_Star_02
v -0.05926848 0.07193092 -2.2859E-18
v -0.191959 0.06237111 7.219643E-19
v -0.09589849 -0.0408043 3.085063E-19
v -0.118637 -0.1632897 7.348434E-19
v 2.15266E-09 -0.1104786 -1.110223E-18
v 0.1186371 -0.1632897 5.412214E-18
v 0.09589849 -0.0408043 -4.467836E-18
v 0.191959 0.06237114 -6.236195E-19
v 0.05926847 0.07193092 1.069138E-18
v 1.114528E-11 0.2018374 3.61601E-18
v -0.04499212 0.05860632 0.04
v -0.1579341 0.05095002 0.04
v -0.07733922 -0.02605205 0.04
v -0.1000777 -0.1303366 0.04
v 2.15266E-09 -0.0909854 0.04
v 0.1038848 -0.1418752 0.04
v 0.07829098 -0.02795557 0.04
v 0.1557162 0.05072632 0.04
v 0.04546799 0.06193746 0.04
v 1.114533E-11 0.1650906 0.04
v -0.02903626 0.04322611 0.04
v -0.1245202 0.03948612 0.04
v -0.04985089 -0.01124966 0.04
v -0.08339081 -0.1051205 0.04
v -8.483016E-05 -0.05852125 0.04
v 0.08394103 -0.1179557 0.04
v 0.05029367 -0.01247452 0.04
v 0.1250017 0.0434053 0.04001353
v 0.0291728 0.04536963 0.04
v -8.483152E-05 0.1313974 0.04
v -0.02322487 0.03900272 0.02
v -0.09474149 0.03261274 0.02
v -0.04287506 -0.01028737 0.02
v -0.05858124 -0.07866332 0.02
v 0.0002038448 -0.05392573 0.02
v 0.0629328 -0.08668055 0.02
v 0.0454398 -0.01089557 0.02
v 0.09759939 0.03434749 0.02
v 0.02669553 0.03994197 0.02
v 0.0002038441 0.103639 0.02
v -0.04499212 0.05860632 -0.04
v -0.1615027 0.05095002 -0.04
v -0.07733922 -0.02605205 -0.04
v -0.1000777 -0.1333094 -0.04
v 2.15266E-09 -0.0957263 -0.04
v 0.1038848 -0.1418752 -0.04
v 0.07829098 -0.02795557 -0.04
v 0.1610268 0.0542812 -0.04
v 0.04546799 0.06193746 -0.04
v 1.114533E-11 0.1728088 -0.04
v -0.02903626 0.04322611 -0.04
v -0.1174026 0.03829945 -0.04
v -0.04985089 -0.01124966 -0.04
v -0.07272184 -0.09919716 -0.04
v -8.483016E-05 -0.05852125 -0.04
v 0.07742517 -0.1091034 -0.04
v 0.05029367 -0.01247452 -0.04
v 0.1202605 0.040443 -0.04
v 0.0291728 0.04536963 -0.04
v -8.483152E-05 0.1260618 -0.04
v -0.02322487 0.03900272 -0.02
v -0.09474149 0.03261274 -0.02
v -0.04287506 -0.01028737 -0.02
v -0.05858124 -0.07866332 -0.02
v 0.0002038448 -0.05392573 -0.02
v 0.0629328 -0.08668055 -0.02
v 0.0454398 -0.01089557 -0.02
v 0.09759939 0.03434749 -0.02
v 0.02669553 0.03994197 -0.02
v 0.0002038441 0.103639 -0.02
v -0.191959 0.06237111 7.219643E-19
v -0.1579341 0.05095002 0.04
v -0.09589849 -0.0408043 3.085063E-19
v -0.07733922 -0.02605205 0.04
v -0.118637 -0.1632897 7.348434E-19
v -0.1000777 -0.1303366 0.04
v 2.15266E-09 -0.1104786 -1.110223E-18
v 2.15266E-09 -0.0909854 0.04
v 0.1186371 -0.1632897 5.412214E-18
v 0.1038848 -0.1418752 0.04
v 0.09589849 -0.0408043 -4.467836E-18
v 0.07829098 -0.02795557 0.04
v 0.191959 0.06237114 -6.236195E-19
v 0.1557162 0.05072632 0.04
v 0.05926847 0.07193092 1.069138E-18
v 0.04546799 0.06193746 0.04
v 1.114528E-11 0.2018374 3.61601E-18
v 1.114533E-11 0.1650906 0.04
v -0.04499212 0.05860632 0.04
v -0.05926848 0.07193092 -2.2859E-18
v -0.04499212 0.05860632 0.04
v -0.1579341 0.05095002 0.04
v -0.07733922 -0.02605205 0.04
v -0.1000777 -0.1303366 0.04
v 2.15266E-09 -0.0909854 0.04
v 0.1038848 -0.1418752 0.04
v 0.07829098 -0.02795557 0.04
v 0.1557162 0.05072632 0.04
v 0.04546799 0.06193746 0.04
v 1.114533E-11 0.1650906 0.04
v -0.02903626 0.04322611 0.04
v -0.1245202 0.03948612 0.04
v -0.1245202 0.03948612 0.04
v -0.09474149 0.03261274 0.02
v -0.04985089 -0.01124966 0.04
v -0.04985089 -0.01124966 0.04
v -0.04287506 -0.01028737 0.02
v -0.08339081 -0.1051205 0.04
v -0.08339081 -0.1051205 0.04
v -0.05858124 -0.07866332 0.02
v -8.483016E-05 -0.05852125 0.04
v -8.483016E-05 -0.05852125 0.04
v 0.0002038448 -0.05392573 0.02
v 0.08394103 -0.1179557 0.04
v 0.08394103 -0.1179557 0.04
v 0.0629328 -0.08668055 0.02
v 0.05029367 -0.01247452 0.04
v 0.05029367 -0.01247452 0.04
v 0.0454398 -0.01089557 0.02
v 0.1250017 0.0434053 0.04001353
v 0.1250017 0.0434053 0.04001353
v 0.09759939 0.03434749 0.02
v 0.0291728 0.04536963 0.04
v 0.0291728 0.04536963 0.04
v 0.02669553 0.03994197 0.02
v -8.483152E-05 0.1313974 0.04
v -8.483152E-05 0.1313974 0.04
v 0.0002038441 0.103639 0.02
v -0.02322487 0.03900272 0.02
v -0.02903626 0.04322611 0.04
v -0.02322487 0.03900272 0.02
v 0.0002038441 0.103639 0.02
v 0.02669553 0.03994197 0.02
v 0.09759939 0.03434749 0.02
v 0.0454398 -0.01089557 0.02
v 0.0629328 -0.08668055 0.02
v 0.0002038448 -0.05392573 0.02
v -0.05858124 -0.07866332 0.02
v -0.04287506 -0.01028737 0.02
v -0.09474149 0.03261274 0.02
v -0.05926848 0.07193092 -2.2859E-18
v -0.191959 0.06237111 7.219643E-19
v -0.191959 0.06237111 7.219643E-19
v -0.09589849 -0.0408043 3.085063E-19
v -0.1615027 0.05095002 -0.04
v -0.09589849 -0.0408043 3.085063E-19
v -0.118637 -0.1632897 7.348434E-19
v -0.07733922 -0.02605205 -0.04
v -0.118637 -0.1632897 7.348434E-19
v 2.15266E-09 -0.1104786 -1.110223E-18
v -0.1000777 -0.1333094 -0.04
v 2.15266E-09 -0.1104786 -1.110223E-18
v 0.1186371 -0.1632897 5.412214E-18
v 2.15266E-09 -0.0957263 -0.04
v 0.1186371 -0.1632897 5.412214E-18
v 0.09589849 -0.0408043 -4.467836E-18
v 0.1038848 -0.1418752 -0.04
v 0.09589849 -0.0408043 -4.467836E-18
v 0.191959 0.06237114 -6.236195E-19
v 0.07829098 -0.02795557 -0.04
v 0.191959 0.06237114 -6.236195E-19
v 0.05926847 0.07193092 1.069138E-18
v 0.1610268 0.0542812 -0.04
v 0.05926847 0.07193092 1.069138E-18
v 1.114528E-11 0.2018374 3.61601E-18
v 0.04546799 0.06193746 -0.04
v 1.114528E-11 0.2018374 3.61601E-18
v -0.05926848 0.07193092 -2.2859E-18
v -0.04499212 0.05860632 -0.04
v 1.114533E-11 0.1728088 -0.04
v -0.04499212 0.05860632 -0.04
v -0.1615027 0.05095002 -0.04
v -0.07733922 -0.02605205 -0.04
v -0.1000777 -0.1333094 -0.04
v 2.15266E-09 -0.0957263 -0.04
v 0.1038848 -0.1418752 -0.04
v 0.07829098 -0.02795557 -0.04
v 0.1610268 0.0542812 -0.04
v 0.04546799 0.06193746 -0.04
v 1.114533E-11 0.1728088 -0.04
v -0.02903626 0.04322611 -0.04
v -0.1174026 0.03829945 -0.04
v -0.1174026 0.03829945 -0.04
v -0.04985089 -0.01124966 -0.04
v -0.09474149 0.03261274 -0.02
v -0.04985089 -0.01124966 -0.04
v -0.07272184 -0.09919716 -0.04
v -0.04287506 -0.01028737 -0.02
v -0.07272184 -0.09919716 -0.04
v -8.483016E-05 -0.05852125 -0.04
v -0.05858124 -0.07866332 -0.02
v -8.483016E-05 -0.05852125 -0.04
v 0.07742517 -0.1091034 -0.04
v 0.0002038448 -0.05392573 -0.02
v 0.07742517 -0.1091034 -0.04
v 0.05029367 -0.01247452 -0.04
v 0.0629328 -0.08668055 -0.02
v 0.05029367 -0.01247452 -0.04
v 0.1202605 0.040443 -0.04
v 0.0454398 -0.01089557 -0.02
v 0.1202605 0.040443 -0.04
v 0.0291728 0.04536963 -0.04
v 0.09759939 0.03434749 -0.02
v 0.0291728 0.04536963 -0.04
v -8.483152E-05 0.1260618 -0.04
v 0.02669553 0.03994197 -0.02
v -8.483152E-05 0.1260618 -0.04
v -0.02903626 0.04322611 -0.04
v -0.02322487 0.03900272 -0.02
v 0.0002038441 0.103639 -0.02
v -0.02322487 0.03900272 -0.02
v 0.02669553 0.03994197 -0.02
v 0.0002038441 0.103639 -0.02
v 0.0454398 -0.01089557 -0.02
v 0.09759939 0.03434749 -0.02
v 0.0002038448 -0.05392573 -0.02
v 0.0629328 -0.08668055 -0.02
v -0.04287506 -0.01028737 -0.02
v -0.05858124 -0.07866332 -0.02
v -0.09474149 0.03261274 -0.02
vt 0.1053637 0.9558242
vt 0.09728354 0.9552121
vt 0.1031331 0.9486058
vt 0.1017484 0.9407633
vt 0.1089728 0.9441448
vt 0.1161972 0.9407633
vt 0.1148126 0.9486058
vt 0.1206621 0.9552121
vt 0.112582 0.9558242
vt 0.1089728 0.9641419
vt 0.106233 0.954971
vt 0.09935547 0.9544808
vt 0.1042633 0.9495504
vt 0.1028786 0.9428732
vt 0.1089728 0.9453928
vt 0.1152988 0.9421344
vt 0.1137403 0.9494286
vt 0.1184551 0.9544665
vt 0.1117416 0.9551843
vt 0.1089728 0.961789
vt 0.1072047 0.9539862
vt 0.1013902 0.9537467
vt 0.1059372 0.9504983
vt 0.1038948 0.9444879
vt 0.1089677 0.9474714
vt 0.1140843 0.943666
vt 0.1120355 0.9504198
vt 0.1165847 0.9539977
vt 0.1107493 0.9541234
vt 0.1089677 0.9596319
vt 0.1075585 0.9537159
vt 0.1032036 0.9533067
vt 0.106362 0.9505598
vt 0.1054056 0.9461818
vt 0.1089852 0.9477658
vt 0.1128051 0.9456685
vt 0.1117399 0.9505209
vt 0.1149161 0.9534177
vt 0.1105984 0.9537759
vt 0.1089852 0.9578543
vt 0.106233 0.954971
vt 0.09913817 0.9544808
vt 0.1042633 0.9495504
vt 0.1028786 0.9426829
vt 0.1089728 0.9450893
vt 0.1152988 0.9421344
vt 0.1137403 0.9494286
vt 0.1187786 0.9546941
vt 0.1117416 0.9551843
vt 0.1089728 0.962283
vt 0.1072047 0.9539862
vt 0.1018236 0.9536708
vt 0.1059372 0.9504983
vt 0.1045444 0.9448671
vt 0.1089677 0.9474714
vt 0.1136876 0.9442328
vt 0.1120355 0.9504198
vt 0.116296 0.953808
vt 0.1107493 0.9541234
vt 0.1089677 0.9592901
vt 0.1075585 0.9537159
vt 0.1032036 0.9533067
vt 0.106362 0.9505598
vt 0.1054056 0.9461818
vt 0.1089852 0.9477658
vt 0.1128051 0.9456685
vt 0.1117399 0.9505209
vt 0.1149161 0.9534177
vt 0.1105984 0.9537759
vt 0.1089852 0.9578543
vt 0.09728354 0.9552121
vt 0.09935547 0.9544808
vt 0.1031331 0.9486058
vt 0.1042633 0.9495504
vt 0.1017484 0.9407633
vt 0.1028786 0.9428732
vt 0.1089728 0.9441448
vt 0.1089728 0.9453928
vt 0.1161972 0.9407633
vt 0.1152988 0.9421344
vt 0.1148126 0.9486058
vt 0.1137403 0.9494286
vt 0.1206621 0.9552121
vt 0.1184551 0.9544665
vt 0.112582 0.9558242
vt 0.1117416 0.9551843
vt 0.1089728 0.9641419
vt 0.1089728 0.961789
vt 0.106233 0.954971
vt 0.1053637 0.9558242
vt 0.106233 0.954971
vt 0.09935547 0.9544808
vt 0.1042633 0.9495504
vt 0.1028786 0.9428732
vt 0.1089728 0.9453928
vt 0.1152988 0.9421344
vt 0.1137403 0.9494286
vt 0.1184551 0.9544665
vt 0.1117416 0.9551843
vt 0.1089728 0.961789
vt 0.1072047 0.9539862
vt 0.1013902 0.9537467
vt 0.1013902 0.9537467
vt 0.1032036 0.9533067
vt 0.1059372 0.9504983
vt 0.1059372 0.9504983
vt 0.106362 0.9505598
vt 0.1038948 0.9444879
vt 0.1038948 0.9444879
vt 0.1054056 0.9461818
vt 0.1089677 0.9474714
vt 0.1089677 0.9474714
vt 0.1089852 0.9477658
vt 0.1140843 0.943666
vt 0.1140843 0.943666
vt 0.1128051 0.9456685
vt 0.1120355 0.9504198
vt 0.1120355 0.9504198
vt 0.1117399 0.9505209
vt 0.1165847 0.9539977
vt 0.1165847 0.9539977
vt 0.1149161 0.9534177
vt 0.1107493 0.9541234
vt 0.1107493 0.9541234
vt 0.1105984 0.9537759
vt 0.1089677 0.9596319
vt 0.1089677 0.9596319
vt 0.1089852 0.9578543
vt 0.1075585 0.9537159
vt 0.1072047 0.9539862
vt 0.1698702 0.9863481
vt 0.1722165 0.99289
vt 0.1748697 0.9864431
vt 0.1819706 0.9858769
vt 0.1767469 0.9812977
vt 0.1784988 0.9736274
vt 0.1722165 0.9769425
vt 0.1663293 0.9744388
vt 0.1679022 0.9813593
vt 0.1627079 0.9857013
vt 0.1053637 0.9558242
vt 0.09728354 0.9552121
vt 0.09728354 0.9552121
vt 0.1031331 0.9486058
vt 0.09913817 0.9544808
vt 0.1031331 0.9486058
vt 0.1017484 0.9407633
vt 0.1042633 0.9495504
vt 0.1017484 0.9407633
vt 0.1089728 0.9441448
vt 0.1028786 0.9426829
vt 0.1089728 0.9441448
vt 0.1161972 0.9407633
vt 0.1089728 0.9450893
vt 0.1161972 0.9407633
vt 0.1148126 0.9486058
vt 0.1152988 0.9421344
vt 0.1148126 0.9486058
vt 0.1206621 0.9552121
vt 0.1137403 0.9494286
vt 0.1206621 0.9552121
vt 0.112582 0.9558242
vt 0.1187786 0.9546941
vt 0.112582 0.9558242
vt 0.1089728 0.9641419
vt 0.1117416 0.9551843
vt 0.1089728 0.9641419
vt 0.1053637 0.9558242
vt 0.106233 0.954971
vt 0.1089728 0.962283
vt 0.106233 0.954971
vt 0.09913817 0.9544808
vt 0.1042633 0.9495504
vt 0.1028786 0.9426829
vt 0.1089728 0.9450893
vt 0.1152988 0.9421344
vt 0.1137403 0.9494286
vt 0.1187786 0.9546941
vt 0.1117416 0.9551843
vt 0.1089728 0.962283
vt 0.1072047 0.9539862
vt 0.1018236 0.9536708
vt 0.1018236 0.9536708
vt 0.1059372 0.9504983
vt 0.1032036 0.9533067
vt 0.1059372 0.9504983
vt 0.1045444 0.9448671
vt 0.106362 0.9505598
vt 0.1045444 0.9448671
vt 0.1089677 0.9474714
vt 0.1054056 0.9461818
vt 0.1089677 0.9474714
vt 0.1136876 0.9442328
vt 0.1089852 0.9477658
vt 0.1136876 0.9442328
vt 0.1120355 0.9504198
vt 0.1128051 0.9456685
vt 0.1120355 0.9504198
vt 0.116296 0.953808
vt 0.1117399 0.9505209
vt 0.116296 0.953808
vt 0.1107493 0.9541234
vt 0.1149161 0.9534177
vt 0.1107493 0.9541234
vt 0.1089677 0.9592901
vt 0.1105984 0.9537759
vt 0.1089677 0.9592901
vt 0.1072047 0.9539862
vt 0.1075585 0.9537159
vt 0.1089852 0.9578543
vt 0.1698702 0.9863481
vt 0.1748697 0.9864431
vt 0.1722165 0.99289
vt 0.1767469 0.9812977
vt 0.1819706 0.9858769
vt 0.1722165 0.9769425
vt 0.1784988 0.9736274
vt 0.1679022 0.9813593
vt 0.1663293 0.9744388
vt 0.1627079 0.9857013
vn -0.06597608 0.94132 0.3310042
vn -0.06597608 0.94132 0.3310042
vn -0.6390505 -0.6265582 0.4461383
vn -0.9289472 0.1862936 0.3199245
vn 0.3453566 -0.8195818 0.4571812
vn -0.3941239 -0.8457121 0.3597741
vn 0.9356645 0.1912942 0.2965439
vn 0.6478382 -0.6180155 0.445379
vn 0.08106914 0.9481928 0.3071779
vn 0.8478101 0.3810039 0.3688551
vn -0.06597608 0.94132 0.3310042
vn -0.06597608 0.94132 0.3310042
vn -0.6390504 -0.6265582 0.4461382
vn -0.9289473 0.1862937 0.3199245
vn 0.3453565 -0.8195817 0.4571812
vn -0.3941239 -0.8457121 0.3597741
vn 0.9356645 0.1912942 0.2965439
vn 0.6478382 -0.6180155 0.445379
vn 0.08106913 0.9481927 0.3071778
vn 0.8478101 0.3810039 0.3688551
vn 0 0 1
vn 0 0 1
vn 0 0 1
vn 0 0 1
vn 0 0 1
vn 0 0 1
vn 0.0001175942 -0.0001961537 1
vn 0.0001038202 5.094714E-05 1
vn -9.763124E-06 0.0002306383 1
vn 0 0 1
vn 0.05748377 -0.9476657 0.3140468
vn 0.05748377 -0.9476657 0.3140469
vn 0.5468996 0.7390585 0.3933108
vn 0.8344364 -0.2532731 0.4894574
vn -0.4148104 0.8262337 0.3811432
vn 0.478836 0.7622527 0.4355305
vn -0.8938278 -0.2521745 0.3707826
vn -0.5871605 0.7366003 0.3356525
vn -0.04214421 -0.9289621 0.3677681
vn -0.887053 -0.3302901 0.3225609
vn -0.06510981 0.9424562 -0.3279283
vn -0.0651098 0.9424562 -0.3279283
vn -0.6416743 -0.6418399 -0.4198757
vn -0.9268789 0.1834736 -0.3274644
vn 0.3511307 -0.8495837 -0.3935921
vn -0.3849373 -0.865571 -0.320328
vn 0.9356645 0.1912943 -0.2965439
vn 0.6494398 -0.6262665 -0.4312982
vn 0.06688871 0.964513 -0.2554221
vn 0.8647721 0.3761691 -0.3326647
vn 0 0 -1
vn 0 0 -1
vn 0 0 -1
vn 0 0 -1
vn 0 0 -1
vn 0 0 -1
vn 0 0 -1
vn 0 0 -1
vn 0 0 -1
vn 0 0 -1
vn 0.06767488 -0.9561198 -0.2850527
vn 0.06767488 -0.9561198 -0.2850527
vn 0.5759412 0.7439528 -0.3388599
vn 0.9064149 -0.2236829 -0.3582985
vn -0.4134813 0.8307244 -0.3727332
vn 0.474438 0.7983809 -0.3708054
vn -0.9226084 -0.2387914 -0.3029393
vn -0.592604 0.7372879 -0.3243869
vn -0.06158013 -0.9481372 -0.3118392
vn -0.8930855 -0.3448243 -0.2889538
vn -0.6390504 -0.6265582 0.4461382
vn -0.6390505 -0.6265582 0.4461382
vn -0.9289473 0.1862937 0.3199245
vn -0.9289473 0.1862937 0.3199245
vn 0.3453566 -0.8195818 0.4571812
vn 0.3453566 -0.8195817 0.4571812
vn -0.3941239 -0.8457121 0.3597741
vn -0.3941239 -0.8457121 0.3597741
vn 0.9356645 0.1912942 0.296544
vn 0.9356645 0.1912942 0.2965439
vn 0.6478383 -0.6180155 0.4453789
vn 0.6478382 -0.6180155 0.4453789
vn 0.08106913 0.9481927 0.3071778
vn 0.08106914 0.9481928 0.3071779
vn 0.8478101 0.3810039 0.3688551
vn 0.84781 0.3810039 0.3688551
vn -0.8448217 0.3726103 0.3839762
vn -0.8448217 0.3726104 0.3839762
vn -0.8448217 0.3726103 0.3839762
vn -0.8448218 0.3726103 0.3839762
vn 0 0 1
vn 0 0 1
vn 0 0 1
vn 0 0 1
vn 0 0 1
vn 0 0 1
vn 8.840893E-05 -0.000147471 1
vn 0.0001302234 -6.419682E-05 1
vn -1.261351E-05 0.0002979742 1
vn 0 0 1
vn 0.05748376 -0.9476657 0.3140468
vn 0.05748376 -0.9476657 0.3140468
vn 0.5468997 0.7390584 0.3933108
vn 0.5468997 0.7390584 0.3933108
vn 0.5468997 0.7390584 0.3933108
vn 0.8344364 -0.2532731 0.4894575
vn 0.8344364 -0.2532731 0.4894575
vn 0.8344364 -0.2532731 0.4894574
vn -0.4148104 0.8262337 0.3811432
vn -0.4148104 0.8262337 0.3811432
vn -0.4148104 0.8262337 0.3811432
vn 0.4788361 0.7622527 0.4355305
vn 0.4788361 0.7622527 0.4355305
vn 0.4788361 0.7622527 0.4355305
vn -0.8938278 -0.2521745 0.3707826
vn -0.8938278 -0.2521745 0.3707826
vn -0.8938278 -0.2521745 0.3707826
vn -0.5871605 0.7366003 0.3356525
vn -0.5871605 0.7366003 0.3356525
vn -0.5871605 0.7366003 0.3356524
vn -0.04214421 -0.9289621 0.3677681
vn -0.04214421 -0.9289621 0.3677681
vn -0.04214421 -0.9289621 0.3677682
vn -0.887053 -0.33029 0.3225609
vn -0.887053 -0.33029 0.322561
vn -0.887053 -0.33029 0.3225609
vn 0.8772379 -0.3007041 0.3742067
vn 0.8772379 -0.3007041 0.3742068
vn 0.8772379 -0.3007041 0.3742068
vn 0.8772379 -0.3007041 0.3742068
vn 0 0 1
vn 0 0 1
vn 0 0 1
vn 0 0 1
vn 0 0 1
vn 0 0 1
vn 0 0 1
vn 0 0 1
vn 0 0 1
vn 0 0 1
vn -0.0651098 0.9424562 -0.3279282
vn -0.0651098 0.9424562 -0.3279283
vn -0.6416743 -0.6418399 -0.4198758
vn -0.6416743 -0.6418399 -0.4198757
vn -0.6416743 -0.6418399 -0.4198757
vn -0.926879 0.1834736 -0.3274644
vn -0.9268789 0.1834736 -0.3274644
vn -0.926879 0.1834736 -0.3274644
vn 0.3511308 -0.8495837 -0.3935921
vn 0.3511307 -0.8495837 -0.3935921
vn 0.3511308 -0.8495837 -0.3935921
vn -0.3849373 -0.865571 -0.320328
vn -0.3849373 -0.865571 -0.320328
vn -0.3849373 -0.865571 -0.320328
vn 0.9356645 0.1912943 -0.2965439
vn 0.9356645 0.1912943 -0.2965439
vn 0.9356645 0.1912942 -0.2965439
vn 0.6494399 -0.6262665 -0.4312982
vn 0.6494398 -0.6262665 -0.4312982
vn 0.6494398 -0.6262665 -0.4312982
vn 0.0668887 0.964513 -0.2554222
vn 0.06688871 0.964513 -0.2554222
vn 0.0668887 0.964513 -0.2554221
vn 0.8647722 0.3761691 -0.3326647
vn 0.8647721 0.3761691 -0.3326647
vn 0.8647721 0.3761691 -0.3326647
vn -0.8619094 0.3681275 -0.3487038
vn -0.8619094 0.3681275 -0.3487038
vn -0.8619094 0.3681275 -0.3487038
vn -0.8619094 0.3681275 -0.3487038
vn 0 0 -1
vn 0 0 -1
vn 0 0 -1
vn 0 0 -1
vn 0 0 -1
vn 0 0 -1
vn 0 0 -1
vn 0 0 -1
vn 0 0 -1
vn 0 0 -1
vn 0.06767488 -0.9561198 -0.2850527
vn 0.06767488 -0.9561198 -0.2850527
vn 0.5759413 0.7439527 -0.3388599
vn 0.5759412 0.7439528 -0.3388599
vn 0.5759413 0.7439527 -0.3388599
vn 0.906415 -0.2236829 -0.3582985
vn 0.906415 -0.2236829 -0.3582985
vn 0.906415 -0.223683 -0.3582985
vn -0.4134814 0.8307244 -0.3727332
vn -0.4134814 0.8307244 -0.3727332
vn -0.4134814 0.8307244 -0.3727332
vn 0.474438 0.7983809 -0.3708054
vn 0.474438 0.7983809 -0.3708054
vn 0.4744379 0.7983809 -0.3708054
vn -0.9226084 -0.2387914 -0.3029393
vn -0.9226084 -0.2387914 -0.3029393
vn -0.9226084 -0.2387914 -0.3029393
vn -0.5926041 0.7372879 -0.3243869
vn -0.5926041 0.7372879 -0.3243869
vn -0.592604 0.7372879 -0.324387
vn -0.06158013 -0.9481373 -0.3118392
vn -0.06158013 -0.9481372 -0.3118392
vn -0.06158013 -0.9481373 -0.3118392
vn -0.8930855 -0.3448243 -0.2889538
vn -0.8930855 -0.3448243 -0.2889538
vn -0.8930855 -0.3448243 -0.2889538
vn 0.884725 -0.3142429 -0.3442571
vn 0.884725 -0.3142429 -0.3442571
vn 0.884725 -0.3142428 -0.3442571
vn 0.884725 -0.3142429 -0.3442571
vn 0 0 -1
vn 0 0 -1
vn 0 0 -1
vn 0 0 -1
vn 0 0 -1
vn 0 0 -1
vn 0 0 -1
vn 0 0 -1
vn 0 0 -1
vn 0 0 -1
g SM_Icon_Star_02_0
f 12/12/12 11/11/11 1/1/1
f 2/2/2 12/12/12 1/1/1
f 13/13/13 72/72/72 71/71/71
f 3/3/3 13/13/13 71/71/71
f 14/14/14 74/74/74 73/73/73
f 4/4/4 14/14/14 73/73/73
f 15/15/15 76/76/76 75/75/75
f 5/5/5 15/15/15 75/75/75
f 16/16/16 78/78/78 77/77/77
f 6/6/6 16/16/16 77/77/77
f 17/17/17 80/80/80 79/79/79
f 7/7/7 17/17/17 79/79/79
f 18/18/18 82/82/82 81/81/81
f 8/8/8 18/18/18 81/81/81
f 19/19/19 84/84/84 83/83/83
f 9/9/9 19/19/19 83/83/83
f 20/20/20 86/86/86 85/85/85
f 10/10/10 20/20/20 85/85/85
f 89/89/89 88/88/88 87/87/87
f 90/90/90 89/89/89 87/87/87
f 32/32/32 31/31/31 101/101/101
f 102/102/102 32/32/32 101/101/101
f 33/33/33 104/104/104 103/103/103
f 105/105/105 33/33/33 103/103/103
f 34/34/34 107/107/107 106/106/106
f 108/108/108 34/34/34 106/106/106
f 35/35/35 110/110/110 109/109/109
f 111/111/111 35/35/35 109/109/109
f 36/36/36 113/113/113 112/112/112
f 114/114/114 36/36/36 112/112/112
f 37/37/37 116/116/116 115/115/115
f 117/117/117 37/37/37 115/115/115
f 38/38/38 119/119/119 118/118/118
f 120/120/120 38/38/38 118/118/118
f 39/39/39 122/122/122 121/121/121
f 123/123/123 39/39/39 121/121/121
f 40/40/40 125/125/125 124/124/124
f 126/126/126 40/40/40 124/124/124
f 129/129/129 128/128/128 127/127/127
f 130/130/130 129/129/129 127/127/127
f 133/133/133 132/132/132 131/131/131
f 135/135/135 133/133/133 131/131/131
f 135/135/135 134/134/134 133/133/133
f 139/139/139 135/135/135 131/131/131
f 139/139/139 131/131/131 140/140/140
f 139/139/139 137/137/137 135/135/135
f 137/137/137 136/136/136 135/135/135
f 139/139/139 138/138/138 137/137/137
f 42/42/42 142/142/142 141/141/141
f 41/41/41 42/42/42 141/141/141
f 43/43/43 144/144/144 143/143/143
f 145/145/145 43/43/43 143/143/143
f 44/44/44 147/147/147 146/146/146
f 148/148/148 44/44/44 146/146/146
f 45/45/45 150/150/150 149/149/149
f 151/151/151 45/45/45 149/149/149
f 46/46/46 153/153/153 152/152/152
f 154/154/154 46/46/46 152/152/152
f 47/47/47 156/156/156 155/155/155
f 157/157/157 47/47/47 155/155/155
f 48/48/48 159/159/159 158/158/158
f 160/160/160 48/48/48 158/158/158
f 49/49/49 162/162/162 161/161/161
f 163/163/163 49/49/49 161/161/161
f 50/50/50 165/165/165 164/164/164
f 166/166/166 50/50/50 164/164/164
f 169/169/169 168/168/168 167/167/167
f 170/170/170 169/169/169 167/167/167
f 62/62/62 182/182/182 181/181/181
f 61/61/61 62/62/62 181/181/181
f 63/63/63 184/184/184 183/183/183
f 185/185/185 63/63/63 183/183/183
f 64/64/64 187/187/187 186/186/186
f 188/188/188 64/64/64 186/186/186
f 65/65/65 190/190/190 189/189/189
f 191/191/191 65/65/65 189/189/189
f 66/66/66 193/193/193 192/192/192
f 194/194/194 66/66/66 192/192/192
f 67/67/67 196/196/196 195/195/195
f 197/197/197 67/67/67 195/195/195
f 68/68/68 199/199/199 198/198/198
f 200/200/200 68/68/68 198/198/198
f 69/69/69 202/202/202 201/201/201
f 203/203/203 69/69/69 201/201/201
f 70/70/70 205/205/205 204/204/204
f 206/206/206 70/70/70 204/204/204
f 209/209/209 208/208/208 207/207/207
f 210/210/210 209/209/209 207/207/207
f 213/213/213 212/212/212 211/211/211
f 212/212/212 214/214/214 211/211/211
f 215/215/215 214/214/214 212/212/212
f 214/214/214 218/218/218 211/211/211
f 211/211/211 218/218/218 220/220/220
f 216/216/216 218/218/218 214/214/214
f 217/217/217 216/216/216 214/214/214
f 219/219/219 218/218/218 216/216/216
f 60/60/60 180/180/180 179/179/179
f 59/59/59 60/60/60 179/179/179
f 60/60/60 51/51/51 180/180/180
f 59/59/59 179/179/179 178/178/178
f 51/51/51 171/171/171 180/180/180
f 58/58/58 59/59/59 178/178/178
f 51/51/51 52/52/52 171/171/171
f 58/58/58 178/178/178 177/177/177
f 52/52/52 172/172/172 171/171/171
f 57/57/57 58/58/58 177/177/177
f 52/52/52 53/53/53 172/172/172
f 57/57/57 177/177/177 176/176/176
f 53/53/53 173/173/173 172/172/172
f 56/56/56 57/57/57 176/176/176
f 53/53/53 54/54/54 173/173/173
f 56/56/56 176/176/176 175/175/175
f 54/54/54 174/174/174 173/173/173
f 55/55/55 56/56/56 175/175/175
f 55/55/55 175/175/175 174/174/174
f 54/54/54 55/55/55 174/174/174
f 100/100/100 30/30/30 99/99/99
f 30/30/30 29/29/29 99/99/99
f 21/21/21 30/30/30 100/100/100
f 99/99/99 29/29/29 98/98/98
f 91/91/91 21/21/21 100/100/100
f 29/29/29 28/28/28 98/98/98
f 22/22/22 21/21/21 91/91/91
f 98/98/98 28/28/28 97/97/97
f 92/92/92 22/22/22 91/91/91
f 28/28/28 27/27/27 97/97/97
f 23/23/23 22/22/22 92/92/92
f 97/97/97 27/27/27 96/96/96
f 93/93/93 23/23/23 92/92/92
f 27/27/27 26/26/26 96/96/96
f 24/24/24 23/23/23 93/93/93
f 96/96/96 26/26/26 95/95/95
f 94/94/94 24/24/24 93/93/93
f 26/26/26 25/25/25 95/95/95
f 25/25/25 24/24/24 94/94/94
f 95/95/95 25/25/25 94/94/94
