g SM_PROP_food_meat_01
v -0.1411976 0.05354858 -0.004548297
v -0.1008687 0.001758194 -0.1418758
v -0.110189 0.04163991 -0.1632217
v 0.01006791 0.03056061 -0.2318536
v 0.008539218 -0.0006008893 -0.204316
v 0.1365142 0.03595806 -0.1812138
v -0.1288623 0.003903892 -0.002800066
v 0.1261093 0.000548027 -0.1572919
v 0.1632438 0.05358015 -0.02490054
v -0.07388476 0.0037678 0.1072497
v -0.08098654 0.051271 0.1217068
v 0.003104872 0.0008683572 -0.07239229
v 0.150645 0.003910268 -0.02036336
v -0.06316789 0.0009348463 0.1949045
v -0.06920699 0.03796619 0.2180535
v -0.01031078 0.03208575 0.2628237
v -0.004113848 0.0009122693 0.1028361
v 0.09113183 0.003939778 0.1086769
v 0.1003932 0.05207868 0.1232755
v 0.05927445 0.001033812 0.1968452
v 0.06537686 0.03843098 0.2201867
v -0.009585015 -0.0003172575 0.2356357
v 0.01006791 0.03056061 -0.2318536
v -0.1004474 0.07380341 -0.1520018
v -0.110189 0.04163991 -0.1632217
v -0.1411976 0.05354858 -0.004548297
v -0.1288623 0.08372976 -0.002697943
v -0.08098654 0.051271 0.1217068
v 0.008960536 0.06372363 -0.2144421
v 0.1265306 0.06863265 -0.1674179
v 0.1365142 0.03595806 -0.1812138
v 0.1632438 0.05358015 -0.02490054
v 0.003104879 0.09620102 -0.07225068
v 0.150645 0.08375701 -0.02026124
v 0.09075081 0.08323626 0.1180266
v 0.1003932 0.05207868 0.1232755
v -0.004642237 0.09549161 0.1158027
v 0.05889345 0.07081979 0.206195
v 0.06537686 0.03843098 0.2201867
v -0.009966018 0.065047 0.2449855
v -0.01031078 0.03208575 0.2628237
v -0.06354889 0.07039693 0.2042542
v -0.06920699 0.03796619 0.2180535
v -0.07426575 0.08250143 0.1165995
vt 0.001099341 0.1099876
vt 0.02865614 0.1679739
vt 0.01740058 0.1814169
vt 0.07359229 0.2104727
vt 0.07345518 0.1928498
vt 0.1307894 0.1879394
vt 0.01690295 0.1104989
vt 0.1206833 0.1742389
vt 0.1484993 0.1194273
vt 0.03919901 0.06334698
vt 0.02568744 0.05409634
vt 0.07136033 0.1392021
vt 0.132489 0.1186829
vt 0.04850326 0.02938545
vt 0.04018951 0.01633346
vt 0.06758217 0.0001018047
vt 0.06898174 0.06646967
vt 0.1090662 0.06374705
vt 0.1228562 0.05363941
vt 0.09344047 0.0293715
vt 0.1012498 0.01546073
vt 0.06810989 0.01584733
vt 0.07483029 0.2105614
vt 0.03189588 0.1700386
vt 0.02202593 0.1801033
vt 0.006970787 0.1122262
vt 0.02001444 0.1115663
vt 0.02783845 0.05662286
vt 0.07462372 0.1949517
vt 0.120575 0.1760479
vt 0.1300418 0.1873205
vt 0.1434707 0.1197823
vt 0.07219432 0.1379184
vt 0.1303254 0.1180025
vt 0.1069782 0.06238139
vt 0.1193289 0.05576932
vt 0.06862658 0.06397855
vt 0.09315412 0.02720702
vt 0.1004947 0.01427841
vt 0.06673945 0.0132283
vt 0.06592921 -0.001442671
vt 0.04669948 0.02813697
vt 0.03873615 0.01652265
vt 0.04022269 0.06264639
vn -0.9930276 0.0474623 0.1079042
vn -0.5503352 -0.7785467 -0.3016558
vn -0.7870687 -0.01776226 -0.6166095
vn -0.05318492 -0.09944102 -0.9936211
vn -0.0599405 -0.8552426 -0.5147496
vn 0.744135 -0.04418138 -0.6665666
vn -0.6761928 -0.7296014 0.1022006
vn 0.5235597 -0.7966511 -0.3020468
vn 0.994615 0.05434449 0.08824681
vn -0.5698653 -0.8043813 0.168001
vn -0.9630074 0.0330594 0.2674395
vn -0.002398954 -0.9999393 0.01075178
vn 0.6636909 -0.7404301 0.1061976
vn -0.6121556 -0.7554007 0.2337419
vn -0.8274106 -0.03631307 0.5604221
vn -0.06097838 -0.09143884 0.9939418
vn -0.002057227 -0.9999841 -0.005251355
vn 0.5677697 -0.7946379 0.2149145
vn 0.927059 0.04063882 0.3727066
vn 0.516641 -0.7896237 0.3310234
vn 0.7285296 -0.03704734 0.6840118
vn -0.04607856 -0.840565 0.5397474
vn -0.05318492 -0.09944102 -0.9936211
vn -0.535927 0.73625 -0.4131804
vn -0.7870687 -0.01776226 -0.6166095
vn -0.9930276 0.0474623 0.1079042
vn -0.66463 0.7442712 0.06578357
vn -0.9630074 0.0330594 0.2674395
vn -0.0467569 0.7452799 -0.6651103
vn 0.5178781 0.736319 -0.4354729
vn 0.744135 -0.04418138 -0.6665666
vn 0.994615 0.05434449 0.08824681
vn -0.004460163 0.9957078 -0.09244541
vn 0.645328 0.7617215 0.0577246
vn 0.5522149 0.7891847 0.2687865
vn 0.927059 0.04063882 0.3727066
vn -0.014852 0.9936792 0.1112699
vn 0.5049126 0.7215214 0.4737828
vn 0.7285296 -0.03704734 0.6840118
vn -0.05450253 0.7242412 0.6873894
vn -0.06097838 -0.09143884 0.9939418
vn -0.6229696 0.6880287 0.3721899
vn -0.8274106 -0.03631307 0.5604221
vn -0.5779365 0.784511 0.2247929
g SM_PROP_food_meat_01_0
f 3/3/3 2/2/2 1/1/1
f 2/2/2 3/3/3 4/4/4
f 5/5/5 2/2/2 4/4/4
f 5/5/5 4/4/4 6/6/6
f 2/2/2 7/7/7 1/1/1
f 7/7/7 2/2/2 5/5/5
f 8/8/8 5/5/5 6/6/6
f 8/8/8 6/6/6 9/9/9
f 7/7/7 10/10/10 1/1/1
f 10/10/10 11/11/11 1/1/1
f 12/12/12 7/7/7 5/5/5
f 5/5/5 8/8/8 12/12/12
f 10/10/10 7/7/7 12/12/12
f 13/13/13 8/8/8 9/9/9
f 8/8/8 13/13/13 12/12/12
f 10/10/10 14/14/14 11/11/11
f 14/14/14 15/15/15 11/11/11
f 15/15/15 14/14/14 16/16/16
f 17/17/17 10/10/10 12/12/12
f 12/12/12 13/13/13 17/17/17
f 14/14/14 10/10/10 17/17/17
f 18/18/18 13/13/13 9/9/9
f 13/13/13 18/18/18 17/17/17
f 19/19/19 18/18/18 9/9/9
f 20/20/20 18/18/18 19/19/19
f 18/18/18 20/20/20 17/17/17
f 21/21/21 20/20/20 19/19/19
f 20/20/20 21/21/21 16/16/16
f 14/14/14 22/22/22 16/16/16
f 22/22/22 14/14/14 17/17/17
f 22/22/22 20/20/20 16/16/16
f 20/20/20 22/22/22 17/17/17
f 25/25/25 24/24/24 23/23/23
f 24/24/24 25/25/25 26/26/26
f 27/27/27 24/24/24 26/26/26
f 27/27/27 26/26/26 28/28/28
f 24/24/24 29/29/29 23/23/23
f 29/29/29 30/30/30 23/23/23
f 30/30/30 31/31/31 23/23/23
f 31/31/31 30/30/30 32/32/32
f 29/29/29 24/24/24 33/33/33
f 30/30/30 29/29/29 33/33/33
f 24/24/24 27/27/27 33/33/33
f 30/30/30 34/34/34 32/32/32
f 34/34/34 30/30/30 33/33/33
f 34/34/34 35/35/35 32/32/32
f 35/35/35 34/34/34 33/33/33
f 35/35/35 36/36/36 32/32/32
f 33/33/33 27/27/27 37/37/37
f 37/37/37 35/35/35 33/33/33
f 35/35/35 38/38/38 36/36/36
f 38/38/38 35/35/35 37/37/37
f 38/38/38 39/39/39 36/36/36
f 38/38/38 40/40/40 39/39/39
f 40/40/40 38/38/38 37/37/37
f 40/40/40 41/41/41 39/39/39
f 40/40/40 42/42/42 41/41/41
f 42/42/42 40/40/40 37/37/37
f 42/42/42 43/43/43 41/41/41
f 43/43/43 42/42/42 28/28/28
f 44/44/44 27/27/27 28/28/28
f 27/27/27 44/44/44 37/37/37
f 42/42/42 44/44/44 28/28/28
f 44/44/44 42/42/42 37/37/37
