g SM_PROP_food_salad
v 0.09919423 0.2552802 -0.0009195652
v 0.06975138 0.2552802 0.07016174
v -0.001329916 0.2744625 -0.0009195713
v 0.1510756 0.1888656 -0.0009195688
v -0.001329916 0.2552801 0.09960458
v 0.1064371 0.1888656 0.1068474
v 0.1562022 0.09988037 -0.0009195872
v -0.001329916 0.1888655 0.151486
v 0.1100621 0.09988036 0.1104724
v 0.1065777 0.01981761 -0.0009196053
v -0.001329916 0.09988035 0.1566125
v 0.07497227 0.0198176 0.07538258
v -0.001329916 -0.0003189378 -0.0009196087
v -0.001329916 0.0198176 0.106988
v -0.07241122 0.2552802 0.07016174
v -0.1018541 0.2552802 -0.0009195652
v -0.001329916 0.2744625 -0.0009195713
v -0.001329916 0.2552801 0.09960458
v -0.001329916 0.1888655 0.151486
v -0.1090969 0.1888656 0.1068474
v -0.1537355 0.1888656 -0.0009195688
v -0.001329916 0.09988035 0.1566125
v -0.1127219 0.09988036 0.1104724
v -0.158862 0.09988037 -0.0009195872
v -0.001329916 0.0198176 0.106988
v -0.07763211 0.0198176 0.07538258
v -0.1092375 0.01981761 -0.0009196053
v -0.001329916 -0.0003189378 -0.0009196087
v -0.07241122 0.2552802 -0.07200087
v -0.001329916 0.2552802 -0.1014437
v -0.001329916 0.2744625 -0.0009195713
v -0.1018541 0.2552802 -0.0009195652
v -0.1537355 0.1888656 -0.0009195688
v -0.1090969 0.1888656 -0.1086866
v -0.001329916 0.1888656 -0.1533251
v -0.158862 0.09988037 -0.0009195872
v -0.1127219 0.09988039 -0.1123116
v -0.001329916 0.0998804 -0.1584517
v -0.1092375 0.01981761 -0.0009196053
v -0.07763211 0.01981763 -0.0772218
v -0.001329916 0.01981763 -0.1088272
v -0.001329916 -0.0003189378 -0.0009196087
v -0.001329916 0.2552802 -0.1014437
v 0.06975138 0.2552802 -0.07200087
v -0.001329916 0.2744625 -0.0009195713
v -0.001329916 0.1888656 -0.1533251
v 0.09919423 0.2552802 -0.0009195652
v 0.1064371 0.1888656 -0.1086866
v -0.001329916 0.0998804 -0.1584517
v 0.1510756 0.1888656 -0.0009195688
v 0.1100621 0.09988039 -0.1123116
v -0.001329916 0.01981763 -0.1088272
v 0.1562022 0.09988037 -0.0009195872
v 0.07497227 0.01981763 -0.0772218
v -0.001329916 -0.0003189378 -0.0009196087
v 0.1065777 0.01981761 -0.0009196053
vt 0.8757682 0.5907508
vt 0.844246 0.5844363
vt 0.844246 0.6004452
vt 0.8862311 0.5683696
vt 0.8150234 0.590148
vt 0.844246 0.560626
vt 0.8747348 0.5405369
vt 0.7996311 0.5672305
vt 0.844246 0.5393634
vt 0.8630696 0.5215612
vt 0.8072428 0.5478241
vt 0.844246 0.5216857
vt 0.8436021 0.5051771
vt 0.8223336 0.527034
vt 0.8454855 0.5829558
vt 0.8205411 0.5951931
vt 0.8461756 0.6019338
vt 0.8721309 0.5946782
vt 0.8871495 0.5707544
vt 0.8453979 0.5638784
vt 0.7990955 0.5731286
vt 0.8747348 0.5405369
vt 0.845453 0.5444576
vt 0.8072428 0.5478241
vt 0.8630696 0.5215612
vt 0.8454511 0.5234115
vt 0.8223336 0.527034
vt 0.8436021 0.5051771
vt 0.8434643 0.5767695
vt 0.8179264 0.5905335
vt 0.8435531 0.6010193
vt 0.8743933 0.5920184
vt 0.8863372 0.572041
vt 0.8437881 0.5601959
vt 0.8005065 0.5700824
vt 0.8747348 0.5405369
vt 0.8442432 0.5433269
vt 0.8072428 0.5478241
vt 0.8630696 0.5215612
vt 0.8446828 0.525045
vt 0.8223336 0.527034
vt 0.8436021 0.5051771
vt 0.8711671 0.5937629
vt 0.8478314 0.5845194
vt 0.8451033 0.6001239
vt 0.8856207 0.572933
vt 0.8195497 0.5936189
vt 0.8458408 0.5557646
vt 0.8747348 0.5405369
vt 0.8009317 0.5725862
vt 0.8457111 0.5388899
vt 0.8630696 0.5215612
vt 0.8072428 0.5478241
vt 0.845517 0.5206037
vt 0.8436021 0.5051771
vt 0.8223336 0.527034
vn 0.579096 0.8152594 0
vn 0.4094827 0.8152593 0.4094828
vn 0 1 1.178335E-07
vn 0.9437495 0.3306611 0
vn 0 0.8152592 0.5790964
vn 0.6673316 0.3306611 0.6673318
vn 0.9731458 -0.2301898 0
vn 0 0.3306609 0.9437496
vn 0.6881179 -0.2301899 0.688118
vn 0.6257187 -0.7800488 -1.109391E-07
vn 0 -0.2301899 0.9731457
vn 0.4424499 -0.7800488 0.4424499
vn 0 -1 -1.527382E-07
vn 0 -0.7800488 0.6257185
vn -0.4094827 0.8152593 0.4094828
vn -0.5790961 0.8152594 0
vn 0 1 1.178335E-07
vn 0 0.8152592 0.5790964
vn 0 0.3306609 0.9437496
vn -0.6673317 0.330661 0.6673318
vn -0.9437495 0.3306611 0
vn 0 -0.2301899 0.9731457
vn -0.6881179 -0.2301899 0.6881179
vn -0.9731458 -0.2301898 0
vn 0 -0.7800488 0.6257185
vn -0.4424499 -0.7800488 0.4424499
vn -0.6257187 -0.7800488 -1.024053E-07
vn 0 -1 -1.527382E-07
vn -0.4094828 0.8152594 -0.4094826
vn 0 0.8152595 -0.5790957
vn 0 1 1.178335E-07
vn -0.5790961 0.8152594 0
vn -0.9437495 0.3306611 0
vn -0.6673317 0.3306613 -0.6673315
vn 0 0.3306614 -0.9437494
vn -0.9731458 -0.2301898 0
vn -0.688118 -0.2301897 -0.688118
vn 0 -0.2301897 -0.9731458
vn -0.6257187 -0.7800488 -1.024053E-07
vn -0.44245 -0.7800487 -0.4424501
vn 0 -0.7800487 -0.6257188
vn 0 -1 -1.527382E-07
vn 0 0.8152595 -0.5790957
vn 0.4094828 0.8152595 -0.4094826
vn 0 1 1.178335E-07
vn 0 0.3306614 -0.9437494
vn 0.579096 0.8152594 0
vn 0.6673317 0.3306613 -0.6673315
vn 0 -0.2301897 -0.9731458
vn 0.9437495 0.3306611 0
vn 0.688118 -0.2301897 -0.688118
vn 0 -0.7800487 -0.6257188
vn 0.9731458 -0.2301898 0
vn 0.44245 -0.7800487 -0.4424501
vn 0 -1 -1.527382E-07
vn 0.6257187 -0.7800488 -1.109391E-07
g SM_PROP_food_salad_0
f 3/3/3 2/2/2 1/1/1
f 4/4/4 1/1/1 2/2/2
f 3/3/3 5/5/5 2/2/2
f 6/6/6 4/4/4 2/2/2
f 6/6/6 2/2/2 5/5/5
f 4/4/4 6/6/6 7/7/7
f 8/8/8 6/6/6 5/5/5
f 6/6/6 9/9/9 7/7/7
f 6/6/6 8/8/8 9/9/9
f 7/7/7 9/9/9 10/10/10
f 8/8/8 11/11/11 9/9/9
f 9/9/9 12/12/12 10/10/10
f 9/9/9 11/11/11 12/12/12
f 12/12/12 13/13/13 10/10/10
f 11/11/11 14/14/14 12/12/12
f 14/14/14 13/13/13 12/12/12
f 17/17/17 16/16/16 15/15/15
f 17/17/17 15/15/15 18/18/18
f 19/19/19 18/18/18 15/15/15
f 20/20/20 15/15/15 16/16/16
f 20/20/20 19/19/19 15/15/15
f 21/21/21 20/20/20 16/16/16
f 19/19/19 20/20/20 22/22/22
f 20/20/20 21/21/21 23/23/23
f 20/20/20 23/23/23 22/22/22
f 21/21/21 24/24/24 23/23/23
f 22/22/22 23/23/23 25/25/25
f 23/23/23 24/24/24 26/26/26
f 23/23/23 26/26/26 25/25/25
f 24/24/24 27/27/27 26/26/26
f 26/26/26 28/28/28 25/25/25
f 27/27/27 28/28/28 26/26/26
f 31/31/31 30/30/30 29/29/29
f 31/31/31 29/29/29 32/32/32
f 33/33/33 32/32/32 29/29/29
f 34/34/34 29/29/29 30/30/30
f 34/34/34 33/33/33 29/29/29
f 35/35/35 34/34/34 30/30/30
f 33/33/33 34/34/34 36/36/36
f 34/34/34 35/35/35 37/37/37
f 34/34/34 37/37/37 36/36/36
f 35/35/35 38/38/38 37/37/37
f 36/36/36 37/37/37 39/39/39
f 37/37/37 38/38/38 40/40/40
f 37/37/37 40/40/40 39/39/39
f 38/38/38 41/41/41 40/40/40
f 40/40/40 42/42/42 39/39/39
f 41/41/41 42/42/42 40/40/40
f 45/45/45 44/44/44 43/43/43
f 46/46/46 43/43/43 44/44/44
f 45/45/45 47/47/47 44/44/44
f 48/48/48 46/46/46 44/44/44
f 48/48/48 44/44/44 47/47/47
f 46/46/46 48/48/48 49/49/49
f 50/50/50 48/48/48 47/47/47
f 48/48/48 51/51/51 49/49/49
f 48/48/48 50/50/50 51/51/51
f 49/49/49 51/51/51 52/52/52
f 50/50/50 53/53/53 51/51/51
f 51/51/51 54/54/54 52/52/52
f 51/51/51 53/53/53 54/54/54
f 54/54/54 55/55/55 52/52/52
f 53/53/53 56/56/56 54/54/54
f 56/56/56 55/55/55 54/54/54
