g soil
v 0.1264693 0.005658254 0.09190817
v 0.0001529157 0.005658254 -0.0001529157
v 0.1564427 0.005658254 -0.0001529157
v 0.04847734 0.005658254 0.1487964
v 0.1264693 0.005658254 -0.09190814
v -0.04847735 0.005658254 0.1487964
v 0.04847734 0.005658254 -0.1487964
v -0.1264693 0.005658254 0.09190817
v -0.04847735 0.005658254 -0.1487964
v -0.1564427 0.005658254 0.0001529306
v -0.1264693 0.005658254 -0.09190814
vt 0.799667 0.2763937
vt 0.7871084 0.282673
vt 0.8017601 0.2847661
vt 0.7933877 0.2701145
vt 0.7975739 0.2952316
vt 0.7829223 0.2680213
vt 0.7892015 0.2994177
vt 0.7745498 0.2722075
vt 0.7787361 0.2973247
vt 0.7703637 0.2805799
vt 0.7724568 0.2910454
vn 0 1 0
vn 0 1 0
vn 0 1 0
vn 0 1 0
vn 0 1 0
vn 0 1 0
vn 0 1 0
vn 0 1 0
vn 0 1 0
vn 0 1 0
vn 0 1 0
g soil_0
f 3/3/3 2/2/2 1/1/1
f 1/1/1 2/2/2 4/4/4
f 5/5/5 2/2/2 3/3/3
f 4/4/4 2/2/2 6/6/6
f 7/7/7 2/2/2 5/5/5
f 6/6/6 2/2/2 8/8/8
f 9/9/9 2/2/2 7/7/7
f 8/8/8 2/2/2 10/10/10
f 11/11/11 2/2/2 9/9/9
f 10/10/10 2/2/2 11/11/11
