g soil
v 0.1264693 0.005658254 0.09190817
v 0.0001529157 0.005658254 -0.0001529157
v 0.1564427 0.005658254 -0.0001529157
v 0.04847734 0.005658254 0.1487964
v 0.1264693 0.005658254 -0.09190814
v -0.04847735 0.005658254 0.1487964
v 0.04847734 0.005658254 -0.1487964
v -0.1264693 0.005658254 0.09190817
v -0.04847735 0.005658254 -0.1487964
v -0.1564427 0.005658254 0.0001529306
v -0.1264693 0.005658254 -0.09190814
vt 0.7970338 0.2821603
vt 0.7846769 0.2883388
vt 0.7990934 0.2924578
vt 0.7908554 0.2759818
vt 0.7949744 0.3006957
vt 0.7805579 0.2739223
vt 0.7867364 0.3048147
vt 0.7723199 0.2780413
vt 0.776439 0.3027552
vt 0.768201 0.2862793
vt 0.7702605 0.2965768
vn 0 1 0
vn 0 1 0
vn 0 1 0
vn 0 1 0
vn 0 1 0
vn 0 1 0
vn 0 1 0
vn 0 1 0
vn 0 1 0
vn 0 1 0
vn 0 1 0
g soil_0
f 3/3/3 2/2/2 1/1/1
f 1/1/1 2/2/2 4/4/4
f 5/5/5 2/2/2 3/3/3
f 4/4/4 2/2/2 6/6/6
f 7/7/7 2/2/2 5/5/5
f 6/6/6 2/2/2 8/8/8
f 9/9/9 2/2/2 7/7/7
f 8/8/8 2/2/2 10/10/10
f 11/11/11 2/2/2 9/9/9
f 10/10/10 2/2/2 11/11/11
