g SphereHalf_Border_1m
v 0 -0.5 0
v 0 -0.4755283 0.1545085
v 0 -0.4045085 0.2938926
v 0 -0.2938926 0.4045085
v 0 -0.1545085 0.4755283
v 0 2.185569E-08 0.5
v 0 -0.5 0
v -0.04774575 -0.4755283 0.1469463
v -0.09081782 -0.4045085 0.2795085
v -0.125 -0.2938926 0.3847105
v -0.1469463 -0.1545085 0.4522543
v -0.1545085 2.185569E-08 0.4755283
v 0 -0.5 0
v -0.09081782 -0.4755283 0.125
v -0.1727457 -0.4045085 0.2377641
v -0.2377641 -0.2938926 0.3272543
v -0.2795085 -0.1545085 0.3847105
v -0.2938926 2.185569E-08 0.4045085
v 0 -0.5 0
v -0.125 -0.4755283 0.09081782
v -0.2377641 -0.4045085 0.1727457
v -0.3272543 -0.2938926 0.2377641
v -0.3847105 -0.1545085 0.2795085
v -0.4045085 2.185569E-08 0.2938926
v 0 -0.5 0
v -0.1469463 -0.4755283 0.04774575
v -0.2795085 -0.4045085 0.09081781
v -0.3847105 -0.2938926 0.125
v -0.4522543 -0.1545085 0.1469463
v -0.4755283 2.185569E-08 0.1545085
v 0 -0.5 0
v -0.1545085 -0.4755283 -6.753781E-09
v -0.2938926 -0.4045085 -1.284645E-08
v -0.4045085 -0.2938926 -1.768163E-08
v -0.4755283 -0.1545085 -2.0786E-08
v -0.5 2.185569E-08 -2.185569E-08
v 0 -0.5 0
v -0.1469463 -0.4755283 -0.04774576
v -0.2795085 -0.4045085 -0.09081782
v -0.3847104 -0.2938926 -0.125
v -0.4522542 -0.1545085 -0.1469463
v -0.4755282 2.185569E-08 -0.1545085
v 0 -0.5 0
v -0.125 -0.4755283 -0.09081781
v -0.2377641 -0.4045085 -0.1727457
v -0.3272543 -0.2938926 -0.2377641
v -0.3847105 -0.1545085 -0.2795085
v -0.4045085 2.185569E-08 -0.2938926
v 0 -0.5 0
v -0.09081781 -0.4755283 -0.125
v -0.1727457 -0.4045085 -0.2377641
v -0.2377641 -0.2938926 -0.3272543
v -0.2795085 -0.1545085 -0.3847105
v -0.2938926 2.185569E-08 -0.4045085
v 0 -0.5 0
v -0.04774572 -0.4755283 -0.1469463
v -0.09081776 -0.4045085 -0.2795085
v -0.1249999 -0.2938926 -0.3847105
v -0.1469462 -0.1545085 -0.4522543
v -0.1545084 2.185569E-08 -0.4755283
v 0 -0.5 0
v 1.350756E-08 -0.4755283 -0.1545085
v 2.569291E-08 -0.4045085 -0.2938926
v 3.536326E-08 -0.2938926 -0.4045085
v 4.1572E-08 -0.1545085 -0.4755283
v 4.371139E-08 2.185569E-08 -0.5
v 0 -0.5 0
v 0.04774575 -0.4755283 -0.1469463
v 0.09081781 -0.4045085 -0.2795085
v 0.125 -0.2938926 -0.3847105
v 0.1469463 -0.1545085 -0.4522543
v 0.1545085 2.185569E-08 -0.4755283
v 0 -0.5 0
v 0.09081784 -0.4755283 -0.125
v 0.1727458 -0.4045085 -0.2377641
v 0.2377642 -0.2938926 -0.3272542
v 0.2795086 -0.1545085 -0.3847104
v 0.2938927 2.185569E-08 -0.4045085
v 0 -0.5 0
v 0.125 -0.4755283 -0.09081779
v 0.2377642 -0.4045085 -0.1727457
v 0.3272543 -0.2938926 -0.2377641
v 0.3847105 -0.1545085 -0.2795084
v 0.4045086 2.185569E-08 -0.2938925
v 0 -0.5 0
v 0.1469463 -0.4755283 -0.04774577
v 0.2795085 -0.4045085 -0.09081785
v 0.3847104 -0.2938926 -0.125
v 0.4522542 -0.1545085 -0.1469464
v 0.4755282 2.185569E-08 -0.1545085
v 0 -0.5 0
v 0.1545085 -0.4755283 1.842495E-09
v 0.2938926 -0.4045085 3.504634E-09
v 0.4045085 -0.2938926 4.823716E-09
v 0.4755283 -0.1545085 5.670618E-09
v 0.5 2.185569E-08 5.96244E-09
v 0 -0.5 0
v 0.1469463 -0.4755283 0.04774577
v 0.2795085 -0.4045085 0.09081785
v 0.3847104 -0.2938926 0.1250001
v 0.4522542 -0.1545085 0.1469464
v 0.4755282 2.185569E-08 0.1545086
v 0 -0.5 0
v 0.125 -0.4755283 0.09081785
v 0.2377641 -0.4045085 0.1727458
v 0.3272542 -0.2938926 0.2377642
v 0.3847104 -0.1545085 0.2795086
v 0.4045084 2.185569E-08 0.2938927
v 0 -0.5 0
v 0.09081777 -0.4755283 0.125
v 0.1727457 -0.4045085 0.2377642
v 0.237764 -0.2938926 0.3272544
v 0.2795084 -0.1545085 0.3847106
v 0.2938925 2.185569E-08 0.4045086
v 0 -0.5 0
v 0.04774575 -0.4755283 0.1469463
v 0.0908178 -0.4045085 0.2795085
v 0.125 -0.2938926 0.3847105
v 0.1469463 -0.1545085 0.4522543
v 0.1545085 2.185569E-08 0.4755283
v 0 -0.5 0
v -2.701512E-08 -0.4755283 0.1545085
v -5.138582E-08 -0.4045085 0.2938926
v -7.072651E-08 -0.2938926 0.4045085
v -8.3144E-08 -0.1545085 0.4755283
v -8.742278E-08 2.185569E-08 0.5
v 0 2.185569E-08 0
v 0 2.185569E-08 0.25
v 0 2.185569E-08 0.5
v -0.07725425 2.185569E-08 0.2377641
v -0.1545085 2.185569E-08 0.4755283
v -0.1469463 2.185569E-08 0.2022543
v -0.2938926 2.185569E-08 0.4045085
v -0.2022543 2.185569E-08 0.1469463
v -0.4045085 2.185569E-08 0.2938926
v -0.2377641 2.185569E-08 0.07725424
v -0.4755283 2.185569E-08 0.1545085
v -0.25 2.185569E-08 -1.092785E-08
v -0.5 2.185569E-08 -2.185569E-08
v -0.2377641 2.185569E-08 -0.07725426
v -0.4755282 2.185569E-08 -0.1545085
v -0.2022543 2.185569E-08 -0.1469463
v -0.4045085 2.185569E-08 -0.2938926
v -0.1469463 2.185569E-08 -0.2022543
v -0.2938926 2.185569E-08 -0.4045085
v -0.0772542 2.185569E-08 -0.2377641
v -0.1545084 2.185569E-08 -0.4755283
v 2.185569E-08 2.185569E-08 -0.25
v 4.371139E-08 2.185569E-08 -0.5
v 0.07725424 2.185569E-08 -0.2377641
v 0.1545085 2.185569E-08 -0.4755283
v 0.1469463 2.185569E-08 -0.2022542
v 0.2938927 2.185569E-08 -0.4045085
v 0.2022543 2.185569E-08 -0.1469463
v 0.4045086 2.185569E-08 -0.2938925
v 0.2377641 2.185569E-08 -0.07725427
v 0.4755282 2.185569E-08 -0.1545085
v 0.25 2.185569E-08 2.98122E-09
v 0.5 2.185569E-08 5.96244E-09
v 0.2377641 2.185569E-08 0.07725428
v 0.4755282 2.185569E-08 0.1545086
v 0.2022542 2.185569E-08 0.1469464
v 0.4045084 2.185569E-08 0.2938927
v 0.1469462 2.185569E-08 0.2022543
v 0.2938925 2.185569E-08 0.4045086
v 0.07725424 2.185569E-08 0.2377641
v 0.1545085 2.185569E-08 0.4755283
v -4.371139E-08 2.185569E-08 0.25
v -8.742278E-08 2.185569E-08 0.5
vt 0 0
vt 0 0.1
vt 0 0.2
vt 0 0.3
vt 0 0.4
vt 0 0.5
vt -0.05 0
vt -0.05 0.1
vt -0.05 0.2
vt -0.05 0.3
vt -0.05 0.4
vt -0.05 0.5
vt -0.1 0
vt -0.1 0.1
vt -0.1 0.2
vt -0.1 0.3
vt -0.1 0.4
vt -0.1 0.5
vt -0.15 0
vt -0.15 0.1
vt -0.15 0.2
vt -0.15 0.3
vt -0.15 0.4
vt -0.15 0.5
vt -0.2 0
vt -0.2 0.1
vt -0.2 0.2
vt -0.2 0.3
vt -0.2 0.4
vt -0.2 0.5
vt -0.25 0
vt -0.25 0.1
vt -0.25 0.2
vt -0.25 0.3
vt -0.25 0.4
vt -0.25 0.5
vt -0.3 0
vt -0.3 0.1
vt -0.3 0.2
vt -0.3 0.3
vt -0.3 0.4
vt -0.3 0.5
vt -0.35 0
vt -0.35 0.1
vt -0.35 0.2
vt -0.35 0.3
vt -0.35 0.4
vt -0.35 0.5
vt -0.4 0
vt -0.4 0.1
vt -0.4 0.2
vt -0.4 0.3
vt -0.4 0.4
vt -0.4 0.5
vt -0.45 0
vt -0.45 0.1
vt -0.45 0.2
vt -0.45 0.3
vt -0.45 0.4
vt -0.45 0.5
vt -0.5 0
vt -0.5 0.1
vt -0.5 0.2
vt -0.5 0.3
vt -0.5 0.4
vt -0.5 0.5
vt -0.55 0
vt -0.55 0.1
vt -0.55 0.2
vt -0.55 0.3
vt -0.55 0.4
vt -0.55 0.5
vt -0.6 0
vt -0.6 0.1
vt -0.6 0.2
vt -0.6 0.3
vt -0.6 0.4
vt -0.6 0.5
vt -0.65 0
vt -0.65 0.1
vt -0.65 0.2
vt -0.65 0.3
vt -0.65 0.4
vt -0.65 0.5
vt -0.7 0
vt -0.7 0.1
vt -0.7 0.2
vt -0.7 0.3
vt -0.7 0.4
vt -0.7 0.5
vt -0.75 0
vt -0.75 0.1
vt -0.75 0.2
vt -0.75 0.3
vt -0.75 0.4
vt -0.75 0.5
vt -0.8 0
vt -0.8 0.1
vt -0.8 0.2
vt -0.8 0.3
vt -0.8 0.4
vt -0.8 0.5
vt -0.85 0
vt -0.85 0.1
vt -0.85 0.2
vt -0.85 0.3
vt -0.85 0.4
vt -0.85 0.5
vt -0.9 0
vt -0.9 0.1
vt -0.9 0.2
vt -0.9 0.3
vt -0.9 0.4
vt -0.9 0.5
vt -0.95 0
vt -0.95 0.1
vt -0.95 0.2
vt -0.95 0.3
vt -0.95 0.4
vt -0.95 0.5
vt -1 0
vt -1 0.1
vt -1 0.2
vt -1 0.3
vt -1 0.4
vt -1 0.5
vt 0.5 0.5
vt 0.5 0.75
vt 0.5 1
vt 0.5772542 0.7377641
vt 0.6545085 0.9755282
vt 0.6469463 0.7022542
vt 0.7938926 0.9045085
vt 0.7022542 0.6469463
vt 0.9045085 0.7938926
vt 0.7377641 0.5772542
vt 0.9755282 0.6545085
vt 0.75 0.5
vt 1 0.5
vt 0.7377641 0.4227457
vt 0.9755282 0.3454915
vt 0.7022542 0.3530537
vt 0.9045085 0.2061074
vt 0.6469463 0.2977457
vt 0.7938926 0.09549147
vt 0.5772542 0.2622359
vt 0.6545084 0.0244717
vt 0.5 0.25
vt 0.5 0
vt 0.4227458 0.2622359
vt 0.3454915 0.02447173
vt 0.3530537 0.2977458
vt 0.2061073 0.09549153
vt 0.2977457 0.3530537
vt 0.09549144 0.2061075
vt 0.2622359 0.4227457
vt 0.02447176 0.3454915
vt 0.25 0.5
vt 0 0.5
vt 0.2622359 0.5772543
vt 0.02447176 0.6545086
vt 0.2977458 0.6469464
vt 0.09549159 0.7938927
vt 0.3530537 0.7022543
vt 0.2061075 0.9045086
vt 0.4227458 0.7377641
vt 0.3454915 0.9755282
vt 0.5000001 0.75
vt 0.5000001 1
vn 0 -1 0
vn 0 -0.9510565 0.309017
vn 0 -0.809017 0.5877852
vn 0 -0.5877852 0.809017
vn 0 -0.309017 0.9510565
vn 0 4.371139E-08 1
vn 0 -1 0
vn -0.09549151 -0.9510565 0.2938927
vn -0.1816356 -0.809017 0.559017
vn -0.25 -0.5877852 0.7694209
vn -0.2938927 -0.309017 0.9045085
vn -0.309017 4.371139E-08 0.9510565
vn 0 -1 0
vn -0.1816356 -0.9510565 0.25
vn -0.3454915 -0.809017 0.4755283
vn -0.4755283 -0.5877852 0.6545085
vn -0.559017 -0.309017 0.7694209
vn -0.5877852 4.371139E-08 0.809017
vn 0 -1 0
vn -0.25 -0.9510565 0.1816356
vn -0.4755283 -0.809017 0.3454915
vn -0.6545085 -0.5877852 0.4755283
vn -0.7694209 -0.309017 0.559017
vn -0.809017 4.371139E-08 0.5877852
vn 0 -1 0
vn -0.2938927 -0.9510565 0.0954915
vn -0.559017 -0.809017 0.1816356
vn -0.7694209 -0.5877852 0.25
vn -0.9045085 -0.309017 0.2938926
vn -0.9510565 4.371139E-08 0.309017
vn 0 -1 0
vn -0.309017 -0.9510565 -1.350756E-08
vn -0.5877852 -0.809017 -2.569291E-08
vn -0.809017 -0.5877852 -3.536326E-08
vn -0.9510565 -0.309017 -4.1572E-08
vn -1 4.371139E-08 -4.371139E-08
vn 0 -1 0
vn -0.2938926 -0.9510565 -0.09549151
vn -0.5590169 -0.809017 -0.1816356
vn -0.7694209 -0.5877852 -0.25
vn -0.9045085 -0.309017 -0.2938927
vn -0.9510565 4.371139E-08 -0.309017
vn 0 -1 0
vn -0.25 -0.9510565 -0.1816356
vn -0.4755283 -0.809017 -0.3454915
vn -0.6545085 -0.5877852 -0.4755282
vn -0.7694209 -0.309017 -0.5590169
vn -0.8090171 4.371139E-08 -0.5877852
vn 0 -1 0
vn -0.1816356 -0.9510565 -0.25
vn -0.3454915 -0.809017 -0.4755283
vn -0.4755282 -0.5877852 -0.6545085
vn -0.5590169 -0.309017 -0.769421
vn -0.5877852 4.371139E-08 -0.8090171
vn 0 -1 0
vn -0.09549145 -0.9510565 -0.2938927
vn -0.1816355 -0.809017 -0.5590171
vn -0.2499998 -0.5877852 -0.769421
vn -0.2938924 -0.309017 -0.9045086
vn -0.3090168 4.371139E-08 -0.9510566
vn 0 -1 0
vn 2.701512E-08 -0.9510565 -0.309017
vn 5.138582E-08 -0.809017 -0.5877852
vn 7.072651E-08 -0.5877852 -0.809017
vn 8.3144E-08 -0.309017 -0.9510565
vn 8.742278E-08 4.371139E-08 -1
vn 0 -1 0
vn 0.0954915 -0.9510565 -0.2938927
vn 0.1816356 -0.809017 -0.559017
vn 0.25 -0.5877852 -0.7694209
vn 0.2938926 -0.309017 -0.9045085
vn 0.309017 4.371139E-08 -0.9510565
vn 0 -1 0
vn 0.1816357 -0.9510565 -0.25
vn 0.3454916 -0.809017 -0.4755282
vn 0.4755284 -0.5877852 -0.6545085
vn 0.5590171 -0.309017 -0.7694209
vn 0.5877854 4.371139E-08 -0.8090169
vn 0 -1 0
vn 0.2500001 -0.9510565 -0.1816356
vn 0.4755283 -0.809017 -0.3454914
vn 0.6545086 -0.5877852 -0.4755281
vn 0.769421 -0.309017 -0.5590168
vn 0.8090171 4.371139E-08 -0.5877851
vn 0 -1 0
vn 0.2938926 -0.9510565 -0.09549154
vn 0.5590169 -0.809017 -0.1816357
vn 0.7694209 -0.5877852 -0.2500001
vn 0.9045085 -0.309017 -0.2938927
vn 0.9510565 4.371139E-08 -0.3090171
vn 0 -1 0
vn 0.309017 -0.9510565 3.684991E-09
vn 0.5877852 -0.809017 7.009269E-09
vn 0.809017 -0.5877852 9.647431E-09
vn 0.9510565 -0.309017 1.134124E-08
vn 1 4.371139E-08 1.192488E-08
vn 0 -1 0
vn 0.2938926 -0.9510565 0.09549154
vn 0.5590169 -0.809017 0.1816357
vn 0.7694209 -0.5877852 0.2500001
vn 0.9045085 -0.309017 0.2938927
vn 0.9510565 4.371139E-08 0.3090171
vn 0 -1 0
vn 0.25 -0.9510565 0.1816357
vn 0.4755282 -0.809017 0.3454916
vn 0.6545084 -0.5877852 0.4755284
vn 0.7694207 -0.309017 0.5590172
vn 0.8090168 4.371139E-08 0.5877855
vn 0 -1 0
vn 0.1816355 -0.9510565 0.2500001
vn 0.3454913 -0.809017 0.4755284
vn 0.475528 -0.5877852 0.6545087
vn 0.5590167 -0.309017 0.7694212
vn 0.5877849 4.371139E-08 0.8090172
vn 0 -1 0
vn 0.09549149 -0.9510565 0.2938927
vn 0.1816356 -0.809017 0.559017
vn 0.25 -0.5877852 0.7694209
vn 0.2938926 -0.309017 0.9045085
vn 0.3090169 4.371139E-08 0.9510565
vn 0 -1 0
vn -5.403025E-08 -0.9510565 0.309017
vn -1.027716E-07 -0.809017 0.5877852
vn -1.41453E-07 -0.5877852 0.809017
vn -1.66288E-07 -0.309017 0.9510565
vn -1.748456E-07 4.371139E-08 1
vn 0 1 0
vn 0 1 0
vn 0 1 0
vn 0 1 0
vn 0 1 0
vn 0 1 0
vn 0 1 0
vn 0 1 0
vn 0 1 0
vn 0 1 0
vn 0 1 0
vn 0 1 0
vn 0 1 0
vn 0 1 0
vn 0 1 0
vn 0 1 0
vn 0 1 0
vn 0 1 0
vn 0 1 0
vn 0 1 0
vn 0 1 0
vn 0 1 0
vn 0 1 0
vn 0 1 0
vn 0 1 0
vn 0 1 0
vn 0 1 0
vn 0 1 0
vn 0 1 0
vn 0 1 0
vn 0 1 0
vn 0 1 0
vn 0 1 0
vn 0 1 0
vn 0 1 0
vn 0 1 0
vn 0 1 0
vn 0 1 0
vn 0 1 0
vn 0 1 0
vn 0 1 0
vn 0 1 0
vn 0 1 0
g SphereHalf_Border_1m_0
f 2/2/2 8/8/8 7/7/7
f 7/7/7 1/1/1 2/2/2
f 3/3/3 9/9/9 8/8/8
f 8/8/8 2/2/2 3/3/3
f 4/4/4 10/10/10 9/9/9
f 9/9/9 3/3/3 4/4/4
f 5/5/5 11/11/11 10/10/10
f 10/10/10 4/4/4 5/5/5
f 6/6/6 12/12/12 11/11/11
f 11/11/11 5/5/5 6/6/6
f 8/8/8 14/14/14 13/13/13
f 13/13/13 7/7/7 8/8/8
f 9/9/9 15/15/15 14/14/14
f 14/14/14 8/8/8 9/9/9
f 10/10/10 16/16/16 15/15/15
f 15/15/15 9/9/9 10/10/10
f 11/11/11 17/17/17 16/16/16
f 16/16/16 10/10/10 11/11/11
f 12/12/12 18/18/18 17/17/17
f 17/17/17 11/11/11 12/12/12
f 14/14/14 20/20/20 19/19/19
f 19/19/19 13/13/13 14/14/14
f 15/15/15 21/21/21 20/20/20
f 20/20/20 14/14/14 15/15/15
f 16/16/16 22/22/22 21/21/21
f 21/21/21 15/15/15 16/16/16
f 17/17/17 23/23/23 22/22/22
f 22/22/22 16/16/16 17/17/17
f 18/18/18 24/24/24 23/23/23
f 23/23/23 17/17/17 18/18/18
f 20/20/20 26/26/26 25/25/25
f 25/25/25 19/19/19 20/20/20
f 21/21/21 27/27/27 26/26/26
f 26/26/26 20/20/20 21/21/21
f 22/22/22 28/28/28 27/27/27
f 27/27/27 21/21/21 22/22/22
f 23/23/23 29/29/29 28/28/28
f 28/28/28 22/22/22 23/23/23
f 24/24/24 30/30/30 29/29/29
f 29/29/29 23/23/23 24/24/24
f 26/26/26 32/32/32 31/31/31
f 31/31/31 25/25/25 26/26/26
f 27/27/27 33/33/33 32/32/32
f 32/32/32 26/26/26 27/27/27
f 28/28/28 34/34/34 33/33/33
f 33/33/33 27/27/27 28/28/28
f 29/29/29 35/35/35 34/34/34
f 34/34/34 28/28/28 29/29/29
f 30/30/30 36/36/36 35/35/35
f 35/35/35 29/29/29 30/30/30
f 32/32/32 38/38/38 37/37/37
f 37/37/37 31/31/31 32/32/32
f 33/33/33 39/39/39 38/38/38
f 38/38/38 32/32/32 33/33/33
f 34/34/34 40/40/40 39/39/39
f 39/39/39 33/33/33 34/34/34
f 35/35/35 41/41/41 40/40/40
f 40/40/40 34/34/34 35/35/35
f 36/36/36 42/42/42 41/41/41
f 41/41/41 35/35/35 36/36/36
f 38/38/38 44/44/44 43/43/43
f 43/43/43 37/37/37 38/38/38
f 39/39/39 45/45/45 44/44/44
f 44/44/44 38/38/38 39/39/39
f 40/40/40 46/46/46 45/45/45
f 45/45/45 39/39/39 40/40/40
f 41/41/41 47/47/47 46/46/46
f 46/46/46 40/40/40 41/41/41
f 42/42/42 48/48/48 47/47/47
f 47/47/47 41/41/41 42/42/42
f 44/44/44 50/50/50 49/49/49
f 49/49/49 43/43/43 44/44/44
f 45/45/45 51/51/51 50/50/50
f 50/50/50 44/44/44 45/45/45
f 46/46/46 52/52/52 51/51/51
f 51/51/51 45/45/45 46/46/46
f 47/47/47 53/53/53 52/52/52
f 52/52/52 46/46/46 47/47/47
f 48/48/48 54/54/54 53/53/53
f 53/53/53 47/47/47 48/48/48
f 50/50/50 56/56/56 55/55/55
f 55/55/55 49/49/49 50/50/50
f 51/51/51 57/57/57 56/56/56
f 56/56/56 50/50/50 51/51/51
f 52/52/52 58/58/58 57/57/57
f 57/57/57 51/51/51 52/52/52
f 53/53/53 59/59/59 58/58/58
f 58/58/58 52/52/52 53/53/53
f 54/54/54 60/60/60 59/59/59
f 59/59/59 53/53/53 54/54/54
f 56/56/56 62/62/62 61/61/61
f 61/61/61 55/55/55 56/56/56
f 57/57/57 63/63/63 62/62/62
f 62/62/62 56/56/56 57/57/57
f 58/58/58 64/64/64 63/63/63
f 63/63/63 57/57/57 58/58/58
f 59/59/59 65/65/65 64/64/64
f 64/64/64 58/58/58 59/59/59
f 60/60/60 66/66/66 65/65/65
f 65/65/65 59/59/59 60/60/60
f 62/62/62 68/68/68 67/67/67
f 67/67/67 61/61/61 62/62/62
f 63/63/63 69/69/69 68/68/68
f 68/68/68 62/62/62 63/63/63
f 64/64/64 70/70/70 69/69/69
f 69/69/69 63/63/63 64/64/64
f 65/65/65 71/71/71 70/70/70
f 70/70/70 64/64/64 65/65/65
f 66/66/66 72/72/72 71/71/71
f 71/71/71 65/65/65 66/66/66
f 68/68/68 74/74/74 73/73/73
f 73/73/73 67/67/67 68/68/68
f 69/69/69 75/75/75 74/74/74
f 74/74/74 68/68/68 69/69/69
f 70/70/70 76/76/76 75/75/75
f 75/75/75 69/69/69 70/70/70
f 71/71/71 77/77/77 76/76/76
f 76/76/76 70/70/70 71/71/71
f 72/72/72 78/78/78 77/77/77
f 77/77/77 71/71/71 72/72/72
f 74/74/74 80/80/80 79/79/79
f 79/79/79 73/73/73 74/74/74
f 75/75/75 81/81/81 80/80/80
f 80/80/80 74/74/74 75/75/75
f 76/76/76 82/82/82 81/81/81
f 81/81/81 75/75/75 76/76/76
f 77/77/77 83/83/83 82/82/82
f 82/82/82 76/76/76 77/77/77
f 78/78/78 84/84/84 83/83/83
f 83/83/83 77/77/77 78/78/78
f 80/80/80 86/86/86 85/85/85
f 85/85/85 79/79/79 80/80/80
f 81/81/81 87/87/87 86/86/86
f 86/86/86 80/80/80 81/81/81
f 82/82/82 88/88/88 87/87/87
f 87/87/87 81/81/81 82/82/82
f 83/83/83 89/89/89 88/88/88
f 88/88/88 82/82/82 83/83/83
f 84/84/84 90/90/90 89/89/89
f 89/89/89 83/83/83 84/84/84
f 86/86/86 92/92/92 91/91/91
f 91/91/91 85/85/85 86/86/86
f 87/87/87 93/93/93 92/92/92
f 92/92/92 86/86/86 87/87/87
f 88/88/88 94/94/94 93/93/93
f 93/93/93 87/87/87 88/88/88
f 89/89/89 95/95/95 94/94/94
f 94/94/94 88/88/88 89/89/89
f 90/90/90 96/96/96 95/95/95
f 95/95/95 89/89/89 90/90/90
f 92/92/92 98/98/98 97/97/97
f 97/97/97 91/91/91 92/92/92
f 93/93/93 99/99/99 98/98/98
f 98/98/98 92/92/92 93/93/93
f 94/94/94 100/100/100 99/99/99
f 99/99/99 93/93/93 94/94/94
f 95/95/95 101/101/101 100/100/100
f 100/100/100 94/94/94 95/95/95
f 96/96/96 102/102/102 101/101/101
f 101/101/101 95/95/95 96/96/96
f 98/98/98 104/104/104 103/103/103
f 103/103/103 97/97/97 98/98/98
f 99/99/99 105/105/105 104/104/104
f 104/104/104 98/98/98 99/99/99
f 100/100/100 106/106/106 105/105/105
f 105/105/105 99/99/99 100/100/100
f 101/101/101 107/107/107 106/106/106
f 106/106/106 100/100/100 101/101/101
f 102/102/102 108/108/108 107/107/107
f 107/107/107 101/101/101 102/102/102
f 104/104/104 110/110/110 109/109/109
f 109/109/109 103/103/103 104/104/104
f 105/105/105 111/111/111 110/110/110
f 110/110/110 104/104/104 105/105/105
f 106/106/106 112/112/112 111/111/111
f 111/111/111 105/105/105 106/106/106
f 107/107/107 113/113/113 112/112/112
f 112/112/112 106/106/106 107/107/107
f 108/108/108 114/114/114 113/113/113
f 113/113/113 107/107/107 108/108/108
f 110/110/110 116/116/116 115/115/115
f 115/115/115 109/109/109 110/110/110
f 111/111/111 117/117/117 116/116/116
f 116/116/116 110/110/110 111/111/111
f 112/112/112 118/118/118 117/117/117
f 117/117/117 111/111/111 112/112/112
f 113/113/113 119/119/119 118/118/118
f 118/118/118 112/112/112 113/113/113
f 114/114/114 120/120/120 119/119/119
f 119/119/119 113/113/113 114/114/114
f 116/116/116 122/122/122 121/121/121
f 121/121/121 115/115/115 116/116/116
f 117/117/117 123/123/123 122/122/122
f 122/122/122 116/116/116 117/117/117
f 118/118/118 124/124/124 123/123/123
f 123/123/123 117/117/117 118/118/118
f 119/119/119 125/125/125 124/124/124
f 124/124/124 118/118/118 119/119/119
f 120/120/120 126/126/126 125/125/125
f 125/125/125 119/119/119 120/120/120
f 130/130/130 128/128/128 127/127/127
f 131/131/131 129/129/129 128/128/128
f 128/128/128 130/130/130 131/131/131
f 132/132/132 130/130/130 127/127/127
f 133/133/133 131/131/131 130/130/130
f 130/130/130 132/132/132 133/133/133
f 134/134/134 132/132/132 127/127/127
f 135/135/135 133/133/133 132/132/132
f 132/132/132 134/134/134 135/135/135
f 136/136/136 134/134/134 127/127/127
f 137/137/137 135/135/135 134/134/134
f 134/134/134 136/136/136 137/137/137
f 138/138/138 136/136/136 127/127/127
f 139/139/139 137/137/137 136/136/136
f 136/136/136 138/138/138 139/139/139
f 140/140/140 138/138/138 127/127/127
f 141/141/141 139/139/139 138/138/138
f 138/138/138 140/140/140 141/141/141
f 142/142/142 140/140/140 127/127/127
f 143/143/143 141/141/141 140/140/140
f 140/140/140 142/142/142 143/143/143
f 144/144/144 142/142/142 127/127/127
f 145/145/145 143/143/143 142/142/142
f 142/142/142 144/144/144 145/145/145
f 146/146/146 144/144/144 127/127/127
f 147/147/147 145/145/145 144/144/144
f 144/144/144 146/146/146 147/147/147
f 148/148/148 146/146/146 127/127/127
f 149/149/149 147/147/147 146/146/146
f 146/146/146 148/148/148 149/149/149
f 150/150/150 148/148/148 127/127/127
f 151/151/151 149/149/149 148/148/148
f 148/148/148 150/150/150 151/151/151
f 152/152/152 150/150/150 127/127/127
f 153/153/153 151/151/151 150/150/150
f 150/150/150 152/152/152 153/153/153
f 154/154/154 152/152/152 127/127/127
f 155/155/155 153/153/153 152/152/152
f 152/152/152 154/154/154 155/155/155
f 156/156/156 154/154/154 127/127/127
f 157/157/157 155/155/155 154/154/154
f 154/154/154 156/156/156 157/157/157
f 158/158/158 156/156/156 127/127/127
f 159/159/159 157/157/157 156/156/156
f 156/156/156 158/158/158 159/159/159
f 160/160/160 158/158/158 127/127/127
f 161/161/161 159/159/159 158/158/158
f 158/158/158 160/160/160 161/161/161
f 162/162/162 160/160/160 127/127/127
f 163/163/163 161/161/161 160/160/160
f 160/160/160 162/162/162 163/163/163
f 164/164/164 162/162/162 127/127/127
f 165/165/165 163/163/163 162/162/162
f 162/162/162 164/164/164 165/165/165
f 166/166/166 164/164/164 127/127/127
f 167/167/167 165/165/165 164/164/164
f 164/164/164 166/166/166 167/167/167
f 168/168/168 166/166/166 127/127/127
f 169/169/169 167/167/167 166/166/166
f 166/166/166 168/168/168 169/169/169
