g Sphere_224
v -0.09999999 1.629207E-08 -1.629207E-08
v -0.09238795 0.01464468 0.03535533
v -0.09238796 1.672467E-08 0.03826833
v -0.07071068 0.02705982 0.06532814
v -0.07071069 1.46111E-08 0.07071067
v -0.03826835 0.03535535 0.08535533
v -0.03826835 1.027311E-08 0.09238794
v -4.446064E-09 0.03826835 0.09238795
v -1.192093E-08 4.371141E-09 0.09999999
v 0.03826834 0.03535534 0.08535535
v 0.03826834 -2.196298E-09 0.09238796
v 0.07071067 0.0270598 0.06532815
v 0.07071067 -8.429367E-09 0.07071069
v 0.09238795 0.01464465 0.03535536
v 0.09238794 -1.337914E-08 0.03826836
v 0.09999999 -1.629207E-08 1.629207E-08
v 0.09238795 0.02705979 0.02705982
v 0.09999999 -1.629207E-08 1.629207E-08
v 0.07071067 0.04999999 0.05000001
v 0.03826835 0.06532814 0.06532815
v 4.371139E-09 0.07071067 0.07071067
v 0.09238795 0.03535533 0.01464468
v 0.09999999 -1.629207E-08 1.629207E-08
v 0.07071068 0.06532814 0.02705982
v -0.03826834 0.06532815 0.06532814
v 0.03826836 0.08535533 0.03535535
v 0.09238796 0.03826834 2.083027E-08
v 0.09999999 -1.629207E-08 1.629207E-08
v 0.07071069 0.07071067 2.219724E-08
v 1.318834E-08 0.09238795 0.03826835
v -0.07071067 0.05000001 0.04999999
v 0.09238796 0.03535533 -0.01464464
v 0.09999999 -1.629207E-08 1.629207E-08
v 0.03826836 0.09238794 2.01849E-08
v -0.03826834 0.08535535 0.03535534
v -0.09238795 0.02705982 0.02705979
v -0.09999999 1.629207E-08 -1.629207E-08
v 0.07071069 0.06532814 -0.02705978
v 2.06632E-08 0.09999999 1.509958E-08
v -0.07071067 0.06532815 0.0270598
v 0.09238796 0.0270598 -0.02705979
v 0.09999999 -1.629207E-08 1.629207E-08
v 0.03826837 0.08535533 -0.03535531
v -0.03826833 0.09238796 7.715489E-09
v -0.09238795 0.03535536 0.01464465
v -0.09999999 1.629207E-08 -1.629207E-08
v 0.07071069 0.05 -0.04999997
v 2.565775E-08 0.09238796 -0.03826832
v -0.07071067 0.07071069 -8.432164E-10
v 0.09238796 0.01464465 -0.03535533
v 0.09999999 -1.629207E-08 1.629207E-08
v 0.03826837 0.06532817 -0.06532812
v -0.03826832 0.08535536 -0.03535533
v -0.09238794 0.03826836 -9.273549E-09
v -0.09999999 1.629207E-08 -1.629207E-08
v 0.07071069 0.0270598 -0.06532814
v 2.74116E-08 0.0707107 -0.07071066
v -0.07071066 0.06532817 -0.0270598
v 0.09238796 -1.550826E-08 -0.03826834
v 0.09999999 -1.629207E-08 1.629207E-08
v 0.03826837 0.03535534 -0.08535533
v -0.03826832 0.06532817 -0.06532814
v -0.09238794 0.03535536 -0.01464467
v -0.09999999 1.629207E-08 -1.629207E-08
v 0.07071069 -1.236345E-08 -0.07071067
v 2.565775E-08 0.03826835 -0.09238795
v -0.07071066 0.05000002 -0.04999999
v 0.09238795 -0.01464468 -0.03535533
v 0.09999999 -1.629207E-08 1.629207E-08
v 0.03826836 -7.336424E-09 -0.09238794
v -0.03826832 0.03535536 -0.08535535
v -0.09238794 0.02705983 -0.02705981
v -0.09999999 1.629207E-08 -1.629207E-08
v 0.07071068 -0.02705983 -0.06532813
v 2.066321E-08 -1.192491E-09 -0.09999999
v -0.07071066 0.02705983 -0.06532815
v 0.09238795 -0.02705983 -0.02705979
v 0.09999999 -1.629207E-08 1.629207E-08
v 0.03826836 -0.03535536 -0.08535532
v -0.03826833 5.132987E-09 -0.09238796
v -0.09238794 0.01464468 -0.03535536
v -0.09999999 1.629207E-08 -1.629207E-08
v 0.07071067 -0.05000002 -0.04999997
v 1.318834E-08 -0.03826836 -0.09238794
v -0.07071067 1.067701E-08 -0.07071069
v 0.09238795 -0.03535537 -0.01464463
v 0.09999999 -1.629207E-08 1.629207E-08
v 0.03826835 -0.06532817 -0.06532812
v -0.03826834 -0.03535535 -0.08535533
v -0.09238794 1.459556E-08 -0.03826836
v -0.09999999 1.629207E-08 -1.629207E-08
v 0.07071067 -0.06532817 -0.02705976
v 4.371131E-09 -0.0707107 -0.07071065
v -0.07071067 -0.0270598 -0.06532815
v 0.09238794 -0.03826836 3.999073E-08
v 0.09999999 -1.629207E-08 1.629207E-08
v 0.03826834 -0.08535536 -0.03535529
v -0.03826834 -0.06532817 -0.06532813
v -0.09238795 -0.01464465 -0.03535535
v -0.09999999 1.629207E-08 -1.629207E-08
v 0.07071067 -0.07071069 5.760116E-08
v -4.446076E-09 -0.09238797 -0.0382683
v -0.07071067 -0.05 -0.04999999
v 0.09238794 -0.03535534 0.01464471
v 0.09999999 -1.629207E-08 1.629207E-08
v 0.03826834 -0.09238796 6.644234E-08
v -0.03826835 -0.08535535 -0.0353553
v -0.09238795 -0.0270598 -0.02705981
v -0.09999999 1.629207E-08 -1.629207E-08
v 0.07071066 -0.06532814 0.02705987
v -1.192094E-08 -0.09999999 6.516827E-08
v -0.07071068 -0.06532815 -0.02705978
v 0.09238794 -0.0270598 0.02705985
v 0.09999999 -1.629207E-08 1.629207E-08
v 0.03826833 -0.08535532 0.03535542
v -0.03826835 -0.09238794 5.397293E-08
v -0.09238795 -0.03535534 -0.01464466
v -0.09999999 1.629207E-08 -1.629207E-08
v 0.07071066 -0.04999996 0.05000006
v -1.691548E-08 -0.09238792 0.03826842
v -0.07071069 -0.07071067 3.456069E-08
v 0.09238794 -0.01464464 0.03535538
v 0.09999999 -1.629207E-08 1.629207E-08
v 0.03826833 -0.06532809 0.06532822
v -0.03826836 -0.0853553 0.0353554
v -0.09238796 -0.03826833 9.886914E-09
v -0.09999999 1.629207E-08 -1.629207E-08
v 0.07071066 -0.02705974 0.06532819
v -1.866933E-08 -0.07071061 0.07071075
v -0.07071069 -0.06532811 0.02705985
v 0.09238794 -1.337914E-08 0.03826836
v 0.09999999 -1.629207E-08 1.629207E-08
v 0.07071067 -8.429367E-09 0.07071069
v 0.03826833 -0.03535525 0.08535539
v 0.03826834 -2.196298E-09 0.09238796
v -1.691547E-08 -0.03826823 0.092388
v -1.192093E-08 4.371141E-09 0.09999999
v -0.03826836 -0.06532808 0.0653282
v -0.03826836 -0.03535523 0.08535536
v -0.03826835 1.027311E-08 0.09238794
v -0.07071069 -0.04999994 0.05000004
v -0.07071069 -0.02705972 0.06532817
v -0.07071069 1.46111E-08 0.07071067
v -0.09238796 -0.03535531 0.01464467
v -0.09999999 1.629207E-08 -1.629207E-08
v -0.09238796 -0.02705977 0.02705982
v -0.09999999 1.629207E-08 -1.629207E-08
v -0.09238796 -0.01464461 0.03535534
v -0.09999999 1.629207E-08 -1.629207E-08
v -0.09238796 1.672467E-08 0.03826833
v -0.09999999 1.629207E-08 -1.629207E-08
vt 0 1
vt 0.0625 0.875
vt 0 0.875
vt 0.0625 0.75
vt 0 0.75
vt 0.0625 0.625
vt 0 0.625
vt 0.0625 0.5
vt 0 0.5
vt 0.0625 0.375
vt 0 0.375
vt 0.0625 0.25
vt 0 0.25
vt 0.0625 0.1250001
vt 0 0.1250001
vt 0 5.960464E-08
vt 0.125 0.1250001
vt 0.0625 5.960464E-08
vt 0.125 0.25
vt 0.125 0.375
vt 0.125 0.5
vt 0.1875 0.1250001
vt 0.125 5.960464E-08
vt 0.1875 0.25
vt 0.125 0.625
vt 0.1875 0.375
vt 0.25 0.1250001
vt 0.1875 5.960464E-08
vt 0.25 0.25
vt 0.1875 0.5
vt 0.125 0.75
vt 0.3125 0.1250001
vt 0.25 5.960464E-08
vt 0.25 0.375
vt 0.1875 0.625
vt 0.125 0.875
vt 0.0625 1
vt 0.3125 0.25
vt 0.25 0.5
vt 0.1875 0.75
vt 0.375 0.1250001
vt 0.3125 5.960464E-08
vt 0.3125 0.375
vt 0.25 0.625
vt 0.1875 0.875
vt 0.125 1
vt 0.375 0.25
vt 0.3125 0.5
vt 0.25 0.75
vt 0.4375 0.1250001
vt 0.375 5.960464E-08
vt 0.375 0.375
vt 0.3125 0.625
vt 0.25 0.875
vt 0.1875 1
vt 0.4375 0.25
vt 0.375 0.5
vt 0.3125 0.75
vt 0.5 0.1250001
vt 0.4375 5.960464E-08
vt 0.4375 0.375
vt 0.375 0.625
vt 0.3125 0.875
vt 0.25 1
vt 0.5 0.25
vt 0.4375 0.5
vt 0.375 0.75
vt 0.5624999 0.1250001
vt 0.5 5.960464E-08
vt 0.5 0.375
vt 0.4375 0.625
vt 0.375 0.875
vt 0.3125 1
vt 0.5624999 0.25
vt 0.5 0.5
vt 0.4375 0.75
vt 0.6249999 0.1250001
vt 0.5624999 5.960464E-08
vt 0.5624999 0.375
vt 0.5 0.625
vt 0.4375 0.875
vt 0.375 1
vt 0.6249999 0.25
vt 0.5624999 0.5
vt 0.5 0.75
vt 0.6874999 0.1250001
vt 0.6249999 5.960464E-08
vt 0.6249999 0.375
vt 0.5624999 0.625
vt 0.5 0.875
vt 0.4375 1
vt 0.6874999 0.25
vt 0.6249999 0.5
vt 0.5624999 0.75
vt 0.75 0.1250001
vt 0.6874999 5.960464E-08
vt 0.6874999 0.375
vt 0.6249999 0.625
vt 0.5624999 0.875
vt 0.5 1
vt 0.75 0.25
vt 0.6874999 0.5
vt 0.6249999 0.75
vt 0.8125 0.1250001
vt 0.75 5.960464E-08
vt 0.75 0.375
vt 0.6874999 0.625
vt 0.6249999 0.875
vt 0.5624999 1
vt 0.8125 0.25
vt 0.75 0.5
vt 0.6874999 0.75
vt 0.875 0.1250001
vt 0.8125 5.960464E-08
vt 0.8125 0.375
vt 0.75 0.625
vt 0.6874999 0.875
vt 0.6249999 1
vt 0.875 0.25
vt 0.8125 0.5
vt 0.75 0.75
vt 0.9375001 0.1250001
vt 0.875 5.960464E-08
vt 0.875 0.375
vt 0.8125 0.625
vt 0.75 0.875
vt 0.6874999 1
vt 0.9375001 0.25
vt 0.875 0.5
vt 0.8125 0.75
vt 1 0.1250001
vt 0.9375001 5.960464E-08
vt 1 0.25
vt 0.9375001 0.375
vt 1 0.375
vt 0.9375001 0.5
vt 1 0.5
vt 0.875 0.625
vt 0.9375001 0.625
vt 1 0.625
vt 0.875 0.75
vt 0.9375001 0.75
vt 1 0.75
vt 0.8125 0.875
vt 0.75 1
vt 0.875 0.875
vt 0.8125 1
vt 0.9375001 0.875
vt 0.875 1
vt 1 0.875
vt 0.9375001 1
vn -1 2.056066E-07 -2.097712E-07
vn -0.9151592 0.1542572 0.3724089
vn -0.9151593 4.139698E-07 0.4030924
vn -0.6951566 0.2750953 0.6641384
vn -0.6951567 3.330223E-07 0.7188581
vn -0.3743671 0.354855 0.8566955
vn -0.3743671 2.865845E-07 0.9272805
vn -1.413906E-07 0.3826835 0.9238795
vn -2.676323E-07 3.029799E-07 1
vn 0.374367 0.354855 0.8566956
vn 0.3743669 2.036259E-07 0.9272806
vn 0.6951567 0.275095 0.6641384
vn 0.6951566 0 0.7188584
vn 0.9151592 0.1542567 0.3724092
vn 0.9151591 -1.665677E-07 0.4030929
vn 1 -1.980487E-07 1.838583E-07
vn 0.9151592 0.2850296 0.2850296
vn 1 -1.980487E-07 1.838583E-07
vn 0.6951567 0.5083095 0.5083096
vn 0.3743671 0.6556864 0.6556864
vn 0 0.7071068 0.7071068
vn 0.9151592 0.3724089 0.1542572
vn 1 -1.980487E-07 1.838583E-07
vn 0.6951568 0.6641382 0.2750953
vn -0.374367 0.6556864 0.6556864
vn 0.3743671 0.8566955 0.3548551
vn 0.9151593 0.4030925 3.117021E-07
vn 1 -1.980487E-07 1.838583E-07
vn 0.6951567 0.7188582 2.137307E-07
vn 1.413906E-07 0.9238795 0.3826835
vn -0.6951566 0.5083096 0.5083095
vn 0.9151593 0.372409 -0.1542567
vn 1 -1.980487E-07 1.838583E-07
vn 0.3743672 0.9272805 1.910564E-07
vn -0.3743669 0.8566957 0.354855
vn -0.9151592 0.2850296 0.2850295
vn -1 2.056066E-07 -2.097712E-07
vn 0.6951568 0.6641384 -0.2750949
vn 2.42384E-07 1 1.312913E-07
vn -0.6951567 0.6641385 0.2750951
vn 0.9151593 0.2850295 -0.2850294
vn 1 -1.980487E-07 1.838583E-07
vn 0.3743673 0.8566956 -0.3548546
vn -0.3743668 0.9272807 0
vn -0.9151592 0.3724092 0.1542567
vn -1 2.056066E-07 -2.097712E-07
vn 0.6951569 0.5083096 -0.5083094
vn 2.928806E-07 0.9238796 -0.3826832
vn -0.6951566 0.7188583 0
vn 0.9151593 0.1542569 -0.3724089
vn 1 -1.980487E-07 1.838583E-07
vn 0.3743672 0.6556866 -0.6556861
vn -0.3743668 0.8566957 -0.3548548
vn -0.9151591 0.4030929 -2.351544E-07
vn -1 2.056066E-07 -2.097712E-07
vn 0.6951569 0.2750951 -0.6641383
vn 2.045115E-07 0.7071069 -0.7071066
vn -0.6951565 0.6641386 -0.2750951
vn 0.9151593 -3.35585E-07 -0.4030925
vn 1 -1.980487E-07 1.838583E-07
vn 0.3743672 0.3548549 -0.8566955
vn -0.3743668 0.6556866 -0.6556863
vn -0.9151591 0.3724093 -0.1542569
vn -1 2.056066E-07 -2.097712E-07
vn 0.6951568 -2.100029E-07 -0.7188581
vn 2.72682E-07 0.3826835 -0.9238795
vn -0.6951565 0.5083097 -0.5083095
vn 0.9151592 -0.1542572 -0.3724089
vn 1 -1.980487E-07 1.838583E-07
vn 0.3743671 -1.583757E-07 -0.9272805
vn -0.3743668 0.3548551 -0.8566956
vn -0.9151591 0.2850299 -0.2850296
vn -1 2.056066E-07 -2.097712E-07
vn 0.6951567 -0.2750955 -0.6641383
vn 2.600578E-07 -1.338161E-07 -1
vn -0.6951566 0.2750954 -0.6641385
vn 0.9151592 -0.2850297 -0.2850295
vn 1 -1.980487E-07 1.838583E-07
vn 0.3743671 -0.3548551 -0.8566955
vn -0.3743668 0 -0.9272807
vn -0.9151591 0.154257 -0.3724093
vn -1 2.056066E-07 -2.097712E-07
vn 0.6951566 -0.5083098 -0.5083093
vn 1.615893E-07 -0.3826835 -0.9238794
vn -0.6951566 0 -0.7188584
vn 0.9151592 -0.3724094 -0.1542564
vn 1 -1.980487E-07 1.838583E-07
vn 0.3743671 -0.6556866 -0.6556862
vn -0.3743669 -0.3548551 -0.8566956
vn -0.9151591 2.118839E-07 -0.4030929
vn -1 2.056066E-07 -2.097712E-07
vn 0.6951567 -0.6641386 -0.2750947
vn 0 -0.7071069 -0.7071066
vn -0.6951567 -0.2750952 -0.6641385
vn 0.9151591 -0.4030929 5.352212E-07
vn 1 -1.980487E-07 1.838583E-07
vn 0.374367 -0.8566958 -0.3548544
vn -0.374367 -0.6556866 -0.6556863
vn -0.9151591 -0.1542567 -0.3724093
vn -1 2.056066E-07 -2.097712E-07
vn 0.6951567 -0.7188582 6.088841E-07
vn -1.489652E-07 -0.9238797 -0.382683
vn -0.6951566 -0.5083096 -0.5083095
vn 0.9151591 -0.3724092 0.1542573
vn 1 -1.980487E-07 1.838583E-07
vn 0.3743669 -0.9272807 6.862948E-07
vn -0.3743671 -0.8566957 -0.3548545
vn -0.9151592 -0.2850296 -0.2850295
vn -1 2.056066E-07 -2.097712E-07
vn 0.6951566 -0.6641382 0.2750958
vn -2.247101E-07 -1 6.261586E-07
vn -0.6951567 -0.6641386 -0.275095
vn 0.9151591 -0.2850295 0.28503
vn 1 -1.980487E-07 1.838583E-07
vn 0.3743668 -0.8566953 0.3548557
vn -0.3743671 -0.9272806 5.731691E-07
vn -0.9151592 -0.3724091 -0.1542569
vn -1 2.056066E-07 -2.097712E-07
vn 0.6951565 -0.5083092 0.5083101
vn -2.752068E-07 -0.9238792 0.3826841
vn -0.6951567 -0.7188582 3.603599E-07
vn 0.9151591 -0.1542567 0.3724094
vn 1 -1.980487E-07 1.838583E-07
vn 0.3743668 -0.6556858 0.6556871
vn -0.3743671 -0.8566953 0.3548555
vn -0.9151593 -0.4030925 0
vn -1 2.056066E-07 -2.097712E-07
vn 0.6951566 -0.2750947 0.6641387
vn -2.221853E-07 -0.7071061 0.7071074
vn -0.6951568 -0.6641381 0.2750956
vn 0.9151591 -1.665677E-07 0.4030929
vn 1 -1.980487E-07 1.838583E-07
vn 0.6951566 0 0.7188584
vn 0.3743669 -0.3548543 0.856696
vn 0.3743669 2.036259E-07 0.9272806
vn -2.928807E-07 -0.3826826 0.9238799
vn -2.676323E-07 3.029799E-07 1
vn -0.3743672 -0.6556857 0.655687
vn -0.3743672 -0.3548541 0.8566958
vn -0.3743671 2.865845E-07 0.9272805
vn -0.6951568 -0.5083089 0.50831
vn -0.6951568 -0.2750945 0.6641386
vn -0.6951567 3.330223E-07 0.7188581
vn -0.9151593 -0.3724087 0.1542571
vn -1 2.056066E-07 -2.097712E-07
vn -0.9151593 -0.2850292 0.2850297
vn -1 2.056066E-07 -2.097712E-07
vn -0.9151593 -0.1542565 0.372409
vn -1 2.056066E-07 -2.097712E-07
vn -0.9151593 4.139698E-07 0.4030924
vn -1 2.056066E-07 -2.097712E-07
g Sphere_224_0
f 3/3/3 2/2/2 1/1/1
f 4/4/4 2/2/2 3/3/3
f 5/5/5 4/4/4 3/3/3
f 6/6/6 4/4/4 5/5/5
f 7/7/7 6/6/6 5/5/5
f 8/8/8 6/6/6 7/7/7
f 9/9/9 8/8/8 7/7/7
f 10/10/10 8/8/8 9/9/9
f 11/11/11 10/10/10 9/9/9
f 12/12/12 10/10/10 11/11/11
f 13/13/13 12/12/12 11/11/11
f 14/14/14 12/12/12 13/13/13
f 15/15/15 14/14/14 13/13/13
f 14/14/14 15/15/15 16/16/16
f 14/14/14 17/17/17 12/12/12
f 17/17/17 14/14/14 18/18/18
f 12/12/12 19/19/19 10/10/10
f 17/17/17 19/19/19 12/12/12
f 10/10/10 20/20/20 8/8/8
f 19/19/19 20/20/20 10/10/10
f 8/8/8 21/21/21 6/6/6
f 20/20/20 21/21/21 8/8/8
f 17/17/17 22/22/22 19/19/19
f 22/22/22 17/17/17 23/23/23
f 19/19/19 24/24/24 20/20/20
f 22/22/22 24/24/24 19/19/19
f 21/21/21 25/25/25 6/6/6
f 6/6/6 25/25/25 4/4/4
f 20/20/20 26/26/26 21/21/21
f 24/24/24 26/26/26 20/20/20
f 22/22/22 27/27/27 24/24/24
f 27/27/27 22/22/22 28/28/28
f 27/27/27 29/29/29 24/24/24
f 24/24/24 29/29/29 26/26/26
f 26/26/26 30/30/30 21/21/21
f 21/21/21 30/30/30 25/25/25
f 25/25/25 31/31/31 4/4/4
f 4/4/4 31/31/31 2/2/2
f 27/27/27 32/32/32 29/29/29
f 32/32/32 27/27/27 33/33/33
f 29/29/29 34/34/34 26/26/26
f 26/26/26 34/34/34 30/30/30
f 30/30/30 35/35/35 25/25/25
f 25/25/25 35/35/35 31/31/31
f 31/31/31 36/36/36 2/2/2
f 2/2/2 36/36/36 37/37/37
f 32/32/32 38/38/38 29/29/29
f 29/29/29 38/38/38 34/34/34
f 34/34/34 39/39/39 30/30/30
f 30/30/30 39/39/39 35/35/35
f 31/31/31 40/40/40 36/36/36
f 35/35/35 40/40/40 31/31/31
f 32/32/32 41/41/41 38/38/38
f 41/41/41 32/32/32 42/42/42
f 38/38/38 43/43/43 34/34/34
f 34/34/34 43/43/43 39/39/39
f 39/39/39 44/44/44 35/35/35
f 35/35/35 44/44/44 40/40/40
f 40/40/40 45/45/45 36/36/36
f 36/36/36 45/45/45 46/46/46
f 41/41/41 47/47/47 38/38/38
f 38/38/38 47/47/47 43/43/43
f 43/43/43 48/48/48 39/39/39
f 39/39/39 48/48/48 44/44/44
f 40/40/40 49/49/49 45/45/45
f 44/44/44 49/49/49 40/40/40
f 41/41/41 50/50/50 47/47/47
f 50/50/50 41/41/41 51/51/51
f 47/47/47 52/52/52 43/43/43
f 43/43/43 52/52/52 48/48/48
f 48/48/48 53/53/53 44/44/44
f 44/44/44 53/53/53 49/49/49
f 49/49/49 54/54/54 45/45/45
f 45/45/45 54/54/54 55/55/55
f 50/50/50 56/56/56 47/47/47
f 47/47/47 56/56/56 52/52/52
f 52/52/52 57/57/57 48/48/48
f 48/48/48 57/57/57 53/53/53
f 49/49/49 58/58/58 54/54/54
f 53/53/53 58/58/58 49/49/49
f 50/50/50 59/59/59 56/56/56
f 59/59/59 50/50/50 60/60/60
f 56/56/56 61/61/61 52/52/52
f 52/52/52 61/61/61 57/57/57
f 57/57/57 62/62/62 53/53/53
f 53/53/53 62/62/62 58/58/58
f 58/58/58 63/63/63 54/54/54
f 54/54/54 63/63/63 64/64/64
f 59/59/59 65/65/65 56/56/56
f 56/56/56 65/65/65 61/61/61
f 61/61/61 66/66/66 57/57/57
f 57/57/57 66/66/66 62/62/62
f 58/58/58 67/67/67 63/63/63
f 62/62/62 67/67/67 58/58/58
f 59/59/59 68/68/68 65/65/65
f 68/68/68 59/59/59 69/69/69
f 65/65/65 70/70/70 61/61/61
f 61/61/61 70/70/70 66/66/66
f 66/66/66 71/71/71 62/62/62
f 62/62/62 71/71/71 67/67/67
f 67/67/67 72/72/72 63/63/63
f 63/63/63 72/72/72 73/73/73
f 68/68/68 74/74/74 65/65/65
f 65/65/65 74/74/74 70/70/70
f 70/70/70 75/75/75 66/66/66
f 66/66/66 75/75/75 71/71/71
f 67/67/67 76/76/76 72/72/72
f 71/71/71 76/76/76 67/67/67
f 68/68/68 77/77/77 74/74/74
f 77/77/77 68/68/68 78/78/78
f 74/74/74 79/79/79 70/70/70
f 70/70/70 79/79/79 75/75/75
f 75/75/75 80/80/80 71/71/71
f 71/71/71 80/80/80 76/76/76
f 76/76/76 81/81/81 72/72/72
f 72/72/72 81/81/81 82/82/82
f 77/77/77 83/83/83 74/74/74
f 74/74/74 83/83/83 79/79/79
f 79/79/79 84/84/84 75/75/75
f 75/75/75 84/84/84 80/80/80
f 76/76/76 85/85/85 81/81/81
f 80/80/80 85/85/85 76/76/76
f 77/77/77 86/86/86 83/83/83
f 86/86/86 77/77/77 87/87/87
f 83/83/83 88/88/88 79/79/79
f 79/79/79 88/88/88 84/84/84
f 84/84/84 89/89/89 80/80/80
f 80/80/80 89/89/89 85/85/85
f 85/85/85 90/90/90 81/81/81
f 81/81/81 90/90/90 91/91/91
f 86/86/86 92/92/92 83/83/83
f 83/83/83 92/92/92 88/88/88
f 88/88/88 93/93/93 84/84/84
f 84/84/84 93/93/93 89/89/89
f 85/85/85 94/94/94 90/90/90
f 89/89/89 94/94/94 85/85/85
f 86/86/86 95/95/95 92/92/92
f 95/95/95 86/86/86 96/96/96
f 92/92/92 97/97/97 88/88/88
f 88/88/88 97/97/97 93/93/93
f 93/93/93 98/98/98 89/89/89
f 89/89/89 98/98/98 94/94/94
f 94/94/94 99/99/99 90/90/90
f 90/90/90 99/99/99 100/100/100
f 95/95/95 101/101/101 92/92/92
f 92/92/92 101/101/101 97/97/97
f 97/97/97 102/102/102 93/93/93
f 93/93/93 102/102/102 98/98/98
f 94/94/94 103/103/103 99/99/99
f 98/98/98 103/103/103 94/94/94
f 95/95/95 104/104/104 101/101/101
f 104/104/104 95/95/95 105/105/105
f 101/101/101 106/106/106 97/97/97
f 97/97/97 106/106/106 102/102/102
f 102/102/102 107/107/107 98/98/98
f 98/98/98 107/107/107 103/103/103
f 103/103/103 108/108/108 99/99/99
f 99/99/99 108/108/108 109/109/109
f 104/104/104 110/110/110 101/101/101
f 101/101/101 110/110/110 106/106/106
f 106/106/106 111/111/111 102/102/102
f 102/102/102 111/111/111 107/107/107
f 103/103/103 112/112/112 108/108/108
f 107/107/107 112/112/112 103/103/103
f 104/104/104 113/113/113 110/110/110
f 113/113/113 104/104/104 114/114/114
f 110/110/110 115/115/115 106/106/106
f 106/106/106 115/115/115 111/111/111
f 111/111/111 116/116/116 107/107/107
f 107/107/107 116/116/116 112/112/112
f 112/112/112 117/117/117 108/108/108
f 108/108/108 117/117/117 118/118/118
f 113/113/113 119/119/119 110/110/110
f 110/110/110 119/119/119 115/115/115
f 115/115/115 120/120/120 111/111/111
f 111/111/111 120/120/120 116/116/116
f 112/112/112 121/121/121 117/117/117
f 116/116/116 121/121/121 112/112/112
f 113/113/113 122/122/122 119/119/119
f 122/122/122 113/113/113 123/123/123
f 119/119/119 124/124/124 115/115/115
f 115/115/115 124/124/124 120/120/120
f 120/120/120 125/125/125 116/116/116
f 116/116/116 125/125/125 121/121/121
f 121/121/121 126/126/126 117/117/117
f 117/117/117 126/126/126 127/127/127
f 122/122/122 128/128/128 119/119/119
f 119/119/119 128/128/128 124/124/124
f 124/124/124 129/129/129 120/120/120
f 120/120/120 129/129/129 125/125/125
f 121/121/121 130/130/130 126/126/126
f 125/125/125 130/130/130 121/121/121
f 122/122/122 131/131/131 128/128/128
f 131/131/131 122/122/122 132/132/132
f 131/131/131 133/133/133 128/128/128
f 128/128/128 134/134/134 124/124/124
f 128/128/128 133/133/133 134/134/134
f 124/124/124 134/134/134 129/129/129
f 133/133/133 135/135/135 134/134/134
f 134/134/134 135/135/135 136/136/136
f 134/134/134 136/136/136 129/129/129
f 135/135/135 137/137/137 136/136/136
f 129/129/129 138/138/138 125/125/125
f 129/129/129 136/136/136 138/138/138
f 125/125/125 138/138/138 130/130/130
f 136/136/136 137/137/137 139/139/139
f 136/136/136 139/139/139 138/138/138
f 137/137/137 140/140/140 139/139/139
f 138/138/138 141/141/141 130/130/130
f 138/138/138 139/139/139 141/141/141
f 139/139/139 140/140/140 142/142/142
f 139/139/139 142/142/142 141/141/141
f 140/140/140 143/143/143 142/142/142
f 130/130/130 141/141/141 144/144/144
f 130/130/130 144/144/144 126/126/126
f 126/126/126 144/144/144 145/145/145
f 141/141/141 146/146/146 144/144/144
f 141/141/141 142/142/142 146/146/146
f 144/144/144 146/146/146 147/147/147
f 142/142/142 143/143/143 148/148/148
f 142/142/142 148/148/148 146/146/146
f 146/146/146 148/148/148 149/149/149
f 143/143/143 150/150/150 148/148/148
f 148/148/148 150/150/150 151/151/151
