g Stones-gray
v -0.5164802 2.093414 0.3083875
v -0.8882365 0.007019031 -0.3043432
v -0.627301 2.093414 -0.2298394
v -0.7140479 0.007019031 0.4785279
v 0.04511037 2.093414 0.4885067
v 0.02035426 0.007019031 0.7251967
v 0.5454377 2.093414 0.3395713
v 0.7335646 0.007019031 0.5097729
v 0.6642723 2.093414 0.1055143
v 0.9127609 0.007019031 0.1666854
v 0.5330992 2.093414 -0.4771424
v 0.7157685 0.007019031 -0.6662225
v -1.505071 0.007019031 0.2974378
v -1.284234 1.939584 0.2757889
v -1.171466 1.939584 0.4873106
v -1.271944 0.007019031 0.686909
v -0.9000064 1.939584 0.467582
v -1.271944 0.007019031 0.686909
v -1.171466 1.939584 0.4873106
v -0.8400343 0.007019031 0.6621895
v -0.5259384 0.007019031 0.3730304
v -0.7173975 1.939584 0.3009107
v -0.7120648 1.939584 0.1655836
v -0.5139306 0.007019031 0.1319756
v -0.8749602 1.939584 0.01618051
v -0.8033143 0.007019031 -0.2017573
v -1.240254 0.007019031 -0.1443541
v -1.100976 1.939584 0.02781654
v -1.284234 1.939584 0.2757889
v -1.505071 0.007019031 0.2974378
v -0.1630877 2.093414 -0.5873951
v -0.627301 2.093414 -0.2298394
v -0.8882365 0.007019031 -0.3043432
v -0.2407766 0.007019031 -0.8287898
v -0.627301 2.093414 -0.2298394
v -0.1630877 2.093414 -0.5873951
v 0.5330992 2.093414 -0.4771424
v 0.6642723 2.093414 0.1055143
v -0.5164802 2.093414 0.3083875
v 0.5454377 2.093414 0.3395713
v 0.04511037 2.093414 0.4885067
v -0.1630877 2.093414 -0.5873951
v -0.2407766 0.007019031 -0.8287898
v 0.7157685 0.007019031 -0.6662225
v 0.5330992 2.093414 -0.4771424
v -1.100976 1.939584 0.02781654
v -0.8749602 1.939584 0.01618051
v -0.7120648 1.939584 0.1655836
v -1.284234 1.939584 0.2757889
v -0.7173975 1.939584 0.3009107
v -1.171466 1.939584 0.4873106
v -0.9000064 1.939584 0.467582
v 1.436217 0.007019031 0.08976848
v 1.268481 1.939584 0.2350345
v 1.054227 1.939584 0.1275489
v 1.02091 0.007019031 -0.09341541
v 0.844063 1.939584 0.3004972
v 1.02091 0.007019031 -0.09341541
v 1.054227 1.939584 0.1275489
v 0.682673 0.007019031 0.1763119
v 0.593384 0.007019031 0.5938004
v 0.7913204 1.939584 0.5420411
v 0.8651581 1.939584 0.6555746
v 0.7228615 0.007019031 0.7974846
v 1.084435 1.939584 0.6833969
v 1.15188 0.007019031 0.9026711
v 1.475337 0.007019031 0.6033615
v 1.262183 1.939584 0.5433109
v 1.268481 1.939584 0.2350345
v 1.436217 0.007019031 0.08976848
v 0.844063 1.939584 0.3004972
v 1.054227 1.939584 0.1275489
v 1.268481 1.939584 0.2350345
v 1.262183 1.939584 0.5433109
v 0.7913204 1.939584 0.5420411
v 0.8651581 1.939584 0.6555746
v 1.084435 1.939584 0.6833969
vt 0.921875 0.96875
vt 0.9005826 0.9453165
vt 0.921875 0.96875
vt 0.9116504 0.9381701
vt 0.921875 0.96875
vt 0.9230729 0.9355472
vt 0.921875 0.96875
vt 0.9341718 0.9354256
vt 0.921875 0.96875
vt 0.9398478 0.9370402
vt 0.921875 0.96875
vt 0.9518456 0.9438932
vt 0.9191622 0.9542876
vt 0.921875 0.96875
vt 0.921875 0.96875
vt 0.9191622 0.9542876
vt 0.921875 0.96875
vt 0.9191622 0.9542876
vt 0.921875 0.96875
vt 0.9191622 0.9542876
vt 0.9191622 0.9542876
vt 0.921875 0.96875
vt 0.921875 0.96875
vt 0.9191622 0.9542876
vt 0.921875 0.96875
vt 0.9191622 0.9542876
vt 0.9191622 0.9542876
vt 0.921875 0.96875
vt 0.921875 0.96875
vt 0.9191622 0.9542876
vt 0.921875 0.96875
vt 0.921875 0.96875
vt 0.9005826 0.9453165
vt 0.8907502 0.9573467
vt 0.9191622 0.9718658
vt 0.9191622 0.9718658
vt 0.9191622 0.9718658
vt 0.9191622 0.9718658
vt 0.9191622 0.9718658
vt 0.9191622 0.9718658
vt 0.9191622 0.9718658
vt 0.921875 0.96875
vt 0.9636015 0.9572472
vt 0.9518456 0.9438932
vt 0.921875 0.96875
vt 0.9191622 0.9718658
vt 0.9191622 0.9718658
vt 0.9191622 0.9718658
vt 0.9191622 0.9718658
vt 0.9191622 0.9718658
vt 0.9191622 0.9718658
vt 0.9191622 0.9718658
vt 0.9191622 0.9542876
vt 0.921875 0.96875
vt 0.921875 0.96875
vt 0.9191622 0.9542876
vt 0.921875 0.96875
vt 0.9191622 0.9542876
vt 0.921875 0.96875
vt 0.9191622 0.9542876
vt 0.9191622 0.9542876
vt 0.921875 0.96875
vt 0.921875 0.96875
vt 0.9191622 0.9542876
vt 0.921875 0.96875
vt 0.9191622 0.9542876
vt 0.9191622 0.9542876
vt 0.921875 0.96875
vt 0.921875 0.96875
vt 0.9191622 0.9542876
vt 0.9191622 0.9718658
vt 0.9191622 0.9718658
vt 0.9191622 0.9718658
vt 0.9191622 0.9718658
vt 0.9191622 0.9718658
vt 0.9191622 0.9718658
vt 0.9191622 0.9718658
vn -0.7368922 0.1266021 0.6640495
vn -0.971411 0.1115411 0.209569
vn -0.971411 0.1115411 0.209569
vn -0.7380068 0.126607 0.6628096
vn -0.01108818 0.1114177 0.9937118
vn -0.0150155 0.1114475 0.9936568
vn 0.6307831 0.1201958 0.7665936
vn 0.6372774 0.1203427 0.7611802
vn 0.9855596 0.1194724 0.1199941
vn 0.984778 0.1195687 0.1261573
vn 0.9685763 0.106962 -0.2245416
vn 0.9685763 0.106962 -0.2245416
vn -0.8623509 0.1000987 0.4963176
vn -0.8623509 0.1000987 0.4963176
vn -0.8623509 0.1000987 0.4963176
vn -0.8623509 0.1000987 0.4963176
vn 0.3921418 0.1033356 0.9140823
vn 0.06274716 0.1006132 0.992945
vn 0.06274716 0.1006132 0.992945
vn 0.387893 0.1033789 0.9158886
vn 0.9017159 0.1054174 0.41928
vn 0.9000729 0.1053855 0.4228032
vn 0.9310306 0.1060354 -0.3491968
vn 0.9344149 0.1061073 -0.3400148
vn 0.3486589 0.1096639 -0.9308119
vn 0.3463552 0.1096823 -0.9316693
vn -0.5215727 0.1109701 -0.8459595
vn -0.5140571 0.1109978 -0.8505438
vn -0.8344858 0.09885997 -0.5420886
vn -0.8344858 0.09885997 -0.5420886
vn -0.2472298 0.1171046 -0.9618544
vn -0.6178284 0.1090888 -0.7787091
vn -0.6178284 0.1090888 -0.7787091
vn -0.2507299 0.1171217 -0.9609459
vn 1.424129E-07 1 0
vn 1.424129E-07 1 0
vn 1.424129E-07 1 0
vn 1.424129E-07 1 0
vn 1.424129E-07 1 0
vn 1.424129E-07 1 0
vn 1.424129E-07 1 0
vn -0.2472298 0.1171046 -0.9618544
vn -0.2507299 0.1171217 -0.9609459
vn 0.1619626 0.1052938 -0.9811632
vn 0.1619626 0.1052938 -0.9811632
vn 1.517049E-07 1 0
vn 1.517049E-07 1 0
vn 1.517049E-07 1 0
vn 1.517049E-07 1 0
vn 1.517049E-07 1 0
vn 1.517049E-07 1 0
vn 1.517049E-07 1 0
vn 0.4170753 0.1000987 -0.9033428
vn 0.4170753 0.1000987 -0.9033428
vn 0.4170753 0.1000987 -0.9033428
vn 0.4170753 0.1000987 -0.9033428
vn -0.8482059 0.1033356 -0.5194888
vn -0.6249236 0.1006132 -0.7741753
vn -0.6249236 0.1006132 -0.7741753
vn -0.8457817 0.1033789 -0.5234178
vn -0.9782239 0.1054174 0.1787882
vn -0.9789187 0.1053855 0.1749633
vn -0.5581347 0.1060354 0.8229472
vn -0.5662021 0.1061073 0.8174084
vn 0.2532398 0.1096639 0.9611678
vn 0.2556153 0.1096824 0.9605366
vn 0.9144856 0.1109701 0.3891038
vn 0.9110002 0.1109978 0.3971879
vn 0.9943088 0.09885994 -0.03970918
vn 0.9943088 0.09885994 -0.03970918
vn 1.517048E-07 1 0
vn 1.517048E-07 1 0
vn 1.517048E-07 1 0
vn 1.517048E-07 1 0
vn 1.517048E-07 1 0
vn 1.517048E-07 1 0
vn 1.517048E-07 1 0
g Stones-gray_0
f 3/3/3 2/2/2 1/1/1
f 2/2/2 4/4/4 1/1/1
f 1/1/1 4/4/4 5/5/5
f 4/4/4 6/6/6 5/5/5
f 5/5/5 6/6/6 7/7/7
f 6/6/6 8/8/8 7/7/7
f 7/7/7 8/8/8 9/9/9
f 8/8/8 10/10/10 9/9/9
f 9/9/9 10/10/10 11/11/11
f 10/10/10 12/12/12 11/11/11
f 15/15/15 14/14/14 13/13/13
f 16/16/16 15/15/15 13/13/13
f 19/19/19 18/18/18 17/17/17
f 18/18/18 20/20/20 17/17/17
f 20/20/20 21/21/21 17/17/17
f 21/21/21 22/22/22 17/17/17
f 22/22/22 21/21/21 23/23/23
f 21/21/21 24/24/24 23/23/23
f 25/25/25 23/23/23 24/24/24
f 26/26/26 25/25/25 24/24/24
f 26/26/26 27/27/27 25/25/25
f 27/27/27 28/28/28 25/25/25
f 29/29/29 28/28/28 27/27/27
f 30/30/30 29/29/29 27/27/27
f 33/33/33 32/32/32 31/31/31
f 34/34/34 33/33/33 31/31/31
f 37/37/37 36/36/36 35/35/35
f 35/35/35 38/38/38 37/37/37
f 35/35/35 39/39/39 38/38/38
f 39/39/39 40/40/40 38/38/38
f 39/39/39 41/41/41 40/40/40
f 44/44/44 43/43/43 42/42/42
f 45/45/45 44/44/44 42/42/42
f 48/48/48 47/47/47 46/46/46
f 46/46/46 49/49/49 48/48/48
f 49/49/49 50/50/50 48/48/48
f 49/49/49 51/51/51 50/50/50
f 51/51/51 52/52/52 50/50/50
f 55/55/55 54/54/54 53/53/53
f 56/56/56 55/55/55 53/53/53
f 59/59/59 58/58/58 57/57/57
f 58/58/58 60/60/60 57/57/57
f 60/60/60 61/61/61 57/57/57
f 61/61/61 62/62/62 57/57/57
f 62/62/62 61/61/61 63/63/63
f 61/61/61 64/64/64 63/63/63
f 65/65/65 63/63/63 64/64/64
f 66/66/66 65/65/65 64/64/64
f 66/66/66 67/67/67 65/65/65
f 67/67/67 68/68/68 65/65/65
f 69/69/69 68/68/68 67/67/67
f 70/70/70 69/69/69 67/67/67
f 73/73/73 72/72/72 71/71/71
f 71/71/71 74/74/74 73/73/73
f 71/71/71 75/75/75 74/74/74
f 75/75/75 76/76/76 74/74/74
f 76/76/76 77/77/77 74/74/74
