g tabak
v 0.1213455 0.004419446 -0.04432078
v 0.1213455 0.01452105 -0.04432078
v 0.07210018 0.01452105 -0.1072032
v 0.07210018 0.004419446 -0.1072032
v 0.07210018 0.004419446 -0.1072032
v 0.07210018 0.01452105 -0.1072032
v -0.004671976 0.01452105 -0.1291742
v -0.004671976 0.004419446 -0.1291742
v -0.004671976 0.004419446 -0.1291742
v -0.004671976 0.01452105 -0.1291742
v -0.07967636 0.01452105 -0.1018999
v -0.07967636 0.004419446 -0.1018999
v -0.07967636 0.004419446 -0.1018999
v -0.07967636 0.01452105 -0.1018999
v -0.1243759 0.01452105 -0.03548188
v -0.1243759 0.004419446 -0.03548188
v -0.1243759 0.004419446 -0.03548188
v -0.1243759 0.01452105 -0.03548188
v -0.1213454 0.01452105 0.04432076
v -0.1213454 0.004419446 0.04432076
v -0.1213454 0.004419446 0.04432076
v -0.1213454 0.01452105 0.04432076
v -0.07210016 0.01452105 0.1072032
v -0.07210016 0.004419446 0.1072032
v -0.07210016 0.004419446 0.1072032
v -0.07210016 0.01452105 0.1072032
v 0.004671998 0.01452105 0.1291742
v 0.004671998 0.004419446 0.1291742
v 0.004671998 0.004419446 0.1291742
v 0.004671998 0.01452105 0.1291742
v 0.07967637 0.01452105 0.1018999
v 0.07967637 0.004419446 0.1018999
v 0.07967637 0.004419446 0.1018999
v 0.07967637 0.01452105 0.1018999
v 0.124376 0.01452105 0.03548186
v 0.124376 0.004419446 0.03548186
v 0.124376 0.004419446 0.03548186
v 0.124376 0.01452105 0.03548186
v 0.1213455 0.01452105 -0.04432078
v 0.1213455 0.004419446 -0.04432078
v 0.04558348 -0.004924536 -0.01654138
v 0.1213455 0.004419446 -0.04432078
v 0.07210018 0.004419446 -0.1072032
v 0.02714806 -0.004924536 -0.04028014
v 0.02714806 0.004924521 -0.04028014
v 0.07210018 0.01452105 -0.1072032
v 0.1213455 0.01452105 -0.04432078
v 0.04558348 0.004924521 -0.01654138
v 0.02714806 -0.004924536 -0.04028014
v 0.07210018 0.004419446 -0.1072032
v -0.004671976 0.004419446 -0.1291742
v -0.001641497 -0.004924536 -0.04861396
v -0.001641497 0.004924521 -0.04861396
v -0.004671976 0.01452105 -0.1291742
v 0.07210018 0.01452105 -0.1072032
v 0.02714806 0.004924521 -0.04028014
v -0.001641497 -0.004924536 -0.04861396
v -0.004671976 0.004419446 -0.1291742
v -0.07967636 0.004419446 -0.1018999
v -0.02992599 -0.004924536 -0.03825982
v -0.02992599 0.004924521 -0.03825982
v -0.07967636 0.01452105 -0.1018999
v -0.004671976 0.01452105 -0.1291742
v -0.001641497 0.004924521 -0.04861396
v -0.02992599 -0.004924536 -0.03825982
v -0.07967636 0.004419446 -0.1018999
v -0.1243759 0.004419446 -0.03548188
v -0.04659362 -0.004924536 -0.01325836
v -0.04659362 0.004924521 -0.01325836
v -0.1243759 0.01452105 -0.03548188
v -0.07967636 0.01452105 -0.1018999
v -0.02992599 0.004924521 -0.03825982
v -0.04659362 -0.004924536 -0.01325836
v -0.1243759 0.004419446 -0.03548188
v -0.1213454 0.004419446 0.04432076
v -0.04558346 -0.004924536 0.01654136
v -0.04558346 0.004924521 0.01654136
v -0.1213454 0.01452105 0.04432076
v -0.1243759 0.01452105 -0.03548188
v -0.04659362 0.004924521 -0.01325836
v -0.04558346 -0.004924536 0.01654136
v -0.1213454 0.004419446 0.04432076
v -0.07210016 0.004419446 0.1072032
v -0.02714804 -0.004924536 0.04028012
v -0.02714804 0.004924521 0.04028012
v -0.07210016 0.01452105 0.1072032
v -0.1213454 0.01452105 0.04432076
v -0.04558346 0.004924521 0.01654136
v -0.02714804 -0.004924536 0.04028012
v -0.07210016 0.004419446 0.1072032
v 0.004671998 0.004419446 0.1291742
v 0.001641512 -0.004924536 0.04861394
v 0.001641512 0.004924521 0.04861394
v 0.004671998 0.01452105 0.1291742
v -0.07210016 0.01452105 0.1072032
v -0.02714804 0.004924521 0.04028012
v 0.001641512 -0.004924536 0.04861394
v 0.004671998 0.004419446 0.1291742
v 0.07967637 0.004419446 0.1018999
v 0.029926 -0.004924536 0.0382598
v 0.029926 0.004924521 0.0382598
v 0.07967637 0.01452105 0.1018999
v 0.004671998 0.01452105 0.1291742
v 0.001641512 0.004924521 0.04861394
v 0.029926 -0.004924536 0.0382598
v 0.07967637 0.004419446 0.1018999
v 0.124376 0.004419446 0.03548186
v 0.04659364 -0.004924536 0.01325834
v 0.04659364 0.004924521 0.01325834
v 0.124376 0.01452105 0.03548186
v 0.07967637 0.01452105 0.1018999
v 0.029926 0.004924521 0.0382598
v 0.04659364 -0.004924536 0.01325834
v 0.124376 0.004419446 0.03548186
v 0.1213455 0.004419446 -0.04432078
v 0.04558348 -0.004924536 -0.01654138
v 0.04558348 0.004924521 -0.01654138
v 0.1213455 0.01452105 -0.04432078
v 0.124376 0.01452105 0.03548186
v 0.04659364 0.004924521 0.01325834
v 0.029926 0.004924521 0.0382598
v -0.0001262575 0.004924521 0.0001262575
v 0.04659364 0.004924521 0.01325834
v 0.001641512 0.004924521 0.04861394
v 0.04558348 0.004924521 -0.01654138
v -0.02714804 0.004924521 0.04028012
v 0.02714806 0.004924521 -0.04028014
v -0.04558346 0.004924521 0.01654136
v -0.001641497 0.004924521 -0.04861396
v -0.04659362 0.004924521 -0.01325836
v -0.02992599 0.004924521 -0.03825982
v 0.04659364 -0.004924536 0.01325834
v -0.0001262575 -0.004924536 0.0001262575
v 0.029926 -0.004924536 0.0382598
v 0.04558348 -0.004924536 -0.01654138
v 0.001641512 -0.004924536 0.04861394
v 0.02714806 -0.004924536 -0.04028014
v -0.02714804 -0.004924536 0.04028012
v -0.001641497 -0.004924536 -0.04861396
v -0.04558346 -0.004924536 0.01654136
v -0.02992599 -0.004924536 -0.03825982
v -0.04659362 -0.004924536 -0.01325836
vt 0.7399176 0.9449555
vt 0.7399176 0.9657565
vt 0.7498228 0.9657565
vt 0.7498228 0.9449555
vt 0.7498228 0.9449555
vt 0.7498228 0.9657565
vt 0.7527944 0.9657565
vt 0.7527944 0.9449555
vt 0.7527944 0.9449555
vt 0.7527944 0.9657565
vt 0.7488323 0.9657565
vt 0.7488323 0.9449555
vt 0.7488323 0.9449555
vt 0.7488323 0.9657565
vt 0.7389271 0.9657565
vt 0.7389271 0.9449555
vt 0.7389271 0.9449555
vt 0.7389271 0.9657565
vt 0.7260503 0.9657565
vt 0.7260503 0.9449555
vt 0.7260503 0.9449555
vt 0.7260503 0.9657565
vt 0.7161451 0.9657565
vt 0.7161451 0.9449555
vt 0.7161451 0.9449555
vt 0.7161451 0.9657565
vt 0.7131735 0.9657565
vt 0.7131735 0.9449555
vt 0.7131735 0.9449555
vt 0.7131735 0.9657565
vt 0.7171356 0.9657565
vt 0.7171356 0.9449555
vt 0.7171356 0.9449555
vt 0.7171356 0.9657565
vt 0.7280313 0.9657565
vt 0.7280313 0.9449555
vt 0.7280313 0.9449555
vt 0.7280313 0.9657565
vt 0.7399176 0.9657565
vt 0.7399176 0.9449555
vt 0.7359555 0.9261356
vt 0.7399176 0.9449555
vt 0.7498228 0.9449555
vt 0.7399176 0.9261356
vt 0.7399176 0.9469365
vt 0.7498228 0.9657565
vt 0.7399176 0.9657565
vt 0.7359555 0.9469365
vt 0.7399176 0.9261356
vt 0.7498228 0.9449555
vt 0.7527944 0.9449555
vt 0.7409081 0.9261356
vt 0.7409081 0.9469365
vt 0.7527944 0.9657565
vt 0.7498228 0.9657565
vt 0.7399176 0.9469365
vt 0.7409081 0.9261356
vt 0.7527944 0.9449555
vt 0.7488323 0.9449555
vt 0.7389271 0.9261356
vt 0.7389271 0.9469365
vt 0.7488323 0.9657565
vt 0.7527944 0.9657565
vt 0.7409081 0.9469365
vt 0.7389271 0.9261356
vt 0.7488323 0.9449555
vt 0.7389271 0.9449555
vt 0.734965 0.9261356
vt 0.734965 0.9469365
vt 0.7389271 0.9657565
vt 0.7488323 0.9657565
vt 0.7389271 0.9469365
vt 0.734965 0.9261356
vt 0.7389271 0.9449555
vt 0.7260503 0.9449555
vt 0.7310029 0.9261356
vt 0.7310029 0.9469365
vt 0.7260503 0.9657565
vt 0.7389271 0.9657565
vt 0.734965 0.9469365
vt 0.7310029 0.9261356
vt 0.7260503 0.9449555
vt 0.7161451 0.9449555
vt 0.7270408 0.9261356
vt 0.7270408 0.9469365
vt 0.7161451 0.9657565
vt 0.7260503 0.9657565
vt 0.7310029 0.9469365
vt 0.7270408 0.9261356
vt 0.7161451 0.9449555
vt 0.7131735 0.9449555
vt 0.7260503 0.9261356
vt 0.7260503 0.9469365
vt 0.7131735 0.9657565
vt 0.7161451 0.9657565
vt 0.7270408 0.9469365
vt 0.7260503 0.9261356
vt 0.7131735 0.9449555
vt 0.7171356 0.9449555
vt 0.7270408 0.9261356
vt 0.7270408 0.9469365
vt 0.7171356 0.9657565
vt 0.7131735 0.9657565
vt 0.7260503 0.9469365
vt 0.7270408 0.9261356
vt 0.7171356 0.9449555
vt 0.7280313 0.9449555
vt 0.7310029 0.9261356
vt 0.7310029 0.9469365
vt 0.7280313 0.9657565
vt 0.7171356 0.9657565
vt 0.7270408 0.9469365
vt 0.7310029 0.9261356
vt 0.7280313 0.9449555
vt 0.7399176 0.9449555
vt 0.7359555 0.9261356
vt 0.7359555 0.9469365
vt 0.7399176 0.9657565
vt 0.7280313 0.9657565
vt 0.7310029 0.9469365
vt 0.7270408 0.9469365
vt 0.7329839 0.9469365
vt 0.7310029 0.9469365
vt 0.7260503 0.9469365
vt 0.7359555 0.9469365
vt 0.7270408 0.9469365
vt 0.7399176 0.9469365
vt 0.7310029 0.9469365
vt 0.7409081 0.9469365
vt 0.734965 0.9469365
vt 0.7389271 0.9469365
vt 0.7310029 0.9261356
vt 0.7329839 0.9261356
vt 0.7270408 0.9261356
vt 0.7359555 0.9261356
vt 0.7260503 0.9261356
vt 0.7399176 0.9261356
vt 0.7270408 0.9261356
vt 0.7409081 0.9261356
vt 0.7310029 0.9261356
vt 0.7389271 0.9261356
vt 0.734965 0.9261356
vn 0.7776798 0.01587105 -0.6284602
vn 0.7776798 0.01587105 -0.6284602
vn 0.7776798 0.01587105 -0.6284602
vn 0.7776798 0.01587105 -0.6284602
vn 0.2698073 0.01587105 -0.9627835
vn 0.2698073 0.01587105 -0.9627835
vn 0.2698073 0.01587105 -0.9627835
vn 0.2698073 0.01587105 -0.9627835
vn -0.3332913 0.01587105 -0.9426903
vn -0.3332913 0.01587105 -0.9426903
vn -0.3332913 0.01587105 -0.9426903
vn -0.3332913 0.01587105 -0.9426903
vn -0.8411639 0.01587105 -0.5405474
vn -0.8411639 0.01587105 -0.5405474
vn -0.8411639 0.01587105 -0.5405474
vn -0.8411639 0.01587105 -0.5405474
vn -0.999874 0.01587105 -0.0003439156
vn -0.999874 0.01587105 -0.0003439156
vn -0.999874 0.01587105 -0.0003439156
vn -0.999874 0.01587105 -0.0003439156
vn -0.7776798 0.01587105 0.6284602
vn -0.7776798 0.01587105 0.6284602
vn -0.7776798 0.01587105 0.6284602
vn -0.7776798 0.01587105 0.6284602
vn -0.2698073 0.01587105 0.9627835
vn -0.2698073 0.01587105 0.9627835
vn -0.2698073 0.01587105 0.9627835
vn -0.2698073 0.01587105 0.9627835
vn 0.3332914 0.01587105 0.9426903
vn 0.3332914 0.01587105 0.9426903
vn 0.3332914 0.01587105 0.9426903
vn 0.3332914 0.01587105 0.9426903
vn 0.8411638 0.01587105 0.5405475
vn 0.8411638 0.01587105 0.5405475
vn 0.8411638 0.01587105 0.5405475
vn 0.8411638 0.01587105 0.5405475
vn 0.999874 0.01587105 -0.0003439156
vn 0.999874 0.01587105 -0.0003439156
vn 0.999874 0.01587105 -0.0003439156
vn 0.999874 0.01587105 -0.0003439156
vn 0.1104315 -0.9938838 0
vn 0.1104315 -0.9938838 0
vn 0.1104315 -0.9938838 0
vn 0.1104315 -0.9938838 0
vn -0.1104315 0.9938838 0
vn -0.1104315 0.9938838 0
vn -0.1104315 0.9938838 0
vn -0.1104315 0.9938838 0
vn 0.04756513 -0.9988682 0
vn 0.04756513 -0.9988682 0
vn 0.04756513 -0.9988682 0
vn 0.04756513 -0.9988682 0
vn -0.04756513 0.9988682 0
vn -0.04756513 0.9988682 0
vn -0.04756513 0.9988682 0
vn -0.04756513 0.9988682 0
vn -0.04756513 -0.9988682 0
vn -0.04756513 -0.9988682 0
vn -0.04756513 -0.9988682 0
vn -0.04756513 -0.9988682 0
vn 0.04756513 0.9988682 0
vn 0.04756513 0.9988682 0
vn 0.04756513 0.9988682 0
vn 0.04756513 0.9988682 0
vn -0.1104315 -0.9938838 0
vn -0.1104315 -0.9938838 0
vn -0.1104315 -0.9938838 0
vn -0.1104315 -0.9938838 0
vn 0.1104315 0.9938838 0
vn 0.1104315 0.9938838 0
vn 0.1104315 0.9938838 0
vn 0.1104315 0.9938838 0
vn -0.1104315 -0.9938838 0
vn -0.1104315 -0.9938838 0
vn -0.1104315 -0.9938838 0
vn -0.1104315 -0.9938838 0
vn 0.1104315 0.9938838 0
vn 0.1104315 0.9938838 0
vn 0.1104315 0.9938838 0
vn 0.1104315 0.9938838 0
vn -0.1104315 -0.9938838 0
vn -0.1104315 -0.9938838 0
vn -0.1104315 -0.9938838 0
vn -0.1104315 -0.9938838 0
vn 0.1104315 0.9938838 0
vn 0.1104315 0.9938838 0
vn 0.1104315 0.9938838 0
vn 0.1104315 0.9938838 0
vn -0.04756513 -0.9988682 0
vn -0.04756513 -0.9988682 0
vn -0.04756513 -0.9988682 0
vn -0.04756513 -0.9988682 0
vn 0.04756513 0.9988682 0
vn 0.04756513 0.9988682 0
vn 0.04756513 0.9988682 0
vn 0.04756513 0.9988682 0
vn 0.04756513 -0.9988682 0
vn 0.04756513 -0.9988682 0
vn 0.04756513 -0.9988682 0
vn 0.04756513 -0.9988682 0
vn -0.04756513 0.9988682 0
vn -0.04756513 0.9988682 0
vn -0.04756513 0.9988682 0
vn -0.04756513 0.9988682 0
vn 0.1104315 -0.9938838 0
vn 0.1104315 -0.9938838 0
vn 0.1104315 -0.9938838 0
vn 0.1104315 -0.9938838 0
vn -0.1104315 0.9938838 0
vn -0.1104315 0.9938838 0
vn -0.1104315 0.9938838 0
vn -0.1104315 0.9938838 0
vn 0.1104315 -0.9938838 0
vn 0.1104315 -0.9938838 0
vn 0.1104315 -0.9938838 0
vn 0.1104315 -0.9938838 0
vn -0.1104315 0.9938838 0
vn -0.1104315 0.9938838 0
vn -0.1104315 0.9938838 0
vn -0.1104315 0.9938838 0
vn -0.01587105 0.999874 -0.000345267
vn -0.01587105 0.999874 -0.000345267
vn -0.01587105 0.999874 -0.000345267
vn -0.01587105 0.999874 -0.000345267
vn -0.01587105 0.999874 -0.000345267
vn -0.01587105 0.999874 -0.000345267
vn -0.01587105 0.999874 -0.000345267
vn -0.01587105 0.999874 -0.000345267
vn -0.01587105 0.999874 -0.000345267
vn -0.01587105 0.999874 -0.000345267
vn -0.01587105 0.999874 -0.000345267
vn -0.01587105 -0.999874 -0.000345267
vn -0.01587105 -0.999874 -0.000345267
vn -0.01587105 -0.999874 -0.000345267
vn -0.01587105 -0.999874 -0.000345267
vn -0.01587105 -0.999874 -0.000345267
vn -0.01587105 -0.999874 -0.000345267
vn -0.01587105 -0.999874 -0.000345267
vn -0.01587105 -0.999874 -0.000345267
vn -0.01587105 -0.999874 -0.000345267
vn -0.01587105 -0.999874 -0.000345267
vn -0.01587105 -0.999874 -0.000345267
g tabak_0
f 3/3/3 2/2/2 1/1/1
f 4/4/4 3/3/3 1/1/1
f 7/7/7 6/6/6 5/5/5
f 8/8/8 7/7/7 5/5/5
f 11/11/11 10/10/10 9/9/9
f 12/12/12 11/11/11 9/9/9
f 15/15/15 14/14/14 13/13/13
f 16/16/16 15/15/15 13/13/13
f 19/19/19 18/18/18 17/17/17
f 20/20/20 19/19/19 17/17/17
f 23/23/23 22/22/22 21/21/21
f 24/24/24 23/23/23 21/21/21
f 27/27/27 26/26/26 25/25/25
f 28/28/28 27/27/27 25/25/25
f 31/31/31 30/30/30 29/29/29
f 32/32/32 31/31/31 29/29/29
f 35/35/35 34/34/34 33/33/33
f 36/36/36 35/35/35 33/33/33
f 39/39/39 38/38/38 37/37/37
f 40/40/40 39/39/39 37/37/37
f 43/43/43 42/42/42 41/41/41
f 44/44/44 43/43/43 41/41/41
f 47/47/47 46/46/46 45/45/45
f 48/48/48 47/47/47 45/45/45
f 51/51/51 50/50/50 49/49/49
f 52/52/52 51/51/51 49/49/49
f 55/55/55 54/54/54 53/53/53
f 56/56/56 55/55/55 53/53/53
f 59/59/59 58/58/58 57/57/57
f 60/60/60 59/59/59 57/57/57
f 63/63/63 62/62/62 61/61/61
f 64/64/64 63/63/63 61/61/61
f 67/67/67 66/66/66 65/65/65
f 68/68/68 67/67/67 65/65/65
f 71/71/71 70/70/70 69/69/69
f 72/72/72 71/71/71 69/69/69
f 75/75/75 74/74/74 73/73/73
f 76/76/76 75/75/75 73/73/73
f 79/79/79 78/78/78 77/77/77
f 80/80/80 79/79/79 77/77/77
f 83/83/83 82/82/82 81/81/81
f 84/84/84 83/83/83 81/81/81
f 87/87/87 86/86/86 85/85/85
f 88/88/88 87/87/87 85/85/85
f 91/91/91 90/90/90 89/89/89
f 92/92/92 91/91/91 89/89/89
f 95/95/95 94/94/94 93/93/93
f 96/96/96 95/95/95 93/93/93
f 99/99/99 98/98/98 97/97/97
f 100/100/100 99/99/99 97/97/97
f 103/103/103 102/102/102 101/101/101
f 104/104/104 103/103/103 101/101/101
f 107/107/107 106/106/106 105/105/105
f 108/108/108 107/107/107 105/105/105
f 111/111/111 110/110/110 109/109/109
f 112/112/112 111/111/111 109/109/109
f 115/115/115 114/114/114 113/113/113
f 116/116/116 115/115/115 113/113/113
f 119/119/119 118/118/118 117/117/117
f 120/120/120 119/119/119 117/117/117
f 123/123/123 122/122/122 121/121/121
f 121/121/121 122/122/122 124/124/124
f 125/125/125 122/122/122 123/123/123
f 124/124/124 122/122/122 126/126/126
f 127/127/127 122/122/122 125/125/125
f 126/126/126 122/122/122 128/128/128
f 129/129/129 122/122/122 127/127/127
f 128/128/128 122/122/122 130/130/130
f 131/131/131 122/122/122 129/129/129
f 130/130/130 122/122/122 131/131/131
f 134/134/134 133/133/133 132/132/132
f 132/132/132 133/133/133 135/135/135
f 136/136/136 133/133/133 134/134/134
f 135/135/135 133/133/133 137/137/137
f 138/138/138 133/133/133 136/136/136
f 137/137/137 133/133/133 139/139/139
f 140/140/140 133/133/133 138/138/138
f 139/139/139 133/133/133 141/141/141
f 142/142/142 133/133/133 140/140/140
f 141/141/141 133/133/133 142/142/142
