g Tablet
v 1.182362 2.097363 -0.3062549
v 1.702739 2.657301 -0.3062549
v 1.702739 3.930705 -0.3062548
v 1.182362 4.490642 -0.3062548
v -1.182362 2.097363 -0.3062549
v -1.182362 4.490642 -0.3062548
v -1.702739 2.657301 -0.3062549
v -1.702739 3.930705 -0.3062548
v 0.8476212 4.151859 0.1388089
v 1.220673 3.750446 0.1388088
v 1.220673 2.837559 0.1388088
v 0.8476212 2.436146 0.1388088
v -0.8476212 4.151859 0.1388089
v -0.8476212 2.436146 0.1388088
v -1.220673 3.750446 0.1388088
v -1.220673 2.837559 0.1388088
v -0.2612316 2.097363 -0.2229287
v 0.2612316 2.097363 -0.2229287
v 0.2612316 2.097363 0.2527054
v -0.2612316 2.097363 0.2527054
v -0.2612316 0.0001822114 -0.2229287
v -0.2612316 0.0001822114 0.2527054
v 0.2612316 0.0001822114 0.2527054
v 0.2612316 0.0001822114 -0.2229287
v -0.2612316 2.097363 0.2527054
v -0.2612316 0.0001822114 0.2527054
v -0.2612316 0.0001822114 -0.2229287
v -0.2612316 2.097363 -0.2229287
v -0.2612316 2.097363 -0.2229287
v -0.2612316 0.0001822114 -0.2229287
v 0.2612316 0.0001822114 -0.2229287
v 0.2612316 2.097363 -0.2229287
v 0.2612316 2.097363 -0.2229287
v 0.2612316 0.0001822114 -0.2229287
v 0.2612316 0.0001822114 0.2527054
v 0.2612316 2.097363 0.2527054
v 0.2612316 2.097363 0.2527054
v 0.2612316 0.0001822114 0.2527054
v -0.2612316 0.0001822114 0.2527054
v -0.2612316 2.097363 0.2527054
v 1.351634 3.799416 0.3360317
v 0.8476212 4.151859 0.1388089
v 0.9385589 4.243894 0.3360318
v 1.220673 3.750446 0.1388088
v -0.8476212 4.151859 0.1388089
v 1.351634 2.788589 0.3360317
v -0.9385589 4.243894 0.3360318
v 1.220673 2.837559 0.1388088
v -1.220673 3.750446 0.1388088
v 0.9385589 2.344111 0.3360317
v -1.351634 3.799416 0.3360317
v 0.8476212 2.436146 0.1388088
v -1.220673 2.837559 0.1388088
v -0.9385589 2.344111 0.3360317
v -1.351634 2.788589 0.3360317
v -0.8476212 2.436146 0.1388088
v 1.182362 2.097363 0.3360317
v 1.351634 2.788589 0.3360317
v 1.702739 2.657301 0.3360317
v 0.9385589 2.344111 0.3360317
v 1.351634 3.799416 0.3360317
v -1.182362 2.097363 0.3360317
v 1.702739 3.930705 0.3360317
v -0.9385589 2.344111 0.3360317
v 0.9385589 4.243894 0.3360318
v -1.702739 2.657301 0.3360317
v 1.182362 4.490642 0.3360318
v -1.351634 2.788589 0.3360317
v -0.9385589 4.243894 0.3360318
v -1.702739 3.930705 0.3360317
v -1.182362 4.490642 0.3360318
v -1.351634 3.799416 0.3360317
v 1.182362 2.097363 -0.3062549
v 1.702739 2.657301 0.3360317
v 1.702739 2.657301 -0.3062549
v 1.182362 2.097363 0.3360317
v 1.702739 3.930705 0.3360317
v -1.182362 2.097363 -0.3062549
v 1.702739 3.930705 -0.3062548
v -1.182362 2.097363 0.3360317
v 1.182362 4.490642 0.3360318
v -1.702739 2.657301 -0.3062549
v 1.182362 4.490642 -0.3062548
v -1.702739 2.657301 0.3360317
v -1.182362 4.490642 0.3360318
v -1.702739 3.930705 -0.3062548
v -1.182362 4.490642 -0.3062548
v -1.702739 3.930705 0.3360317
vt 0.7191511 0.7799641
vt 0.7317366 0.7992339
vt 0.7317366 0.843057
vt 0.7191511 0.8623269
vt 0.6619594 0.7799641
vt 0.6619594 0.8623269
vt 0.6493738 0.7992339
vt 0.6493738 0.843057
vt 0.7191511 0.8623269
vt 0.7317366 0.843057
vt 0.7317366 0.7992339
vt 0.7191511 0.7799641
vt 0.6619594 0.8623269
vt 0.6619594 0.7799641
vt 0.6493738 0.843057
vt 0.6493738 0.7992339
vt 0.6619594 0.7626409
vt 0.7191511 0.7626409
vt 0.7191511 0.7626409
vt 0.6619594 0.7626409
vt 0.6619594 0.7626409
vt 0.6619594 0.7626409
vt 0.7191511 0.7626409
vt 0.7191511 0.7626409
vt 0.6619594 0.7626409
vt 0.6619594 0.7626409
vt 0.6619594 0.7626409
vt 0.6619594 0.7626409
vt 0.6619594 0.7626409
vt 0.6619594 0.7626409
vt 0.7191511 0.7626409
vt 0.7191511 0.7626409
vt 0.7191511 0.7626409
vt 0.7191511 0.7626409
vt 0.7191511 0.7626409
vt 0.7191511 0.7626409
vt 0.7191511 0.7626409
vt 0.7191511 0.7626409
vt 0.6619594 0.7626409
vt 0.6619594 0.7626409
vt 0.6921695 0.7808662
vt 0.6900472 0.7841157
vt 0.6900472 0.7841157
vt 0.6921695 0.7808662
vt 0.6804028 0.7841157
vt 0.6921695 0.7734762
vt 0.6804028 0.7841157
vt 0.6921695 0.7734762
vt 0.6782805 0.7808662
vt 0.6900472 0.7702267
vt 0.6782805 0.7808662
vt 0.6900472 0.7702267
vt 0.6782805 0.7734762
vt 0.6804028 0.7702267
vt 0.6782805 0.7734762
vt 0.6804028 0.7702267
vt 0.7191511 0.7799641
vt 0.7317366 0.7992339
vt 0.7317366 0.7992339
vt 0.7191511 0.7799641
vt 0.7317366 0.843057
vt 0.6619594 0.7799641
vt 0.7317366 0.843057
vt 0.6619594 0.7799641
vt 0.7191511 0.8623269
vt 0.6493738 0.7992339
vt 0.7191511 0.8623269
vt 0.6493738 0.7992339
vt 0.6619594 0.8623269
vt 0.6493738 0.843057
vt 0.6619594 0.8623269
vt 0.6493738 0.843057
vt 0.6983747 0.7902153
vt 0.7041621 0.7990765
vt 0.7041621 0.7990765
vt 0.6983747 0.7902153
vt 0.7041621 0.8192285
vt 0.6720752 0.7902153
vt 0.7041621 0.8192285
vt 0.6720752 0.7902153
vt 0.6983747 0.8280897
vt 0.6662878 0.7990765
vt 0.6983747 0.8280897
vt 0.6662878 0.7990765
vt 0.6720752 0.8280897
vt 0.6662878 0.8192285
vt 0.6720752 0.8280897
vt 0.6662878 0.8192285
vn 0 0 -1
vn 0 0 -1
vn 0 0 -1
vn 0 0 -1
vn 0 0 -1
vn 0 0 -1
vn 0 0 -1
vn 0 0 -1
vn 0 0 1
vn 0 0 1
vn 0 0 1
vn 0 0 1
vn 0 0 1
vn 0 0 1
vn 0 0 1
vn 0 0 1
vn 0 1 0
vn 0 1 0
vn 0 1 0
vn 0 1 0
vn 0 -1 0
vn 0 -1 0
vn 0 -1 0
vn 0 -1 0
vn -1 0 0
vn -1 0 0
vn -1 0 0
vn -1 0 0
vn 0 0 -1
vn 0 0 -1
vn 0 0 -1
vn 0 0 -1
vn 1 0 0
vn 1 0 0
vn 1 0 0
vn 1 0 0
vn 0 0 1
vn 0 0 1
vn 0 0 1
vn 0 0 1
vn -0.7598665 -0.2969405 0.5782986
vn -0.2931772 -0.8074237 0.5119708
vn -0.372005 -0.7635425 0.5278402
vn -0.7584975 -0.3004789 0.5782682
vn 0.2931772 -0.8074238 0.5119708
vn -0.7598664 0.2969403 0.5782989
vn 0.372005 -0.7635425 0.5278401
vn -0.7584973 0.3004787 0.5782683
vn 0.7584975 -0.300479 0.5782682
vn -0.3720047 0.7635418 0.5278413
vn 0.7598665 -0.2969405 0.5782986
vn -0.2931773 0.8074228 0.5119721
vn 0.7584973 0.3004787 0.5782685
vn 0.3720046 0.7635419 0.5278413
vn 0.7598663 0.2969402 0.5782989
vn 0.2931772 0.8074228 0.5119721
vn 0 0 1
vn 0 0 1
vn 0 0 1
vn 0 0 1
vn 0 0 1
vn 0 0 1
vn 0 0 1
vn 0 0 1
vn 0 0 1
vn 0 0 1
vn 0 0 1
vn 0 0 1
vn 0 0 1
vn 0 0 1
vn 0 0 1
vn 0 0 1
vn 0.3995268 -0.9167215 0
vn 0.9307281 -0.3657119 0
vn 0.9307281 -0.3657119 0
vn 0.3995268 -0.9167215 0
vn 0.9307281 0.3657119 0
vn -0.3995268 -0.9167215 0
vn 0.9307281 0.3657119 0
vn -0.3995268 -0.9167215 0
vn 0.3995268 0.9167215 0
vn -0.9307281 -0.3657119 0
vn 0.3995268 0.9167215 0
vn -0.9307281 -0.3657119 0
vn -0.3995268 0.9167215 0
vn -0.9307281 0.3657119 0
vn -0.3995268 0.9167215 0
vn -0.9307281 0.3657119 0
g Tablet_0
f 3/3/3 2/2/2 1/1/1
f 1/1/1 4/4/4 3/3/3
f 1/1/1 5/5/5 4/4/4
f 5/5/5 6/6/6 4/4/4
f 5/5/5 7/7/7 6/6/6
f 7/7/7 8/8/8 6/6/6
f 11/11/11 10/10/10 9/9/9
f 9/9/9 12/12/12 11/11/11
f 9/9/9 13/13/13 12/12/12
f 13/13/13 14/14/14 12/12/12
f 13/13/13 15/15/15 14/14/14
f 15/15/15 16/16/16 14/14/14
f 19/19/19 18/18/18 17/17/17
f 20/20/20 19/19/19 17/17/17
f 23/23/23 22/22/22 21/21/21
f 24/24/24 23/23/23 21/21/21
f 27/27/27 26/26/26 25/25/25
f 28/28/28 27/27/27 25/25/25
f 31/31/31 30/30/30 29/29/29
f 32/32/32 31/31/31 29/29/29
f 35/35/35 34/34/34 33/33/33
f 36/36/36 35/35/35 33/33/33
f 39/39/39 38/38/38 37/37/37
f 40/40/40 39/39/39 37/37/37
f 43/43/43 42/42/42 41/41/41
f 42/42/42 44/44/44 41/41/41
f 45/45/45 42/42/42 43/43/43
f 41/41/41 44/44/44 46/46/46
f 47/47/47 45/45/45 43/43/43
f 44/44/44 48/48/48 46/46/46
f 49/49/49 45/45/45 47/47/47
f 46/46/46 48/48/48 50/50/50
f 51/51/51 49/49/49 47/47/47
f 48/48/48 52/52/52 50/50/50
f 53/53/53 49/49/49 51/51/51
f 50/50/50 52/52/52 54/54/54
f 55/55/55 53/53/53 51/51/51
f 52/52/52 56/56/56 54/54/54
f 56/56/56 53/53/53 55/55/55
f 54/54/54 56/56/56 55/55/55
f 59/59/59 58/58/58 57/57/57
f 58/58/58 60/60/60 57/57/57
f 61/61/61 58/58/58 59/59/59
f 57/57/57 60/60/60 62/62/62
f 63/63/63 61/61/61 59/59/59
f 60/60/60 64/64/64 62/62/62
f 65/65/65 61/61/61 63/63/63
f 62/62/62 64/64/64 66/66/66
f 67/67/67 65/65/65 63/63/63
f 64/64/64 68/68/68 66/66/66
f 69/69/69 65/65/65 67/67/67
f 66/66/66 68/68/68 70/70/70
f 71/71/71 69/69/69 67/67/67
f 68/68/68 72/72/72 70/70/70
f 72/72/72 69/69/69 71/71/71
f 70/70/70 72/72/72 71/71/71
f 75/75/75 74/74/74 73/73/73
f 74/74/74 76/76/76 73/73/73
f 77/77/77 74/74/74 75/75/75
f 73/73/73 76/76/76 78/78/78
f 79/79/79 77/77/77 75/75/75
f 76/76/76 80/80/80 78/78/78
f 81/81/81 77/77/77 79/79/79
f 78/78/78 80/80/80 82/82/82
f 83/83/83 81/81/81 79/79/79
f 80/80/80 84/84/84 82/82/82
f 85/85/85 81/81/81 83/83/83
f 82/82/82 84/84/84 86/86/86
f 87/87/87 85/85/85 83/83/83
f 84/84/84 88/88/88 86/86/86
f 88/88/88 85/85/85 87/87/87
f 86/86/86 88/88/88 87/87/87
