g terrain-world-hill1
v -3.020644 0.5426308 -3.000072
v 2.979356 1.76835 -3.000072
v 2.979356 0.3191837 2.999925
v 2.979356 2.924981 -9.000074
v 8.979354 3.007344 -3.000072
v -3.000006 2.456925 -15.00005
v 2.999995 3.968864 -15.00005
v -9.000002 0.7566423 -15.00005
v -3.000006 2.456925 -15.00005
v -3.020644 0.865448 -9.000072
v 15 0.9917991 8.999944
v 15 1.513955E-05 14.99995
v 9.000002 0.07542312 14.99994
v 2.979356 0.3191837 2.999925
v 8.979353 1.027673 2.999925
v 8.979354 0.4099044 8.999932
v 15 0.9917991 8.999944
v 8.979354 0.4099044 8.999932
v 9.000002 0.07542312 14.99994
v -15 0.3507 -9.000039
v -9.020646 0.2253442 -9.000074
v -9.020644 0.2821668 -3.000072
v 8.979354 3.007344 -3.000072
v 15 4.097564 -3.000062
v 15 2.405966 2.999948
v 8.979353 4.771023 -9.000073
v 14.99999 5.972986 -9.000051
v 8.979354 3.007344 -3.000072
v 2.979356 1.76835 -3.000072
v 8.979353 1.027673 2.999925
v 15 2.405966 2.999948
v -9.020644 0.3709773 8.999933
v -9.020646 -0.05973412 2.999925
v -3.020644 0.2992638 2.999925
v 2.979356 2.924981 -9.000074
v 8.979353 4.771023 -9.000073
v 8.979354 3.007344 -3.000072
v -3.000006 2.456925 -15.00005
v -3.020644 0.865448 -9.000072
v 8.99999 5.42709 -15.00005
v 15 6.000021 -15.00006
v 14.99999 5.972986 -9.000051
v 8.979353 1.027673 2.999925
v 15 2.405966 2.999948
v 15 0.9917991 8.999944
v -3.020644 0.865448 -9.000072
v 2.979356 2.924981 -9.000074
v 2.979356 1.76835 -3.000072
v 2.999995 3.968864 -15.00005
v 8.979353 4.771023 -9.000073
v -3.020644 0.2992638 2.999925
v 2.979356 0.4220995 8.999933
v -3.020644 0.1019153 8.999932
v -3.020644 0.5426308 -3.000072
v 2.979356 0.3191837 2.999925
v -9.020644 0.2821668 -3.000072
v -9.020646 -0.05973412 2.999925
v -15 0.03878071 -3.000049
v -15 0.3507 -9.000039
v -9.020646 0.2253442 -9.000074
v -3.020644 0.5426308 -3.000072
v -9.020644 0.2821668 -3.000072
v -15.02064 2.205378E-05 -15.00007
v -9.020646 0.2253442 -9.000074
v -15 0.3507 -9.000039
v 2.979356 1.76835 -3.000072
v 8.979353 1.027673 2.999925
v 2.979356 0.3191837 2.999925
v -3.020644 0.865448 -9.000072
v 2.979356 1.76835 -3.000072
v -3.020644 0.5426308 -3.000072
v -3.020644 0.2992638 2.999925
v 2.979356 0.3191837 2.999925
v 2.979356 0.4220995 8.999933
v 8.979354 0.4099044 8.999932
v -9.020644 0.3709773 8.999933
v -8.999993 0.2269086 14.99994
v -15 1.513956E-05 14.99994
v -15 0.1331491 8.999945
v -15 0.4041664 2.999959
v -15 0.4041664 2.999959
v -9.020646 -0.05973412 2.999925
v -9.020644 0.3709773 8.999933
v -15 0.03878071 -3.000049
v 2.999995 3.968864 -15.00005
v 8.99999 5.42709 -15.00005
v 8.979353 4.771023 -9.000073
v 14.99999 5.972986 -9.000051
v 2.979356 0.4220995 8.999933
v 3.000003 0.1494235 14.99994
v -2.999997 0.4500883 14.99994
v 8.979354 0.4099044 8.999932
v 9.000002 0.07542312 14.99994
v -9.020646 0.2253442 -9.000074
v -3.020644 0.865448 -9.000072
v -3.020644 0.5426308 -3.000072
v -9.000002 0.7566423 -15.00005
v -15.02064 2.205378E-05 -15.00007
v -3.020644 0.1019153 8.999932
v -2.999997 0.4500883 14.99994
v -8.999993 0.2269086 14.99994
v 2.979356 0.4220995 8.999933
v -9.020644 0.3709773 8.999933
v -3.020644 0.2992638 2.999925
v -3.020644 0.1019153 8.999932
v -8.999993 0.2269086 14.99994
v -15 0.03878071 -3.000049
v -15 -1.961226 -3.000049
v -15 -1.649305 -9.000041
v -15 0.3507 -9.000039
v 8.99999 5.42709 -15.00005
v 15 4.000014 -15.00006
v 15 6.000021 -15.00006
v 8.99999 3.427083 -15.00005
v 2.999995 3.968864 -15.00005
v 2.999995 1.96886 -15.00005
v -3.000006 2.456925 -15.00005
v -3.000006 0.4569185 -15.00005
v -9.000002 0.7566423 -15.00005
v -9.000002 -1.243365 -15.00005
v -15.02064 2.205378E-05 -15.00007
v -15.02064 -1.999985 -15.00007
v 15 6.000021 -15.00006
v 15 4.000014 -15.00006
v 14.99999 3.972979 -9.000051
v 14.99999 5.972986 -9.000051
v -8.999993 0.2269086 14.99994
v -15 -1.999992 14.99994
v -15 1.513956E-05 14.99994
v -8.999993 -1.773098 14.99994
v -2.999997 0.4500883 14.99994
v -2.999997 -1.549919 14.99994
v 3.000003 0.1494235 14.99994
v 3.000003 -1.850583 14.99994
v 9.000002 0.07542312 14.99994
v 9.000002 -1.924584 14.99994
v 15 1.513955E-05 14.99995
v 15 -1.999992 14.99995
v -15 0.4041664 2.999959
v -15 -1.59584 2.999959
v -15 -1.961226 -3.000049
v -15 0.03878071 -3.000049
v -15 0.1331491 8.999945
v -15 -1.59584 2.999959
v -15 0.4041664 2.999959
v -15 -1.866858 8.999944
v -15 1.513956E-05 14.99994
v -15 -1.999992 14.99994
v 14.99999 5.972986 -9.000051
v 14.99999 3.972979 -9.000051
v 15 2.097558 -3.000062
v 15 4.097564 -3.000062
v 15 0.4059591 2.999947
v 15 2.405966 2.999948
v 15 -1.008208 8.999945
v 15 0.9917991 8.999944
v 15 0.9917991 8.999944
v 15 -1.008208 8.999945
v 15 -1.999992 14.99995
v 15 1.513955E-05 14.99995
v -15 0.3507 -9.000039
v -15 -1.649305 -9.000041
v -15.02064 -1.999985 -15.00007
v -15.02064 2.205378E-05 -15.00007
v 8.99999 3.427083 -15.00005
v 15 2.288818E-05 -15.00006
v 15 4.000014 -15.00006
v 8.99999 -0.5729084 -15.00005
v 2.999995 1.96886 -15.00005
v 2.999995 -2.031135 -15.00005
v -3.000006 0.4569185 -15.00005
v -3.000006 -3.54307 -15.00005
v -9.000002 -1.243365 -15.00005
v -9.000002 -5.243354 -15.00005
v -15.02064 -1.999985 -15.00007
v -15.02064 -5.999975 -15.00007
v 15 4.000014 -15.00006
v 15 2.288818E-05 -15.00006
v 14.99999 -0.02701187 -9.000052
v 14.99999 3.972979 -9.000051
v 15 -1.902433 -3.000062
v 15 2.097558 -3.000062
v 15 -3.594031 2.999947
v 15 0.4059591 2.999947
v 15 -5.008197 8.999944
v 15 -1.008208 8.999945
v 15 -5.999983 14.99995
v 15 -1.999992 14.99995
v -8.999993 -1.773098 14.99994
v -15 -5.999983 14.99995
v -15 -1.999992 14.99994
v -8.999993 -5.773089 14.99994
v -2.999997 -1.549919 14.99994
v -2.999997 -5.54991 14.99994
v 3.000003 -1.850583 14.99994
v 3.000003 -5.850574 14.99994
v 9.000002 -1.924584 14.99994
v 9.000002 -5.924574 14.99994
v 15 -1.999992 14.99995
v 15 -5.999983 14.99995
v -15 -1.649305 -9.000041
v -15.02064 -5.999975 -15.00007
v -15.02064 -1.999985 -15.00007
v -15 -5.649297 -9.000041
v -15 -1.961226 -3.000049
v -15 -5.961219 -3.000049
v -15 -1.59584 2.999959
v -15 -5.59583 2.999958
v -15 -1.866858 8.999944
v -15 -5.866848 8.999944
v -15 -1.999992 14.99994
v -15 -5.999983 14.99995
vt 0.4270386 0.4256329
vt 0.4268957 0.4470456
vt 0.4483409 0.4469307
vt 0.4055274 0.4471493
vt 0.4267448 0.4684336
vt 0.384315 0.4259107
vt 0.3841978 0.4473359
vt 0.3844132 0.4043721
vt 0.384315 0.4259107
vt 0.4057525 0.4255912
vt 0.4695801 0.4896665
vt 0.490972 0.4896179
vt 0.4909346 0.4683206
vt 0.4483409 0.4469307
vt 0.4483016 0.4682495
vt 0.4696233 0.4682438
vt 0.4695801 0.4896665
vt 0.4696233 0.4682438
vt 0.4909346 0.4683206
vt 0.4058225 0.3831009
vt 0.4057705 0.4042906
vt 0.4270698 0.4043193
vt 0.4267448 0.4684336
vt 0.4265789 0.4898597
vt 0.4480985 0.4897595
vt 0.4053141 0.4685999
vt 0.4051731 0.489881
vt 0.4267448 0.4684336
vt 0.4268957 0.4470456
vt 0.4483016 0.4682495
vt 0.4480985 0.4897595
vt 0.4696469 0.4043708
vt 0.4483622 0.4043555
vt 0.4483443 0.4256418
vt 0.4055274 0.4471493
vt 0.4053141 0.4685999
vt 0.4267448 0.4684336
vt 0.384315 0.4259107
vt 0.4057525 0.4255912
vt 0.384126 0.468695
vt 0.384029 0.4899213
vt 0.4051731 0.489881
vt 0.4483016 0.4682495
vt 0.4480985 0.4897595
vt 0.4695801 0.4896665
vt 0.4057525 0.4255912
vt 0.4055274 0.4471493
vt 0.4268957 0.4470456
vt 0.3841978 0.4473359
vt 0.4053141 0.4685999
vt 0.4483443 0.4256418
vt 0.4696343 0.446941
vt 0.4696277 0.4256509
vt 0.4270386 0.4256329
vt 0.4483409 0.4469307
vt 0.4270698 0.4043193
vt 0.4483622 0.4043555
vt 0.4271204 0.383062
vt 0.4058225 0.3831009
vt 0.4057705 0.4042906
vt 0.4270386 0.4256329
vt 0.4270698 0.4043193
vt 0.3845574 0.382921
vt 0.4057705 0.4042906
vt 0.4058225 0.3831009
vt 0.4268957 0.4470456
vt 0.4483016 0.4682495
vt 0.4483409 0.4469307
vt 0.4057525 0.4255912
vt 0.4268957 0.4470456
vt 0.4270386 0.4256329
vt 0.4483443 0.4256418
vt 0.4483409 0.4469307
vt 0.4696343 0.446941
vt 0.4696233 0.4682438
vt 0.4696469 0.4043708
vt 0.4909319 0.4044779
vt 0.4909713 0.3831857
vt 0.4696756 0.3831515
vt 0.4484169 0.3831694
vt 0.4484169 0.3831694
vt 0.4483622 0.4043555
vt 0.4696469 0.4043708
vt 0.4271204 0.383062
vt 0.3841978 0.4473359
vt 0.384126 0.468695
vt 0.4053141 0.4685999
vt 0.4051731 0.489881
vt 0.4696343 0.446941
vt 0.4909433 0.4470131
vt 0.4908889 0.4257366
vt 0.4696233 0.4682438
vt 0.4909346 0.4683206
vt 0.4057705 0.4042906
vt 0.4057525 0.4255912
vt 0.4270386 0.4256329
vt 0.3844132 0.4043721
vt 0.3845574 0.382921
vt 0.4696277 0.4256509
vt 0.4908889 0.4257366
vt 0.4909319 0.4044779
vt 0.4696343 0.446941
vt 0.4696469 0.4043708
vt 0.4483443 0.4256418
vt 0.4696277 0.4256509
vt 0.4909319 0.4044779
vt 0.4271204 0.383062
vt 0.4271176 0.3777124
vt 0.4058281 0.3777988
vt 0.4058225 0.3831009
vt 0.384126 0.468695
vt 0.3786899 0.4896314
vt 0.384029 0.4899213
vt 0.3788474 0.4682202
vt 0.3841978 0.4473359
vt 0.378907 0.4466581
vt 0.384315 0.4259107
vt 0.3790643 0.4251804
vt 0.3844132 0.4043721
vt 0.3791099 0.4038026
vt 0.3845574 0.382921
vt 0.379282 0.3825431
vt 0.384029 0.4899213
vt 0.3840837 0.495303
vt 0.4056107 0.4951309
vt 0.4051731 0.489881
vt 0.4909319 0.4044779
vt 0.4962941 0.3830932
vt 0.4909713 0.3831857
vt 0.4962614 0.4043918
vt 0.4908889 0.4257366
vt 0.4961988 0.4257513
vt 0.4909433 0.4470131
vt 0.4962764 0.4470874
vt 0.4909346 0.4683206
vt 0.4962555 0.4683523
vt 0.490972 0.4896179
vt 0.4962941 0.4896416
vt 0.4484169 0.3831694
vt 0.4484107 0.3778709
vt 0.4271176 0.3777124
vt 0.4271204 0.383062
vt 0.4696756 0.3831515
vt 0.4484107 0.3778709
vt 0.4484169 0.3831694
vt 0.4697627 0.3778195
vt 0.4909713 0.3831857
vt 0.4910421 0.3778667
vt 0.4051731 0.489881
vt 0.4056107 0.4951309
vt 0.4273712 0.4951465
vt 0.4265789 0.4898597
vt 0.4488047 0.4950282
vt 0.4480985 0.4897595
vt 0.4701277 0.4949616
vt 0.4695801 0.4896665
vt 0.4695801 0.4896665
vt 0.4701277 0.4949616
vt 0.4914262 0.4949075
vt 0.490972 0.4896179
vt 0.4058225 0.3831009
vt 0.4058281 0.3777988
vt 0.3844558 0.3775809
vt 0.3845574 0.382921
vt 0.0421342 0.7839943
vt 0.06332511 0.7661076
vt 0.04336178 0.7639267
vt 0.06209752 0.7861751
vt 0.04237936 0.8042226
vt 0.06234263 0.8064034
vt 0.04271397 0.8244607
vt 0.06267721 0.8266413
vt 0.04336181 0.8447329
vt 0.06332511 0.8469136
vt 0.0424323 0.8649024
vt 0.0623956 0.8670832
vt 0.02212344 0.8669209
vt 0.04209705 0.8648369
vt 0.04005806 0.8448586
vt 0.02008438 0.8469426
vt 0.04109558 0.8245594
vt 0.02112195 0.8266433
vt 0.04182723 0.8042918
vt 0.02185354 0.8063759
vt 0.04209705 0.7840726
vt 0.02212344 0.7861567
vt 0.04166386 0.7639267
vt 0.02169021 0.7660107
vt 0.06373575 0.7840089
vt 0.08419754 0.7639267
vt 0.06411546 0.7639267
vt 0.08381782 0.7840089
vt 0.06336226 0.8040909
vt 0.08344428 0.8040909
vt 0.06386537 0.8241729
vt 0.08394748 0.8241729
vt 0.0639893 0.844255
vt 0.08407132 0.844255
vt 0.06411546 0.8643371
vt 0.08419754 0.8643371
vt 0.0843242 0.784009
vt 0.1049931 0.7639267
vt 0.08491103 0.7639267
vt 0.1044063 0.784009
vt 0.08484622 0.804091
vt 0.1049283 0.804091
vt 0.08423468 0.8241732
vt 0.1043168 0.8241732
vt 0.08468828 0.8442552
vt 0.1047703 0.8442552
vt 0.08491106 0.8643372
vt 0.1049931 0.8643372
vn -0.1947735 0.9534328 0.2302806
vn -0.1947735 0.9534328 0.2302806
vn -0.1947735 0.9534328 0.2302806
vn -0.2409792 0.9563065 0.1655504
vn -0.198722 0.9623382 0.1855117
vn -0.2409792 0.9563065 0.1655504
vn -0.2409792 0.9563065 0.1655504
vn -0.2642373 0.9324462 0.24642
vn -0.2642373 0.9324462 0.24642
vn -0.2642373 0.9324462 0.24642
vn 0.01239836 0.9865363 0.1630716
vn 0.01239836 0.9865363 0.1630716
vn 0.01239836 0.9865363 0.1630716
vn -0.1166586 0.9879493 0.1017205
vn -0.1166586 0.9879493 0.1017205
vn -0.1166586 0.9879493 0.1017205
vn -0.09605227 0.9938148 0.05573263
vn -0.09605227 0.9938148 0.05573263
vn -0.09605227 0.9938148 0.05573263
vn 0.02095914 0.9997355 -0.009467931
vn 0.02095914 0.9997355 -0.009467931
vn 0.02095914 0.9997355 -0.009467931
vn -0.1716983 0.9481863 0.2673247
vn -0.1716983 0.9481863 0.2673247
vn -0.1716983 0.9481863 0.2673247
vn -0.1871821 0.9375908 0.2930637
vn -0.1871821 0.9375908 0.2930637
vn -0.1924355 0.9318948 0.3074744
vn -0.1924355 0.9318948 0.3074744
vn -0.1924355 0.9318948 0.3074744
vn -0.2124389 0.9279678 0.3061787
vn -0.05957342 0.9956619 -0.07147372
vn -0.05957342 0.9956619 -0.07147372
vn -0.05957342 0.9956619 -0.07147372
vn -0.2831086 0.9201586 0.2704772
vn -0.2831086 0.9201586 0.2704772
vn -0.2831086 0.9201586 0.2704772
vn -0.3149856 0.9176414 0.2423185
vn -0.3149856 0.9176414 0.2423185
vn -0.09505488 0.9954619 0.004485406
vn -0.09505488 0.9954619 0.004485406
vn -0.09505488 0.9954619 0.004485406
vn -0.2174894 0.9500313 0.2239173
vn -0.2174894 0.9500313 0.2239173
vn -0.2174894 0.9500313 0.2239173
vn -0.3193958 0.9304902 0.1793722
vn -0.3193958 0.9304902 0.1793722
vn -0.3193958 0.9304902 0.1793722
vn -0.2901339 0.9429911 0.1630648
vn -0.2901339 0.9429911 0.1630648
vn -0.04333426 0.9982399 0.0404898
vn -0.05325949 0.998041 0.03282694
vn -0.05325949 0.998041 0.03282694
vn -0.04333426 0.9982399 0.0404898
vn -0.003317234 0.9991729 0.04052764
vn -0.04060474 0.997557 0.0568443
vn -0.04060474 0.997557 0.0568443
vn -0.04060474 0.997557 0.0568443
vn -0.04061577 0.9978274 0.05187371
vn -0.04336786 0.9990144 -0.009461083
vn -0.04336786 0.9990144 -0.009461083
vn -0.04336786 0.9990144 -0.009461083
vn 0.02092402 0.9980736 -0.05840537
vn 0.02092402 0.9980736 -0.05840537
vn 0.02092402 0.9980736 -0.05840537
vn -0.1140324 0.9657087 0.2332455
vn -0.1140324 0.9657087 0.2332455
vn -0.1140324 0.9657087 0.2332455
vn -0.1998753 0.9784063 0.05264106
vn -0.1998753 0.9784063 0.05264106
vn -0.1998753 0.9784063 0.05264106
vn -0.003319467 0.9998474 -0.01715
vn -0.003319467 0.9998474 -0.01715
vn -0.003319467 0.9998474 -0.01715
vn 0.002032204 0.9998509 -0.01715005
vn -0.03777753 0.9989951 0.02411734
vn -0.03777753 0.9989951 0.02411734
vn -0.03777753 0.9989951 0.02411734
vn -0.03973369 0.9989644 0.02216599
vn -0.03970299 0.9981938 0.0450881
vn 0.07715351 0.9944602 -0.07138748
vn 0.07715351 0.9944602 -0.07138748
vn 0.07715351 0.9944602 -0.07138748
vn 0.07720875 0.9951714 -0.06060348
vn -0.2348611 0.9663566 0.1048584
vn -0.2348611 0.9663566 0.1048584
vn -0.2348611 0.9663566 0.1048584
vn -0.1946755 0.9751281 0.1059558
vn 0.04999691 0.9977273 0.04517062
vn 0.04999691 0.9977273 0.04517062
vn 0.04999691 0.9977273 0.04517062
vn 0.01231339 0.9983764 0.05561391
vn 0.01231339 0.9983764 0.05561391
vn -0.1059305 0.9929374 0.05342287
vn -0.1059305 0.9929374 0.05342287
vn -0.1059305 0.9929374 0.05342287
vn -0.1242169 0.9884251 0.08709765
vn -0.1242169 0.9884251 0.08709765
vn -0.03710892 0.9976404 -0.05776417
vn -0.03710892 0.9976404 -0.05776417
vn -0.03710892 0.9976404 -0.05776417
vn -0.05319954 0.9969175 -0.05766685
vn 0.04477448 0.9984572 0.03284062
vn 0.04477448 0.9984572 0.03284062
vn 0.04477448 0.9984572 0.03284062
vn 0.04478593 0.9987124 0.02382637
vn -1 0 5.960455E-07
vn -1 0 5.960455E-07
vn -1 0 5.960455E-07
vn -1 0 5.960455E-07
vn -1.43051E-06 0 -1
vn -1.43051E-06 0 -1
vn -1.43051E-06 0 -1
vn -1.43051E-06 0 -1
vn 0 0 -1
vn 0 0 -1
vn 0 0 -1
vn 0 0 -1
vn 0 0 -1
vn 0 0 -1
vn 3.801623E-06 0 -1
vn 3.801623E-06 0 -1
vn 1 0 8.81648E-07
vn 1 0 8.81648E-07
vn 1 0 8.81648E-07
vn 1 0 8.81648E-07
vn 9.71706E-07 0 1
vn 9.71706E-07 0 1
vn 9.71706E-07 0 1
vn 9.71706E-07 0 1
vn 0 0 1
vn 0 0 1
vn 4.827182E-07 0 1
vn 4.827182E-07 0 1
vn -2.53714E-06 6.357808E-07 1
vn -2.53714E-06 6.357808E-07 1
vn -2.53714E-06 6.357808E-07 1
vn -2.53714E-06 6.357808E-07 1
vn -1 0 0
vn -1 0 0
vn -1 0 0
vn -1 0 0
vn -1 0 7.15255E-07
vn -1 0 7.15255E-07
vn -1 0 7.15255E-07
vn -1 0 7.15255E-07
vn -1 0 3.576265E-07
vn -1 0 3.576265E-07
vn 1 0 -6.357819E-07
vn 1 0 -6.357819E-07
vn 1 0 -1.58945E-07
vn 1 0 -1.58945E-07
vn 1 0 -1.58945E-07
vn 1 0 -1.58945E-07
vn 1 0 -1.589453E-07
vn 1 0 -1.589453E-07
vn 1 0 -7.152524E-07
vn 1 0 -7.152524E-07
vn 1 0 -7.152524E-07
vn 1 0 -7.152524E-07
vn -0.9999942 0 0.003439021
vn -0.9999942 0 0.003439021
vn -0.9999942 0 0.003439021
vn -0.9999942 0 0.003439021
vn -1.544132E-06 3.178918E-07 -1
vn -1.544132E-06 3.178918E-07 -1
vn -1.544132E-06 3.178918E-07 -1
vn -1.544132E-06 3.178918E-07 -1
vn -2.79104E-07 6.357841E-07 -1
vn -2.79104E-07 6.357841E-07 -1
vn -2.79104E-07 6.357841E-07 -1
vn -2.79104E-07 6.357841E-07 -1
vn -1.132546E-07 0 -1
vn -1.132546E-07 0 -1
vn 3.737405E-06 -3.168028E-07 -1
vn 3.737405E-06 -3.168028E-07 -1
vn 1 0 7.885208E-07
vn 1 0 7.885208E-07
vn 1 0 7.885208E-07
vn 1 0 7.885208E-07
vn 1 0 -1.589458E-07
vn 1 0 -1.589458E-07
vn 1 0 0
vn 1 0 0
vn 1 0 0
vn 1 0 0
vn 1 0 -7.152568E-07
vn 1 0 -7.152568E-07
vn 1.523508E-06 -6.35784E-07 1
vn 1.523508E-06 -6.35784E-07 1
vn 1.523508E-06 -6.35784E-07 1
vn 1.523508E-06 -6.35784E-07 1
vn 2.324449E-07 0 1
vn 2.324449E-07 0 1
vn 1.560052E-07 0 1
vn 1.560052E-07 0 1
vn -1.994313E-06 -6.357844E-07 1
vn -1.994313E-06 -6.357844E-07 1
vn -1.994313E-06 -6.357844E-07 1
vn -1.994313E-06 -6.357844E-07 1
vn -0.9999942 0 0.00343882
vn -0.9999942 0 0.00343882
vn -0.9999942 0 0.00343882
vn -0.9999942 0 0.00343882
vn -1 0 4.569704E-07
vn -1 0 4.569704E-07
vn -1 0 0
vn -1 0 0
vn -1 0 3.774979E-07
vn -1 0 3.774979E-07
vn -1 0 0
vn -1 0 0
g terrain-world-hill1_0
f 3/3/3 2/2/2 1/1/1
f 2/2/2 5/5/5 4/4/4
f 4/4/4 7/7/7 6/6/6
f 10/10/10 9/9/9 8/8/8
f 13/13/13 12/12/12 11/11/11
f 16/16/16 15/15/15 14/14/14
f 18/18/18 17/17/17 15/15/15
f 18/18/18 19/19/19 17/17/17
f 22/22/22 21/21/21 20/20/20
f 25/25/25 24/24/24 23/23/23
f 24/24/24 27/27/27 26/26/26
f 28/28/28 24/24/24 26/26/26
f 30/30/30 28/28/28 29/29/29
f 30/30/30 31/31/31 28/28/28
f 34/34/34 33/33/33 32/32/32
f 37/37/37 36/36/36 35/35/35
f 39/39/39 35/35/35 38/38/38
f 42/42/42 41/41/41 40/40/40
f 45/45/45 44/44/44 43/43/43
f 48/48/48 47/47/47 46/46/46
f 47/47/47 50/50/50 49/49/49
f 53/53/53 52/52/52 51/51/51
f 51/51/51 55/55/55 54/54/54
f 51/51/51 54/54/54 56/56/56
f 57/57/57 51/51/51 56/56/56
f 57/57/57 56/56/56 58/58/58
f 58/58/58 56/56/56 59/59/59
f 62/62/62 61/61/61 60/60/60
f 65/65/65 64/64/64 63/63/63
f 68/68/68 67/67/67 66/66/66
f 71/71/71 70/70/70 69/69/69
f 74/74/74 73/73/73 72/72/72
f 74/74/74 75/75/75 73/73/73
f 78/78/78 77/77/77 76/76/76
f 79/79/79 78/78/78 76/76/76
f 79/79/79 76/76/76 80/80/80
f 83/83/83 82/82/82 81/81/81
f 81/81/81 82/82/82 84/84/84
f 87/87/87 86/86/86 85/85/85
f 87/87/87 88/88/88 86/86/86
f 91/91/91 90/90/90 89/89/89
f 89/89/89 90/90/90 92/92/92
f 90/90/90 93/93/93 92/92/92
f 96/96/96 95/95/95 94/94/94
f 94/94/94 95/95/95 97/97/97
f 94/94/94 97/97/97 98/98/98
f 101/101/101 100/100/100 99/99/99
f 99/99/99 100/100/100 102/102/102
f 105/105/105 104/104/104 103/103/103
f 103/103/103 106/106/106 105/105/105
f 109/109/109 108/108/108 107/107/107
f 110/110/110 109/109/109 107/107/107
f 113/113/113 112/112/112 111/111/111
f 112/112/112 114/114/114 111/111/111
f 111/111/111 114/114/114 115/115/115
f 114/114/114 116/116/116 115/115/115
f 115/115/115 116/116/116 117/117/117
f 116/116/116 118/118/118 117/117/117
f 117/117/117 118/118/118 119/119/119
f 118/118/118 120/120/120 119/119/119
f 119/119/119 120/120/120 121/121/121
f 120/120/120 122/122/122 121/121/121
f 125/125/125 124/124/124 123/123/123
f 126/126/126 125/125/125 123/123/123
f 129/129/129 128/128/128 127/127/127
f 128/128/128 130/130/130 127/127/127
f 127/127/127 130/130/130 131/131/131
f 130/130/130 132/132/132 131/131/131
f 131/131/131 132/132/132 133/133/133
f 132/132/132 134/134/134 133/133/133
f 133/133/133 134/134/134 135/135/135
f 134/134/134 136/136/136 135/135/135
f 135/135/135 136/136/136 137/137/137
f 136/136/136 138/138/138 137/137/137
f 141/141/141 140/140/140 139/139/139
f 142/142/142 141/141/141 139/139/139
f 145/145/145 144/144/144 143/143/143
f 144/144/144 146/146/146 143/143/143
f 143/143/143 146/146/146 147/147/147
f 146/146/146 148/148/148 147/147/147
f 151/151/151 150/150/150 149/149/149
f 152/152/152 151/151/151 149/149/149
f 153/153/153 151/151/151 152/152/152
f 154/154/154 153/153/153 152/152/152
f 155/155/155 153/153/153 154/154/154
f 156/156/156 155/155/155 154/154/154
f 159/159/159 158/158/158 157/157/157
f 160/160/160 159/159/159 157/157/157
f 163/163/163 162/162/162 161/161/161
f 164/164/164 163/163/163 161/161/161
f 167/167/167 166/166/166 165/165/165
f 166/166/166 168/168/168 165/165/165
f 165/165/165 168/168/168 169/169/169
f 168/168/168 170/170/170 169/169/169
f 169/169/169 170/170/170 171/171/171
f 170/170/170 172/172/172 171/171/171
f 171/171/171 172/172/172 173/173/173
f 172/172/172 174/174/174 173/173/173
f 173/173/173 174/174/174 175/175/175
f 174/174/174 176/176/176 175/175/175
f 179/179/179 178/178/178 177/177/177
f 180/180/180 179/179/179 177/177/177
f 181/181/181 179/179/179 180/180/180
f 182/182/182 181/181/181 180/180/180
f 183/183/183 181/181/181 182/182/182
f 184/184/184 183/183/183 182/182/182
f 185/185/185 183/183/183 184/184/184
f 186/186/186 185/185/185 184/184/184
f 187/187/187 185/185/185 186/186/186
f 188/188/188 187/187/187 186/186/186
f 191/191/191 190/190/190 189/189/189
f 190/190/190 192/192/192 189/189/189
f 189/189/189 192/192/192 193/193/193
f 192/192/192 194/194/194 193/193/193
f 193/193/193 194/194/194 195/195/195
f 194/194/194 196/196/196 195/195/195
f 195/195/195 196/196/196 197/197/197
f 196/196/196 198/198/198 197/197/197
f 197/197/197 198/198/198 199/199/199
f 198/198/198 200/200/200 199/199/199
f 203/203/203 202/202/202 201/201/201
f 202/202/202 204/204/204 201/201/201
f 201/201/201 204/204/204 205/205/205
f 204/204/204 206/206/206 205/205/205
f 205/205/205 206/206/206 207/207/207
f 206/206/206 208/208/208 207/207/207
f 207/207/207 208/208/208 209/209/209
f 208/208/208 210/210/210 209/209/209
f 209/209/209 210/210/210 211/211/211
f 210/210/210 212/212/212 211/211/211
