g Tube_Puck03
v 0 -0.1 0.5
v 0 0.1 0.5
v -0.1294095 -0.1 0.4829629
v -0.1294095 0.1 0.4829629
v -0.25 -0.1 0.4330127
v -0.25 0.1 0.4330127
v -0.3535534 -0.1 0.3535534
v -0.3535534 0.1 0.3535534
v -0.4330127 -0.1 0.25
v -0.4330127 0.1 0.25
v -0.4829629 -0.1 0.1294095
v -0.4829629 0.1 0.1294095
v -0.5 -0.1 -2.185569E-08
v -0.5 0.1 -2.185569E-08
v -0.4829629 -0.1 -0.1294096
v -0.4829629 0.1 -0.1294096
v -0.4330127 -0.1 -0.25
v -0.4330127 0.1 -0.25
v -0.3535534 -0.1 -0.3535534
v -0.3535534 0.1 -0.3535534
v -0.25 -0.1 -0.4330127
v -0.25 0.1 -0.4330127
v -0.1294095 -0.1 -0.4829629
v -0.1294095 0.1 -0.4829629
v 4.371139E-08 -0.1 -0.5
v 4.371139E-08 0.1 -0.5
v 0.1294095 -0.1 -0.4829629
v 0.1294095 0.1 -0.4829629
v 0.2500001 -0.1 -0.4330126
v 0.2500001 0.1 -0.4330126
v 0.3535534 -0.1 -0.3535533
v 0.3535534 0.1 -0.3535533
v 0.4330127 -0.1 -0.25
v 0.4330127 0.1 -0.25
v 0.4829629 -0.1 -0.1294095
v 0.4829629 0.1 -0.1294095
v 0.5 -0.1 5.96244E-09
v 0.5 0.1 5.96244E-09
v 0.4829629 -0.1 0.1294095
v 0.4829629 0.1 0.1294095
v 0.4330127 -0.1 0.25
v 0.4330127 0.1 0.25
v 0.3535533 -0.1 0.3535535
v 0.3535533 0.1 0.3535535
v 0.2499999 -0.1 0.4330128
v 0.2499999 0.1 0.4330128
v 0.1294094 -0.1 0.4829629
v 0.1294094 0.1 0.4829629
v -8.742278E-08 -0.1 0.5
v -8.742278E-08 0.1 0.5
v -5.245367E-08 -0.1 0.3
v -5.245367E-08 0.1 0.3
v 0.07764565 -0.1 0.2897778
v 0.07764565 0.1 0.2897778
v 0.1499999 -0.1 0.2598077
v 0.1499999 0.1 0.2598077
v 0.212132 -0.1 0.2121321
v 0.212132 0.1 0.2121321
v 0.2598076 -0.1 0.15
v 0.2598076 0.1 0.15
v 0.2897778 -0.1 0.0776457
v 0.2897778 0.1 0.0776457
v 0.3 -0.1 3.577464E-09
v 0.3 0.1 3.577464E-09
v 0.2897778 -0.1 -0.0776457
v 0.2897778 0.1 -0.0776457
v 0.2598076 -0.1 -0.15
v 0.2598076 0.1 -0.15
v 0.2121321 -0.1 -0.212132
v 0.2121321 0.1 -0.212132
v 0.1500001 -0.1 -0.2598076
v 0.1500001 0.1 -0.2598076
v 0.07764573 -0.1 -0.2897778
v 0.07764573 0.1 -0.2897778
v 2.622683E-08 -0.1 -0.3
v 2.622683E-08 0.1 -0.3
v -0.07764568 -0.1 -0.2897778
v -0.07764568 0.1 -0.2897778
v -0.15 -0.1 -0.2598076
v -0.15 0.1 -0.2598076
v -0.212132 -0.1 -0.212132
v -0.212132 0.1 -0.212132
v -0.2598076 -0.1 -0.15
v -0.2598076 0.1 -0.15
v -0.2897778 -0.1 -0.07764575
v -0.2897778 0.1 -0.07764575
v -0.3 -0.1 -1.311342E-08
v -0.3 0.1 -1.311342E-08
v -0.2897778 -0.1 0.07764573
v -0.2897778 0.1 0.07764573
v -0.2598076 -0.1 0.15
v -0.2598076 0.1 0.15
v -0.212132 -0.1 0.212132
v -0.212132 0.1 0.212132
v -0.15 -0.1 0.2598076
v -0.15 0.1 0.2598076
v -0.07764572 -0.1 0.2897778
v -0.07764572 0.1 0.2897778
v 0 -0.1 0.3
v 0 0.1 0.3
v -5.245367E-08 -0.1 0.3
v -8.742278E-08 -0.1 0.5
v 0.07764565 -0.1 0.2897778
v 0.1294094 -0.1 0.4829629
v 0.1499999 -0.1 0.2598077
v 0.2499999 -0.1 0.4330128
v 0.212132 -0.1 0.2121321
v 0.3535533 -0.1 0.3535535
v 0.2598076 -0.1 0.15
v 0.4330127 -0.1 0.25
v 0.2897778 -0.1 0.0776457
v 0.4829629 -0.1 0.1294095
v 0.3 -0.1 3.577464E-09
v 0.5 -0.1 5.96244E-09
v 0.2897778 -0.1 -0.0776457
v 0.4829629 -0.1 -0.1294095
v 0.2598076 -0.1 -0.15
v 0.4330127 -0.1 -0.25
v 0.2121321 -0.1 -0.212132
v 0.3535534 -0.1 -0.3535533
v 0.1500001 -0.1 -0.2598076
v 0.2500001 -0.1 -0.4330126
v 0.07764573 -0.1 -0.2897778
v 0.1294095 -0.1 -0.4829629
v 2.622683E-08 -0.1 -0.3
v 4.371139E-08 -0.1 -0.5
v -0.07764568 -0.1 -0.2897778
v -0.1294095 -0.1 -0.4829629
v -0.15 -0.1 -0.2598076
v -0.25 -0.1 -0.4330127
v -0.212132 -0.1 -0.212132
v -0.3535534 -0.1 -0.3535534
v -0.2598076 -0.1 -0.15
v -0.4330127 -0.1 -0.25
v -0.2897778 -0.1 -0.07764575
v -0.4829629 -0.1 -0.1294096
v -0.3 -0.1 -1.311342E-08
v -0.5 -0.1 -2.185569E-08
v -0.2897778 -0.1 0.07764573
v -0.4829629 -0.1 0.1294095
v -0.2598076 -0.1 0.15
v -0.4330127 -0.1 0.25
v -0.212132 -0.1 0.212132
v -0.3535534 -0.1 0.3535534
v -0.15 -0.1 0.2598076
v -0.25 -0.1 0.4330127
v -0.07764572 -0.1 0.2897778
v -0.1294095 -0.1 0.4829629
v 0 -0.1 0.3
v 0 -0.1 0.5
v 0 0.1 0.3
v 0 0.1 0.5
v -0.07764572 0.1 0.2897778
v -0.1294095 0.1 0.4829629
v -0.15 0.1 0.2598076
v -0.25 0.1 0.4330127
v -0.212132 0.1 0.212132
v -0.3535534 0.1 0.3535534
v -0.2598076 0.1 0.15
v -0.4330127 0.1 0.25
v -0.2897778 0.1 0.07764573
v -0.4829629 0.1 0.1294095
v -0.3 0.1 -1.311342E-08
v -0.5 0.1 -2.185569E-08
v -0.2897778 0.1 -0.07764575
v -0.4829629 0.1 -0.1294096
v -0.2598076 0.1 -0.15
v -0.4330127 0.1 -0.25
v -0.212132 0.1 -0.212132
v -0.3535534 0.1 -0.3535534
v -0.15 0.1 -0.2598076
v -0.25 0.1 -0.4330127
v -0.07764568 0.1 -0.2897778
v -0.1294095 0.1 -0.4829629
v 2.622683E-08 0.1 -0.3
v 4.371139E-08 0.1 -0.5
v 0.07764573 0.1 -0.2897778
v 0.1294095 0.1 -0.4829629
v 0.1500001 0.1 -0.2598076
v 0.2500001 0.1 -0.4330126
v 0.2121321 0.1 -0.212132
v 0.3535534 0.1 -0.3535533
v 0.2598076 0.1 -0.15
v 0.4330127 0.1 -0.25
v 0.2897778 0.1 -0.0776457
v 0.4829629 0.1 -0.1294095
v 0.3 0.1 3.577464E-09
v 0.5 0.1 5.96244E-09
v 0.2897778 0.1 0.0776457
v 0.4829629 0.1 0.1294095
v 0.2598076 0.1 0.15
v 0.4330127 0.1 0.25
v 0.212132 0.1 0.2121321
v 0.3535533 0.1 0.3535535
v 0.1499999 0.1 0.2598077
v 0.2499999 0.1 0.4330128
v 0.07764565 0.1 0.2897778
v 0.1294094 0.1 0.4829629
v -5.245367E-08 0.1 0.3
v -8.742278E-08 0.1 0.5
vt 0 0
vt 0 1
vt -0.04166667 0
vt -0.04166667 1
vt -0.08333334 0
vt -0.08333334 1
vt -0.125 0
vt -0.125 1
vt -0.1666667 0
vt -0.1666667 1
vt -0.2083333 0
vt -0.2083333 1
vt -0.25 0
vt -0.25 1
vt -0.2916667 0
vt -0.2916667 1
vt -0.3333333 0
vt -0.3333333 1
vt -0.375 0
vt -0.375 1
vt -0.4166667 0
vt -0.4166667 1
vt -0.4583333 0
vt -0.4583333 1
vt -0.5 0
vt -0.5 1
vt -0.5416667 0
vt -0.5416667 1
vt -0.5833334 0
vt -0.5833334 1
vt -0.625 0
vt -0.625 1
vt -0.6666667 0
vt -0.6666667 1
vt -0.7083334 0
vt -0.7083334 1
vt -0.75 0
vt -0.75 1
vt -0.7916667 0
vt -0.7916667 1
vt -0.8333334 0
vt -0.8333334 1
vt -0.875 0
vt -0.875 1
vt -0.9166667 0
vt -0.9166667 1
vt -0.9583334 0
vt -0.9583334 1
vt -1 0
vt -1 1
vt 0 0
vt 0 1
vt -0.04166667 0
vt -0.04166667 1
vt -0.08333334 0
vt -0.08333334 1
vt -0.125 0
vt -0.125 1
vt -0.1666667 0
vt -0.1666667 1
vt -0.2083333 0
vt -0.2083333 1
vt -0.25 0
vt -0.25 1
vt -0.2916667 0
vt -0.2916667 1
vt -0.3333333 0
vt -0.3333333 1
vt -0.375 0
vt -0.375 1
vt -0.4166667 0
vt -0.4166667 1
vt -0.4583333 0
vt -0.4583333 1
vt -0.5 0
vt -0.5 1
vt -0.5416667 0
vt -0.5416667 1
vt -0.5833334 0
vt -0.5833334 1
vt -0.625 0
vt -0.625 1
vt -0.6666667 0
vt -0.6666667 1
vt -0.7083334 0
vt -0.7083334 1
vt -0.75 0
vt -0.75 1
vt -0.7916667 0
vt -0.7916667 1
vt -0.8333334 0
vt -0.8333334 1
vt -0.875 0
vt -0.875 1
vt -0.9166667 0
vt -0.9166667 1
vt -0.9583334 0
vt -0.9583334 1
vt -1 0
vt -1 1
vt 0.5000001 0.8
vt 0.5000001 1
vt 0.4223543 0.7897778
vt 0.3705906 0.9829629
vt 0.3500001 0.7598077
vt 0.2500001 0.9330128
vt 0.287868 0.7121321
vt 0.1464467 0.8535535
vt 0.2401924 0.65
vt 0.06698728 0.7499999
vt 0.2102222 0.5776457
vt 0.01703709 0.6294096
vt 0.2 0.5
vt 0 0.5
vt 0.2102222 0.4223543
vt 0.01703706 0.3705905
vt 0.2401924 0.35
vt 0.06698728 0.2500001
vt 0.2878679 0.287868
vt 0.1464465 0.1464467
vt 0.3499999 0.2401924
vt 0.2499999 0.06698737
vt 0.4223543 0.2102222
vt 0.3705905 0.01703709
vt 0.5 0.2
vt 0.4999999 0
vt 0.5776457 0.2102222
vt 0.6294094 0.01703706
vt 0.65 0.2401924
vt 0.7500001 0.06698731
vt 0.712132 0.287868
vt 0.8535534 0.1464466
vt 0.7598076 0.35
vt 0.9330127 0.25
vt 0.7897778 0.4223543
vt 0.9829629 0.3705904
vt 0.8 0.5
vt 1 0.5
vt 0.7897778 0.5776457
vt 0.9829629 0.6294096
vt 0.7598076 0.65
vt 0.9330127 0.75
vt 0.712132 0.712132
vt 0.8535534 0.8535534
vt 0.65 0.7598076
vt 0.75 0.9330127
vt 0.5776457 0.7897778
vt 0.6294096 0.9829629
vt 0.5 0.8
vt 0.5 1
vt 0.5 0.8
vt 0.5 1
vt 0.5776457 0.7897778
vt 0.6294096 0.9829629
vt 0.65 0.7598076
vt 0.75 0.9330127
vt 0.712132 0.712132
vt 0.8535534 0.8535534
vt 0.7598076 0.65
vt 0.9330127 0.75
vt 0.7897778 0.5776457
vt 0.9829629 0.6294096
vt 0.8 0.5
vt 1 0.5
vt 0.7897778 0.4223543
vt 0.9829629 0.3705904
vt 0.7598076 0.35
vt 0.9330127 0.25
vt 0.712132 0.287868
vt 0.8535534 0.1464466
vt 0.65 0.2401924
vt 0.7500001 0.06698731
vt 0.5776457 0.2102222
vt 0.6294094 0.01703706
vt 0.5 0.2
vt 0.4999999 0
vt 0.4223543 0.2102222
vt 0.3705905 0.01703709
vt 0.3499999 0.2401924
vt 0.2499999 0.06698737
vt 0.2878679 0.287868
vt 0.1464465 0.1464467
vt 0.2401924 0.35
vt 0.06698728 0.2500001
vt 0.2102222 0.4223543
vt 0.01703706 0.3705905
vt 0.2 0.5
vt 0 0.5
vt 0.2102222 0.5776457
vt 0.01703709 0.6294096
vt 0.2401924 0.65
vt 0.06698728 0.7499999
vt 0.287868 0.7121321
vt 0.1464467 0.8535535
vt 0.3500001 0.7598077
vt 0.2500001 0.9330128
vt 0.4223543 0.7897778
vt 0.3705906 0.9829629
vt 0.5000001 0.8
vt 0.5000001 1
vn 0 0 1
vn 0 0 1
vn -0.258819 0 0.9659258
vn -0.258819 0 0.9659258
vn -0.5 0 0.8660254
vn -0.5 0 0.8660254
vn -0.7071068 0 0.7071068
vn -0.7071068 0 0.7071068
vn -0.8660254 0 0.5
vn -0.8660254 0 0.5
vn -0.9659258 0 0.2588191
vn -0.9659258 0 0.2588191
vn -1 0 -4.371139E-08
vn -1 0 -4.371139E-08
vn -0.9659258 0 -0.2588192
vn -0.9659258 0 -0.2588192
vn -0.8660254 0 -0.5000001
vn -0.8660254 0 -0.5000001
vn -0.7071068 0 -0.7071068
vn -0.7071068 0 -0.7071068
vn -0.5000001 0 -0.8660254
vn -0.5000001 0 -0.8660254
vn -0.2588189 0 -0.9659259
vn -0.2588189 0 -0.9659259
vn 8.742278E-08 0 -1
vn 8.742278E-08 0 -1
vn 0.2588191 0 -0.9659258
vn 0.2588191 0 -0.9659258
vn 0.5000002 0 -0.8660253
vn 0.5000002 0 -0.8660253
vn 0.7071069 0 -0.7071066
vn 0.7071069 0 -0.7071066
vn 0.8660254 0 -0.4999999
vn 0.8660254 0 -0.4999999
vn 0.9659259 0 -0.258819
vn 0.9659259 0 -0.258819
vn 1 0 1.192488E-08
vn 1 0 1.192488E-08
vn 0.9659258 0 0.258819
vn 0.9659258 0 0.258819
vn 0.8660254 0 0.4999999
vn 0.8660254 0 0.4999999
vn 0.7071065 0 0.707107
vn 0.7071065 0 0.707107
vn 0.4999998 0 0.8660256
vn 0.4999998 0 0.8660256
vn 0.2588188 0 0.9659259
vn 0.2588188 0 0.9659259
vn -1.748456E-07 0 1
vn -1.748456E-07 0 1
vn 1.748456E-07 0 -1
vn 1.748456E-07 0 -1
vn -0.2588188 0 -0.9659259
vn -0.2588188 0 -0.9659259
vn -0.4999998 0 -0.8660256
vn -0.4999998 0 -0.8660256
vn -0.7071065 0 -0.707107
vn -0.7071065 0 -0.707107
vn -0.8660254 0 -0.4999999
vn -0.8660254 0 -0.4999999
vn -0.9659258 0 -0.258819
vn -0.9659258 0 -0.258819
vn -1 0 -1.192488E-08
vn -1 0 -1.192488E-08
vn -0.9659258 0 0.258819
vn -0.9659258 0 0.258819
vn -0.8660254 0 0.4999999
vn -0.8660254 0 0.4999999
vn -0.7071069 0 0.7071066
vn -0.7071069 0 0.7071066
vn -0.5000002 0 0.8660253
vn -0.5000002 0 0.8660253
vn -0.2588191 0 0.9659258
vn -0.2588191 0 0.9659258
vn -8.742278E-08 0 1
vn -8.742278E-08 0 1
vn 0.2588189 0 0.9659258
vn 0.2588189 0 0.9659258
vn 0.5000001 0 0.8660253
vn 0.5000001 0 0.8660253
vn 0.7071068 0 0.7071068
vn 0.7071068 0 0.7071068
vn 0.8660253 0 0.5000001
vn 0.8660253 0 0.5000001
vn 0.9659258 0 0.2588192
vn 0.9659258 0 0.2588192
vn 1 0 4.371139E-08
vn 1 0 4.371139E-08
vn 0.9659258 0 -0.2588191
vn 0.9659258 0 -0.2588191
vn 0.8660254 0 -0.4999999
vn 0.8660254 0 -0.4999999
vn 0.7071068 0 -0.7071068
vn 0.7071068 0 -0.7071068
vn 0.5 0 -0.8660253
vn 0.5 0 -0.8660253
vn 0.258819 0 -0.9659258
vn 0.258819 0 -0.9659258
vn 0 0 -1
vn 0 0 -1
vn 0 -1 0
vn 0 -1 0
vn 0 -1 0
vn 0 -1 0
vn 0 -1 0
vn 0 -1 0
vn 0 -1 0
vn 0 -1 0
vn 0 -1 0
vn 0 -1 0
vn 0 -1 0
vn 0 -1 0
vn 0 -1 0
vn 0 -1 0
vn 0 -1 0
vn 0 -1 0
vn 0 -1 0
vn 0 -1 0
vn 0 -1 0
vn 0 -1 0
vn 0 -1 0
vn 0 -1 0
vn 0 -1 0
vn 0 -1 0
vn 0 -1 0
vn 0 -1 0
vn 0 -1 0
vn 0 -1 0
vn 0 -1 0
vn 0 -1 0
vn 0 -1 0
vn 0 -1 0
vn 0 -1 0
vn 0 -1 0
vn 0 -1 0
vn 0 -1 0
vn 0 -1 0
vn 0 -1 0
vn 0 -1 0
vn 0 -1 0
vn 0 -1 0
vn 0 -1 0
vn 0 -1 0
vn 0 -1 0
vn 0 -1 0
vn 0 -1 0
vn 0 -1 0
vn 0 -1 0
vn 0 -1 0
vn 0 -1 0
vn 0 1 0
vn 0 1 0
vn 0 1 0
vn 0 1 0
vn 0 1 0
vn 0 1 0
vn 0 1 0
vn 0 1 0
vn 0 1 0
vn 0 1 0
vn 0 1 0
vn 0 1 0
vn 0 1 0
vn 0 1 0
vn 0 1 0
vn 0 1 0
vn 0 1 0
vn 0 1 0
vn 0 1 0
vn 0 1 0
vn 0 1 0
vn 0 1 0
vn 0 1 0
vn 0 1 0
vn 0 1 0
vn 0 1 0
vn 0 1 0
vn 0 1 0
vn 0 1 0
vn 0 1 0
vn 0 1 0
vn 0 1 0
vn 0 1 0
vn 0 1 0
vn 0 1 0
vn 0 1 0
vn 0 1 0
vn 0 1 0
vn 0 1 0
vn 0 1 0
vn 0 1 0
vn 0 1 0
vn 0 1 0
vn 0 1 0
vn 0 1 0
vn 0 1 0
vn 0 1 0
vn 0 1 0
vn 0 1 0
vn 0 1 0
g Tube_Puck03_0
f 2/2/2 4/4/4 3/3/3
f 3/3/3 1/1/1 2/2/2
f 4/4/4 6/6/6 5/5/5
f 5/5/5 3/3/3 4/4/4
f 6/6/6 8/8/8 7/7/7
f 7/7/7 5/5/5 6/6/6
f 8/8/8 10/10/10 9/9/9
f 9/9/9 7/7/7 8/8/8
f 10/10/10 12/12/12 11/11/11
f 11/11/11 9/9/9 10/10/10
f 12/12/12 14/14/14 13/13/13
f 13/13/13 11/11/11 12/12/12
f 14/14/14 16/16/16 15/15/15
f 15/15/15 13/13/13 14/14/14
f 16/16/16 18/18/18 17/17/17
f 17/17/17 15/15/15 16/16/16
f 18/18/18 20/20/20 19/19/19
f 19/19/19 17/17/17 18/18/18
f 20/20/20 22/22/22 21/21/21
f 21/21/21 19/19/19 20/20/20
f 22/22/22 24/24/24 23/23/23
f 23/23/23 21/21/21 22/22/22
f 24/24/24 26/26/26 25/25/25
f 25/25/25 23/23/23 24/24/24
f 26/26/26 28/28/28 27/27/27
f 27/27/27 25/25/25 26/26/26
f 28/28/28 30/30/30 29/29/29
f 29/29/29 27/27/27 28/28/28
f 30/30/30 32/32/32 31/31/31
f 31/31/31 29/29/29 30/30/30
f 32/32/32 34/34/34 33/33/33
f 33/33/33 31/31/31 32/32/32
f 34/34/34 36/36/36 35/35/35
f 35/35/35 33/33/33 34/34/34
f 36/36/36 38/38/38 37/37/37
f 37/37/37 35/35/35 36/36/36
f 38/38/38 40/40/40 39/39/39
f 39/39/39 37/37/37 38/38/38
f 40/40/40 42/42/42 41/41/41
f 41/41/41 39/39/39 40/40/40
f 42/42/42 44/44/44 43/43/43
f 43/43/43 41/41/41 42/42/42
f 44/44/44 46/46/46 45/45/45
f 45/45/45 43/43/43 44/44/44
f 46/46/46 48/48/48 47/47/47
f 47/47/47 45/45/45 46/46/46
f 48/48/48 50/50/50 49/49/49
f 49/49/49 47/47/47 48/48/48
f 52/52/52 54/54/54 53/53/53
f 53/53/53 51/51/51 52/52/52
f 54/54/54 56/56/56 55/55/55
f 55/55/55 53/53/53 54/54/54
f 56/56/56 58/58/58 57/57/57
f 57/57/57 55/55/55 56/56/56
f 58/58/58 60/60/60 59/59/59
f 59/59/59 57/57/57 58/58/58
f 60/60/60 62/62/62 61/61/61
f 61/61/61 59/59/59 60/60/60
f 62/62/62 64/64/64 63/63/63
f 63/63/63 61/61/61 62/62/62
f 64/64/64 66/66/66 65/65/65
f 65/65/65 63/63/63 64/64/64
f 66/66/66 68/68/68 67/67/67
f 67/67/67 65/65/65 66/66/66
f 68/68/68 70/70/70 69/69/69
f 69/69/69 67/67/67 68/68/68
f 70/70/70 72/72/72 71/71/71
f 71/71/71 69/69/69 70/70/70
f 72/72/72 74/74/74 73/73/73
f 73/73/73 71/71/71 72/72/72
f 74/74/74 76/76/76 75/75/75
f 75/75/75 73/73/73 74/74/74
f 76/76/76 78/78/78 77/77/77
f 77/77/77 75/75/75 76/76/76
f 78/78/78 80/80/80 79/79/79
f 79/79/79 77/77/77 78/78/78
f 80/80/80 82/82/82 81/81/81
f 81/81/81 79/79/79 80/80/80
f 82/82/82 84/84/84 83/83/83
f 83/83/83 81/81/81 82/82/82
f 84/84/84 86/86/86 85/85/85
f 85/85/85 83/83/83 84/84/84
f 86/86/86 88/88/88 87/87/87
f 87/87/87 85/85/85 86/86/86
f 88/88/88 90/90/90 89/89/89
f 89/89/89 87/87/87 88/88/88
f 90/90/90 92/92/92 91/91/91
f 91/91/91 89/89/89 90/90/90
f 92/92/92 94/94/94 93/93/93
f 93/93/93 91/91/91 92/92/92
f 94/94/94 96/96/96 95/95/95
f 95/95/95 93/93/93 94/94/94
f 96/96/96 98/98/98 97/97/97
f 97/97/97 95/95/95 96/96/96
f 98/98/98 100/100/100 99/99/99
f 99/99/99 97/97/97 98/98/98
f 104/104/104 102/102/102 101/101/101
f 101/101/101 103/103/103 104/104/104
f 106/106/106 104/104/104 103/103/103
f 103/103/103 105/105/105 106/106/106
f 108/108/108 106/106/106 105/105/105
f 105/105/105 107/107/107 108/108/108
f 110/110/110 108/108/108 107/107/107
f 107/107/107 109/109/109 110/110/110
f 112/112/112 110/110/110 109/109/109
f 109/109/109 111/111/111 112/112/112
f 114/114/114 112/112/112 111/111/111
f 111/111/111 113/113/113 114/114/114
f 116/116/116 114/114/114 113/113/113
f 113/113/113 115/115/115 116/116/116
f 118/118/118 116/116/116 115/115/115
f 115/115/115 117/117/117 118/118/118
f 120/120/120 118/118/118 117/117/117
f 117/117/117 119/119/119 120/120/120
f 122/122/122 120/120/120 119/119/119
f 119/119/119 121/121/121 122/122/122
f 124/124/124 122/122/122 121/121/121
f 121/121/121 123/123/123 124/124/124
f 126/126/126 124/124/124 123/123/123
f 123/123/123 125/125/125 126/126/126
f 128/128/128 126/126/126 125/125/125
f 125/125/125 127/127/127 128/128/128
f 130/130/130 128/128/128 127/127/127
f 127/127/127 129/129/129 130/130/130
f 132/132/132 130/130/130 129/129/129
f 129/129/129 131/131/131 132/132/132
f 134/134/134 132/132/132 131/131/131
f 131/131/131 133/133/133 134/134/134
f 136/136/136 134/134/134 133/133/133
f 133/133/133 135/135/135 136/136/136
f 138/138/138 136/136/136 135/135/135
f 135/135/135 137/137/137 138/138/138
f 140/140/140 138/138/138 137/137/137
f 137/137/137 139/139/139 140/140/140
f 142/142/142 140/140/140 139/139/139
f 139/139/139 141/141/141 142/142/142
f 144/144/144 142/142/142 141/141/141
f 141/141/141 143/143/143 144/144/144
f 146/146/146 144/144/144 143/143/143
f 143/143/143 145/145/145 146/146/146
f 148/148/148 146/146/146 145/145/145
f 145/145/145 147/147/147 148/148/148
f 150/150/150 148/148/148 147/147/147
f 147/147/147 149/149/149 150/150/150
f 154/154/154 152/152/152 151/151/151
f 151/151/151 153/153/153 154/154/154
f 156/156/156 154/154/154 153/153/153
f 153/153/153 155/155/155 156/156/156
f 158/158/158 156/156/156 155/155/155
f 155/155/155 157/157/157 158/158/158
f 160/160/160 158/158/158 157/157/157
f 157/157/157 159/159/159 160/160/160
f 162/162/162 160/160/160 159/159/159
f 159/159/159 161/161/161 162/162/162
f 164/164/164 162/162/162 161/161/161
f 161/161/161 163/163/163 164/164/164
f 166/166/166 164/164/164 163/163/163
f 163/163/163 165/165/165 166/166/166
f 168/168/168 166/166/166 165/165/165
f 165/165/165 167/167/167 168/168/168
f 170/170/170 168/168/168 167/167/167
f 167/167/167 169/169/169 170/170/170
f 172/172/172 170/170/170 169/169/169
f 169/169/169 171/171/171 172/172/172
f 174/174/174 172/172/172 171/171/171
f 171/171/171 173/173/173 174/174/174
f 176/176/176 174/174/174 173/173/173
f 173/173/173 175/175/175 176/176/176
f 178/178/178 176/176/176 175/175/175
f 175/175/175 177/177/177 178/178/178
f 180/180/180 178/178/178 177/177/177
f 177/177/177 179/179/179 180/180/180
f 182/182/182 180/180/180 179/179/179
f 179/179/179 181/181/181 182/182/182
f 184/184/184 182/182/182 181/181/181
f 181/181/181 183/183/183 184/184/184
f 186/186/186 184/184/184 183/183/183
f 183/183/183 185/185/185 186/186/186
f 188/188/188 186/186/186 185/185/185
f 185/185/185 187/187/187 188/188/188
f 190/190/190 188/188/188 187/187/187
f 187/187/187 189/189/189 190/190/190
f 192/192/192 190/190/190 189/189/189
f 189/189/189 191/191/191 192/192/192
f 194/194/194 192/192/192 191/191/191
f 191/191/191 193/193/193 194/194/194
f 196/196/196 194/194/194 193/193/193
f 193/193/193 195/195/195 196/196/196
f 198/198/198 196/196/196 195/195/195
f 195/195/195 197/197/197 198/198/198
f 200/200/200 198/198/198 197/197/197
f 197/197/197 199/199/199 200/200/200
