g Water
v -3.147897 -0.09971916 -4.310905
v -2.488842 -0.09971916 -4.594532
v 2.512508 -0.09971916 -4.594532
v 3.171565 -0.09971916 -4.310905
v -3.420888 -0.09971916 -3.62617
v 3.444555 -0.09971916 -3.62617
v -3.420888 -0.09971916 3.47014
v 3.444555 -0.09971916 3.47014
v -3.147897 -0.09971916 4.154875
v 3.171565 -0.09971916 4.154875
v -2.488842 -0.09971916 4.438502
v 2.512508 -0.09971916 4.438502
vt 0 0
vt 0 0
vt 0 0
vt 0 0
vt 0 0
vt 0 0
vt 0 0
vt 0 0
vt 0 0
vt 0 0
vt 0 0
vt 0 0
vn 0 1 0
vn 0 1 0
vn 0 1 0
vn 0 1 0
vn 0 1 0
vn 0 1 0
vn 0 1 0
vn 0 1 0
vn 0 1 0
vn 0 1 0
vn 0 1 0
vn 0 1 0
g Water_0
f 3/3/3 2/2/2 1/1/1
f 1/1/1 4/4/4 3/3/3
f 1/1/1 5/5/5 4/4/4
f 5/5/5 6/6/6 4/4/4
f 5/5/5 7/7/7 6/6/6
f 7/7/7 8/8/8 6/6/6
f 7/7/7 9/9/9 8/8/8
f 9/9/9 10/10/10 8/8/8
f 9/9/9 11/11/11 10/10/10
f 11/11/11 12/12/12 10/10/10
