g Water
v -2.055776 -0.08167544 -3.235852
v -1.610785 -0.08167544 -3.452754
v 1.766107 -0.08167544 -3.452754
v 2.211099 -0.08167544 -3.235852
v -2.240099 -0.08167544 -2.712204
v 2.395421 -0.08167544 -2.712204
v -2.240099 -0.08167544 2.714655
v 2.395421 -0.08167544 2.714655
v -2.055776 -0.08167544 3.238303
v 2.211099 -0.08167544 3.238303
v -1.610785 -0.08167544 3.455205
v 1.766107 -0.08167544 3.455205
vt 0.5515847 0.4333608
vt 0.5544053 0.4342835
vt 0.5758111 0.4342835
vt 0.5786319 0.4333609
vt 0.5504162 0.4311334
vt 0.5798002 0.4311334
vt 0.5504162 0.4080495
vt 0.5798002 0.4080495
vt 0.5515847 0.4058221
vt 0.5786319 0.4058221
vt 0.5544053 0.4048994
vt 0.5758111 0.4048994
vn 0 1 0
vn 0 1 0
vn 0 1 0
vn 0 1 0
vn 0 1 0
vn 0 1 0
vn 0 1 0
vn 0 1 0
vn 0 1 0
vn 0 1 0
vn 0 1 0
vn 0 1 0
g Water_0
f 3/3/3 2/2/2 1/1/1
f 1/1/1 4/4/4 3/3/3
f 1/1/1 5/5/5 4/4/4
f 5/5/5 6/6/6 4/4/4
f 5/5/5 7/7/7 6/6/6
f 7/7/7 8/8/8 6/6/6
f 7/7/7 9/9/9 8/8/8
f 9/9/9 10/10/10 8/8/8
f 9/9/9 11/11/11 10/10/10
f 11/11/11 12/12/12 10/10/10
