g WaterLeaf
v -0.4502447 0 -0.5124335
v 0.05588227 0 -0.692439
v 0.5654708 0 -0.3367998
v -0.6570841 0 -0.003806636
v 0.2217346 0 -0.009485975
v 0.5696726 0 0.3133579
v -0.4436881 0 0.5021046
v 0.06472302 0 0.6755534
vt 0.2900419 0.5188173
vt 0.2821143 0.5393835
vt 0.2961535 0.5606676
vt 0.3111265 0.5108804
vt 0.3099485 0.5469207
vt 0.3228163 0.5615391
vt 0.3316479 0.5201773
vt 0.3382155 0.5412172
vn 0 1 0
vn 0 1 0
vn 0 1 0
vn 0 1 0
vn 0 1 0
vn 0 1 0
vn 0 1 0
vn 0 1 0
g WaterLeaf_0
f 3/3/3 2/2/2 1/1/1
f 1/1/1 4/4/4 3/3/3
f 4/4/4 5/5/5 3/3/3
f 4/4/4 6/6/6 5/5/5
f 4/4/4 7/7/7 6/6/6
f 7/7/7 8/8/8 6/6/6
